%TF.GenerationSoftware,KiCad,Pcbnew,(5.1.8)-1*%
%TF.CreationDate,2020-12-19T10:03:23+01:00*%
%TF.ProjectId,MM32,4d4d3332-2e6b-4696-9361-645f70636258,rev?*%
%TF.SameCoordinates,Original*%
%TF.FileFunction,Soldermask,Bot*%
%TF.FilePolarity,Negative*%
%FSLAX46Y46*%
G04 Gerber Fmt 4.6, Leading zero omitted, Abs format (unit mm)*
G04 Created by KiCad (PCBNEW (5.1.8)-1) date 2020-12-19 10:03:23*
%MOMM*%
%LPD*%
G01*
G04 APERTURE LIST*
%ADD10C,0.050800*%
%ADD11C,0.100000*%
%ADD12R,1.000000X1.500000*%
%ADD13R,1.150000X2.200000*%
%ADD14R,0.800000X0.900000*%
%ADD15R,1.500000X1.000000*%
G04 APERTURE END LIST*
D10*
%TO.C,JP1*%
G36*
X138811000Y-65074800D02*
G01*
X141147800Y-65074800D01*
X141147800Y-63652400D01*
X138811000Y-63652400D01*
X138811000Y-65074800D01*
G37*
X138811000Y-65074800D02*
X141147800Y-65074800D01*
X141147800Y-63652400D01*
X138811000Y-63652400D01*
X138811000Y-65074800D01*
D11*
%TO.C,JP2*%
G36*
X122109000Y-57504000D02*
G01*
X122109000Y-59904000D01*
X123509000Y-59904000D01*
X123509000Y-57504000D01*
X122109000Y-57504000D01*
G37*
X122109000Y-57504000D02*
X122109000Y-59904000D01*
X123509000Y-59904000D01*
X123509000Y-57504000D01*
X122109000Y-57504000D01*
%TD*%
D12*
%TO.C,JP1*%
X139979400Y-64363600D03*
D11*
G36*
X138679400Y-65112998D02*
G01*
X138654866Y-65112998D01*
X138606035Y-65108188D01*
X138557910Y-65098616D01*
X138510955Y-65084372D01*
X138465622Y-65065595D01*
X138422349Y-65042464D01*
X138381550Y-65015204D01*
X138343621Y-64984076D01*
X138308924Y-64949379D01*
X138277796Y-64911450D01*
X138250536Y-64870651D01*
X138227405Y-64827378D01*
X138208628Y-64782045D01*
X138194384Y-64735090D01*
X138184812Y-64686965D01*
X138180002Y-64638134D01*
X138180002Y-64613600D01*
X138179400Y-64613600D01*
X138179400Y-64113600D01*
X138180002Y-64113600D01*
X138180002Y-64089066D01*
X138184812Y-64040235D01*
X138194384Y-63992110D01*
X138208628Y-63945155D01*
X138227405Y-63899822D01*
X138250536Y-63856549D01*
X138277796Y-63815750D01*
X138308924Y-63777821D01*
X138343621Y-63743124D01*
X138381550Y-63711996D01*
X138422349Y-63684736D01*
X138465622Y-63661605D01*
X138510955Y-63642828D01*
X138557910Y-63628584D01*
X138606035Y-63619012D01*
X138654866Y-63614202D01*
X138679400Y-63614202D01*
X138679400Y-63613600D01*
X139229400Y-63613600D01*
X139229400Y-65113600D01*
X138679400Y-65113600D01*
X138679400Y-65112998D01*
G37*
G36*
X140729400Y-63613600D02*
G01*
X141279400Y-63613600D01*
X141279400Y-63614202D01*
X141303934Y-63614202D01*
X141352765Y-63619012D01*
X141400890Y-63628584D01*
X141447845Y-63642828D01*
X141493178Y-63661605D01*
X141536451Y-63684736D01*
X141577250Y-63711996D01*
X141615179Y-63743124D01*
X141649876Y-63777821D01*
X141681004Y-63815750D01*
X141708264Y-63856549D01*
X141731395Y-63899822D01*
X141750172Y-63945155D01*
X141764416Y-63992110D01*
X141773988Y-64040235D01*
X141778798Y-64089066D01*
X141778798Y-64113600D01*
X141779400Y-64113600D01*
X141779400Y-64613600D01*
X141778798Y-64613600D01*
X141778798Y-64638134D01*
X141773988Y-64686965D01*
X141764416Y-64735090D01*
X141750172Y-64782045D01*
X141731395Y-64827378D01*
X141708264Y-64870651D01*
X141681004Y-64911450D01*
X141649876Y-64949379D01*
X141615179Y-64984076D01*
X141577250Y-65015204D01*
X141536451Y-65042464D01*
X141493178Y-65065595D01*
X141447845Y-65084372D01*
X141400890Y-65098616D01*
X141352765Y-65108188D01*
X141303934Y-65112998D01*
X141279400Y-65112998D01*
X141279400Y-65113600D01*
X140729400Y-65113600D01*
X140729400Y-63613600D01*
G37*
%TD*%
D13*
%TO.C,Y2*%
X136182400Y-63271400D03*
X134632400Y-63271400D03*
%TD*%
D14*
%TO.C,D2*%
X123164600Y-68935600D03*
X124114600Y-66935600D03*
X122214600Y-66935600D03*
%TD*%
D11*
%TO.C,JP2*%
G36*
X123559000Y-59454000D02*
G01*
X123559000Y-60004000D01*
X123558398Y-60004000D01*
X123558398Y-60028534D01*
X123553588Y-60077365D01*
X123544016Y-60125490D01*
X123529772Y-60172445D01*
X123510995Y-60217778D01*
X123487864Y-60261051D01*
X123460604Y-60301850D01*
X123429476Y-60339779D01*
X123394779Y-60374476D01*
X123356850Y-60405604D01*
X123316051Y-60432864D01*
X123272778Y-60455995D01*
X123227445Y-60474772D01*
X123180490Y-60489016D01*
X123132365Y-60498588D01*
X123083534Y-60503398D01*
X123059000Y-60503398D01*
X123059000Y-60504000D01*
X122559000Y-60504000D01*
X122559000Y-60503398D01*
X122534466Y-60503398D01*
X122485635Y-60498588D01*
X122437510Y-60489016D01*
X122390555Y-60474772D01*
X122345222Y-60455995D01*
X122301949Y-60432864D01*
X122261150Y-60405604D01*
X122223221Y-60374476D01*
X122188524Y-60339779D01*
X122157396Y-60301850D01*
X122130136Y-60261051D01*
X122107005Y-60217778D01*
X122088228Y-60172445D01*
X122073984Y-60125490D01*
X122064412Y-60077365D01*
X122059602Y-60028534D01*
X122059602Y-60004000D01*
X122059000Y-60004000D01*
X122059000Y-59454000D01*
X123559000Y-59454000D01*
G37*
D15*
X122809000Y-58704000D03*
D11*
G36*
X122059602Y-57404000D02*
G01*
X122059602Y-57379466D01*
X122064412Y-57330635D01*
X122073984Y-57282510D01*
X122088228Y-57235555D01*
X122107005Y-57190222D01*
X122130136Y-57146949D01*
X122157396Y-57106150D01*
X122188524Y-57068221D01*
X122223221Y-57033524D01*
X122261150Y-57002396D01*
X122301949Y-56975136D01*
X122345222Y-56952005D01*
X122390555Y-56933228D01*
X122437510Y-56918984D01*
X122485635Y-56909412D01*
X122534466Y-56904602D01*
X122559000Y-56904602D01*
X122559000Y-56904000D01*
X123059000Y-56904000D01*
X123059000Y-56904602D01*
X123083534Y-56904602D01*
X123132365Y-56909412D01*
X123180490Y-56918984D01*
X123227445Y-56933228D01*
X123272778Y-56952005D01*
X123316051Y-56975136D01*
X123356850Y-57002396D01*
X123394779Y-57033524D01*
X123429476Y-57068221D01*
X123460604Y-57106150D01*
X123487864Y-57146949D01*
X123510995Y-57190222D01*
X123529772Y-57235555D01*
X123544016Y-57282510D01*
X123553588Y-57330635D01*
X123558398Y-57379466D01*
X123558398Y-57404000D01*
X123559000Y-57404000D01*
X123559000Y-57954000D01*
X122059000Y-57954000D01*
X122059000Y-57404000D01*
X122059602Y-57404000D01*
G37*
%TD*%
%TO.C,J1*%
G36*
G01*
X122878500Y-75015000D02*
X122878500Y-73065000D01*
G75*
G02*
X122980100Y-72963400I101600J0D01*
G01*
X123330100Y-72963400D01*
G75*
G02*
X123431700Y-73065000I0J-101600D01*
G01*
X123431700Y-75015000D01*
G75*
G02*
X123330100Y-75116600I-101600J0D01*
G01*
X122980100Y-75116600D01*
G75*
G02*
X122878500Y-75015000I0J101600D01*
G01*
G37*
G36*
G01*
X123378500Y-75015000D02*
X123378500Y-73065000D01*
G75*
G02*
X123480100Y-72963400I101600J0D01*
G01*
X123830100Y-72963400D01*
G75*
G02*
X123931700Y-73065000I0J-101600D01*
G01*
X123931700Y-75015000D01*
G75*
G02*
X123830100Y-75116600I-101600J0D01*
G01*
X123480100Y-75116600D01*
G75*
G02*
X123378500Y-75015000I0J101600D01*
G01*
G37*
G36*
G01*
X123878500Y-75015000D02*
X123878500Y-73065000D01*
G75*
G02*
X123980100Y-72963400I101600J0D01*
G01*
X124330100Y-72963400D01*
G75*
G02*
X124431700Y-73065000I0J-101600D01*
G01*
X124431700Y-75015000D01*
G75*
G02*
X124330100Y-75116600I-101600J0D01*
G01*
X123980100Y-75116600D01*
G75*
G02*
X123878500Y-75015000I0J101600D01*
G01*
G37*
G36*
G01*
X124378500Y-75015000D02*
X124378500Y-73065000D01*
G75*
G02*
X124480100Y-72963400I101600J0D01*
G01*
X124830100Y-72963400D01*
G75*
G02*
X124931700Y-73065000I0J-101600D01*
G01*
X124931700Y-75015000D01*
G75*
G02*
X124830100Y-75116600I-101600J0D01*
G01*
X124480100Y-75116600D01*
G75*
G02*
X124378500Y-75015000I0J101600D01*
G01*
G37*
G36*
G01*
X124878500Y-75015000D02*
X124878500Y-73065000D01*
G75*
G02*
X124980100Y-72963400I101600J0D01*
G01*
X125330100Y-72963400D01*
G75*
G02*
X125431700Y-73065000I0J-101600D01*
G01*
X125431700Y-75015000D01*
G75*
G02*
X125330100Y-75116600I-101600J0D01*
G01*
X124980100Y-75116600D01*
G75*
G02*
X124878500Y-75015000I0J101600D01*
G01*
G37*
G36*
G01*
X125378500Y-75015000D02*
X125378500Y-73065000D01*
G75*
G02*
X125480100Y-72963400I101600J0D01*
G01*
X125830100Y-72963400D01*
G75*
G02*
X125931700Y-73065000I0J-101600D01*
G01*
X125931700Y-75015000D01*
G75*
G02*
X125830100Y-75116600I-101600J0D01*
G01*
X125480100Y-75116600D01*
G75*
G02*
X125378500Y-75015000I0J101600D01*
G01*
G37*
G36*
G01*
X125878500Y-75015000D02*
X125878500Y-73065000D01*
G75*
G02*
X125980100Y-72963400I101600J0D01*
G01*
X126330100Y-72963400D01*
G75*
G02*
X126431700Y-73065000I0J-101600D01*
G01*
X126431700Y-75015000D01*
G75*
G02*
X126330100Y-75116600I-101600J0D01*
G01*
X125980100Y-75116600D01*
G75*
G02*
X125878500Y-75015000I0J101600D01*
G01*
G37*
G36*
G01*
X126378500Y-75015000D02*
X126378500Y-73065000D01*
G75*
G02*
X126480100Y-72963400I101600J0D01*
G01*
X126830100Y-72963400D01*
G75*
G02*
X126931700Y-73065000I0J-101600D01*
G01*
X126931700Y-75015000D01*
G75*
G02*
X126830100Y-75116600I-101600J0D01*
G01*
X126480100Y-75116600D01*
G75*
G02*
X126378500Y-75015000I0J101600D01*
G01*
G37*
G36*
G01*
X126878500Y-75015000D02*
X126878500Y-73065000D01*
G75*
G02*
X126980100Y-72963400I101600J0D01*
G01*
X127330100Y-72963400D01*
G75*
G02*
X127431700Y-73065000I0J-101600D01*
G01*
X127431700Y-75015000D01*
G75*
G02*
X127330100Y-75116600I-101600J0D01*
G01*
X126980100Y-75116600D01*
G75*
G02*
X126878500Y-75015000I0J101600D01*
G01*
G37*
G36*
G01*
X127378500Y-75015000D02*
X127378500Y-73065000D01*
G75*
G02*
X127480100Y-72963400I101600J0D01*
G01*
X127830100Y-72963400D01*
G75*
G02*
X127931700Y-73065000I0J-101600D01*
G01*
X127931700Y-75015000D01*
G75*
G02*
X127830100Y-75116600I-101600J0D01*
G01*
X127480100Y-75116600D01*
G75*
G02*
X127378500Y-75015000I0J101600D01*
G01*
G37*
G36*
G01*
X127878500Y-75015000D02*
X127878500Y-73065000D01*
G75*
G02*
X127980100Y-72963400I101600J0D01*
G01*
X128330100Y-72963400D01*
G75*
G02*
X128431700Y-73065000I0J-101600D01*
G01*
X128431700Y-75015000D01*
G75*
G02*
X128330100Y-75116600I-101600J0D01*
G01*
X127980100Y-75116600D01*
G75*
G02*
X127878500Y-75015000I0J101600D01*
G01*
G37*
G36*
G01*
X128378500Y-75015000D02*
X128378500Y-73065000D01*
G75*
G02*
X128480100Y-72963400I101600J0D01*
G01*
X128830100Y-72963400D01*
G75*
G02*
X128931700Y-73065000I0J-101600D01*
G01*
X128931700Y-75015000D01*
G75*
G02*
X128830100Y-75116600I-101600J0D01*
G01*
X128480100Y-75116600D01*
G75*
G02*
X128378500Y-75015000I0J101600D01*
G01*
G37*
G36*
G01*
X128878500Y-75015000D02*
X128878500Y-73065000D01*
G75*
G02*
X128980100Y-72963400I101600J0D01*
G01*
X129330100Y-72963400D01*
G75*
G02*
X129431700Y-73065000I0J-101600D01*
G01*
X129431700Y-75015000D01*
G75*
G02*
X129330100Y-75116600I-101600J0D01*
G01*
X128980100Y-75116600D01*
G75*
G02*
X128878500Y-75015000I0J101600D01*
G01*
G37*
G36*
G01*
X129378500Y-75015000D02*
X129378500Y-73065000D01*
G75*
G02*
X129480100Y-72963400I101600J0D01*
G01*
X129830100Y-72963400D01*
G75*
G02*
X129931700Y-73065000I0J-101600D01*
G01*
X129931700Y-75015000D01*
G75*
G02*
X129830100Y-75116600I-101600J0D01*
G01*
X129480100Y-75116600D01*
G75*
G02*
X129378500Y-75015000I0J101600D01*
G01*
G37*
G36*
G01*
X129878500Y-75015000D02*
X129878500Y-73065000D01*
G75*
G02*
X129980100Y-72963400I101600J0D01*
G01*
X130330100Y-72963400D01*
G75*
G02*
X130431700Y-73065000I0J-101600D01*
G01*
X130431700Y-75015000D01*
G75*
G02*
X130330100Y-75116600I-101600J0D01*
G01*
X129980100Y-75116600D01*
G75*
G02*
X129878500Y-75015000I0J101600D01*
G01*
G37*
G36*
G01*
X130378500Y-75015000D02*
X130378500Y-73065000D01*
G75*
G02*
X130480100Y-72963400I101600J0D01*
G01*
X130830100Y-72963400D01*
G75*
G02*
X130931700Y-73065000I0J-101600D01*
G01*
X130931700Y-75015000D01*
G75*
G02*
X130830100Y-75116600I-101600J0D01*
G01*
X130480100Y-75116600D01*
G75*
G02*
X130378500Y-75015000I0J101600D01*
G01*
G37*
G36*
G01*
X130878500Y-75015000D02*
X130878500Y-73065000D01*
G75*
G02*
X130980100Y-72963400I101600J0D01*
G01*
X131330100Y-72963400D01*
G75*
G02*
X131431700Y-73065000I0J-101600D01*
G01*
X131431700Y-75015000D01*
G75*
G02*
X131330100Y-75116600I-101600J0D01*
G01*
X130980100Y-75116600D01*
G75*
G02*
X130878500Y-75015000I0J101600D01*
G01*
G37*
G36*
G01*
X131378500Y-75015000D02*
X131378500Y-73065000D01*
G75*
G02*
X131480100Y-72963400I101600J0D01*
G01*
X131830100Y-72963400D01*
G75*
G02*
X131931700Y-73065000I0J-101600D01*
G01*
X131931700Y-75015000D01*
G75*
G02*
X131830100Y-75116600I-101600J0D01*
G01*
X131480100Y-75116600D01*
G75*
G02*
X131378500Y-75015000I0J101600D01*
G01*
G37*
G36*
G01*
X131878500Y-75015000D02*
X131878500Y-73065000D01*
G75*
G02*
X131980100Y-72963400I101600J0D01*
G01*
X132330100Y-72963400D01*
G75*
G02*
X132431700Y-73065000I0J-101600D01*
G01*
X132431700Y-75015000D01*
G75*
G02*
X132330100Y-75116600I-101600J0D01*
G01*
X131980100Y-75116600D01*
G75*
G02*
X131878500Y-75015000I0J101600D01*
G01*
G37*
G36*
G01*
X132378500Y-75015000D02*
X132378500Y-73065000D01*
G75*
G02*
X132480100Y-72963400I101600J0D01*
G01*
X132830100Y-72963400D01*
G75*
G02*
X132931700Y-73065000I0J-101600D01*
G01*
X132931700Y-75015000D01*
G75*
G02*
X132830100Y-75116600I-101600J0D01*
G01*
X132480100Y-75116600D01*
G75*
G02*
X132378500Y-75015000I0J101600D01*
G01*
G37*
G36*
G01*
X132878500Y-75015000D02*
X132878500Y-73065000D01*
G75*
G02*
X132980100Y-72963400I101600J0D01*
G01*
X133330100Y-72963400D01*
G75*
G02*
X133431700Y-73065000I0J-101600D01*
G01*
X133431700Y-75015000D01*
G75*
G02*
X133330100Y-75116600I-101600J0D01*
G01*
X132980100Y-75116600D01*
G75*
G02*
X132878500Y-75015000I0J101600D01*
G01*
G37*
G36*
G01*
X133378500Y-75015000D02*
X133378500Y-73065000D01*
G75*
G02*
X133480100Y-72963400I101600J0D01*
G01*
X133830100Y-72963400D01*
G75*
G02*
X133931700Y-73065000I0J-101600D01*
G01*
X133931700Y-75015000D01*
G75*
G02*
X133830100Y-75116600I-101600J0D01*
G01*
X133480100Y-75116600D01*
G75*
G02*
X133378500Y-75015000I0J101600D01*
G01*
G37*
G36*
G01*
X135878500Y-75015000D02*
X135878500Y-73065000D01*
G75*
G02*
X135980100Y-72963400I101600J0D01*
G01*
X136330100Y-72963400D01*
G75*
G02*
X136431700Y-73065000I0J-101600D01*
G01*
X136431700Y-75015000D01*
G75*
G02*
X136330100Y-75116600I-101600J0D01*
G01*
X135980100Y-75116600D01*
G75*
G02*
X135878500Y-75015000I0J101600D01*
G01*
G37*
G36*
G01*
X136378500Y-75015000D02*
X136378500Y-73065000D01*
G75*
G02*
X136480100Y-72963400I101600J0D01*
G01*
X136830100Y-72963400D01*
G75*
G02*
X136931700Y-73065000I0J-101600D01*
G01*
X136931700Y-75015000D01*
G75*
G02*
X136830100Y-75116600I-101600J0D01*
G01*
X136480100Y-75116600D01*
G75*
G02*
X136378500Y-75015000I0J101600D01*
G01*
G37*
G36*
G01*
X136878500Y-75015000D02*
X136878500Y-73065000D01*
G75*
G02*
X136980100Y-72963400I101600J0D01*
G01*
X137330100Y-72963400D01*
G75*
G02*
X137431700Y-73065000I0J-101600D01*
G01*
X137431700Y-75015000D01*
G75*
G02*
X137330100Y-75116600I-101600J0D01*
G01*
X136980100Y-75116600D01*
G75*
G02*
X136878500Y-75015000I0J101600D01*
G01*
G37*
G36*
G01*
X137378500Y-75015000D02*
X137378500Y-73065000D01*
G75*
G02*
X137480100Y-72963400I101600J0D01*
G01*
X137830100Y-72963400D01*
G75*
G02*
X137931700Y-73065000I0J-101600D01*
G01*
X137931700Y-75015000D01*
G75*
G02*
X137830100Y-75116600I-101600J0D01*
G01*
X137480100Y-75116600D01*
G75*
G02*
X137378500Y-75015000I0J101600D01*
G01*
G37*
G36*
G01*
X137878500Y-75015000D02*
X137878500Y-73065000D01*
G75*
G02*
X137980100Y-72963400I101600J0D01*
G01*
X138330100Y-72963400D01*
G75*
G02*
X138431700Y-73065000I0J-101600D01*
G01*
X138431700Y-75015000D01*
G75*
G02*
X138330100Y-75116600I-101600J0D01*
G01*
X137980100Y-75116600D01*
G75*
G02*
X137878500Y-75015000I0J101600D01*
G01*
G37*
G36*
G01*
X138378500Y-75015000D02*
X138378500Y-73065000D01*
G75*
G02*
X138480100Y-72963400I101600J0D01*
G01*
X138830100Y-72963400D01*
G75*
G02*
X138931700Y-73065000I0J-101600D01*
G01*
X138931700Y-75015000D01*
G75*
G02*
X138830100Y-75116600I-101600J0D01*
G01*
X138480100Y-75116600D01*
G75*
G02*
X138378500Y-75015000I0J101600D01*
G01*
G37*
G36*
G01*
X138878500Y-75015000D02*
X138878500Y-73065000D01*
G75*
G02*
X138980100Y-72963400I101600J0D01*
G01*
X139330100Y-72963400D01*
G75*
G02*
X139431700Y-73065000I0J-101600D01*
G01*
X139431700Y-75015000D01*
G75*
G02*
X139330100Y-75116600I-101600J0D01*
G01*
X138980100Y-75116600D01*
G75*
G02*
X138878500Y-75015000I0J101600D01*
G01*
G37*
G36*
G01*
X139378500Y-75015000D02*
X139378500Y-73065000D01*
G75*
G02*
X139480100Y-72963400I101600J0D01*
G01*
X139830100Y-72963400D01*
G75*
G02*
X139931700Y-73065000I0J-101600D01*
G01*
X139931700Y-75015000D01*
G75*
G02*
X139830100Y-75116600I-101600J0D01*
G01*
X139480100Y-75116600D01*
G75*
G02*
X139378500Y-75015000I0J101600D01*
G01*
G37*
G36*
G01*
X139878500Y-75015000D02*
X139878500Y-73065000D01*
G75*
G02*
X139980100Y-72963400I101600J0D01*
G01*
X140330100Y-72963400D01*
G75*
G02*
X140431700Y-73065000I0J-101600D01*
G01*
X140431700Y-75015000D01*
G75*
G02*
X140330100Y-75116600I-101600J0D01*
G01*
X139980100Y-75116600D01*
G75*
G02*
X139878500Y-75015000I0J101600D01*
G01*
G37*
G36*
G01*
X140378500Y-75015000D02*
X140378500Y-73065000D01*
G75*
G02*
X140480100Y-72963400I101600J0D01*
G01*
X140830100Y-72963400D01*
G75*
G02*
X140931700Y-73065000I0J-101600D01*
G01*
X140931700Y-75015000D01*
G75*
G02*
X140830100Y-75116600I-101600J0D01*
G01*
X140480100Y-75116600D01*
G75*
G02*
X140378500Y-75015000I0J101600D01*
G01*
G37*
G36*
G01*
X140878500Y-75015000D02*
X140878500Y-73065000D01*
G75*
G02*
X140980100Y-72963400I101600J0D01*
G01*
X141330100Y-72963400D01*
G75*
G02*
X141431700Y-73065000I0J-101600D01*
G01*
X141431700Y-75015000D01*
G75*
G02*
X141330100Y-75116600I-101600J0D01*
G01*
X140980100Y-75116600D01*
G75*
G02*
X140878500Y-75015000I0J101600D01*
G01*
G37*
%TD*%
M02*
