%TF.GenerationSoftware,KiCad,Pcbnew,(5.1.8)-1*%
%TF.CreationDate,2020-12-19T10:03:23+01:00*%
%TF.ProjectId,MM32,4d4d3332-2e6b-4696-9361-645f70636258,rev?*%
%TF.SameCoordinates,Original*%
%TF.FileFunction,Copper,L2,Inr*%
%TF.FilePolarity,Positive*%
%FSLAX46Y46*%
G04 Gerber Fmt 4.6, Leading zero omitted, Abs format (unit mm)*
G04 Created by KiCad (PCBNEW (5.1.8)-1) date 2020-12-19 10:03:23*
%MOMM*%
%LPD*%
G01*
G04 APERTURE LIST*
%TA.AperFunction,ViaPad*%
%ADD10C,0.469900*%
%TD*%
%TA.AperFunction,ViaPad*%
%ADD11C,0.635000*%
%TD*%
%TA.AperFunction,Conductor*%
%ADD12C,0.127000*%
%TD*%
%TA.AperFunction,Conductor*%
%ADD13C,0.100000*%
%TD*%
G04 APERTURE END LIST*
D10*
%TO.N,GND*%
X128651000Y-62230000D03*
D11*
X129209800Y-55473600D03*
X139877800Y-64427100D03*
X141554200Y-71272400D03*
X132664190Y-72694800D03*
X123190000Y-68041098D03*
X121869200Y-70739000D03*
X139647090Y-71577200D03*
D10*
X128003300Y-70396092D03*
X130352800Y-64998600D03*
X139546500Y-60515500D03*
D11*
X132714283Y-71247717D03*
D10*
%TO.N,+3V3*%
X127393700Y-60947300D03*
D11*
X141401800Y-62763400D03*
D10*
X125450600Y-58674000D03*
D11*
X124548900Y-70091300D03*
X123469390Y-72186800D03*
X134956506Y-68224400D03*
X141655800Y-69277200D03*
X141528800Y-70256400D03*
X127088977Y-70060765D03*
X128993894Y-70142122D03*
X137821500Y-60515472D03*
X126161800Y-54559198D03*
D10*
%TO.N,USB-D-*%
X137998200Y-67515896D03*
X128447800Y-67856100D03*
%TO.N,USB-D+*%
X139217400Y-67527166D03*
X127819110Y-67862418D03*
%TO.N,BOOT*%
X140265140Y-67527200D03*
X139477771Y-70637396D03*
%TO.N,RESET*%
X133781798Y-58674000D03*
X137972800Y-62738000D03*
X141706600Y-66547996D03*
%TO.N,SWD_CLK*%
X130644801Y-63728281D03*
X135768284Y-71905559D03*
%TO.N,SWD_DIO*%
X137439400Y-63017400D03*
X137433060Y-64708097D03*
X130586352Y-63134237D03*
X135342824Y-71483522D03*
%TO.N,/PTB1*%
X136804402Y-66040000D03*
X133675056Y-63138021D03*
%TO.N,D06-PTD4*%
X127679562Y-65570100D03*
%TO.N,D08-PTD3*%
X127917846Y-64577124D03*
%TO.N,D07-PTD2*%
X127895155Y-63980644D03*
%TO.N,D14-PTD1*%
X128388808Y-63645069D03*
%TO.N,D02-PTD0*%
X129047064Y-63083329D03*
%TO.N,Net-(D1-Pad2)*%
X123926600Y-58674000D03*
%TO.N,DAC*%
X129808110Y-66524652D03*
%TO.N,D32-CTS1*%
X130377905Y-59690287D03*
X136919094Y-71495274D03*
%TO.N,D25-RTS1*%
X129159002Y-58674000D03*
X134092940Y-71197611D03*
%TO.N,ADC1_P*%
X131643926Y-70414800D03*
%TO.N,ADC1_N*%
X132148009Y-70734493D03*
%TO.N,D13-SCK*%
X125425617Y-59931811D03*
X127339300Y-72284142D03*
%TO.N,/PTA3*%
X139674600Y-61925200D03*
%TO.N,/PTA1*%
X142367000Y-64211200D03*
%TO.N,D01-TX1*%
X131904630Y-60167152D03*
X137808847Y-72606859D03*
%TO.N,D00-RX1*%
X130611191Y-58666684D03*
X137141957Y-72049021D03*
%TO.N,D10-TX2*%
X129937010Y-60724189D03*
%TO.N,D09-RX2*%
X130797499Y-60151191D03*
%TO.N,D12-MISO*%
X125450589Y-61125111D03*
X126084571Y-72491044D03*
%TO.N,D11-MOSI*%
X126918286Y-72708366D03*
X125450600Y-60528200D03*
%TO.N,D15-CS*%
X127635000Y-59217489D03*
X127886027Y-72705838D03*
%TO.N,D17_A3*%
X132308600Y-58645444D03*
X135836644Y-70386756D03*
X138248452Y-70162609D03*
%TO.N,D19-SCL0*%
X131591060Y-58674000D03*
%TO.N,D18-SDA0*%
X132142382Y-59317563D03*
%TO.N,D16_A2*%
X132990595Y-58647699D03*
%TO.N,D22-A8*%
X128229206Y-58679972D03*
X130117787Y-72339194D03*
%TO.N,D27_A16*%
X125450600Y-61976022D03*
X124942679Y-72288400D03*
%TO.N,D28_A17*%
X133419893Y-61030325D03*
%TO.N,D03-CAN-TX*%
X129108200Y-61829983D03*
X131476721Y-72411038D03*
%TO.N,D04-CAN-TX*%
X129086099Y-60971206D03*
X134425227Y-71769310D03*
%TO.N,D29-SCL1*%
X128320374Y-72296391D03*
X127312834Y-62456075D03*
%TO.N,D30-SDA1*%
X128799040Y-72703050D03*
X127209544Y-63043982D03*
%TO.N,D24-I2C-INT*%
X131567093Y-62178571D03*
%TO.N,D26_A15-BAT_VIN3*%
X129266875Y-72332329D03*
X127095821Y-70809421D03*
%TO.N,D23*%
X127635000Y-56515000D03*
%TO.N,Net-(U1-Pad20)*%
X136799840Y-65443106D03*
%TO.N,Net-(U1-Pad19)*%
X134251842Y-64812751D03*
%TO.N,Net-(D2-Pad3)*%
X125304584Y-65936358D03*
%TD*%
D12*
%TO.N,USB-D-*%
X128447800Y-67856100D02*
X128788004Y-67515896D01*
X128788004Y-67515896D02*
X137998200Y-67515896D01*
%TO.N,USB-D+*%
X139217400Y-67527166D02*
X138771634Y-67081400D01*
X138771634Y-67081400D02*
X128600128Y-67081400D01*
X128600128Y-67081400D02*
X127819110Y-67862418D01*
%TD*%
%TO.N,GND*%
X134192025Y-54022775D02*
X134196816Y-54045314D01*
X134201283Y-54067876D01*
X134202331Y-54071264D01*
X134305602Y-54396817D01*
X134314699Y-54418042D01*
X134323445Y-54439261D01*
X134325129Y-54442376D01*
X134325131Y-54442381D01*
X134325134Y-54442385D01*
X134489669Y-54741674D01*
X134502695Y-54760699D01*
X134515416Y-54779845D01*
X134517670Y-54782570D01*
X134517675Y-54782577D01*
X134517681Y-54782582D01*
X134737214Y-55044212D01*
X134753692Y-55060349D01*
X134769883Y-55076654D01*
X134772631Y-55078896D01*
X135038806Y-55292906D01*
X135058084Y-55305522D01*
X135077156Y-55318386D01*
X135080282Y-55320048D01*
X135080286Y-55320051D01*
X135080290Y-55320053D01*
X135382961Y-55478285D01*
X135404329Y-55486918D01*
X135425529Y-55495830D01*
X135428923Y-55496855D01*
X135756568Y-55593286D01*
X135779252Y-55597613D01*
X135801734Y-55602228D01*
X135805263Y-55602575D01*
X136145397Y-55633529D01*
X136168489Y-55633368D01*
X136191438Y-55633528D01*
X136194967Y-55633183D01*
X136194971Y-55633183D01*
X136534636Y-55597483D01*
X136557262Y-55592838D01*
X136579801Y-55588539D01*
X136583196Y-55587515D01*
X136909462Y-55486519D01*
X136930736Y-55477576D01*
X136952029Y-55468973D01*
X136955156Y-55467311D01*
X136955161Y-55467309D01*
X136955165Y-55467306D01*
X137255597Y-55304864D01*
X137274701Y-55291978D01*
X137293946Y-55279384D01*
X137296694Y-55277143D01*
X137559855Y-55059437D01*
X137576097Y-55043082D01*
X137592525Y-55026994D01*
X137594780Y-55024268D01*
X137594786Y-55024262D01*
X137594790Y-55024255D01*
X137810648Y-54759587D01*
X137823394Y-54740403D01*
X137836394Y-54721417D01*
X137838080Y-54718298D01*
X137998424Y-54416736D01*
X138007205Y-54395433D01*
X138016266Y-54374292D01*
X138017315Y-54370904D01*
X138116031Y-54043941D01*
X138120508Y-54021333D01*
X138125289Y-53998839D01*
X138125660Y-53995313D01*
X138136514Y-53884617D01*
X142140672Y-53884617D01*
X142299151Y-53904068D01*
X142441928Y-53951002D01*
X142572874Y-54024779D01*
X142686990Y-54122578D01*
X142779941Y-54240686D01*
X142848181Y-54374598D01*
X142889838Y-54521783D01*
X142902200Y-54643486D01*
X142902201Y-71014604D01*
X142892209Y-71093617D01*
X142869877Y-71160720D01*
X142834940Y-71222201D01*
X142788723Y-71275729D01*
X142732991Y-71319260D01*
X142669864Y-71351137D01*
X142598723Y-71370990D01*
X142530532Y-71377917D01*
X142529067Y-71378212D01*
X142527580Y-71378235D01*
X142524060Y-71378659D01*
X142466190Y-71386041D01*
X142448752Y-71390025D01*
X142431122Y-71393052D01*
X142427709Y-71394014D01*
X142331975Y-71421724D01*
X142310548Y-71430270D01*
X142289090Y-71438482D01*
X142285929Y-71440088D01*
X142197402Y-71485865D01*
X142178018Y-71498426D01*
X142158589Y-71510634D01*
X142155807Y-71512818D01*
X142155800Y-71512823D01*
X142155794Y-71512829D01*
X142077850Y-71574925D01*
X142061314Y-71590974D01*
X142044588Y-71606759D01*
X142042278Y-71609449D01*
X141977875Y-71685507D01*
X141964775Y-71704456D01*
X141951430Y-71723195D01*
X141949686Y-71726283D01*
X141901282Y-71813402D01*
X141892103Y-71834556D01*
X141882660Y-71855512D01*
X141881549Y-71858879D01*
X141850989Y-71953741D01*
X141846098Y-71976253D01*
X141840901Y-71998663D01*
X141840465Y-72002182D01*
X141831544Y-72078624D01*
X141830876Y-72080825D01*
X141827200Y-72118149D01*
X141827201Y-75376617D01*
X135635200Y-75376617D01*
X135635200Y-72718148D01*
X135633929Y-72705243D01*
X135633929Y-72697454D01*
X135633559Y-72693927D01*
X135620506Y-72577557D01*
X135617829Y-72564956D01*
X137383397Y-72564956D01*
X137383397Y-72648762D01*
X137399746Y-72730958D01*
X137431818Y-72808385D01*
X137478378Y-72878068D01*
X137537638Y-72937328D01*
X137607321Y-72983888D01*
X137684748Y-73015960D01*
X137766944Y-73032309D01*
X137850750Y-73032309D01*
X137932946Y-73015960D01*
X138010373Y-72983888D01*
X138080056Y-72937328D01*
X138139316Y-72878068D01*
X138185876Y-72808385D01*
X138217948Y-72730958D01*
X138234297Y-72648762D01*
X138234297Y-72564956D01*
X138217948Y-72482760D01*
X138185876Y-72405333D01*
X138139316Y-72335650D01*
X138080056Y-72276390D01*
X138010373Y-72229830D01*
X137932946Y-72197758D01*
X137850750Y-72181409D01*
X137766944Y-72181409D01*
X137684748Y-72197758D01*
X137607321Y-72229830D01*
X137537638Y-72276390D01*
X137478378Y-72335650D01*
X137431818Y-72405333D01*
X137399746Y-72482760D01*
X137383397Y-72564956D01*
X135617829Y-72564956D01*
X135615712Y-72554999D01*
X135611248Y-72532455D01*
X135610202Y-72529075D01*
X135610200Y-72529068D01*
X135610197Y-72529062D01*
X135574791Y-72417449D01*
X135565714Y-72396271D01*
X135556949Y-72375006D01*
X135555263Y-72371886D01*
X135498850Y-72269272D01*
X135485824Y-72250248D01*
X135473104Y-72231102D01*
X135470844Y-72228370D01*
X135470843Y-72228368D01*
X135470839Y-72228364D01*
X135395574Y-72138666D01*
X135379112Y-72122545D01*
X135362903Y-72106222D01*
X135360161Y-72103986D01*
X135360156Y-72103981D01*
X135360151Y-72103977D01*
X135268895Y-72030606D01*
X135249613Y-72017988D01*
X135230545Y-72005127D01*
X135227419Y-72003465D01*
X135227415Y-72003462D01*
X135227411Y-72003460D01*
X135123640Y-71949211D01*
X135102269Y-71940576D01*
X135081073Y-71931666D01*
X135077684Y-71930643D01*
X135077677Y-71930640D01*
X135077670Y-71930639D01*
X134965344Y-71897579D01*
X134942668Y-71893253D01*
X134920179Y-71888637D01*
X134916650Y-71888290D01*
X134836792Y-71881022D01*
X134850677Y-71811213D01*
X134850677Y-71727407D01*
X134834328Y-71645211D01*
X134802256Y-71567784D01*
X134755696Y-71498101D01*
X134699214Y-71441619D01*
X134917374Y-71441619D01*
X134917374Y-71525425D01*
X134933723Y-71607621D01*
X134965795Y-71685048D01*
X135012355Y-71754731D01*
X135071615Y-71813991D01*
X135141298Y-71860551D01*
X135218725Y-71892623D01*
X135300921Y-71908972D01*
X135342834Y-71908972D01*
X135342834Y-71947462D01*
X135359183Y-72029658D01*
X135391255Y-72107085D01*
X135437815Y-72176768D01*
X135497075Y-72236028D01*
X135566758Y-72282588D01*
X135644185Y-72314660D01*
X135726381Y-72331009D01*
X135810187Y-72331009D01*
X135892383Y-72314660D01*
X135969810Y-72282588D01*
X136039493Y-72236028D01*
X136098753Y-72176768D01*
X136145313Y-72107085D01*
X136177385Y-72029658D01*
X136193734Y-71947462D01*
X136193734Y-71863656D01*
X136177385Y-71781460D01*
X136145313Y-71704033D01*
X136098753Y-71634350D01*
X136039493Y-71575090D01*
X135969810Y-71528530D01*
X135892383Y-71496458D01*
X135810187Y-71480109D01*
X135768274Y-71480109D01*
X135768274Y-71453371D01*
X136493644Y-71453371D01*
X136493644Y-71537177D01*
X136509993Y-71619373D01*
X136542065Y-71696800D01*
X136588625Y-71766483D01*
X136647885Y-71825743D01*
X136717568Y-71872303D01*
X136749221Y-71885414D01*
X136732856Y-71924922D01*
X136716507Y-72007118D01*
X136716507Y-72090924D01*
X136732856Y-72173120D01*
X136764928Y-72250547D01*
X136811488Y-72320230D01*
X136870748Y-72379490D01*
X136940431Y-72426050D01*
X137017858Y-72458122D01*
X137100054Y-72474471D01*
X137183860Y-72474471D01*
X137266056Y-72458122D01*
X137343483Y-72426050D01*
X137413166Y-72379490D01*
X137472426Y-72320230D01*
X137518986Y-72250547D01*
X137551058Y-72173120D01*
X137567407Y-72090924D01*
X137567407Y-72007118D01*
X137551058Y-71924922D01*
X137518986Y-71847495D01*
X137472426Y-71777812D01*
X137413166Y-71718552D01*
X137343483Y-71671992D01*
X137311830Y-71658881D01*
X137328195Y-71619373D01*
X137344544Y-71537177D01*
X137344544Y-71453371D01*
X137328195Y-71371175D01*
X137296123Y-71293748D01*
X137249563Y-71224065D01*
X137190303Y-71164805D01*
X137120620Y-71118245D01*
X137043193Y-71086173D01*
X136960997Y-71069824D01*
X136877191Y-71069824D01*
X136794995Y-71086173D01*
X136717568Y-71118245D01*
X136647885Y-71164805D01*
X136588625Y-71224065D01*
X136542065Y-71293748D01*
X136509993Y-71371175D01*
X136493644Y-71453371D01*
X135768274Y-71453371D01*
X135768274Y-71441619D01*
X135751925Y-71359423D01*
X135719853Y-71281996D01*
X135673293Y-71212313D01*
X135614033Y-71153053D01*
X135544350Y-71106493D01*
X135466923Y-71074421D01*
X135384727Y-71058072D01*
X135300921Y-71058072D01*
X135218725Y-71074421D01*
X135141298Y-71106493D01*
X135071615Y-71153053D01*
X135012355Y-71212313D01*
X134965795Y-71281996D01*
X134933723Y-71359423D01*
X134917374Y-71441619D01*
X134699214Y-71441619D01*
X134696436Y-71438841D01*
X134626753Y-71392281D01*
X134549326Y-71360209D01*
X134490907Y-71348589D01*
X134502041Y-71321710D01*
X134518390Y-71239514D01*
X134518390Y-71155708D01*
X134502041Y-71073512D01*
X134469969Y-70996085D01*
X134423409Y-70926402D01*
X134364149Y-70867142D01*
X134294466Y-70820582D01*
X134217039Y-70788510D01*
X134134843Y-70772161D01*
X134051037Y-70772161D01*
X133968841Y-70788510D01*
X133891414Y-70820582D01*
X133821731Y-70867142D01*
X133762471Y-70926402D01*
X133715911Y-70996085D01*
X133683839Y-71073512D01*
X133667490Y-71155708D01*
X133667490Y-71239514D01*
X133683839Y-71321710D01*
X133715911Y-71399137D01*
X133762471Y-71468820D01*
X133821731Y-71528080D01*
X133891414Y-71574640D01*
X133968841Y-71606712D01*
X134027260Y-71618332D01*
X134016126Y-71645211D01*
X133999777Y-71727407D01*
X133999777Y-71811213D01*
X134016126Y-71893409D01*
X134048198Y-71970836D01*
X134094758Y-72040519D01*
X134154018Y-72099779D01*
X134185154Y-72120583D01*
X134177294Y-72128497D01*
X134160883Y-72144568D01*
X134158622Y-72147300D01*
X134084611Y-72238046D01*
X134071847Y-72257257D01*
X134058865Y-72276217D01*
X134057178Y-72279336D01*
X134002203Y-72382729D01*
X133993403Y-72404079D01*
X133984362Y-72425174D01*
X133983316Y-72428551D01*
X133983312Y-72428561D01*
X133983310Y-72428571D01*
X133949468Y-72540662D01*
X133944996Y-72563249D01*
X133940210Y-72585763D01*
X133939839Y-72589290D01*
X133928412Y-72705831D01*
X133928412Y-72705843D01*
X133927200Y-72718149D01*
X133927201Y-75376617D01*
X122485200Y-75376617D01*
X122485200Y-72136766D01*
X122961390Y-72136766D01*
X122961390Y-72236834D01*
X122980912Y-72334978D01*
X123019206Y-72427428D01*
X123074801Y-72510631D01*
X123145559Y-72581389D01*
X123228762Y-72636984D01*
X123321212Y-72675278D01*
X123419356Y-72694800D01*
X123519424Y-72694800D01*
X123617568Y-72675278D01*
X123710018Y-72636984D01*
X123793221Y-72581389D01*
X123863979Y-72510631D01*
X123919574Y-72427428D01*
X123957868Y-72334978D01*
X123975467Y-72246497D01*
X124517229Y-72246497D01*
X124517229Y-72330303D01*
X124533578Y-72412499D01*
X124565650Y-72489926D01*
X124612210Y-72559609D01*
X124671470Y-72618869D01*
X124741153Y-72665429D01*
X124818580Y-72697501D01*
X124900776Y-72713850D01*
X124984582Y-72713850D01*
X125066778Y-72697501D01*
X125144205Y-72665429D01*
X125213888Y-72618869D01*
X125273148Y-72559609D01*
X125319708Y-72489926D01*
X125336602Y-72449141D01*
X125659121Y-72449141D01*
X125659121Y-72532947D01*
X125675470Y-72615143D01*
X125707542Y-72692570D01*
X125754102Y-72762253D01*
X125813362Y-72821513D01*
X125883045Y-72868073D01*
X125960472Y-72900145D01*
X126042668Y-72916494D01*
X126126474Y-72916494D01*
X126208670Y-72900145D01*
X126286097Y-72868073D01*
X126355780Y-72821513D01*
X126415040Y-72762253D01*
X126461600Y-72692570D01*
X126472414Y-72666463D01*
X126492836Y-72666463D01*
X126492836Y-72750269D01*
X126509185Y-72832465D01*
X126541257Y-72909892D01*
X126587817Y-72979575D01*
X126647077Y-73038835D01*
X126716760Y-73085395D01*
X126794187Y-73117467D01*
X126876383Y-73133816D01*
X126960189Y-73133816D01*
X127042385Y-73117467D01*
X127119812Y-73085395D01*
X127189495Y-73038835D01*
X127248755Y-72979575D01*
X127295315Y-72909892D01*
X127327387Y-72832465D01*
X127343736Y-72750269D01*
X127343736Y-72709592D01*
X127381203Y-72709592D01*
X127460577Y-72693804D01*
X127460577Y-72747741D01*
X127476926Y-72829937D01*
X127508998Y-72907364D01*
X127555558Y-72977047D01*
X127614818Y-73036307D01*
X127684501Y-73082867D01*
X127761928Y-73114939D01*
X127844124Y-73131288D01*
X127927930Y-73131288D01*
X128010126Y-73114939D01*
X128087553Y-73082867D01*
X128157236Y-73036307D01*
X128216496Y-72977047D01*
X128263056Y-72907364D01*
X128295128Y-72829937D01*
X128311477Y-72747741D01*
X128311477Y-72721841D01*
X128362277Y-72721841D01*
X128373590Y-72719591D01*
X128373590Y-72744953D01*
X128389939Y-72827149D01*
X128422011Y-72904576D01*
X128468571Y-72974259D01*
X128527831Y-73033519D01*
X128597514Y-73080079D01*
X128674941Y-73112151D01*
X128757137Y-73128500D01*
X128840943Y-73128500D01*
X128923139Y-73112151D01*
X129000566Y-73080079D01*
X129070249Y-73033519D01*
X129129509Y-72974259D01*
X129176069Y-72904576D01*
X129208141Y-72827149D01*
X129222054Y-72757199D01*
X129224972Y-72757779D01*
X129308778Y-72757779D01*
X129390974Y-72741430D01*
X129468401Y-72709358D01*
X129538084Y-72662798D01*
X129597344Y-72603538D01*
X129643904Y-72533855D01*
X129675976Y-72456428D01*
X129692325Y-72374232D01*
X129692325Y-72297291D01*
X129692337Y-72297291D01*
X129692337Y-72381097D01*
X129708686Y-72463293D01*
X129740758Y-72540720D01*
X129787318Y-72610403D01*
X129846578Y-72669663D01*
X129916261Y-72716223D01*
X129993688Y-72748295D01*
X130075884Y-72764644D01*
X130159690Y-72764644D01*
X130241886Y-72748295D01*
X130319313Y-72716223D01*
X130388996Y-72669663D01*
X130448256Y-72610403D01*
X130494816Y-72540720D01*
X130526888Y-72463293D01*
X130543237Y-72381097D01*
X130543237Y-72369135D01*
X131051271Y-72369135D01*
X131051271Y-72452941D01*
X131067620Y-72535137D01*
X131099692Y-72612564D01*
X131146252Y-72682247D01*
X131205512Y-72741507D01*
X131275195Y-72788067D01*
X131352622Y-72820139D01*
X131434818Y-72836488D01*
X131518624Y-72836488D01*
X131600820Y-72820139D01*
X131678247Y-72788067D01*
X131747930Y-72741507D01*
X131807190Y-72682247D01*
X131853750Y-72612564D01*
X131885822Y-72535137D01*
X131902171Y-72452941D01*
X131902171Y-72369135D01*
X131885822Y-72286939D01*
X131853750Y-72209512D01*
X131807190Y-72139829D01*
X131747930Y-72080569D01*
X131678247Y-72034009D01*
X131600820Y-72001937D01*
X131518624Y-71985588D01*
X131434818Y-71985588D01*
X131352622Y-72001937D01*
X131275195Y-72034009D01*
X131205512Y-72080569D01*
X131146252Y-72139829D01*
X131099692Y-72209512D01*
X131067620Y-72286939D01*
X131051271Y-72369135D01*
X130543237Y-72369135D01*
X130543237Y-72297291D01*
X130526888Y-72215095D01*
X130494816Y-72137668D01*
X130448256Y-72067985D01*
X130388996Y-72008725D01*
X130319313Y-71962165D01*
X130241886Y-71930093D01*
X130159690Y-71913744D01*
X130075884Y-71913744D01*
X129993688Y-71930093D01*
X129916261Y-71962165D01*
X129846578Y-72008725D01*
X129787318Y-72067985D01*
X129740758Y-72137668D01*
X129708686Y-72215095D01*
X129692337Y-72297291D01*
X129692325Y-72297291D01*
X129692325Y-72290426D01*
X129675976Y-72208230D01*
X129643904Y-72130803D01*
X129597344Y-72061120D01*
X129538084Y-72001860D01*
X129468401Y-71955300D01*
X129390974Y-71923228D01*
X129308778Y-71906879D01*
X129224972Y-71906879D01*
X129142776Y-71923228D01*
X129065349Y-71955300D01*
X128995666Y-72001860D01*
X128936406Y-72061120D01*
X128889846Y-72130803D01*
X128857774Y-72208230D01*
X128843861Y-72278180D01*
X128840943Y-72277600D01*
X128757137Y-72277600D01*
X128745824Y-72279850D01*
X128745824Y-72254488D01*
X128729475Y-72172292D01*
X128697403Y-72094865D01*
X128650843Y-72025182D01*
X128591583Y-71965922D01*
X128521900Y-71919362D01*
X128444473Y-71887290D01*
X128362277Y-71870941D01*
X128278471Y-71870941D01*
X128196275Y-71887290D01*
X128118848Y-71919362D01*
X128049165Y-71965922D01*
X127989905Y-72025182D01*
X127943345Y-72094865D01*
X127911273Y-72172292D01*
X127894924Y-72254488D01*
X127894924Y-72280388D01*
X127844124Y-72280388D01*
X127764750Y-72296176D01*
X127764750Y-72242239D01*
X127748401Y-72160043D01*
X127716329Y-72082616D01*
X127669769Y-72012933D01*
X127610509Y-71953673D01*
X127540826Y-71907113D01*
X127463399Y-71875041D01*
X127381203Y-71858692D01*
X127297397Y-71858692D01*
X127215201Y-71875041D01*
X127137774Y-71907113D01*
X127068091Y-71953673D01*
X127008831Y-72012933D01*
X126962271Y-72082616D01*
X126930199Y-72160043D01*
X126913850Y-72242239D01*
X126913850Y-72282916D01*
X126876383Y-72282916D01*
X126794187Y-72299265D01*
X126716760Y-72331337D01*
X126647077Y-72377897D01*
X126587817Y-72437157D01*
X126541257Y-72506840D01*
X126509185Y-72584267D01*
X126492836Y-72666463D01*
X126472414Y-72666463D01*
X126493672Y-72615143D01*
X126510021Y-72532947D01*
X126510021Y-72449141D01*
X126493672Y-72366945D01*
X126461600Y-72289518D01*
X126415040Y-72219835D01*
X126355780Y-72160575D01*
X126286097Y-72114015D01*
X126208670Y-72081943D01*
X126126474Y-72065594D01*
X126042668Y-72065594D01*
X125960472Y-72081943D01*
X125883045Y-72114015D01*
X125813362Y-72160575D01*
X125754102Y-72219835D01*
X125707542Y-72289518D01*
X125675470Y-72366945D01*
X125659121Y-72449141D01*
X125336602Y-72449141D01*
X125351780Y-72412499D01*
X125368129Y-72330303D01*
X125368129Y-72246497D01*
X125351780Y-72164301D01*
X125319708Y-72086874D01*
X125273148Y-72017191D01*
X125213888Y-71957931D01*
X125144205Y-71911371D01*
X125066778Y-71879299D01*
X124984582Y-71862950D01*
X124900776Y-71862950D01*
X124818580Y-71879299D01*
X124741153Y-71911371D01*
X124671470Y-71957931D01*
X124612210Y-72017191D01*
X124565650Y-72086874D01*
X124533578Y-72164301D01*
X124517229Y-72246497D01*
X123975467Y-72246497D01*
X123977390Y-72236834D01*
X123977390Y-72136766D01*
X123957868Y-72038622D01*
X123919574Y-71946172D01*
X123863979Y-71862969D01*
X123793221Y-71792211D01*
X123710018Y-71736616D01*
X123617568Y-71698322D01*
X123519424Y-71678800D01*
X123419356Y-71678800D01*
X123321212Y-71698322D01*
X123228762Y-71736616D01*
X123145559Y-71792211D01*
X123074801Y-71862969D01*
X123019206Y-71946172D01*
X122980912Y-72038622D01*
X122961390Y-72136766D01*
X122485200Y-72136766D01*
X122485200Y-72118148D01*
X122484262Y-72108629D01*
X122480788Y-72062755D01*
X122477915Y-72046348D01*
X122476107Y-72029816D01*
X122475356Y-72026351D01*
X122453307Y-71928042D01*
X122446094Y-71906158D01*
X122439200Y-71884214D01*
X122437790Y-71880961D01*
X122397064Y-71788805D01*
X122385733Y-71768728D01*
X122374714Y-71748553D01*
X122372704Y-71745645D01*
X122372698Y-71745634D01*
X122372690Y-71745625D01*
X122314851Y-71663147D01*
X122299826Y-71645643D01*
X122285107Y-71628002D01*
X122282563Y-71625531D01*
X122209794Y-71555849D01*
X122191653Y-71541594D01*
X122173790Y-71527151D01*
X122170815Y-71525221D01*
X122085897Y-71471000D01*
X122065349Y-71460549D01*
X122045007Y-71449842D01*
X122041723Y-71448532D01*
X122041712Y-71448526D01*
X122041701Y-71448523D01*
X121947882Y-71411833D01*
X121925704Y-71405574D01*
X121903657Y-71399019D01*
X121900177Y-71398370D01*
X121900173Y-71398369D01*
X121900169Y-71398369D01*
X121800999Y-71380599D01*
X121796224Y-71380218D01*
X121791580Y-71379094D01*
X121788066Y-71378624D01*
X121693199Y-71366627D01*
X121626098Y-71344295D01*
X121564614Y-71309356D01*
X121511088Y-71263142D01*
X121467557Y-71207408D01*
X121435680Y-71144281D01*
X121415827Y-71073140D01*
X121410200Y-71017747D01*
X121410200Y-70041266D01*
X124040900Y-70041266D01*
X124040900Y-70141334D01*
X124060422Y-70239478D01*
X124098716Y-70331928D01*
X124154311Y-70415131D01*
X124225069Y-70485889D01*
X124308272Y-70541484D01*
X124400722Y-70579778D01*
X124498866Y-70599300D01*
X124598934Y-70599300D01*
X124697078Y-70579778D01*
X124789528Y-70541484D01*
X124872731Y-70485889D01*
X124943489Y-70415131D01*
X124999084Y-70331928D01*
X125037378Y-70239478D01*
X125056900Y-70141334D01*
X125056900Y-70041266D01*
X125050827Y-70010731D01*
X126580977Y-70010731D01*
X126580977Y-70110799D01*
X126600499Y-70208943D01*
X126638793Y-70301393D01*
X126694388Y-70384596D01*
X126765146Y-70455354D01*
X126814939Y-70488625D01*
X126765352Y-70538212D01*
X126718792Y-70607895D01*
X126686720Y-70685322D01*
X126670371Y-70767518D01*
X126670371Y-70851324D01*
X126686720Y-70933520D01*
X126718792Y-71010947D01*
X126765352Y-71080630D01*
X126824612Y-71139890D01*
X126894295Y-71186450D01*
X126971722Y-71218522D01*
X127053918Y-71234871D01*
X127137724Y-71234871D01*
X127219920Y-71218522D01*
X127297347Y-71186450D01*
X127367030Y-71139890D01*
X127426290Y-71080630D01*
X127472850Y-71010947D01*
X127504922Y-70933520D01*
X127521271Y-70851324D01*
X127521271Y-70767518D01*
X127504922Y-70685322D01*
X127472850Y-70607895D01*
X127426290Y-70538212D01*
X127371220Y-70483142D01*
X127412808Y-70455354D01*
X127483566Y-70384596D01*
X127539161Y-70301393D01*
X127577455Y-70208943D01*
X127596977Y-70110799D01*
X127596977Y-70092088D01*
X128485894Y-70092088D01*
X128485894Y-70192156D01*
X128505416Y-70290300D01*
X128543710Y-70382750D01*
X128599305Y-70465953D01*
X128670063Y-70536711D01*
X128753266Y-70592306D01*
X128845716Y-70630600D01*
X128943860Y-70650122D01*
X129043928Y-70650122D01*
X129142072Y-70630600D01*
X129234522Y-70592306D01*
X129317725Y-70536711D01*
X129388483Y-70465953D01*
X129444078Y-70382750D01*
X129448159Y-70372897D01*
X131218476Y-70372897D01*
X131218476Y-70456703D01*
X131234825Y-70538899D01*
X131266897Y-70616326D01*
X131313457Y-70686009D01*
X131372717Y-70745269D01*
X131442400Y-70791829D01*
X131519827Y-70823901D01*
X131602023Y-70840250D01*
X131685829Y-70840250D01*
X131733379Y-70830792D01*
X131738908Y-70858592D01*
X131770980Y-70936019D01*
X131817540Y-71005702D01*
X131876800Y-71064962D01*
X131946483Y-71111522D01*
X132023910Y-71143594D01*
X132106106Y-71159943D01*
X132189912Y-71159943D01*
X132272108Y-71143594D01*
X132349535Y-71111522D01*
X132419218Y-71064962D01*
X132478478Y-71005702D01*
X132525038Y-70936019D01*
X132557110Y-70858592D01*
X132573459Y-70776396D01*
X132573459Y-70692590D01*
X132557110Y-70610394D01*
X132525038Y-70532967D01*
X132478478Y-70463284D01*
X132419218Y-70404024D01*
X132349535Y-70357464D01*
X132319091Y-70344853D01*
X135411194Y-70344853D01*
X135411194Y-70428659D01*
X135427543Y-70510855D01*
X135459615Y-70588282D01*
X135506175Y-70657965D01*
X135565435Y-70717225D01*
X135635118Y-70763785D01*
X135712545Y-70795857D01*
X135794741Y-70812206D01*
X135878547Y-70812206D01*
X135960743Y-70795857D01*
X136038170Y-70763785D01*
X136107853Y-70717225D01*
X136167113Y-70657965D01*
X136208854Y-70595493D01*
X139052321Y-70595493D01*
X139052321Y-70679299D01*
X139068670Y-70761495D01*
X139100742Y-70838922D01*
X139147302Y-70908605D01*
X139206562Y-70967865D01*
X139276245Y-71014425D01*
X139353672Y-71046497D01*
X139435868Y-71062846D01*
X139519674Y-71062846D01*
X139601870Y-71046497D01*
X139679297Y-71014425D01*
X139748980Y-70967865D01*
X139808240Y-70908605D01*
X139854800Y-70838922D01*
X139886872Y-70761495D01*
X139903221Y-70679299D01*
X139903221Y-70595493D01*
X139886872Y-70513297D01*
X139854800Y-70435870D01*
X139808240Y-70366187D01*
X139748980Y-70306927D01*
X139679297Y-70260367D01*
X139601870Y-70228295D01*
X139519674Y-70211946D01*
X139435868Y-70211946D01*
X139353672Y-70228295D01*
X139276245Y-70260367D01*
X139206562Y-70306927D01*
X139147302Y-70366187D01*
X139100742Y-70435870D01*
X139068670Y-70513297D01*
X139052321Y-70595493D01*
X136208854Y-70595493D01*
X136213673Y-70588282D01*
X136245745Y-70510855D01*
X136262094Y-70428659D01*
X136262094Y-70344853D01*
X136245745Y-70262657D01*
X136213673Y-70185230D01*
X136170561Y-70120706D01*
X137823002Y-70120706D01*
X137823002Y-70204512D01*
X137839351Y-70286708D01*
X137871423Y-70364135D01*
X137917983Y-70433818D01*
X137977243Y-70493078D01*
X138046926Y-70539638D01*
X138124353Y-70571710D01*
X138206549Y-70588059D01*
X138290355Y-70588059D01*
X138372551Y-70571710D01*
X138449978Y-70539638D01*
X138519661Y-70493078D01*
X138578921Y-70433818D01*
X138625481Y-70364135D01*
X138657553Y-70286708D01*
X138673533Y-70206366D01*
X141020800Y-70206366D01*
X141020800Y-70306434D01*
X141040322Y-70404578D01*
X141078616Y-70497028D01*
X141134211Y-70580231D01*
X141204969Y-70650989D01*
X141288172Y-70706584D01*
X141380622Y-70744878D01*
X141478766Y-70764400D01*
X141578834Y-70764400D01*
X141676978Y-70744878D01*
X141769428Y-70706584D01*
X141852631Y-70650989D01*
X141923389Y-70580231D01*
X141978984Y-70497028D01*
X142017278Y-70404578D01*
X142036800Y-70306434D01*
X142036800Y-70206366D01*
X142017278Y-70108222D01*
X141978984Y-70015772D01*
X141923389Y-69932569D01*
X141852631Y-69861811D01*
X141769428Y-69806216D01*
X141714520Y-69783472D01*
X141803978Y-69765678D01*
X141896428Y-69727384D01*
X141979631Y-69671789D01*
X142050389Y-69601031D01*
X142105984Y-69517828D01*
X142144278Y-69425378D01*
X142163800Y-69327234D01*
X142163800Y-69227166D01*
X142144278Y-69129022D01*
X142105984Y-69036572D01*
X142050389Y-68953369D01*
X141979631Y-68882611D01*
X141896428Y-68827016D01*
X141803978Y-68788722D01*
X141705834Y-68769200D01*
X141605766Y-68769200D01*
X141507622Y-68788722D01*
X141415172Y-68827016D01*
X141331969Y-68882611D01*
X141261211Y-68953369D01*
X141205616Y-69036572D01*
X141167322Y-69129022D01*
X141147800Y-69227166D01*
X141147800Y-69327234D01*
X141167322Y-69425378D01*
X141205616Y-69517828D01*
X141261211Y-69601031D01*
X141331969Y-69671789D01*
X141415172Y-69727384D01*
X141470080Y-69750128D01*
X141380622Y-69767922D01*
X141288172Y-69806216D01*
X141204969Y-69861811D01*
X141134211Y-69932569D01*
X141078616Y-70015772D01*
X141040322Y-70108222D01*
X141020800Y-70206366D01*
X138673533Y-70206366D01*
X138673902Y-70204512D01*
X138673902Y-70120706D01*
X138657553Y-70038510D01*
X138625481Y-69961083D01*
X138578921Y-69891400D01*
X138519661Y-69832140D01*
X138449978Y-69785580D01*
X138372551Y-69753508D01*
X138290355Y-69737159D01*
X138206549Y-69737159D01*
X138124353Y-69753508D01*
X138046926Y-69785580D01*
X137977243Y-69832140D01*
X137917983Y-69891400D01*
X137871423Y-69961083D01*
X137839351Y-70038510D01*
X137823002Y-70120706D01*
X136170561Y-70120706D01*
X136167113Y-70115547D01*
X136107853Y-70056287D01*
X136038170Y-70009727D01*
X135960743Y-69977655D01*
X135878547Y-69961306D01*
X135794741Y-69961306D01*
X135712545Y-69977655D01*
X135635118Y-70009727D01*
X135565435Y-70056287D01*
X135506175Y-70115547D01*
X135459615Y-70185230D01*
X135427543Y-70262657D01*
X135411194Y-70344853D01*
X132319091Y-70344853D01*
X132272108Y-70325392D01*
X132189912Y-70309043D01*
X132106106Y-70309043D01*
X132058556Y-70318501D01*
X132053027Y-70290701D01*
X132020955Y-70213274D01*
X131974395Y-70143591D01*
X131915135Y-70084331D01*
X131845452Y-70037771D01*
X131768025Y-70005699D01*
X131685829Y-69989350D01*
X131602023Y-69989350D01*
X131519827Y-70005699D01*
X131442400Y-70037771D01*
X131372717Y-70084331D01*
X131313457Y-70143591D01*
X131266897Y-70213274D01*
X131234825Y-70290701D01*
X131218476Y-70372897D01*
X129448159Y-70372897D01*
X129482372Y-70290300D01*
X129501894Y-70192156D01*
X129501894Y-70092088D01*
X129482372Y-69993944D01*
X129444078Y-69901494D01*
X129388483Y-69818291D01*
X129317725Y-69747533D01*
X129234522Y-69691938D01*
X129142072Y-69653644D01*
X129043928Y-69634122D01*
X128943860Y-69634122D01*
X128845716Y-69653644D01*
X128753266Y-69691938D01*
X128670063Y-69747533D01*
X128599305Y-69818291D01*
X128543710Y-69901494D01*
X128505416Y-69993944D01*
X128485894Y-70092088D01*
X127596977Y-70092088D01*
X127596977Y-70010731D01*
X127577455Y-69912587D01*
X127539161Y-69820137D01*
X127483566Y-69736934D01*
X127412808Y-69666176D01*
X127329605Y-69610581D01*
X127237155Y-69572287D01*
X127139011Y-69552765D01*
X127038943Y-69552765D01*
X126940799Y-69572287D01*
X126848349Y-69610581D01*
X126765146Y-69666176D01*
X126694388Y-69736934D01*
X126638793Y-69820137D01*
X126600499Y-69912587D01*
X126580977Y-70010731D01*
X125050827Y-70010731D01*
X125037378Y-69943122D01*
X124999084Y-69850672D01*
X124943489Y-69767469D01*
X124872731Y-69696711D01*
X124789528Y-69641116D01*
X124697078Y-69602822D01*
X124598934Y-69583300D01*
X124498866Y-69583300D01*
X124400722Y-69602822D01*
X124308272Y-69641116D01*
X124225069Y-69696711D01*
X124154311Y-69767469D01*
X124098716Y-69850672D01*
X124060422Y-69943122D01*
X124040900Y-70041266D01*
X121410200Y-70041266D01*
X121410200Y-67820515D01*
X127393660Y-67820515D01*
X127393660Y-67904321D01*
X127410009Y-67986517D01*
X127442081Y-68063944D01*
X127488641Y-68133627D01*
X127547901Y-68192887D01*
X127617584Y-68239447D01*
X127695011Y-68271519D01*
X127777207Y-68287868D01*
X127861013Y-68287868D01*
X127943209Y-68271519D01*
X128020636Y-68239447D01*
X128090319Y-68192887D01*
X128136614Y-68146592D01*
X128176591Y-68186569D01*
X128246274Y-68233129D01*
X128323701Y-68265201D01*
X128405897Y-68281550D01*
X128489703Y-68281550D01*
X128571899Y-68265201D01*
X128649326Y-68233129D01*
X128719009Y-68186569D01*
X128778269Y-68127309D01*
X128824829Y-68057626D01*
X128856901Y-67980199D01*
X128873250Y-67898003D01*
X128873250Y-67814197D01*
X128869212Y-67793898D01*
X128893214Y-67769896D01*
X134726307Y-67769896D01*
X134715878Y-67774216D01*
X134632675Y-67829811D01*
X134561917Y-67900569D01*
X134506322Y-67983772D01*
X134468028Y-68076222D01*
X134448506Y-68174366D01*
X134448506Y-68274434D01*
X134468028Y-68372578D01*
X134506322Y-68465028D01*
X134561917Y-68548231D01*
X134632675Y-68618989D01*
X134715878Y-68674584D01*
X134808328Y-68712878D01*
X134906472Y-68732400D01*
X135006540Y-68732400D01*
X135104684Y-68712878D01*
X135197134Y-68674584D01*
X135280337Y-68618989D01*
X135351095Y-68548231D01*
X135406690Y-68465028D01*
X135444984Y-68372578D01*
X135464506Y-68274434D01*
X135464506Y-68174366D01*
X135444984Y-68076222D01*
X135406690Y-67983772D01*
X135351095Y-67900569D01*
X135280337Y-67829811D01*
X135197134Y-67774216D01*
X135186705Y-67769896D01*
X137656232Y-67769896D01*
X137667731Y-67787105D01*
X137726991Y-67846365D01*
X137796674Y-67892925D01*
X137874101Y-67924997D01*
X137956297Y-67941346D01*
X138040103Y-67941346D01*
X138122299Y-67924997D01*
X138199726Y-67892925D01*
X138269409Y-67846365D01*
X138328669Y-67787105D01*
X138375229Y-67717422D01*
X138407301Y-67639995D01*
X138423650Y-67557799D01*
X138423650Y-67473993D01*
X138407301Y-67391797D01*
X138383940Y-67335400D01*
X138666424Y-67335400D01*
X138795988Y-67464964D01*
X138791950Y-67485263D01*
X138791950Y-67569069D01*
X138808299Y-67651265D01*
X138840371Y-67728692D01*
X138886931Y-67798375D01*
X138946191Y-67857635D01*
X139015874Y-67904195D01*
X139093301Y-67936267D01*
X139175497Y-67952616D01*
X139259303Y-67952616D01*
X139341499Y-67936267D01*
X139418926Y-67904195D01*
X139488609Y-67857635D01*
X139547869Y-67798375D01*
X139594429Y-67728692D01*
X139626501Y-67651265D01*
X139642850Y-67569069D01*
X139642850Y-67485297D01*
X139839690Y-67485297D01*
X139839690Y-67569103D01*
X139856039Y-67651299D01*
X139888111Y-67728726D01*
X139934671Y-67798409D01*
X139993931Y-67857669D01*
X140063614Y-67904229D01*
X140141041Y-67936301D01*
X140223237Y-67952650D01*
X140307043Y-67952650D01*
X140389239Y-67936301D01*
X140466666Y-67904229D01*
X140536349Y-67857669D01*
X140595609Y-67798409D01*
X140642169Y-67728726D01*
X140674241Y-67651299D01*
X140690590Y-67569103D01*
X140690590Y-67485297D01*
X140674241Y-67403101D01*
X140642169Y-67325674D01*
X140595609Y-67255991D01*
X140536349Y-67196731D01*
X140466666Y-67150171D01*
X140389239Y-67118099D01*
X140307043Y-67101750D01*
X140223237Y-67101750D01*
X140141041Y-67118099D01*
X140063614Y-67150171D01*
X139993931Y-67196731D01*
X139934671Y-67255991D01*
X139888111Y-67325674D01*
X139856039Y-67403101D01*
X139839690Y-67485297D01*
X139642850Y-67485297D01*
X139642850Y-67485263D01*
X139626501Y-67403067D01*
X139594429Y-67325640D01*
X139547869Y-67255957D01*
X139488609Y-67196697D01*
X139418926Y-67150137D01*
X139341499Y-67118065D01*
X139259303Y-67101716D01*
X139175497Y-67101716D01*
X139155198Y-67105754D01*
X138960053Y-66910609D01*
X138952107Y-66900927D01*
X138942425Y-66892981D01*
X138942422Y-66892978D01*
X138924737Y-66878465D01*
X138913431Y-66869186D01*
X138869306Y-66845600D01*
X138821427Y-66831076D01*
X138784103Y-66827400D01*
X138784092Y-66827400D01*
X138771634Y-66826173D01*
X138759176Y-66827400D01*
X130107040Y-66827400D01*
X130138579Y-66795861D01*
X130185139Y-66726178D01*
X130217211Y-66648751D01*
X130233560Y-66566555D01*
X130233560Y-66506093D01*
X141281150Y-66506093D01*
X141281150Y-66589899D01*
X141297499Y-66672095D01*
X141329571Y-66749522D01*
X141376131Y-66819205D01*
X141435391Y-66878465D01*
X141505074Y-66925025D01*
X141582501Y-66957097D01*
X141664697Y-66973446D01*
X141748503Y-66973446D01*
X141830699Y-66957097D01*
X141908126Y-66925025D01*
X141977809Y-66878465D01*
X142037069Y-66819205D01*
X142083629Y-66749522D01*
X142115701Y-66672095D01*
X142132050Y-66589899D01*
X142132050Y-66506093D01*
X142115701Y-66423897D01*
X142083629Y-66346470D01*
X142037069Y-66276787D01*
X141977809Y-66217527D01*
X141908126Y-66170967D01*
X141830699Y-66138895D01*
X141748503Y-66122546D01*
X141664697Y-66122546D01*
X141582501Y-66138895D01*
X141505074Y-66170967D01*
X141435391Y-66217527D01*
X141376131Y-66276787D01*
X141329571Y-66346470D01*
X141297499Y-66423897D01*
X141281150Y-66506093D01*
X130233560Y-66506093D01*
X130233560Y-66482749D01*
X130217211Y-66400553D01*
X130185139Y-66323126D01*
X130138579Y-66253443D01*
X130079319Y-66194183D01*
X130009636Y-66147623D01*
X129932209Y-66115551D01*
X129850013Y-66099202D01*
X129766207Y-66099202D01*
X129684011Y-66115551D01*
X129606584Y-66147623D01*
X129536901Y-66194183D01*
X129477641Y-66253443D01*
X129431081Y-66323126D01*
X129399009Y-66400553D01*
X129382660Y-66482749D01*
X129382660Y-66566555D01*
X129399009Y-66648751D01*
X129431081Y-66726178D01*
X129477641Y-66795861D01*
X129509180Y-66827400D01*
X128612585Y-66827400D01*
X128600127Y-66826173D01*
X128587669Y-66827400D01*
X128587659Y-66827400D01*
X128550335Y-66831076D01*
X128502456Y-66845600D01*
X128458330Y-66869186D01*
X128429339Y-66892979D01*
X128429337Y-66892981D01*
X128419655Y-66900927D01*
X128411709Y-66910609D01*
X127881312Y-67441006D01*
X127861013Y-67436968D01*
X127777207Y-67436968D01*
X127695011Y-67453317D01*
X127617584Y-67485389D01*
X127547901Y-67531949D01*
X127488641Y-67591209D01*
X127442081Y-67660892D01*
X127410009Y-67738319D01*
X127393660Y-67820515D01*
X121410200Y-67820515D01*
X121410200Y-65894455D01*
X124879134Y-65894455D01*
X124879134Y-65978261D01*
X124895483Y-66060457D01*
X124927555Y-66137884D01*
X124974115Y-66207567D01*
X125033375Y-66266827D01*
X125103058Y-66313387D01*
X125180485Y-66345459D01*
X125262681Y-66361808D01*
X125346487Y-66361808D01*
X125428683Y-66345459D01*
X125506110Y-66313387D01*
X125575793Y-66266827D01*
X125635053Y-66207567D01*
X125681613Y-66137884D01*
X125713685Y-66060457D01*
X125730034Y-65978261D01*
X125730034Y-65894455D01*
X125713685Y-65812259D01*
X125681613Y-65734832D01*
X125635053Y-65665149D01*
X125575793Y-65605889D01*
X125506110Y-65559329D01*
X125430953Y-65528197D01*
X127254112Y-65528197D01*
X127254112Y-65612003D01*
X127270461Y-65694199D01*
X127302533Y-65771626D01*
X127349093Y-65841309D01*
X127408353Y-65900569D01*
X127478036Y-65947129D01*
X127555463Y-65979201D01*
X127637659Y-65995550D01*
X127721465Y-65995550D01*
X127803661Y-65979201D01*
X127881088Y-65947129D01*
X127950771Y-65900569D01*
X128010031Y-65841309D01*
X128056591Y-65771626D01*
X128088663Y-65694199D01*
X128105012Y-65612003D01*
X128105012Y-65528197D01*
X128088663Y-65446001D01*
X128070107Y-65401203D01*
X136374390Y-65401203D01*
X136374390Y-65485009D01*
X136390739Y-65567205D01*
X136422811Y-65644632D01*
X136469371Y-65714315D01*
X136498890Y-65743834D01*
X136473933Y-65768791D01*
X136427373Y-65838474D01*
X136395301Y-65915901D01*
X136378952Y-65998097D01*
X136378952Y-66081903D01*
X136395301Y-66164099D01*
X136427373Y-66241526D01*
X136473933Y-66311209D01*
X136533193Y-66370469D01*
X136602876Y-66417029D01*
X136680303Y-66449101D01*
X136762499Y-66465450D01*
X136846305Y-66465450D01*
X136928501Y-66449101D01*
X137005928Y-66417029D01*
X137075611Y-66370469D01*
X137134871Y-66311209D01*
X137181431Y-66241526D01*
X137213503Y-66164099D01*
X137229852Y-66081903D01*
X137229852Y-65998097D01*
X137213503Y-65915901D01*
X137181431Y-65838474D01*
X137134871Y-65768791D01*
X137105352Y-65739272D01*
X137130309Y-65714315D01*
X137176869Y-65644632D01*
X137208941Y-65567205D01*
X137225290Y-65485009D01*
X137225290Y-65401203D01*
X137208941Y-65319007D01*
X137176869Y-65241580D01*
X137130309Y-65171897D01*
X137071049Y-65112637D01*
X137001366Y-65066077D01*
X136923939Y-65034005D01*
X136841743Y-65017656D01*
X136757937Y-65017656D01*
X136675741Y-65034005D01*
X136598314Y-65066077D01*
X136528631Y-65112637D01*
X136469371Y-65171897D01*
X136422811Y-65241580D01*
X136390739Y-65319007D01*
X136374390Y-65401203D01*
X128070107Y-65401203D01*
X128056591Y-65368574D01*
X128010031Y-65298891D01*
X127950771Y-65239631D01*
X127881088Y-65193071D01*
X127803661Y-65160999D01*
X127721465Y-65144650D01*
X127637659Y-65144650D01*
X127555463Y-65160999D01*
X127478036Y-65193071D01*
X127408353Y-65239631D01*
X127349093Y-65298891D01*
X127302533Y-65368574D01*
X127270461Y-65446001D01*
X127254112Y-65528197D01*
X125430953Y-65528197D01*
X125428683Y-65527257D01*
X125346487Y-65510908D01*
X125262681Y-65510908D01*
X125180485Y-65527257D01*
X125103058Y-65559329D01*
X125033375Y-65605889D01*
X124974115Y-65665149D01*
X124927555Y-65734832D01*
X124895483Y-65812259D01*
X124879134Y-65894455D01*
X121410200Y-65894455D01*
X121410200Y-63938741D01*
X127469705Y-63938741D01*
X127469705Y-64022547D01*
X127486054Y-64104743D01*
X127518126Y-64182170D01*
X127564686Y-64251853D01*
X127603063Y-64290230D01*
X127587377Y-64305915D01*
X127540817Y-64375598D01*
X127508745Y-64453025D01*
X127492396Y-64535221D01*
X127492396Y-64619027D01*
X127508745Y-64701223D01*
X127540817Y-64778650D01*
X127587377Y-64848333D01*
X127646637Y-64907593D01*
X127716320Y-64954153D01*
X127793747Y-64986225D01*
X127875943Y-65002574D01*
X127959749Y-65002574D01*
X128041945Y-64986225D01*
X128119372Y-64954153D01*
X128189055Y-64907593D01*
X128248315Y-64848333D01*
X128294875Y-64778650D01*
X128298106Y-64770848D01*
X133826392Y-64770848D01*
X133826392Y-64854654D01*
X133842741Y-64936850D01*
X133874813Y-65014277D01*
X133921373Y-65083960D01*
X133980633Y-65143220D01*
X134050316Y-65189780D01*
X134127743Y-65221852D01*
X134209939Y-65238201D01*
X134293745Y-65238201D01*
X134375941Y-65221852D01*
X134453368Y-65189780D01*
X134523051Y-65143220D01*
X134582311Y-65083960D01*
X134628871Y-65014277D01*
X134660943Y-64936850D01*
X134677292Y-64854654D01*
X134677292Y-64770848D01*
X134660943Y-64688652D01*
X134651641Y-64666194D01*
X137007610Y-64666194D01*
X137007610Y-64750000D01*
X137023959Y-64832196D01*
X137056031Y-64909623D01*
X137102591Y-64979306D01*
X137161851Y-65038566D01*
X137231534Y-65085126D01*
X137308961Y-65117198D01*
X137391157Y-65133547D01*
X137474963Y-65133547D01*
X137557159Y-65117198D01*
X137634586Y-65085126D01*
X137704269Y-65038566D01*
X137763529Y-64979306D01*
X137810089Y-64909623D01*
X137842161Y-64832196D01*
X137858510Y-64750000D01*
X137858510Y-64666194D01*
X137842161Y-64583998D01*
X137810089Y-64506571D01*
X137763529Y-64436888D01*
X137704269Y-64377628D01*
X137634586Y-64331068D01*
X137557159Y-64298996D01*
X137474963Y-64282647D01*
X137391157Y-64282647D01*
X137308961Y-64298996D01*
X137231534Y-64331068D01*
X137161851Y-64377628D01*
X137102591Y-64436888D01*
X137056031Y-64506571D01*
X137023959Y-64583998D01*
X137007610Y-64666194D01*
X134651641Y-64666194D01*
X134628871Y-64611225D01*
X134582311Y-64541542D01*
X134523051Y-64482282D01*
X134453368Y-64435722D01*
X134375941Y-64403650D01*
X134293745Y-64387301D01*
X134209939Y-64387301D01*
X134127743Y-64403650D01*
X134050316Y-64435722D01*
X133980633Y-64482282D01*
X133921373Y-64541542D01*
X133874813Y-64611225D01*
X133842741Y-64688652D01*
X133826392Y-64770848D01*
X128298106Y-64770848D01*
X128326947Y-64701223D01*
X128343296Y-64619027D01*
X128343296Y-64535221D01*
X128326947Y-64453025D01*
X128294875Y-64375598D01*
X128248315Y-64305915D01*
X128209939Y-64267539D01*
X128225624Y-64251853D01*
X128272184Y-64182170D01*
X128277516Y-64169297D01*
X141941550Y-64169297D01*
X141941550Y-64253103D01*
X141957899Y-64335299D01*
X141989971Y-64412726D01*
X142036531Y-64482409D01*
X142095791Y-64541669D01*
X142165474Y-64588229D01*
X142242901Y-64620301D01*
X142325097Y-64636650D01*
X142408903Y-64636650D01*
X142491099Y-64620301D01*
X142568526Y-64588229D01*
X142638209Y-64541669D01*
X142697469Y-64482409D01*
X142744029Y-64412726D01*
X142776101Y-64335299D01*
X142792450Y-64253103D01*
X142792450Y-64169297D01*
X142776101Y-64087101D01*
X142744029Y-64009674D01*
X142697469Y-63939991D01*
X142638209Y-63880731D01*
X142568526Y-63834171D01*
X142491099Y-63802099D01*
X142408903Y-63785750D01*
X142325097Y-63785750D01*
X142242901Y-63802099D01*
X142165474Y-63834171D01*
X142095791Y-63880731D01*
X142036531Y-63939991D01*
X141989971Y-64009674D01*
X141957899Y-64087101D01*
X141941550Y-64169297D01*
X128277516Y-64169297D01*
X128304256Y-64104743D01*
X128312427Y-64063661D01*
X128346905Y-64070519D01*
X128430711Y-64070519D01*
X128512907Y-64054170D01*
X128590334Y-64022098D01*
X128660017Y-63975538D01*
X128719277Y-63916278D01*
X128765837Y-63846595D01*
X128797909Y-63769168D01*
X128814258Y-63686972D01*
X128814258Y-63603166D01*
X128797909Y-63520970D01*
X128765837Y-63443543D01*
X128719277Y-63373860D01*
X128660017Y-63314600D01*
X128590334Y-63268040D01*
X128512907Y-63235968D01*
X128430711Y-63219619D01*
X128346905Y-63219619D01*
X128264709Y-63235968D01*
X128187282Y-63268040D01*
X128117599Y-63314600D01*
X128058339Y-63373860D01*
X128011779Y-63443543D01*
X127979707Y-63520970D01*
X127971536Y-63562052D01*
X127937058Y-63555194D01*
X127853252Y-63555194D01*
X127771056Y-63571543D01*
X127693629Y-63603615D01*
X127623946Y-63650175D01*
X127564686Y-63709435D01*
X127518126Y-63779118D01*
X127486054Y-63856545D01*
X127469705Y-63938741D01*
X121410200Y-63938741D01*
X121410200Y-63002079D01*
X126784094Y-63002079D01*
X126784094Y-63085885D01*
X126800443Y-63168081D01*
X126832515Y-63245508D01*
X126879075Y-63315191D01*
X126938335Y-63374451D01*
X127008018Y-63421011D01*
X127085445Y-63453083D01*
X127167641Y-63469432D01*
X127251447Y-63469432D01*
X127333643Y-63453083D01*
X127411070Y-63421011D01*
X127480753Y-63374451D01*
X127540013Y-63315191D01*
X127586573Y-63245508D01*
X127618645Y-63168081D01*
X127634994Y-63085885D01*
X127634994Y-63041426D01*
X128621614Y-63041426D01*
X128621614Y-63125232D01*
X128637963Y-63207428D01*
X128670035Y-63284855D01*
X128716595Y-63354538D01*
X128775855Y-63413798D01*
X128845538Y-63460358D01*
X128922965Y-63492430D01*
X129005161Y-63508779D01*
X129088967Y-63508779D01*
X129171163Y-63492430D01*
X129248590Y-63460358D01*
X129318273Y-63413798D01*
X129377533Y-63354538D01*
X129424093Y-63284855D01*
X129456165Y-63207428D01*
X129472514Y-63125232D01*
X129472514Y-63092334D01*
X130160902Y-63092334D01*
X130160902Y-63176140D01*
X130177251Y-63258336D01*
X130209323Y-63335763D01*
X130255883Y-63405446D01*
X130311599Y-63461162D01*
X130267772Y-63526755D01*
X130235700Y-63604182D01*
X130219351Y-63686378D01*
X130219351Y-63770184D01*
X130235700Y-63852380D01*
X130267772Y-63929807D01*
X130314332Y-63999490D01*
X130373592Y-64058750D01*
X130443275Y-64105310D01*
X130520702Y-64137382D01*
X130602898Y-64153731D01*
X130686704Y-64153731D01*
X130768900Y-64137382D01*
X130846327Y-64105310D01*
X130916010Y-64058750D01*
X130975270Y-63999490D01*
X131021830Y-63929807D01*
X131053902Y-63852380D01*
X131070251Y-63770184D01*
X131070251Y-63686378D01*
X131053902Y-63604182D01*
X131021830Y-63526755D01*
X130975270Y-63457072D01*
X130919554Y-63401356D01*
X130963381Y-63335763D01*
X130995453Y-63258336D01*
X131011802Y-63176140D01*
X131011802Y-63096118D01*
X133249606Y-63096118D01*
X133249606Y-63179924D01*
X133265955Y-63262120D01*
X133298027Y-63339547D01*
X133344587Y-63409230D01*
X133403847Y-63468490D01*
X133473530Y-63515050D01*
X133550957Y-63547122D01*
X133633153Y-63563471D01*
X133716959Y-63563471D01*
X133799155Y-63547122D01*
X133876582Y-63515050D01*
X133946265Y-63468490D01*
X134005525Y-63409230D01*
X134052085Y-63339547D01*
X134084157Y-63262120D01*
X134100506Y-63179924D01*
X134100506Y-63096118D01*
X134084157Y-63013922D01*
X134068241Y-62975497D01*
X137013950Y-62975497D01*
X137013950Y-63059303D01*
X137030299Y-63141499D01*
X137062371Y-63218926D01*
X137108931Y-63288609D01*
X137168191Y-63347869D01*
X137237874Y-63394429D01*
X137315301Y-63426501D01*
X137397497Y-63442850D01*
X137481303Y-63442850D01*
X137563499Y-63426501D01*
X137640926Y-63394429D01*
X137710609Y-63347869D01*
X137769869Y-63288609D01*
X137816429Y-63218926D01*
X137846550Y-63146210D01*
X137848701Y-63147101D01*
X137930897Y-63163450D01*
X138014703Y-63163450D01*
X138096899Y-63147101D01*
X138174326Y-63115029D01*
X138244009Y-63068469D01*
X138303269Y-63009209D01*
X138349829Y-62939526D01*
X138381901Y-62862099D01*
X138398250Y-62779903D01*
X138398250Y-62713366D01*
X140893800Y-62713366D01*
X140893800Y-62813434D01*
X140913322Y-62911578D01*
X140951616Y-63004028D01*
X141007211Y-63087231D01*
X141077969Y-63157989D01*
X141161172Y-63213584D01*
X141253622Y-63251878D01*
X141351766Y-63271400D01*
X141451834Y-63271400D01*
X141549978Y-63251878D01*
X141642428Y-63213584D01*
X141725631Y-63157989D01*
X141796389Y-63087231D01*
X141851984Y-63004028D01*
X141890278Y-62911578D01*
X141909800Y-62813434D01*
X141909800Y-62713366D01*
X141890278Y-62615222D01*
X141851984Y-62522772D01*
X141796389Y-62439569D01*
X141725631Y-62368811D01*
X141642428Y-62313216D01*
X141549978Y-62274922D01*
X141451834Y-62255400D01*
X141351766Y-62255400D01*
X141253622Y-62274922D01*
X141161172Y-62313216D01*
X141077969Y-62368811D01*
X141007211Y-62439569D01*
X140951616Y-62522772D01*
X140913322Y-62615222D01*
X140893800Y-62713366D01*
X138398250Y-62713366D01*
X138398250Y-62696097D01*
X138381901Y-62613901D01*
X138349829Y-62536474D01*
X138303269Y-62466791D01*
X138244009Y-62407531D01*
X138174326Y-62360971D01*
X138096899Y-62328899D01*
X138014703Y-62312550D01*
X137930897Y-62312550D01*
X137848701Y-62328899D01*
X137771274Y-62360971D01*
X137701591Y-62407531D01*
X137642331Y-62466791D01*
X137595771Y-62536474D01*
X137565650Y-62609190D01*
X137563499Y-62608299D01*
X137481303Y-62591950D01*
X137397497Y-62591950D01*
X137315301Y-62608299D01*
X137237874Y-62640371D01*
X137168191Y-62686931D01*
X137108931Y-62746191D01*
X137062371Y-62815874D01*
X137030299Y-62893301D01*
X137013950Y-62975497D01*
X134068241Y-62975497D01*
X134052085Y-62936495D01*
X134005525Y-62866812D01*
X133946265Y-62807552D01*
X133876582Y-62760992D01*
X133799155Y-62728920D01*
X133716959Y-62712571D01*
X133633153Y-62712571D01*
X133550957Y-62728920D01*
X133473530Y-62760992D01*
X133403847Y-62807552D01*
X133344587Y-62866812D01*
X133298027Y-62936495D01*
X133265955Y-63013922D01*
X133249606Y-63096118D01*
X131011802Y-63096118D01*
X131011802Y-63092334D01*
X130995453Y-63010138D01*
X130963381Y-62932711D01*
X130916821Y-62863028D01*
X130857561Y-62803768D01*
X130787878Y-62757208D01*
X130710451Y-62725136D01*
X130628255Y-62708787D01*
X130544449Y-62708787D01*
X130462253Y-62725136D01*
X130384826Y-62757208D01*
X130315143Y-62803768D01*
X130255883Y-62863028D01*
X130209323Y-62932711D01*
X130177251Y-63010138D01*
X130160902Y-63092334D01*
X129472514Y-63092334D01*
X129472514Y-63041426D01*
X129456165Y-62959230D01*
X129424093Y-62881803D01*
X129377533Y-62812120D01*
X129318273Y-62752860D01*
X129248590Y-62706300D01*
X129171163Y-62674228D01*
X129088967Y-62657879D01*
X129005161Y-62657879D01*
X128922965Y-62674228D01*
X128845538Y-62706300D01*
X128775855Y-62752860D01*
X128716595Y-62812120D01*
X128670035Y-62881803D01*
X128637963Y-62959230D01*
X128621614Y-63041426D01*
X127634994Y-63041426D01*
X127634994Y-63002079D01*
X127618645Y-62919883D01*
X127586573Y-62842456D01*
X127559964Y-62802633D01*
X127584043Y-62786544D01*
X127643303Y-62727284D01*
X127689863Y-62657601D01*
X127721935Y-62580174D01*
X127738284Y-62497978D01*
X127738284Y-62414172D01*
X127721935Y-62331976D01*
X127689863Y-62254549D01*
X127643303Y-62184866D01*
X127584043Y-62125606D01*
X127514360Y-62079046D01*
X127436933Y-62046974D01*
X127354737Y-62030625D01*
X127270931Y-62030625D01*
X127188735Y-62046974D01*
X127111308Y-62079046D01*
X127041625Y-62125606D01*
X126982365Y-62184866D01*
X126935805Y-62254549D01*
X126903733Y-62331976D01*
X126887384Y-62414172D01*
X126887384Y-62497978D01*
X126903733Y-62580174D01*
X126935805Y-62657601D01*
X126962414Y-62697424D01*
X126938335Y-62713513D01*
X126879075Y-62772773D01*
X126832515Y-62842456D01*
X126800443Y-62919883D01*
X126784094Y-63002079D01*
X121410200Y-63002079D01*
X121410200Y-61934119D01*
X125025150Y-61934119D01*
X125025150Y-62017925D01*
X125041499Y-62100121D01*
X125073571Y-62177548D01*
X125120131Y-62247231D01*
X125179391Y-62306491D01*
X125249074Y-62353051D01*
X125326501Y-62385123D01*
X125408697Y-62401472D01*
X125492503Y-62401472D01*
X125574699Y-62385123D01*
X125652126Y-62353051D01*
X125721809Y-62306491D01*
X125781069Y-62247231D01*
X125827629Y-62177548D01*
X125859701Y-62100121D01*
X125876050Y-62017925D01*
X125876050Y-61934119D01*
X125859701Y-61851923D01*
X125833256Y-61788080D01*
X128682750Y-61788080D01*
X128682750Y-61871886D01*
X128699099Y-61954082D01*
X128731171Y-62031509D01*
X128777731Y-62101192D01*
X128836991Y-62160452D01*
X128906674Y-62207012D01*
X128984101Y-62239084D01*
X129066297Y-62255433D01*
X129150103Y-62255433D01*
X129232299Y-62239084D01*
X129309726Y-62207012D01*
X129379409Y-62160452D01*
X129403193Y-62136668D01*
X131141643Y-62136668D01*
X131141643Y-62220474D01*
X131157992Y-62302670D01*
X131190064Y-62380097D01*
X131236624Y-62449780D01*
X131295884Y-62509040D01*
X131365567Y-62555600D01*
X131442994Y-62587672D01*
X131525190Y-62604021D01*
X131608996Y-62604021D01*
X131691192Y-62587672D01*
X131768619Y-62555600D01*
X131838302Y-62509040D01*
X131897562Y-62449780D01*
X131944122Y-62380097D01*
X131976194Y-62302670D01*
X131992543Y-62220474D01*
X131992543Y-62136668D01*
X131976194Y-62054472D01*
X131944122Y-61977045D01*
X131897562Y-61907362D01*
X131873497Y-61883297D01*
X139249150Y-61883297D01*
X139249150Y-61967103D01*
X139265499Y-62049299D01*
X139297571Y-62126726D01*
X139344131Y-62196409D01*
X139403391Y-62255669D01*
X139473074Y-62302229D01*
X139550501Y-62334301D01*
X139632697Y-62350650D01*
X139716503Y-62350650D01*
X139798699Y-62334301D01*
X139876126Y-62302229D01*
X139945809Y-62255669D01*
X140005069Y-62196409D01*
X140051629Y-62126726D01*
X140083701Y-62049299D01*
X140100050Y-61967103D01*
X140100050Y-61883297D01*
X140083701Y-61801101D01*
X140051629Y-61723674D01*
X140005069Y-61653991D01*
X139945809Y-61594731D01*
X139876126Y-61548171D01*
X139798699Y-61516099D01*
X139716503Y-61499750D01*
X139632697Y-61499750D01*
X139550501Y-61516099D01*
X139473074Y-61548171D01*
X139403391Y-61594731D01*
X139344131Y-61653991D01*
X139297571Y-61723674D01*
X139265499Y-61801101D01*
X139249150Y-61883297D01*
X131873497Y-61883297D01*
X131838302Y-61848102D01*
X131768619Y-61801542D01*
X131691192Y-61769470D01*
X131608996Y-61753121D01*
X131525190Y-61753121D01*
X131442994Y-61769470D01*
X131365567Y-61801542D01*
X131295884Y-61848102D01*
X131236624Y-61907362D01*
X131190064Y-61977045D01*
X131157992Y-62054472D01*
X131141643Y-62136668D01*
X129403193Y-62136668D01*
X129438669Y-62101192D01*
X129485229Y-62031509D01*
X129517301Y-61954082D01*
X129533650Y-61871886D01*
X129533650Y-61788080D01*
X129517301Y-61705884D01*
X129485229Y-61628457D01*
X129438669Y-61558774D01*
X129379409Y-61499514D01*
X129309726Y-61452954D01*
X129232299Y-61420882D01*
X129150103Y-61404533D01*
X129066297Y-61404533D01*
X128984101Y-61420882D01*
X128906674Y-61452954D01*
X128836991Y-61499514D01*
X128777731Y-61558774D01*
X128731171Y-61628457D01*
X128699099Y-61705884D01*
X128682750Y-61788080D01*
X125833256Y-61788080D01*
X125827629Y-61774496D01*
X125781069Y-61704813D01*
X125721809Y-61645553D01*
X125652126Y-61598993D01*
X125574699Y-61566921D01*
X125492503Y-61550572D01*
X125408697Y-61550572D01*
X125326501Y-61566921D01*
X125249074Y-61598993D01*
X125179391Y-61645553D01*
X125120131Y-61704813D01*
X125073571Y-61774496D01*
X125041499Y-61851923D01*
X125025150Y-61934119D01*
X121410200Y-61934119D01*
X121410200Y-59889908D01*
X125000167Y-59889908D01*
X125000167Y-59973714D01*
X125016516Y-60055910D01*
X125048588Y-60133337D01*
X125095148Y-60203020D01*
X125134625Y-60242497D01*
X125120131Y-60256991D01*
X125073571Y-60326674D01*
X125041499Y-60404101D01*
X125025150Y-60486297D01*
X125025150Y-60570103D01*
X125041499Y-60652299D01*
X125073571Y-60729726D01*
X125120131Y-60799409D01*
X125147372Y-60826650D01*
X125120120Y-60853902D01*
X125073560Y-60923585D01*
X125041488Y-61001012D01*
X125025139Y-61083208D01*
X125025139Y-61167014D01*
X125041488Y-61249210D01*
X125073560Y-61326637D01*
X125120120Y-61396320D01*
X125179380Y-61455580D01*
X125249063Y-61502140D01*
X125326490Y-61534212D01*
X125408686Y-61550561D01*
X125492492Y-61550561D01*
X125574688Y-61534212D01*
X125652115Y-61502140D01*
X125721798Y-61455580D01*
X125781058Y-61396320D01*
X125827618Y-61326637D01*
X125859690Y-61249210D01*
X125876039Y-61167014D01*
X125876039Y-61083208D01*
X125859690Y-61001012D01*
X125827618Y-60923585D01*
X125815466Y-60905397D01*
X126968250Y-60905397D01*
X126968250Y-60989203D01*
X126984599Y-61071399D01*
X127016671Y-61148826D01*
X127063231Y-61218509D01*
X127122491Y-61277769D01*
X127192174Y-61324329D01*
X127269601Y-61356401D01*
X127351797Y-61372750D01*
X127435603Y-61372750D01*
X127517799Y-61356401D01*
X127595226Y-61324329D01*
X127664909Y-61277769D01*
X127724169Y-61218509D01*
X127770729Y-61148826D01*
X127802801Y-61071399D01*
X127819150Y-60989203D01*
X127819150Y-60929303D01*
X128660649Y-60929303D01*
X128660649Y-61013109D01*
X128676998Y-61095305D01*
X128709070Y-61172732D01*
X128755630Y-61242415D01*
X128814890Y-61301675D01*
X128884573Y-61348235D01*
X128962000Y-61380307D01*
X129044196Y-61396656D01*
X129128002Y-61396656D01*
X129210198Y-61380307D01*
X129287625Y-61348235D01*
X129357308Y-61301675D01*
X129416568Y-61242415D01*
X129463128Y-61172732D01*
X129495200Y-61095305D01*
X129511549Y-61013109D01*
X129511549Y-60929303D01*
X129495200Y-60847107D01*
X129463128Y-60769680D01*
X129416568Y-60699997D01*
X129398857Y-60682286D01*
X129511560Y-60682286D01*
X129511560Y-60766092D01*
X129527909Y-60848288D01*
X129559981Y-60925715D01*
X129606541Y-60995398D01*
X129665801Y-61054658D01*
X129735484Y-61101218D01*
X129812911Y-61133290D01*
X129895107Y-61149639D01*
X129978913Y-61149639D01*
X130061109Y-61133290D01*
X130138536Y-61101218D01*
X130208219Y-61054658D01*
X130267479Y-60995398D01*
X130272140Y-60988422D01*
X132994443Y-60988422D01*
X132994443Y-61072228D01*
X133010792Y-61154424D01*
X133042864Y-61231851D01*
X133089424Y-61301534D01*
X133148684Y-61360794D01*
X133218367Y-61407354D01*
X133295794Y-61439426D01*
X133377990Y-61455775D01*
X133461796Y-61455775D01*
X133543992Y-61439426D01*
X133621419Y-61407354D01*
X133691102Y-61360794D01*
X133750362Y-61301534D01*
X133796922Y-61231851D01*
X133828994Y-61154424D01*
X133845343Y-61072228D01*
X133845343Y-60988422D01*
X133828994Y-60906226D01*
X133796922Y-60828799D01*
X133750362Y-60759116D01*
X133691102Y-60699856D01*
X133621419Y-60653296D01*
X133543992Y-60621224D01*
X133461796Y-60604875D01*
X133377990Y-60604875D01*
X133295794Y-60621224D01*
X133218367Y-60653296D01*
X133148684Y-60699856D01*
X133089424Y-60759116D01*
X133042864Y-60828799D01*
X133010792Y-60906226D01*
X132994443Y-60988422D01*
X130272140Y-60988422D01*
X130314039Y-60925715D01*
X130346111Y-60848288D01*
X130362460Y-60766092D01*
X130362460Y-60682286D01*
X130346111Y-60600090D01*
X130314039Y-60522663D01*
X130267479Y-60452980D01*
X130208219Y-60393720D01*
X130138536Y-60347160D01*
X130061109Y-60315088D01*
X129978913Y-60298739D01*
X129895107Y-60298739D01*
X129812911Y-60315088D01*
X129735484Y-60347160D01*
X129665801Y-60393720D01*
X129606541Y-60452980D01*
X129559981Y-60522663D01*
X129527909Y-60600090D01*
X129511560Y-60682286D01*
X129398857Y-60682286D01*
X129357308Y-60640737D01*
X129287625Y-60594177D01*
X129210198Y-60562105D01*
X129128002Y-60545756D01*
X129044196Y-60545756D01*
X128962000Y-60562105D01*
X128884573Y-60594177D01*
X128814890Y-60640737D01*
X128755630Y-60699997D01*
X128709070Y-60769680D01*
X128676998Y-60847107D01*
X128660649Y-60929303D01*
X127819150Y-60929303D01*
X127819150Y-60905397D01*
X127802801Y-60823201D01*
X127770729Y-60745774D01*
X127724169Y-60676091D01*
X127664909Y-60616831D01*
X127595226Y-60570271D01*
X127517799Y-60538199D01*
X127435603Y-60521850D01*
X127351797Y-60521850D01*
X127269601Y-60538199D01*
X127192174Y-60570271D01*
X127122491Y-60616831D01*
X127063231Y-60676091D01*
X127016671Y-60745774D01*
X126984599Y-60823201D01*
X126968250Y-60905397D01*
X125815466Y-60905397D01*
X125781058Y-60853902D01*
X125753817Y-60826661D01*
X125781069Y-60799409D01*
X125827629Y-60729726D01*
X125859701Y-60652299D01*
X125876050Y-60570103D01*
X125876050Y-60486297D01*
X125859701Y-60404101D01*
X125827629Y-60326674D01*
X125781069Y-60256991D01*
X125741592Y-60217514D01*
X125756086Y-60203020D01*
X125802646Y-60133337D01*
X125834718Y-60055910D01*
X125851067Y-59973714D01*
X125851067Y-59889908D01*
X125834718Y-59807712D01*
X125802646Y-59730285D01*
X125756086Y-59660602D01*
X125743868Y-59648384D01*
X129952455Y-59648384D01*
X129952455Y-59732190D01*
X129968804Y-59814386D01*
X130000876Y-59891813D01*
X130047436Y-59961496D01*
X130106696Y-60020756D01*
X130176379Y-60067316D01*
X130253806Y-60099388D01*
X130336002Y-60115737D01*
X130372049Y-60115737D01*
X130372049Y-60193094D01*
X130388398Y-60275290D01*
X130420470Y-60352717D01*
X130467030Y-60422400D01*
X130526290Y-60481660D01*
X130595973Y-60528220D01*
X130673400Y-60560292D01*
X130755596Y-60576641D01*
X130839402Y-60576641D01*
X130921598Y-60560292D01*
X130999025Y-60528220D01*
X131068708Y-60481660D01*
X131127968Y-60422400D01*
X131174528Y-60352717D01*
X131206600Y-60275290D01*
X131222949Y-60193094D01*
X131222949Y-60125249D01*
X131479180Y-60125249D01*
X131479180Y-60209055D01*
X131495529Y-60291251D01*
X131527601Y-60368678D01*
X131574161Y-60438361D01*
X131633421Y-60497621D01*
X131703104Y-60544181D01*
X131780531Y-60576253D01*
X131862727Y-60592602D01*
X131946533Y-60592602D01*
X132028729Y-60576253D01*
X132106156Y-60544181D01*
X132175839Y-60497621D01*
X132208022Y-60465438D01*
X137313500Y-60465438D01*
X137313500Y-60565506D01*
X137333022Y-60663650D01*
X137371316Y-60756100D01*
X137426911Y-60839303D01*
X137497669Y-60910061D01*
X137580872Y-60965656D01*
X137673322Y-61003950D01*
X137771466Y-61023472D01*
X137871534Y-61023472D01*
X137969678Y-61003950D01*
X138062128Y-60965656D01*
X138145331Y-60910061D01*
X138216089Y-60839303D01*
X138271684Y-60756100D01*
X138309978Y-60663650D01*
X138329500Y-60565506D01*
X138329500Y-60465438D01*
X138309978Y-60367294D01*
X138271684Y-60274844D01*
X138216089Y-60191641D01*
X138145331Y-60120883D01*
X138062128Y-60065288D01*
X137969678Y-60026994D01*
X137871534Y-60007472D01*
X137771466Y-60007472D01*
X137673322Y-60026994D01*
X137580872Y-60065288D01*
X137497669Y-60120883D01*
X137426911Y-60191641D01*
X137371316Y-60274844D01*
X137333022Y-60367294D01*
X137313500Y-60465438D01*
X132208022Y-60465438D01*
X132235099Y-60438361D01*
X132281659Y-60368678D01*
X132313731Y-60291251D01*
X132330080Y-60209055D01*
X132330080Y-60125249D01*
X132313731Y-60043053D01*
X132281659Y-59965626D01*
X132235099Y-59895943D01*
X132175839Y-59836683D01*
X132106156Y-59790123D01*
X132028729Y-59758051D01*
X131946533Y-59741702D01*
X131862727Y-59741702D01*
X131780531Y-59758051D01*
X131703104Y-59790123D01*
X131633421Y-59836683D01*
X131574161Y-59895943D01*
X131527601Y-59965626D01*
X131495529Y-60043053D01*
X131479180Y-60125249D01*
X131222949Y-60125249D01*
X131222949Y-60109288D01*
X131206600Y-60027092D01*
X131174528Y-59949665D01*
X131127968Y-59879982D01*
X131068708Y-59820722D01*
X130999025Y-59774162D01*
X130921598Y-59742090D01*
X130839402Y-59725741D01*
X130803355Y-59725741D01*
X130803355Y-59648384D01*
X130787006Y-59566188D01*
X130754934Y-59488761D01*
X130708374Y-59419078D01*
X130649114Y-59359818D01*
X130579431Y-59313258D01*
X130502004Y-59281186D01*
X130419808Y-59264837D01*
X130336002Y-59264837D01*
X130253806Y-59281186D01*
X130176379Y-59313258D01*
X130106696Y-59359818D01*
X130047436Y-59419078D01*
X130000876Y-59488761D01*
X129968804Y-59566188D01*
X129952455Y-59648384D01*
X125743868Y-59648384D01*
X125696826Y-59601342D01*
X125627143Y-59554782D01*
X125549716Y-59522710D01*
X125467520Y-59506361D01*
X125383714Y-59506361D01*
X125301518Y-59522710D01*
X125224091Y-59554782D01*
X125154408Y-59601342D01*
X125095148Y-59660602D01*
X125048588Y-59730285D01*
X125016516Y-59807712D01*
X125000167Y-59889908D01*
X121410200Y-59889908D01*
X121410200Y-59175586D01*
X127209550Y-59175586D01*
X127209550Y-59259392D01*
X127225899Y-59341588D01*
X127257971Y-59419015D01*
X127304531Y-59488698D01*
X127363791Y-59547958D01*
X127433474Y-59594518D01*
X127510901Y-59626590D01*
X127593097Y-59642939D01*
X127676903Y-59642939D01*
X127759099Y-59626590D01*
X127836526Y-59594518D01*
X127906209Y-59547958D01*
X127965469Y-59488698D01*
X128012029Y-59419015D01*
X128044101Y-59341588D01*
X128060450Y-59259392D01*
X128060450Y-59175586D01*
X128044101Y-59093390D01*
X128029307Y-59057675D01*
X128105107Y-59089073D01*
X128187303Y-59105422D01*
X128271109Y-59105422D01*
X128353305Y-59089073D01*
X128430732Y-59057001D01*
X128500415Y-59010441D01*
X128559675Y-58951181D01*
X128606235Y-58881498D01*
X128638307Y-58804071D01*
X128654656Y-58721875D01*
X128654656Y-58638069D01*
X128653469Y-58632097D01*
X128733552Y-58632097D01*
X128733552Y-58715903D01*
X128749901Y-58798099D01*
X128781973Y-58875526D01*
X128828533Y-58945209D01*
X128887793Y-59004469D01*
X128957476Y-59051029D01*
X129034903Y-59083101D01*
X129117099Y-59099450D01*
X129200905Y-59099450D01*
X129283101Y-59083101D01*
X129360528Y-59051029D01*
X129430211Y-59004469D01*
X129489471Y-58945209D01*
X129536031Y-58875526D01*
X129568103Y-58798099D01*
X129584452Y-58715903D01*
X129584452Y-58632097D01*
X129582997Y-58624781D01*
X130185741Y-58624781D01*
X130185741Y-58708587D01*
X130202090Y-58790783D01*
X130234162Y-58868210D01*
X130280722Y-58937893D01*
X130339982Y-58997153D01*
X130409665Y-59043713D01*
X130487092Y-59075785D01*
X130569288Y-59092134D01*
X130653094Y-59092134D01*
X130735290Y-59075785D01*
X130812717Y-59043713D01*
X130882400Y-58997153D01*
X130941660Y-58937893D01*
X130988220Y-58868210D01*
X131020292Y-58790783D01*
X131036641Y-58708587D01*
X131036641Y-58632097D01*
X131165610Y-58632097D01*
X131165610Y-58715903D01*
X131181959Y-58798099D01*
X131214031Y-58875526D01*
X131260591Y-58945209D01*
X131319851Y-59004469D01*
X131389534Y-59051029D01*
X131466961Y-59083101D01*
X131549157Y-59099450D01*
X131632963Y-59099450D01*
X131715159Y-59083101D01*
X131792586Y-59051029D01*
X131836741Y-59021526D01*
X131811913Y-59046354D01*
X131765353Y-59116037D01*
X131733281Y-59193464D01*
X131716932Y-59275660D01*
X131716932Y-59359466D01*
X131733281Y-59441662D01*
X131765353Y-59519089D01*
X131811913Y-59588772D01*
X131871173Y-59648032D01*
X131940856Y-59694592D01*
X132018283Y-59726664D01*
X132100479Y-59743013D01*
X132184285Y-59743013D01*
X132266481Y-59726664D01*
X132343908Y-59694592D01*
X132413591Y-59648032D01*
X132472851Y-59588772D01*
X132519411Y-59519089D01*
X132551483Y-59441662D01*
X132567832Y-59359466D01*
X132567832Y-59275660D01*
X132551483Y-59193464D01*
X132519411Y-59116037D01*
X132472851Y-59046354D01*
X132466882Y-59040385D01*
X132510126Y-59022473D01*
X132579809Y-58975913D01*
X132639069Y-58916653D01*
X132648844Y-58902023D01*
X132660126Y-58918908D01*
X132719386Y-58978168D01*
X132789069Y-59024728D01*
X132866496Y-59056800D01*
X132948692Y-59073149D01*
X133032498Y-59073149D01*
X133114694Y-59056800D01*
X133192121Y-59024728D01*
X133261804Y-58978168D01*
X133321064Y-58918908D01*
X133367624Y-58849225D01*
X133380749Y-58817538D01*
X133404769Y-58875526D01*
X133451329Y-58945209D01*
X133510589Y-59004469D01*
X133580272Y-59051029D01*
X133657699Y-59083101D01*
X133739895Y-59099450D01*
X133823701Y-59099450D01*
X133905897Y-59083101D01*
X133983324Y-59051029D01*
X134053007Y-59004469D01*
X134112267Y-58945209D01*
X134158827Y-58875526D01*
X134190899Y-58798099D01*
X134207248Y-58715903D01*
X134207248Y-58632097D01*
X134190899Y-58549901D01*
X134158827Y-58472474D01*
X134112267Y-58402791D01*
X134053007Y-58343531D01*
X133983324Y-58296971D01*
X133905897Y-58264899D01*
X133823701Y-58248550D01*
X133739895Y-58248550D01*
X133657699Y-58264899D01*
X133580272Y-58296971D01*
X133510589Y-58343531D01*
X133451329Y-58402791D01*
X133404769Y-58472474D01*
X133391644Y-58504161D01*
X133367624Y-58446173D01*
X133321064Y-58376490D01*
X133261804Y-58317230D01*
X133192121Y-58270670D01*
X133114694Y-58238598D01*
X133032498Y-58222249D01*
X132948692Y-58222249D01*
X132866496Y-58238598D01*
X132789069Y-58270670D01*
X132719386Y-58317230D01*
X132660126Y-58376490D01*
X132650351Y-58391120D01*
X132639069Y-58374235D01*
X132579809Y-58314975D01*
X132510126Y-58268415D01*
X132432699Y-58236343D01*
X132350503Y-58219994D01*
X132266697Y-58219994D01*
X132184501Y-58236343D01*
X132107074Y-58268415D01*
X132037391Y-58314975D01*
X131978131Y-58374235D01*
X131940290Y-58430869D01*
X131921529Y-58402791D01*
X131862269Y-58343531D01*
X131792586Y-58296971D01*
X131715159Y-58264899D01*
X131632963Y-58248550D01*
X131549157Y-58248550D01*
X131466961Y-58264899D01*
X131389534Y-58296971D01*
X131319851Y-58343531D01*
X131260591Y-58402791D01*
X131214031Y-58472474D01*
X131181959Y-58549901D01*
X131165610Y-58632097D01*
X131036641Y-58632097D01*
X131036641Y-58624781D01*
X131020292Y-58542585D01*
X130988220Y-58465158D01*
X130941660Y-58395475D01*
X130882400Y-58336215D01*
X130812717Y-58289655D01*
X130735290Y-58257583D01*
X130653094Y-58241234D01*
X130569288Y-58241234D01*
X130487092Y-58257583D01*
X130409665Y-58289655D01*
X130339982Y-58336215D01*
X130280722Y-58395475D01*
X130234162Y-58465158D01*
X130202090Y-58542585D01*
X130185741Y-58624781D01*
X129582997Y-58624781D01*
X129568103Y-58549901D01*
X129536031Y-58472474D01*
X129489471Y-58402791D01*
X129430211Y-58343531D01*
X129360528Y-58296971D01*
X129283101Y-58264899D01*
X129200905Y-58248550D01*
X129117099Y-58248550D01*
X129034903Y-58264899D01*
X128957476Y-58296971D01*
X128887793Y-58343531D01*
X128828533Y-58402791D01*
X128781973Y-58472474D01*
X128749901Y-58549901D01*
X128733552Y-58632097D01*
X128653469Y-58632097D01*
X128638307Y-58555873D01*
X128606235Y-58478446D01*
X128559675Y-58408763D01*
X128500415Y-58349503D01*
X128430732Y-58302943D01*
X128353305Y-58270871D01*
X128271109Y-58254522D01*
X128187303Y-58254522D01*
X128105107Y-58270871D01*
X128027680Y-58302943D01*
X127957997Y-58349503D01*
X127898737Y-58408763D01*
X127852177Y-58478446D01*
X127820105Y-58555873D01*
X127803756Y-58638069D01*
X127803756Y-58721875D01*
X127820105Y-58804071D01*
X127834899Y-58839786D01*
X127759099Y-58808388D01*
X127676903Y-58792039D01*
X127593097Y-58792039D01*
X127510901Y-58808388D01*
X127433474Y-58840460D01*
X127363791Y-58887020D01*
X127304531Y-58946280D01*
X127257971Y-59015963D01*
X127225899Y-59093390D01*
X127209550Y-59175586D01*
X121410200Y-59175586D01*
X121410200Y-58632097D01*
X123501150Y-58632097D01*
X123501150Y-58715903D01*
X123517499Y-58798099D01*
X123549571Y-58875526D01*
X123596131Y-58945209D01*
X123655391Y-59004469D01*
X123725074Y-59051029D01*
X123802501Y-59083101D01*
X123884697Y-59099450D01*
X123968503Y-59099450D01*
X124050699Y-59083101D01*
X124128126Y-59051029D01*
X124197809Y-59004469D01*
X124257069Y-58945209D01*
X124303629Y-58875526D01*
X124335701Y-58798099D01*
X124352050Y-58715903D01*
X124352050Y-58632097D01*
X125025150Y-58632097D01*
X125025150Y-58715903D01*
X125041499Y-58798099D01*
X125073571Y-58875526D01*
X125120131Y-58945209D01*
X125179391Y-59004469D01*
X125249074Y-59051029D01*
X125326501Y-59083101D01*
X125408697Y-59099450D01*
X125492503Y-59099450D01*
X125574699Y-59083101D01*
X125652126Y-59051029D01*
X125721809Y-59004469D01*
X125781069Y-58945209D01*
X125827629Y-58875526D01*
X125859701Y-58798099D01*
X125876050Y-58715903D01*
X125876050Y-58632097D01*
X125859701Y-58549901D01*
X125827629Y-58472474D01*
X125781069Y-58402791D01*
X125721809Y-58343531D01*
X125652126Y-58296971D01*
X125574699Y-58264899D01*
X125492503Y-58248550D01*
X125408697Y-58248550D01*
X125326501Y-58264899D01*
X125249074Y-58296971D01*
X125179391Y-58343531D01*
X125120131Y-58402791D01*
X125073571Y-58472474D01*
X125041499Y-58549901D01*
X125025150Y-58632097D01*
X124352050Y-58632097D01*
X124335701Y-58549901D01*
X124303629Y-58472474D01*
X124257069Y-58402791D01*
X124197809Y-58343531D01*
X124128126Y-58296971D01*
X124050699Y-58264899D01*
X123968503Y-58248550D01*
X123884697Y-58248550D01*
X123802501Y-58264899D01*
X123725074Y-58296971D01*
X123655391Y-58343531D01*
X123596131Y-58402791D01*
X123549571Y-58472474D01*
X123517499Y-58549901D01*
X123501150Y-58632097D01*
X121410200Y-58632097D01*
X121410200Y-56473097D01*
X127209550Y-56473097D01*
X127209550Y-56556903D01*
X127225899Y-56639099D01*
X127257971Y-56716526D01*
X127304531Y-56786209D01*
X127363791Y-56845469D01*
X127433474Y-56892029D01*
X127510901Y-56924101D01*
X127593097Y-56940450D01*
X127676903Y-56940450D01*
X127759099Y-56924101D01*
X127836526Y-56892029D01*
X127906209Y-56845469D01*
X127965469Y-56786209D01*
X128012029Y-56716526D01*
X128044101Y-56639099D01*
X128060450Y-56556903D01*
X128060450Y-56473097D01*
X128044101Y-56390901D01*
X128012029Y-56313474D01*
X127965469Y-56243791D01*
X127906209Y-56184531D01*
X127836526Y-56137971D01*
X127759099Y-56105899D01*
X127676903Y-56089550D01*
X127593097Y-56089550D01*
X127510901Y-56105899D01*
X127433474Y-56137971D01*
X127363791Y-56184531D01*
X127304531Y-56243791D01*
X127257971Y-56313474D01*
X127225899Y-56390901D01*
X127209550Y-56473097D01*
X121410200Y-56473097D01*
X121410200Y-54646145D01*
X121427012Y-54509164D01*
X125653800Y-54509164D01*
X125653800Y-54609232D01*
X125673322Y-54707376D01*
X125711616Y-54799826D01*
X125767211Y-54883029D01*
X125837969Y-54953787D01*
X125921172Y-55009382D01*
X126013622Y-55047676D01*
X126111766Y-55067198D01*
X126211834Y-55067198D01*
X126309978Y-55047676D01*
X126402428Y-55009382D01*
X126485631Y-54953787D01*
X126556389Y-54883029D01*
X126611984Y-54799826D01*
X126650278Y-54707376D01*
X126669800Y-54609232D01*
X126669800Y-54509164D01*
X126650278Y-54411020D01*
X126611984Y-54318570D01*
X126556389Y-54235367D01*
X126485631Y-54164609D01*
X126402428Y-54109014D01*
X126309978Y-54070720D01*
X126211834Y-54051198D01*
X126111766Y-54051198D01*
X126013622Y-54070720D01*
X125921172Y-54109014D01*
X125837969Y-54164609D01*
X125767211Y-54235367D01*
X125711616Y-54318570D01*
X125673322Y-54411020D01*
X125653800Y-54509164D01*
X121427012Y-54509164D01*
X121429651Y-54487666D01*
X121476586Y-54344887D01*
X121550359Y-54213946D01*
X121648163Y-54099825D01*
X121766269Y-54006876D01*
X121900178Y-53938637D01*
X122047365Y-53896980D01*
X122169078Y-53884617D01*
X134176528Y-53884617D01*
X134192025Y-54022775D01*
%TA.AperFunction,Conductor*%
D13*
G36*
X134192025Y-54022775D02*
G01*
X134196816Y-54045314D01*
X134201283Y-54067876D01*
X134202331Y-54071264D01*
X134305602Y-54396817D01*
X134314699Y-54418042D01*
X134323445Y-54439261D01*
X134325129Y-54442376D01*
X134325131Y-54442381D01*
X134325134Y-54442385D01*
X134489669Y-54741674D01*
X134502695Y-54760699D01*
X134515416Y-54779845D01*
X134517670Y-54782570D01*
X134517675Y-54782577D01*
X134517681Y-54782582D01*
X134737214Y-55044212D01*
X134753692Y-55060349D01*
X134769883Y-55076654D01*
X134772631Y-55078896D01*
X135038806Y-55292906D01*
X135058084Y-55305522D01*
X135077156Y-55318386D01*
X135080282Y-55320048D01*
X135080286Y-55320051D01*
X135080290Y-55320053D01*
X135382961Y-55478285D01*
X135404329Y-55486918D01*
X135425529Y-55495830D01*
X135428923Y-55496855D01*
X135756568Y-55593286D01*
X135779252Y-55597613D01*
X135801734Y-55602228D01*
X135805263Y-55602575D01*
X136145397Y-55633529D01*
X136168489Y-55633368D01*
X136191438Y-55633528D01*
X136194967Y-55633183D01*
X136194971Y-55633183D01*
X136534636Y-55597483D01*
X136557262Y-55592838D01*
X136579801Y-55588539D01*
X136583196Y-55587515D01*
X136909462Y-55486519D01*
X136930736Y-55477576D01*
X136952029Y-55468973D01*
X136955156Y-55467311D01*
X136955161Y-55467309D01*
X136955165Y-55467306D01*
X137255597Y-55304864D01*
X137274701Y-55291978D01*
X137293946Y-55279384D01*
X137296694Y-55277143D01*
X137559855Y-55059437D01*
X137576097Y-55043082D01*
X137592525Y-55026994D01*
X137594780Y-55024268D01*
X137594786Y-55024262D01*
X137594790Y-55024255D01*
X137810648Y-54759587D01*
X137823394Y-54740403D01*
X137836394Y-54721417D01*
X137838080Y-54718298D01*
X137998424Y-54416736D01*
X138007205Y-54395433D01*
X138016266Y-54374292D01*
X138017315Y-54370904D01*
X138116031Y-54043941D01*
X138120508Y-54021333D01*
X138125289Y-53998839D01*
X138125660Y-53995313D01*
X138136514Y-53884617D01*
X142140672Y-53884617D01*
X142299151Y-53904068D01*
X142441928Y-53951002D01*
X142572874Y-54024779D01*
X142686990Y-54122578D01*
X142779941Y-54240686D01*
X142848181Y-54374598D01*
X142889838Y-54521783D01*
X142902200Y-54643486D01*
X142902201Y-71014604D01*
X142892209Y-71093617D01*
X142869877Y-71160720D01*
X142834940Y-71222201D01*
X142788723Y-71275729D01*
X142732991Y-71319260D01*
X142669864Y-71351137D01*
X142598723Y-71370990D01*
X142530532Y-71377917D01*
X142529067Y-71378212D01*
X142527580Y-71378235D01*
X142524060Y-71378659D01*
X142466190Y-71386041D01*
X142448752Y-71390025D01*
X142431122Y-71393052D01*
X142427709Y-71394014D01*
X142331975Y-71421724D01*
X142310548Y-71430270D01*
X142289090Y-71438482D01*
X142285929Y-71440088D01*
X142197402Y-71485865D01*
X142178018Y-71498426D01*
X142158589Y-71510634D01*
X142155807Y-71512818D01*
X142155800Y-71512823D01*
X142155794Y-71512829D01*
X142077850Y-71574925D01*
X142061314Y-71590974D01*
X142044588Y-71606759D01*
X142042278Y-71609449D01*
X141977875Y-71685507D01*
X141964775Y-71704456D01*
X141951430Y-71723195D01*
X141949686Y-71726283D01*
X141901282Y-71813402D01*
X141892103Y-71834556D01*
X141882660Y-71855512D01*
X141881549Y-71858879D01*
X141850989Y-71953741D01*
X141846098Y-71976253D01*
X141840901Y-71998663D01*
X141840465Y-72002182D01*
X141831544Y-72078624D01*
X141830876Y-72080825D01*
X141827200Y-72118149D01*
X141827201Y-75376617D01*
X135635200Y-75376617D01*
X135635200Y-72718148D01*
X135633929Y-72705243D01*
X135633929Y-72697454D01*
X135633559Y-72693927D01*
X135620506Y-72577557D01*
X135617829Y-72564956D01*
X137383397Y-72564956D01*
X137383397Y-72648762D01*
X137399746Y-72730958D01*
X137431818Y-72808385D01*
X137478378Y-72878068D01*
X137537638Y-72937328D01*
X137607321Y-72983888D01*
X137684748Y-73015960D01*
X137766944Y-73032309D01*
X137850750Y-73032309D01*
X137932946Y-73015960D01*
X138010373Y-72983888D01*
X138080056Y-72937328D01*
X138139316Y-72878068D01*
X138185876Y-72808385D01*
X138217948Y-72730958D01*
X138234297Y-72648762D01*
X138234297Y-72564956D01*
X138217948Y-72482760D01*
X138185876Y-72405333D01*
X138139316Y-72335650D01*
X138080056Y-72276390D01*
X138010373Y-72229830D01*
X137932946Y-72197758D01*
X137850750Y-72181409D01*
X137766944Y-72181409D01*
X137684748Y-72197758D01*
X137607321Y-72229830D01*
X137537638Y-72276390D01*
X137478378Y-72335650D01*
X137431818Y-72405333D01*
X137399746Y-72482760D01*
X137383397Y-72564956D01*
X135617829Y-72564956D01*
X135615712Y-72554999D01*
X135611248Y-72532455D01*
X135610202Y-72529075D01*
X135610200Y-72529068D01*
X135610197Y-72529062D01*
X135574791Y-72417449D01*
X135565714Y-72396271D01*
X135556949Y-72375006D01*
X135555263Y-72371886D01*
X135498850Y-72269272D01*
X135485824Y-72250248D01*
X135473104Y-72231102D01*
X135470844Y-72228370D01*
X135470843Y-72228368D01*
X135470839Y-72228364D01*
X135395574Y-72138666D01*
X135379112Y-72122545D01*
X135362903Y-72106222D01*
X135360161Y-72103986D01*
X135360156Y-72103981D01*
X135360151Y-72103977D01*
X135268895Y-72030606D01*
X135249613Y-72017988D01*
X135230545Y-72005127D01*
X135227419Y-72003465D01*
X135227415Y-72003462D01*
X135227411Y-72003460D01*
X135123640Y-71949211D01*
X135102269Y-71940576D01*
X135081073Y-71931666D01*
X135077684Y-71930643D01*
X135077677Y-71930640D01*
X135077670Y-71930639D01*
X134965344Y-71897579D01*
X134942668Y-71893253D01*
X134920179Y-71888637D01*
X134916650Y-71888290D01*
X134836792Y-71881022D01*
X134850677Y-71811213D01*
X134850677Y-71727407D01*
X134834328Y-71645211D01*
X134802256Y-71567784D01*
X134755696Y-71498101D01*
X134699214Y-71441619D01*
X134917374Y-71441619D01*
X134917374Y-71525425D01*
X134933723Y-71607621D01*
X134965795Y-71685048D01*
X135012355Y-71754731D01*
X135071615Y-71813991D01*
X135141298Y-71860551D01*
X135218725Y-71892623D01*
X135300921Y-71908972D01*
X135342834Y-71908972D01*
X135342834Y-71947462D01*
X135359183Y-72029658D01*
X135391255Y-72107085D01*
X135437815Y-72176768D01*
X135497075Y-72236028D01*
X135566758Y-72282588D01*
X135644185Y-72314660D01*
X135726381Y-72331009D01*
X135810187Y-72331009D01*
X135892383Y-72314660D01*
X135969810Y-72282588D01*
X136039493Y-72236028D01*
X136098753Y-72176768D01*
X136145313Y-72107085D01*
X136177385Y-72029658D01*
X136193734Y-71947462D01*
X136193734Y-71863656D01*
X136177385Y-71781460D01*
X136145313Y-71704033D01*
X136098753Y-71634350D01*
X136039493Y-71575090D01*
X135969810Y-71528530D01*
X135892383Y-71496458D01*
X135810187Y-71480109D01*
X135768274Y-71480109D01*
X135768274Y-71453371D01*
X136493644Y-71453371D01*
X136493644Y-71537177D01*
X136509993Y-71619373D01*
X136542065Y-71696800D01*
X136588625Y-71766483D01*
X136647885Y-71825743D01*
X136717568Y-71872303D01*
X136749221Y-71885414D01*
X136732856Y-71924922D01*
X136716507Y-72007118D01*
X136716507Y-72090924D01*
X136732856Y-72173120D01*
X136764928Y-72250547D01*
X136811488Y-72320230D01*
X136870748Y-72379490D01*
X136940431Y-72426050D01*
X137017858Y-72458122D01*
X137100054Y-72474471D01*
X137183860Y-72474471D01*
X137266056Y-72458122D01*
X137343483Y-72426050D01*
X137413166Y-72379490D01*
X137472426Y-72320230D01*
X137518986Y-72250547D01*
X137551058Y-72173120D01*
X137567407Y-72090924D01*
X137567407Y-72007118D01*
X137551058Y-71924922D01*
X137518986Y-71847495D01*
X137472426Y-71777812D01*
X137413166Y-71718552D01*
X137343483Y-71671992D01*
X137311830Y-71658881D01*
X137328195Y-71619373D01*
X137344544Y-71537177D01*
X137344544Y-71453371D01*
X137328195Y-71371175D01*
X137296123Y-71293748D01*
X137249563Y-71224065D01*
X137190303Y-71164805D01*
X137120620Y-71118245D01*
X137043193Y-71086173D01*
X136960997Y-71069824D01*
X136877191Y-71069824D01*
X136794995Y-71086173D01*
X136717568Y-71118245D01*
X136647885Y-71164805D01*
X136588625Y-71224065D01*
X136542065Y-71293748D01*
X136509993Y-71371175D01*
X136493644Y-71453371D01*
X135768274Y-71453371D01*
X135768274Y-71441619D01*
X135751925Y-71359423D01*
X135719853Y-71281996D01*
X135673293Y-71212313D01*
X135614033Y-71153053D01*
X135544350Y-71106493D01*
X135466923Y-71074421D01*
X135384727Y-71058072D01*
X135300921Y-71058072D01*
X135218725Y-71074421D01*
X135141298Y-71106493D01*
X135071615Y-71153053D01*
X135012355Y-71212313D01*
X134965795Y-71281996D01*
X134933723Y-71359423D01*
X134917374Y-71441619D01*
X134699214Y-71441619D01*
X134696436Y-71438841D01*
X134626753Y-71392281D01*
X134549326Y-71360209D01*
X134490907Y-71348589D01*
X134502041Y-71321710D01*
X134518390Y-71239514D01*
X134518390Y-71155708D01*
X134502041Y-71073512D01*
X134469969Y-70996085D01*
X134423409Y-70926402D01*
X134364149Y-70867142D01*
X134294466Y-70820582D01*
X134217039Y-70788510D01*
X134134843Y-70772161D01*
X134051037Y-70772161D01*
X133968841Y-70788510D01*
X133891414Y-70820582D01*
X133821731Y-70867142D01*
X133762471Y-70926402D01*
X133715911Y-70996085D01*
X133683839Y-71073512D01*
X133667490Y-71155708D01*
X133667490Y-71239514D01*
X133683839Y-71321710D01*
X133715911Y-71399137D01*
X133762471Y-71468820D01*
X133821731Y-71528080D01*
X133891414Y-71574640D01*
X133968841Y-71606712D01*
X134027260Y-71618332D01*
X134016126Y-71645211D01*
X133999777Y-71727407D01*
X133999777Y-71811213D01*
X134016126Y-71893409D01*
X134048198Y-71970836D01*
X134094758Y-72040519D01*
X134154018Y-72099779D01*
X134185154Y-72120583D01*
X134177294Y-72128497D01*
X134160883Y-72144568D01*
X134158622Y-72147300D01*
X134084611Y-72238046D01*
X134071847Y-72257257D01*
X134058865Y-72276217D01*
X134057178Y-72279336D01*
X134002203Y-72382729D01*
X133993403Y-72404079D01*
X133984362Y-72425174D01*
X133983316Y-72428551D01*
X133983312Y-72428561D01*
X133983310Y-72428571D01*
X133949468Y-72540662D01*
X133944996Y-72563249D01*
X133940210Y-72585763D01*
X133939839Y-72589290D01*
X133928412Y-72705831D01*
X133928412Y-72705843D01*
X133927200Y-72718149D01*
X133927201Y-75376617D01*
X122485200Y-75376617D01*
X122485200Y-72136766D01*
X122961390Y-72136766D01*
X122961390Y-72236834D01*
X122980912Y-72334978D01*
X123019206Y-72427428D01*
X123074801Y-72510631D01*
X123145559Y-72581389D01*
X123228762Y-72636984D01*
X123321212Y-72675278D01*
X123419356Y-72694800D01*
X123519424Y-72694800D01*
X123617568Y-72675278D01*
X123710018Y-72636984D01*
X123793221Y-72581389D01*
X123863979Y-72510631D01*
X123919574Y-72427428D01*
X123957868Y-72334978D01*
X123975467Y-72246497D01*
X124517229Y-72246497D01*
X124517229Y-72330303D01*
X124533578Y-72412499D01*
X124565650Y-72489926D01*
X124612210Y-72559609D01*
X124671470Y-72618869D01*
X124741153Y-72665429D01*
X124818580Y-72697501D01*
X124900776Y-72713850D01*
X124984582Y-72713850D01*
X125066778Y-72697501D01*
X125144205Y-72665429D01*
X125213888Y-72618869D01*
X125273148Y-72559609D01*
X125319708Y-72489926D01*
X125336602Y-72449141D01*
X125659121Y-72449141D01*
X125659121Y-72532947D01*
X125675470Y-72615143D01*
X125707542Y-72692570D01*
X125754102Y-72762253D01*
X125813362Y-72821513D01*
X125883045Y-72868073D01*
X125960472Y-72900145D01*
X126042668Y-72916494D01*
X126126474Y-72916494D01*
X126208670Y-72900145D01*
X126286097Y-72868073D01*
X126355780Y-72821513D01*
X126415040Y-72762253D01*
X126461600Y-72692570D01*
X126472414Y-72666463D01*
X126492836Y-72666463D01*
X126492836Y-72750269D01*
X126509185Y-72832465D01*
X126541257Y-72909892D01*
X126587817Y-72979575D01*
X126647077Y-73038835D01*
X126716760Y-73085395D01*
X126794187Y-73117467D01*
X126876383Y-73133816D01*
X126960189Y-73133816D01*
X127042385Y-73117467D01*
X127119812Y-73085395D01*
X127189495Y-73038835D01*
X127248755Y-72979575D01*
X127295315Y-72909892D01*
X127327387Y-72832465D01*
X127343736Y-72750269D01*
X127343736Y-72709592D01*
X127381203Y-72709592D01*
X127460577Y-72693804D01*
X127460577Y-72747741D01*
X127476926Y-72829937D01*
X127508998Y-72907364D01*
X127555558Y-72977047D01*
X127614818Y-73036307D01*
X127684501Y-73082867D01*
X127761928Y-73114939D01*
X127844124Y-73131288D01*
X127927930Y-73131288D01*
X128010126Y-73114939D01*
X128087553Y-73082867D01*
X128157236Y-73036307D01*
X128216496Y-72977047D01*
X128263056Y-72907364D01*
X128295128Y-72829937D01*
X128311477Y-72747741D01*
X128311477Y-72721841D01*
X128362277Y-72721841D01*
X128373590Y-72719591D01*
X128373590Y-72744953D01*
X128389939Y-72827149D01*
X128422011Y-72904576D01*
X128468571Y-72974259D01*
X128527831Y-73033519D01*
X128597514Y-73080079D01*
X128674941Y-73112151D01*
X128757137Y-73128500D01*
X128840943Y-73128500D01*
X128923139Y-73112151D01*
X129000566Y-73080079D01*
X129070249Y-73033519D01*
X129129509Y-72974259D01*
X129176069Y-72904576D01*
X129208141Y-72827149D01*
X129222054Y-72757199D01*
X129224972Y-72757779D01*
X129308778Y-72757779D01*
X129390974Y-72741430D01*
X129468401Y-72709358D01*
X129538084Y-72662798D01*
X129597344Y-72603538D01*
X129643904Y-72533855D01*
X129675976Y-72456428D01*
X129692325Y-72374232D01*
X129692325Y-72297291D01*
X129692337Y-72297291D01*
X129692337Y-72381097D01*
X129708686Y-72463293D01*
X129740758Y-72540720D01*
X129787318Y-72610403D01*
X129846578Y-72669663D01*
X129916261Y-72716223D01*
X129993688Y-72748295D01*
X130075884Y-72764644D01*
X130159690Y-72764644D01*
X130241886Y-72748295D01*
X130319313Y-72716223D01*
X130388996Y-72669663D01*
X130448256Y-72610403D01*
X130494816Y-72540720D01*
X130526888Y-72463293D01*
X130543237Y-72381097D01*
X130543237Y-72369135D01*
X131051271Y-72369135D01*
X131051271Y-72452941D01*
X131067620Y-72535137D01*
X131099692Y-72612564D01*
X131146252Y-72682247D01*
X131205512Y-72741507D01*
X131275195Y-72788067D01*
X131352622Y-72820139D01*
X131434818Y-72836488D01*
X131518624Y-72836488D01*
X131600820Y-72820139D01*
X131678247Y-72788067D01*
X131747930Y-72741507D01*
X131807190Y-72682247D01*
X131853750Y-72612564D01*
X131885822Y-72535137D01*
X131902171Y-72452941D01*
X131902171Y-72369135D01*
X131885822Y-72286939D01*
X131853750Y-72209512D01*
X131807190Y-72139829D01*
X131747930Y-72080569D01*
X131678247Y-72034009D01*
X131600820Y-72001937D01*
X131518624Y-71985588D01*
X131434818Y-71985588D01*
X131352622Y-72001937D01*
X131275195Y-72034009D01*
X131205512Y-72080569D01*
X131146252Y-72139829D01*
X131099692Y-72209512D01*
X131067620Y-72286939D01*
X131051271Y-72369135D01*
X130543237Y-72369135D01*
X130543237Y-72297291D01*
X130526888Y-72215095D01*
X130494816Y-72137668D01*
X130448256Y-72067985D01*
X130388996Y-72008725D01*
X130319313Y-71962165D01*
X130241886Y-71930093D01*
X130159690Y-71913744D01*
X130075884Y-71913744D01*
X129993688Y-71930093D01*
X129916261Y-71962165D01*
X129846578Y-72008725D01*
X129787318Y-72067985D01*
X129740758Y-72137668D01*
X129708686Y-72215095D01*
X129692337Y-72297291D01*
X129692325Y-72297291D01*
X129692325Y-72290426D01*
X129675976Y-72208230D01*
X129643904Y-72130803D01*
X129597344Y-72061120D01*
X129538084Y-72001860D01*
X129468401Y-71955300D01*
X129390974Y-71923228D01*
X129308778Y-71906879D01*
X129224972Y-71906879D01*
X129142776Y-71923228D01*
X129065349Y-71955300D01*
X128995666Y-72001860D01*
X128936406Y-72061120D01*
X128889846Y-72130803D01*
X128857774Y-72208230D01*
X128843861Y-72278180D01*
X128840943Y-72277600D01*
X128757137Y-72277600D01*
X128745824Y-72279850D01*
X128745824Y-72254488D01*
X128729475Y-72172292D01*
X128697403Y-72094865D01*
X128650843Y-72025182D01*
X128591583Y-71965922D01*
X128521900Y-71919362D01*
X128444473Y-71887290D01*
X128362277Y-71870941D01*
X128278471Y-71870941D01*
X128196275Y-71887290D01*
X128118848Y-71919362D01*
X128049165Y-71965922D01*
X127989905Y-72025182D01*
X127943345Y-72094865D01*
X127911273Y-72172292D01*
X127894924Y-72254488D01*
X127894924Y-72280388D01*
X127844124Y-72280388D01*
X127764750Y-72296176D01*
X127764750Y-72242239D01*
X127748401Y-72160043D01*
X127716329Y-72082616D01*
X127669769Y-72012933D01*
X127610509Y-71953673D01*
X127540826Y-71907113D01*
X127463399Y-71875041D01*
X127381203Y-71858692D01*
X127297397Y-71858692D01*
X127215201Y-71875041D01*
X127137774Y-71907113D01*
X127068091Y-71953673D01*
X127008831Y-72012933D01*
X126962271Y-72082616D01*
X126930199Y-72160043D01*
X126913850Y-72242239D01*
X126913850Y-72282916D01*
X126876383Y-72282916D01*
X126794187Y-72299265D01*
X126716760Y-72331337D01*
X126647077Y-72377897D01*
X126587817Y-72437157D01*
X126541257Y-72506840D01*
X126509185Y-72584267D01*
X126492836Y-72666463D01*
X126472414Y-72666463D01*
X126493672Y-72615143D01*
X126510021Y-72532947D01*
X126510021Y-72449141D01*
X126493672Y-72366945D01*
X126461600Y-72289518D01*
X126415040Y-72219835D01*
X126355780Y-72160575D01*
X126286097Y-72114015D01*
X126208670Y-72081943D01*
X126126474Y-72065594D01*
X126042668Y-72065594D01*
X125960472Y-72081943D01*
X125883045Y-72114015D01*
X125813362Y-72160575D01*
X125754102Y-72219835D01*
X125707542Y-72289518D01*
X125675470Y-72366945D01*
X125659121Y-72449141D01*
X125336602Y-72449141D01*
X125351780Y-72412499D01*
X125368129Y-72330303D01*
X125368129Y-72246497D01*
X125351780Y-72164301D01*
X125319708Y-72086874D01*
X125273148Y-72017191D01*
X125213888Y-71957931D01*
X125144205Y-71911371D01*
X125066778Y-71879299D01*
X124984582Y-71862950D01*
X124900776Y-71862950D01*
X124818580Y-71879299D01*
X124741153Y-71911371D01*
X124671470Y-71957931D01*
X124612210Y-72017191D01*
X124565650Y-72086874D01*
X124533578Y-72164301D01*
X124517229Y-72246497D01*
X123975467Y-72246497D01*
X123977390Y-72236834D01*
X123977390Y-72136766D01*
X123957868Y-72038622D01*
X123919574Y-71946172D01*
X123863979Y-71862969D01*
X123793221Y-71792211D01*
X123710018Y-71736616D01*
X123617568Y-71698322D01*
X123519424Y-71678800D01*
X123419356Y-71678800D01*
X123321212Y-71698322D01*
X123228762Y-71736616D01*
X123145559Y-71792211D01*
X123074801Y-71862969D01*
X123019206Y-71946172D01*
X122980912Y-72038622D01*
X122961390Y-72136766D01*
X122485200Y-72136766D01*
X122485200Y-72118148D01*
X122484262Y-72108629D01*
X122480788Y-72062755D01*
X122477915Y-72046348D01*
X122476107Y-72029816D01*
X122475356Y-72026351D01*
X122453307Y-71928042D01*
X122446094Y-71906158D01*
X122439200Y-71884214D01*
X122437790Y-71880961D01*
X122397064Y-71788805D01*
X122385733Y-71768728D01*
X122374714Y-71748553D01*
X122372704Y-71745645D01*
X122372698Y-71745634D01*
X122372690Y-71745625D01*
X122314851Y-71663147D01*
X122299826Y-71645643D01*
X122285107Y-71628002D01*
X122282563Y-71625531D01*
X122209794Y-71555849D01*
X122191653Y-71541594D01*
X122173790Y-71527151D01*
X122170815Y-71525221D01*
X122085897Y-71471000D01*
X122065349Y-71460549D01*
X122045007Y-71449842D01*
X122041723Y-71448532D01*
X122041712Y-71448526D01*
X122041701Y-71448523D01*
X121947882Y-71411833D01*
X121925704Y-71405574D01*
X121903657Y-71399019D01*
X121900177Y-71398370D01*
X121900173Y-71398369D01*
X121900169Y-71398369D01*
X121800999Y-71380599D01*
X121796224Y-71380218D01*
X121791580Y-71379094D01*
X121788066Y-71378624D01*
X121693199Y-71366627D01*
X121626098Y-71344295D01*
X121564614Y-71309356D01*
X121511088Y-71263142D01*
X121467557Y-71207408D01*
X121435680Y-71144281D01*
X121415827Y-71073140D01*
X121410200Y-71017747D01*
X121410200Y-70041266D01*
X124040900Y-70041266D01*
X124040900Y-70141334D01*
X124060422Y-70239478D01*
X124098716Y-70331928D01*
X124154311Y-70415131D01*
X124225069Y-70485889D01*
X124308272Y-70541484D01*
X124400722Y-70579778D01*
X124498866Y-70599300D01*
X124598934Y-70599300D01*
X124697078Y-70579778D01*
X124789528Y-70541484D01*
X124872731Y-70485889D01*
X124943489Y-70415131D01*
X124999084Y-70331928D01*
X125037378Y-70239478D01*
X125056900Y-70141334D01*
X125056900Y-70041266D01*
X125050827Y-70010731D01*
X126580977Y-70010731D01*
X126580977Y-70110799D01*
X126600499Y-70208943D01*
X126638793Y-70301393D01*
X126694388Y-70384596D01*
X126765146Y-70455354D01*
X126814939Y-70488625D01*
X126765352Y-70538212D01*
X126718792Y-70607895D01*
X126686720Y-70685322D01*
X126670371Y-70767518D01*
X126670371Y-70851324D01*
X126686720Y-70933520D01*
X126718792Y-71010947D01*
X126765352Y-71080630D01*
X126824612Y-71139890D01*
X126894295Y-71186450D01*
X126971722Y-71218522D01*
X127053918Y-71234871D01*
X127137724Y-71234871D01*
X127219920Y-71218522D01*
X127297347Y-71186450D01*
X127367030Y-71139890D01*
X127426290Y-71080630D01*
X127472850Y-71010947D01*
X127504922Y-70933520D01*
X127521271Y-70851324D01*
X127521271Y-70767518D01*
X127504922Y-70685322D01*
X127472850Y-70607895D01*
X127426290Y-70538212D01*
X127371220Y-70483142D01*
X127412808Y-70455354D01*
X127483566Y-70384596D01*
X127539161Y-70301393D01*
X127577455Y-70208943D01*
X127596977Y-70110799D01*
X127596977Y-70092088D01*
X128485894Y-70092088D01*
X128485894Y-70192156D01*
X128505416Y-70290300D01*
X128543710Y-70382750D01*
X128599305Y-70465953D01*
X128670063Y-70536711D01*
X128753266Y-70592306D01*
X128845716Y-70630600D01*
X128943860Y-70650122D01*
X129043928Y-70650122D01*
X129142072Y-70630600D01*
X129234522Y-70592306D01*
X129317725Y-70536711D01*
X129388483Y-70465953D01*
X129444078Y-70382750D01*
X129448159Y-70372897D01*
X131218476Y-70372897D01*
X131218476Y-70456703D01*
X131234825Y-70538899D01*
X131266897Y-70616326D01*
X131313457Y-70686009D01*
X131372717Y-70745269D01*
X131442400Y-70791829D01*
X131519827Y-70823901D01*
X131602023Y-70840250D01*
X131685829Y-70840250D01*
X131733379Y-70830792D01*
X131738908Y-70858592D01*
X131770980Y-70936019D01*
X131817540Y-71005702D01*
X131876800Y-71064962D01*
X131946483Y-71111522D01*
X132023910Y-71143594D01*
X132106106Y-71159943D01*
X132189912Y-71159943D01*
X132272108Y-71143594D01*
X132349535Y-71111522D01*
X132419218Y-71064962D01*
X132478478Y-71005702D01*
X132525038Y-70936019D01*
X132557110Y-70858592D01*
X132573459Y-70776396D01*
X132573459Y-70692590D01*
X132557110Y-70610394D01*
X132525038Y-70532967D01*
X132478478Y-70463284D01*
X132419218Y-70404024D01*
X132349535Y-70357464D01*
X132319091Y-70344853D01*
X135411194Y-70344853D01*
X135411194Y-70428659D01*
X135427543Y-70510855D01*
X135459615Y-70588282D01*
X135506175Y-70657965D01*
X135565435Y-70717225D01*
X135635118Y-70763785D01*
X135712545Y-70795857D01*
X135794741Y-70812206D01*
X135878547Y-70812206D01*
X135960743Y-70795857D01*
X136038170Y-70763785D01*
X136107853Y-70717225D01*
X136167113Y-70657965D01*
X136208854Y-70595493D01*
X139052321Y-70595493D01*
X139052321Y-70679299D01*
X139068670Y-70761495D01*
X139100742Y-70838922D01*
X139147302Y-70908605D01*
X139206562Y-70967865D01*
X139276245Y-71014425D01*
X139353672Y-71046497D01*
X139435868Y-71062846D01*
X139519674Y-71062846D01*
X139601870Y-71046497D01*
X139679297Y-71014425D01*
X139748980Y-70967865D01*
X139808240Y-70908605D01*
X139854800Y-70838922D01*
X139886872Y-70761495D01*
X139903221Y-70679299D01*
X139903221Y-70595493D01*
X139886872Y-70513297D01*
X139854800Y-70435870D01*
X139808240Y-70366187D01*
X139748980Y-70306927D01*
X139679297Y-70260367D01*
X139601870Y-70228295D01*
X139519674Y-70211946D01*
X139435868Y-70211946D01*
X139353672Y-70228295D01*
X139276245Y-70260367D01*
X139206562Y-70306927D01*
X139147302Y-70366187D01*
X139100742Y-70435870D01*
X139068670Y-70513297D01*
X139052321Y-70595493D01*
X136208854Y-70595493D01*
X136213673Y-70588282D01*
X136245745Y-70510855D01*
X136262094Y-70428659D01*
X136262094Y-70344853D01*
X136245745Y-70262657D01*
X136213673Y-70185230D01*
X136170561Y-70120706D01*
X137823002Y-70120706D01*
X137823002Y-70204512D01*
X137839351Y-70286708D01*
X137871423Y-70364135D01*
X137917983Y-70433818D01*
X137977243Y-70493078D01*
X138046926Y-70539638D01*
X138124353Y-70571710D01*
X138206549Y-70588059D01*
X138290355Y-70588059D01*
X138372551Y-70571710D01*
X138449978Y-70539638D01*
X138519661Y-70493078D01*
X138578921Y-70433818D01*
X138625481Y-70364135D01*
X138657553Y-70286708D01*
X138673533Y-70206366D01*
X141020800Y-70206366D01*
X141020800Y-70306434D01*
X141040322Y-70404578D01*
X141078616Y-70497028D01*
X141134211Y-70580231D01*
X141204969Y-70650989D01*
X141288172Y-70706584D01*
X141380622Y-70744878D01*
X141478766Y-70764400D01*
X141578834Y-70764400D01*
X141676978Y-70744878D01*
X141769428Y-70706584D01*
X141852631Y-70650989D01*
X141923389Y-70580231D01*
X141978984Y-70497028D01*
X142017278Y-70404578D01*
X142036800Y-70306434D01*
X142036800Y-70206366D01*
X142017278Y-70108222D01*
X141978984Y-70015772D01*
X141923389Y-69932569D01*
X141852631Y-69861811D01*
X141769428Y-69806216D01*
X141714520Y-69783472D01*
X141803978Y-69765678D01*
X141896428Y-69727384D01*
X141979631Y-69671789D01*
X142050389Y-69601031D01*
X142105984Y-69517828D01*
X142144278Y-69425378D01*
X142163800Y-69327234D01*
X142163800Y-69227166D01*
X142144278Y-69129022D01*
X142105984Y-69036572D01*
X142050389Y-68953369D01*
X141979631Y-68882611D01*
X141896428Y-68827016D01*
X141803978Y-68788722D01*
X141705834Y-68769200D01*
X141605766Y-68769200D01*
X141507622Y-68788722D01*
X141415172Y-68827016D01*
X141331969Y-68882611D01*
X141261211Y-68953369D01*
X141205616Y-69036572D01*
X141167322Y-69129022D01*
X141147800Y-69227166D01*
X141147800Y-69327234D01*
X141167322Y-69425378D01*
X141205616Y-69517828D01*
X141261211Y-69601031D01*
X141331969Y-69671789D01*
X141415172Y-69727384D01*
X141470080Y-69750128D01*
X141380622Y-69767922D01*
X141288172Y-69806216D01*
X141204969Y-69861811D01*
X141134211Y-69932569D01*
X141078616Y-70015772D01*
X141040322Y-70108222D01*
X141020800Y-70206366D01*
X138673533Y-70206366D01*
X138673902Y-70204512D01*
X138673902Y-70120706D01*
X138657553Y-70038510D01*
X138625481Y-69961083D01*
X138578921Y-69891400D01*
X138519661Y-69832140D01*
X138449978Y-69785580D01*
X138372551Y-69753508D01*
X138290355Y-69737159D01*
X138206549Y-69737159D01*
X138124353Y-69753508D01*
X138046926Y-69785580D01*
X137977243Y-69832140D01*
X137917983Y-69891400D01*
X137871423Y-69961083D01*
X137839351Y-70038510D01*
X137823002Y-70120706D01*
X136170561Y-70120706D01*
X136167113Y-70115547D01*
X136107853Y-70056287D01*
X136038170Y-70009727D01*
X135960743Y-69977655D01*
X135878547Y-69961306D01*
X135794741Y-69961306D01*
X135712545Y-69977655D01*
X135635118Y-70009727D01*
X135565435Y-70056287D01*
X135506175Y-70115547D01*
X135459615Y-70185230D01*
X135427543Y-70262657D01*
X135411194Y-70344853D01*
X132319091Y-70344853D01*
X132272108Y-70325392D01*
X132189912Y-70309043D01*
X132106106Y-70309043D01*
X132058556Y-70318501D01*
X132053027Y-70290701D01*
X132020955Y-70213274D01*
X131974395Y-70143591D01*
X131915135Y-70084331D01*
X131845452Y-70037771D01*
X131768025Y-70005699D01*
X131685829Y-69989350D01*
X131602023Y-69989350D01*
X131519827Y-70005699D01*
X131442400Y-70037771D01*
X131372717Y-70084331D01*
X131313457Y-70143591D01*
X131266897Y-70213274D01*
X131234825Y-70290701D01*
X131218476Y-70372897D01*
X129448159Y-70372897D01*
X129482372Y-70290300D01*
X129501894Y-70192156D01*
X129501894Y-70092088D01*
X129482372Y-69993944D01*
X129444078Y-69901494D01*
X129388483Y-69818291D01*
X129317725Y-69747533D01*
X129234522Y-69691938D01*
X129142072Y-69653644D01*
X129043928Y-69634122D01*
X128943860Y-69634122D01*
X128845716Y-69653644D01*
X128753266Y-69691938D01*
X128670063Y-69747533D01*
X128599305Y-69818291D01*
X128543710Y-69901494D01*
X128505416Y-69993944D01*
X128485894Y-70092088D01*
X127596977Y-70092088D01*
X127596977Y-70010731D01*
X127577455Y-69912587D01*
X127539161Y-69820137D01*
X127483566Y-69736934D01*
X127412808Y-69666176D01*
X127329605Y-69610581D01*
X127237155Y-69572287D01*
X127139011Y-69552765D01*
X127038943Y-69552765D01*
X126940799Y-69572287D01*
X126848349Y-69610581D01*
X126765146Y-69666176D01*
X126694388Y-69736934D01*
X126638793Y-69820137D01*
X126600499Y-69912587D01*
X126580977Y-70010731D01*
X125050827Y-70010731D01*
X125037378Y-69943122D01*
X124999084Y-69850672D01*
X124943489Y-69767469D01*
X124872731Y-69696711D01*
X124789528Y-69641116D01*
X124697078Y-69602822D01*
X124598934Y-69583300D01*
X124498866Y-69583300D01*
X124400722Y-69602822D01*
X124308272Y-69641116D01*
X124225069Y-69696711D01*
X124154311Y-69767469D01*
X124098716Y-69850672D01*
X124060422Y-69943122D01*
X124040900Y-70041266D01*
X121410200Y-70041266D01*
X121410200Y-67820515D01*
X127393660Y-67820515D01*
X127393660Y-67904321D01*
X127410009Y-67986517D01*
X127442081Y-68063944D01*
X127488641Y-68133627D01*
X127547901Y-68192887D01*
X127617584Y-68239447D01*
X127695011Y-68271519D01*
X127777207Y-68287868D01*
X127861013Y-68287868D01*
X127943209Y-68271519D01*
X128020636Y-68239447D01*
X128090319Y-68192887D01*
X128136614Y-68146592D01*
X128176591Y-68186569D01*
X128246274Y-68233129D01*
X128323701Y-68265201D01*
X128405897Y-68281550D01*
X128489703Y-68281550D01*
X128571899Y-68265201D01*
X128649326Y-68233129D01*
X128719009Y-68186569D01*
X128778269Y-68127309D01*
X128824829Y-68057626D01*
X128856901Y-67980199D01*
X128873250Y-67898003D01*
X128873250Y-67814197D01*
X128869212Y-67793898D01*
X128893214Y-67769896D01*
X134726307Y-67769896D01*
X134715878Y-67774216D01*
X134632675Y-67829811D01*
X134561917Y-67900569D01*
X134506322Y-67983772D01*
X134468028Y-68076222D01*
X134448506Y-68174366D01*
X134448506Y-68274434D01*
X134468028Y-68372578D01*
X134506322Y-68465028D01*
X134561917Y-68548231D01*
X134632675Y-68618989D01*
X134715878Y-68674584D01*
X134808328Y-68712878D01*
X134906472Y-68732400D01*
X135006540Y-68732400D01*
X135104684Y-68712878D01*
X135197134Y-68674584D01*
X135280337Y-68618989D01*
X135351095Y-68548231D01*
X135406690Y-68465028D01*
X135444984Y-68372578D01*
X135464506Y-68274434D01*
X135464506Y-68174366D01*
X135444984Y-68076222D01*
X135406690Y-67983772D01*
X135351095Y-67900569D01*
X135280337Y-67829811D01*
X135197134Y-67774216D01*
X135186705Y-67769896D01*
X137656232Y-67769896D01*
X137667731Y-67787105D01*
X137726991Y-67846365D01*
X137796674Y-67892925D01*
X137874101Y-67924997D01*
X137956297Y-67941346D01*
X138040103Y-67941346D01*
X138122299Y-67924997D01*
X138199726Y-67892925D01*
X138269409Y-67846365D01*
X138328669Y-67787105D01*
X138375229Y-67717422D01*
X138407301Y-67639995D01*
X138423650Y-67557799D01*
X138423650Y-67473993D01*
X138407301Y-67391797D01*
X138383940Y-67335400D01*
X138666424Y-67335400D01*
X138795988Y-67464964D01*
X138791950Y-67485263D01*
X138791950Y-67569069D01*
X138808299Y-67651265D01*
X138840371Y-67728692D01*
X138886931Y-67798375D01*
X138946191Y-67857635D01*
X139015874Y-67904195D01*
X139093301Y-67936267D01*
X139175497Y-67952616D01*
X139259303Y-67952616D01*
X139341499Y-67936267D01*
X139418926Y-67904195D01*
X139488609Y-67857635D01*
X139547869Y-67798375D01*
X139594429Y-67728692D01*
X139626501Y-67651265D01*
X139642850Y-67569069D01*
X139642850Y-67485297D01*
X139839690Y-67485297D01*
X139839690Y-67569103D01*
X139856039Y-67651299D01*
X139888111Y-67728726D01*
X139934671Y-67798409D01*
X139993931Y-67857669D01*
X140063614Y-67904229D01*
X140141041Y-67936301D01*
X140223237Y-67952650D01*
X140307043Y-67952650D01*
X140389239Y-67936301D01*
X140466666Y-67904229D01*
X140536349Y-67857669D01*
X140595609Y-67798409D01*
X140642169Y-67728726D01*
X140674241Y-67651299D01*
X140690590Y-67569103D01*
X140690590Y-67485297D01*
X140674241Y-67403101D01*
X140642169Y-67325674D01*
X140595609Y-67255991D01*
X140536349Y-67196731D01*
X140466666Y-67150171D01*
X140389239Y-67118099D01*
X140307043Y-67101750D01*
X140223237Y-67101750D01*
X140141041Y-67118099D01*
X140063614Y-67150171D01*
X139993931Y-67196731D01*
X139934671Y-67255991D01*
X139888111Y-67325674D01*
X139856039Y-67403101D01*
X139839690Y-67485297D01*
X139642850Y-67485297D01*
X139642850Y-67485263D01*
X139626501Y-67403067D01*
X139594429Y-67325640D01*
X139547869Y-67255957D01*
X139488609Y-67196697D01*
X139418926Y-67150137D01*
X139341499Y-67118065D01*
X139259303Y-67101716D01*
X139175497Y-67101716D01*
X139155198Y-67105754D01*
X138960053Y-66910609D01*
X138952107Y-66900927D01*
X138942425Y-66892981D01*
X138942422Y-66892978D01*
X138924737Y-66878465D01*
X138913431Y-66869186D01*
X138869306Y-66845600D01*
X138821427Y-66831076D01*
X138784103Y-66827400D01*
X138784092Y-66827400D01*
X138771634Y-66826173D01*
X138759176Y-66827400D01*
X130107040Y-66827400D01*
X130138579Y-66795861D01*
X130185139Y-66726178D01*
X130217211Y-66648751D01*
X130233560Y-66566555D01*
X130233560Y-66506093D01*
X141281150Y-66506093D01*
X141281150Y-66589899D01*
X141297499Y-66672095D01*
X141329571Y-66749522D01*
X141376131Y-66819205D01*
X141435391Y-66878465D01*
X141505074Y-66925025D01*
X141582501Y-66957097D01*
X141664697Y-66973446D01*
X141748503Y-66973446D01*
X141830699Y-66957097D01*
X141908126Y-66925025D01*
X141977809Y-66878465D01*
X142037069Y-66819205D01*
X142083629Y-66749522D01*
X142115701Y-66672095D01*
X142132050Y-66589899D01*
X142132050Y-66506093D01*
X142115701Y-66423897D01*
X142083629Y-66346470D01*
X142037069Y-66276787D01*
X141977809Y-66217527D01*
X141908126Y-66170967D01*
X141830699Y-66138895D01*
X141748503Y-66122546D01*
X141664697Y-66122546D01*
X141582501Y-66138895D01*
X141505074Y-66170967D01*
X141435391Y-66217527D01*
X141376131Y-66276787D01*
X141329571Y-66346470D01*
X141297499Y-66423897D01*
X141281150Y-66506093D01*
X130233560Y-66506093D01*
X130233560Y-66482749D01*
X130217211Y-66400553D01*
X130185139Y-66323126D01*
X130138579Y-66253443D01*
X130079319Y-66194183D01*
X130009636Y-66147623D01*
X129932209Y-66115551D01*
X129850013Y-66099202D01*
X129766207Y-66099202D01*
X129684011Y-66115551D01*
X129606584Y-66147623D01*
X129536901Y-66194183D01*
X129477641Y-66253443D01*
X129431081Y-66323126D01*
X129399009Y-66400553D01*
X129382660Y-66482749D01*
X129382660Y-66566555D01*
X129399009Y-66648751D01*
X129431081Y-66726178D01*
X129477641Y-66795861D01*
X129509180Y-66827400D01*
X128612585Y-66827400D01*
X128600127Y-66826173D01*
X128587669Y-66827400D01*
X128587659Y-66827400D01*
X128550335Y-66831076D01*
X128502456Y-66845600D01*
X128458330Y-66869186D01*
X128429339Y-66892979D01*
X128429337Y-66892981D01*
X128419655Y-66900927D01*
X128411709Y-66910609D01*
X127881312Y-67441006D01*
X127861013Y-67436968D01*
X127777207Y-67436968D01*
X127695011Y-67453317D01*
X127617584Y-67485389D01*
X127547901Y-67531949D01*
X127488641Y-67591209D01*
X127442081Y-67660892D01*
X127410009Y-67738319D01*
X127393660Y-67820515D01*
X121410200Y-67820515D01*
X121410200Y-65894455D01*
X124879134Y-65894455D01*
X124879134Y-65978261D01*
X124895483Y-66060457D01*
X124927555Y-66137884D01*
X124974115Y-66207567D01*
X125033375Y-66266827D01*
X125103058Y-66313387D01*
X125180485Y-66345459D01*
X125262681Y-66361808D01*
X125346487Y-66361808D01*
X125428683Y-66345459D01*
X125506110Y-66313387D01*
X125575793Y-66266827D01*
X125635053Y-66207567D01*
X125681613Y-66137884D01*
X125713685Y-66060457D01*
X125730034Y-65978261D01*
X125730034Y-65894455D01*
X125713685Y-65812259D01*
X125681613Y-65734832D01*
X125635053Y-65665149D01*
X125575793Y-65605889D01*
X125506110Y-65559329D01*
X125430953Y-65528197D01*
X127254112Y-65528197D01*
X127254112Y-65612003D01*
X127270461Y-65694199D01*
X127302533Y-65771626D01*
X127349093Y-65841309D01*
X127408353Y-65900569D01*
X127478036Y-65947129D01*
X127555463Y-65979201D01*
X127637659Y-65995550D01*
X127721465Y-65995550D01*
X127803661Y-65979201D01*
X127881088Y-65947129D01*
X127950771Y-65900569D01*
X128010031Y-65841309D01*
X128056591Y-65771626D01*
X128088663Y-65694199D01*
X128105012Y-65612003D01*
X128105012Y-65528197D01*
X128088663Y-65446001D01*
X128070107Y-65401203D01*
X136374390Y-65401203D01*
X136374390Y-65485009D01*
X136390739Y-65567205D01*
X136422811Y-65644632D01*
X136469371Y-65714315D01*
X136498890Y-65743834D01*
X136473933Y-65768791D01*
X136427373Y-65838474D01*
X136395301Y-65915901D01*
X136378952Y-65998097D01*
X136378952Y-66081903D01*
X136395301Y-66164099D01*
X136427373Y-66241526D01*
X136473933Y-66311209D01*
X136533193Y-66370469D01*
X136602876Y-66417029D01*
X136680303Y-66449101D01*
X136762499Y-66465450D01*
X136846305Y-66465450D01*
X136928501Y-66449101D01*
X137005928Y-66417029D01*
X137075611Y-66370469D01*
X137134871Y-66311209D01*
X137181431Y-66241526D01*
X137213503Y-66164099D01*
X137229852Y-66081903D01*
X137229852Y-65998097D01*
X137213503Y-65915901D01*
X137181431Y-65838474D01*
X137134871Y-65768791D01*
X137105352Y-65739272D01*
X137130309Y-65714315D01*
X137176869Y-65644632D01*
X137208941Y-65567205D01*
X137225290Y-65485009D01*
X137225290Y-65401203D01*
X137208941Y-65319007D01*
X137176869Y-65241580D01*
X137130309Y-65171897D01*
X137071049Y-65112637D01*
X137001366Y-65066077D01*
X136923939Y-65034005D01*
X136841743Y-65017656D01*
X136757937Y-65017656D01*
X136675741Y-65034005D01*
X136598314Y-65066077D01*
X136528631Y-65112637D01*
X136469371Y-65171897D01*
X136422811Y-65241580D01*
X136390739Y-65319007D01*
X136374390Y-65401203D01*
X128070107Y-65401203D01*
X128056591Y-65368574D01*
X128010031Y-65298891D01*
X127950771Y-65239631D01*
X127881088Y-65193071D01*
X127803661Y-65160999D01*
X127721465Y-65144650D01*
X127637659Y-65144650D01*
X127555463Y-65160999D01*
X127478036Y-65193071D01*
X127408353Y-65239631D01*
X127349093Y-65298891D01*
X127302533Y-65368574D01*
X127270461Y-65446001D01*
X127254112Y-65528197D01*
X125430953Y-65528197D01*
X125428683Y-65527257D01*
X125346487Y-65510908D01*
X125262681Y-65510908D01*
X125180485Y-65527257D01*
X125103058Y-65559329D01*
X125033375Y-65605889D01*
X124974115Y-65665149D01*
X124927555Y-65734832D01*
X124895483Y-65812259D01*
X124879134Y-65894455D01*
X121410200Y-65894455D01*
X121410200Y-63938741D01*
X127469705Y-63938741D01*
X127469705Y-64022547D01*
X127486054Y-64104743D01*
X127518126Y-64182170D01*
X127564686Y-64251853D01*
X127603063Y-64290230D01*
X127587377Y-64305915D01*
X127540817Y-64375598D01*
X127508745Y-64453025D01*
X127492396Y-64535221D01*
X127492396Y-64619027D01*
X127508745Y-64701223D01*
X127540817Y-64778650D01*
X127587377Y-64848333D01*
X127646637Y-64907593D01*
X127716320Y-64954153D01*
X127793747Y-64986225D01*
X127875943Y-65002574D01*
X127959749Y-65002574D01*
X128041945Y-64986225D01*
X128119372Y-64954153D01*
X128189055Y-64907593D01*
X128248315Y-64848333D01*
X128294875Y-64778650D01*
X128298106Y-64770848D01*
X133826392Y-64770848D01*
X133826392Y-64854654D01*
X133842741Y-64936850D01*
X133874813Y-65014277D01*
X133921373Y-65083960D01*
X133980633Y-65143220D01*
X134050316Y-65189780D01*
X134127743Y-65221852D01*
X134209939Y-65238201D01*
X134293745Y-65238201D01*
X134375941Y-65221852D01*
X134453368Y-65189780D01*
X134523051Y-65143220D01*
X134582311Y-65083960D01*
X134628871Y-65014277D01*
X134660943Y-64936850D01*
X134677292Y-64854654D01*
X134677292Y-64770848D01*
X134660943Y-64688652D01*
X134651641Y-64666194D01*
X137007610Y-64666194D01*
X137007610Y-64750000D01*
X137023959Y-64832196D01*
X137056031Y-64909623D01*
X137102591Y-64979306D01*
X137161851Y-65038566D01*
X137231534Y-65085126D01*
X137308961Y-65117198D01*
X137391157Y-65133547D01*
X137474963Y-65133547D01*
X137557159Y-65117198D01*
X137634586Y-65085126D01*
X137704269Y-65038566D01*
X137763529Y-64979306D01*
X137810089Y-64909623D01*
X137842161Y-64832196D01*
X137858510Y-64750000D01*
X137858510Y-64666194D01*
X137842161Y-64583998D01*
X137810089Y-64506571D01*
X137763529Y-64436888D01*
X137704269Y-64377628D01*
X137634586Y-64331068D01*
X137557159Y-64298996D01*
X137474963Y-64282647D01*
X137391157Y-64282647D01*
X137308961Y-64298996D01*
X137231534Y-64331068D01*
X137161851Y-64377628D01*
X137102591Y-64436888D01*
X137056031Y-64506571D01*
X137023959Y-64583998D01*
X137007610Y-64666194D01*
X134651641Y-64666194D01*
X134628871Y-64611225D01*
X134582311Y-64541542D01*
X134523051Y-64482282D01*
X134453368Y-64435722D01*
X134375941Y-64403650D01*
X134293745Y-64387301D01*
X134209939Y-64387301D01*
X134127743Y-64403650D01*
X134050316Y-64435722D01*
X133980633Y-64482282D01*
X133921373Y-64541542D01*
X133874813Y-64611225D01*
X133842741Y-64688652D01*
X133826392Y-64770848D01*
X128298106Y-64770848D01*
X128326947Y-64701223D01*
X128343296Y-64619027D01*
X128343296Y-64535221D01*
X128326947Y-64453025D01*
X128294875Y-64375598D01*
X128248315Y-64305915D01*
X128209939Y-64267539D01*
X128225624Y-64251853D01*
X128272184Y-64182170D01*
X128277516Y-64169297D01*
X141941550Y-64169297D01*
X141941550Y-64253103D01*
X141957899Y-64335299D01*
X141989971Y-64412726D01*
X142036531Y-64482409D01*
X142095791Y-64541669D01*
X142165474Y-64588229D01*
X142242901Y-64620301D01*
X142325097Y-64636650D01*
X142408903Y-64636650D01*
X142491099Y-64620301D01*
X142568526Y-64588229D01*
X142638209Y-64541669D01*
X142697469Y-64482409D01*
X142744029Y-64412726D01*
X142776101Y-64335299D01*
X142792450Y-64253103D01*
X142792450Y-64169297D01*
X142776101Y-64087101D01*
X142744029Y-64009674D01*
X142697469Y-63939991D01*
X142638209Y-63880731D01*
X142568526Y-63834171D01*
X142491099Y-63802099D01*
X142408903Y-63785750D01*
X142325097Y-63785750D01*
X142242901Y-63802099D01*
X142165474Y-63834171D01*
X142095791Y-63880731D01*
X142036531Y-63939991D01*
X141989971Y-64009674D01*
X141957899Y-64087101D01*
X141941550Y-64169297D01*
X128277516Y-64169297D01*
X128304256Y-64104743D01*
X128312427Y-64063661D01*
X128346905Y-64070519D01*
X128430711Y-64070519D01*
X128512907Y-64054170D01*
X128590334Y-64022098D01*
X128660017Y-63975538D01*
X128719277Y-63916278D01*
X128765837Y-63846595D01*
X128797909Y-63769168D01*
X128814258Y-63686972D01*
X128814258Y-63603166D01*
X128797909Y-63520970D01*
X128765837Y-63443543D01*
X128719277Y-63373860D01*
X128660017Y-63314600D01*
X128590334Y-63268040D01*
X128512907Y-63235968D01*
X128430711Y-63219619D01*
X128346905Y-63219619D01*
X128264709Y-63235968D01*
X128187282Y-63268040D01*
X128117599Y-63314600D01*
X128058339Y-63373860D01*
X128011779Y-63443543D01*
X127979707Y-63520970D01*
X127971536Y-63562052D01*
X127937058Y-63555194D01*
X127853252Y-63555194D01*
X127771056Y-63571543D01*
X127693629Y-63603615D01*
X127623946Y-63650175D01*
X127564686Y-63709435D01*
X127518126Y-63779118D01*
X127486054Y-63856545D01*
X127469705Y-63938741D01*
X121410200Y-63938741D01*
X121410200Y-63002079D01*
X126784094Y-63002079D01*
X126784094Y-63085885D01*
X126800443Y-63168081D01*
X126832515Y-63245508D01*
X126879075Y-63315191D01*
X126938335Y-63374451D01*
X127008018Y-63421011D01*
X127085445Y-63453083D01*
X127167641Y-63469432D01*
X127251447Y-63469432D01*
X127333643Y-63453083D01*
X127411070Y-63421011D01*
X127480753Y-63374451D01*
X127540013Y-63315191D01*
X127586573Y-63245508D01*
X127618645Y-63168081D01*
X127634994Y-63085885D01*
X127634994Y-63041426D01*
X128621614Y-63041426D01*
X128621614Y-63125232D01*
X128637963Y-63207428D01*
X128670035Y-63284855D01*
X128716595Y-63354538D01*
X128775855Y-63413798D01*
X128845538Y-63460358D01*
X128922965Y-63492430D01*
X129005161Y-63508779D01*
X129088967Y-63508779D01*
X129171163Y-63492430D01*
X129248590Y-63460358D01*
X129318273Y-63413798D01*
X129377533Y-63354538D01*
X129424093Y-63284855D01*
X129456165Y-63207428D01*
X129472514Y-63125232D01*
X129472514Y-63092334D01*
X130160902Y-63092334D01*
X130160902Y-63176140D01*
X130177251Y-63258336D01*
X130209323Y-63335763D01*
X130255883Y-63405446D01*
X130311599Y-63461162D01*
X130267772Y-63526755D01*
X130235700Y-63604182D01*
X130219351Y-63686378D01*
X130219351Y-63770184D01*
X130235700Y-63852380D01*
X130267772Y-63929807D01*
X130314332Y-63999490D01*
X130373592Y-64058750D01*
X130443275Y-64105310D01*
X130520702Y-64137382D01*
X130602898Y-64153731D01*
X130686704Y-64153731D01*
X130768900Y-64137382D01*
X130846327Y-64105310D01*
X130916010Y-64058750D01*
X130975270Y-63999490D01*
X131021830Y-63929807D01*
X131053902Y-63852380D01*
X131070251Y-63770184D01*
X131070251Y-63686378D01*
X131053902Y-63604182D01*
X131021830Y-63526755D01*
X130975270Y-63457072D01*
X130919554Y-63401356D01*
X130963381Y-63335763D01*
X130995453Y-63258336D01*
X131011802Y-63176140D01*
X131011802Y-63096118D01*
X133249606Y-63096118D01*
X133249606Y-63179924D01*
X133265955Y-63262120D01*
X133298027Y-63339547D01*
X133344587Y-63409230D01*
X133403847Y-63468490D01*
X133473530Y-63515050D01*
X133550957Y-63547122D01*
X133633153Y-63563471D01*
X133716959Y-63563471D01*
X133799155Y-63547122D01*
X133876582Y-63515050D01*
X133946265Y-63468490D01*
X134005525Y-63409230D01*
X134052085Y-63339547D01*
X134084157Y-63262120D01*
X134100506Y-63179924D01*
X134100506Y-63096118D01*
X134084157Y-63013922D01*
X134068241Y-62975497D01*
X137013950Y-62975497D01*
X137013950Y-63059303D01*
X137030299Y-63141499D01*
X137062371Y-63218926D01*
X137108931Y-63288609D01*
X137168191Y-63347869D01*
X137237874Y-63394429D01*
X137315301Y-63426501D01*
X137397497Y-63442850D01*
X137481303Y-63442850D01*
X137563499Y-63426501D01*
X137640926Y-63394429D01*
X137710609Y-63347869D01*
X137769869Y-63288609D01*
X137816429Y-63218926D01*
X137846550Y-63146210D01*
X137848701Y-63147101D01*
X137930897Y-63163450D01*
X138014703Y-63163450D01*
X138096899Y-63147101D01*
X138174326Y-63115029D01*
X138244009Y-63068469D01*
X138303269Y-63009209D01*
X138349829Y-62939526D01*
X138381901Y-62862099D01*
X138398250Y-62779903D01*
X138398250Y-62713366D01*
X140893800Y-62713366D01*
X140893800Y-62813434D01*
X140913322Y-62911578D01*
X140951616Y-63004028D01*
X141007211Y-63087231D01*
X141077969Y-63157989D01*
X141161172Y-63213584D01*
X141253622Y-63251878D01*
X141351766Y-63271400D01*
X141451834Y-63271400D01*
X141549978Y-63251878D01*
X141642428Y-63213584D01*
X141725631Y-63157989D01*
X141796389Y-63087231D01*
X141851984Y-63004028D01*
X141890278Y-62911578D01*
X141909800Y-62813434D01*
X141909800Y-62713366D01*
X141890278Y-62615222D01*
X141851984Y-62522772D01*
X141796389Y-62439569D01*
X141725631Y-62368811D01*
X141642428Y-62313216D01*
X141549978Y-62274922D01*
X141451834Y-62255400D01*
X141351766Y-62255400D01*
X141253622Y-62274922D01*
X141161172Y-62313216D01*
X141077969Y-62368811D01*
X141007211Y-62439569D01*
X140951616Y-62522772D01*
X140913322Y-62615222D01*
X140893800Y-62713366D01*
X138398250Y-62713366D01*
X138398250Y-62696097D01*
X138381901Y-62613901D01*
X138349829Y-62536474D01*
X138303269Y-62466791D01*
X138244009Y-62407531D01*
X138174326Y-62360971D01*
X138096899Y-62328899D01*
X138014703Y-62312550D01*
X137930897Y-62312550D01*
X137848701Y-62328899D01*
X137771274Y-62360971D01*
X137701591Y-62407531D01*
X137642331Y-62466791D01*
X137595771Y-62536474D01*
X137565650Y-62609190D01*
X137563499Y-62608299D01*
X137481303Y-62591950D01*
X137397497Y-62591950D01*
X137315301Y-62608299D01*
X137237874Y-62640371D01*
X137168191Y-62686931D01*
X137108931Y-62746191D01*
X137062371Y-62815874D01*
X137030299Y-62893301D01*
X137013950Y-62975497D01*
X134068241Y-62975497D01*
X134052085Y-62936495D01*
X134005525Y-62866812D01*
X133946265Y-62807552D01*
X133876582Y-62760992D01*
X133799155Y-62728920D01*
X133716959Y-62712571D01*
X133633153Y-62712571D01*
X133550957Y-62728920D01*
X133473530Y-62760992D01*
X133403847Y-62807552D01*
X133344587Y-62866812D01*
X133298027Y-62936495D01*
X133265955Y-63013922D01*
X133249606Y-63096118D01*
X131011802Y-63096118D01*
X131011802Y-63092334D01*
X130995453Y-63010138D01*
X130963381Y-62932711D01*
X130916821Y-62863028D01*
X130857561Y-62803768D01*
X130787878Y-62757208D01*
X130710451Y-62725136D01*
X130628255Y-62708787D01*
X130544449Y-62708787D01*
X130462253Y-62725136D01*
X130384826Y-62757208D01*
X130315143Y-62803768D01*
X130255883Y-62863028D01*
X130209323Y-62932711D01*
X130177251Y-63010138D01*
X130160902Y-63092334D01*
X129472514Y-63092334D01*
X129472514Y-63041426D01*
X129456165Y-62959230D01*
X129424093Y-62881803D01*
X129377533Y-62812120D01*
X129318273Y-62752860D01*
X129248590Y-62706300D01*
X129171163Y-62674228D01*
X129088967Y-62657879D01*
X129005161Y-62657879D01*
X128922965Y-62674228D01*
X128845538Y-62706300D01*
X128775855Y-62752860D01*
X128716595Y-62812120D01*
X128670035Y-62881803D01*
X128637963Y-62959230D01*
X128621614Y-63041426D01*
X127634994Y-63041426D01*
X127634994Y-63002079D01*
X127618645Y-62919883D01*
X127586573Y-62842456D01*
X127559964Y-62802633D01*
X127584043Y-62786544D01*
X127643303Y-62727284D01*
X127689863Y-62657601D01*
X127721935Y-62580174D01*
X127738284Y-62497978D01*
X127738284Y-62414172D01*
X127721935Y-62331976D01*
X127689863Y-62254549D01*
X127643303Y-62184866D01*
X127584043Y-62125606D01*
X127514360Y-62079046D01*
X127436933Y-62046974D01*
X127354737Y-62030625D01*
X127270931Y-62030625D01*
X127188735Y-62046974D01*
X127111308Y-62079046D01*
X127041625Y-62125606D01*
X126982365Y-62184866D01*
X126935805Y-62254549D01*
X126903733Y-62331976D01*
X126887384Y-62414172D01*
X126887384Y-62497978D01*
X126903733Y-62580174D01*
X126935805Y-62657601D01*
X126962414Y-62697424D01*
X126938335Y-62713513D01*
X126879075Y-62772773D01*
X126832515Y-62842456D01*
X126800443Y-62919883D01*
X126784094Y-63002079D01*
X121410200Y-63002079D01*
X121410200Y-61934119D01*
X125025150Y-61934119D01*
X125025150Y-62017925D01*
X125041499Y-62100121D01*
X125073571Y-62177548D01*
X125120131Y-62247231D01*
X125179391Y-62306491D01*
X125249074Y-62353051D01*
X125326501Y-62385123D01*
X125408697Y-62401472D01*
X125492503Y-62401472D01*
X125574699Y-62385123D01*
X125652126Y-62353051D01*
X125721809Y-62306491D01*
X125781069Y-62247231D01*
X125827629Y-62177548D01*
X125859701Y-62100121D01*
X125876050Y-62017925D01*
X125876050Y-61934119D01*
X125859701Y-61851923D01*
X125833256Y-61788080D01*
X128682750Y-61788080D01*
X128682750Y-61871886D01*
X128699099Y-61954082D01*
X128731171Y-62031509D01*
X128777731Y-62101192D01*
X128836991Y-62160452D01*
X128906674Y-62207012D01*
X128984101Y-62239084D01*
X129066297Y-62255433D01*
X129150103Y-62255433D01*
X129232299Y-62239084D01*
X129309726Y-62207012D01*
X129379409Y-62160452D01*
X129403193Y-62136668D01*
X131141643Y-62136668D01*
X131141643Y-62220474D01*
X131157992Y-62302670D01*
X131190064Y-62380097D01*
X131236624Y-62449780D01*
X131295884Y-62509040D01*
X131365567Y-62555600D01*
X131442994Y-62587672D01*
X131525190Y-62604021D01*
X131608996Y-62604021D01*
X131691192Y-62587672D01*
X131768619Y-62555600D01*
X131838302Y-62509040D01*
X131897562Y-62449780D01*
X131944122Y-62380097D01*
X131976194Y-62302670D01*
X131992543Y-62220474D01*
X131992543Y-62136668D01*
X131976194Y-62054472D01*
X131944122Y-61977045D01*
X131897562Y-61907362D01*
X131873497Y-61883297D01*
X139249150Y-61883297D01*
X139249150Y-61967103D01*
X139265499Y-62049299D01*
X139297571Y-62126726D01*
X139344131Y-62196409D01*
X139403391Y-62255669D01*
X139473074Y-62302229D01*
X139550501Y-62334301D01*
X139632697Y-62350650D01*
X139716503Y-62350650D01*
X139798699Y-62334301D01*
X139876126Y-62302229D01*
X139945809Y-62255669D01*
X140005069Y-62196409D01*
X140051629Y-62126726D01*
X140083701Y-62049299D01*
X140100050Y-61967103D01*
X140100050Y-61883297D01*
X140083701Y-61801101D01*
X140051629Y-61723674D01*
X140005069Y-61653991D01*
X139945809Y-61594731D01*
X139876126Y-61548171D01*
X139798699Y-61516099D01*
X139716503Y-61499750D01*
X139632697Y-61499750D01*
X139550501Y-61516099D01*
X139473074Y-61548171D01*
X139403391Y-61594731D01*
X139344131Y-61653991D01*
X139297571Y-61723674D01*
X139265499Y-61801101D01*
X139249150Y-61883297D01*
X131873497Y-61883297D01*
X131838302Y-61848102D01*
X131768619Y-61801542D01*
X131691192Y-61769470D01*
X131608996Y-61753121D01*
X131525190Y-61753121D01*
X131442994Y-61769470D01*
X131365567Y-61801542D01*
X131295884Y-61848102D01*
X131236624Y-61907362D01*
X131190064Y-61977045D01*
X131157992Y-62054472D01*
X131141643Y-62136668D01*
X129403193Y-62136668D01*
X129438669Y-62101192D01*
X129485229Y-62031509D01*
X129517301Y-61954082D01*
X129533650Y-61871886D01*
X129533650Y-61788080D01*
X129517301Y-61705884D01*
X129485229Y-61628457D01*
X129438669Y-61558774D01*
X129379409Y-61499514D01*
X129309726Y-61452954D01*
X129232299Y-61420882D01*
X129150103Y-61404533D01*
X129066297Y-61404533D01*
X128984101Y-61420882D01*
X128906674Y-61452954D01*
X128836991Y-61499514D01*
X128777731Y-61558774D01*
X128731171Y-61628457D01*
X128699099Y-61705884D01*
X128682750Y-61788080D01*
X125833256Y-61788080D01*
X125827629Y-61774496D01*
X125781069Y-61704813D01*
X125721809Y-61645553D01*
X125652126Y-61598993D01*
X125574699Y-61566921D01*
X125492503Y-61550572D01*
X125408697Y-61550572D01*
X125326501Y-61566921D01*
X125249074Y-61598993D01*
X125179391Y-61645553D01*
X125120131Y-61704813D01*
X125073571Y-61774496D01*
X125041499Y-61851923D01*
X125025150Y-61934119D01*
X121410200Y-61934119D01*
X121410200Y-59889908D01*
X125000167Y-59889908D01*
X125000167Y-59973714D01*
X125016516Y-60055910D01*
X125048588Y-60133337D01*
X125095148Y-60203020D01*
X125134625Y-60242497D01*
X125120131Y-60256991D01*
X125073571Y-60326674D01*
X125041499Y-60404101D01*
X125025150Y-60486297D01*
X125025150Y-60570103D01*
X125041499Y-60652299D01*
X125073571Y-60729726D01*
X125120131Y-60799409D01*
X125147372Y-60826650D01*
X125120120Y-60853902D01*
X125073560Y-60923585D01*
X125041488Y-61001012D01*
X125025139Y-61083208D01*
X125025139Y-61167014D01*
X125041488Y-61249210D01*
X125073560Y-61326637D01*
X125120120Y-61396320D01*
X125179380Y-61455580D01*
X125249063Y-61502140D01*
X125326490Y-61534212D01*
X125408686Y-61550561D01*
X125492492Y-61550561D01*
X125574688Y-61534212D01*
X125652115Y-61502140D01*
X125721798Y-61455580D01*
X125781058Y-61396320D01*
X125827618Y-61326637D01*
X125859690Y-61249210D01*
X125876039Y-61167014D01*
X125876039Y-61083208D01*
X125859690Y-61001012D01*
X125827618Y-60923585D01*
X125815466Y-60905397D01*
X126968250Y-60905397D01*
X126968250Y-60989203D01*
X126984599Y-61071399D01*
X127016671Y-61148826D01*
X127063231Y-61218509D01*
X127122491Y-61277769D01*
X127192174Y-61324329D01*
X127269601Y-61356401D01*
X127351797Y-61372750D01*
X127435603Y-61372750D01*
X127517799Y-61356401D01*
X127595226Y-61324329D01*
X127664909Y-61277769D01*
X127724169Y-61218509D01*
X127770729Y-61148826D01*
X127802801Y-61071399D01*
X127819150Y-60989203D01*
X127819150Y-60929303D01*
X128660649Y-60929303D01*
X128660649Y-61013109D01*
X128676998Y-61095305D01*
X128709070Y-61172732D01*
X128755630Y-61242415D01*
X128814890Y-61301675D01*
X128884573Y-61348235D01*
X128962000Y-61380307D01*
X129044196Y-61396656D01*
X129128002Y-61396656D01*
X129210198Y-61380307D01*
X129287625Y-61348235D01*
X129357308Y-61301675D01*
X129416568Y-61242415D01*
X129463128Y-61172732D01*
X129495200Y-61095305D01*
X129511549Y-61013109D01*
X129511549Y-60929303D01*
X129495200Y-60847107D01*
X129463128Y-60769680D01*
X129416568Y-60699997D01*
X129398857Y-60682286D01*
X129511560Y-60682286D01*
X129511560Y-60766092D01*
X129527909Y-60848288D01*
X129559981Y-60925715D01*
X129606541Y-60995398D01*
X129665801Y-61054658D01*
X129735484Y-61101218D01*
X129812911Y-61133290D01*
X129895107Y-61149639D01*
X129978913Y-61149639D01*
X130061109Y-61133290D01*
X130138536Y-61101218D01*
X130208219Y-61054658D01*
X130267479Y-60995398D01*
X130272140Y-60988422D01*
X132994443Y-60988422D01*
X132994443Y-61072228D01*
X133010792Y-61154424D01*
X133042864Y-61231851D01*
X133089424Y-61301534D01*
X133148684Y-61360794D01*
X133218367Y-61407354D01*
X133295794Y-61439426D01*
X133377990Y-61455775D01*
X133461796Y-61455775D01*
X133543992Y-61439426D01*
X133621419Y-61407354D01*
X133691102Y-61360794D01*
X133750362Y-61301534D01*
X133796922Y-61231851D01*
X133828994Y-61154424D01*
X133845343Y-61072228D01*
X133845343Y-60988422D01*
X133828994Y-60906226D01*
X133796922Y-60828799D01*
X133750362Y-60759116D01*
X133691102Y-60699856D01*
X133621419Y-60653296D01*
X133543992Y-60621224D01*
X133461796Y-60604875D01*
X133377990Y-60604875D01*
X133295794Y-60621224D01*
X133218367Y-60653296D01*
X133148684Y-60699856D01*
X133089424Y-60759116D01*
X133042864Y-60828799D01*
X133010792Y-60906226D01*
X132994443Y-60988422D01*
X130272140Y-60988422D01*
X130314039Y-60925715D01*
X130346111Y-60848288D01*
X130362460Y-60766092D01*
X130362460Y-60682286D01*
X130346111Y-60600090D01*
X130314039Y-60522663D01*
X130267479Y-60452980D01*
X130208219Y-60393720D01*
X130138536Y-60347160D01*
X130061109Y-60315088D01*
X129978913Y-60298739D01*
X129895107Y-60298739D01*
X129812911Y-60315088D01*
X129735484Y-60347160D01*
X129665801Y-60393720D01*
X129606541Y-60452980D01*
X129559981Y-60522663D01*
X129527909Y-60600090D01*
X129511560Y-60682286D01*
X129398857Y-60682286D01*
X129357308Y-60640737D01*
X129287625Y-60594177D01*
X129210198Y-60562105D01*
X129128002Y-60545756D01*
X129044196Y-60545756D01*
X128962000Y-60562105D01*
X128884573Y-60594177D01*
X128814890Y-60640737D01*
X128755630Y-60699997D01*
X128709070Y-60769680D01*
X128676998Y-60847107D01*
X128660649Y-60929303D01*
X127819150Y-60929303D01*
X127819150Y-60905397D01*
X127802801Y-60823201D01*
X127770729Y-60745774D01*
X127724169Y-60676091D01*
X127664909Y-60616831D01*
X127595226Y-60570271D01*
X127517799Y-60538199D01*
X127435603Y-60521850D01*
X127351797Y-60521850D01*
X127269601Y-60538199D01*
X127192174Y-60570271D01*
X127122491Y-60616831D01*
X127063231Y-60676091D01*
X127016671Y-60745774D01*
X126984599Y-60823201D01*
X126968250Y-60905397D01*
X125815466Y-60905397D01*
X125781058Y-60853902D01*
X125753817Y-60826661D01*
X125781069Y-60799409D01*
X125827629Y-60729726D01*
X125859701Y-60652299D01*
X125876050Y-60570103D01*
X125876050Y-60486297D01*
X125859701Y-60404101D01*
X125827629Y-60326674D01*
X125781069Y-60256991D01*
X125741592Y-60217514D01*
X125756086Y-60203020D01*
X125802646Y-60133337D01*
X125834718Y-60055910D01*
X125851067Y-59973714D01*
X125851067Y-59889908D01*
X125834718Y-59807712D01*
X125802646Y-59730285D01*
X125756086Y-59660602D01*
X125743868Y-59648384D01*
X129952455Y-59648384D01*
X129952455Y-59732190D01*
X129968804Y-59814386D01*
X130000876Y-59891813D01*
X130047436Y-59961496D01*
X130106696Y-60020756D01*
X130176379Y-60067316D01*
X130253806Y-60099388D01*
X130336002Y-60115737D01*
X130372049Y-60115737D01*
X130372049Y-60193094D01*
X130388398Y-60275290D01*
X130420470Y-60352717D01*
X130467030Y-60422400D01*
X130526290Y-60481660D01*
X130595973Y-60528220D01*
X130673400Y-60560292D01*
X130755596Y-60576641D01*
X130839402Y-60576641D01*
X130921598Y-60560292D01*
X130999025Y-60528220D01*
X131068708Y-60481660D01*
X131127968Y-60422400D01*
X131174528Y-60352717D01*
X131206600Y-60275290D01*
X131222949Y-60193094D01*
X131222949Y-60125249D01*
X131479180Y-60125249D01*
X131479180Y-60209055D01*
X131495529Y-60291251D01*
X131527601Y-60368678D01*
X131574161Y-60438361D01*
X131633421Y-60497621D01*
X131703104Y-60544181D01*
X131780531Y-60576253D01*
X131862727Y-60592602D01*
X131946533Y-60592602D01*
X132028729Y-60576253D01*
X132106156Y-60544181D01*
X132175839Y-60497621D01*
X132208022Y-60465438D01*
X137313500Y-60465438D01*
X137313500Y-60565506D01*
X137333022Y-60663650D01*
X137371316Y-60756100D01*
X137426911Y-60839303D01*
X137497669Y-60910061D01*
X137580872Y-60965656D01*
X137673322Y-61003950D01*
X137771466Y-61023472D01*
X137871534Y-61023472D01*
X137969678Y-61003950D01*
X138062128Y-60965656D01*
X138145331Y-60910061D01*
X138216089Y-60839303D01*
X138271684Y-60756100D01*
X138309978Y-60663650D01*
X138329500Y-60565506D01*
X138329500Y-60465438D01*
X138309978Y-60367294D01*
X138271684Y-60274844D01*
X138216089Y-60191641D01*
X138145331Y-60120883D01*
X138062128Y-60065288D01*
X137969678Y-60026994D01*
X137871534Y-60007472D01*
X137771466Y-60007472D01*
X137673322Y-60026994D01*
X137580872Y-60065288D01*
X137497669Y-60120883D01*
X137426911Y-60191641D01*
X137371316Y-60274844D01*
X137333022Y-60367294D01*
X137313500Y-60465438D01*
X132208022Y-60465438D01*
X132235099Y-60438361D01*
X132281659Y-60368678D01*
X132313731Y-60291251D01*
X132330080Y-60209055D01*
X132330080Y-60125249D01*
X132313731Y-60043053D01*
X132281659Y-59965626D01*
X132235099Y-59895943D01*
X132175839Y-59836683D01*
X132106156Y-59790123D01*
X132028729Y-59758051D01*
X131946533Y-59741702D01*
X131862727Y-59741702D01*
X131780531Y-59758051D01*
X131703104Y-59790123D01*
X131633421Y-59836683D01*
X131574161Y-59895943D01*
X131527601Y-59965626D01*
X131495529Y-60043053D01*
X131479180Y-60125249D01*
X131222949Y-60125249D01*
X131222949Y-60109288D01*
X131206600Y-60027092D01*
X131174528Y-59949665D01*
X131127968Y-59879982D01*
X131068708Y-59820722D01*
X130999025Y-59774162D01*
X130921598Y-59742090D01*
X130839402Y-59725741D01*
X130803355Y-59725741D01*
X130803355Y-59648384D01*
X130787006Y-59566188D01*
X130754934Y-59488761D01*
X130708374Y-59419078D01*
X130649114Y-59359818D01*
X130579431Y-59313258D01*
X130502004Y-59281186D01*
X130419808Y-59264837D01*
X130336002Y-59264837D01*
X130253806Y-59281186D01*
X130176379Y-59313258D01*
X130106696Y-59359818D01*
X130047436Y-59419078D01*
X130000876Y-59488761D01*
X129968804Y-59566188D01*
X129952455Y-59648384D01*
X125743868Y-59648384D01*
X125696826Y-59601342D01*
X125627143Y-59554782D01*
X125549716Y-59522710D01*
X125467520Y-59506361D01*
X125383714Y-59506361D01*
X125301518Y-59522710D01*
X125224091Y-59554782D01*
X125154408Y-59601342D01*
X125095148Y-59660602D01*
X125048588Y-59730285D01*
X125016516Y-59807712D01*
X125000167Y-59889908D01*
X121410200Y-59889908D01*
X121410200Y-59175586D01*
X127209550Y-59175586D01*
X127209550Y-59259392D01*
X127225899Y-59341588D01*
X127257971Y-59419015D01*
X127304531Y-59488698D01*
X127363791Y-59547958D01*
X127433474Y-59594518D01*
X127510901Y-59626590D01*
X127593097Y-59642939D01*
X127676903Y-59642939D01*
X127759099Y-59626590D01*
X127836526Y-59594518D01*
X127906209Y-59547958D01*
X127965469Y-59488698D01*
X128012029Y-59419015D01*
X128044101Y-59341588D01*
X128060450Y-59259392D01*
X128060450Y-59175586D01*
X128044101Y-59093390D01*
X128029307Y-59057675D01*
X128105107Y-59089073D01*
X128187303Y-59105422D01*
X128271109Y-59105422D01*
X128353305Y-59089073D01*
X128430732Y-59057001D01*
X128500415Y-59010441D01*
X128559675Y-58951181D01*
X128606235Y-58881498D01*
X128638307Y-58804071D01*
X128654656Y-58721875D01*
X128654656Y-58638069D01*
X128653469Y-58632097D01*
X128733552Y-58632097D01*
X128733552Y-58715903D01*
X128749901Y-58798099D01*
X128781973Y-58875526D01*
X128828533Y-58945209D01*
X128887793Y-59004469D01*
X128957476Y-59051029D01*
X129034903Y-59083101D01*
X129117099Y-59099450D01*
X129200905Y-59099450D01*
X129283101Y-59083101D01*
X129360528Y-59051029D01*
X129430211Y-59004469D01*
X129489471Y-58945209D01*
X129536031Y-58875526D01*
X129568103Y-58798099D01*
X129584452Y-58715903D01*
X129584452Y-58632097D01*
X129582997Y-58624781D01*
X130185741Y-58624781D01*
X130185741Y-58708587D01*
X130202090Y-58790783D01*
X130234162Y-58868210D01*
X130280722Y-58937893D01*
X130339982Y-58997153D01*
X130409665Y-59043713D01*
X130487092Y-59075785D01*
X130569288Y-59092134D01*
X130653094Y-59092134D01*
X130735290Y-59075785D01*
X130812717Y-59043713D01*
X130882400Y-58997153D01*
X130941660Y-58937893D01*
X130988220Y-58868210D01*
X131020292Y-58790783D01*
X131036641Y-58708587D01*
X131036641Y-58632097D01*
X131165610Y-58632097D01*
X131165610Y-58715903D01*
X131181959Y-58798099D01*
X131214031Y-58875526D01*
X131260591Y-58945209D01*
X131319851Y-59004469D01*
X131389534Y-59051029D01*
X131466961Y-59083101D01*
X131549157Y-59099450D01*
X131632963Y-59099450D01*
X131715159Y-59083101D01*
X131792586Y-59051029D01*
X131836741Y-59021526D01*
X131811913Y-59046354D01*
X131765353Y-59116037D01*
X131733281Y-59193464D01*
X131716932Y-59275660D01*
X131716932Y-59359466D01*
X131733281Y-59441662D01*
X131765353Y-59519089D01*
X131811913Y-59588772D01*
X131871173Y-59648032D01*
X131940856Y-59694592D01*
X132018283Y-59726664D01*
X132100479Y-59743013D01*
X132184285Y-59743013D01*
X132266481Y-59726664D01*
X132343908Y-59694592D01*
X132413591Y-59648032D01*
X132472851Y-59588772D01*
X132519411Y-59519089D01*
X132551483Y-59441662D01*
X132567832Y-59359466D01*
X132567832Y-59275660D01*
X132551483Y-59193464D01*
X132519411Y-59116037D01*
X132472851Y-59046354D01*
X132466882Y-59040385D01*
X132510126Y-59022473D01*
X132579809Y-58975913D01*
X132639069Y-58916653D01*
X132648844Y-58902023D01*
X132660126Y-58918908D01*
X132719386Y-58978168D01*
X132789069Y-59024728D01*
X132866496Y-59056800D01*
X132948692Y-59073149D01*
X133032498Y-59073149D01*
X133114694Y-59056800D01*
X133192121Y-59024728D01*
X133261804Y-58978168D01*
X133321064Y-58918908D01*
X133367624Y-58849225D01*
X133380749Y-58817538D01*
X133404769Y-58875526D01*
X133451329Y-58945209D01*
X133510589Y-59004469D01*
X133580272Y-59051029D01*
X133657699Y-59083101D01*
X133739895Y-59099450D01*
X133823701Y-59099450D01*
X133905897Y-59083101D01*
X133983324Y-59051029D01*
X134053007Y-59004469D01*
X134112267Y-58945209D01*
X134158827Y-58875526D01*
X134190899Y-58798099D01*
X134207248Y-58715903D01*
X134207248Y-58632097D01*
X134190899Y-58549901D01*
X134158827Y-58472474D01*
X134112267Y-58402791D01*
X134053007Y-58343531D01*
X133983324Y-58296971D01*
X133905897Y-58264899D01*
X133823701Y-58248550D01*
X133739895Y-58248550D01*
X133657699Y-58264899D01*
X133580272Y-58296971D01*
X133510589Y-58343531D01*
X133451329Y-58402791D01*
X133404769Y-58472474D01*
X133391644Y-58504161D01*
X133367624Y-58446173D01*
X133321064Y-58376490D01*
X133261804Y-58317230D01*
X133192121Y-58270670D01*
X133114694Y-58238598D01*
X133032498Y-58222249D01*
X132948692Y-58222249D01*
X132866496Y-58238598D01*
X132789069Y-58270670D01*
X132719386Y-58317230D01*
X132660126Y-58376490D01*
X132650351Y-58391120D01*
X132639069Y-58374235D01*
X132579809Y-58314975D01*
X132510126Y-58268415D01*
X132432699Y-58236343D01*
X132350503Y-58219994D01*
X132266697Y-58219994D01*
X132184501Y-58236343D01*
X132107074Y-58268415D01*
X132037391Y-58314975D01*
X131978131Y-58374235D01*
X131940290Y-58430869D01*
X131921529Y-58402791D01*
X131862269Y-58343531D01*
X131792586Y-58296971D01*
X131715159Y-58264899D01*
X131632963Y-58248550D01*
X131549157Y-58248550D01*
X131466961Y-58264899D01*
X131389534Y-58296971D01*
X131319851Y-58343531D01*
X131260591Y-58402791D01*
X131214031Y-58472474D01*
X131181959Y-58549901D01*
X131165610Y-58632097D01*
X131036641Y-58632097D01*
X131036641Y-58624781D01*
X131020292Y-58542585D01*
X130988220Y-58465158D01*
X130941660Y-58395475D01*
X130882400Y-58336215D01*
X130812717Y-58289655D01*
X130735290Y-58257583D01*
X130653094Y-58241234D01*
X130569288Y-58241234D01*
X130487092Y-58257583D01*
X130409665Y-58289655D01*
X130339982Y-58336215D01*
X130280722Y-58395475D01*
X130234162Y-58465158D01*
X130202090Y-58542585D01*
X130185741Y-58624781D01*
X129582997Y-58624781D01*
X129568103Y-58549901D01*
X129536031Y-58472474D01*
X129489471Y-58402791D01*
X129430211Y-58343531D01*
X129360528Y-58296971D01*
X129283101Y-58264899D01*
X129200905Y-58248550D01*
X129117099Y-58248550D01*
X129034903Y-58264899D01*
X128957476Y-58296971D01*
X128887793Y-58343531D01*
X128828533Y-58402791D01*
X128781973Y-58472474D01*
X128749901Y-58549901D01*
X128733552Y-58632097D01*
X128653469Y-58632097D01*
X128638307Y-58555873D01*
X128606235Y-58478446D01*
X128559675Y-58408763D01*
X128500415Y-58349503D01*
X128430732Y-58302943D01*
X128353305Y-58270871D01*
X128271109Y-58254522D01*
X128187303Y-58254522D01*
X128105107Y-58270871D01*
X128027680Y-58302943D01*
X127957997Y-58349503D01*
X127898737Y-58408763D01*
X127852177Y-58478446D01*
X127820105Y-58555873D01*
X127803756Y-58638069D01*
X127803756Y-58721875D01*
X127820105Y-58804071D01*
X127834899Y-58839786D01*
X127759099Y-58808388D01*
X127676903Y-58792039D01*
X127593097Y-58792039D01*
X127510901Y-58808388D01*
X127433474Y-58840460D01*
X127363791Y-58887020D01*
X127304531Y-58946280D01*
X127257971Y-59015963D01*
X127225899Y-59093390D01*
X127209550Y-59175586D01*
X121410200Y-59175586D01*
X121410200Y-58632097D01*
X123501150Y-58632097D01*
X123501150Y-58715903D01*
X123517499Y-58798099D01*
X123549571Y-58875526D01*
X123596131Y-58945209D01*
X123655391Y-59004469D01*
X123725074Y-59051029D01*
X123802501Y-59083101D01*
X123884697Y-59099450D01*
X123968503Y-59099450D01*
X124050699Y-59083101D01*
X124128126Y-59051029D01*
X124197809Y-59004469D01*
X124257069Y-58945209D01*
X124303629Y-58875526D01*
X124335701Y-58798099D01*
X124352050Y-58715903D01*
X124352050Y-58632097D01*
X125025150Y-58632097D01*
X125025150Y-58715903D01*
X125041499Y-58798099D01*
X125073571Y-58875526D01*
X125120131Y-58945209D01*
X125179391Y-59004469D01*
X125249074Y-59051029D01*
X125326501Y-59083101D01*
X125408697Y-59099450D01*
X125492503Y-59099450D01*
X125574699Y-59083101D01*
X125652126Y-59051029D01*
X125721809Y-59004469D01*
X125781069Y-58945209D01*
X125827629Y-58875526D01*
X125859701Y-58798099D01*
X125876050Y-58715903D01*
X125876050Y-58632097D01*
X125859701Y-58549901D01*
X125827629Y-58472474D01*
X125781069Y-58402791D01*
X125721809Y-58343531D01*
X125652126Y-58296971D01*
X125574699Y-58264899D01*
X125492503Y-58248550D01*
X125408697Y-58248550D01*
X125326501Y-58264899D01*
X125249074Y-58296971D01*
X125179391Y-58343531D01*
X125120131Y-58402791D01*
X125073571Y-58472474D01*
X125041499Y-58549901D01*
X125025150Y-58632097D01*
X124352050Y-58632097D01*
X124335701Y-58549901D01*
X124303629Y-58472474D01*
X124257069Y-58402791D01*
X124197809Y-58343531D01*
X124128126Y-58296971D01*
X124050699Y-58264899D01*
X123968503Y-58248550D01*
X123884697Y-58248550D01*
X123802501Y-58264899D01*
X123725074Y-58296971D01*
X123655391Y-58343531D01*
X123596131Y-58402791D01*
X123549571Y-58472474D01*
X123517499Y-58549901D01*
X123501150Y-58632097D01*
X121410200Y-58632097D01*
X121410200Y-56473097D01*
X127209550Y-56473097D01*
X127209550Y-56556903D01*
X127225899Y-56639099D01*
X127257971Y-56716526D01*
X127304531Y-56786209D01*
X127363791Y-56845469D01*
X127433474Y-56892029D01*
X127510901Y-56924101D01*
X127593097Y-56940450D01*
X127676903Y-56940450D01*
X127759099Y-56924101D01*
X127836526Y-56892029D01*
X127906209Y-56845469D01*
X127965469Y-56786209D01*
X128012029Y-56716526D01*
X128044101Y-56639099D01*
X128060450Y-56556903D01*
X128060450Y-56473097D01*
X128044101Y-56390901D01*
X128012029Y-56313474D01*
X127965469Y-56243791D01*
X127906209Y-56184531D01*
X127836526Y-56137971D01*
X127759099Y-56105899D01*
X127676903Y-56089550D01*
X127593097Y-56089550D01*
X127510901Y-56105899D01*
X127433474Y-56137971D01*
X127363791Y-56184531D01*
X127304531Y-56243791D01*
X127257971Y-56313474D01*
X127225899Y-56390901D01*
X127209550Y-56473097D01*
X121410200Y-56473097D01*
X121410200Y-54646145D01*
X121427012Y-54509164D01*
X125653800Y-54509164D01*
X125653800Y-54609232D01*
X125673322Y-54707376D01*
X125711616Y-54799826D01*
X125767211Y-54883029D01*
X125837969Y-54953787D01*
X125921172Y-55009382D01*
X126013622Y-55047676D01*
X126111766Y-55067198D01*
X126211834Y-55067198D01*
X126309978Y-55047676D01*
X126402428Y-55009382D01*
X126485631Y-54953787D01*
X126556389Y-54883029D01*
X126611984Y-54799826D01*
X126650278Y-54707376D01*
X126669800Y-54609232D01*
X126669800Y-54509164D01*
X126650278Y-54411020D01*
X126611984Y-54318570D01*
X126556389Y-54235367D01*
X126485631Y-54164609D01*
X126402428Y-54109014D01*
X126309978Y-54070720D01*
X126211834Y-54051198D01*
X126111766Y-54051198D01*
X126013622Y-54070720D01*
X125921172Y-54109014D01*
X125837969Y-54164609D01*
X125767211Y-54235367D01*
X125711616Y-54318570D01*
X125673322Y-54411020D01*
X125653800Y-54509164D01*
X121427012Y-54509164D01*
X121429651Y-54487666D01*
X121476586Y-54344887D01*
X121550359Y-54213946D01*
X121648163Y-54099825D01*
X121766269Y-54006876D01*
X121900178Y-53938637D01*
X122047365Y-53896980D01*
X122169078Y-53884617D01*
X134176528Y-53884617D01*
X134192025Y-54022775D01*
G37*
%TD.AperFunction*%
%TD*%
M02*
