%TF.GenerationSoftware,KiCad,Pcbnew,(5.1.8)-1*%
%TF.CreationDate,2020-12-19T10:03:23+01:00*%
%TF.ProjectId,MM32,4d4d3332-2e6b-4696-9361-645f70636258,rev?*%
%TF.SameCoordinates,Original*%
%TF.FileFunction,Legend,Bot*%
%TF.FilePolarity,Positive*%
%FSLAX46Y46*%
G04 Gerber Fmt 4.6, Leading zero omitted, Abs format (unit mm)*
G04 Created by KiCad (PCBNEW (5.1.8)-1) date 2020-12-19 10:03:23*
%MOMM*%
%LPD*%
G01*
G04 APERTURE LIST*
%ADD10C,0.127000*%
%ADD11C,0.010000*%
%ADD12C,0.120000*%
G04 APERTURE END LIST*
D10*
X139314464Y-57215314D02*
X139387035Y-57179028D01*
X139423321Y-57106457D01*
X139423321Y-56453314D01*
X138697607Y-56707314D02*
X138697607Y-57215314D01*
X139024178Y-56707314D02*
X139024178Y-57106457D01*
X138987892Y-57179028D01*
X138915321Y-57215314D01*
X138806464Y-57215314D01*
X138733892Y-57179028D01*
X138697607Y-57142742D01*
X138334750Y-56707314D02*
X138334750Y-57215314D01*
X138334750Y-56779885D02*
X138298464Y-56743600D01*
X138225892Y-56707314D01*
X138117035Y-56707314D01*
X138044464Y-56743600D01*
X138008178Y-56816171D01*
X138008178Y-57215314D01*
X137500178Y-56453314D02*
X137355035Y-56453314D01*
X137282464Y-56489600D01*
X137209892Y-56562171D01*
X137173607Y-56707314D01*
X137173607Y-56961314D01*
X137209892Y-57106457D01*
X137282464Y-57179028D01*
X137355035Y-57215314D01*
X137500178Y-57215314D01*
X137572750Y-57179028D01*
X137645321Y-57106457D01*
X137681607Y-56961314D01*
X137681607Y-56707314D01*
X137645321Y-56562171D01*
X137572750Y-56489600D01*
X137500178Y-56453314D01*
X136847035Y-56707314D02*
X136847035Y-57469314D01*
X136847035Y-56743600D02*
X136774464Y-56707314D01*
X136629321Y-56707314D01*
X136556750Y-56743600D01*
X136520464Y-56779885D01*
X136484178Y-56852457D01*
X136484178Y-57070171D01*
X136520464Y-57142742D01*
X136556750Y-57179028D01*
X136629321Y-57215314D01*
X136774464Y-57215314D01*
X136847035Y-57179028D01*
X136266464Y-56707314D02*
X135976178Y-56707314D01*
X136157607Y-56453314D02*
X136157607Y-57106457D01*
X136121321Y-57179028D01*
X136048750Y-57215314D01*
X135976178Y-57215314D01*
X135722178Y-57215314D02*
X135722178Y-56707314D01*
X135722178Y-56453314D02*
X135758464Y-56489600D01*
X135722178Y-56525885D01*
X135685892Y-56489600D01*
X135722178Y-56453314D01*
X135722178Y-56525885D01*
X135032750Y-57179028D02*
X135105321Y-57215314D01*
X135250464Y-57215314D01*
X135323035Y-57179028D01*
X135359321Y-57142742D01*
X135395607Y-57070171D01*
X135395607Y-56852457D01*
X135359321Y-56779885D01*
X135323035Y-56743600D01*
X135250464Y-56707314D01*
X135105321Y-56707314D01*
X135032750Y-56743600D01*
X134742464Y-57179028D02*
X134669892Y-57215314D01*
X134524750Y-57215314D01*
X134452178Y-57179028D01*
X134415892Y-57106457D01*
X134415892Y-57070171D01*
X134452178Y-56997600D01*
X134524750Y-56961314D01*
X134633607Y-56961314D01*
X134706178Y-56925028D01*
X134742464Y-56852457D01*
X134742464Y-56816171D01*
X134706178Y-56743600D01*
X134633607Y-56707314D01*
X134524750Y-56707314D01*
X134452178Y-56743600D01*
X139423321Y-58485314D02*
X139423321Y-57723314D01*
X139169321Y-58267600D01*
X138915321Y-57723314D01*
X138915321Y-58485314D01*
X138552464Y-58485314D02*
X138552464Y-57723314D01*
X138298464Y-58267600D01*
X138044464Y-57723314D01*
X138044464Y-58485314D01*
X137754178Y-57723314D02*
X137282464Y-57723314D01*
X137536464Y-58013600D01*
X137427607Y-58013600D01*
X137355035Y-58049885D01*
X137318750Y-58086171D01*
X137282464Y-58158742D01*
X137282464Y-58340171D01*
X137318750Y-58412742D01*
X137355035Y-58449028D01*
X137427607Y-58485314D01*
X137645321Y-58485314D01*
X137717892Y-58449028D01*
X137754178Y-58412742D01*
X136992178Y-57795885D02*
X136955892Y-57759600D01*
X136883321Y-57723314D01*
X136701892Y-57723314D01*
X136629321Y-57759600D01*
X136593035Y-57795885D01*
X136556750Y-57868457D01*
X136556750Y-57941028D01*
X136593035Y-58049885D01*
X137028464Y-58485314D01*
X136556750Y-58485314D01*
X135758464Y-57723314D02*
X135504464Y-58485314D01*
X135250464Y-57723314D01*
X135032750Y-57795885D02*
X134996464Y-57759600D01*
X134923892Y-57723314D01*
X134742464Y-57723314D01*
X134669892Y-57759600D01*
X134633607Y-57795885D01*
X134597321Y-57868457D01*
X134597321Y-57941028D01*
X134633607Y-58049885D01*
X135069035Y-58485314D01*
X134597321Y-58485314D01*
X134270750Y-58412742D02*
X134234464Y-58449028D01*
X134270750Y-58485314D01*
X134307035Y-58449028D01*
X134270750Y-58412742D01*
X134270750Y-58485314D01*
X133508750Y-58485314D02*
X133944178Y-58485314D01*
X133726464Y-58485314D02*
X133726464Y-57723314D01*
X133799035Y-57832171D01*
X133871607Y-57904742D01*
X133944178Y-57941028D01*
X132383892Y-58775600D02*
X132420178Y-58739314D01*
X132492750Y-58630457D01*
X132529035Y-58557885D01*
X132565321Y-58449028D01*
X132601607Y-58267600D01*
X132601607Y-58122457D01*
X132565321Y-57941028D01*
X132529035Y-57832171D01*
X132492750Y-57759600D01*
X132420178Y-57650742D01*
X132383892Y-57614457D01*
X132129892Y-57795885D02*
X132093607Y-57759600D01*
X132021035Y-57723314D01*
X131839607Y-57723314D01*
X131767035Y-57759600D01*
X131730750Y-57795885D01*
X131694464Y-57868457D01*
X131694464Y-57941028D01*
X131730750Y-58049885D01*
X132166178Y-58485314D01*
X131694464Y-58485314D01*
X131222750Y-57723314D02*
X131150178Y-57723314D01*
X131077607Y-57759600D01*
X131041321Y-57795885D01*
X131005035Y-57868457D01*
X130968750Y-58013600D01*
X130968750Y-58195028D01*
X131005035Y-58340171D01*
X131041321Y-58412742D01*
X131077607Y-58449028D01*
X131150178Y-58485314D01*
X131222750Y-58485314D01*
X131295321Y-58449028D01*
X131331607Y-58412742D01*
X131367892Y-58340171D01*
X131404178Y-58195028D01*
X131404178Y-58013600D01*
X131367892Y-57868457D01*
X131331607Y-57795885D01*
X131295321Y-57759600D01*
X131222750Y-57723314D01*
X130678464Y-57795885D02*
X130642178Y-57759600D01*
X130569607Y-57723314D01*
X130388178Y-57723314D01*
X130315607Y-57759600D01*
X130279321Y-57795885D01*
X130243035Y-57868457D01*
X130243035Y-57941028D01*
X130279321Y-58049885D01*
X130714750Y-58485314D01*
X130243035Y-58485314D01*
X129771321Y-57723314D02*
X129698750Y-57723314D01*
X129626178Y-57759600D01*
X129589892Y-57795885D01*
X129553607Y-57868457D01*
X129517321Y-58013600D01*
X129517321Y-58195028D01*
X129553607Y-58340171D01*
X129589892Y-58412742D01*
X129626178Y-58449028D01*
X129698750Y-58485314D01*
X129771321Y-58485314D01*
X129843892Y-58449028D01*
X129880178Y-58412742D01*
X129916464Y-58340171D01*
X129952750Y-58195028D01*
X129952750Y-58013600D01*
X129916464Y-57868457D01*
X129880178Y-57795885D01*
X129843892Y-57759600D01*
X129771321Y-57723314D01*
X129190750Y-58195028D02*
X128610178Y-58195028D01*
X127848178Y-58485314D02*
X128283607Y-58485314D01*
X128065892Y-58485314D02*
X128065892Y-57723314D01*
X128138464Y-57832171D01*
X128211035Y-57904742D01*
X128283607Y-57941028D01*
X127557892Y-57795885D02*
X127521607Y-57759600D01*
X127449035Y-57723314D01*
X127267607Y-57723314D01*
X127195035Y-57759600D01*
X127158750Y-57795885D01*
X127122464Y-57868457D01*
X127122464Y-57941028D01*
X127158750Y-58049885D01*
X127594178Y-58485314D01*
X127122464Y-58485314D01*
X126868464Y-58775600D02*
X126832178Y-58739314D01*
X126759607Y-58630457D01*
X126723321Y-58557885D01*
X126687035Y-58449028D01*
X126650750Y-58267600D01*
X126650750Y-58122457D01*
X126687035Y-57941028D01*
X126723321Y-57832171D01*
X126759607Y-57759600D01*
X126832178Y-57650742D01*
X126868464Y-57614457D01*
X141115142Y-66343348D02*
X141006285Y-66379634D01*
X140824857Y-66379634D01*
X140752285Y-66343348D01*
X140716000Y-66307062D01*
X140679714Y-66234491D01*
X140679714Y-66161920D01*
X140716000Y-66089348D01*
X140752285Y-66053062D01*
X140824857Y-66016777D01*
X140970000Y-65980491D01*
X141042571Y-65944205D01*
X141078857Y-65907920D01*
X141115142Y-65835348D01*
X141115142Y-65762777D01*
X141078857Y-65690205D01*
X141042571Y-65653920D01*
X140970000Y-65617634D01*
X140788571Y-65617634D01*
X140679714Y-65653920D01*
X140425714Y-65617634D02*
X140244285Y-66379634D01*
X140099142Y-65835348D01*
X139954000Y-66379634D01*
X139772571Y-65617634D01*
X139482285Y-66379634D02*
X139482285Y-65617634D01*
X139300857Y-65617634D01*
X139192000Y-65653920D01*
X139119428Y-65726491D01*
X139083142Y-65799062D01*
X139046857Y-65944205D01*
X139046857Y-66053062D01*
X139083142Y-66198205D01*
X139119428Y-66270777D01*
X139192000Y-66343348D01*
X139300857Y-66379634D01*
X139482285Y-66379634D01*
X141278428Y-67649634D02*
X141278428Y-66887634D01*
X141278428Y-67613348D02*
X141351000Y-67649634D01*
X141496142Y-67649634D01*
X141568714Y-67613348D01*
X141605000Y-67577062D01*
X141641285Y-67504491D01*
X141641285Y-67286777D01*
X141605000Y-67214205D01*
X141568714Y-67177920D01*
X141496142Y-67141634D01*
X141351000Y-67141634D01*
X141278428Y-67177920D01*
X140625285Y-67613348D02*
X140697857Y-67649634D01*
X140843000Y-67649634D01*
X140915571Y-67613348D01*
X140951857Y-67540777D01*
X140951857Y-67250491D01*
X140915571Y-67177920D01*
X140843000Y-67141634D01*
X140697857Y-67141634D01*
X140625285Y-67177920D01*
X140589000Y-67250491D01*
X140589000Y-67323062D01*
X140951857Y-67395634D01*
X140262428Y-67649634D02*
X140262428Y-66887634D01*
X140262428Y-67177920D02*
X140189857Y-67141634D01*
X140044714Y-67141634D01*
X139972142Y-67177920D01*
X139935857Y-67214205D01*
X139899571Y-67286777D01*
X139899571Y-67504491D01*
X139935857Y-67577062D01*
X139972142Y-67613348D01*
X140044714Y-67649634D01*
X140189857Y-67649634D01*
X140262428Y-67613348D01*
X139246428Y-67141634D02*
X139246428Y-67649634D01*
X139573000Y-67141634D02*
X139573000Y-67540777D01*
X139536714Y-67613348D01*
X139464142Y-67649634D01*
X139355285Y-67649634D01*
X139282714Y-67613348D01*
X139246428Y-67577062D01*
X138557000Y-67141634D02*
X138557000Y-67758491D01*
X138593285Y-67831062D01*
X138629571Y-67867348D01*
X138702142Y-67903634D01*
X138811000Y-67903634D01*
X138883571Y-67867348D01*
X138557000Y-67613348D02*
X138629571Y-67649634D01*
X138774714Y-67649634D01*
X138847285Y-67613348D01*
X138883571Y-67577062D01*
X138919857Y-67504491D01*
X138919857Y-67286777D01*
X138883571Y-67214205D01*
X138847285Y-67177920D01*
X138774714Y-67141634D01*
X138629571Y-67141634D01*
X138557000Y-67177920D01*
X141488280Y-61198880D02*
X140904080Y-61198880D01*
X140904080Y-61421433D01*
X140931900Y-61477071D01*
X140959719Y-61504890D01*
X141015357Y-61532709D01*
X141098814Y-61532709D01*
X141154452Y-61504890D01*
X141182271Y-61477071D01*
X141210090Y-61421433D01*
X141210090Y-61198880D01*
X140904080Y-61699623D02*
X140904080Y-62033452D01*
X141488280Y-61866538D02*
X140904080Y-61866538D01*
X141321366Y-62200366D02*
X141321366Y-62478557D01*
X141488280Y-62144728D02*
X140904080Y-62339461D01*
X141488280Y-62534195D01*
X141488280Y-63034938D02*
X141488280Y-62701109D01*
X141488280Y-62868023D02*
X140904080Y-62868023D01*
X140987538Y-62812385D01*
X141043176Y-62756747D01*
X141070995Y-62701109D01*
X138948280Y-61198880D02*
X138364080Y-61198880D01*
X138364080Y-61421433D01*
X138391900Y-61477071D01*
X138419719Y-61504890D01*
X138475357Y-61532709D01*
X138558814Y-61532709D01*
X138614452Y-61504890D01*
X138642271Y-61477071D01*
X138670090Y-61421433D01*
X138670090Y-61198880D01*
X138364080Y-61699623D02*
X138364080Y-62033452D01*
X138948280Y-61866538D02*
X138364080Y-61866538D01*
X138781366Y-62200366D02*
X138781366Y-62478557D01*
X138948280Y-62144728D02*
X138364080Y-62339461D01*
X138948280Y-62534195D01*
X138364080Y-62673290D02*
X138364080Y-63034938D01*
X138586633Y-62840204D01*
X138586633Y-62923661D01*
X138614452Y-62979300D01*
X138642271Y-63007119D01*
X138697909Y-63034938D01*
X138837004Y-63034938D01*
X138892642Y-63007119D01*
X138920461Y-62979300D01*
X138948280Y-62923661D01*
X138948280Y-62756747D01*
X138920461Y-62701109D01*
X138892642Y-62673290D01*
X123184557Y-56271280D02*
X123462747Y-56271280D01*
X123462747Y-55687080D01*
X122989823Y-55965271D02*
X122795090Y-55965271D01*
X122711633Y-56271280D02*
X122989823Y-56271280D01*
X122989823Y-55687080D01*
X122711633Y-55687080D01*
X122461261Y-56271280D02*
X122461261Y-55687080D01*
X122322166Y-55687080D01*
X122238709Y-55714900D01*
X122183071Y-55770538D01*
X122155252Y-55826176D01*
X122127433Y-55937452D01*
X122127433Y-56020909D01*
X122155252Y-56132185D01*
X122183071Y-56187823D01*
X122238709Y-56243461D01*
X122322166Y-56271280D01*
X122461261Y-56271280D01*
X125550385Y-60208280D02*
X125550385Y-59624080D01*
X125411290Y-59624080D01*
X125327833Y-59651900D01*
X125272195Y-59707538D01*
X125244376Y-59763176D01*
X125216557Y-59874452D01*
X125216557Y-59957909D01*
X125244376Y-60069185D01*
X125272195Y-60124823D01*
X125327833Y-60180461D01*
X125411290Y-60208280D01*
X125550385Y-60208280D01*
X124660176Y-60208280D02*
X124994004Y-60208280D01*
X124827090Y-60208280D02*
X124827090Y-59624080D01*
X124882728Y-59707538D01*
X124938366Y-59763176D01*
X124994004Y-59790995D01*
X124465442Y-59624080D02*
X124103795Y-59624080D01*
X124298528Y-59846633D01*
X124215071Y-59846633D01*
X124159433Y-59874452D01*
X124131614Y-59902271D01*
X124103795Y-59957909D01*
X124103795Y-60097004D01*
X124131614Y-60152642D01*
X124159433Y-60180461D01*
X124215071Y-60208280D01*
X124381985Y-60208280D01*
X124437623Y-60180461D01*
X124465442Y-60152642D01*
X125677385Y-57668280D02*
X125677385Y-57084080D01*
X125538290Y-57084080D01*
X125454833Y-57111900D01*
X125399195Y-57167538D01*
X125371376Y-57223176D01*
X125343557Y-57334452D01*
X125343557Y-57417909D01*
X125371376Y-57529185D01*
X125399195Y-57584823D01*
X125454833Y-57640461D01*
X125538290Y-57668280D01*
X125677385Y-57668280D01*
X125121004Y-57139719D02*
X125093185Y-57111900D01*
X125037547Y-57084080D01*
X124898452Y-57084080D01*
X124842814Y-57111900D01*
X124814995Y-57139719D01*
X124787176Y-57195357D01*
X124787176Y-57250995D01*
X124814995Y-57334452D01*
X125148823Y-57668280D01*
X124787176Y-57668280D01*
X124592442Y-57084080D02*
X124230795Y-57084080D01*
X124425528Y-57306633D01*
X124342071Y-57306633D01*
X124286433Y-57334452D01*
X124258614Y-57362271D01*
X124230795Y-57417909D01*
X124230795Y-57557004D01*
X124258614Y-57612642D01*
X124286433Y-57640461D01*
X124342071Y-57668280D01*
X124508985Y-57668280D01*
X124564623Y-57640461D01*
X124592442Y-57612642D01*
D11*
%TO.C,e*%
G36*
X141472889Y-58825488D02*
G01*
X141647908Y-58771117D01*
X141808676Y-58689516D01*
X141949445Y-58581264D01*
X142064471Y-58446938D01*
X142104895Y-58380736D01*
X142161997Y-58255359D01*
X142200022Y-58119984D01*
X142221082Y-57964359D01*
X142227300Y-57786449D01*
X142227965Y-57680737D01*
X142231151Y-57607155D01*
X142238641Y-57555509D01*
X142252223Y-57515600D01*
X142273680Y-57477234D01*
X142284296Y-57460899D01*
X142333796Y-57352986D01*
X142353046Y-57233082D01*
X142340960Y-57115621D01*
X142315495Y-57046850D01*
X142266959Y-56973064D01*
X142202163Y-56901896D01*
X142133645Y-56845584D01*
X142081576Y-56818458D01*
X142047960Y-56791159D01*
X142009153Y-56734488D01*
X141985665Y-56688627D01*
X141909365Y-56563268D01*
X141800717Y-56441961D01*
X141669382Y-56333974D01*
X141528800Y-56250404D01*
X141385825Y-56191135D01*
X141260043Y-56163249D01*
X141141651Y-56165520D01*
X141041730Y-56189511D01*
X140864807Y-56266120D01*
X140706584Y-56371025D01*
X140574014Y-56498416D01*
X140474046Y-56642478D01*
X140455175Y-56679963D01*
X140406321Y-56768206D01*
X140358599Y-56819029D01*
X140338707Y-56830052D01*
X140270686Y-56873820D01*
X140199744Y-56943619D01*
X140137464Y-57025713D01*
X140095434Y-57106364D01*
X140089076Y-57126052D01*
X140075235Y-57242075D01*
X140098468Y-57358357D01*
X140148385Y-57463266D01*
X140173484Y-57509217D01*
X140189292Y-57550935D01*
X140197551Y-57599607D01*
X140198781Y-57633129D01*
X140598818Y-57633129D01*
X140615018Y-57485143D01*
X140661738Y-57341855D01*
X140735556Y-57215561D01*
X140788439Y-57155898D01*
X140903844Y-57073035D01*
X141040909Y-57019077D01*
X141188867Y-56995710D01*
X141336953Y-57004620D01*
X141474402Y-57047494D01*
X141475884Y-57048193D01*
X141609497Y-57133815D01*
X141715795Y-57247973D01*
X141790516Y-57384064D01*
X141829395Y-57535484D01*
X141834022Y-57602883D01*
X141827999Y-57702298D01*
X141805488Y-57765743D01*
X141764497Y-57797023D01*
X141729884Y-57801933D01*
X141672778Y-57784829D01*
X141640032Y-57733370D01*
X141631512Y-57647334D01*
X141631878Y-57638848D01*
X141624405Y-57545421D01*
X141589205Y-57445378D01*
X141581266Y-57428700D01*
X141508967Y-57323070D01*
X141415761Y-57249023D01*
X141308997Y-57206618D01*
X141196027Y-57195915D01*
X141084200Y-57216973D01*
X140980866Y-57269853D01*
X140893374Y-57354615D01*
X140850539Y-57422753D01*
X140816627Y-57531207D01*
X140813490Y-57651527D01*
X140839328Y-57769578D01*
X140892341Y-57871228D01*
X140910482Y-57893369D01*
X140966825Y-57939326D01*
X141041473Y-57980422D01*
X141115966Y-58007632D01*
X141156381Y-58013600D01*
X141189098Y-58009113D01*
X141205938Y-57988181D01*
X141213763Y-57939597D01*
X141215432Y-57917157D01*
X141221884Y-57820714D01*
X141416902Y-57964782D01*
X141494203Y-58023100D01*
X141557154Y-58072899D01*
X141598903Y-58108600D01*
X141612694Y-58124168D01*
X141597093Y-58142206D01*
X141554106Y-58179755D01*
X141490428Y-58231217D01*
X141417675Y-58287281D01*
X141221884Y-58435076D01*
X141215576Y-58332763D01*
X141209268Y-58230451D01*
X141108480Y-58217081D01*
X140976822Y-58179538D01*
X140853064Y-58107136D01*
X140745491Y-58007349D01*
X140662393Y-57887648D01*
X140616561Y-57773513D01*
X140598818Y-57633129D01*
X140198781Y-57633129D01*
X140200003Y-57666420D01*
X140198389Y-57762563D01*
X140197877Y-57781162D01*
X140202899Y-57988203D01*
X140232039Y-58165775D01*
X140287470Y-58320607D01*
X140371362Y-58459432D01*
X140445244Y-58547555D01*
X140585113Y-58668689D01*
X140745205Y-58759127D01*
X140919775Y-58819449D01*
X141103076Y-58850232D01*
X141289362Y-58852052D01*
X141472889Y-58825488D01*
G37*
X141472889Y-58825488D02*
X141647908Y-58771117D01*
X141808676Y-58689516D01*
X141949445Y-58581264D01*
X142064471Y-58446938D01*
X142104895Y-58380736D01*
X142161997Y-58255359D01*
X142200022Y-58119984D01*
X142221082Y-57964359D01*
X142227300Y-57786449D01*
X142227965Y-57680737D01*
X142231151Y-57607155D01*
X142238641Y-57555509D01*
X142252223Y-57515600D01*
X142273680Y-57477234D01*
X142284296Y-57460899D01*
X142333796Y-57352986D01*
X142353046Y-57233082D01*
X142340960Y-57115621D01*
X142315495Y-57046850D01*
X142266959Y-56973064D01*
X142202163Y-56901896D01*
X142133645Y-56845584D01*
X142081576Y-56818458D01*
X142047960Y-56791159D01*
X142009153Y-56734488D01*
X141985665Y-56688627D01*
X141909365Y-56563268D01*
X141800717Y-56441961D01*
X141669382Y-56333974D01*
X141528800Y-56250404D01*
X141385825Y-56191135D01*
X141260043Y-56163249D01*
X141141651Y-56165520D01*
X141041730Y-56189511D01*
X140864807Y-56266120D01*
X140706584Y-56371025D01*
X140574014Y-56498416D01*
X140474046Y-56642478D01*
X140455175Y-56679963D01*
X140406321Y-56768206D01*
X140358599Y-56819029D01*
X140338707Y-56830052D01*
X140270686Y-56873820D01*
X140199744Y-56943619D01*
X140137464Y-57025713D01*
X140095434Y-57106364D01*
X140089076Y-57126052D01*
X140075235Y-57242075D01*
X140098468Y-57358357D01*
X140148385Y-57463266D01*
X140173484Y-57509217D01*
X140189292Y-57550935D01*
X140197551Y-57599607D01*
X140198781Y-57633129D01*
X140598818Y-57633129D01*
X140615018Y-57485143D01*
X140661738Y-57341855D01*
X140735556Y-57215561D01*
X140788439Y-57155898D01*
X140903844Y-57073035D01*
X141040909Y-57019077D01*
X141188867Y-56995710D01*
X141336953Y-57004620D01*
X141474402Y-57047494D01*
X141475884Y-57048193D01*
X141609497Y-57133815D01*
X141715795Y-57247973D01*
X141790516Y-57384064D01*
X141829395Y-57535484D01*
X141834022Y-57602883D01*
X141827999Y-57702298D01*
X141805488Y-57765743D01*
X141764497Y-57797023D01*
X141729884Y-57801933D01*
X141672778Y-57784829D01*
X141640032Y-57733370D01*
X141631512Y-57647334D01*
X141631878Y-57638848D01*
X141624405Y-57545421D01*
X141589205Y-57445378D01*
X141581266Y-57428700D01*
X141508967Y-57323070D01*
X141415761Y-57249023D01*
X141308997Y-57206618D01*
X141196027Y-57195915D01*
X141084200Y-57216973D01*
X140980866Y-57269853D01*
X140893374Y-57354615D01*
X140850539Y-57422753D01*
X140816627Y-57531207D01*
X140813490Y-57651527D01*
X140839328Y-57769578D01*
X140892341Y-57871228D01*
X140910482Y-57893369D01*
X140966825Y-57939326D01*
X141041473Y-57980422D01*
X141115966Y-58007632D01*
X141156381Y-58013600D01*
X141189098Y-58009113D01*
X141205938Y-57988181D01*
X141213763Y-57939597D01*
X141215432Y-57917157D01*
X141221884Y-57820714D01*
X141416902Y-57964782D01*
X141494203Y-58023100D01*
X141557154Y-58072899D01*
X141598903Y-58108600D01*
X141612694Y-58124168D01*
X141597093Y-58142206D01*
X141554106Y-58179755D01*
X141490428Y-58231217D01*
X141417675Y-58287281D01*
X141221884Y-58435076D01*
X141215576Y-58332763D01*
X141209268Y-58230451D01*
X141108480Y-58217081D01*
X140976822Y-58179538D01*
X140853064Y-58107136D01*
X140745491Y-58007349D01*
X140662393Y-57887648D01*
X140616561Y-57773513D01*
X140598818Y-57633129D01*
X140198781Y-57633129D01*
X140200003Y-57666420D01*
X140198389Y-57762563D01*
X140197877Y-57781162D01*
X140202899Y-57988203D01*
X140232039Y-58165775D01*
X140287470Y-58320607D01*
X140371362Y-58459432D01*
X140445244Y-58547555D01*
X140585113Y-58668689D01*
X140745205Y-58759127D01*
X140919775Y-58819449D01*
X141103076Y-58850232D01*
X141289362Y-58852052D01*
X141472889Y-58825488D01*
D12*
%TO.C,JP1*%
X142029400Y-64663600D02*
X142029400Y-64063600D01*
X138579400Y-65363600D02*
X141379400Y-65363600D01*
X137929400Y-64063600D02*
X137929400Y-64663600D01*
X141379400Y-63363600D02*
X138579400Y-63363600D01*
X142029400Y-64063600D02*
G75*
G03*
X141329400Y-63363600I-700000J0D01*
G01*
X141329400Y-65363600D02*
G75*
G03*
X142029400Y-64663600I0J700000D01*
G01*
X137929400Y-64663600D02*
G75*
G03*
X138629400Y-65363600I700000J0D01*
G01*
X138629400Y-63363600D02*
G75*
G03*
X137929400Y-64063600I0J-700000D01*
G01*
D10*
%TO.C,Y2*%
X136657400Y-64691400D02*
X134157400Y-64691400D01*
X134157400Y-61851400D02*
X136657400Y-61851400D01*
D12*
%TO.C,D2*%
X124744600Y-68695600D02*
X123814600Y-68695600D01*
X121584600Y-68695600D02*
X122514600Y-68695600D01*
X121584600Y-68695600D02*
X121584600Y-66535600D01*
X124744600Y-68695600D02*
X124744600Y-67235600D01*
%TO.C,JP2*%
X122509000Y-60754000D02*
X123109000Y-60754000D01*
X121809000Y-57304000D02*
X121809000Y-60104000D01*
X123109000Y-56654000D02*
X122509000Y-56654000D01*
X123809000Y-60104000D02*
X123809000Y-57304000D01*
X123109000Y-60754000D02*
G75*
G03*
X123809000Y-60054000I0J700000D01*
G01*
X121809000Y-60054000D02*
G75*
G03*
X122509000Y-60754000I700000J0D01*
G01*
X122509000Y-56654000D02*
G75*
G03*
X121809000Y-57354000I0J-700000D01*
G01*
X123809000Y-57354000D02*
G75*
G03*
X123109000Y-56654000I-700000J0D01*
G01*
%TD*%
%TO.C,JP1*%
D10*
X137905913Y-65394960D02*
X137905913Y-65812246D01*
X137933732Y-65895703D01*
X137989370Y-65951341D01*
X138072827Y-65979160D01*
X138128465Y-65979160D01*
X137627722Y-65979160D02*
X137627722Y-65394960D01*
X137405170Y-65394960D01*
X137349532Y-65422780D01*
X137321713Y-65450599D01*
X137293894Y-65506237D01*
X137293894Y-65589694D01*
X137321713Y-65645332D01*
X137349532Y-65673151D01*
X137405170Y-65700970D01*
X137627722Y-65700970D01*
X136737513Y-65979160D02*
X137071341Y-65979160D01*
X136904427Y-65979160D02*
X136904427Y-65394960D01*
X136960065Y-65478418D01*
X137015703Y-65534056D01*
X137071341Y-65561875D01*
%TO.C,Y2*%
X135625590Y-65365490D02*
X135625590Y-65643680D01*
X135820323Y-65059480D02*
X135625590Y-65365490D01*
X135430857Y-65059480D01*
X135263942Y-65115119D02*
X135236123Y-65087300D01*
X135180485Y-65059480D01*
X135041390Y-65059480D01*
X134985752Y-65087300D01*
X134957933Y-65115119D01*
X134930114Y-65170757D01*
X134930114Y-65226395D01*
X134957933Y-65309852D01*
X135291761Y-65643680D01*
X134930114Y-65643680D01*
%TO.C,D2*%
X123595795Y-65821680D02*
X123595795Y-65237480D01*
X123456700Y-65237480D01*
X123373242Y-65265300D01*
X123317604Y-65320938D01*
X123289785Y-65376576D01*
X123261966Y-65487852D01*
X123261966Y-65571309D01*
X123289785Y-65682585D01*
X123317604Y-65738223D01*
X123373242Y-65793861D01*
X123456700Y-65821680D01*
X123595795Y-65821680D01*
X123039414Y-65293119D02*
X123011595Y-65265300D01*
X122955957Y-65237480D01*
X122816861Y-65237480D01*
X122761223Y-65265300D01*
X122733404Y-65293119D01*
X122705585Y-65348757D01*
X122705585Y-65404395D01*
X122733404Y-65487852D01*
X123067233Y-65821680D01*
X122705585Y-65821680D01*
%TO.C,JP2*%
X123295833Y-61071880D02*
X123295833Y-61489166D01*
X123323652Y-61572623D01*
X123379290Y-61628261D01*
X123462747Y-61656080D01*
X123518385Y-61656080D01*
X123017642Y-61656080D02*
X123017642Y-61071880D01*
X122795090Y-61071880D01*
X122739452Y-61099700D01*
X122711633Y-61127519D01*
X122683814Y-61183157D01*
X122683814Y-61266614D01*
X122711633Y-61322252D01*
X122739452Y-61350071D01*
X122795090Y-61377890D01*
X123017642Y-61377890D01*
X122461261Y-61127519D02*
X122433442Y-61099700D01*
X122377804Y-61071880D01*
X122238709Y-61071880D01*
X122183071Y-61099700D01*
X122155252Y-61127519D01*
X122127433Y-61183157D01*
X122127433Y-61238795D01*
X122155252Y-61322252D01*
X122489080Y-61656080D01*
X122127433Y-61656080D01*
%TD*%
M02*
