M48
; DRILL file {KiCad (5.1.5)-3} date 17/12/2020 07:42:59
; FORMAT={-:-/ absolute / inch / decimal}
; #@! TF.CreationDate,2020-12-17T07:42:59+01:00
; #@! TF.GenerationSoftware,Kicad,Pcbnew,(5.1.5)-3
; #@! TF.FileFunction,Plated,1,4,PTH
FMAT,2
INCH
T1C0.0080
T2C0.0150
%
G90
G05
T1
X4.879Y-2.31
X4.919Y-2.846
X4.9333Y-2.597
X4.938Y-2.3595
X4.939Y-2.4065
X4.939Y-2.31
X4.939Y-2.383
X4.939Y-2.44
X4.9625Y-2.854
X4.9968Y-2.8625
X5.0038Y-2.7878
X5.0085Y-2.4823
X5.0123Y-2.4591
X5.0134Y-2.8458
X5.0155Y-2.3995
X5.025Y-2.225
X5.025Y-2.3314
X5.027Y-2.5807
X5.027Y-2.774
X5.0349Y-2.8624
X5.0352Y-2.5189
X5.0361Y-2.5424
X5.047Y-2.757
X5.0484Y-2.3102
X5.052Y-2.8463
X5.0547Y-2.5057
X5.065Y-2.45
X5.0708Y-2.8623
X5.073Y-2.758
X5.0806Y-2.4836
X5.0821Y-2.4004
X5.083Y-2.4343
X5.085Y-2.31
X5.0892Y-2.8477
X5.1118Y-2.6322
X5.1156Y-2.3907
X5.1227Y-2.848
X5.133Y-2.35
X5.1341Y-2.4906
X5.1422Y-2.3097
X5.1495Y-2.3682
X5.1497Y-2.5094
X5.1758Y-2.452
X5.1762Y-2.8508
X5.1808Y-2.31
X5.1895Y-2.7744
X5.1931Y-2.3688
X5.2025Y-2.3353
X5.209Y-2.3089
X5.2135Y-2.774
X5.2359Y-2.309
X5.2528Y-2.413
X5.2636Y-2.5008
X5.267Y-2.31
X5.2944Y-2.8123
X5.295Y-2.5638
X5.3024Y-2.7894
X5.3357Y-2.8129
X5.3524Y-2.8296
X5.3708Y-2.7792
X5.383Y-2.579
X5.3832Y-2.6051
X5.3959Y-2.8125
X5.3996Y-2.8357
X5.4108Y-2.5476
X5.411Y-2.481
X5.4251Y-2.8581
X5.432Y-2.47
X5.4545Y-2.7485
X5.495Y-2.342
X5.499Y-2.438
X5.5089Y-2.8507
X5.5324Y-2.8503
X5.579Y-2.62
X5.605Y-2.528
T2
X4.798Y-2.785
X4.8488Y-2.7517
X4.85Y-2.6788
X4.861Y-2.842
X4.9035Y-2.7595
X4.967Y-2.148
X5.087Y-2.184
X5.1215Y-2.6632
X5.223Y-2.862
X5.2511Y-2.7887
X5.426Y-2.416
X5.511Y-2.534
X5.539Y-2.73
X5.543Y-2.824
X5.567Y-2.471
X5.585Y-2.782
T0
M30
