%TF.GenerationSoftware,KiCad,Pcbnew,(5.1.5)-3*%
%TF.CreationDate,2020-12-17T07:42:55+01:00*%
%TF.ProjectId,TeensyMM,5465656e-7379-44d4-9d2e-6b696361645f,rev?*%
%TF.SameCoordinates,Original*%
%TF.FileFunction,Copper,L3,Inr*%
%TF.FilePolarity,Positive*%
%FSLAX46Y46*%
G04 Gerber Fmt 4.6, Leading zero omitted, Abs format (unit mm)*
G04 Created by KiCad (PCBNEW (5.1.5)-3) date 2020-12-17 07:42:55*
%MOMM*%
%LPD*%
G04 APERTURE LIST*
%TA.AperFunction,ViaPad*%
%ADD10C,0.469900*%
%TD*%
%TA.AperFunction,ViaPad*%
%ADD11C,0.635000*%
%TD*%
%TA.AperFunction,Conductor*%
%ADD12C,0.127000*%
%TD*%
G04 APERTURE END LIST*
D10*
%TO.N,GND*%
X128651000Y-62230000D03*
D11*
X129209800Y-55473600D03*
D10*
X139573000Y-59486800D03*
D11*
X139979400Y-64363600D03*
X141859000Y-70662800D03*
X132664190Y-72694800D03*
X133376793Y-70832167D03*
X123160612Y-69891982D03*
X123190000Y-68041098D03*
D10*
X127685800Y-70459600D03*
D11*
X121869200Y-70739000D03*
D10*
%TO.N,+3V3*%
X127393700Y-60947300D03*
D11*
X140690600Y-69342000D03*
X141401800Y-62763400D03*
X126161800Y-54559200D03*
D10*
X125450600Y-58674000D03*
D11*
X140792200Y-71729600D03*
X124548900Y-70091300D03*
X137820400Y-61366406D03*
X123469390Y-72186800D03*
X130086893Y-67645016D03*
D10*
%TO.N,USB-D-*%
X128854196Y-70053200D03*
X139924829Y-72407235D03*
%TO.N,USB-D+*%
X140521732Y-72398519D03*
X128193800Y-70027800D03*
%TO.N,RESET*%
X133781798Y-58674000D03*
X137972800Y-62738000D03*
X141706600Y-66547996D03*
%TO.N,SWD_CLK*%
X130801521Y-63738417D03*
X135951424Y-71872821D03*
%TO.N,SWD_DIO*%
X137439400Y-63017400D03*
X137433060Y-64708097D03*
X135525964Y-71448079D03*
X130405998Y-63260504D03*
%TO.N,/PTB1*%
X133695438Y-63519706D03*
X136732179Y-66170390D03*
%TO.N,D06-PTD4*%
X127685800Y-65551040D03*
%TO.N,D08-PTD3*%
X127917846Y-64577124D03*
%TO.N,D07-PTD2*%
X127895155Y-63980644D03*
%TO.N,D14-PTD1*%
X128388808Y-63645069D03*
%TO.N,D02-PTD0*%
X129047064Y-63083329D03*
%TO.N,Net-(D1-Pad2)*%
X123926600Y-58674000D03*
%TO.N,DAC*%
X129838515Y-66857880D03*
%TO.N,D32-CTS1*%
X130377905Y-59690287D03*
X137056347Y-71437275D03*
%TO.N,D25-RTS1*%
X129159002Y-58674000D03*
X134681103Y-70851376D03*
%TO.N,ADC1_P*%
X131813302Y-70470030D03*
%TO.N,ADC1_N*%
X132422900Y-70459602D03*
%TO.N,D13-SCK*%
X125425617Y-59931811D03*
X127339300Y-72284142D03*
%TO.N,/PTA3*%
X139674600Y-61925200D03*
%TO.N,/PTA1*%
X142367000Y-64211200D03*
%TO.N,D01-TX1*%
X131904630Y-60167152D03*
X137798086Y-72596278D03*
%TO.N,D00-RX1*%
X130611191Y-58666684D03*
X137150568Y-72027200D03*
%TO.N,D10-TX2*%
X129937010Y-60724189D03*
%TO.N,D09-RX2*%
X130797499Y-60151191D03*
%TO.N,D12-MISO*%
X125450589Y-61125111D03*
X126047602Y-72491044D03*
%TO.N,D11-MOSI*%
X126918286Y-72708366D03*
X125450600Y-60528200D03*
%TO.N,D15-CS*%
X127635000Y-59217489D03*
X127886027Y-72705838D03*
%TO.N,D17_A3*%
X132308600Y-58645444D03*
X138544630Y-69811572D03*
X136417082Y-70592940D03*
%TO.N,D19-SCL0*%
X131591060Y-58674000D03*
%TO.N,D18-SDA0*%
X132142382Y-59317563D03*
%TO.N,D16_A2*%
X132990595Y-58647699D03*
%TO.N,D22-A8*%
X128229206Y-58679972D03*
X130117787Y-72339194D03*
%TO.N,D27_A16*%
X125450600Y-61976022D03*
X124942679Y-72288400D03*
%TO.N,D28_A17*%
X133419893Y-61290194D03*
%TO.N,D03-CAN-TX*%
X129108200Y-61829983D03*
X131476721Y-72411038D03*
%TO.N,D04-CAN-TX*%
X129086099Y-60971206D03*
X134478367Y-71432348D03*
%TO.N,D29-SCL1*%
X127311962Y-62461041D03*
X128320374Y-72296391D03*
%TO.N,D30-SDA1*%
X128799040Y-72703050D03*
X127215702Y-63050140D03*
%TO.N,D24-I2C-INT*%
X131464115Y-62281549D03*
%TO.N,D26_A15-BAT_VIN3*%
X129266875Y-72332329D03*
X127095821Y-70809421D03*
%TO.N,D23*%
X127635000Y-56515000D03*
%TO.N,Net-(U1-Pad20)*%
X136728200Y-65506600D03*
%TO.N,Net-(U1-Pad19)*%
X134492996Y-65119271D03*
%TO.N,Net-(D2-Pad3)*%
X125304565Y-65963800D03*
%TD*%
D12*
%TO.N,+3V3*%
G36*
X134192025Y-54022775D02*
G01*
X134196816Y-54045314D01*
X134201283Y-54067876D01*
X134202331Y-54071264D01*
X134305602Y-54396817D01*
X134314699Y-54418042D01*
X134323445Y-54439261D01*
X134325129Y-54442376D01*
X134325131Y-54442381D01*
X134325134Y-54442385D01*
X134489669Y-54741674D01*
X134502695Y-54760699D01*
X134515416Y-54779845D01*
X134517670Y-54782570D01*
X134517675Y-54782577D01*
X134517681Y-54782582D01*
X134737214Y-55044212D01*
X134753692Y-55060349D01*
X134769883Y-55076654D01*
X134772631Y-55078896D01*
X135038806Y-55292906D01*
X135058084Y-55305522D01*
X135077156Y-55318386D01*
X135080282Y-55320048D01*
X135080286Y-55320051D01*
X135080290Y-55320053D01*
X135382961Y-55478285D01*
X135404329Y-55486918D01*
X135425529Y-55495830D01*
X135428923Y-55496855D01*
X135756568Y-55593286D01*
X135779252Y-55597613D01*
X135801734Y-55602228D01*
X135805263Y-55602575D01*
X136145397Y-55633529D01*
X136168489Y-55633368D01*
X136191438Y-55633528D01*
X136194967Y-55633183D01*
X136194971Y-55633183D01*
X136534636Y-55597483D01*
X136557262Y-55592838D01*
X136579801Y-55588539D01*
X136583196Y-55587515D01*
X136909462Y-55486519D01*
X136930736Y-55477576D01*
X136952029Y-55468973D01*
X136955156Y-55467311D01*
X136955161Y-55467309D01*
X136955165Y-55467306D01*
X137255597Y-55304864D01*
X137274701Y-55291978D01*
X137293946Y-55279384D01*
X137296694Y-55277143D01*
X137559855Y-55059437D01*
X137576097Y-55043082D01*
X137592525Y-55026994D01*
X137594780Y-55024268D01*
X137594786Y-55024262D01*
X137594790Y-55024255D01*
X137810648Y-54759587D01*
X137823394Y-54740403D01*
X137836394Y-54721417D01*
X137838080Y-54718298D01*
X137998424Y-54416736D01*
X138007205Y-54395433D01*
X138016266Y-54374292D01*
X138017315Y-54370904D01*
X138116031Y-54043941D01*
X138120508Y-54021333D01*
X138125289Y-53998839D01*
X138125660Y-53995313D01*
X138136514Y-53884617D01*
X142140672Y-53884617D01*
X142299151Y-53904068D01*
X142441928Y-53951002D01*
X142572874Y-54024779D01*
X142686990Y-54122578D01*
X142779941Y-54240686D01*
X142848181Y-54374598D01*
X142889838Y-54521783D01*
X142902200Y-54643486D01*
X142902201Y-71014604D01*
X142892209Y-71093617D01*
X142869877Y-71160720D01*
X142834940Y-71222201D01*
X142788723Y-71275729D01*
X142732991Y-71319260D01*
X142669864Y-71351137D01*
X142598723Y-71370990D01*
X142530532Y-71377917D01*
X142529067Y-71378212D01*
X142527580Y-71378235D01*
X142524060Y-71378659D01*
X142466190Y-71386041D01*
X142448752Y-71390025D01*
X142431122Y-71393052D01*
X142427709Y-71394014D01*
X142331975Y-71421724D01*
X142310548Y-71430270D01*
X142289090Y-71438482D01*
X142285929Y-71440088D01*
X142197402Y-71485865D01*
X142178018Y-71498426D01*
X142158589Y-71510634D01*
X142155807Y-71512818D01*
X142155800Y-71512823D01*
X142155794Y-71512829D01*
X142077850Y-71574925D01*
X142061314Y-71590974D01*
X142044588Y-71606759D01*
X142042278Y-71609449D01*
X141977875Y-71685507D01*
X141964775Y-71704456D01*
X141951430Y-71723195D01*
X141949686Y-71726283D01*
X141901282Y-71813402D01*
X141892103Y-71834556D01*
X141882660Y-71855512D01*
X141881549Y-71858879D01*
X141850989Y-71953741D01*
X141846098Y-71976253D01*
X141840901Y-71998663D01*
X141840465Y-72002182D01*
X141831544Y-72078624D01*
X141830876Y-72080825D01*
X141827200Y-72118149D01*
X141827201Y-75376617D01*
X135635200Y-75376617D01*
X135635200Y-72718148D01*
X135633929Y-72705243D01*
X135633929Y-72697454D01*
X135633559Y-72693927D01*
X135620506Y-72577557D01*
X135615712Y-72554999D01*
X135615589Y-72554375D01*
X137372636Y-72554375D01*
X137372636Y-72638181D01*
X137388985Y-72720377D01*
X137421057Y-72797804D01*
X137467617Y-72867487D01*
X137526877Y-72926747D01*
X137596560Y-72973307D01*
X137673987Y-73005379D01*
X137756183Y-73021728D01*
X137839989Y-73021728D01*
X137922185Y-73005379D01*
X137999612Y-72973307D01*
X138069295Y-72926747D01*
X138128555Y-72867487D01*
X138175115Y-72797804D01*
X138207187Y-72720377D01*
X138223536Y-72638181D01*
X138223536Y-72554375D01*
X138207187Y-72472179D01*
X138175115Y-72394752D01*
X138155458Y-72365332D01*
X139499379Y-72365332D01*
X139499379Y-72449138D01*
X139515728Y-72531334D01*
X139547800Y-72608761D01*
X139594360Y-72678444D01*
X139653620Y-72737704D01*
X139723303Y-72784264D01*
X139800730Y-72816336D01*
X139882926Y-72832685D01*
X139966732Y-72832685D01*
X140048928Y-72816336D01*
X140126355Y-72784264D01*
X140196038Y-72737704D01*
X140227639Y-72706104D01*
X140250523Y-72728988D01*
X140320206Y-72775548D01*
X140397633Y-72807620D01*
X140479829Y-72823969D01*
X140563635Y-72823969D01*
X140645831Y-72807620D01*
X140723258Y-72775548D01*
X140792941Y-72728988D01*
X140852201Y-72669728D01*
X140898761Y-72600045D01*
X140930833Y-72522618D01*
X140947182Y-72440422D01*
X140947182Y-72356616D01*
X140930833Y-72274420D01*
X140898761Y-72196993D01*
X140852201Y-72127310D01*
X140792941Y-72068050D01*
X140723258Y-72021490D01*
X140645831Y-71989418D01*
X140563635Y-71973069D01*
X140479829Y-71973069D01*
X140397633Y-71989418D01*
X140320206Y-72021490D01*
X140250523Y-72068050D01*
X140218923Y-72099651D01*
X140196038Y-72076766D01*
X140126355Y-72030206D01*
X140048928Y-71998134D01*
X139966732Y-71981785D01*
X139882926Y-71981785D01*
X139800730Y-71998134D01*
X139723303Y-72030206D01*
X139653620Y-72076766D01*
X139594360Y-72136026D01*
X139547800Y-72205709D01*
X139515728Y-72283136D01*
X139499379Y-72365332D01*
X138155458Y-72365332D01*
X138128555Y-72325069D01*
X138069295Y-72265809D01*
X137999612Y-72219249D01*
X137922185Y-72187177D01*
X137839989Y-72170828D01*
X137756183Y-72170828D01*
X137673987Y-72187177D01*
X137596560Y-72219249D01*
X137526877Y-72265809D01*
X137467617Y-72325069D01*
X137421057Y-72394752D01*
X137388985Y-72472179D01*
X137372636Y-72554375D01*
X135615589Y-72554375D01*
X135611248Y-72532455D01*
X135610202Y-72529075D01*
X135610200Y-72529068D01*
X135610197Y-72529062D01*
X135574791Y-72417449D01*
X135565714Y-72396271D01*
X135556949Y-72375006D01*
X135555263Y-72371886D01*
X135498850Y-72269272D01*
X135485824Y-72250248D01*
X135473104Y-72231102D01*
X135470844Y-72228370D01*
X135470843Y-72228368D01*
X135470839Y-72228364D01*
X135395574Y-72138666D01*
X135379112Y-72122545D01*
X135362903Y-72106222D01*
X135360161Y-72103986D01*
X135360156Y-72103981D01*
X135360151Y-72103977D01*
X135268895Y-72030606D01*
X135249613Y-72017988D01*
X135230545Y-72005127D01*
X135227419Y-72003465D01*
X135227415Y-72003462D01*
X135227411Y-72003460D01*
X135123640Y-71949211D01*
X135102269Y-71940576D01*
X135081073Y-71931666D01*
X135077684Y-71930643D01*
X135077677Y-71930640D01*
X135077670Y-71930639D01*
X134965344Y-71897579D01*
X134942668Y-71893253D01*
X134920179Y-71888637D01*
X134916650Y-71888290D01*
X134800032Y-71877677D01*
X134776939Y-71877838D01*
X134753990Y-71877678D01*
X134750461Y-71878023D01*
X134750459Y-71878023D01*
X134634003Y-71890263D01*
X134611377Y-71894908D01*
X134588838Y-71899207D01*
X134585443Y-71900231D01*
X134473581Y-71934858D01*
X134452315Y-71943797D01*
X134431015Y-71952403D01*
X134427892Y-71954064D01*
X134427882Y-71954068D01*
X134427874Y-71954073D01*
X134324877Y-72009763D01*
X134305776Y-72022646D01*
X134286526Y-72035243D01*
X134283778Y-72037484D01*
X134193552Y-72112126D01*
X134177294Y-72128497D01*
X134160883Y-72144568D01*
X134158622Y-72147300D01*
X134084611Y-72238046D01*
X134071847Y-72257257D01*
X134058865Y-72276217D01*
X134057178Y-72279336D01*
X134002203Y-72382729D01*
X133993403Y-72404079D01*
X133984362Y-72425174D01*
X133983316Y-72428551D01*
X133983312Y-72428561D01*
X133983310Y-72428571D01*
X133949468Y-72540662D01*
X133944996Y-72563249D01*
X133940210Y-72585763D01*
X133939839Y-72589290D01*
X133928412Y-72705831D01*
X133928412Y-72705843D01*
X133927200Y-72718149D01*
X133927201Y-75376617D01*
X122485200Y-75376617D01*
X122485200Y-72246497D01*
X124517229Y-72246497D01*
X124517229Y-72330303D01*
X124533578Y-72412499D01*
X124565650Y-72489926D01*
X124612210Y-72559609D01*
X124671470Y-72618869D01*
X124741153Y-72665429D01*
X124818580Y-72697501D01*
X124900776Y-72713850D01*
X124984582Y-72713850D01*
X125066778Y-72697501D01*
X125144205Y-72665429D01*
X125213888Y-72618869D01*
X125273148Y-72559609D01*
X125319708Y-72489926D01*
X125336602Y-72449141D01*
X125622152Y-72449141D01*
X125622152Y-72532947D01*
X125638501Y-72615143D01*
X125670573Y-72692570D01*
X125717133Y-72762253D01*
X125776393Y-72821513D01*
X125846076Y-72868073D01*
X125923503Y-72900145D01*
X126005699Y-72916494D01*
X126089505Y-72916494D01*
X126171701Y-72900145D01*
X126249128Y-72868073D01*
X126318811Y-72821513D01*
X126378071Y-72762253D01*
X126424631Y-72692570D01*
X126435445Y-72666463D01*
X126492836Y-72666463D01*
X126492836Y-72750269D01*
X126509185Y-72832465D01*
X126541257Y-72909892D01*
X126587817Y-72979575D01*
X126647077Y-73038835D01*
X126716760Y-73085395D01*
X126794187Y-73117467D01*
X126876383Y-73133816D01*
X126960189Y-73133816D01*
X127042385Y-73117467D01*
X127119812Y-73085395D01*
X127189495Y-73038835D01*
X127248755Y-72979575D01*
X127295315Y-72909892D01*
X127327387Y-72832465D01*
X127343736Y-72750269D01*
X127343736Y-72709592D01*
X127381203Y-72709592D01*
X127460577Y-72693804D01*
X127460577Y-72747741D01*
X127476926Y-72829937D01*
X127508998Y-72907364D01*
X127555558Y-72977047D01*
X127614818Y-73036307D01*
X127684501Y-73082867D01*
X127761928Y-73114939D01*
X127844124Y-73131288D01*
X127927930Y-73131288D01*
X128010126Y-73114939D01*
X128087553Y-73082867D01*
X128157236Y-73036307D01*
X128216496Y-72977047D01*
X128263056Y-72907364D01*
X128295128Y-72829937D01*
X128311477Y-72747741D01*
X128311477Y-72721841D01*
X128362277Y-72721841D01*
X128373590Y-72719591D01*
X128373590Y-72744953D01*
X128389939Y-72827149D01*
X128422011Y-72904576D01*
X128468571Y-72974259D01*
X128527831Y-73033519D01*
X128597514Y-73080079D01*
X128674941Y-73112151D01*
X128757137Y-73128500D01*
X128840943Y-73128500D01*
X128923139Y-73112151D01*
X129000566Y-73080079D01*
X129070249Y-73033519D01*
X129129509Y-72974259D01*
X129176069Y-72904576D01*
X129208141Y-72827149D01*
X129222054Y-72757199D01*
X129224972Y-72757779D01*
X129308778Y-72757779D01*
X129390974Y-72741430D01*
X129468401Y-72709358D01*
X129538084Y-72662798D01*
X129597344Y-72603538D01*
X129643904Y-72533855D01*
X129675976Y-72456428D01*
X129692325Y-72374232D01*
X129692325Y-72297291D01*
X129692337Y-72297291D01*
X129692337Y-72381097D01*
X129708686Y-72463293D01*
X129740758Y-72540720D01*
X129787318Y-72610403D01*
X129846578Y-72669663D01*
X129916261Y-72716223D01*
X129993688Y-72748295D01*
X130075884Y-72764644D01*
X130159690Y-72764644D01*
X130241886Y-72748295D01*
X130319313Y-72716223D01*
X130388996Y-72669663D01*
X130448256Y-72610403D01*
X130494816Y-72540720D01*
X130526888Y-72463293D01*
X130543237Y-72381097D01*
X130543237Y-72369135D01*
X131051271Y-72369135D01*
X131051271Y-72452941D01*
X131067620Y-72535137D01*
X131099692Y-72612564D01*
X131146252Y-72682247D01*
X131205512Y-72741507D01*
X131275195Y-72788067D01*
X131352622Y-72820139D01*
X131434818Y-72836488D01*
X131518624Y-72836488D01*
X131600820Y-72820139D01*
X131678247Y-72788067D01*
X131747930Y-72741507D01*
X131807190Y-72682247D01*
X131832233Y-72644766D01*
X132156190Y-72644766D01*
X132156190Y-72744834D01*
X132175712Y-72842978D01*
X132214006Y-72935428D01*
X132269601Y-73018631D01*
X132340359Y-73089389D01*
X132423562Y-73144984D01*
X132516012Y-73183278D01*
X132614156Y-73202800D01*
X132714224Y-73202800D01*
X132812368Y-73183278D01*
X132904818Y-73144984D01*
X132988021Y-73089389D01*
X133058779Y-73018631D01*
X133114374Y-72935428D01*
X133152668Y-72842978D01*
X133172190Y-72744834D01*
X133172190Y-72644766D01*
X133152668Y-72546622D01*
X133114374Y-72454172D01*
X133058779Y-72370969D01*
X132988021Y-72300211D01*
X132904818Y-72244616D01*
X132812368Y-72206322D01*
X132714224Y-72186800D01*
X132614156Y-72186800D01*
X132516012Y-72206322D01*
X132423562Y-72244616D01*
X132340359Y-72300211D01*
X132269601Y-72370969D01*
X132214006Y-72454172D01*
X132175712Y-72546622D01*
X132156190Y-72644766D01*
X131832233Y-72644766D01*
X131853750Y-72612564D01*
X131885822Y-72535137D01*
X131902171Y-72452941D01*
X131902171Y-72369135D01*
X131885822Y-72286939D01*
X131853750Y-72209512D01*
X131807190Y-72139829D01*
X131747930Y-72080569D01*
X131678247Y-72034009D01*
X131600820Y-72001937D01*
X131518624Y-71985588D01*
X131434818Y-71985588D01*
X131352622Y-72001937D01*
X131275195Y-72034009D01*
X131205512Y-72080569D01*
X131146252Y-72139829D01*
X131099692Y-72209512D01*
X131067620Y-72286939D01*
X131051271Y-72369135D01*
X130543237Y-72369135D01*
X130543237Y-72297291D01*
X130526888Y-72215095D01*
X130494816Y-72137668D01*
X130448256Y-72067985D01*
X130388996Y-72008725D01*
X130319313Y-71962165D01*
X130241886Y-71930093D01*
X130159690Y-71913744D01*
X130075884Y-71913744D01*
X129993688Y-71930093D01*
X129916261Y-71962165D01*
X129846578Y-72008725D01*
X129787318Y-72067985D01*
X129740758Y-72137668D01*
X129708686Y-72215095D01*
X129692337Y-72297291D01*
X129692325Y-72297291D01*
X129692325Y-72290426D01*
X129675976Y-72208230D01*
X129643904Y-72130803D01*
X129597344Y-72061120D01*
X129538084Y-72001860D01*
X129468401Y-71955300D01*
X129390974Y-71923228D01*
X129308778Y-71906879D01*
X129224972Y-71906879D01*
X129142776Y-71923228D01*
X129065349Y-71955300D01*
X128995666Y-72001860D01*
X128936406Y-72061120D01*
X128889846Y-72130803D01*
X128857774Y-72208230D01*
X128843861Y-72278180D01*
X128840943Y-72277600D01*
X128757137Y-72277600D01*
X128745824Y-72279850D01*
X128745824Y-72254488D01*
X128729475Y-72172292D01*
X128697403Y-72094865D01*
X128650843Y-72025182D01*
X128591583Y-71965922D01*
X128521900Y-71919362D01*
X128444473Y-71887290D01*
X128362277Y-71870941D01*
X128278471Y-71870941D01*
X128196275Y-71887290D01*
X128118848Y-71919362D01*
X128049165Y-71965922D01*
X127989905Y-72025182D01*
X127943345Y-72094865D01*
X127911273Y-72172292D01*
X127894924Y-72254488D01*
X127894924Y-72280388D01*
X127844124Y-72280388D01*
X127764750Y-72296176D01*
X127764750Y-72242239D01*
X127748401Y-72160043D01*
X127716329Y-72082616D01*
X127669769Y-72012933D01*
X127610509Y-71953673D01*
X127540826Y-71907113D01*
X127463399Y-71875041D01*
X127381203Y-71858692D01*
X127297397Y-71858692D01*
X127215201Y-71875041D01*
X127137774Y-71907113D01*
X127068091Y-71953673D01*
X127008831Y-72012933D01*
X126962271Y-72082616D01*
X126930199Y-72160043D01*
X126913850Y-72242239D01*
X126913850Y-72282916D01*
X126876383Y-72282916D01*
X126794187Y-72299265D01*
X126716760Y-72331337D01*
X126647077Y-72377897D01*
X126587817Y-72437157D01*
X126541257Y-72506840D01*
X126509185Y-72584267D01*
X126492836Y-72666463D01*
X126435445Y-72666463D01*
X126456703Y-72615143D01*
X126473052Y-72532947D01*
X126473052Y-72449141D01*
X126456703Y-72366945D01*
X126424631Y-72289518D01*
X126378071Y-72219835D01*
X126318811Y-72160575D01*
X126249128Y-72114015D01*
X126171701Y-72081943D01*
X126089505Y-72065594D01*
X126005699Y-72065594D01*
X125923503Y-72081943D01*
X125846076Y-72114015D01*
X125776393Y-72160575D01*
X125717133Y-72219835D01*
X125670573Y-72289518D01*
X125638501Y-72366945D01*
X125622152Y-72449141D01*
X125336602Y-72449141D01*
X125351780Y-72412499D01*
X125368129Y-72330303D01*
X125368129Y-72246497D01*
X125351780Y-72164301D01*
X125319708Y-72086874D01*
X125273148Y-72017191D01*
X125213888Y-71957931D01*
X125144205Y-71911371D01*
X125066778Y-71879299D01*
X124984582Y-71862950D01*
X124900776Y-71862950D01*
X124818580Y-71879299D01*
X124741153Y-71911371D01*
X124671470Y-71957931D01*
X124612210Y-72017191D01*
X124565650Y-72086874D01*
X124533578Y-72164301D01*
X124517229Y-72246497D01*
X122485200Y-72246497D01*
X122485200Y-72118148D01*
X122484262Y-72108629D01*
X122480788Y-72062755D01*
X122477915Y-72046348D01*
X122476107Y-72029816D01*
X122475356Y-72026351D01*
X122453307Y-71928042D01*
X122446094Y-71906158D01*
X122439200Y-71884214D01*
X122437790Y-71880961D01*
X122397064Y-71788805D01*
X122385733Y-71768728D01*
X122374714Y-71748553D01*
X122372704Y-71745645D01*
X122372698Y-71745634D01*
X122372690Y-71745625D01*
X122314851Y-71663147D01*
X122299826Y-71645643D01*
X122285107Y-71628002D01*
X122282563Y-71625531D01*
X122209794Y-71555849D01*
X122191653Y-71541594D01*
X122173790Y-71527151D01*
X122170815Y-71525221D01*
X122085897Y-71471000D01*
X122065349Y-71460549D01*
X122045007Y-71449842D01*
X122041723Y-71448532D01*
X122041712Y-71448526D01*
X122041701Y-71448523D01*
X121947882Y-71411833D01*
X121925704Y-71405574D01*
X121903657Y-71399019D01*
X121900177Y-71398370D01*
X121900173Y-71398369D01*
X121900169Y-71398369D01*
X121855948Y-71390445D01*
X134052917Y-71390445D01*
X134052917Y-71474251D01*
X134069266Y-71556447D01*
X134101338Y-71633874D01*
X134147898Y-71703557D01*
X134207158Y-71762817D01*
X134276841Y-71809377D01*
X134354268Y-71841449D01*
X134436464Y-71857798D01*
X134520270Y-71857798D01*
X134602466Y-71841449D01*
X134679893Y-71809377D01*
X134749576Y-71762817D01*
X134808836Y-71703557D01*
X134855396Y-71633874D01*
X134887468Y-71556447D01*
X134903817Y-71474251D01*
X134903817Y-71406176D01*
X135100514Y-71406176D01*
X135100514Y-71489982D01*
X135116863Y-71572178D01*
X135148935Y-71649605D01*
X135195495Y-71719288D01*
X135254755Y-71778548D01*
X135324438Y-71825108D01*
X135401865Y-71857180D01*
X135484061Y-71873529D01*
X135525974Y-71873529D01*
X135525974Y-71914724D01*
X135542323Y-71996920D01*
X135574395Y-72074347D01*
X135620955Y-72144030D01*
X135680215Y-72203290D01*
X135749898Y-72249850D01*
X135827325Y-72281922D01*
X135909521Y-72298271D01*
X135993327Y-72298271D01*
X136075523Y-72281922D01*
X136152950Y-72249850D01*
X136222633Y-72203290D01*
X136281893Y-72144030D01*
X136328453Y-72074347D01*
X136360525Y-71996920D01*
X136376874Y-71914724D01*
X136376874Y-71830918D01*
X136360525Y-71748722D01*
X136328453Y-71671295D01*
X136281893Y-71601612D01*
X136222633Y-71542352D01*
X136152950Y-71495792D01*
X136075523Y-71463720D01*
X135993327Y-71447371D01*
X135951414Y-71447371D01*
X135951414Y-71406176D01*
X135949266Y-71395372D01*
X136630897Y-71395372D01*
X136630897Y-71479178D01*
X136647246Y-71561374D01*
X136679318Y-71638801D01*
X136725878Y-71708484D01*
X136785138Y-71767744D01*
X136803879Y-71780266D01*
X136773539Y-71825674D01*
X136741467Y-71903101D01*
X136725118Y-71985297D01*
X136725118Y-72069103D01*
X136741467Y-72151299D01*
X136773539Y-72228726D01*
X136820099Y-72298409D01*
X136879359Y-72357669D01*
X136949042Y-72404229D01*
X137026469Y-72436301D01*
X137108665Y-72452650D01*
X137192471Y-72452650D01*
X137274667Y-72436301D01*
X137352094Y-72404229D01*
X137421777Y-72357669D01*
X137481037Y-72298409D01*
X137527597Y-72228726D01*
X137559669Y-72151299D01*
X137576018Y-72069103D01*
X137576018Y-71985297D01*
X137559669Y-71903101D01*
X137527597Y-71825674D01*
X137481037Y-71755991D01*
X137421777Y-71696731D01*
X137403036Y-71684209D01*
X137433376Y-71638801D01*
X137465448Y-71561374D01*
X137481797Y-71479178D01*
X137481797Y-71395372D01*
X137465448Y-71313176D01*
X137433376Y-71235749D01*
X137386816Y-71166066D01*
X137327556Y-71106806D01*
X137257873Y-71060246D01*
X137180446Y-71028174D01*
X137098250Y-71011825D01*
X137014444Y-71011825D01*
X136932248Y-71028174D01*
X136854821Y-71060246D01*
X136785138Y-71106806D01*
X136725878Y-71166066D01*
X136679318Y-71235749D01*
X136647246Y-71313176D01*
X136630897Y-71395372D01*
X135949266Y-71395372D01*
X135935065Y-71323980D01*
X135902993Y-71246553D01*
X135856433Y-71176870D01*
X135797173Y-71117610D01*
X135727490Y-71071050D01*
X135650063Y-71038978D01*
X135567867Y-71022629D01*
X135484061Y-71022629D01*
X135401865Y-71038978D01*
X135324438Y-71071050D01*
X135254755Y-71117610D01*
X135195495Y-71176870D01*
X135148935Y-71246553D01*
X135116863Y-71323980D01*
X135100514Y-71406176D01*
X134903817Y-71406176D01*
X134903817Y-71390445D01*
X134887468Y-71308249D01*
X134858530Y-71238387D01*
X134882629Y-71228405D01*
X134952312Y-71181845D01*
X135011572Y-71122585D01*
X135058132Y-71052902D01*
X135090204Y-70975475D01*
X135106553Y-70893279D01*
X135106553Y-70809473D01*
X135090204Y-70727277D01*
X135058132Y-70649850D01*
X135011572Y-70580167D01*
X134982442Y-70551037D01*
X135991632Y-70551037D01*
X135991632Y-70634843D01*
X136007981Y-70717039D01*
X136040053Y-70794466D01*
X136086613Y-70864149D01*
X136145873Y-70923409D01*
X136215556Y-70969969D01*
X136292983Y-71002041D01*
X136375179Y-71018390D01*
X136458985Y-71018390D01*
X136541181Y-71002041D01*
X136618608Y-70969969D01*
X136688291Y-70923409D01*
X136747551Y-70864149D01*
X136794111Y-70794466D01*
X136826183Y-70717039D01*
X136842532Y-70634843D01*
X136842532Y-70612766D01*
X141351000Y-70612766D01*
X141351000Y-70712834D01*
X141370522Y-70810978D01*
X141408816Y-70903428D01*
X141464411Y-70986631D01*
X141535169Y-71057389D01*
X141618372Y-71112984D01*
X141710822Y-71151278D01*
X141808966Y-71170800D01*
X141909034Y-71170800D01*
X142007178Y-71151278D01*
X142099628Y-71112984D01*
X142182831Y-71057389D01*
X142253589Y-70986631D01*
X142309184Y-70903428D01*
X142347478Y-70810978D01*
X142367000Y-70712834D01*
X142367000Y-70612766D01*
X142347478Y-70514622D01*
X142309184Y-70422172D01*
X142253589Y-70338969D01*
X142182831Y-70268211D01*
X142099628Y-70212616D01*
X142007178Y-70174322D01*
X141909034Y-70154800D01*
X141808966Y-70154800D01*
X141710822Y-70174322D01*
X141618372Y-70212616D01*
X141535169Y-70268211D01*
X141464411Y-70338969D01*
X141408816Y-70422172D01*
X141370522Y-70514622D01*
X141351000Y-70612766D01*
X136842532Y-70612766D01*
X136842532Y-70551037D01*
X136826183Y-70468841D01*
X136794111Y-70391414D01*
X136747551Y-70321731D01*
X136688291Y-70262471D01*
X136618608Y-70215911D01*
X136541181Y-70183839D01*
X136458985Y-70167490D01*
X136375179Y-70167490D01*
X136292983Y-70183839D01*
X136215556Y-70215911D01*
X136145873Y-70262471D01*
X136086613Y-70321731D01*
X136040053Y-70391414D01*
X136007981Y-70468841D01*
X135991632Y-70551037D01*
X134982442Y-70551037D01*
X134952312Y-70520907D01*
X134882629Y-70474347D01*
X134805202Y-70442275D01*
X134723006Y-70425926D01*
X134639200Y-70425926D01*
X134557004Y-70442275D01*
X134479577Y-70474347D01*
X134409894Y-70520907D01*
X134350634Y-70580167D01*
X134304074Y-70649850D01*
X134272002Y-70727277D01*
X134255653Y-70809473D01*
X134255653Y-70893279D01*
X134272002Y-70975475D01*
X134300940Y-71045337D01*
X134276841Y-71055319D01*
X134207158Y-71101879D01*
X134147898Y-71161139D01*
X134101338Y-71230822D01*
X134069266Y-71308249D01*
X134052917Y-71390445D01*
X121855948Y-71390445D01*
X121800999Y-71380599D01*
X121796224Y-71380218D01*
X121791580Y-71379094D01*
X121788066Y-71378624D01*
X121693199Y-71366627D01*
X121626098Y-71344295D01*
X121564614Y-71309356D01*
X121511088Y-71263142D01*
X121467557Y-71207408D01*
X121435680Y-71144281D01*
X121415827Y-71073140D01*
X121410200Y-71017747D01*
X121410200Y-70958344D01*
X121419016Y-70979628D01*
X121474611Y-71062831D01*
X121545369Y-71133589D01*
X121628572Y-71189184D01*
X121721022Y-71227478D01*
X121819166Y-71247000D01*
X121919234Y-71247000D01*
X122017378Y-71227478D01*
X122109828Y-71189184D01*
X122193031Y-71133589D01*
X122263789Y-71062831D01*
X122319384Y-70979628D01*
X122357678Y-70887178D01*
X122377200Y-70789034D01*
X122377200Y-70767518D01*
X126670371Y-70767518D01*
X126670371Y-70851324D01*
X126686720Y-70933520D01*
X126718792Y-71010947D01*
X126765352Y-71080630D01*
X126824612Y-71139890D01*
X126894295Y-71186450D01*
X126971722Y-71218522D01*
X127053918Y-71234871D01*
X127137724Y-71234871D01*
X127219920Y-71218522D01*
X127297347Y-71186450D01*
X127367030Y-71139890D01*
X127426290Y-71080630D01*
X127472850Y-71010947D01*
X127504922Y-70933520D01*
X127521155Y-70851906D01*
X127561701Y-70868701D01*
X127643897Y-70885050D01*
X127727703Y-70885050D01*
X127809899Y-70868701D01*
X127887326Y-70836629D01*
X127957009Y-70790069D01*
X128016269Y-70730809D01*
X128062829Y-70661126D01*
X128094901Y-70583699D01*
X128111250Y-70501503D01*
X128111250Y-70445165D01*
X128151897Y-70453250D01*
X128235703Y-70453250D01*
X128317899Y-70436901D01*
X128395326Y-70404829D01*
X128465009Y-70358269D01*
X128513770Y-70309508D01*
X128523727Y-70324409D01*
X128582987Y-70383669D01*
X128652670Y-70430229D01*
X128730097Y-70462301D01*
X128812293Y-70478650D01*
X128896099Y-70478650D01*
X128978295Y-70462301D01*
X129055722Y-70430229D01*
X129058867Y-70428127D01*
X131387852Y-70428127D01*
X131387852Y-70511933D01*
X131404201Y-70594129D01*
X131436273Y-70671556D01*
X131482833Y-70741239D01*
X131542093Y-70800499D01*
X131611776Y-70847059D01*
X131689203Y-70879131D01*
X131771399Y-70895480D01*
X131855205Y-70895480D01*
X131937401Y-70879131D01*
X132014828Y-70847059D01*
X132084511Y-70800499D01*
X132123315Y-70761695D01*
X132151691Y-70790071D01*
X132221374Y-70836631D01*
X132298801Y-70868703D01*
X132380997Y-70885052D01*
X132464803Y-70885052D01*
X132546999Y-70868703D01*
X132624426Y-70836631D01*
X132694109Y-70790071D01*
X132702047Y-70782133D01*
X132868793Y-70782133D01*
X132868793Y-70882201D01*
X132888315Y-70980345D01*
X132926609Y-71072795D01*
X132982204Y-71155998D01*
X133052962Y-71226756D01*
X133136165Y-71282351D01*
X133228615Y-71320645D01*
X133326759Y-71340167D01*
X133426827Y-71340167D01*
X133524971Y-71320645D01*
X133617421Y-71282351D01*
X133700624Y-71226756D01*
X133771382Y-71155998D01*
X133826977Y-71072795D01*
X133865271Y-70980345D01*
X133884793Y-70882201D01*
X133884793Y-70782133D01*
X133865271Y-70683989D01*
X133826977Y-70591539D01*
X133771382Y-70508336D01*
X133700624Y-70437578D01*
X133617421Y-70381983D01*
X133524971Y-70343689D01*
X133426827Y-70324167D01*
X133326759Y-70324167D01*
X133228615Y-70343689D01*
X133136165Y-70381983D01*
X133052962Y-70437578D01*
X132982204Y-70508336D01*
X132926609Y-70591539D01*
X132888315Y-70683989D01*
X132868793Y-70782133D01*
X132702047Y-70782133D01*
X132753369Y-70730811D01*
X132799929Y-70661128D01*
X132832001Y-70583701D01*
X132848350Y-70501505D01*
X132848350Y-70417699D01*
X132832001Y-70335503D01*
X132799929Y-70258076D01*
X132753369Y-70188393D01*
X132694109Y-70129133D01*
X132624426Y-70082573D01*
X132546999Y-70050501D01*
X132464803Y-70034152D01*
X132380997Y-70034152D01*
X132298801Y-70050501D01*
X132221374Y-70082573D01*
X132151691Y-70129133D01*
X132112887Y-70167937D01*
X132084511Y-70139561D01*
X132014828Y-70093001D01*
X131937401Y-70060929D01*
X131855205Y-70044580D01*
X131771399Y-70044580D01*
X131689203Y-70060929D01*
X131611776Y-70093001D01*
X131542093Y-70139561D01*
X131482833Y-70198821D01*
X131436273Y-70268504D01*
X131404201Y-70345931D01*
X131387852Y-70428127D01*
X129058867Y-70428127D01*
X129125405Y-70383669D01*
X129184665Y-70324409D01*
X129231225Y-70254726D01*
X129263297Y-70177299D01*
X129279646Y-70095103D01*
X129279646Y-70011297D01*
X129263297Y-69929101D01*
X129231225Y-69851674D01*
X129184665Y-69781991D01*
X129172343Y-69769669D01*
X138119180Y-69769669D01*
X138119180Y-69853475D01*
X138135529Y-69935671D01*
X138167601Y-70013098D01*
X138214161Y-70082781D01*
X138273421Y-70142041D01*
X138343104Y-70188601D01*
X138420531Y-70220673D01*
X138502727Y-70237022D01*
X138586533Y-70237022D01*
X138668729Y-70220673D01*
X138746156Y-70188601D01*
X138815839Y-70142041D01*
X138875099Y-70082781D01*
X138921659Y-70013098D01*
X138953731Y-69935671D01*
X138970080Y-69853475D01*
X138970080Y-69769669D01*
X138953731Y-69687473D01*
X138921659Y-69610046D01*
X138875099Y-69540363D01*
X138815839Y-69481103D01*
X138746156Y-69434543D01*
X138668729Y-69402471D01*
X138586533Y-69386122D01*
X138502727Y-69386122D01*
X138420531Y-69402471D01*
X138343104Y-69434543D01*
X138273421Y-69481103D01*
X138214161Y-69540363D01*
X138167601Y-69610046D01*
X138135529Y-69687473D01*
X138119180Y-69769669D01*
X129172343Y-69769669D01*
X129125405Y-69722731D01*
X129055722Y-69676171D01*
X128978295Y-69644099D01*
X128896099Y-69627750D01*
X128812293Y-69627750D01*
X128730097Y-69644099D01*
X128652670Y-69676171D01*
X128582987Y-69722731D01*
X128534226Y-69771492D01*
X128524269Y-69756591D01*
X128465009Y-69697331D01*
X128395326Y-69650771D01*
X128317899Y-69618699D01*
X128235703Y-69602350D01*
X128151897Y-69602350D01*
X128069701Y-69618699D01*
X127992274Y-69650771D01*
X127922591Y-69697331D01*
X127863331Y-69756591D01*
X127816771Y-69826274D01*
X127784699Y-69903701D01*
X127768350Y-69985897D01*
X127768350Y-70042235D01*
X127727703Y-70034150D01*
X127643897Y-70034150D01*
X127561701Y-70050499D01*
X127484274Y-70082571D01*
X127414591Y-70129131D01*
X127355331Y-70188391D01*
X127308771Y-70258074D01*
X127276699Y-70335501D01*
X127260466Y-70417115D01*
X127219920Y-70400320D01*
X127137724Y-70383971D01*
X127053918Y-70383971D01*
X126971722Y-70400320D01*
X126894295Y-70432392D01*
X126824612Y-70478952D01*
X126765352Y-70538212D01*
X126718792Y-70607895D01*
X126686720Y-70685322D01*
X126670371Y-70767518D01*
X122377200Y-70767518D01*
X122377200Y-70688966D01*
X122357678Y-70590822D01*
X122319384Y-70498372D01*
X122263789Y-70415169D01*
X122193031Y-70344411D01*
X122109828Y-70288816D01*
X122017378Y-70250522D01*
X121919234Y-70231000D01*
X121819166Y-70231000D01*
X121721022Y-70250522D01*
X121628572Y-70288816D01*
X121545369Y-70344411D01*
X121474611Y-70415169D01*
X121419016Y-70498372D01*
X121410200Y-70519656D01*
X121410200Y-69841948D01*
X122652612Y-69841948D01*
X122652612Y-69942016D01*
X122672134Y-70040160D01*
X122710428Y-70132610D01*
X122766023Y-70215813D01*
X122836781Y-70286571D01*
X122919984Y-70342166D01*
X123012434Y-70380460D01*
X123110578Y-70399982D01*
X123210646Y-70399982D01*
X123308790Y-70380460D01*
X123401240Y-70342166D01*
X123484443Y-70286571D01*
X123555201Y-70215813D01*
X123610796Y-70132610D01*
X123649090Y-70040160D01*
X123668612Y-69942016D01*
X123668612Y-69841948D01*
X123649090Y-69743804D01*
X123610796Y-69651354D01*
X123555201Y-69568151D01*
X123484443Y-69497393D01*
X123401240Y-69441798D01*
X123308790Y-69403504D01*
X123210646Y-69383982D01*
X123110578Y-69383982D01*
X123012434Y-69403504D01*
X122919984Y-69441798D01*
X122836781Y-69497393D01*
X122766023Y-69568151D01*
X122710428Y-69651354D01*
X122672134Y-69743804D01*
X122652612Y-69841948D01*
X121410200Y-69841948D01*
X121410200Y-67991064D01*
X122682000Y-67991064D01*
X122682000Y-68091132D01*
X122701522Y-68189276D01*
X122739816Y-68281726D01*
X122795411Y-68364929D01*
X122866169Y-68435687D01*
X122949372Y-68491282D01*
X123041822Y-68529576D01*
X123139966Y-68549098D01*
X123240034Y-68549098D01*
X123338178Y-68529576D01*
X123430628Y-68491282D01*
X123513831Y-68435687D01*
X123584589Y-68364929D01*
X123640184Y-68281726D01*
X123678478Y-68189276D01*
X123698000Y-68091132D01*
X123698000Y-67991064D01*
X123678478Y-67892920D01*
X123640184Y-67800470D01*
X123584589Y-67717267D01*
X123513831Y-67646509D01*
X123430628Y-67590914D01*
X123338178Y-67552620D01*
X123240034Y-67533098D01*
X123139966Y-67533098D01*
X123041822Y-67552620D01*
X122949372Y-67590914D01*
X122866169Y-67646509D01*
X122795411Y-67717267D01*
X122739816Y-67800470D01*
X122701522Y-67892920D01*
X122682000Y-67991064D01*
X121410200Y-67991064D01*
X121410200Y-66815977D01*
X129413065Y-66815977D01*
X129413065Y-66899783D01*
X129429414Y-66981979D01*
X129461486Y-67059406D01*
X129508046Y-67129089D01*
X129567306Y-67188349D01*
X129636989Y-67234909D01*
X129714416Y-67266981D01*
X129796612Y-67283330D01*
X129880418Y-67283330D01*
X129962614Y-67266981D01*
X130040041Y-67234909D01*
X130109724Y-67188349D01*
X130168984Y-67129089D01*
X130215544Y-67059406D01*
X130247616Y-66981979D01*
X130263965Y-66899783D01*
X130263965Y-66815977D01*
X130247616Y-66733781D01*
X130215544Y-66656354D01*
X130168984Y-66586671D01*
X130109724Y-66527411D01*
X130040041Y-66480851D01*
X129962614Y-66448779D01*
X129880418Y-66432430D01*
X129796612Y-66432430D01*
X129714416Y-66448779D01*
X129636989Y-66480851D01*
X129567306Y-66527411D01*
X129508046Y-66586671D01*
X129461486Y-66656354D01*
X129429414Y-66733781D01*
X129413065Y-66815977D01*
X121410200Y-66815977D01*
X121410200Y-65921897D01*
X124879115Y-65921897D01*
X124879115Y-66005703D01*
X124895464Y-66087899D01*
X124927536Y-66165326D01*
X124974096Y-66235009D01*
X125033356Y-66294269D01*
X125103039Y-66340829D01*
X125180466Y-66372901D01*
X125262662Y-66389250D01*
X125346468Y-66389250D01*
X125428664Y-66372901D01*
X125506091Y-66340829D01*
X125575774Y-66294269D01*
X125635034Y-66235009D01*
X125681594Y-66165326D01*
X125713666Y-66087899D01*
X125730015Y-66005703D01*
X125730015Y-65921897D01*
X125713666Y-65839701D01*
X125681594Y-65762274D01*
X125635034Y-65692591D01*
X125575774Y-65633331D01*
X125506091Y-65586771D01*
X125428664Y-65554699D01*
X125346468Y-65538350D01*
X125262662Y-65538350D01*
X125180466Y-65554699D01*
X125103039Y-65586771D01*
X125033356Y-65633331D01*
X124974096Y-65692591D01*
X124927536Y-65762274D01*
X124895464Y-65839701D01*
X124879115Y-65921897D01*
X121410200Y-65921897D01*
X121410200Y-65509137D01*
X127260350Y-65509137D01*
X127260350Y-65592943D01*
X127276699Y-65675139D01*
X127308771Y-65752566D01*
X127355331Y-65822249D01*
X127414591Y-65881509D01*
X127484274Y-65928069D01*
X127561701Y-65960141D01*
X127643897Y-65976490D01*
X127727703Y-65976490D01*
X127809899Y-65960141D01*
X127887326Y-65928069D01*
X127957009Y-65881509D01*
X128016269Y-65822249D01*
X128062829Y-65752566D01*
X128094901Y-65675139D01*
X128111250Y-65592943D01*
X128111250Y-65509137D01*
X128094901Y-65426941D01*
X128062829Y-65349514D01*
X128016269Y-65279831D01*
X127957009Y-65220571D01*
X127887326Y-65174011D01*
X127809899Y-65141939D01*
X127727703Y-65125590D01*
X127643897Y-65125590D01*
X127561701Y-65141939D01*
X127484274Y-65174011D01*
X127414591Y-65220571D01*
X127355331Y-65279831D01*
X127308771Y-65349514D01*
X127276699Y-65426941D01*
X127260350Y-65509137D01*
X121410200Y-65509137D01*
X121410200Y-65077368D01*
X134067546Y-65077368D01*
X134067546Y-65161174D01*
X134083895Y-65243370D01*
X134115967Y-65320797D01*
X134162527Y-65390480D01*
X134221787Y-65449740D01*
X134291470Y-65496300D01*
X134368897Y-65528372D01*
X134451093Y-65544721D01*
X134534899Y-65544721D01*
X134617095Y-65528372D01*
X134694522Y-65496300D01*
X134741819Y-65464697D01*
X136302750Y-65464697D01*
X136302750Y-65548503D01*
X136319099Y-65630699D01*
X136351171Y-65708126D01*
X136397731Y-65777809D01*
X136456991Y-65837069D01*
X136461115Y-65839824D01*
X136460970Y-65839921D01*
X136401710Y-65899181D01*
X136355150Y-65968864D01*
X136323078Y-66046291D01*
X136306729Y-66128487D01*
X136306729Y-66212293D01*
X136323078Y-66294489D01*
X136355150Y-66371916D01*
X136401710Y-66441599D01*
X136460970Y-66500859D01*
X136530653Y-66547419D01*
X136608080Y-66579491D01*
X136690276Y-66595840D01*
X136774082Y-66595840D01*
X136856278Y-66579491D01*
X136933705Y-66547419D01*
X136995554Y-66506093D01*
X141281150Y-66506093D01*
X141281150Y-66589899D01*
X141297499Y-66672095D01*
X141329571Y-66749522D01*
X141376131Y-66819205D01*
X141435391Y-66878465D01*
X141505074Y-66925025D01*
X141582501Y-66957097D01*
X141664697Y-66973446D01*
X141748503Y-66973446D01*
X141830699Y-66957097D01*
X141908126Y-66925025D01*
X141977809Y-66878465D01*
X142037069Y-66819205D01*
X142083629Y-66749522D01*
X142115701Y-66672095D01*
X142132050Y-66589899D01*
X142132050Y-66506093D01*
X142115701Y-66423897D01*
X142083629Y-66346470D01*
X142037069Y-66276787D01*
X141977809Y-66217527D01*
X141908126Y-66170967D01*
X141830699Y-66138895D01*
X141748503Y-66122546D01*
X141664697Y-66122546D01*
X141582501Y-66138895D01*
X141505074Y-66170967D01*
X141435391Y-66217527D01*
X141376131Y-66276787D01*
X141329571Y-66346470D01*
X141297499Y-66423897D01*
X141281150Y-66506093D01*
X136995554Y-66506093D01*
X137003388Y-66500859D01*
X137062648Y-66441599D01*
X137109208Y-66371916D01*
X137141280Y-66294489D01*
X137157629Y-66212293D01*
X137157629Y-66128487D01*
X137141280Y-66046291D01*
X137109208Y-65968864D01*
X137062648Y-65899181D01*
X137003388Y-65839921D01*
X136999264Y-65837166D01*
X136999409Y-65837069D01*
X137058669Y-65777809D01*
X137105229Y-65708126D01*
X137137301Y-65630699D01*
X137153650Y-65548503D01*
X137153650Y-65464697D01*
X137137301Y-65382501D01*
X137105229Y-65305074D01*
X137058669Y-65235391D01*
X136999409Y-65176131D01*
X136929726Y-65129571D01*
X136852299Y-65097499D01*
X136770103Y-65081150D01*
X136686297Y-65081150D01*
X136604101Y-65097499D01*
X136526674Y-65129571D01*
X136456991Y-65176131D01*
X136397731Y-65235391D01*
X136351171Y-65305074D01*
X136319099Y-65382501D01*
X136302750Y-65464697D01*
X134741819Y-65464697D01*
X134764205Y-65449740D01*
X134823465Y-65390480D01*
X134870025Y-65320797D01*
X134902097Y-65243370D01*
X134918446Y-65161174D01*
X134918446Y-65077368D01*
X134902097Y-64995172D01*
X134870025Y-64917745D01*
X134823465Y-64848062D01*
X134764205Y-64788802D01*
X134694522Y-64742242D01*
X134617095Y-64710170D01*
X134534899Y-64693821D01*
X134451093Y-64693821D01*
X134368897Y-64710170D01*
X134291470Y-64742242D01*
X134221787Y-64788802D01*
X134162527Y-64848062D01*
X134115967Y-64917745D01*
X134083895Y-64995172D01*
X134067546Y-65077368D01*
X121410200Y-65077368D01*
X121410200Y-63938741D01*
X127469705Y-63938741D01*
X127469705Y-64022547D01*
X127486054Y-64104743D01*
X127518126Y-64182170D01*
X127564686Y-64251853D01*
X127603063Y-64290230D01*
X127587377Y-64305915D01*
X127540817Y-64375598D01*
X127508745Y-64453025D01*
X127492396Y-64535221D01*
X127492396Y-64619027D01*
X127508745Y-64701223D01*
X127540817Y-64778650D01*
X127587377Y-64848333D01*
X127646637Y-64907593D01*
X127716320Y-64954153D01*
X127793747Y-64986225D01*
X127875943Y-65002574D01*
X127959749Y-65002574D01*
X128041945Y-64986225D01*
X128119372Y-64954153D01*
X128189055Y-64907593D01*
X128248315Y-64848333D01*
X128294875Y-64778650D01*
X128326947Y-64701223D01*
X128333914Y-64666194D01*
X137007610Y-64666194D01*
X137007610Y-64750000D01*
X137023959Y-64832196D01*
X137056031Y-64909623D01*
X137102591Y-64979306D01*
X137161851Y-65038566D01*
X137231534Y-65085126D01*
X137308961Y-65117198D01*
X137391157Y-65133547D01*
X137474963Y-65133547D01*
X137557159Y-65117198D01*
X137634586Y-65085126D01*
X137704269Y-65038566D01*
X137763529Y-64979306D01*
X137810089Y-64909623D01*
X137842161Y-64832196D01*
X137858510Y-64750000D01*
X137858510Y-64666194D01*
X137842161Y-64583998D01*
X137810089Y-64506571D01*
X137763529Y-64436888D01*
X137704269Y-64377628D01*
X137634586Y-64331068D01*
X137592334Y-64313566D01*
X139471400Y-64313566D01*
X139471400Y-64413634D01*
X139490922Y-64511778D01*
X139529216Y-64604228D01*
X139584811Y-64687431D01*
X139655569Y-64758189D01*
X139738772Y-64813784D01*
X139831222Y-64852078D01*
X139929366Y-64871600D01*
X140029434Y-64871600D01*
X140127578Y-64852078D01*
X140220028Y-64813784D01*
X140303231Y-64758189D01*
X140373989Y-64687431D01*
X140429584Y-64604228D01*
X140467878Y-64511778D01*
X140487400Y-64413634D01*
X140487400Y-64313566D01*
X140467878Y-64215422D01*
X140448773Y-64169297D01*
X141941550Y-64169297D01*
X141941550Y-64253103D01*
X141957899Y-64335299D01*
X141989971Y-64412726D01*
X142036531Y-64482409D01*
X142095791Y-64541669D01*
X142165474Y-64588229D01*
X142242901Y-64620301D01*
X142325097Y-64636650D01*
X142408903Y-64636650D01*
X142491099Y-64620301D01*
X142568526Y-64588229D01*
X142638209Y-64541669D01*
X142697469Y-64482409D01*
X142744029Y-64412726D01*
X142776101Y-64335299D01*
X142792450Y-64253103D01*
X142792450Y-64169297D01*
X142776101Y-64087101D01*
X142744029Y-64009674D01*
X142697469Y-63939991D01*
X142638209Y-63880731D01*
X142568526Y-63834171D01*
X142491099Y-63802099D01*
X142408903Y-63785750D01*
X142325097Y-63785750D01*
X142242901Y-63802099D01*
X142165474Y-63834171D01*
X142095791Y-63880731D01*
X142036531Y-63939991D01*
X141989971Y-64009674D01*
X141957899Y-64087101D01*
X141941550Y-64169297D01*
X140448773Y-64169297D01*
X140429584Y-64122972D01*
X140373989Y-64039769D01*
X140303231Y-63969011D01*
X140220028Y-63913416D01*
X140127578Y-63875122D01*
X140029434Y-63855600D01*
X139929366Y-63855600D01*
X139831222Y-63875122D01*
X139738772Y-63913416D01*
X139655569Y-63969011D01*
X139584811Y-64039769D01*
X139529216Y-64122972D01*
X139490922Y-64215422D01*
X139471400Y-64313566D01*
X137592334Y-64313566D01*
X137557159Y-64298996D01*
X137474963Y-64282647D01*
X137391157Y-64282647D01*
X137308961Y-64298996D01*
X137231534Y-64331068D01*
X137161851Y-64377628D01*
X137102591Y-64436888D01*
X137056031Y-64506571D01*
X137023959Y-64583998D01*
X137007610Y-64666194D01*
X128333914Y-64666194D01*
X128343296Y-64619027D01*
X128343296Y-64535221D01*
X128326947Y-64453025D01*
X128294875Y-64375598D01*
X128248315Y-64305915D01*
X128209939Y-64267539D01*
X128225624Y-64251853D01*
X128272184Y-64182170D01*
X128304256Y-64104743D01*
X128312427Y-64063661D01*
X128346905Y-64070519D01*
X128430711Y-64070519D01*
X128512907Y-64054170D01*
X128590334Y-64022098D01*
X128660017Y-63975538D01*
X128719277Y-63916278D01*
X128765837Y-63846595D01*
X128797909Y-63769168D01*
X128814258Y-63686972D01*
X128814258Y-63603166D01*
X128797909Y-63520970D01*
X128765837Y-63443543D01*
X128719277Y-63373860D01*
X128660017Y-63314600D01*
X128590334Y-63268040D01*
X128512907Y-63235968D01*
X128430711Y-63219619D01*
X128346905Y-63219619D01*
X128264709Y-63235968D01*
X128187282Y-63268040D01*
X128117599Y-63314600D01*
X128058339Y-63373860D01*
X128011779Y-63443543D01*
X127979707Y-63520970D01*
X127971536Y-63562052D01*
X127937058Y-63555194D01*
X127853252Y-63555194D01*
X127771056Y-63571543D01*
X127693629Y-63603615D01*
X127623946Y-63650175D01*
X127564686Y-63709435D01*
X127518126Y-63779118D01*
X127486054Y-63856545D01*
X127469705Y-63938741D01*
X121410200Y-63938741D01*
X121410200Y-63008237D01*
X126790252Y-63008237D01*
X126790252Y-63092043D01*
X126806601Y-63174239D01*
X126838673Y-63251666D01*
X126885233Y-63321349D01*
X126944493Y-63380609D01*
X127014176Y-63427169D01*
X127091603Y-63459241D01*
X127173799Y-63475590D01*
X127257605Y-63475590D01*
X127339801Y-63459241D01*
X127417228Y-63427169D01*
X127486911Y-63380609D01*
X127546171Y-63321349D01*
X127592731Y-63251666D01*
X127624803Y-63174239D01*
X127641152Y-63092043D01*
X127641152Y-63041426D01*
X128621614Y-63041426D01*
X128621614Y-63125232D01*
X128637963Y-63207428D01*
X128670035Y-63284855D01*
X128716595Y-63354538D01*
X128775855Y-63413798D01*
X128845538Y-63460358D01*
X128922965Y-63492430D01*
X129005161Y-63508779D01*
X129088967Y-63508779D01*
X129171163Y-63492430D01*
X129248590Y-63460358D01*
X129318273Y-63413798D01*
X129377533Y-63354538D01*
X129424093Y-63284855D01*
X129451536Y-63218601D01*
X129980548Y-63218601D01*
X129980548Y-63302407D01*
X129996897Y-63384603D01*
X130028969Y-63462030D01*
X130075529Y-63531713D01*
X130134789Y-63590973D01*
X130204472Y-63637533D01*
X130281899Y-63669605D01*
X130364095Y-63685954D01*
X130378171Y-63685954D01*
X130376071Y-63696514D01*
X130376071Y-63780320D01*
X130392420Y-63862516D01*
X130424492Y-63939943D01*
X130471052Y-64009626D01*
X130530312Y-64068886D01*
X130599995Y-64115446D01*
X130677422Y-64147518D01*
X130759618Y-64163867D01*
X130843424Y-64163867D01*
X130925620Y-64147518D01*
X131003047Y-64115446D01*
X131072730Y-64068886D01*
X131131990Y-64009626D01*
X131178550Y-63939943D01*
X131210622Y-63862516D01*
X131226971Y-63780320D01*
X131226971Y-63696514D01*
X131210622Y-63614318D01*
X131178550Y-63536891D01*
X131139070Y-63477803D01*
X133269988Y-63477803D01*
X133269988Y-63561609D01*
X133286337Y-63643805D01*
X133318409Y-63721232D01*
X133364969Y-63790915D01*
X133424229Y-63850175D01*
X133493912Y-63896735D01*
X133571339Y-63928807D01*
X133653535Y-63945156D01*
X133737341Y-63945156D01*
X133819537Y-63928807D01*
X133896964Y-63896735D01*
X133966647Y-63850175D01*
X134025907Y-63790915D01*
X134072467Y-63721232D01*
X134104539Y-63643805D01*
X134120888Y-63561609D01*
X134120888Y-63477803D01*
X134104539Y-63395607D01*
X134072467Y-63318180D01*
X134025907Y-63248497D01*
X133966647Y-63189237D01*
X133896964Y-63142677D01*
X133819537Y-63110605D01*
X133737341Y-63094256D01*
X133653535Y-63094256D01*
X133571339Y-63110605D01*
X133493912Y-63142677D01*
X133424229Y-63189237D01*
X133364969Y-63248497D01*
X133318409Y-63318180D01*
X133286337Y-63395607D01*
X133269988Y-63477803D01*
X131139070Y-63477803D01*
X131131990Y-63467208D01*
X131072730Y-63407948D01*
X131003047Y-63361388D01*
X130925620Y-63329316D01*
X130843424Y-63312967D01*
X130829348Y-63312967D01*
X130831448Y-63302407D01*
X130831448Y-63218601D01*
X130815099Y-63136405D01*
X130783027Y-63058978D01*
X130736467Y-62989295D01*
X130722669Y-62975497D01*
X137013950Y-62975497D01*
X137013950Y-63059303D01*
X137030299Y-63141499D01*
X137062371Y-63218926D01*
X137108931Y-63288609D01*
X137168191Y-63347869D01*
X137237874Y-63394429D01*
X137315301Y-63426501D01*
X137397497Y-63442850D01*
X137481303Y-63442850D01*
X137563499Y-63426501D01*
X137640926Y-63394429D01*
X137710609Y-63347869D01*
X137769869Y-63288609D01*
X137816429Y-63218926D01*
X137846550Y-63146210D01*
X137848701Y-63147101D01*
X137930897Y-63163450D01*
X138014703Y-63163450D01*
X138096899Y-63147101D01*
X138174326Y-63115029D01*
X138244009Y-63068469D01*
X138303269Y-63009209D01*
X138349829Y-62939526D01*
X138381901Y-62862099D01*
X138398250Y-62779903D01*
X138398250Y-62696097D01*
X138381901Y-62613901D01*
X138349829Y-62536474D01*
X138303269Y-62466791D01*
X138244009Y-62407531D01*
X138174326Y-62360971D01*
X138096899Y-62328899D01*
X138014703Y-62312550D01*
X137930897Y-62312550D01*
X137848701Y-62328899D01*
X137771274Y-62360971D01*
X137701591Y-62407531D01*
X137642331Y-62466791D01*
X137595771Y-62536474D01*
X137565650Y-62609190D01*
X137563499Y-62608299D01*
X137481303Y-62591950D01*
X137397497Y-62591950D01*
X137315301Y-62608299D01*
X137237874Y-62640371D01*
X137168191Y-62686931D01*
X137108931Y-62746191D01*
X137062371Y-62815874D01*
X137030299Y-62893301D01*
X137013950Y-62975497D01*
X130722669Y-62975497D01*
X130677207Y-62930035D01*
X130607524Y-62883475D01*
X130530097Y-62851403D01*
X130447901Y-62835054D01*
X130364095Y-62835054D01*
X130281899Y-62851403D01*
X130204472Y-62883475D01*
X130134789Y-62930035D01*
X130075529Y-62989295D01*
X130028969Y-63058978D01*
X129996897Y-63136405D01*
X129980548Y-63218601D01*
X129451536Y-63218601D01*
X129456165Y-63207428D01*
X129472514Y-63125232D01*
X129472514Y-63041426D01*
X129456165Y-62959230D01*
X129424093Y-62881803D01*
X129377533Y-62812120D01*
X129318273Y-62752860D01*
X129248590Y-62706300D01*
X129171163Y-62674228D01*
X129088967Y-62657879D01*
X129005161Y-62657879D01*
X128922965Y-62674228D01*
X128845538Y-62706300D01*
X128775855Y-62752860D01*
X128716595Y-62812120D01*
X128670035Y-62881803D01*
X128637963Y-62959230D01*
X128621614Y-63041426D01*
X127641152Y-63041426D01*
X127641152Y-63008237D01*
X127624803Y-62926041D01*
X127592731Y-62848614D01*
X127563402Y-62804719D01*
X127583171Y-62791510D01*
X127642431Y-62732250D01*
X127688991Y-62662567D01*
X127721063Y-62585140D01*
X127737412Y-62502944D01*
X127737412Y-62419138D01*
X127721063Y-62336942D01*
X127688991Y-62259515D01*
X127642431Y-62189832D01*
X127640696Y-62188097D01*
X128225550Y-62188097D01*
X128225550Y-62271903D01*
X128241899Y-62354099D01*
X128273971Y-62431526D01*
X128320531Y-62501209D01*
X128379791Y-62560469D01*
X128449474Y-62607029D01*
X128526901Y-62639101D01*
X128609097Y-62655450D01*
X128692903Y-62655450D01*
X128775099Y-62639101D01*
X128852526Y-62607029D01*
X128922209Y-62560469D01*
X128981469Y-62501209D01*
X129028029Y-62431526D01*
X129060101Y-62354099D01*
X129076450Y-62271903D01*
X129076450Y-62255433D01*
X129150103Y-62255433D01*
X129229473Y-62239646D01*
X131038665Y-62239646D01*
X131038665Y-62323452D01*
X131055014Y-62405648D01*
X131087086Y-62483075D01*
X131133646Y-62552758D01*
X131192906Y-62612018D01*
X131262589Y-62658578D01*
X131340016Y-62690650D01*
X131422212Y-62706999D01*
X131506018Y-62706999D01*
X131588214Y-62690650D01*
X131665641Y-62658578D01*
X131735324Y-62612018D01*
X131794584Y-62552758D01*
X131841144Y-62483075D01*
X131873216Y-62405648D01*
X131889565Y-62323452D01*
X131889565Y-62239646D01*
X131873216Y-62157450D01*
X131841144Y-62080023D01*
X131794584Y-62010340D01*
X131735324Y-61951080D01*
X131665641Y-61904520D01*
X131614406Y-61883297D01*
X139249150Y-61883297D01*
X139249150Y-61967103D01*
X139265499Y-62049299D01*
X139297571Y-62126726D01*
X139344131Y-62196409D01*
X139403391Y-62255669D01*
X139473074Y-62302229D01*
X139550501Y-62334301D01*
X139632697Y-62350650D01*
X139716503Y-62350650D01*
X139798699Y-62334301D01*
X139876126Y-62302229D01*
X139945809Y-62255669D01*
X140005069Y-62196409D01*
X140051629Y-62126726D01*
X140083701Y-62049299D01*
X140100050Y-61967103D01*
X140100050Y-61883297D01*
X140083701Y-61801101D01*
X140051629Y-61723674D01*
X140005069Y-61653991D01*
X139945809Y-61594731D01*
X139876126Y-61548171D01*
X139798699Y-61516099D01*
X139716503Y-61499750D01*
X139632697Y-61499750D01*
X139550501Y-61516099D01*
X139473074Y-61548171D01*
X139403391Y-61594731D01*
X139344131Y-61653991D01*
X139297571Y-61723674D01*
X139265499Y-61801101D01*
X139249150Y-61883297D01*
X131614406Y-61883297D01*
X131588214Y-61872448D01*
X131506018Y-61856099D01*
X131422212Y-61856099D01*
X131340016Y-61872448D01*
X131262589Y-61904520D01*
X131192906Y-61951080D01*
X131133646Y-62010340D01*
X131087086Y-62080023D01*
X131055014Y-62157450D01*
X131038665Y-62239646D01*
X129229473Y-62239646D01*
X129232299Y-62239084D01*
X129309726Y-62207012D01*
X129379409Y-62160452D01*
X129438669Y-62101192D01*
X129485229Y-62031509D01*
X129517301Y-61954082D01*
X129533650Y-61871886D01*
X129533650Y-61788080D01*
X129517301Y-61705884D01*
X129485229Y-61628457D01*
X129438669Y-61558774D01*
X129379409Y-61499514D01*
X129309726Y-61452954D01*
X129232299Y-61420882D01*
X129150103Y-61404533D01*
X129066297Y-61404533D01*
X128984101Y-61420882D01*
X128906674Y-61452954D01*
X128836991Y-61499514D01*
X128777731Y-61558774D01*
X128731171Y-61628457D01*
X128699099Y-61705884D01*
X128682750Y-61788080D01*
X128682750Y-61804550D01*
X128609097Y-61804550D01*
X128526901Y-61820899D01*
X128449474Y-61852971D01*
X128379791Y-61899531D01*
X128320531Y-61958791D01*
X128273971Y-62028474D01*
X128241899Y-62105901D01*
X128225550Y-62188097D01*
X127640696Y-62188097D01*
X127583171Y-62130572D01*
X127513488Y-62084012D01*
X127436061Y-62051940D01*
X127353865Y-62035591D01*
X127270059Y-62035591D01*
X127187863Y-62051940D01*
X127110436Y-62084012D01*
X127040753Y-62130572D01*
X126981493Y-62189832D01*
X126934933Y-62259515D01*
X126902861Y-62336942D01*
X126886512Y-62419138D01*
X126886512Y-62502944D01*
X126902861Y-62585140D01*
X126934933Y-62662567D01*
X126964262Y-62706462D01*
X126944493Y-62719671D01*
X126885233Y-62778931D01*
X126838673Y-62848614D01*
X126806601Y-62926041D01*
X126790252Y-63008237D01*
X121410200Y-63008237D01*
X121410200Y-61934119D01*
X125025150Y-61934119D01*
X125025150Y-62017925D01*
X125041499Y-62100121D01*
X125073571Y-62177548D01*
X125120131Y-62247231D01*
X125179391Y-62306491D01*
X125249074Y-62353051D01*
X125326501Y-62385123D01*
X125408697Y-62401472D01*
X125492503Y-62401472D01*
X125574699Y-62385123D01*
X125652126Y-62353051D01*
X125721809Y-62306491D01*
X125781069Y-62247231D01*
X125827629Y-62177548D01*
X125859701Y-62100121D01*
X125876050Y-62017925D01*
X125876050Y-61934119D01*
X125859701Y-61851923D01*
X125827629Y-61774496D01*
X125781069Y-61704813D01*
X125721809Y-61645553D01*
X125652126Y-61598993D01*
X125574699Y-61566921D01*
X125492503Y-61550572D01*
X125408697Y-61550572D01*
X125326501Y-61566921D01*
X125249074Y-61598993D01*
X125179391Y-61645553D01*
X125120131Y-61704813D01*
X125073571Y-61774496D01*
X125041499Y-61851923D01*
X125025150Y-61934119D01*
X121410200Y-61934119D01*
X121410200Y-59889908D01*
X125000167Y-59889908D01*
X125000167Y-59973714D01*
X125016516Y-60055910D01*
X125048588Y-60133337D01*
X125095148Y-60203020D01*
X125134625Y-60242497D01*
X125120131Y-60256991D01*
X125073571Y-60326674D01*
X125041499Y-60404101D01*
X125025150Y-60486297D01*
X125025150Y-60570103D01*
X125041499Y-60652299D01*
X125073571Y-60729726D01*
X125120131Y-60799409D01*
X125147372Y-60826650D01*
X125120120Y-60853902D01*
X125073560Y-60923585D01*
X125041488Y-61001012D01*
X125025139Y-61083208D01*
X125025139Y-61167014D01*
X125041488Y-61249210D01*
X125073560Y-61326637D01*
X125120120Y-61396320D01*
X125179380Y-61455580D01*
X125249063Y-61502140D01*
X125326490Y-61534212D01*
X125408686Y-61550561D01*
X125492492Y-61550561D01*
X125574688Y-61534212D01*
X125652115Y-61502140D01*
X125721798Y-61455580D01*
X125781058Y-61396320D01*
X125827618Y-61326637D01*
X125859690Y-61249210D01*
X125876039Y-61167014D01*
X125876039Y-61083208D01*
X125859690Y-61001012D01*
X125829987Y-60929303D01*
X128660649Y-60929303D01*
X128660649Y-61013109D01*
X128676998Y-61095305D01*
X128709070Y-61172732D01*
X128755630Y-61242415D01*
X128814890Y-61301675D01*
X128884573Y-61348235D01*
X128962000Y-61380307D01*
X129044196Y-61396656D01*
X129128002Y-61396656D01*
X129210198Y-61380307D01*
X129287625Y-61348235D01*
X129357308Y-61301675D01*
X129410692Y-61248291D01*
X132994443Y-61248291D01*
X132994443Y-61332097D01*
X133010792Y-61414293D01*
X133042864Y-61491720D01*
X133089424Y-61561403D01*
X133148684Y-61620663D01*
X133218367Y-61667223D01*
X133295794Y-61699295D01*
X133377990Y-61715644D01*
X133461796Y-61715644D01*
X133543992Y-61699295D01*
X133621419Y-61667223D01*
X133691102Y-61620663D01*
X133750362Y-61561403D01*
X133796922Y-61491720D01*
X133828994Y-61414293D01*
X133845343Y-61332097D01*
X133845343Y-61248291D01*
X133828994Y-61166095D01*
X133796922Y-61088668D01*
X133750362Y-61018985D01*
X133691102Y-60959725D01*
X133621419Y-60913165D01*
X133543992Y-60881093D01*
X133461796Y-60864744D01*
X133377990Y-60864744D01*
X133295794Y-60881093D01*
X133218367Y-60913165D01*
X133148684Y-60959725D01*
X133089424Y-61018985D01*
X133042864Y-61088668D01*
X133010792Y-61166095D01*
X132994443Y-61248291D01*
X129410692Y-61248291D01*
X129416568Y-61242415D01*
X129463128Y-61172732D01*
X129495200Y-61095305D01*
X129511549Y-61013109D01*
X129511549Y-60929303D01*
X129495200Y-60847107D01*
X129463128Y-60769680D01*
X129416568Y-60699997D01*
X129398857Y-60682286D01*
X129511560Y-60682286D01*
X129511560Y-60766092D01*
X129527909Y-60848288D01*
X129559981Y-60925715D01*
X129606541Y-60995398D01*
X129665801Y-61054658D01*
X129735484Y-61101218D01*
X129812911Y-61133290D01*
X129895107Y-61149639D01*
X129978913Y-61149639D01*
X130061109Y-61133290D01*
X130138536Y-61101218D01*
X130208219Y-61054658D01*
X130267479Y-60995398D01*
X130314039Y-60925715D01*
X130346111Y-60848288D01*
X130362460Y-60766092D01*
X130362460Y-60682286D01*
X130346111Y-60600090D01*
X130314039Y-60522663D01*
X130267479Y-60452980D01*
X130208219Y-60393720D01*
X130138536Y-60347160D01*
X130061109Y-60315088D01*
X129978913Y-60298739D01*
X129895107Y-60298739D01*
X129812911Y-60315088D01*
X129735484Y-60347160D01*
X129665801Y-60393720D01*
X129606541Y-60452980D01*
X129559981Y-60522663D01*
X129527909Y-60600090D01*
X129511560Y-60682286D01*
X129398857Y-60682286D01*
X129357308Y-60640737D01*
X129287625Y-60594177D01*
X129210198Y-60562105D01*
X129128002Y-60545756D01*
X129044196Y-60545756D01*
X128962000Y-60562105D01*
X128884573Y-60594177D01*
X128814890Y-60640737D01*
X128755630Y-60699997D01*
X128709070Y-60769680D01*
X128676998Y-60847107D01*
X128660649Y-60929303D01*
X125829987Y-60929303D01*
X125827618Y-60923585D01*
X125781058Y-60853902D01*
X125753817Y-60826661D01*
X125781069Y-60799409D01*
X125827629Y-60729726D01*
X125859701Y-60652299D01*
X125876050Y-60570103D01*
X125876050Y-60486297D01*
X125859701Y-60404101D01*
X125827629Y-60326674D01*
X125781069Y-60256991D01*
X125741592Y-60217514D01*
X125756086Y-60203020D01*
X125802646Y-60133337D01*
X125834718Y-60055910D01*
X125851067Y-59973714D01*
X125851067Y-59889908D01*
X125834718Y-59807712D01*
X125802646Y-59730285D01*
X125756086Y-59660602D01*
X125743868Y-59648384D01*
X129952455Y-59648384D01*
X129952455Y-59732190D01*
X129968804Y-59814386D01*
X130000876Y-59891813D01*
X130047436Y-59961496D01*
X130106696Y-60020756D01*
X130176379Y-60067316D01*
X130253806Y-60099388D01*
X130336002Y-60115737D01*
X130372049Y-60115737D01*
X130372049Y-60193094D01*
X130388398Y-60275290D01*
X130420470Y-60352717D01*
X130467030Y-60422400D01*
X130526290Y-60481660D01*
X130595973Y-60528220D01*
X130673400Y-60560292D01*
X130755596Y-60576641D01*
X130839402Y-60576641D01*
X130921598Y-60560292D01*
X130999025Y-60528220D01*
X131068708Y-60481660D01*
X131127968Y-60422400D01*
X131174528Y-60352717D01*
X131206600Y-60275290D01*
X131222949Y-60193094D01*
X131222949Y-60125249D01*
X131479180Y-60125249D01*
X131479180Y-60209055D01*
X131495529Y-60291251D01*
X131527601Y-60368678D01*
X131574161Y-60438361D01*
X131633421Y-60497621D01*
X131703104Y-60544181D01*
X131780531Y-60576253D01*
X131862727Y-60592602D01*
X131946533Y-60592602D01*
X132028729Y-60576253D01*
X132106156Y-60544181D01*
X132175839Y-60497621D01*
X132235099Y-60438361D01*
X132281659Y-60368678D01*
X132313731Y-60291251D01*
X132330080Y-60209055D01*
X132330080Y-60125249D01*
X132313731Y-60043053D01*
X132281659Y-59965626D01*
X132235099Y-59895943D01*
X132175839Y-59836683D01*
X132106156Y-59790123D01*
X132028729Y-59758051D01*
X131946533Y-59741702D01*
X131862727Y-59741702D01*
X131780531Y-59758051D01*
X131703104Y-59790123D01*
X131633421Y-59836683D01*
X131574161Y-59895943D01*
X131527601Y-59965626D01*
X131495529Y-60043053D01*
X131479180Y-60125249D01*
X131222949Y-60125249D01*
X131222949Y-60109288D01*
X131206600Y-60027092D01*
X131174528Y-59949665D01*
X131127968Y-59879982D01*
X131068708Y-59820722D01*
X130999025Y-59774162D01*
X130921598Y-59742090D01*
X130839402Y-59725741D01*
X130803355Y-59725741D01*
X130803355Y-59648384D01*
X130787006Y-59566188D01*
X130754934Y-59488761D01*
X130708374Y-59419078D01*
X130649114Y-59359818D01*
X130579431Y-59313258D01*
X130502004Y-59281186D01*
X130419808Y-59264837D01*
X130336002Y-59264837D01*
X130253806Y-59281186D01*
X130176379Y-59313258D01*
X130106696Y-59359818D01*
X130047436Y-59419078D01*
X130000876Y-59488761D01*
X129968804Y-59566188D01*
X129952455Y-59648384D01*
X125743868Y-59648384D01*
X125696826Y-59601342D01*
X125627143Y-59554782D01*
X125549716Y-59522710D01*
X125467520Y-59506361D01*
X125383714Y-59506361D01*
X125301518Y-59522710D01*
X125224091Y-59554782D01*
X125154408Y-59601342D01*
X125095148Y-59660602D01*
X125048588Y-59730285D01*
X125016516Y-59807712D01*
X125000167Y-59889908D01*
X121410200Y-59889908D01*
X121410200Y-59175586D01*
X127209550Y-59175586D01*
X127209550Y-59259392D01*
X127225899Y-59341588D01*
X127257971Y-59419015D01*
X127304531Y-59488698D01*
X127363791Y-59547958D01*
X127433474Y-59594518D01*
X127510901Y-59626590D01*
X127593097Y-59642939D01*
X127676903Y-59642939D01*
X127759099Y-59626590D01*
X127836526Y-59594518D01*
X127906209Y-59547958D01*
X127965469Y-59488698D01*
X128012029Y-59419015D01*
X128044101Y-59341588D01*
X128060450Y-59259392D01*
X128060450Y-59175586D01*
X128044101Y-59093390D01*
X128029307Y-59057675D01*
X128105107Y-59089073D01*
X128187303Y-59105422D01*
X128271109Y-59105422D01*
X128353305Y-59089073D01*
X128430732Y-59057001D01*
X128500415Y-59010441D01*
X128559675Y-58951181D01*
X128606235Y-58881498D01*
X128638307Y-58804071D01*
X128654656Y-58721875D01*
X128654656Y-58638069D01*
X128653469Y-58632097D01*
X128733552Y-58632097D01*
X128733552Y-58715903D01*
X128749901Y-58798099D01*
X128781973Y-58875526D01*
X128828533Y-58945209D01*
X128887793Y-59004469D01*
X128957476Y-59051029D01*
X129034903Y-59083101D01*
X129117099Y-59099450D01*
X129200905Y-59099450D01*
X129283101Y-59083101D01*
X129360528Y-59051029D01*
X129430211Y-59004469D01*
X129489471Y-58945209D01*
X129536031Y-58875526D01*
X129568103Y-58798099D01*
X129584452Y-58715903D01*
X129584452Y-58632097D01*
X129582997Y-58624781D01*
X130185741Y-58624781D01*
X130185741Y-58708587D01*
X130202090Y-58790783D01*
X130234162Y-58868210D01*
X130280722Y-58937893D01*
X130339982Y-58997153D01*
X130409665Y-59043713D01*
X130487092Y-59075785D01*
X130569288Y-59092134D01*
X130653094Y-59092134D01*
X130735290Y-59075785D01*
X130812717Y-59043713D01*
X130882400Y-58997153D01*
X130941660Y-58937893D01*
X130988220Y-58868210D01*
X131020292Y-58790783D01*
X131036641Y-58708587D01*
X131036641Y-58632097D01*
X131165610Y-58632097D01*
X131165610Y-58715903D01*
X131181959Y-58798099D01*
X131214031Y-58875526D01*
X131260591Y-58945209D01*
X131319851Y-59004469D01*
X131389534Y-59051029D01*
X131466961Y-59083101D01*
X131549157Y-59099450D01*
X131632963Y-59099450D01*
X131715159Y-59083101D01*
X131792586Y-59051029D01*
X131836741Y-59021526D01*
X131811913Y-59046354D01*
X131765353Y-59116037D01*
X131733281Y-59193464D01*
X131716932Y-59275660D01*
X131716932Y-59359466D01*
X131733281Y-59441662D01*
X131765353Y-59519089D01*
X131811913Y-59588772D01*
X131871173Y-59648032D01*
X131940856Y-59694592D01*
X132018283Y-59726664D01*
X132100479Y-59743013D01*
X132184285Y-59743013D01*
X132266481Y-59726664D01*
X132343908Y-59694592D01*
X132413591Y-59648032D01*
X132472851Y-59588772D01*
X132519411Y-59519089D01*
X132550142Y-59444897D01*
X139147550Y-59444897D01*
X139147550Y-59528703D01*
X139163899Y-59610899D01*
X139195971Y-59688326D01*
X139242531Y-59758009D01*
X139301791Y-59817269D01*
X139371474Y-59863829D01*
X139448901Y-59895901D01*
X139531097Y-59912250D01*
X139614903Y-59912250D01*
X139697099Y-59895901D01*
X139774526Y-59863829D01*
X139844209Y-59817269D01*
X139903469Y-59758009D01*
X139950029Y-59688326D01*
X139982101Y-59610899D01*
X139998450Y-59528703D01*
X139998450Y-59444897D01*
X139982101Y-59362701D01*
X139950029Y-59285274D01*
X139903469Y-59215591D01*
X139844209Y-59156331D01*
X139774526Y-59109771D01*
X139697099Y-59077699D01*
X139614903Y-59061350D01*
X139531097Y-59061350D01*
X139448901Y-59077699D01*
X139371474Y-59109771D01*
X139301791Y-59156331D01*
X139242531Y-59215591D01*
X139195971Y-59285274D01*
X139163899Y-59362701D01*
X139147550Y-59444897D01*
X132550142Y-59444897D01*
X132551483Y-59441662D01*
X132567832Y-59359466D01*
X132567832Y-59275660D01*
X132551483Y-59193464D01*
X132519411Y-59116037D01*
X132472851Y-59046354D01*
X132466882Y-59040385D01*
X132510126Y-59022473D01*
X132579809Y-58975913D01*
X132639069Y-58916653D01*
X132648844Y-58902023D01*
X132660126Y-58918908D01*
X132719386Y-58978168D01*
X132789069Y-59024728D01*
X132866496Y-59056800D01*
X132948692Y-59073149D01*
X133032498Y-59073149D01*
X133114694Y-59056800D01*
X133192121Y-59024728D01*
X133261804Y-58978168D01*
X133321064Y-58918908D01*
X133367624Y-58849225D01*
X133380749Y-58817538D01*
X133404769Y-58875526D01*
X133451329Y-58945209D01*
X133510589Y-59004469D01*
X133580272Y-59051029D01*
X133657699Y-59083101D01*
X133739895Y-59099450D01*
X133823701Y-59099450D01*
X133905897Y-59083101D01*
X133983324Y-59051029D01*
X134053007Y-59004469D01*
X134112267Y-58945209D01*
X134158827Y-58875526D01*
X134190899Y-58798099D01*
X134207248Y-58715903D01*
X134207248Y-58632097D01*
X134190899Y-58549901D01*
X134158827Y-58472474D01*
X134112267Y-58402791D01*
X134053007Y-58343531D01*
X133983324Y-58296971D01*
X133905897Y-58264899D01*
X133823701Y-58248550D01*
X133739895Y-58248550D01*
X133657699Y-58264899D01*
X133580272Y-58296971D01*
X133510589Y-58343531D01*
X133451329Y-58402791D01*
X133404769Y-58472474D01*
X133391644Y-58504161D01*
X133367624Y-58446173D01*
X133321064Y-58376490D01*
X133261804Y-58317230D01*
X133192121Y-58270670D01*
X133114694Y-58238598D01*
X133032498Y-58222249D01*
X132948692Y-58222249D01*
X132866496Y-58238598D01*
X132789069Y-58270670D01*
X132719386Y-58317230D01*
X132660126Y-58376490D01*
X132650351Y-58391120D01*
X132639069Y-58374235D01*
X132579809Y-58314975D01*
X132510126Y-58268415D01*
X132432699Y-58236343D01*
X132350503Y-58219994D01*
X132266697Y-58219994D01*
X132184501Y-58236343D01*
X132107074Y-58268415D01*
X132037391Y-58314975D01*
X131978131Y-58374235D01*
X131940290Y-58430869D01*
X131921529Y-58402791D01*
X131862269Y-58343531D01*
X131792586Y-58296971D01*
X131715159Y-58264899D01*
X131632963Y-58248550D01*
X131549157Y-58248550D01*
X131466961Y-58264899D01*
X131389534Y-58296971D01*
X131319851Y-58343531D01*
X131260591Y-58402791D01*
X131214031Y-58472474D01*
X131181959Y-58549901D01*
X131165610Y-58632097D01*
X131036641Y-58632097D01*
X131036641Y-58624781D01*
X131020292Y-58542585D01*
X130988220Y-58465158D01*
X130941660Y-58395475D01*
X130882400Y-58336215D01*
X130812717Y-58289655D01*
X130735290Y-58257583D01*
X130653094Y-58241234D01*
X130569288Y-58241234D01*
X130487092Y-58257583D01*
X130409665Y-58289655D01*
X130339982Y-58336215D01*
X130280722Y-58395475D01*
X130234162Y-58465158D01*
X130202090Y-58542585D01*
X130185741Y-58624781D01*
X129582997Y-58624781D01*
X129568103Y-58549901D01*
X129536031Y-58472474D01*
X129489471Y-58402791D01*
X129430211Y-58343531D01*
X129360528Y-58296971D01*
X129283101Y-58264899D01*
X129200905Y-58248550D01*
X129117099Y-58248550D01*
X129034903Y-58264899D01*
X128957476Y-58296971D01*
X128887793Y-58343531D01*
X128828533Y-58402791D01*
X128781973Y-58472474D01*
X128749901Y-58549901D01*
X128733552Y-58632097D01*
X128653469Y-58632097D01*
X128638307Y-58555873D01*
X128606235Y-58478446D01*
X128559675Y-58408763D01*
X128500415Y-58349503D01*
X128430732Y-58302943D01*
X128353305Y-58270871D01*
X128271109Y-58254522D01*
X128187303Y-58254522D01*
X128105107Y-58270871D01*
X128027680Y-58302943D01*
X127957997Y-58349503D01*
X127898737Y-58408763D01*
X127852177Y-58478446D01*
X127820105Y-58555873D01*
X127803756Y-58638069D01*
X127803756Y-58721875D01*
X127820105Y-58804071D01*
X127834899Y-58839786D01*
X127759099Y-58808388D01*
X127676903Y-58792039D01*
X127593097Y-58792039D01*
X127510901Y-58808388D01*
X127433474Y-58840460D01*
X127363791Y-58887020D01*
X127304531Y-58946280D01*
X127257971Y-59015963D01*
X127225899Y-59093390D01*
X127209550Y-59175586D01*
X121410200Y-59175586D01*
X121410200Y-58632097D01*
X123501150Y-58632097D01*
X123501150Y-58715903D01*
X123517499Y-58798099D01*
X123549571Y-58875526D01*
X123596131Y-58945209D01*
X123655391Y-59004469D01*
X123725074Y-59051029D01*
X123802501Y-59083101D01*
X123884697Y-59099450D01*
X123968503Y-59099450D01*
X124050699Y-59083101D01*
X124128126Y-59051029D01*
X124197809Y-59004469D01*
X124257069Y-58945209D01*
X124303629Y-58875526D01*
X124335701Y-58798099D01*
X124352050Y-58715903D01*
X124352050Y-58632097D01*
X124335701Y-58549901D01*
X124303629Y-58472474D01*
X124257069Y-58402791D01*
X124197809Y-58343531D01*
X124128126Y-58296971D01*
X124050699Y-58264899D01*
X123968503Y-58248550D01*
X123884697Y-58248550D01*
X123802501Y-58264899D01*
X123725074Y-58296971D01*
X123655391Y-58343531D01*
X123596131Y-58402791D01*
X123549571Y-58472474D01*
X123517499Y-58549901D01*
X123501150Y-58632097D01*
X121410200Y-58632097D01*
X121410200Y-56473097D01*
X127209550Y-56473097D01*
X127209550Y-56556903D01*
X127225899Y-56639099D01*
X127257971Y-56716526D01*
X127304531Y-56786209D01*
X127363791Y-56845469D01*
X127433474Y-56892029D01*
X127510901Y-56924101D01*
X127593097Y-56940450D01*
X127676903Y-56940450D01*
X127759099Y-56924101D01*
X127836526Y-56892029D01*
X127906209Y-56845469D01*
X127965469Y-56786209D01*
X128012029Y-56716526D01*
X128044101Y-56639099D01*
X128060450Y-56556903D01*
X128060450Y-56473097D01*
X128044101Y-56390901D01*
X128012029Y-56313474D01*
X127965469Y-56243791D01*
X127906209Y-56184531D01*
X127836526Y-56137971D01*
X127759099Y-56105899D01*
X127676903Y-56089550D01*
X127593097Y-56089550D01*
X127510901Y-56105899D01*
X127433474Y-56137971D01*
X127363791Y-56184531D01*
X127304531Y-56243791D01*
X127257971Y-56313474D01*
X127225899Y-56390901D01*
X127209550Y-56473097D01*
X121410200Y-56473097D01*
X121410200Y-55423566D01*
X128701800Y-55423566D01*
X128701800Y-55523634D01*
X128721322Y-55621778D01*
X128759616Y-55714228D01*
X128815211Y-55797431D01*
X128885969Y-55868189D01*
X128969172Y-55923784D01*
X129061622Y-55962078D01*
X129159766Y-55981600D01*
X129259834Y-55981600D01*
X129357978Y-55962078D01*
X129450428Y-55923784D01*
X129533631Y-55868189D01*
X129604389Y-55797431D01*
X129659984Y-55714228D01*
X129698278Y-55621778D01*
X129717800Y-55523634D01*
X129717800Y-55423566D01*
X129698278Y-55325422D01*
X129659984Y-55232972D01*
X129604389Y-55149769D01*
X129533631Y-55079011D01*
X129450428Y-55023416D01*
X129357978Y-54985122D01*
X129259834Y-54965600D01*
X129159766Y-54965600D01*
X129061622Y-54985122D01*
X128969172Y-55023416D01*
X128885969Y-55079011D01*
X128815211Y-55149769D01*
X128759616Y-55232972D01*
X128721322Y-55325422D01*
X128701800Y-55423566D01*
X121410200Y-55423566D01*
X121410200Y-54646145D01*
X121429651Y-54487666D01*
X121476586Y-54344887D01*
X121550359Y-54213946D01*
X121648163Y-54099825D01*
X121766269Y-54006876D01*
X121900178Y-53938637D01*
X122047365Y-53896980D01*
X122169078Y-53884617D01*
X134176528Y-53884617D01*
X134192025Y-54022775D01*
G37*
X134192025Y-54022775D02*
X134196816Y-54045314D01*
X134201283Y-54067876D01*
X134202331Y-54071264D01*
X134305602Y-54396817D01*
X134314699Y-54418042D01*
X134323445Y-54439261D01*
X134325129Y-54442376D01*
X134325131Y-54442381D01*
X134325134Y-54442385D01*
X134489669Y-54741674D01*
X134502695Y-54760699D01*
X134515416Y-54779845D01*
X134517670Y-54782570D01*
X134517675Y-54782577D01*
X134517681Y-54782582D01*
X134737214Y-55044212D01*
X134753692Y-55060349D01*
X134769883Y-55076654D01*
X134772631Y-55078896D01*
X135038806Y-55292906D01*
X135058084Y-55305522D01*
X135077156Y-55318386D01*
X135080282Y-55320048D01*
X135080286Y-55320051D01*
X135080290Y-55320053D01*
X135382961Y-55478285D01*
X135404329Y-55486918D01*
X135425529Y-55495830D01*
X135428923Y-55496855D01*
X135756568Y-55593286D01*
X135779252Y-55597613D01*
X135801734Y-55602228D01*
X135805263Y-55602575D01*
X136145397Y-55633529D01*
X136168489Y-55633368D01*
X136191438Y-55633528D01*
X136194967Y-55633183D01*
X136194971Y-55633183D01*
X136534636Y-55597483D01*
X136557262Y-55592838D01*
X136579801Y-55588539D01*
X136583196Y-55587515D01*
X136909462Y-55486519D01*
X136930736Y-55477576D01*
X136952029Y-55468973D01*
X136955156Y-55467311D01*
X136955161Y-55467309D01*
X136955165Y-55467306D01*
X137255597Y-55304864D01*
X137274701Y-55291978D01*
X137293946Y-55279384D01*
X137296694Y-55277143D01*
X137559855Y-55059437D01*
X137576097Y-55043082D01*
X137592525Y-55026994D01*
X137594780Y-55024268D01*
X137594786Y-55024262D01*
X137594790Y-55024255D01*
X137810648Y-54759587D01*
X137823394Y-54740403D01*
X137836394Y-54721417D01*
X137838080Y-54718298D01*
X137998424Y-54416736D01*
X138007205Y-54395433D01*
X138016266Y-54374292D01*
X138017315Y-54370904D01*
X138116031Y-54043941D01*
X138120508Y-54021333D01*
X138125289Y-53998839D01*
X138125660Y-53995313D01*
X138136514Y-53884617D01*
X142140672Y-53884617D01*
X142299151Y-53904068D01*
X142441928Y-53951002D01*
X142572874Y-54024779D01*
X142686990Y-54122578D01*
X142779941Y-54240686D01*
X142848181Y-54374598D01*
X142889838Y-54521783D01*
X142902200Y-54643486D01*
X142902201Y-71014604D01*
X142892209Y-71093617D01*
X142869877Y-71160720D01*
X142834940Y-71222201D01*
X142788723Y-71275729D01*
X142732991Y-71319260D01*
X142669864Y-71351137D01*
X142598723Y-71370990D01*
X142530532Y-71377917D01*
X142529067Y-71378212D01*
X142527580Y-71378235D01*
X142524060Y-71378659D01*
X142466190Y-71386041D01*
X142448752Y-71390025D01*
X142431122Y-71393052D01*
X142427709Y-71394014D01*
X142331975Y-71421724D01*
X142310548Y-71430270D01*
X142289090Y-71438482D01*
X142285929Y-71440088D01*
X142197402Y-71485865D01*
X142178018Y-71498426D01*
X142158589Y-71510634D01*
X142155807Y-71512818D01*
X142155800Y-71512823D01*
X142155794Y-71512829D01*
X142077850Y-71574925D01*
X142061314Y-71590974D01*
X142044588Y-71606759D01*
X142042278Y-71609449D01*
X141977875Y-71685507D01*
X141964775Y-71704456D01*
X141951430Y-71723195D01*
X141949686Y-71726283D01*
X141901282Y-71813402D01*
X141892103Y-71834556D01*
X141882660Y-71855512D01*
X141881549Y-71858879D01*
X141850989Y-71953741D01*
X141846098Y-71976253D01*
X141840901Y-71998663D01*
X141840465Y-72002182D01*
X141831544Y-72078624D01*
X141830876Y-72080825D01*
X141827200Y-72118149D01*
X141827201Y-75376617D01*
X135635200Y-75376617D01*
X135635200Y-72718148D01*
X135633929Y-72705243D01*
X135633929Y-72697454D01*
X135633559Y-72693927D01*
X135620506Y-72577557D01*
X135615712Y-72554999D01*
X135615589Y-72554375D01*
X137372636Y-72554375D01*
X137372636Y-72638181D01*
X137388985Y-72720377D01*
X137421057Y-72797804D01*
X137467617Y-72867487D01*
X137526877Y-72926747D01*
X137596560Y-72973307D01*
X137673987Y-73005379D01*
X137756183Y-73021728D01*
X137839989Y-73021728D01*
X137922185Y-73005379D01*
X137999612Y-72973307D01*
X138069295Y-72926747D01*
X138128555Y-72867487D01*
X138175115Y-72797804D01*
X138207187Y-72720377D01*
X138223536Y-72638181D01*
X138223536Y-72554375D01*
X138207187Y-72472179D01*
X138175115Y-72394752D01*
X138155458Y-72365332D01*
X139499379Y-72365332D01*
X139499379Y-72449138D01*
X139515728Y-72531334D01*
X139547800Y-72608761D01*
X139594360Y-72678444D01*
X139653620Y-72737704D01*
X139723303Y-72784264D01*
X139800730Y-72816336D01*
X139882926Y-72832685D01*
X139966732Y-72832685D01*
X140048928Y-72816336D01*
X140126355Y-72784264D01*
X140196038Y-72737704D01*
X140227639Y-72706104D01*
X140250523Y-72728988D01*
X140320206Y-72775548D01*
X140397633Y-72807620D01*
X140479829Y-72823969D01*
X140563635Y-72823969D01*
X140645831Y-72807620D01*
X140723258Y-72775548D01*
X140792941Y-72728988D01*
X140852201Y-72669728D01*
X140898761Y-72600045D01*
X140930833Y-72522618D01*
X140947182Y-72440422D01*
X140947182Y-72356616D01*
X140930833Y-72274420D01*
X140898761Y-72196993D01*
X140852201Y-72127310D01*
X140792941Y-72068050D01*
X140723258Y-72021490D01*
X140645831Y-71989418D01*
X140563635Y-71973069D01*
X140479829Y-71973069D01*
X140397633Y-71989418D01*
X140320206Y-72021490D01*
X140250523Y-72068050D01*
X140218923Y-72099651D01*
X140196038Y-72076766D01*
X140126355Y-72030206D01*
X140048928Y-71998134D01*
X139966732Y-71981785D01*
X139882926Y-71981785D01*
X139800730Y-71998134D01*
X139723303Y-72030206D01*
X139653620Y-72076766D01*
X139594360Y-72136026D01*
X139547800Y-72205709D01*
X139515728Y-72283136D01*
X139499379Y-72365332D01*
X138155458Y-72365332D01*
X138128555Y-72325069D01*
X138069295Y-72265809D01*
X137999612Y-72219249D01*
X137922185Y-72187177D01*
X137839989Y-72170828D01*
X137756183Y-72170828D01*
X137673987Y-72187177D01*
X137596560Y-72219249D01*
X137526877Y-72265809D01*
X137467617Y-72325069D01*
X137421057Y-72394752D01*
X137388985Y-72472179D01*
X137372636Y-72554375D01*
X135615589Y-72554375D01*
X135611248Y-72532455D01*
X135610202Y-72529075D01*
X135610200Y-72529068D01*
X135610197Y-72529062D01*
X135574791Y-72417449D01*
X135565714Y-72396271D01*
X135556949Y-72375006D01*
X135555263Y-72371886D01*
X135498850Y-72269272D01*
X135485824Y-72250248D01*
X135473104Y-72231102D01*
X135470844Y-72228370D01*
X135470843Y-72228368D01*
X135470839Y-72228364D01*
X135395574Y-72138666D01*
X135379112Y-72122545D01*
X135362903Y-72106222D01*
X135360161Y-72103986D01*
X135360156Y-72103981D01*
X135360151Y-72103977D01*
X135268895Y-72030606D01*
X135249613Y-72017988D01*
X135230545Y-72005127D01*
X135227419Y-72003465D01*
X135227415Y-72003462D01*
X135227411Y-72003460D01*
X135123640Y-71949211D01*
X135102269Y-71940576D01*
X135081073Y-71931666D01*
X135077684Y-71930643D01*
X135077677Y-71930640D01*
X135077670Y-71930639D01*
X134965344Y-71897579D01*
X134942668Y-71893253D01*
X134920179Y-71888637D01*
X134916650Y-71888290D01*
X134800032Y-71877677D01*
X134776939Y-71877838D01*
X134753990Y-71877678D01*
X134750461Y-71878023D01*
X134750459Y-71878023D01*
X134634003Y-71890263D01*
X134611377Y-71894908D01*
X134588838Y-71899207D01*
X134585443Y-71900231D01*
X134473581Y-71934858D01*
X134452315Y-71943797D01*
X134431015Y-71952403D01*
X134427892Y-71954064D01*
X134427882Y-71954068D01*
X134427874Y-71954073D01*
X134324877Y-72009763D01*
X134305776Y-72022646D01*
X134286526Y-72035243D01*
X134283778Y-72037484D01*
X134193552Y-72112126D01*
X134177294Y-72128497D01*
X134160883Y-72144568D01*
X134158622Y-72147300D01*
X134084611Y-72238046D01*
X134071847Y-72257257D01*
X134058865Y-72276217D01*
X134057178Y-72279336D01*
X134002203Y-72382729D01*
X133993403Y-72404079D01*
X133984362Y-72425174D01*
X133983316Y-72428551D01*
X133983312Y-72428561D01*
X133983310Y-72428571D01*
X133949468Y-72540662D01*
X133944996Y-72563249D01*
X133940210Y-72585763D01*
X133939839Y-72589290D01*
X133928412Y-72705831D01*
X133928412Y-72705843D01*
X133927200Y-72718149D01*
X133927201Y-75376617D01*
X122485200Y-75376617D01*
X122485200Y-72246497D01*
X124517229Y-72246497D01*
X124517229Y-72330303D01*
X124533578Y-72412499D01*
X124565650Y-72489926D01*
X124612210Y-72559609D01*
X124671470Y-72618869D01*
X124741153Y-72665429D01*
X124818580Y-72697501D01*
X124900776Y-72713850D01*
X124984582Y-72713850D01*
X125066778Y-72697501D01*
X125144205Y-72665429D01*
X125213888Y-72618869D01*
X125273148Y-72559609D01*
X125319708Y-72489926D01*
X125336602Y-72449141D01*
X125622152Y-72449141D01*
X125622152Y-72532947D01*
X125638501Y-72615143D01*
X125670573Y-72692570D01*
X125717133Y-72762253D01*
X125776393Y-72821513D01*
X125846076Y-72868073D01*
X125923503Y-72900145D01*
X126005699Y-72916494D01*
X126089505Y-72916494D01*
X126171701Y-72900145D01*
X126249128Y-72868073D01*
X126318811Y-72821513D01*
X126378071Y-72762253D01*
X126424631Y-72692570D01*
X126435445Y-72666463D01*
X126492836Y-72666463D01*
X126492836Y-72750269D01*
X126509185Y-72832465D01*
X126541257Y-72909892D01*
X126587817Y-72979575D01*
X126647077Y-73038835D01*
X126716760Y-73085395D01*
X126794187Y-73117467D01*
X126876383Y-73133816D01*
X126960189Y-73133816D01*
X127042385Y-73117467D01*
X127119812Y-73085395D01*
X127189495Y-73038835D01*
X127248755Y-72979575D01*
X127295315Y-72909892D01*
X127327387Y-72832465D01*
X127343736Y-72750269D01*
X127343736Y-72709592D01*
X127381203Y-72709592D01*
X127460577Y-72693804D01*
X127460577Y-72747741D01*
X127476926Y-72829937D01*
X127508998Y-72907364D01*
X127555558Y-72977047D01*
X127614818Y-73036307D01*
X127684501Y-73082867D01*
X127761928Y-73114939D01*
X127844124Y-73131288D01*
X127927930Y-73131288D01*
X128010126Y-73114939D01*
X128087553Y-73082867D01*
X128157236Y-73036307D01*
X128216496Y-72977047D01*
X128263056Y-72907364D01*
X128295128Y-72829937D01*
X128311477Y-72747741D01*
X128311477Y-72721841D01*
X128362277Y-72721841D01*
X128373590Y-72719591D01*
X128373590Y-72744953D01*
X128389939Y-72827149D01*
X128422011Y-72904576D01*
X128468571Y-72974259D01*
X128527831Y-73033519D01*
X128597514Y-73080079D01*
X128674941Y-73112151D01*
X128757137Y-73128500D01*
X128840943Y-73128500D01*
X128923139Y-73112151D01*
X129000566Y-73080079D01*
X129070249Y-73033519D01*
X129129509Y-72974259D01*
X129176069Y-72904576D01*
X129208141Y-72827149D01*
X129222054Y-72757199D01*
X129224972Y-72757779D01*
X129308778Y-72757779D01*
X129390974Y-72741430D01*
X129468401Y-72709358D01*
X129538084Y-72662798D01*
X129597344Y-72603538D01*
X129643904Y-72533855D01*
X129675976Y-72456428D01*
X129692325Y-72374232D01*
X129692325Y-72297291D01*
X129692337Y-72297291D01*
X129692337Y-72381097D01*
X129708686Y-72463293D01*
X129740758Y-72540720D01*
X129787318Y-72610403D01*
X129846578Y-72669663D01*
X129916261Y-72716223D01*
X129993688Y-72748295D01*
X130075884Y-72764644D01*
X130159690Y-72764644D01*
X130241886Y-72748295D01*
X130319313Y-72716223D01*
X130388996Y-72669663D01*
X130448256Y-72610403D01*
X130494816Y-72540720D01*
X130526888Y-72463293D01*
X130543237Y-72381097D01*
X130543237Y-72369135D01*
X131051271Y-72369135D01*
X131051271Y-72452941D01*
X131067620Y-72535137D01*
X131099692Y-72612564D01*
X131146252Y-72682247D01*
X131205512Y-72741507D01*
X131275195Y-72788067D01*
X131352622Y-72820139D01*
X131434818Y-72836488D01*
X131518624Y-72836488D01*
X131600820Y-72820139D01*
X131678247Y-72788067D01*
X131747930Y-72741507D01*
X131807190Y-72682247D01*
X131832233Y-72644766D01*
X132156190Y-72644766D01*
X132156190Y-72744834D01*
X132175712Y-72842978D01*
X132214006Y-72935428D01*
X132269601Y-73018631D01*
X132340359Y-73089389D01*
X132423562Y-73144984D01*
X132516012Y-73183278D01*
X132614156Y-73202800D01*
X132714224Y-73202800D01*
X132812368Y-73183278D01*
X132904818Y-73144984D01*
X132988021Y-73089389D01*
X133058779Y-73018631D01*
X133114374Y-72935428D01*
X133152668Y-72842978D01*
X133172190Y-72744834D01*
X133172190Y-72644766D01*
X133152668Y-72546622D01*
X133114374Y-72454172D01*
X133058779Y-72370969D01*
X132988021Y-72300211D01*
X132904818Y-72244616D01*
X132812368Y-72206322D01*
X132714224Y-72186800D01*
X132614156Y-72186800D01*
X132516012Y-72206322D01*
X132423562Y-72244616D01*
X132340359Y-72300211D01*
X132269601Y-72370969D01*
X132214006Y-72454172D01*
X132175712Y-72546622D01*
X132156190Y-72644766D01*
X131832233Y-72644766D01*
X131853750Y-72612564D01*
X131885822Y-72535137D01*
X131902171Y-72452941D01*
X131902171Y-72369135D01*
X131885822Y-72286939D01*
X131853750Y-72209512D01*
X131807190Y-72139829D01*
X131747930Y-72080569D01*
X131678247Y-72034009D01*
X131600820Y-72001937D01*
X131518624Y-71985588D01*
X131434818Y-71985588D01*
X131352622Y-72001937D01*
X131275195Y-72034009D01*
X131205512Y-72080569D01*
X131146252Y-72139829D01*
X131099692Y-72209512D01*
X131067620Y-72286939D01*
X131051271Y-72369135D01*
X130543237Y-72369135D01*
X130543237Y-72297291D01*
X130526888Y-72215095D01*
X130494816Y-72137668D01*
X130448256Y-72067985D01*
X130388996Y-72008725D01*
X130319313Y-71962165D01*
X130241886Y-71930093D01*
X130159690Y-71913744D01*
X130075884Y-71913744D01*
X129993688Y-71930093D01*
X129916261Y-71962165D01*
X129846578Y-72008725D01*
X129787318Y-72067985D01*
X129740758Y-72137668D01*
X129708686Y-72215095D01*
X129692337Y-72297291D01*
X129692325Y-72297291D01*
X129692325Y-72290426D01*
X129675976Y-72208230D01*
X129643904Y-72130803D01*
X129597344Y-72061120D01*
X129538084Y-72001860D01*
X129468401Y-71955300D01*
X129390974Y-71923228D01*
X129308778Y-71906879D01*
X129224972Y-71906879D01*
X129142776Y-71923228D01*
X129065349Y-71955300D01*
X128995666Y-72001860D01*
X128936406Y-72061120D01*
X128889846Y-72130803D01*
X128857774Y-72208230D01*
X128843861Y-72278180D01*
X128840943Y-72277600D01*
X128757137Y-72277600D01*
X128745824Y-72279850D01*
X128745824Y-72254488D01*
X128729475Y-72172292D01*
X128697403Y-72094865D01*
X128650843Y-72025182D01*
X128591583Y-71965922D01*
X128521900Y-71919362D01*
X128444473Y-71887290D01*
X128362277Y-71870941D01*
X128278471Y-71870941D01*
X128196275Y-71887290D01*
X128118848Y-71919362D01*
X128049165Y-71965922D01*
X127989905Y-72025182D01*
X127943345Y-72094865D01*
X127911273Y-72172292D01*
X127894924Y-72254488D01*
X127894924Y-72280388D01*
X127844124Y-72280388D01*
X127764750Y-72296176D01*
X127764750Y-72242239D01*
X127748401Y-72160043D01*
X127716329Y-72082616D01*
X127669769Y-72012933D01*
X127610509Y-71953673D01*
X127540826Y-71907113D01*
X127463399Y-71875041D01*
X127381203Y-71858692D01*
X127297397Y-71858692D01*
X127215201Y-71875041D01*
X127137774Y-71907113D01*
X127068091Y-71953673D01*
X127008831Y-72012933D01*
X126962271Y-72082616D01*
X126930199Y-72160043D01*
X126913850Y-72242239D01*
X126913850Y-72282916D01*
X126876383Y-72282916D01*
X126794187Y-72299265D01*
X126716760Y-72331337D01*
X126647077Y-72377897D01*
X126587817Y-72437157D01*
X126541257Y-72506840D01*
X126509185Y-72584267D01*
X126492836Y-72666463D01*
X126435445Y-72666463D01*
X126456703Y-72615143D01*
X126473052Y-72532947D01*
X126473052Y-72449141D01*
X126456703Y-72366945D01*
X126424631Y-72289518D01*
X126378071Y-72219835D01*
X126318811Y-72160575D01*
X126249128Y-72114015D01*
X126171701Y-72081943D01*
X126089505Y-72065594D01*
X126005699Y-72065594D01*
X125923503Y-72081943D01*
X125846076Y-72114015D01*
X125776393Y-72160575D01*
X125717133Y-72219835D01*
X125670573Y-72289518D01*
X125638501Y-72366945D01*
X125622152Y-72449141D01*
X125336602Y-72449141D01*
X125351780Y-72412499D01*
X125368129Y-72330303D01*
X125368129Y-72246497D01*
X125351780Y-72164301D01*
X125319708Y-72086874D01*
X125273148Y-72017191D01*
X125213888Y-71957931D01*
X125144205Y-71911371D01*
X125066778Y-71879299D01*
X124984582Y-71862950D01*
X124900776Y-71862950D01*
X124818580Y-71879299D01*
X124741153Y-71911371D01*
X124671470Y-71957931D01*
X124612210Y-72017191D01*
X124565650Y-72086874D01*
X124533578Y-72164301D01*
X124517229Y-72246497D01*
X122485200Y-72246497D01*
X122485200Y-72118148D01*
X122484262Y-72108629D01*
X122480788Y-72062755D01*
X122477915Y-72046348D01*
X122476107Y-72029816D01*
X122475356Y-72026351D01*
X122453307Y-71928042D01*
X122446094Y-71906158D01*
X122439200Y-71884214D01*
X122437790Y-71880961D01*
X122397064Y-71788805D01*
X122385733Y-71768728D01*
X122374714Y-71748553D01*
X122372704Y-71745645D01*
X122372698Y-71745634D01*
X122372690Y-71745625D01*
X122314851Y-71663147D01*
X122299826Y-71645643D01*
X122285107Y-71628002D01*
X122282563Y-71625531D01*
X122209794Y-71555849D01*
X122191653Y-71541594D01*
X122173790Y-71527151D01*
X122170815Y-71525221D01*
X122085897Y-71471000D01*
X122065349Y-71460549D01*
X122045007Y-71449842D01*
X122041723Y-71448532D01*
X122041712Y-71448526D01*
X122041701Y-71448523D01*
X121947882Y-71411833D01*
X121925704Y-71405574D01*
X121903657Y-71399019D01*
X121900177Y-71398370D01*
X121900173Y-71398369D01*
X121900169Y-71398369D01*
X121855948Y-71390445D01*
X134052917Y-71390445D01*
X134052917Y-71474251D01*
X134069266Y-71556447D01*
X134101338Y-71633874D01*
X134147898Y-71703557D01*
X134207158Y-71762817D01*
X134276841Y-71809377D01*
X134354268Y-71841449D01*
X134436464Y-71857798D01*
X134520270Y-71857798D01*
X134602466Y-71841449D01*
X134679893Y-71809377D01*
X134749576Y-71762817D01*
X134808836Y-71703557D01*
X134855396Y-71633874D01*
X134887468Y-71556447D01*
X134903817Y-71474251D01*
X134903817Y-71406176D01*
X135100514Y-71406176D01*
X135100514Y-71489982D01*
X135116863Y-71572178D01*
X135148935Y-71649605D01*
X135195495Y-71719288D01*
X135254755Y-71778548D01*
X135324438Y-71825108D01*
X135401865Y-71857180D01*
X135484061Y-71873529D01*
X135525974Y-71873529D01*
X135525974Y-71914724D01*
X135542323Y-71996920D01*
X135574395Y-72074347D01*
X135620955Y-72144030D01*
X135680215Y-72203290D01*
X135749898Y-72249850D01*
X135827325Y-72281922D01*
X135909521Y-72298271D01*
X135993327Y-72298271D01*
X136075523Y-72281922D01*
X136152950Y-72249850D01*
X136222633Y-72203290D01*
X136281893Y-72144030D01*
X136328453Y-72074347D01*
X136360525Y-71996920D01*
X136376874Y-71914724D01*
X136376874Y-71830918D01*
X136360525Y-71748722D01*
X136328453Y-71671295D01*
X136281893Y-71601612D01*
X136222633Y-71542352D01*
X136152950Y-71495792D01*
X136075523Y-71463720D01*
X135993327Y-71447371D01*
X135951414Y-71447371D01*
X135951414Y-71406176D01*
X135949266Y-71395372D01*
X136630897Y-71395372D01*
X136630897Y-71479178D01*
X136647246Y-71561374D01*
X136679318Y-71638801D01*
X136725878Y-71708484D01*
X136785138Y-71767744D01*
X136803879Y-71780266D01*
X136773539Y-71825674D01*
X136741467Y-71903101D01*
X136725118Y-71985297D01*
X136725118Y-72069103D01*
X136741467Y-72151299D01*
X136773539Y-72228726D01*
X136820099Y-72298409D01*
X136879359Y-72357669D01*
X136949042Y-72404229D01*
X137026469Y-72436301D01*
X137108665Y-72452650D01*
X137192471Y-72452650D01*
X137274667Y-72436301D01*
X137352094Y-72404229D01*
X137421777Y-72357669D01*
X137481037Y-72298409D01*
X137527597Y-72228726D01*
X137559669Y-72151299D01*
X137576018Y-72069103D01*
X137576018Y-71985297D01*
X137559669Y-71903101D01*
X137527597Y-71825674D01*
X137481037Y-71755991D01*
X137421777Y-71696731D01*
X137403036Y-71684209D01*
X137433376Y-71638801D01*
X137465448Y-71561374D01*
X137481797Y-71479178D01*
X137481797Y-71395372D01*
X137465448Y-71313176D01*
X137433376Y-71235749D01*
X137386816Y-71166066D01*
X137327556Y-71106806D01*
X137257873Y-71060246D01*
X137180446Y-71028174D01*
X137098250Y-71011825D01*
X137014444Y-71011825D01*
X136932248Y-71028174D01*
X136854821Y-71060246D01*
X136785138Y-71106806D01*
X136725878Y-71166066D01*
X136679318Y-71235749D01*
X136647246Y-71313176D01*
X136630897Y-71395372D01*
X135949266Y-71395372D01*
X135935065Y-71323980D01*
X135902993Y-71246553D01*
X135856433Y-71176870D01*
X135797173Y-71117610D01*
X135727490Y-71071050D01*
X135650063Y-71038978D01*
X135567867Y-71022629D01*
X135484061Y-71022629D01*
X135401865Y-71038978D01*
X135324438Y-71071050D01*
X135254755Y-71117610D01*
X135195495Y-71176870D01*
X135148935Y-71246553D01*
X135116863Y-71323980D01*
X135100514Y-71406176D01*
X134903817Y-71406176D01*
X134903817Y-71390445D01*
X134887468Y-71308249D01*
X134858530Y-71238387D01*
X134882629Y-71228405D01*
X134952312Y-71181845D01*
X135011572Y-71122585D01*
X135058132Y-71052902D01*
X135090204Y-70975475D01*
X135106553Y-70893279D01*
X135106553Y-70809473D01*
X135090204Y-70727277D01*
X135058132Y-70649850D01*
X135011572Y-70580167D01*
X134982442Y-70551037D01*
X135991632Y-70551037D01*
X135991632Y-70634843D01*
X136007981Y-70717039D01*
X136040053Y-70794466D01*
X136086613Y-70864149D01*
X136145873Y-70923409D01*
X136215556Y-70969969D01*
X136292983Y-71002041D01*
X136375179Y-71018390D01*
X136458985Y-71018390D01*
X136541181Y-71002041D01*
X136618608Y-70969969D01*
X136688291Y-70923409D01*
X136747551Y-70864149D01*
X136794111Y-70794466D01*
X136826183Y-70717039D01*
X136842532Y-70634843D01*
X136842532Y-70612766D01*
X141351000Y-70612766D01*
X141351000Y-70712834D01*
X141370522Y-70810978D01*
X141408816Y-70903428D01*
X141464411Y-70986631D01*
X141535169Y-71057389D01*
X141618372Y-71112984D01*
X141710822Y-71151278D01*
X141808966Y-71170800D01*
X141909034Y-71170800D01*
X142007178Y-71151278D01*
X142099628Y-71112984D01*
X142182831Y-71057389D01*
X142253589Y-70986631D01*
X142309184Y-70903428D01*
X142347478Y-70810978D01*
X142367000Y-70712834D01*
X142367000Y-70612766D01*
X142347478Y-70514622D01*
X142309184Y-70422172D01*
X142253589Y-70338969D01*
X142182831Y-70268211D01*
X142099628Y-70212616D01*
X142007178Y-70174322D01*
X141909034Y-70154800D01*
X141808966Y-70154800D01*
X141710822Y-70174322D01*
X141618372Y-70212616D01*
X141535169Y-70268211D01*
X141464411Y-70338969D01*
X141408816Y-70422172D01*
X141370522Y-70514622D01*
X141351000Y-70612766D01*
X136842532Y-70612766D01*
X136842532Y-70551037D01*
X136826183Y-70468841D01*
X136794111Y-70391414D01*
X136747551Y-70321731D01*
X136688291Y-70262471D01*
X136618608Y-70215911D01*
X136541181Y-70183839D01*
X136458985Y-70167490D01*
X136375179Y-70167490D01*
X136292983Y-70183839D01*
X136215556Y-70215911D01*
X136145873Y-70262471D01*
X136086613Y-70321731D01*
X136040053Y-70391414D01*
X136007981Y-70468841D01*
X135991632Y-70551037D01*
X134982442Y-70551037D01*
X134952312Y-70520907D01*
X134882629Y-70474347D01*
X134805202Y-70442275D01*
X134723006Y-70425926D01*
X134639200Y-70425926D01*
X134557004Y-70442275D01*
X134479577Y-70474347D01*
X134409894Y-70520907D01*
X134350634Y-70580167D01*
X134304074Y-70649850D01*
X134272002Y-70727277D01*
X134255653Y-70809473D01*
X134255653Y-70893279D01*
X134272002Y-70975475D01*
X134300940Y-71045337D01*
X134276841Y-71055319D01*
X134207158Y-71101879D01*
X134147898Y-71161139D01*
X134101338Y-71230822D01*
X134069266Y-71308249D01*
X134052917Y-71390445D01*
X121855948Y-71390445D01*
X121800999Y-71380599D01*
X121796224Y-71380218D01*
X121791580Y-71379094D01*
X121788066Y-71378624D01*
X121693199Y-71366627D01*
X121626098Y-71344295D01*
X121564614Y-71309356D01*
X121511088Y-71263142D01*
X121467557Y-71207408D01*
X121435680Y-71144281D01*
X121415827Y-71073140D01*
X121410200Y-71017747D01*
X121410200Y-70958344D01*
X121419016Y-70979628D01*
X121474611Y-71062831D01*
X121545369Y-71133589D01*
X121628572Y-71189184D01*
X121721022Y-71227478D01*
X121819166Y-71247000D01*
X121919234Y-71247000D01*
X122017378Y-71227478D01*
X122109828Y-71189184D01*
X122193031Y-71133589D01*
X122263789Y-71062831D01*
X122319384Y-70979628D01*
X122357678Y-70887178D01*
X122377200Y-70789034D01*
X122377200Y-70767518D01*
X126670371Y-70767518D01*
X126670371Y-70851324D01*
X126686720Y-70933520D01*
X126718792Y-71010947D01*
X126765352Y-71080630D01*
X126824612Y-71139890D01*
X126894295Y-71186450D01*
X126971722Y-71218522D01*
X127053918Y-71234871D01*
X127137724Y-71234871D01*
X127219920Y-71218522D01*
X127297347Y-71186450D01*
X127367030Y-71139890D01*
X127426290Y-71080630D01*
X127472850Y-71010947D01*
X127504922Y-70933520D01*
X127521155Y-70851906D01*
X127561701Y-70868701D01*
X127643897Y-70885050D01*
X127727703Y-70885050D01*
X127809899Y-70868701D01*
X127887326Y-70836629D01*
X127957009Y-70790069D01*
X128016269Y-70730809D01*
X128062829Y-70661126D01*
X128094901Y-70583699D01*
X128111250Y-70501503D01*
X128111250Y-70445165D01*
X128151897Y-70453250D01*
X128235703Y-70453250D01*
X128317899Y-70436901D01*
X128395326Y-70404829D01*
X128465009Y-70358269D01*
X128513770Y-70309508D01*
X128523727Y-70324409D01*
X128582987Y-70383669D01*
X128652670Y-70430229D01*
X128730097Y-70462301D01*
X128812293Y-70478650D01*
X128896099Y-70478650D01*
X128978295Y-70462301D01*
X129055722Y-70430229D01*
X129058867Y-70428127D01*
X131387852Y-70428127D01*
X131387852Y-70511933D01*
X131404201Y-70594129D01*
X131436273Y-70671556D01*
X131482833Y-70741239D01*
X131542093Y-70800499D01*
X131611776Y-70847059D01*
X131689203Y-70879131D01*
X131771399Y-70895480D01*
X131855205Y-70895480D01*
X131937401Y-70879131D01*
X132014828Y-70847059D01*
X132084511Y-70800499D01*
X132123315Y-70761695D01*
X132151691Y-70790071D01*
X132221374Y-70836631D01*
X132298801Y-70868703D01*
X132380997Y-70885052D01*
X132464803Y-70885052D01*
X132546999Y-70868703D01*
X132624426Y-70836631D01*
X132694109Y-70790071D01*
X132702047Y-70782133D01*
X132868793Y-70782133D01*
X132868793Y-70882201D01*
X132888315Y-70980345D01*
X132926609Y-71072795D01*
X132982204Y-71155998D01*
X133052962Y-71226756D01*
X133136165Y-71282351D01*
X133228615Y-71320645D01*
X133326759Y-71340167D01*
X133426827Y-71340167D01*
X133524971Y-71320645D01*
X133617421Y-71282351D01*
X133700624Y-71226756D01*
X133771382Y-71155998D01*
X133826977Y-71072795D01*
X133865271Y-70980345D01*
X133884793Y-70882201D01*
X133884793Y-70782133D01*
X133865271Y-70683989D01*
X133826977Y-70591539D01*
X133771382Y-70508336D01*
X133700624Y-70437578D01*
X133617421Y-70381983D01*
X133524971Y-70343689D01*
X133426827Y-70324167D01*
X133326759Y-70324167D01*
X133228615Y-70343689D01*
X133136165Y-70381983D01*
X133052962Y-70437578D01*
X132982204Y-70508336D01*
X132926609Y-70591539D01*
X132888315Y-70683989D01*
X132868793Y-70782133D01*
X132702047Y-70782133D01*
X132753369Y-70730811D01*
X132799929Y-70661128D01*
X132832001Y-70583701D01*
X132848350Y-70501505D01*
X132848350Y-70417699D01*
X132832001Y-70335503D01*
X132799929Y-70258076D01*
X132753369Y-70188393D01*
X132694109Y-70129133D01*
X132624426Y-70082573D01*
X132546999Y-70050501D01*
X132464803Y-70034152D01*
X132380997Y-70034152D01*
X132298801Y-70050501D01*
X132221374Y-70082573D01*
X132151691Y-70129133D01*
X132112887Y-70167937D01*
X132084511Y-70139561D01*
X132014828Y-70093001D01*
X131937401Y-70060929D01*
X131855205Y-70044580D01*
X131771399Y-70044580D01*
X131689203Y-70060929D01*
X131611776Y-70093001D01*
X131542093Y-70139561D01*
X131482833Y-70198821D01*
X131436273Y-70268504D01*
X131404201Y-70345931D01*
X131387852Y-70428127D01*
X129058867Y-70428127D01*
X129125405Y-70383669D01*
X129184665Y-70324409D01*
X129231225Y-70254726D01*
X129263297Y-70177299D01*
X129279646Y-70095103D01*
X129279646Y-70011297D01*
X129263297Y-69929101D01*
X129231225Y-69851674D01*
X129184665Y-69781991D01*
X129172343Y-69769669D01*
X138119180Y-69769669D01*
X138119180Y-69853475D01*
X138135529Y-69935671D01*
X138167601Y-70013098D01*
X138214161Y-70082781D01*
X138273421Y-70142041D01*
X138343104Y-70188601D01*
X138420531Y-70220673D01*
X138502727Y-70237022D01*
X138586533Y-70237022D01*
X138668729Y-70220673D01*
X138746156Y-70188601D01*
X138815839Y-70142041D01*
X138875099Y-70082781D01*
X138921659Y-70013098D01*
X138953731Y-69935671D01*
X138970080Y-69853475D01*
X138970080Y-69769669D01*
X138953731Y-69687473D01*
X138921659Y-69610046D01*
X138875099Y-69540363D01*
X138815839Y-69481103D01*
X138746156Y-69434543D01*
X138668729Y-69402471D01*
X138586533Y-69386122D01*
X138502727Y-69386122D01*
X138420531Y-69402471D01*
X138343104Y-69434543D01*
X138273421Y-69481103D01*
X138214161Y-69540363D01*
X138167601Y-69610046D01*
X138135529Y-69687473D01*
X138119180Y-69769669D01*
X129172343Y-69769669D01*
X129125405Y-69722731D01*
X129055722Y-69676171D01*
X128978295Y-69644099D01*
X128896099Y-69627750D01*
X128812293Y-69627750D01*
X128730097Y-69644099D01*
X128652670Y-69676171D01*
X128582987Y-69722731D01*
X128534226Y-69771492D01*
X128524269Y-69756591D01*
X128465009Y-69697331D01*
X128395326Y-69650771D01*
X128317899Y-69618699D01*
X128235703Y-69602350D01*
X128151897Y-69602350D01*
X128069701Y-69618699D01*
X127992274Y-69650771D01*
X127922591Y-69697331D01*
X127863331Y-69756591D01*
X127816771Y-69826274D01*
X127784699Y-69903701D01*
X127768350Y-69985897D01*
X127768350Y-70042235D01*
X127727703Y-70034150D01*
X127643897Y-70034150D01*
X127561701Y-70050499D01*
X127484274Y-70082571D01*
X127414591Y-70129131D01*
X127355331Y-70188391D01*
X127308771Y-70258074D01*
X127276699Y-70335501D01*
X127260466Y-70417115D01*
X127219920Y-70400320D01*
X127137724Y-70383971D01*
X127053918Y-70383971D01*
X126971722Y-70400320D01*
X126894295Y-70432392D01*
X126824612Y-70478952D01*
X126765352Y-70538212D01*
X126718792Y-70607895D01*
X126686720Y-70685322D01*
X126670371Y-70767518D01*
X122377200Y-70767518D01*
X122377200Y-70688966D01*
X122357678Y-70590822D01*
X122319384Y-70498372D01*
X122263789Y-70415169D01*
X122193031Y-70344411D01*
X122109828Y-70288816D01*
X122017378Y-70250522D01*
X121919234Y-70231000D01*
X121819166Y-70231000D01*
X121721022Y-70250522D01*
X121628572Y-70288816D01*
X121545369Y-70344411D01*
X121474611Y-70415169D01*
X121419016Y-70498372D01*
X121410200Y-70519656D01*
X121410200Y-69841948D01*
X122652612Y-69841948D01*
X122652612Y-69942016D01*
X122672134Y-70040160D01*
X122710428Y-70132610D01*
X122766023Y-70215813D01*
X122836781Y-70286571D01*
X122919984Y-70342166D01*
X123012434Y-70380460D01*
X123110578Y-70399982D01*
X123210646Y-70399982D01*
X123308790Y-70380460D01*
X123401240Y-70342166D01*
X123484443Y-70286571D01*
X123555201Y-70215813D01*
X123610796Y-70132610D01*
X123649090Y-70040160D01*
X123668612Y-69942016D01*
X123668612Y-69841948D01*
X123649090Y-69743804D01*
X123610796Y-69651354D01*
X123555201Y-69568151D01*
X123484443Y-69497393D01*
X123401240Y-69441798D01*
X123308790Y-69403504D01*
X123210646Y-69383982D01*
X123110578Y-69383982D01*
X123012434Y-69403504D01*
X122919984Y-69441798D01*
X122836781Y-69497393D01*
X122766023Y-69568151D01*
X122710428Y-69651354D01*
X122672134Y-69743804D01*
X122652612Y-69841948D01*
X121410200Y-69841948D01*
X121410200Y-67991064D01*
X122682000Y-67991064D01*
X122682000Y-68091132D01*
X122701522Y-68189276D01*
X122739816Y-68281726D01*
X122795411Y-68364929D01*
X122866169Y-68435687D01*
X122949372Y-68491282D01*
X123041822Y-68529576D01*
X123139966Y-68549098D01*
X123240034Y-68549098D01*
X123338178Y-68529576D01*
X123430628Y-68491282D01*
X123513831Y-68435687D01*
X123584589Y-68364929D01*
X123640184Y-68281726D01*
X123678478Y-68189276D01*
X123698000Y-68091132D01*
X123698000Y-67991064D01*
X123678478Y-67892920D01*
X123640184Y-67800470D01*
X123584589Y-67717267D01*
X123513831Y-67646509D01*
X123430628Y-67590914D01*
X123338178Y-67552620D01*
X123240034Y-67533098D01*
X123139966Y-67533098D01*
X123041822Y-67552620D01*
X122949372Y-67590914D01*
X122866169Y-67646509D01*
X122795411Y-67717267D01*
X122739816Y-67800470D01*
X122701522Y-67892920D01*
X122682000Y-67991064D01*
X121410200Y-67991064D01*
X121410200Y-66815977D01*
X129413065Y-66815977D01*
X129413065Y-66899783D01*
X129429414Y-66981979D01*
X129461486Y-67059406D01*
X129508046Y-67129089D01*
X129567306Y-67188349D01*
X129636989Y-67234909D01*
X129714416Y-67266981D01*
X129796612Y-67283330D01*
X129880418Y-67283330D01*
X129962614Y-67266981D01*
X130040041Y-67234909D01*
X130109724Y-67188349D01*
X130168984Y-67129089D01*
X130215544Y-67059406D01*
X130247616Y-66981979D01*
X130263965Y-66899783D01*
X130263965Y-66815977D01*
X130247616Y-66733781D01*
X130215544Y-66656354D01*
X130168984Y-66586671D01*
X130109724Y-66527411D01*
X130040041Y-66480851D01*
X129962614Y-66448779D01*
X129880418Y-66432430D01*
X129796612Y-66432430D01*
X129714416Y-66448779D01*
X129636989Y-66480851D01*
X129567306Y-66527411D01*
X129508046Y-66586671D01*
X129461486Y-66656354D01*
X129429414Y-66733781D01*
X129413065Y-66815977D01*
X121410200Y-66815977D01*
X121410200Y-65921897D01*
X124879115Y-65921897D01*
X124879115Y-66005703D01*
X124895464Y-66087899D01*
X124927536Y-66165326D01*
X124974096Y-66235009D01*
X125033356Y-66294269D01*
X125103039Y-66340829D01*
X125180466Y-66372901D01*
X125262662Y-66389250D01*
X125346468Y-66389250D01*
X125428664Y-66372901D01*
X125506091Y-66340829D01*
X125575774Y-66294269D01*
X125635034Y-66235009D01*
X125681594Y-66165326D01*
X125713666Y-66087899D01*
X125730015Y-66005703D01*
X125730015Y-65921897D01*
X125713666Y-65839701D01*
X125681594Y-65762274D01*
X125635034Y-65692591D01*
X125575774Y-65633331D01*
X125506091Y-65586771D01*
X125428664Y-65554699D01*
X125346468Y-65538350D01*
X125262662Y-65538350D01*
X125180466Y-65554699D01*
X125103039Y-65586771D01*
X125033356Y-65633331D01*
X124974096Y-65692591D01*
X124927536Y-65762274D01*
X124895464Y-65839701D01*
X124879115Y-65921897D01*
X121410200Y-65921897D01*
X121410200Y-65509137D01*
X127260350Y-65509137D01*
X127260350Y-65592943D01*
X127276699Y-65675139D01*
X127308771Y-65752566D01*
X127355331Y-65822249D01*
X127414591Y-65881509D01*
X127484274Y-65928069D01*
X127561701Y-65960141D01*
X127643897Y-65976490D01*
X127727703Y-65976490D01*
X127809899Y-65960141D01*
X127887326Y-65928069D01*
X127957009Y-65881509D01*
X128016269Y-65822249D01*
X128062829Y-65752566D01*
X128094901Y-65675139D01*
X128111250Y-65592943D01*
X128111250Y-65509137D01*
X128094901Y-65426941D01*
X128062829Y-65349514D01*
X128016269Y-65279831D01*
X127957009Y-65220571D01*
X127887326Y-65174011D01*
X127809899Y-65141939D01*
X127727703Y-65125590D01*
X127643897Y-65125590D01*
X127561701Y-65141939D01*
X127484274Y-65174011D01*
X127414591Y-65220571D01*
X127355331Y-65279831D01*
X127308771Y-65349514D01*
X127276699Y-65426941D01*
X127260350Y-65509137D01*
X121410200Y-65509137D01*
X121410200Y-65077368D01*
X134067546Y-65077368D01*
X134067546Y-65161174D01*
X134083895Y-65243370D01*
X134115967Y-65320797D01*
X134162527Y-65390480D01*
X134221787Y-65449740D01*
X134291470Y-65496300D01*
X134368897Y-65528372D01*
X134451093Y-65544721D01*
X134534899Y-65544721D01*
X134617095Y-65528372D01*
X134694522Y-65496300D01*
X134741819Y-65464697D01*
X136302750Y-65464697D01*
X136302750Y-65548503D01*
X136319099Y-65630699D01*
X136351171Y-65708126D01*
X136397731Y-65777809D01*
X136456991Y-65837069D01*
X136461115Y-65839824D01*
X136460970Y-65839921D01*
X136401710Y-65899181D01*
X136355150Y-65968864D01*
X136323078Y-66046291D01*
X136306729Y-66128487D01*
X136306729Y-66212293D01*
X136323078Y-66294489D01*
X136355150Y-66371916D01*
X136401710Y-66441599D01*
X136460970Y-66500859D01*
X136530653Y-66547419D01*
X136608080Y-66579491D01*
X136690276Y-66595840D01*
X136774082Y-66595840D01*
X136856278Y-66579491D01*
X136933705Y-66547419D01*
X136995554Y-66506093D01*
X141281150Y-66506093D01*
X141281150Y-66589899D01*
X141297499Y-66672095D01*
X141329571Y-66749522D01*
X141376131Y-66819205D01*
X141435391Y-66878465D01*
X141505074Y-66925025D01*
X141582501Y-66957097D01*
X141664697Y-66973446D01*
X141748503Y-66973446D01*
X141830699Y-66957097D01*
X141908126Y-66925025D01*
X141977809Y-66878465D01*
X142037069Y-66819205D01*
X142083629Y-66749522D01*
X142115701Y-66672095D01*
X142132050Y-66589899D01*
X142132050Y-66506093D01*
X142115701Y-66423897D01*
X142083629Y-66346470D01*
X142037069Y-66276787D01*
X141977809Y-66217527D01*
X141908126Y-66170967D01*
X141830699Y-66138895D01*
X141748503Y-66122546D01*
X141664697Y-66122546D01*
X141582501Y-66138895D01*
X141505074Y-66170967D01*
X141435391Y-66217527D01*
X141376131Y-66276787D01*
X141329571Y-66346470D01*
X141297499Y-66423897D01*
X141281150Y-66506093D01*
X136995554Y-66506093D01*
X137003388Y-66500859D01*
X137062648Y-66441599D01*
X137109208Y-66371916D01*
X137141280Y-66294489D01*
X137157629Y-66212293D01*
X137157629Y-66128487D01*
X137141280Y-66046291D01*
X137109208Y-65968864D01*
X137062648Y-65899181D01*
X137003388Y-65839921D01*
X136999264Y-65837166D01*
X136999409Y-65837069D01*
X137058669Y-65777809D01*
X137105229Y-65708126D01*
X137137301Y-65630699D01*
X137153650Y-65548503D01*
X137153650Y-65464697D01*
X137137301Y-65382501D01*
X137105229Y-65305074D01*
X137058669Y-65235391D01*
X136999409Y-65176131D01*
X136929726Y-65129571D01*
X136852299Y-65097499D01*
X136770103Y-65081150D01*
X136686297Y-65081150D01*
X136604101Y-65097499D01*
X136526674Y-65129571D01*
X136456991Y-65176131D01*
X136397731Y-65235391D01*
X136351171Y-65305074D01*
X136319099Y-65382501D01*
X136302750Y-65464697D01*
X134741819Y-65464697D01*
X134764205Y-65449740D01*
X134823465Y-65390480D01*
X134870025Y-65320797D01*
X134902097Y-65243370D01*
X134918446Y-65161174D01*
X134918446Y-65077368D01*
X134902097Y-64995172D01*
X134870025Y-64917745D01*
X134823465Y-64848062D01*
X134764205Y-64788802D01*
X134694522Y-64742242D01*
X134617095Y-64710170D01*
X134534899Y-64693821D01*
X134451093Y-64693821D01*
X134368897Y-64710170D01*
X134291470Y-64742242D01*
X134221787Y-64788802D01*
X134162527Y-64848062D01*
X134115967Y-64917745D01*
X134083895Y-64995172D01*
X134067546Y-65077368D01*
X121410200Y-65077368D01*
X121410200Y-63938741D01*
X127469705Y-63938741D01*
X127469705Y-64022547D01*
X127486054Y-64104743D01*
X127518126Y-64182170D01*
X127564686Y-64251853D01*
X127603063Y-64290230D01*
X127587377Y-64305915D01*
X127540817Y-64375598D01*
X127508745Y-64453025D01*
X127492396Y-64535221D01*
X127492396Y-64619027D01*
X127508745Y-64701223D01*
X127540817Y-64778650D01*
X127587377Y-64848333D01*
X127646637Y-64907593D01*
X127716320Y-64954153D01*
X127793747Y-64986225D01*
X127875943Y-65002574D01*
X127959749Y-65002574D01*
X128041945Y-64986225D01*
X128119372Y-64954153D01*
X128189055Y-64907593D01*
X128248315Y-64848333D01*
X128294875Y-64778650D01*
X128326947Y-64701223D01*
X128333914Y-64666194D01*
X137007610Y-64666194D01*
X137007610Y-64750000D01*
X137023959Y-64832196D01*
X137056031Y-64909623D01*
X137102591Y-64979306D01*
X137161851Y-65038566D01*
X137231534Y-65085126D01*
X137308961Y-65117198D01*
X137391157Y-65133547D01*
X137474963Y-65133547D01*
X137557159Y-65117198D01*
X137634586Y-65085126D01*
X137704269Y-65038566D01*
X137763529Y-64979306D01*
X137810089Y-64909623D01*
X137842161Y-64832196D01*
X137858510Y-64750000D01*
X137858510Y-64666194D01*
X137842161Y-64583998D01*
X137810089Y-64506571D01*
X137763529Y-64436888D01*
X137704269Y-64377628D01*
X137634586Y-64331068D01*
X137592334Y-64313566D01*
X139471400Y-64313566D01*
X139471400Y-64413634D01*
X139490922Y-64511778D01*
X139529216Y-64604228D01*
X139584811Y-64687431D01*
X139655569Y-64758189D01*
X139738772Y-64813784D01*
X139831222Y-64852078D01*
X139929366Y-64871600D01*
X140029434Y-64871600D01*
X140127578Y-64852078D01*
X140220028Y-64813784D01*
X140303231Y-64758189D01*
X140373989Y-64687431D01*
X140429584Y-64604228D01*
X140467878Y-64511778D01*
X140487400Y-64413634D01*
X140487400Y-64313566D01*
X140467878Y-64215422D01*
X140448773Y-64169297D01*
X141941550Y-64169297D01*
X141941550Y-64253103D01*
X141957899Y-64335299D01*
X141989971Y-64412726D01*
X142036531Y-64482409D01*
X142095791Y-64541669D01*
X142165474Y-64588229D01*
X142242901Y-64620301D01*
X142325097Y-64636650D01*
X142408903Y-64636650D01*
X142491099Y-64620301D01*
X142568526Y-64588229D01*
X142638209Y-64541669D01*
X142697469Y-64482409D01*
X142744029Y-64412726D01*
X142776101Y-64335299D01*
X142792450Y-64253103D01*
X142792450Y-64169297D01*
X142776101Y-64087101D01*
X142744029Y-64009674D01*
X142697469Y-63939991D01*
X142638209Y-63880731D01*
X142568526Y-63834171D01*
X142491099Y-63802099D01*
X142408903Y-63785750D01*
X142325097Y-63785750D01*
X142242901Y-63802099D01*
X142165474Y-63834171D01*
X142095791Y-63880731D01*
X142036531Y-63939991D01*
X141989971Y-64009674D01*
X141957899Y-64087101D01*
X141941550Y-64169297D01*
X140448773Y-64169297D01*
X140429584Y-64122972D01*
X140373989Y-64039769D01*
X140303231Y-63969011D01*
X140220028Y-63913416D01*
X140127578Y-63875122D01*
X140029434Y-63855600D01*
X139929366Y-63855600D01*
X139831222Y-63875122D01*
X139738772Y-63913416D01*
X139655569Y-63969011D01*
X139584811Y-64039769D01*
X139529216Y-64122972D01*
X139490922Y-64215422D01*
X139471400Y-64313566D01*
X137592334Y-64313566D01*
X137557159Y-64298996D01*
X137474963Y-64282647D01*
X137391157Y-64282647D01*
X137308961Y-64298996D01*
X137231534Y-64331068D01*
X137161851Y-64377628D01*
X137102591Y-64436888D01*
X137056031Y-64506571D01*
X137023959Y-64583998D01*
X137007610Y-64666194D01*
X128333914Y-64666194D01*
X128343296Y-64619027D01*
X128343296Y-64535221D01*
X128326947Y-64453025D01*
X128294875Y-64375598D01*
X128248315Y-64305915D01*
X128209939Y-64267539D01*
X128225624Y-64251853D01*
X128272184Y-64182170D01*
X128304256Y-64104743D01*
X128312427Y-64063661D01*
X128346905Y-64070519D01*
X128430711Y-64070519D01*
X128512907Y-64054170D01*
X128590334Y-64022098D01*
X128660017Y-63975538D01*
X128719277Y-63916278D01*
X128765837Y-63846595D01*
X128797909Y-63769168D01*
X128814258Y-63686972D01*
X128814258Y-63603166D01*
X128797909Y-63520970D01*
X128765837Y-63443543D01*
X128719277Y-63373860D01*
X128660017Y-63314600D01*
X128590334Y-63268040D01*
X128512907Y-63235968D01*
X128430711Y-63219619D01*
X128346905Y-63219619D01*
X128264709Y-63235968D01*
X128187282Y-63268040D01*
X128117599Y-63314600D01*
X128058339Y-63373860D01*
X128011779Y-63443543D01*
X127979707Y-63520970D01*
X127971536Y-63562052D01*
X127937058Y-63555194D01*
X127853252Y-63555194D01*
X127771056Y-63571543D01*
X127693629Y-63603615D01*
X127623946Y-63650175D01*
X127564686Y-63709435D01*
X127518126Y-63779118D01*
X127486054Y-63856545D01*
X127469705Y-63938741D01*
X121410200Y-63938741D01*
X121410200Y-63008237D01*
X126790252Y-63008237D01*
X126790252Y-63092043D01*
X126806601Y-63174239D01*
X126838673Y-63251666D01*
X126885233Y-63321349D01*
X126944493Y-63380609D01*
X127014176Y-63427169D01*
X127091603Y-63459241D01*
X127173799Y-63475590D01*
X127257605Y-63475590D01*
X127339801Y-63459241D01*
X127417228Y-63427169D01*
X127486911Y-63380609D01*
X127546171Y-63321349D01*
X127592731Y-63251666D01*
X127624803Y-63174239D01*
X127641152Y-63092043D01*
X127641152Y-63041426D01*
X128621614Y-63041426D01*
X128621614Y-63125232D01*
X128637963Y-63207428D01*
X128670035Y-63284855D01*
X128716595Y-63354538D01*
X128775855Y-63413798D01*
X128845538Y-63460358D01*
X128922965Y-63492430D01*
X129005161Y-63508779D01*
X129088967Y-63508779D01*
X129171163Y-63492430D01*
X129248590Y-63460358D01*
X129318273Y-63413798D01*
X129377533Y-63354538D01*
X129424093Y-63284855D01*
X129451536Y-63218601D01*
X129980548Y-63218601D01*
X129980548Y-63302407D01*
X129996897Y-63384603D01*
X130028969Y-63462030D01*
X130075529Y-63531713D01*
X130134789Y-63590973D01*
X130204472Y-63637533D01*
X130281899Y-63669605D01*
X130364095Y-63685954D01*
X130378171Y-63685954D01*
X130376071Y-63696514D01*
X130376071Y-63780320D01*
X130392420Y-63862516D01*
X130424492Y-63939943D01*
X130471052Y-64009626D01*
X130530312Y-64068886D01*
X130599995Y-64115446D01*
X130677422Y-64147518D01*
X130759618Y-64163867D01*
X130843424Y-64163867D01*
X130925620Y-64147518D01*
X131003047Y-64115446D01*
X131072730Y-64068886D01*
X131131990Y-64009626D01*
X131178550Y-63939943D01*
X131210622Y-63862516D01*
X131226971Y-63780320D01*
X131226971Y-63696514D01*
X131210622Y-63614318D01*
X131178550Y-63536891D01*
X131139070Y-63477803D01*
X133269988Y-63477803D01*
X133269988Y-63561609D01*
X133286337Y-63643805D01*
X133318409Y-63721232D01*
X133364969Y-63790915D01*
X133424229Y-63850175D01*
X133493912Y-63896735D01*
X133571339Y-63928807D01*
X133653535Y-63945156D01*
X133737341Y-63945156D01*
X133819537Y-63928807D01*
X133896964Y-63896735D01*
X133966647Y-63850175D01*
X134025907Y-63790915D01*
X134072467Y-63721232D01*
X134104539Y-63643805D01*
X134120888Y-63561609D01*
X134120888Y-63477803D01*
X134104539Y-63395607D01*
X134072467Y-63318180D01*
X134025907Y-63248497D01*
X133966647Y-63189237D01*
X133896964Y-63142677D01*
X133819537Y-63110605D01*
X133737341Y-63094256D01*
X133653535Y-63094256D01*
X133571339Y-63110605D01*
X133493912Y-63142677D01*
X133424229Y-63189237D01*
X133364969Y-63248497D01*
X133318409Y-63318180D01*
X133286337Y-63395607D01*
X133269988Y-63477803D01*
X131139070Y-63477803D01*
X131131990Y-63467208D01*
X131072730Y-63407948D01*
X131003047Y-63361388D01*
X130925620Y-63329316D01*
X130843424Y-63312967D01*
X130829348Y-63312967D01*
X130831448Y-63302407D01*
X130831448Y-63218601D01*
X130815099Y-63136405D01*
X130783027Y-63058978D01*
X130736467Y-62989295D01*
X130722669Y-62975497D01*
X137013950Y-62975497D01*
X137013950Y-63059303D01*
X137030299Y-63141499D01*
X137062371Y-63218926D01*
X137108931Y-63288609D01*
X137168191Y-63347869D01*
X137237874Y-63394429D01*
X137315301Y-63426501D01*
X137397497Y-63442850D01*
X137481303Y-63442850D01*
X137563499Y-63426501D01*
X137640926Y-63394429D01*
X137710609Y-63347869D01*
X137769869Y-63288609D01*
X137816429Y-63218926D01*
X137846550Y-63146210D01*
X137848701Y-63147101D01*
X137930897Y-63163450D01*
X138014703Y-63163450D01*
X138096899Y-63147101D01*
X138174326Y-63115029D01*
X138244009Y-63068469D01*
X138303269Y-63009209D01*
X138349829Y-62939526D01*
X138381901Y-62862099D01*
X138398250Y-62779903D01*
X138398250Y-62696097D01*
X138381901Y-62613901D01*
X138349829Y-62536474D01*
X138303269Y-62466791D01*
X138244009Y-62407531D01*
X138174326Y-62360971D01*
X138096899Y-62328899D01*
X138014703Y-62312550D01*
X137930897Y-62312550D01*
X137848701Y-62328899D01*
X137771274Y-62360971D01*
X137701591Y-62407531D01*
X137642331Y-62466791D01*
X137595771Y-62536474D01*
X137565650Y-62609190D01*
X137563499Y-62608299D01*
X137481303Y-62591950D01*
X137397497Y-62591950D01*
X137315301Y-62608299D01*
X137237874Y-62640371D01*
X137168191Y-62686931D01*
X137108931Y-62746191D01*
X137062371Y-62815874D01*
X137030299Y-62893301D01*
X137013950Y-62975497D01*
X130722669Y-62975497D01*
X130677207Y-62930035D01*
X130607524Y-62883475D01*
X130530097Y-62851403D01*
X130447901Y-62835054D01*
X130364095Y-62835054D01*
X130281899Y-62851403D01*
X130204472Y-62883475D01*
X130134789Y-62930035D01*
X130075529Y-62989295D01*
X130028969Y-63058978D01*
X129996897Y-63136405D01*
X129980548Y-63218601D01*
X129451536Y-63218601D01*
X129456165Y-63207428D01*
X129472514Y-63125232D01*
X129472514Y-63041426D01*
X129456165Y-62959230D01*
X129424093Y-62881803D01*
X129377533Y-62812120D01*
X129318273Y-62752860D01*
X129248590Y-62706300D01*
X129171163Y-62674228D01*
X129088967Y-62657879D01*
X129005161Y-62657879D01*
X128922965Y-62674228D01*
X128845538Y-62706300D01*
X128775855Y-62752860D01*
X128716595Y-62812120D01*
X128670035Y-62881803D01*
X128637963Y-62959230D01*
X128621614Y-63041426D01*
X127641152Y-63041426D01*
X127641152Y-63008237D01*
X127624803Y-62926041D01*
X127592731Y-62848614D01*
X127563402Y-62804719D01*
X127583171Y-62791510D01*
X127642431Y-62732250D01*
X127688991Y-62662567D01*
X127721063Y-62585140D01*
X127737412Y-62502944D01*
X127737412Y-62419138D01*
X127721063Y-62336942D01*
X127688991Y-62259515D01*
X127642431Y-62189832D01*
X127640696Y-62188097D01*
X128225550Y-62188097D01*
X128225550Y-62271903D01*
X128241899Y-62354099D01*
X128273971Y-62431526D01*
X128320531Y-62501209D01*
X128379791Y-62560469D01*
X128449474Y-62607029D01*
X128526901Y-62639101D01*
X128609097Y-62655450D01*
X128692903Y-62655450D01*
X128775099Y-62639101D01*
X128852526Y-62607029D01*
X128922209Y-62560469D01*
X128981469Y-62501209D01*
X129028029Y-62431526D01*
X129060101Y-62354099D01*
X129076450Y-62271903D01*
X129076450Y-62255433D01*
X129150103Y-62255433D01*
X129229473Y-62239646D01*
X131038665Y-62239646D01*
X131038665Y-62323452D01*
X131055014Y-62405648D01*
X131087086Y-62483075D01*
X131133646Y-62552758D01*
X131192906Y-62612018D01*
X131262589Y-62658578D01*
X131340016Y-62690650D01*
X131422212Y-62706999D01*
X131506018Y-62706999D01*
X131588214Y-62690650D01*
X131665641Y-62658578D01*
X131735324Y-62612018D01*
X131794584Y-62552758D01*
X131841144Y-62483075D01*
X131873216Y-62405648D01*
X131889565Y-62323452D01*
X131889565Y-62239646D01*
X131873216Y-62157450D01*
X131841144Y-62080023D01*
X131794584Y-62010340D01*
X131735324Y-61951080D01*
X131665641Y-61904520D01*
X131614406Y-61883297D01*
X139249150Y-61883297D01*
X139249150Y-61967103D01*
X139265499Y-62049299D01*
X139297571Y-62126726D01*
X139344131Y-62196409D01*
X139403391Y-62255669D01*
X139473074Y-62302229D01*
X139550501Y-62334301D01*
X139632697Y-62350650D01*
X139716503Y-62350650D01*
X139798699Y-62334301D01*
X139876126Y-62302229D01*
X139945809Y-62255669D01*
X140005069Y-62196409D01*
X140051629Y-62126726D01*
X140083701Y-62049299D01*
X140100050Y-61967103D01*
X140100050Y-61883297D01*
X140083701Y-61801101D01*
X140051629Y-61723674D01*
X140005069Y-61653991D01*
X139945809Y-61594731D01*
X139876126Y-61548171D01*
X139798699Y-61516099D01*
X139716503Y-61499750D01*
X139632697Y-61499750D01*
X139550501Y-61516099D01*
X139473074Y-61548171D01*
X139403391Y-61594731D01*
X139344131Y-61653991D01*
X139297571Y-61723674D01*
X139265499Y-61801101D01*
X139249150Y-61883297D01*
X131614406Y-61883297D01*
X131588214Y-61872448D01*
X131506018Y-61856099D01*
X131422212Y-61856099D01*
X131340016Y-61872448D01*
X131262589Y-61904520D01*
X131192906Y-61951080D01*
X131133646Y-62010340D01*
X131087086Y-62080023D01*
X131055014Y-62157450D01*
X131038665Y-62239646D01*
X129229473Y-62239646D01*
X129232299Y-62239084D01*
X129309726Y-62207012D01*
X129379409Y-62160452D01*
X129438669Y-62101192D01*
X129485229Y-62031509D01*
X129517301Y-61954082D01*
X129533650Y-61871886D01*
X129533650Y-61788080D01*
X129517301Y-61705884D01*
X129485229Y-61628457D01*
X129438669Y-61558774D01*
X129379409Y-61499514D01*
X129309726Y-61452954D01*
X129232299Y-61420882D01*
X129150103Y-61404533D01*
X129066297Y-61404533D01*
X128984101Y-61420882D01*
X128906674Y-61452954D01*
X128836991Y-61499514D01*
X128777731Y-61558774D01*
X128731171Y-61628457D01*
X128699099Y-61705884D01*
X128682750Y-61788080D01*
X128682750Y-61804550D01*
X128609097Y-61804550D01*
X128526901Y-61820899D01*
X128449474Y-61852971D01*
X128379791Y-61899531D01*
X128320531Y-61958791D01*
X128273971Y-62028474D01*
X128241899Y-62105901D01*
X128225550Y-62188097D01*
X127640696Y-62188097D01*
X127583171Y-62130572D01*
X127513488Y-62084012D01*
X127436061Y-62051940D01*
X127353865Y-62035591D01*
X127270059Y-62035591D01*
X127187863Y-62051940D01*
X127110436Y-62084012D01*
X127040753Y-62130572D01*
X126981493Y-62189832D01*
X126934933Y-62259515D01*
X126902861Y-62336942D01*
X126886512Y-62419138D01*
X126886512Y-62502944D01*
X126902861Y-62585140D01*
X126934933Y-62662567D01*
X126964262Y-62706462D01*
X126944493Y-62719671D01*
X126885233Y-62778931D01*
X126838673Y-62848614D01*
X126806601Y-62926041D01*
X126790252Y-63008237D01*
X121410200Y-63008237D01*
X121410200Y-61934119D01*
X125025150Y-61934119D01*
X125025150Y-62017925D01*
X125041499Y-62100121D01*
X125073571Y-62177548D01*
X125120131Y-62247231D01*
X125179391Y-62306491D01*
X125249074Y-62353051D01*
X125326501Y-62385123D01*
X125408697Y-62401472D01*
X125492503Y-62401472D01*
X125574699Y-62385123D01*
X125652126Y-62353051D01*
X125721809Y-62306491D01*
X125781069Y-62247231D01*
X125827629Y-62177548D01*
X125859701Y-62100121D01*
X125876050Y-62017925D01*
X125876050Y-61934119D01*
X125859701Y-61851923D01*
X125827629Y-61774496D01*
X125781069Y-61704813D01*
X125721809Y-61645553D01*
X125652126Y-61598993D01*
X125574699Y-61566921D01*
X125492503Y-61550572D01*
X125408697Y-61550572D01*
X125326501Y-61566921D01*
X125249074Y-61598993D01*
X125179391Y-61645553D01*
X125120131Y-61704813D01*
X125073571Y-61774496D01*
X125041499Y-61851923D01*
X125025150Y-61934119D01*
X121410200Y-61934119D01*
X121410200Y-59889908D01*
X125000167Y-59889908D01*
X125000167Y-59973714D01*
X125016516Y-60055910D01*
X125048588Y-60133337D01*
X125095148Y-60203020D01*
X125134625Y-60242497D01*
X125120131Y-60256991D01*
X125073571Y-60326674D01*
X125041499Y-60404101D01*
X125025150Y-60486297D01*
X125025150Y-60570103D01*
X125041499Y-60652299D01*
X125073571Y-60729726D01*
X125120131Y-60799409D01*
X125147372Y-60826650D01*
X125120120Y-60853902D01*
X125073560Y-60923585D01*
X125041488Y-61001012D01*
X125025139Y-61083208D01*
X125025139Y-61167014D01*
X125041488Y-61249210D01*
X125073560Y-61326637D01*
X125120120Y-61396320D01*
X125179380Y-61455580D01*
X125249063Y-61502140D01*
X125326490Y-61534212D01*
X125408686Y-61550561D01*
X125492492Y-61550561D01*
X125574688Y-61534212D01*
X125652115Y-61502140D01*
X125721798Y-61455580D01*
X125781058Y-61396320D01*
X125827618Y-61326637D01*
X125859690Y-61249210D01*
X125876039Y-61167014D01*
X125876039Y-61083208D01*
X125859690Y-61001012D01*
X125829987Y-60929303D01*
X128660649Y-60929303D01*
X128660649Y-61013109D01*
X128676998Y-61095305D01*
X128709070Y-61172732D01*
X128755630Y-61242415D01*
X128814890Y-61301675D01*
X128884573Y-61348235D01*
X128962000Y-61380307D01*
X129044196Y-61396656D01*
X129128002Y-61396656D01*
X129210198Y-61380307D01*
X129287625Y-61348235D01*
X129357308Y-61301675D01*
X129410692Y-61248291D01*
X132994443Y-61248291D01*
X132994443Y-61332097D01*
X133010792Y-61414293D01*
X133042864Y-61491720D01*
X133089424Y-61561403D01*
X133148684Y-61620663D01*
X133218367Y-61667223D01*
X133295794Y-61699295D01*
X133377990Y-61715644D01*
X133461796Y-61715644D01*
X133543992Y-61699295D01*
X133621419Y-61667223D01*
X133691102Y-61620663D01*
X133750362Y-61561403D01*
X133796922Y-61491720D01*
X133828994Y-61414293D01*
X133845343Y-61332097D01*
X133845343Y-61248291D01*
X133828994Y-61166095D01*
X133796922Y-61088668D01*
X133750362Y-61018985D01*
X133691102Y-60959725D01*
X133621419Y-60913165D01*
X133543992Y-60881093D01*
X133461796Y-60864744D01*
X133377990Y-60864744D01*
X133295794Y-60881093D01*
X133218367Y-60913165D01*
X133148684Y-60959725D01*
X133089424Y-61018985D01*
X133042864Y-61088668D01*
X133010792Y-61166095D01*
X132994443Y-61248291D01*
X129410692Y-61248291D01*
X129416568Y-61242415D01*
X129463128Y-61172732D01*
X129495200Y-61095305D01*
X129511549Y-61013109D01*
X129511549Y-60929303D01*
X129495200Y-60847107D01*
X129463128Y-60769680D01*
X129416568Y-60699997D01*
X129398857Y-60682286D01*
X129511560Y-60682286D01*
X129511560Y-60766092D01*
X129527909Y-60848288D01*
X129559981Y-60925715D01*
X129606541Y-60995398D01*
X129665801Y-61054658D01*
X129735484Y-61101218D01*
X129812911Y-61133290D01*
X129895107Y-61149639D01*
X129978913Y-61149639D01*
X130061109Y-61133290D01*
X130138536Y-61101218D01*
X130208219Y-61054658D01*
X130267479Y-60995398D01*
X130314039Y-60925715D01*
X130346111Y-60848288D01*
X130362460Y-60766092D01*
X130362460Y-60682286D01*
X130346111Y-60600090D01*
X130314039Y-60522663D01*
X130267479Y-60452980D01*
X130208219Y-60393720D01*
X130138536Y-60347160D01*
X130061109Y-60315088D01*
X129978913Y-60298739D01*
X129895107Y-60298739D01*
X129812911Y-60315088D01*
X129735484Y-60347160D01*
X129665801Y-60393720D01*
X129606541Y-60452980D01*
X129559981Y-60522663D01*
X129527909Y-60600090D01*
X129511560Y-60682286D01*
X129398857Y-60682286D01*
X129357308Y-60640737D01*
X129287625Y-60594177D01*
X129210198Y-60562105D01*
X129128002Y-60545756D01*
X129044196Y-60545756D01*
X128962000Y-60562105D01*
X128884573Y-60594177D01*
X128814890Y-60640737D01*
X128755630Y-60699997D01*
X128709070Y-60769680D01*
X128676998Y-60847107D01*
X128660649Y-60929303D01*
X125829987Y-60929303D01*
X125827618Y-60923585D01*
X125781058Y-60853902D01*
X125753817Y-60826661D01*
X125781069Y-60799409D01*
X125827629Y-60729726D01*
X125859701Y-60652299D01*
X125876050Y-60570103D01*
X125876050Y-60486297D01*
X125859701Y-60404101D01*
X125827629Y-60326674D01*
X125781069Y-60256991D01*
X125741592Y-60217514D01*
X125756086Y-60203020D01*
X125802646Y-60133337D01*
X125834718Y-60055910D01*
X125851067Y-59973714D01*
X125851067Y-59889908D01*
X125834718Y-59807712D01*
X125802646Y-59730285D01*
X125756086Y-59660602D01*
X125743868Y-59648384D01*
X129952455Y-59648384D01*
X129952455Y-59732190D01*
X129968804Y-59814386D01*
X130000876Y-59891813D01*
X130047436Y-59961496D01*
X130106696Y-60020756D01*
X130176379Y-60067316D01*
X130253806Y-60099388D01*
X130336002Y-60115737D01*
X130372049Y-60115737D01*
X130372049Y-60193094D01*
X130388398Y-60275290D01*
X130420470Y-60352717D01*
X130467030Y-60422400D01*
X130526290Y-60481660D01*
X130595973Y-60528220D01*
X130673400Y-60560292D01*
X130755596Y-60576641D01*
X130839402Y-60576641D01*
X130921598Y-60560292D01*
X130999025Y-60528220D01*
X131068708Y-60481660D01*
X131127968Y-60422400D01*
X131174528Y-60352717D01*
X131206600Y-60275290D01*
X131222949Y-60193094D01*
X131222949Y-60125249D01*
X131479180Y-60125249D01*
X131479180Y-60209055D01*
X131495529Y-60291251D01*
X131527601Y-60368678D01*
X131574161Y-60438361D01*
X131633421Y-60497621D01*
X131703104Y-60544181D01*
X131780531Y-60576253D01*
X131862727Y-60592602D01*
X131946533Y-60592602D01*
X132028729Y-60576253D01*
X132106156Y-60544181D01*
X132175839Y-60497621D01*
X132235099Y-60438361D01*
X132281659Y-60368678D01*
X132313731Y-60291251D01*
X132330080Y-60209055D01*
X132330080Y-60125249D01*
X132313731Y-60043053D01*
X132281659Y-59965626D01*
X132235099Y-59895943D01*
X132175839Y-59836683D01*
X132106156Y-59790123D01*
X132028729Y-59758051D01*
X131946533Y-59741702D01*
X131862727Y-59741702D01*
X131780531Y-59758051D01*
X131703104Y-59790123D01*
X131633421Y-59836683D01*
X131574161Y-59895943D01*
X131527601Y-59965626D01*
X131495529Y-60043053D01*
X131479180Y-60125249D01*
X131222949Y-60125249D01*
X131222949Y-60109288D01*
X131206600Y-60027092D01*
X131174528Y-59949665D01*
X131127968Y-59879982D01*
X131068708Y-59820722D01*
X130999025Y-59774162D01*
X130921598Y-59742090D01*
X130839402Y-59725741D01*
X130803355Y-59725741D01*
X130803355Y-59648384D01*
X130787006Y-59566188D01*
X130754934Y-59488761D01*
X130708374Y-59419078D01*
X130649114Y-59359818D01*
X130579431Y-59313258D01*
X130502004Y-59281186D01*
X130419808Y-59264837D01*
X130336002Y-59264837D01*
X130253806Y-59281186D01*
X130176379Y-59313258D01*
X130106696Y-59359818D01*
X130047436Y-59419078D01*
X130000876Y-59488761D01*
X129968804Y-59566188D01*
X129952455Y-59648384D01*
X125743868Y-59648384D01*
X125696826Y-59601342D01*
X125627143Y-59554782D01*
X125549716Y-59522710D01*
X125467520Y-59506361D01*
X125383714Y-59506361D01*
X125301518Y-59522710D01*
X125224091Y-59554782D01*
X125154408Y-59601342D01*
X125095148Y-59660602D01*
X125048588Y-59730285D01*
X125016516Y-59807712D01*
X125000167Y-59889908D01*
X121410200Y-59889908D01*
X121410200Y-59175586D01*
X127209550Y-59175586D01*
X127209550Y-59259392D01*
X127225899Y-59341588D01*
X127257971Y-59419015D01*
X127304531Y-59488698D01*
X127363791Y-59547958D01*
X127433474Y-59594518D01*
X127510901Y-59626590D01*
X127593097Y-59642939D01*
X127676903Y-59642939D01*
X127759099Y-59626590D01*
X127836526Y-59594518D01*
X127906209Y-59547958D01*
X127965469Y-59488698D01*
X128012029Y-59419015D01*
X128044101Y-59341588D01*
X128060450Y-59259392D01*
X128060450Y-59175586D01*
X128044101Y-59093390D01*
X128029307Y-59057675D01*
X128105107Y-59089073D01*
X128187303Y-59105422D01*
X128271109Y-59105422D01*
X128353305Y-59089073D01*
X128430732Y-59057001D01*
X128500415Y-59010441D01*
X128559675Y-58951181D01*
X128606235Y-58881498D01*
X128638307Y-58804071D01*
X128654656Y-58721875D01*
X128654656Y-58638069D01*
X128653469Y-58632097D01*
X128733552Y-58632097D01*
X128733552Y-58715903D01*
X128749901Y-58798099D01*
X128781973Y-58875526D01*
X128828533Y-58945209D01*
X128887793Y-59004469D01*
X128957476Y-59051029D01*
X129034903Y-59083101D01*
X129117099Y-59099450D01*
X129200905Y-59099450D01*
X129283101Y-59083101D01*
X129360528Y-59051029D01*
X129430211Y-59004469D01*
X129489471Y-58945209D01*
X129536031Y-58875526D01*
X129568103Y-58798099D01*
X129584452Y-58715903D01*
X129584452Y-58632097D01*
X129582997Y-58624781D01*
X130185741Y-58624781D01*
X130185741Y-58708587D01*
X130202090Y-58790783D01*
X130234162Y-58868210D01*
X130280722Y-58937893D01*
X130339982Y-58997153D01*
X130409665Y-59043713D01*
X130487092Y-59075785D01*
X130569288Y-59092134D01*
X130653094Y-59092134D01*
X130735290Y-59075785D01*
X130812717Y-59043713D01*
X130882400Y-58997153D01*
X130941660Y-58937893D01*
X130988220Y-58868210D01*
X131020292Y-58790783D01*
X131036641Y-58708587D01*
X131036641Y-58632097D01*
X131165610Y-58632097D01*
X131165610Y-58715903D01*
X131181959Y-58798099D01*
X131214031Y-58875526D01*
X131260591Y-58945209D01*
X131319851Y-59004469D01*
X131389534Y-59051029D01*
X131466961Y-59083101D01*
X131549157Y-59099450D01*
X131632963Y-59099450D01*
X131715159Y-59083101D01*
X131792586Y-59051029D01*
X131836741Y-59021526D01*
X131811913Y-59046354D01*
X131765353Y-59116037D01*
X131733281Y-59193464D01*
X131716932Y-59275660D01*
X131716932Y-59359466D01*
X131733281Y-59441662D01*
X131765353Y-59519089D01*
X131811913Y-59588772D01*
X131871173Y-59648032D01*
X131940856Y-59694592D01*
X132018283Y-59726664D01*
X132100479Y-59743013D01*
X132184285Y-59743013D01*
X132266481Y-59726664D01*
X132343908Y-59694592D01*
X132413591Y-59648032D01*
X132472851Y-59588772D01*
X132519411Y-59519089D01*
X132550142Y-59444897D01*
X139147550Y-59444897D01*
X139147550Y-59528703D01*
X139163899Y-59610899D01*
X139195971Y-59688326D01*
X139242531Y-59758009D01*
X139301791Y-59817269D01*
X139371474Y-59863829D01*
X139448901Y-59895901D01*
X139531097Y-59912250D01*
X139614903Y-59912250D01*
X139697099Y-59895901D01*
X139774526Y-59863829D01*
X139844209Y-59817269D01*
X139903469Y-59758009D01*
X139950029Y-59688326D01*
X139982101Y-59610899D01*
X139998450Y-59528703D01*
X139998450Y-59444897D01*
X139982101Y-59362701D01*
X139950029Y-59285274D01*
X139903469Y-59215591D01*
X139844209Y-59156331D01*
X139774526Y-59109771D01*
X139697099Y-59077699D01*
X139614903Y-59061350D01*
X139531097Y-59061350D01*
X139448901Y-59077699D01*
X139371474Y-59109771D01*
X139301791Y-59156331D01*
X139242531Y-59215591D01*
X139195971Y-59285274D01*
X139163899Y-59362701D01*
X139147550Y-59444897D01*
X132550142Y-59444897D01*
X132551483Y-59441662D01*
X132567832Y-59359466D01*
X132567832Y-59275660D01*
X132551483Y-59193464D01*
X132519411Y-59116037D01*
X132472851Y-59046354D01*
X132466882Y-59040385D01*
X132510126Y-59022473D01*
X132579809Y-58975913D01*
X132639069Y-58916653D01*
X132648844Y-58902023D01*
X132660126Y-58918908D01*
X132719386Y-58978168D01*
X132789069Y-59024728D01*
X132866496Y-59056800D01*
X132948692Y-59073149D01*
X133032498Y-59073149D01*
X133114694Y-59056800D01*
X133192121Y-59024728D01*
X133261804Y-58978168D01*
X133321064Y-58918908D01*
X133367624Y-58849225D01*
X133380749Y-58817538D01*
X133404769Y-58875526D01*
X133451329Y-58945209D01*
X133510589Y-59004469D01*
X133580272Y-59051029D01*
X133657699Y-59083101D01*
X133739895Y-59099450D01*
X133823701Y-59099450D01*
X133905897Y-59083101D01*
X133983324Y-59051029D01*
X134053007Y-59004469D01*
X134112267Y-58945209D01*
X134158827Y-58875526D01*
X134190899Y-58798099D01*
X134207248Y-58715903D01*
X134207248Y-58632097D01*
X134190899Y-58549901D01*
X134158827Y-58472474D01*
X134112267Y-58402791D01*
X134053007Y-58343531D01*
X133983324Y-58296971D01*
X133905897Y-58264899D01*
X133823701Y-58248550D01*
X133739895Y-58248550D01*
X133657699Y-58264899D01*
X133580272Y-58296971D01*
X133510589Y-58343531D01*
X133451329Y-58402791D01*
X133404769Y-58472474D01*
X133391644Y-58504161D01*
X133367624Y-58446173D01*
X133321064Y-58376490D01*
X133261804Y-58317230D01*
X133192121Y-58270670D01*
X133114694Y-58238598D01*
X133032498Y-58222249D01*
X132948692Y-58222249D01*
X132866496Y-58238598D01*
X132789069Y-58270670D01*
X132719386Y-58317230D01*
X132660126Y-58376490D01*
X132650351Y-58391120D01*
X132639069Y-58374235D01*
X132579809Y-58314975D01*
X132510126Y-58268415D01*
X132432699Y-58236343D01*
X132350503Y-58219994D01*
X132266697Y-58219994D01*
X132184501Y-58236343D01*
X132107074Y-58268415D01*
X132037391Y-58314975D01*
X131978131Y-58374235D01*
X131940290Y-58430869D01*
X131921529Y-58402791D01*
X131862269Y-58343531D01*
X131792586Y-58296971D01*
X131715159Y-58264899D01*
X131632963Y-58248550D01*
X131549157Y-58248550D01*
X131466961Y-58264899D01*
X131389534Y-58296971D01*
X131319851Y-58343531D01*
X131260591Y-58402791D01*
X131214031Y-58472474D01*
X131181959Y-58549901D01*
X131165610Y-58632097D01*
X131036641Y-58632097D01*
X131036641Y-58624781D01*
X131020292Y-58542585D01*
X130988220Y-58465158D01*
X130941660Y-58395475D01*
X130882400Y-58336215D01*
X130812717Y-58289655D01*
X130735290Y-58257583D01*
X130653094Y-58241234D01*
X130569288Y-58241234D01*
X130487092Y-58257583D01*
X130409665Y-58289655D01*
X130339982Y-58336215D01*
X130280722Y-58395475D01*
X130234162Y-58465158D01*
X130202090Y-58542585D01*
X130185741Y-58624781D01*
X129582997Y-58624781D01*
X129568103Y-58549901D01*
X129536031Y-58472474D01*
X129489471Y-58402791D01*
X129430211Y-58343531D01*
X129360528Y-58296971D01*
X129283101Y-58264899D01*
X129200905Y-58248550D01*
X129117099Y-58248550D01*
X129034903Y-58264899D01*
X128957476Y-58296971D01*
X128887793Y-58343531D01*
X128828533Y-58402791D01*
X128781973Y-58472474D01*
X128749901Y-58549901D01*
X128733552Y-58632097D01*
X128653469Y-58632097D01*
X128638307Y-58555873D01*
X128606235Y-58478446D01*
X128559675Y-58408763D01*
X128500415Y-58349503D01*
X128430732Y-58302943D01*
X128353305Y-58270871D01*
X128271109Y-58254522D01*
X128187303Y-58254522D01*
X128105107Y-58270871D01*
X128027680Y-58302943D01*
X127957997Y-58349503D01*
X127898737Y-58408763D01*
X127852177Y-58478446D01*
X127820105Y-58555873D01*
X127803756Y-58638069D01*
X127803756Y-58721875D01*
X127820105Y-58804071D01*
X127834899Y-58839786D01*
X127759099Y-58808388D01*
X127676903Y-58792039D01*
X127593097Y-58792039D01*
X127510901Y-58808388D01*
X127433474Y-58840460D01*
X127363791Y-58887020D01*
X127304531Y-58946280D01*
X127257971Y-59015963D01*
X127225899Y-59093390D01*
X127209550Y-59175586D01*
X121410200Y-59175586D01*
X121410200Y-58632097D01*
X123501150Y-58632097D01*
X123501150Y-58715903D01*
X123517499Y-58798099D01*
X123549571Y-58875526D01*
X123596131Y-58945209D01*
X123655391Y-59004469D01*
X123725074Y-59051029D01*
X123802501Y-59083101D01*
X123884697Y-59099450D01*
X123968503Y-59099450D01*
X124050699Y-59083101D01*
X124128126Y-59051029D01*
X124197809Y-59004469D01*
X124257069Y-58945209D01*
X124303629Y-58875526D01*
X124335701Y-58798099D01*
X124352050Y-58715903D01*
X124352050Y-58632097D01*
X124335701Y-58549901D01*
X124303629Y-58472474D01*
X124257069Y-58402791D01*
X124197809Y-58343531D01*
X124128126Y-58296971D01*
X124050699Y-58264899D01*
X123968503Y-58248550D01*
X123884697Y-58248550D01*
X123802501Y-58264899D01*
X123725074Y-58296971D01*
X123655391Y-58343531D01*
X123596131Y-58402791D01*
X123549571Y-58472474D01*
X123517499Y-58549901D01*
X123501150Y-58632097D01*
X121410200Y-58632097D01*
X121410200Y-56473097D01*
X127209550Y-56473097D01*
X127209550Y-56556903D01*
X127225899Y-56639099D01*
X127257971Y-56716526D01*
X127304531Y-56786209D01*
X127363791Y-56845469D01*
X127433474Y-56892029D01*
X127510901Y-56924101D01*
X127593097Y-56940450D01*
X127676903Y-56940450D01*
X127759099Y-56924101D01*
X127836526Y-56892029D01*
X127906209Y-56845469D01*
X127965469Y-56786209D01*
X128012029Y-56716526D01*
X128044101Y-56639099D01*
X128060450Y-56556903D01*
X128060450Y-56473097D01*
X128044101Y-56390901D01*
X128012029Y-56313474D01*
X127965469Y-56243791D01*
X127906209Y-56184531D01*
X127836526Y-56137971D01*
X127759099Y-56105899D01*
X127676903Y-56089550D01*
X127593097Y-56089550D01*
X127510901Y-56105899D01*
X127433474Y-56137971D01*
X127363791Y-56184531D01*
X127304531Y-56243791D01*
X127257971Y-56313474D01*
X127225899Y-56390901D01*
X127209550Y-56473097D01*
X121410200Y-56473097D01*
X121410200Y-55423566D01*
X128701800Y-55423566D01*
X128701800Y-55523634D01*
X128721322Y-55621778D01*
X128759616Y-55714228D01*
X128815211Y-55797431D01*
X128885969Y-55868189D01*
X128969172Y-55923784D01*
X129061622Y-55962078D01*
X129159766Y-55981600D01*
X129259834Y-55981600D01*
X129357978Y-55962078D01*
X129450428Y-55923784D01*
X129533631Y-55868189D01*
X129604389Y-55797431D01*
X129659984Y-55714228D01*
X129698278Y-55621778D01*
X129717800Y-55523634D01*
X129717800Y-55423566D01*
X129698278Y-55325422D01*
X129659984Y-55232972D01*
X129604389Y-55149769D01*
X129533631Y-55079011D01*
X129450428Y-55023416D01*
X129357978Y-54985122D01*
X129259834Y-54965600D01*
X129159766Y-54965600D01*
X129061622Y-54985122D01*
X128969172Y-55023416D01*
X128885969Y-55079011D01*
X128815211Y-55149769D01*
X128759616Y-55232972D01*
X128721322Y-55325422D01*
X128701800Y-55423566D01*
X121410200Y-55423566D01*
X121410200Y-54646145D01*
X121429651Y-54487666D01*
X121476586Y-54344887D01*
X121550359Y-54213946D01*
X121648163Y-54099825D01*
X121766269Y-54006876D01*
X121900178Y-53938637D01*
X122047365Y-53896980D01*
X122169078Y-53884617D01*
X134176528Y-53884617D01*
X134192025Y-54022775D01*
%TD*%
M02*
