%TF.GenerationSoftware,KiCad,Pcbnew,(5.1.8)-1*%
%TF.CreationDate,2020-12-18T16:25:40+01:00*%
%TF.ProjectId,TeensyMM,5465656e-7379-44d4-9d2e-6b696361645f,rev?*%
%TF.SameCoordinates,Original*%
%TF.FileFunction,Soldermask,Top*%
%TF.FilePolarity,Negative*%
%FSLAX46Y46*%
G04 Gerber Fmt 4.6, Leading zero omitted, Abs format (unit mm)*
G04 Created by KiCad (PCBNEW (5.1.8)-1) date 2020-12-18 16:25:40*
%MOMM*%
%LPD*%
G01*
G04 APERTURE LIST*
%ADD10C,0.100000*%
%ADD11R,1.900000X1.900000*%
%ADD12R,1.500000X2.200000*%
%ADD13R,1.473200X0.279400*%
%ADD14R,0.279400X1.473200*%
G04 APERTURE END LIST*
D10*
%TO.C,J1*%
G36*
X133405100Y-53565000D02*
G01*
X134405100Y-53565000D01*
X134431686Y-53868884D01*
X134510638Y-54163535D01*
X134639556Y-54440000D01*
X134814522Y-54689878D01*
X135030222Y-54905578D01*
X135280100Y-55080544D01*
X135556565Y-55209462D01*
X135851216Y-55288414D01*
X136155100Y-55315000D01*
X136458984Y-55288414D01*
X136753635Y-55209462D01*
X137030100Y-55080544D01*
X137279978Y-54905578D01*
X137495678Y-54689878D01*
X137670644Y-54440000D01*
X137799562Y-54163535D01*
X137905100Y-53565000D01*
X138905100Y-53565000D01*
X138881573Y-53923947D01*
X138811396Y-54276752D01*
X138695769Y-54617379D01*
X138536670Y-54940000D01*
X138336822Y-55239094D01*
X138099644Y-55509544D01*
X137829194Y-55746722D01*
X137530100Y-55946570D01*
X137207479Y-56105669D01*
X136866852Y-56221296D01*
X136155100Y-56315000D01*
X135796153Y-56291473D01*
X135443348Y-56221296D01*
X135102721Y-56105669D01*
X134780100Y-55946570D01*
X134481006Y-55746722D01*
X134210556Y-55509544D01*
X133973378Y-55239094D01*
X133773530Y-54940000D01*
X133614431Y-54617379D01*
X133498804Y-54276752D01*
X133428627Y-53923947D01*
X133405100Y-53565000D01*
G37*
%TD*%
%TO.C,R4*%
G36*
G01*
X138235700Y-68040800D02*
X137760700Y-68040800D01*
G75*
G02*
X137523200Y-67803300I0J237500D01*
G01*
X137523200Y-67228300D01*
G75*
G02*
X137760700Y-66990800I237500J0D01*
G01*
X138235700Y-66990800D01*
G75*
G02*
X138473200Y-67228300I0J-237500D01*
G01*
X138473200Y-67803300D01*
G75*
G02*
X138235700Y-68040800I-237500J0D01*
G01*
G37*
G36*
G01*
X138235700Y-69790800D02*
X137760700Y-69790800D01*
G75*
G02*
X137523200Y-69553300I0J237500D01*
G01*
X137523200Y-68978300D01*
G75*
G02*
X137760700Y-68740800I237500J0D01*
G01*
X138235700Y-68740800D01*
G75*
G02*
X138473200Y-68978300I0J-237500D01*
G01*
X138473200Y-69553300D01*
G75*
G02*
X138235700Y-69790800I-237500J0D01*
G01*
G37*
%TD*%
%TO.C,R5*%
G36*
G01*
X139454900Y-68052200D02*
X138979900Y-68052200D01*
G75*
G02*
X138742400Y-67814700I0J237500D01*
G01*
X138742400Y-67239700D01*
G75*
G02*
X138979900Y-67002200I237500J0D01*
G01*
X139454900Y-67002200D01*
G75*
G02*
X139692400Y-67239700I0J-237500D01*
G01*
X139692400Y-67814700D01*
G75*
G02*
X139454900Y-68052200I-237500J0D01*
G01*
G37*
G36*
G01*
X139454900Y-69802200D02*
X138979900Y-69802200D01*
G75*
G02*
X138742400Y-69564700I0J237500D01*
G01*
X138742400Y-68989700D01*
G75*
G02*
X138979900Y-68752200I237500J0D01*
G01*
X139454900Y-68752200D01*
G75*
G02*
X139692400Y-68989700I0J-237500D01*
G01*
X139692400Y-69564700D01*
G75*
G02*
X139454900Y-69802200I-237500J0D01*
G01*
G37*
%TD*%
D11*
%TO.C,U2*%
X139928600Y-64465200D03*
G36*
G01*
X141191100Y-63590200D02*
X142066100Y-63590200D01*
G75*
G02*
X142128600Y-63652700I0J-62500D01*
G01*
X142128600Y-63777700D01*
G75*
G02*
X142066100Y-63840200I-62500J0D01*
G01*
X141191100Y-63840200D01*
G75*
G02*
X141128600Y-63777700I0J62500D01*
G01*
X141128600Y-63652700D01*
G75*
G02*
X141191100Y-63590200I62500J0D01*
G01*
G37*
G36*
G01*
X141191100Y-64090200D02*
X142066100Y-64090200D01*
G75*
G02*
X142128600Y-64152700I0J-62500D01*
G01*
X142128600Y-64277700D01*
G75*
G02*
X142066100Y-64340200I-62500J0D01*
G01*
X141191100Y-64340200D01*
G75*
G02*
X141128600Y-64277700I0J62500D01*
G01*
X141128600Y-64152700D01*
G75*
G02*
X141191100Y-64090200I62500J0D01*
G01*
G37*
G36*
G01*
X141191100Y-64590200D02*
X142066100Y-64590200D01*
G75*
G02*
X142128600Y-64652700I0J-62500D01*
G01*
X142128600Y-64777700D01*
G75*
G02*
X142066100Y-64840200I-62500J0D01*
G01*
X141191100Y-64840200D01*
G75*
G02*
X141128600Y-64777700I0J62500D01*
G01*
X141128600Y-64652700D01*
G75*
G02*
X141191100Y-64590200I62500J0D01*
G01*
G37*
G36*
G01*
X141191100Y-65090200D02*
X142066100Y-65090200D01*
G75*
G02*
X142128600Y-65152700I0J-62500D01*
G01*
X142128600Y-65277700D01*
G75*
G02*
X142066100Y-65340200I-62500J0D01*
G01*
X141191100Y-65340200D01*
G75*
G02*
X141128600Y-65277700I0J62500D01*
G01*
X141128600Y-65152700D01*
G75*
G02*
X141191100Y-65090200I62500J0D01*
G01*
G37*
G36*
G01*
X140616100Y-65665200D02*
X140741100Y-65665200D01*
G75*
G02*
X140803600Y-65727700I0J-62500D01*
G01*
X140803600Y-66602700D01*
G75*
G02*
X140741100Y-66665200I-62500J0D01*
G01*
X140616100Y-66665200D01*
G75*
G02*
X140553600Y-66602700I0J62500D01*
G01*
X140553600Y-65727700D01*
G75*
G02*
X140616100Y-65665200I62500J0D01*
G01*
G37*
G36*
G01*
X140116100Y-65665200D02*
X140241100Y-65665200D01*
G75*
G02*
X140303600Y-65727700I0J-62500D01*
G01*
X140303600Y-66602700D01*
G75*
G02*
X140241100Y-66665200I-62500J0D01*
G01*
X140116100Y-66665200D01*
G75*
G02*
X140053600Y-66602700I0J62500D01*
G01*
X140053600Y-65727700D01*
G75*
G02*
X140116100Y-65665200I62500J0D01*
G01*
G37*
G36*
G01*
X139616100Y-65665200D02*
X139741100Y-65665200D01*
G75*
G02*
X139803600Y-65727700I0J-62500D01*
G01*
X139803600Y-66602700D01*
G75*
G02*
X139741100Y-66665200I-62500J0D01*
G01*
X139616100Y-66665200D01*
G75*
G02*
X139553600Y-66602700I0J62500D01*
G01*
X139553600Y-65727700D01*
G75*
G02*
X139616100Y-65665200I62500J0D01*
G01*
G37*
G36*
G01*
X139116100Y-65665200D02*
X139241100Y-65665200D01*
G75*
G02*
X139303600Y-65727700I0J-62500D01*
G01*
X139303600Y-66602700D01*
G75*
G02*
X139241100Y-66665200I-62500J0D01*
G01*
X139116100Y-66665200D01*
G75*
G02*
X139053600Y-66602700I0J62500D01*
G01*
X139053600Y-65727700D01*
G75*
G02*
X139116100Y-65665200I62500J0D01*
G01*
G37*
G36*
G01*
X137791100Y-65090200D02*
X138666100Y-65090200D01*
G75*
G02*
X138728600Y-65152700I0J-62500D01*
G01*
X138728600Y-65277700D01*
G75*
G02*
X138666100Y-65340200I-62500J0D01*
G01*
X137791100Y-65340200D01*
G75*
G02*
X137728600Y-65277700I0J62500D01*
G01*
X137728600Y-65152700D01*
G75*
G02*
X137791100Y-65090200I62500J0D01*
G01*
G37*
G36*
G01*
X137791100Y-64590200D02*
X138666100Y-64590200D01*
G75*
G02*
X138728600Y-64652700I0J-62500D01*
G01*
X138728600Y-64777700D01*
G75*
G02*
X138666100Y-64840200I-62500J0D01*
G01*
X137791100Y-64840200D01*
G75*
G02*
X137728600Y-64777700I0J62500D01*
G01*
X137728600Y-64652700D01*
G75*
G02*
X137791100Y-64590200I62500J0D01*
G01*
G37*
G36*
G01*
X137791100Y-64090200D02*
X138666100Y-64090200D01*
G75*
G02*
X138728600Y-64152700I0J-62500D01*
G01*
X138728600Y-64277700D01*
G75*
G02*
X138666100Y-64340200I-62500J0D01*
G01*
X137791100Y-64340200D01*
G75*
G02*
X137728600Y-64277700I0J62500D01*
G01*
X137728600Y-64152700D01*
G75*
G02*
X137791100Y-64090200I62500J0D01*
G01*
G37*
G36*
G01*
X137791100Y-63590200D02*
X138666100Y-63590200D01*
G75*
G02*
X138728600Y-63652700I0J-62500D01*
G01*
X138728600Y-63777700D01*
G75*
G02*
X138666100Y-63840200I-62500J0D01*
G01*
X137791100Y-63840200D01*
G75*
G02*
X137728600Y-63777700I0J62500D01*
G01*
X137728600Y-63652700D01*
G75*
G02*
X137791100Y-63590200I62500J0D01*
G01*
G37*
G36*
G01*
X139116100Y-62265200D02*
X139241100Y-62265200D01*
G75*
G02*
X139303600Y-62327700I0J-62500D01*
G01*
X139303600Y-63202700D01*
G75*
G02*
X139241100Y-63265200I-62500J0D01*
G01*
X139116100Y-63265200D01*
G75*
G02*
X139053600Y-63202700I0J62500D01*
G01*
X139053600Y-62327700D01*
G75*
G02*
X139116100Y-62265200I62500J0D01*
G01*
G37*
G36*
G01*
X139616100Y-62265200D02*
X139741100Y-62265200D01*
G75*
G02*
X139803600Y-62327700I0J-62500D01*
G01*
X139803600Y-63202700D01*
G75*
G02*
X139741100Y-63265200I-62500J0D01*
G01*
X139616100Y-63265200D01*
G75*
G02*
X139553600Y-63202700I0J62500D01*
G01*
X139553600Y-62327700D01*
G75*
G02*
X139616100Y-62265200I62500J0D01*
G01*
G37*
G36*
G01*
X140116100Y-62265200D02*
X140241100Y-62265200D01*
G75*
G02*
X140303600Y-62327700I0J-62500D01*
G01*
X140303600Y-63202700D01*
G75*
G02*
X140241100Y-63265200I-62500J0D01*
G01*
X140116100Y-63265200D01*
G75*
G02*
X140053600Y-63202700I0J62500D01*
G01*
X140053600Y-62327700D01*
G75*
G02*
X140116100Y-62265200I62500J0D01*
G01*
G37*
G36*
G01*
X140616100Y-62265200D02*
X140741100Y-62265200D01*
G75*
G02*
X140803600Y-62327700I0J-62500D01*
G01*
X140803600Y-63202700D01*
G75*
G02*
X140741100Y-63265200I-62500J0D01*
G01*
X140616100Y-63265200D01*
G75*
G02*
X140553600Y-63202700I0J62500D01*
G01*
X140553600Y-62327700D01*
G75*
G02*
X140616100Y-62265200I62500J0D01*
G01*
G37*
%TD*%
D12*
%TO.C,Y1*%
X135831400Y-57861200D03*
X138031400Y-57861200D03*
%TD*%
%TO.C,J1*%
G36*
G01*
X123181700Y-73565000D02*
X123181700Y-75015000D01*
G75*
G02*
X123080100Y-75116600I-101600J0D01*
G01*
X122730100Y-75116600D01*
G75*
G02*
X122628500Y-75015000I0J101600D01*
G01*
X122628500Y-73565000D01*
G75*
G02*
X122730100Y-73463400I101600J0D01*
G01*
X123080100Y-73463400D01*
G75*
G02*
X123181700Y-73565000I0J-101600D01*
G01*
G37*
G36*
G01*
X123681700Y-73565000D02*
X123681700Y-75015000D01*
G75*
G02*
X123580100Y-75116600I-101600J0D01*
G01*
X123230100Y-75116600D01*
G75*
G02*
X123128500Y-75015000I0J101600D01*
G01*
X123128500Y-73565000D01*
G75*
G02*
X123230100Y-73463400I101600J0D01*
G01*
X123580100Y-73463400D01*
G75*
G02*
X123681700Y-73565000I0J-101600D01*
G01*
G37*
G36*
G01*
X124181700Y-73565000D02*
X124181700Y-75015000D01*
G75*
G02*
X124080100Y-75116600I-101600J0D01*
G01*
X123730100Y-75116600D01*
G75*
G02*
X123628500Y-75015000I0J101600D01*
G01*
X123628500Y-73565000D01*
G75*
G02*
X123730100Y-73463400I101600J0D01*
G01*
X124080100Y-73463400D01*
G75*
G02*
X124181700Y-73565000I0J-101600D01*
G01*
G37*
G36*
G01*
X124681700Y-73565000D02*
X124681700Y-75015000D01*
G75*
G02*
X124580100Y-75116600I-101600J0D01*
G01*
X124230100Y-75116600D01*
G75*
G02*
X124128500Y-75015000I0J101600D01*
G01*
X124128500Y-73565000D01*
G75*
G02*
X124230100Y-73463400I101600J0D01*
G01*
X124580100Y-73463400D01*
G75*
G02*
X124681700Y-73565000I0J-101600D01*
G01*
G37*
G36*
G01*
X125181700Y-73565000D02*
X125181700Y-75015000D01*
G75*
G02*
X125080100Y-75116600I-101600J0D01*
G01*
X124730100Y-75116600D01*
G75*
G02*
X124628500Y-75015000I0J101600D01*
G01*
X124628500Y-73565000D01*
G75*
G02*
X124730100Y-73463400I101600J0D01*
G01*
X125080100Y-73463400D01*
G75*
G02*
X125181700Y-73565000I0J-101600D01*
G01*
G37*
G36*
G01*
X125681700Y-73565000D02*
X125681700Y-75015000D01*
G75*
G02*
X125580100Y-75116600I-101600J0D01*
G01*
X125230100Y-75116600D01*
G75*
G02*
X125128500Y-75015000I0J101600D01*
G01*
X125128500Y-73565000D01*
G75*
G02*
X125230100Y-73463400I101600J0D01*
G01*
X125580100Y-73463400D01*
G75*
G02*
X125681700Y-73565000I0J-101600D01*
G01*
G37*
G36*
G01*
X126181700Y-73565000D02*
X126181700Y-75015000D01*
G75*
G02*
X126080100Y-75116600I-101600J0D01*
G01*
X125730100Y-75116600D01*
G75*
G02*
X125628500Y-75015000I0J101600D01*
G01*
X125628500Y-73565000D01*
G75*
G02*
X125730100Y-73463400I101600J0D01*
G01*
X126080100Y-73463400D01*
G75*
G02*
X126181700Y-73565000I0J-101600D01*
G01*
G37*
G36*
G01*
X126681700Y-73565000D02*
X126681700Y-75015000D01*
G75*
G02*
X126580100Y-75116600I-101600J0D01*
G01*
X126230100Y-75116600D01*
G75*
G02*
X126128500Y-75015000I0J101600D01*
G01*
X126128500Y-73565000D01*
G75*
G02*
X126230100Y-73463400I101600J0D01*
G01*
X126580100Y-73463400D01*
G75*
G02*
X126681700Y-73565000I0J-101600D01*
G01*
G37*
G36*
G01*
X127181700Y-73565000D02*
X127181700Y-75015000D01*
G75*
G02*
X127080100Y-75116600I-101600J0D01*
G01*
X126730100Y-75116600D01*
G75*
G02*
X126628500Y-75015000I0J101600D01*
G01*
X126628500Y-73565000D01*
G75*
G02*
X126730100Y-73463400I101600J0D01*
G01*
X127080100Y-73463400D01*
G75*
G02*
X127181700Y-73565000I0J-101600D01*
G01*
G37*
G36*
G01*
X127681700Y-73565000D02*
X127681700Y-75015000D01*
G75*
G02*
X127580100Y-75116600I-101600J0D01*
G01*
X127230100Y-75116600D01*
G75*
G02*
X127128500Y-75015000I0J101600D01*
G01*
X127128500Y-73565000D01*
G75*
G02*
X127230100Y-73463400I101600J0D01*
G01*
X127580100Y-73463400D01*
G75*
G02*
X127681700Y-73565000I0J-101600D01*
G01*
G37*
G36*
G01*
X128181700Y-73565000D02*
X128181700Y-75015000D01*
G75*
G02*
X128080100Y-75116600I-101600J0D01*
G01*
X127730100Y-75116600D01*
G75*
G02*
X127628500Y-75015000I0J101600D01*
G01*
X127628500Y-73565000D01*
G75*
G02*
X127730100Y-73463400I101600J0D01*
G01*
X128080100Y-73463400D01*
G75*
G02*
X128181700Y-73565000I0J-101600D01*
G01*
G37*
G36*
G01*
X128681700Y-73565000D02*
X128681700Y-75015000D01*
G75*
G02*
X128580100Y-75116600I-101600J0D01*
G01*
X128230100Y-75116600D01*
G75*
G02*
X128128500Y-75015000I0J101600D01*
G01*
X128128500Y-73565000D01*
G75*
G02*
X128230100Y-73463400I101600J0D01*
G01*
X128580100Y-73463400D01*
G75*
G02*
X128681700Y-73565000I0J-101600D01*
G01*
G37*
G36*
G01*
X129181700Y-73565000D02*
X129181700Y-75015000D01*
G75*
G02*
X129080100Y-75116600I-101600J0D01*
G01*
X128730100Y-75116600D01*
G75*
G02*
X128628500Y-75015000I0J101600D01*
G01*
X128628500Y-73565000D01*
G75*
G02*
X128730100Y-73463400I101600J0D01*
G01*
X129080100Y-73463400D01*
G75*
G02*
X129181700Y-73565000I0J-101600D01*
G01*
G37*
G36*
G01*
X129681700Y-73565000D02*
X129681700Y-75015000D01*
G75*
G02*
X129580100Y-75116600I-101600J0D01*
G01*
X129230100Y-75116600D01*
G75*
G02*
X129128500Y-75015000I0J101600D01*
G01*
X129128500Y-73565000D01*
G75*
G02*
X129230100Y-73463400I101600J0D01*
G01*
X129580100Y-73463400D01*
G75*
G02*
X129681700Y-73565000I0J-101600D01*
G01*
G37*
G36*
G01*
X130181700Y-73565000D02*
X130181700Y-75015000D01*
G75*
G02*
X130080100Y-75116600I-101600J0D01*
G01*
X129730100Y-75116600D01*
G75*
G02*
X129628500Y-75015000I0J101600D01*
G01*
X129628500Y-73565000D01*
G75*
G02*
X129730100Y-73463400I101600J0D01*
G01*
X130080100Y-73463400D01*
G75*
G02*
X130181700Y-73565000I0J-101600D01*
G01*
G37*
G36*
G01*
X130681700Y-73565000D02*
X130681700Y-75015000D01*
G75*
G02*
X130580100Y-75116600I-101600J0D01*
G01*
X130230100Y-75116600D01*
G75*
G02*
X130128500Y-75015000I0J101600D01*
G01*
X130128500Y-73565000D01*
G75*
G02*
X130230100Y-73463400I101600J0D01*
G01*
X130580100Y-73463400D01*
G75*
G02*
X130681700Y-73565000I0J-101600D01*
G01*
G37*
G36*
G01*
X131181700Y-73565000D02*
X131181700Y-75015000D01*
G75*
G02*
X131080100Y-75116600I-101600J0D01*
G01*
X130730100Y-75116600D01*
G75*
G02*
X130628500Y-75015000I0J101600D01*
G01*
X130628500Y-73565000D01*
G75*
G02*
X130730100Y-73463400I101600J0D01*
G01*
X131080100Y-73463400D01*
G75*
G02*
X131181700Y-73565000I0J-101600D01*
G01*
G37*
G36*
G01*
X131681700Y-73565000D02*
X131681700Y-75015000D01*
G75*
G02*
X131580100Y-75116600I-101600J0D01*
G01*
X131230100Y-75116600D01*
G75*
G02*
X131128500Y-75015000I0J101600D01*
G01*
X131128500Y-73565000D01*
G75*
G02*
X131230100Y-73463400I101600J0D01*
G01*
X131580100Y-73463400D01*
G75*
G02*
X131681700Y-73565000I0J-101600D01*
G01*
G37*
G36*
G01*
X132181700Y-73565000D02*
X132181700Y-75015000D01*
G75*
G02*
X132080100Y-75116600I-101600J0D01*
G01*
X131730100Y-75116600D01*
G75*
G02*
X131628500Y-75015000I0J101600D01*
G01*
X131628500Y-73565000D01*
G75*
G02*
X131730100Y-73463400I101600J0D01*
G01*
X132080100Y-73463400D01*
G75*
G02*
X132181700Y-73565000I0J-101600D01*
G01*
G37*
G36*
G01*
X132681700Y-73565000D02*
X132681700Y-75015000D01*
G75*
G02*
X132580100Y-75116600I-101600J0D01*
G01*
X132230100Y-75116600D01*
G75*
G02*
X132128500Y-75015000I0J101600D01*
G01*
X132128500Y-73565000D01*
G75*
G02*
X132230100Y-73463400I101600J0D01*
G01*
X132580100Y-73463400D01*
G75*
G02*
X132681700Y-73565000I0J-101600D01*
G01*
G37*
G36*
G01*
X133181700Y-73565000D02*
X133181700Y-75015000D01*
G75*
G02*
X133080100Y-75116600I-101600J0D01*
G01*
X132730100Y-75116600D01*
G75*
G02*
X132628500Y-75015000I0J101600D01*
G01*
X132628500Y-73565000D01*
G75*
G02*
X132730100Y-73463400I101600J0D01*
G01*
X133080100Y-73463400D01*
G75*
G02*
X133181700Y-73565000I0J-101600D01*
G01*
G37*
G36*
G01*
X133681700Y-73565000D02*
X133681700Y-75015000D01*
G75*
G02*
X133580100Y-75116600I-101600J0D01*
G01*
X133230100Y-75116600D01*
G75*
G02*
X133128500Y-75015000I0J101600D01*
G01*
X133128500Y-73565000D01*
G75*
G02*
X133230100Y-73463400I101600J0D01*
G01*
X133580100Y-73463400D01*
G75*
G02*
X133681700Y-73565000I0J-101600D01*
G01*
G37*
G36*
G01*
X136181700Y-73565000D02*
X136181700Y-75015000D01*
G75*
G02*
X136080100Y-75116600I-101600J0D01*
G01*
X135730100Y-75116600D01*
G75*
G02*
X135628500Y-75015000I0J101600D01*
G01*
X135628500Y-73565000D01*
G75*
G02*
X135730100Y-73463400I101600J0D01*
G01*
X136080100Y-73463400D01*
G75*
G02*
X136181700Y-73565000I0J-101600D01*
G01*
G37*
G36*
G01*
X136681700Y-73565000D02*
X136681700Y-75015000D01*
G75*
G02*
X136580100Y-75116600I-101600J0D01*
G01*
X136230100Y-75116600D01*
G75*
G02*
X136128500Y-75015000I0J101600D01*
G01*
X136128500Y-73565000D01*
G75*
G02*
X136230100Y-73463400I101600J0D01*
G01*
X136580100Y-73463400D01*
G75*
G02*
X136681700Y-73565000I0J-101600D01*
G01*
G37*
G36*
G01*
X137181700Y-73565000D02*
X137181700Y-75015000D01*
G75*
G02*
X137080100Y-75116600I-101600J0D01*
G01*
X136730100Y-75116600D01*
G75*
G02*
X136628500Y-75015000I0J101600D01*
G01*
X136628500Y-73565000D01*
G75*
G02*
X136730100Y-73463400I101600J0D01*
G01*
X137080100Y-73463400D01*
G75*
G02*
X137181700Y-73565000I0J-101600D01*
G01*
G37*
G36*
G01*
X137681700Y-73565000D02*
X137681700Y-75015000D01*
G75*
G02*
X137580100Y-75116600I-101600J0D01*
G01*
X137230100Y-75116600D01*
G75*
G02*
X137128500Y-75015000I0J101600D01*
G01*
X137128500Y-73565000D01*
G75*
G02*
X137230100Y-73463400I101600J0D01*
G01*
X137580100Y-73463400D01*
G75*
G02*
X137681700Y-73565000I0J-101600D01*
G01*
G37*
G36*
G01*
X138181700Y-73565000D02*
X138181700Y-75015000D01*
G75*
G02*
X138080100Y-75116600I-101600J0D01*
G01*
X137730100Y-75116600D01*
G75*
G02*
X137628500Y-75015000I0J101600D01*
G01*
X137628500Y-73565000D01*
G75*
G02*
X137730100Y-73463400I101600J0D01*
G01*
X138080100Y-73463400D01*
G75*
G02*
X138181700Y-73565000I0J-101600D01*
G01*
G37*
G36*
G01*
X138681700Y-73565000D02*
X138681700Y-75015000D01*
G75*
G02*
X138580100Y-75116600I-101600J0D01*
G01*
X138230100Y-75116600D01*
G75*
G02*
X138128500Y-75015000I0J101600D01*
G01*
X138128500Y-73565000D01*
G75*
G02*
X138230100Y-73463400I101600J0D01*
G01*
X138580100Y-73463400D01*
G75*
G02*
X138681700Y-73565000I0J-101600D01*
G01*
G37*
G36*
G01*
X139181700Y-73565000D02*
X139181700Y-75015000D01*
G75*
G02*
X139080100Y-75116600I-101600J0D01*
G01*
X138730100Y-75116600D01*
G75*
G02*
X138628500Y-75015000I0J101600D01*
G01*
X138628500Y-73565000D01*
G75*
G02*
X138730100Y-73463400I101600J0D01*
G01*
X139080100Y-73463400D01*
G75*
G02*
X139181700Y-73565000I0J-101600D01*
G01*
G37*
G36*
G01*
X139681700Y-73565000D02*
X139681700Y-75015000D01*
G75*
G02*
X139580100Y-75116600I-101600J0D01*
G01*
X139230100Y-75116600D01*
G75*
G02*
X139128500Y-75015000I0J101600D01*
G01*
X139128500Y-73565000D01*
G75*
G02*
X139230100Y-73463400I101600J0D01*
G01*
X139580100Y-73463400D01*
G75*
G02*
X139681700Y-73565000I0J-101600D01*
G01*
G37*
G36*
G01*
X140181700Y-73565000D02*
X140181700Y-75015000D01*
G75*
G02*
X140080100Y-75116600I-101600J0D01*
G01*
X139730100Y-75116600D01*
G75*
G02*
X139628500Y-75015000I0J101600D01*
G01*
X139628500Y-73565000D01*
G75*
G02*
X139730100Y-73463400I101600J0D01*
G01*
X140080100Y-73463400D01*
G75*
G02*
X140181700Y-73565000I0J-101600D01*
G01*
G37*
G36*
G01*
X140681700Y-73565000D02*
X140681700Y-75015000D01*
G75*
G02*
X140580100Y-75116600I-101600J0D01*
G01*
X140230100Y-75116600D01*
G75*
G02*
X140128500Y-75015000I0J101600D01*
G01*
X140128500Y-73565000D01*
G75*
G02*
X140230100Y-73463400I101600J0D01*
G01*
X140580100Y-73463400D01*
G75*
G02*
X140681700Y-73565000I0J-101600D01*
G01*
G37*
G36*
G01*
X141181700Y-73565000D02*
X141181700Y-75015000D01*
G75*
G02*
X141080100Y-75116600I-101600J0D01*
G01*
X140730100Y-75116600D01*
G75*
G02*
X140628500Y-75015000I0J101600D01*
G01*
X140628500Y-73565000D01*
G75*
G02*
X140730100Y-73463400I101600J0D01*
G01*
X141080100Y-73463400D01*
G75*
G02*
X141181700Y-73565000I0J-101600D01*
G01*
G37*
G36*
G01*
X141681700Y-73565000D02*
X141681700Y-75015000D01*
G75*
G02*
X141580100Y-75116600I-101600J0D01*
G01*
X141230100Y-75116600D01*
G75*
G02*
X141128500Y-75015000I0J101600D01*
G01*
X141128500Y-73565000D01*
G75*
G02*
X141230100Y-73463400I101600J0D01*
G01*
X141580100Y-73463400D01*
G75*
G02*
X141681700Y-73565000I0J-101600D01*
G01*
G37*
%TD*%
D13*
%TO.C,U1*%
X124206000Y-67005200D03*
X124206000Y-66497200D03*
X124206000Y-65989200D03*
X124206000Y-65506600D03*
X124206000Y-64998600D03*
X124206000Y-64490600D03*
X124206000Y-64008000D03*
X124206000Y-63500000D03*
X124206000Y-62992000D03*
X124206000Y-62484000D03*
X124206000Y-62001400D03*
X124206000Y-61493400D03*
X124206000Y-60985400D03*
X124206000Y-60502800D03*
X124206000Y-59994800D03*
X124206000Y-59486800D03*
D14*
X126161800Y-57531000D03*
X126669800Y-57531000D03*
X127177800Y-57531000D03*
X127660400Y-57531000D03*
X128168400Y-57531000D03*
X128676400Y-57531000D03*
X129159000Y-57531000D03*
X129667000Y-57531000D03*
X130175000Y-57531000D03*
X130683000Y-57531000D03*
X131165600Y-57531000D03*
X131673600Y-57531000D03*
X132181600Y-57531000D03*
X132664200Y-57531000D03*
X133172200Y-57531000D03*
X133680200Y-57531000D03*
D13*
X135636000Y-59486800D03*
X135636000Y-59994800D03*
X135636000Y-60502800D03*
X135636000Y-60985400D03*
X135636000Y-61493400D03*
X135636000Y-62001400D03*
X135636000Y-62484000D03*
X135636000Y-62992000D03*
X135636000Y-63500000D03*
X135636000Y-64008000D03*
X135636000Y-64490600D03*
X135636000Y-64998600D03*
X135636000Y-65506600D03*
X135636000Y-65989200D03*
X135636000Y-66497200D03*
X135636000Y-67005200D03*
D14*
X133680200Y-68961000D03*
X133172200Y-68961000D03*
X132664200Y-68961000D03*
X132181600Y-68961000D03*
X131673600Y-68961000D03*
X131165600Y-68961000D03*
X130683000Y-68961000D03*
X130175000Y-68961000D03*
X129667000Y-68961000D03*
X129159000Y-68961000D03*
X128676400Y-68961000D03*
X128168400Y-68961000D03*
X127660400Y-68961000D03*
X127177800Y-68961000D03*
X126669800Y-68961000D03*
X126161800Y-68961000D03*
%TD*%
%TO.C,C1*%
G36*
G01*
X123717000Y-68723500D02*
X123717000Y-69198500D01*
G75*
G02*
X123479500Y-69436000I-237500J0D01*
G01*
X122879500Y-69436000D01*
G75*
G02*
X122642000Y-69198500I0J237500D01*
G01*
X122642000Y-68723500D01*
G75*
G02*
X122879500Y-68486000I237500J0D01*
G01*
X123479500Y-68486000D01*
G75*
G02*
X123717000Y-68723500I0J-237500D01*
G01*
G37*
G36*
G01*
X125442000Y-68723500D02*
X125442000Y-69198500D01*
G75*
G02*
X125204500Y-69436000I-237500J0D01*
G01*
X124604500Y-69436000D01*
G75*
G02*
X124367000Y-69198500I0J237500D01*
G01*
X124367000Y-68723500D01*
G75*
G02*
X124604500Y-68486000I237500J0D01*
G01*
X125204500Y-68486000D01*
G75*
G02*
X125442000Y-68723500I0J-237500D01*
G01*
G37*
%TD*%
%TO.C,R1*%
G36*
G01*
X123909600Y-57641500D02*
X123909600Y-57166500D01*
G75*
G02*
X124147100Y-56929000I237500J0D01*
G01*
X124722100Y-56929000D01*
G75*
G02*
X124959600Y-57166500I0J-237500D01*
G01*
X124959600Y-57641500D01*
G75*
G02*
X124722100Y-57879000I-237500J0D01*
G01*
X124147100Y-57879000D01*
G75*
G02*
X123909600Y-57641500I0J237500D01*
G01*
G37*
G36*
G01*
X122159600Y-57641500D02*
X122159600Y-57166500D01*
G75*
G02*
X122397100Y-56929000I237500J0D01*
G01*
X122972100Y-56929000D01*
G75*
G02*
X123209600Y-57166500I0J-237500D01*
G01*
X123209600Y-57641500D01*
G75*
G02*
X122972100Y-57879000I-237500J0D01*
G01*
X122397100Y-57879000D01*
G75*
G02*
X122159600Y-57641500I0J237500D01*
G01*
G37*
%TD*%
%TO.C,D1*%
G36*
G01*
X123961200Y-56126801D02*
X123961200Y-55226799D01*
G75*
G02*
X124211199Y-54976800I249999J0D01*
G01*
X124861201Y-54976800D01*
G75*
G02*
X125111200Y-55226799I0J-249999D01*
G01*
X125111200Y-56126801D01*
G75*
G02*
X124861201Y-56376800I-249999J0D01*
G01*
X124211199Y-56376800D01*
G75*
G02*
X123961200Y-56126801I0J249999D01*
G01*
G37*
G36*
G01*
X121911200Y-56126801D02*
X121911200Y-55226799D01*
G75*
G02*
X122161199Y-54976800I249999J0D01*
G01*
X122811201Y-54976800D01*
G75*
G02*
X123061200Y-55226799I0J-249999D01*
G01*
X123061200Y-56126801D01*
G75*
G02*
X122811201Y-56376800I-249999J0D01*
G01*
X122161199Y-56376800D01*
G75*
G02*
X121911200Y-56126801I0J249999D01*
G01*
G37*
%TD*%
%TO.C,C4*%
G36*
G01*
X136188500Y-69350900D02*
X136188500Y-68875900D01*
G75*
G02*
X136426000Y-68638400I237500J0D01*
G01*
X137026000Y-68638400D01*
G75*
G02*
X137263500Y-68875900I0J-237500D01*
G01*
X137263500Y-69350900D01*
G75*
G02*
X137026000Y-69588400I-237500J0D01*
G01*
X136426000Y-69588400D01*
G75*
G02*
X136188500Y-69350900I0J237500D01*
G01*
G37*
G36*
G01*
X134463500Y-69350900D02*
X134463500Y-68875900D01*
G75*
G02*
X134701000Y-68638400I237500J0D01*
G01*
X135301000Y-68638400D01*
G75*
G02*
X135538500Y-68875900I0J-237500D01*
G01*
X135538500Y-69350900D01*
G75*
G02*
X135301000Y-69588400I-237500J0D01*
G01*
X134701000Y-69588400D01*
G75*
G02*
X134463500Y-69350900I0J237500D01*
G01*
G37*
%TD*%
%TO.C,C3*%
G36*
G01*
X127362000Y-55736500D02*
X127362000Y-55261500D01*
G75*
G02*
X127599500Y-55024000I237500J0D01*
G01*
X128199500Y-55024000D01*
G75*
G02*
X128437000Y-55261500I0J-237500D01*
G01*
X128437000Y-55736500D01*
G75*
G02*
X128199500Y-55974000I-237500J0D01*
G01*
X127599500Y-55974000D01*
G75*
G02*
X127362000Y-55736500I0J237500D01*
G01*
G37*
G36*
G01*
X125637000Y-55736500D02*
X125637000Y-55261500D01*
G75*
G02*
X125874500Y-55024000I237500J0D01*
G01*
X126474500Y-55024000D01*
G75*
G02*
X126712000Y-55261500I0J-237500D01*
G01*
X126712000Y-55736500D01*
G75*
G02*
X126474500Y-55974000I-237500J0D01*
G01*
X125874500Y-55974000D01*
G75*
G02*
X125637000Y-55736500I0J237500D01*
G01*
G37*
%TD*%
%TO.C,C2*%
G36*
G01*
X139009000Y-60753000D02*
X139009000Y-60278000D01*
G75*
G02*
X139246500Y-60040500I237500J0D01*
G01*
X139846500Y-60040500D01*
G75*
G02*
X140084000Y-60278000I0J-237500D01*
G01*
X140084000Y-60753000D01*
G75*
G02*
X139846500Y-60990500I-237500J0D01*
G01*
X139246500Y-60990500D01*
G75*
G02*
X139009000Y-60753000I0J237500D01*
G01*
G37*
G36*
G01*
X137284000Y-60753000D02*
X137284000Y-60278000D01*
G75*
G02*
X137521500Y-60040500I237500J0D01*
G01*
X138121500Y-60040500D01*
G75*
G02*
X138359000Y-60278000I0J-237500D01*
G01*
X138359000Y-60753000D01*
G75*
G02*
X138121500Y-60990500I-237500J0D01*
G01*
X137521500Y-60990500D01*
G75*
G02*
X137284000Y-60753000I0J237500D01*
G01*
G37*
%TD*%
%TO.C,R2*%
G36*
G01*
X141893300Y-68052200D02*
X141418300Y-68052200D01*
G75*
G02*
X141180800Y-67814700I0J237500D01*
G01*
X141180800Y-67239700D01*
G75*
G02*
X141418300Y-67002200I237500J0D01*
G01*
X141893300Y-67002200D01*
G75*
G02*
X142130800Y-67239700I0J-237500D01*
G01*
X142130800Y-67814700D01*
G75*
G02*
X141893300Y-68052200I-237500J0D01*
G01*
G37*
G36*
G01*
X141893300Y-69802200D02*
X141418300Y-69802200D01*
G75*
G02*
X141180800Y-69564700I0J237500D01*
G01*
X141180800Y-68989700D01*
G75*
G02*
X141418300Y-68752200I237500J0D01*
G01*
X141893300Y-68752200D01*
G75*
G02*
X142130800Y-68989700I0J-237500D01*
G01*
X142130800Y-69564700D01*
G75*
G02*
X141893300Y-69802200I-237500J0D01*
G01*
G37*
%TD*%
%TO.C,R3*%
G36*
G01*
X140199100Y-68752200D02*
X140674100Y-68752200D01*
G75*
G02*
X140911600Y-68989700I0J-237500D01*
G01*
X140911600Y-69564700D01*
G75*
G02*
X140674100Y-69802200I-237500J0D01*
G01*
X140199100Y-69802200D01*
G75*
G02*
X139961600Y-69564700I0J237500D01*
G01*
X139961600Y-68989700D01*
G75*
G02*
X140199100Y-68752200I237500J0D01*
G01*
G37*
G36*
G01*
X140199100Y-67002200D02*
X140674100Y-67002200D01*
G75*
G02*
X140911600Y-67239700I0J-237500D01*
G01*
X140911600Y-67814700D01*
G75*
G02*
X140674100Y-68052200I-237500J0D01*
G01*
X140199100Y-68052200D01*
G75*
G02*
X139961600Y-67814700I0J237500D01*
G01*
X139961600Y-67239700D01*
G75*
G02*
X140199100Y-67002200I237500J0D01*
G01*
G37*
%TD*%
M02*
