%TF.GenerationSoftware,KiCad,Pcbnew,(5.1.8)-1*%
%TF.CreationDate,2020-12-18T16:25:39+01:00*%
%TF.ProjectId,TeensyMM,5465656e-7379-44d4-9d2e-6b696361645f,rev?*%
%TF.SameCoordinates,Original*%
%TF.FileFunction,Copper,L4,Bot*%
%TF.FilePolarity,Positive*%
%FSLAX46Y46*%
G04 Gerber Fmt 4.6, Leading zero omitted, Abs format (unit mm)*
G04 Created by KiCad (PCBNEW (5.1.8)-1) date 2020-12-18 16:25:39*
%MOMM*%
%LPD*%
G01*
G04 APERTURE LIST*
%TA.AperFunction,EtchedComponent*%
%ADD10C,0.100000*%
%TD*%
%TA.AperFunction,SMDPad,CuDef*%
%ADD11R,1.000000X1.500000*%
%TD*%
%TA.AperFunction,SMDPad,CuDef*%
%ADD12C,0.100000*%
%TD*%
%TA.AperFunction,SMDPad,CuDef*%
%ADD13R,1.150000X2.200000*%
%TD*%
%TA.AperFunction,SMDPad,CuDef*%
%ADD14R,0.800000X0.900000*%
%TD*%
%TA.AperFunction,SMDPad,CuDef*%
%ADD15R,1.500000X1.000000*%
%TD*%
%TA.AperFunction,SMDPad,CuDef*%
%ADD16R,0.350000X1.950000*%
%TD*%
%TA.AperFunction,ViaPad*%
%ADD17C,0.469900*%
%TD*%
%TA.AperFunction,ViaPad*%
%ADD18C,0.635000*%
%TD*%
%TA.AperFunction,Conductor*%
%ADD19C,0.279400*%
%TD*%
%TA.AperFunction,Conductor*%
%ADD20C,0.127000*%
%TD*%
%TA.AperFunction,Conductor*%
%ADD21C,0.152400*%
%TD*%
%TA.AperFunction,Conductor*%
%ADD22C,0.100000*%
%TD*%
G04 APERTURE END LIST*
D10*
%TO.C,JP2*%
G36*
X122605800Y-59567600D02*
G01*
X122605800Y-59114400D01*
X122402600Y-59110400D01*
X122402600Y-59567600D01*
X122605800Y-59567600D01*
G37*
G36*
X123164600Y-59567600D02*
G01*
X123164600Y-59114400D01*
X122961400Y-59110400D01*
X122961400Y-59567600D01*
X123164600Y-59567600D01*
G37*
%TD*%
D11*
%TO.P,JP1,2*%
%TO.N,GND*%
X139979400Y-64363600D03*
%TA.AperFunction,SMDPad,CuDef*%
D12*
%TO.P,JP1,3*%
%TO.N,/PTA3*%
G36*
X138679400Y-65112998D02*
G01*
X138654866Y-65112998D01*
X138606035Y-65108188D01*
X138557910Y-65098616D01*
X138510955Y-65084372D01*
X138465622Y-65065595D01*
X138422349Y-65042464D01*
X138381550Y-65015204D01*
X138343621Y-64984076D01*
X138308924Y-64949379D01*
X138277796Y-64911450D01*
X138250536Y-64870651D01*
X138227405Y-64827378D01*
X138208628Y-64782045D01*
X138194384Y-64735090D01*
X138184812Y-64686965D01*
X138180002Y-64638134D01*
X138180002Y-64613600D01*
X138179400Y-64613600D01*
X138179400Y-64113600D01*
X138180002Y-64113600D01*
X138180002Y-64089066D01*
X138184812Y-64040235D01*
X138194384Y-63992110D01*
X138208628Y-63945155D01*
X138227405Y-63899822D01*
X138250536Y-63856549D01*
X138277796Y-63815750D01*
X138308924Y-63777821D01*
X138343621Y-63743124D01*
X138381550Y-63711996D01*
X138422349Y-63684736D01*
X138465622Y-63661605D01*
X138510955Y-63642828D01*
X138557910Y-63628584D01*
X138606035Y-63619012D01*
X138654866Y-63614202D01*
X138679400Y-63614202D01*
X138679400Y-63613600D01*
X139229400Y-63613600D01*
X139229400Y-65113600D01*
X138679400Y-65113600D01*
X138679400Y-65112998D01*
G37*
%TD.AperFunction*%
%TA.AperFunction,SMDPad,CuDef*%
%TO.P,JP1,1*%
%TO.N,/PTA1*%
G36*
X140729400Y-63613600D02*
G01*
X141279400Y-63613600D01*
X141279400Y-63614202D01*
X141303934Y-63614202D01*
X141352765Y-63619012D01*
X141400890Y-63628584D01*
X141447845Y-63642828D01*
X141493178Y-63661605D01*
X141536451Y-63684736D01*
X141577250Y-63711996D01*
X141615179Y-63743124D01*
X141649876Y-63777821D01*
X141681004Y-63815750D01*
X141708264Y-63856549D01*
X141731395Y-63899822D01*
X141750172Y-63945155D01*
X141764416Y-63992110D01*
X141773988Y-64040235D01*
X141778798Y-64089066D01*
X141778798Y-64113600D01*
X141779400Y-64113600D01*
X141779400Y-64613600D01*
X141778798Y-64613600D01*
X141778798Y-64638134D01*
X141773988Y-64686965D01*
X141764416Y-64735090D01*
X141750172Y-64782045D01*
X141731395Y-64827378D01*
X141708264Y-64870651D01*
X141681004Y-64911450D01*
X141649876Y-64949379D01*
X141615179Y-64984076D01*
X141577250Y-65015204D01*
X141536451Y-65042464D01*
X141493178Y-65065595D01*
X141447845Y-65084372D01*
X141400890Y-65098616D01*
X141352765Y-65108188D01*
X141303934Y-65112998D01*
X141279400Y-65112998D01*
X141279400Y-65113600D01*
X140729400Y-65113600D01*
X140729400Y-63613600D01*
G37*
%TD.AperFunction*%
%TD*%
D13*
%TO.P,Y2,2*%
%TO.N,Net-(U1-Pad20)*%
X136182400Y-63271400D03*
%TO.P,Y2,1*%
%TO.N,Net-(U1-Pad19)*%
X134632400Y-63271400D03*
%TD*%
D14*
%TO.P,D2,3*%
%TO.N,Net-(D2-Pad3)*%
X123164600Y-68935600D03*
%TO.P,D2,2*%
%TO.N,RTC3V*%
X124114600Y-66935600D03*
%TO.P,D2,1*%
%TO.N,+3V3*%
X122214600Y-66935600D03*
%TD*%
%TA.AperFunction,SMDPad,CuDef*%
D12*
%TO.P,JP2,1*%
%TO.N,D13-SCK*%
G36*
X123559000Y-59454000D02*
G01*
X123559000Y-60004000D01*
X123558398Y-60004000D01*
X123558398Y-60028534D01*
X123553588Y-60077365D01*
X123544016Y-60125490D01*
X123529772Y-60172445D01*
X123510995Y-60217778D01*
X123487864Y-60261051D01*
X123460604Y-60301850D01*
X123429476Y-60339779D01*
X123394779Y-60374476D01*
X123356850Y-60405604D01*
X123316051Y-60432864D01*
X123272778Y-60455995D01*
X123227445Y-60474772D01*
X123180490Y-60489016D01*
X123132365Y-60498588D01*
X123083534Y-60503398D01*
X123059000Y-60503398D01*
X123059000Y-60504000D01*
X122559000Y-60504000D01*
X122559000Y-60503398D01*
X122534466Y-60503398D01*
X122485635Y-60498588D01*
X122437510Y-60489016D01*
X122390555Y-60474772D01*
X122345222Y-60455995D01*
X122301949Y-60432864D01*
X122261150Y-60405604D01*
X122223221Y-60374476D01*
X122188524Y-60339779D01*
X122157396Y-60301850D01*
X122130136Y-60261051D01*
X122107005Y-60217778D01*
X122088228Y-60172445D01*
X122073984Y-60125490D01*
X122064412Y-60077365D01*
X122059602Y-60028534D01*
X122059602Y-60004000D01*
X122059000Y-60004000D01*
X122059000Y-59454000D01*
X123559000Y-59454000D01*
G37*
%TD.AperFunction*%
D15*
%TO.P,JP2,2*%
%TO.N,Net-(D1-Pad2)*%
X122809000Y-58704000D03*
%TA.AperFunction,SMDPad,CuDef*%
D12*
%TO.P,JP2,3*%
%TO.N,D23*%
G36*
X122059602Y-57404000D02*
G01*
X122059602Y-57379466D01*
X122064412Y-57330635D01*
X122073984Y-57282510D01*
X122088228Y-57235555D01*
X122107005Y-57190222D01*
X122130136Y-57146949D01*
X122157396Y-57106150D01*
X122188524Y-57068221D01*
X122223221Y-57033524D01*
X122261150Y-57002396D01*
X122301949Y-56975136D01*
X122345222Y-56952005D01*
X122390555Y-56933228D01*
X122437510Y-56918984D01*
X122485635Y-56909412D01*
X122534466Y-56904602D01*
X122559000Y-56904602D01*
X122559000Y-56904000D01*
X123059000Y-56904000D01*
X123059000Y-56904602D01*
X123083534Y-56904602D01*
X123132365Y-56909412D01*
X123180490Y-56918984D01*
X123227445Y-56933228D01*
X123272778Y-56952005D01*
X123316051Y-56975136D01*
X123356850Y-57002396D01*
X123394779Y-57033524D01*
X123429476Y-57068221D01*
X123460604Y-57106150D01*
X123487864Y-57146949D01*
X123510995Y-57190222D01*
X123529772Y-57235555D01*
X123544016Y-57282510D01*
X123553588Y-57330635D01*
X123558398Y-57379466D01*
X123558398Y-57404000D01*
X123559000Y-57404000D01*
X123559000Y-57954000D01*
X122059000Y-57954000D01*
X122059000Y-57404000D01*
X122059602Y-57404000D01*
G37*
%TD.AperFunction*%
%TD*%
D16*
%TO.P,J1,74*%
%TO.N,+3V3*%
X123155100Y-74040000D03*
%TO.P,J1,72*%
%TO.N,RTC3V*%
X123655100Y-74040000D03*
%TO.P,J1,70*%
%TO.N,N/C*%
X124155100Y-74040000D03*
%TO.P,J1,68*%
X124655100Y-74040000D03*
%TO.P,J1,66*%
X125155100Y-74040000D03*
%TO.P,J1,64*%
X125655100Y-74040000D03*
%TO.P,J1,62*%
X126155100Y-74040000D03*
%TO.P,J1,60*%
X126655100Y-74040000D03*
%TO.P,J1,58*%
X127155100Y-74040000D03*
%TO.P,J1,56*%
X127655100Y-74040000D03*
%TO.P,J1,54*%
X128155100Y-74040000D03*
%TO.P,J1,52*%
X128655100Y-74040000D03*
%TO.P,J1,50*%
X129155100Y-74040000D03*
%TO.P,J1,48*%
%TO.N,D06-PTD4*%
X129655100Y-74040000D03*
%TO.P,J1,46*%
%TO.N,D08-PTD3*%
X130155100Y-74040000D03*
%TO.P,J1,44*%
%TO.N,D07-PTD2*%
X130655100Y-74040000D03*
%TO.P,J1,42*%
%TO.N,D14-PTD1*%
X131155100Y-74040000D03*
%TO.P,J1,40*%
%TO.N,D02-PTD0*%
X131655100Y-74040000D03*
%TO.P,J1,38*%
%TO.N,ADC1_P*%
X132155100Y-74040000D03*
%TO.P,J1,36*%
%TO.N,GND*%
X132655100Y-74040000D03*
%TO.P,J1,34*%
%TO.N,ADC1_N*%
X133155100Y-74040000D03*
%TO.P,J1,32*%
%TO.N,DAC*%
X133655100Y-74040000D03*
%TO.P,J1,22*%
%TO.N,D10-TX2*%
X136155100Y-74040000D03*
%TO.P,J1,20*%
%TO.N,D09-RX2*%
X136655100Y-74040000D03*
%TO.P,J1,18*%
%TO.N,D17_A3*%
X137155100Y-74040000D03*
%TO.P,J1,16*%
%TO.N,D24-I2C-INT*%
X137655100Y-74040000D03*
%TO.P,J1,14*%
%TO.N,D19-SCL0*%
X138155100Y-74040000D03*
%TO.P,J1,12*%
%TO.N,D18-SDA0*%
X138655100Y-74040000D03*
%TO.P,J1,10*%
%TO.N,D16_A2*%
X139155100Y-74040000D03*
%TO.P,J1,8*%
%TO.N,D28_A17*%
X139655100Y-74040000D03*
%TO.P,J1,6*%
%TO.N,RESET*%
X140155100Y-74040000D03*
%TO.P,J1,4*%
%TO.N,N/C*%
X140655100Y-74040000D03*
%TO.P,J1,2*%
%TO.N,+3V3*%
X141155100Y-74040000D03*
%TD*%
D17*
%TO.N,GND*%
X128651000Y-62230000D03*
D18*
X129209800Y-55473600D03*
X139877800Y-64427100D03*
X141554200Y-71272400D03*
X132664190Y-72694800D03*
X123190000Y-68041098D03*
X121869200Y-70739000D03*
X139647090Y-71577200D03*
D17*
X128003300Y-70396092D03*
X130352800Y-64998600D03*
X139546500Y-60515500D03*
D18*
X132714283Y-71247717D03*
D17*
%TO.N,+3V3*%
X127393700Y-60947300D03*
D18*
X141401800Y-62763400D03*
X126161800Y-54559200D03*
D17*
X125450600Y-58674000D03*
D18*
X124548900Y-70091300D03*
X123469390Y-72186800D03*
X134956506Y-68224400D03*
X141655800Y-69277200D03*
X141528800Y-70256400D03*
X127088977Y-70060765D03*
X128993894Y-70142122D03*
X137821500Y-60515472D03*
D17*
%TO.N,USB-D-*%
X137998200Y-67515896D03*
X128447800Y-67856100D03*
%TO.N,USB-D+*%
X139217400Y-67527166D03*
X127819110Y-67862418D03*
%TO.N,BOOT*%
X140265140Y-67527200D03*
X139477771Y-70637396D03*
%TO.N,RESET*%
X133781798Y-58674000D03*
X137972800Y-62738000D03*
X141706600Y-66547996D03*
%TO.N,SWD_CLK*%
X130644801Y-63728281D03*
X135768284Y-71905559D03*
%TO.N,SWD_DIO*%
X137439400Y-63017400D03*
X137433060Y-64708097D03*
X130586352Y-63134237D03*
X135342824Y-71483522D03*
%TO.N,/PTB1*%
X136804402Y-66040000D03*
X133675056Y-63138021D03*
%TO.N,D06-PTD4*%
X127679562Y-65570100D03*
%TO.N,D08-PTD3*%
X127917846Y-64577124D03*
%TO.N,D07-PTD2*%
X127895155Y-63980644D03*
%TO.N,D14-PTD1*%
X128388808Y-63645069D03*
%TO.N,D02-PTD0*%
X129047064Y-63083329D03*
%TO.N,Net-(D1-Pad2)*%
X123926600Y-58674000D03*
%TO.N,DAC*%
X129808110Y-66524652D03*
%TO.N,D32-CTS1*%
X130377905Y-59690287D03*
X136919094Y-71495274D03*
%TO.N,D25-RTS1*%
X129159002Y-58674000D03*
X134092940Y-71197611D03*
%TO.N,ADC1_P*%
X131643926Y-70414800D03*
%TO.N,ADC1_N*%
X132148009Y-70734493D03*
%TO.N,D13-SCK*%
X125425617Y-59931811D03*
X127339300Y-72284142D03*
%TO.N,/PTA3*%
X139674600Y-61925200D03*
%TO.N,/PTA1*%
X142367000Y-64211200D03*
%TO.N,D01-TX1*%
X131904630Y-60167152D03*
X137808847Y-72606859D03*
%TO.N,D00-RX1*%
X130611191Y-58666684D03*
X137141957Y-72049021D03*
%TO.N,D10-TX2*%
X129937010Y-60724189D03*
%TO.N,D09-RX2*%
X130797499Y-60151191D03*
%TO.N,D12-MISO*%
X125450589Y-61125111D03*
X126084571Y-72491044D03*
%TO.N,D11-MOSI*%
X126918286Y-72708366D03*
X125450600Y-60528200D03*
%TO.N,D15-CS*%
X127635000Y-59217489D03*
X127886027Y-72705838D03*
%TO.N,D17_A3*%
X132308600Y-58645444D03*
X135836644Y-70386756D03*
X138248452Y-70162609D03*
%TO.N,D19-SCL0*%
X131591060Y-58674000D03*
%TO.N,D18-SDA0*%
X132142382Y-59317563D03*
%TO.N,D16_A2*%
X132990595Y-58647699D03*
%TO.N,D22-A8*%
X128229206Y-58679972D03*
X130117787Y-72339194D03*
%TO.N,D27_A16*%
X125450600Y-61976022D03*
X124942679Y-72288400D03*
%TO.N,D28_A17*%
X133419893Y-61030325D03*
%TO.N,D03-CAN-TX*%
X129108200Y-61829983D03*
X131476721Y-72411038D03*
%TO.N,D04-CAN-TX*%
X129086099Y-60971206D03*
X134425227Y-71769310D03*
%TO.N,D29-SCL1*%
X128320374Y-72296391D03*
X127312834Y-62456075D03*
%TO.N,D30-SDA1*%
X128799040Y-72703050D03*
X127209544Y-63043982D03*
%TO.N,D24-I2C-INT*%
X131567093Y-62178571D03*
%TO.N,D26_A15-BAT_VIN3*%
X129266875Y-72332329D03*
X127095821Y-70809421D03*
%TO.N,D23*%
X127635000Y-56515000D03*
%TO.N,Net-(U1-Pad20)*%
X136799840Y-65443106D03*
%TO.N,Net-(U1-Pad19)*%
X134251842Y-64812751D03*
%TO.N,Net-(D2-Pad3)*%
X125304584Y-65936358D03*
%TD*%
D19*
%TO.N,GND*%
X139979400Y-64312800D02*
X139979400Y-64414400D01*
X139928600Y-64465200D02*
X139928600Y-64465201D01*
X139979400Y-64414400D02*
X139928600Y-64465200D01*
X132655100Y-72703890D02*
X132664190Y-72694800D01*
X132655100Y-74040000D02*
X132655100Y-72703890D01*
%TO.N,+3V3*%
X123155100Y-74040000D02*
X123154100Y-74041000D01*
X123155100Y-72501090D02*
X123469390Y-72186800D01*
X123155100Y-74040000D02*
X123155100Y-72501090D01*
X141155100Y-74040000D02*
X141155100Y-72785600D01*
X140855701Y-70929499D02*
X141528800Y-70256400D01*
X141155100Y-72785600D02*
X140855701Y-72486201D01*
X140855701Y-72486201D02*
X140855701Y-70929499D01*
D20*
%TO.N,BOOT*%
X140265140Y-67527200D02*
X139477771Y-68314569D01*
X139477771Y-68314569D02*
X139477771Y-70637396D01*
%TO.N,RESET*%
X139776204Y-66547996D02*
X141706600Y-66547996D01*
X138892895Y-66547996D02*
X139776204Y-66547996D01*
X137972800Y-65627901D02*
X138892895Y-66547996D01*
X137972800Y-62738000D02*
X137972800Y-65627901D01*
X140690600Y-66547996D02*
X139776204Y-66547996D01*
X140155100Y-70827456D02*
X140690600Y-70291956D01*
X140690600Y-70291956D02*
X140690600Y-66547996D01*
X140155100Y-74040000D02*
X140155100Y-70827456D01*
X137972800Y-62405731D02*
X137972800Y-62738000D01*
X133781798Y-58674000D02*
X134241069Y-58674000D01*
X134241069Y-58674000D02*
X137972800Y-62405731D01*
%TO.N,SWD_CLK*%
X135115898Y-70626926D02*
X135768284Y-71279312D01*
X135115898Y-69889935D02*
X135115898Y-70626926D01*
X131286273Y-66060310D02*
X135115898Y-69889935D01*
X131286273Y-64583955D02*
X131286273Y-66060310D01*
X130644801Y-63942483D02*
X131286273Y-64583955D01*
X130644801Y-63728281D02*
X130644801Y-63942483D01*
X135768284Y-71279312D02*
X135768284Y-71905559D01*
%TO.N,SWD_DIO*%
X137439400Y-64701757D02*
X137433060Y-64708097D01*
X137439400Y-63017400D02*
X137439400Y-64701757D01*
X134823189Y-70963887D02*
X135342824Y-71483522D01*
X134823189Y-69956451D02*
X134823189Y-70963887D01*
X130562237Y-64275385D02*
X130618478Y-64275385D01*
X131032262Y-66165524D02*
X134823189Y-69956451D01*
X131032262Y-64689169D02*
X131032262Y-66165524D01*
X130618478Y-64275385D02*
X131032262Y-64689169D01*
X130219350Y-63932498D02*
X130562237Y-64275385D01*
X130219350Y-63524064D02*
X130219350Y-63932498D01*
X130586352Y-63157062D02*
X130219350Y-63524064D01*
X130586352Y-63134237D02*
X130586352Y-63157062D01*
%TO.N,/PTB1*%
X133826383Y-65008170D02*
X133826383Y-63289348D01*
X134705813Y-65887600D02*
X133826383Y-65008170D01*
X135886123Y-65887600D02*
X134705813Y-65887600D01*
X133826383Y-63289348D02*
X133675056Y-63138021D01*
X136038523Y-66040000D02*
X135886123Y-65887600D01*
X136804402Y-66040000D02*
X136038523Y-66040000D01*
%TO.N,D06-PTD4*%
X128943079Y-68541879D02*
X127509678Y-68541879D01*
X127050789Y-68082990D02*
X127050789Y-67334389D01*
X129692335Y-69291135D02*
X128943079Y-68541879D01*
X129692335Y-74002765D02*
X129692335Y-69291135D01*
X127050789Y-67334389D02*
X127679562Y-66705616D01*
X129655100Y-74040000D02*
X129692335Y-74002765D01*
X127509678Y-68541879D02*
X127050789Y-68082990D01*
X127679562Y-66705616D02*
X127679562Y-65570100D01*
%TO.N,D08-PTD3*%
X130543247Y-72543429D02*
X130543247Y-72159521D01*
X130155100Y-74040000D02*
X130155100Y-72931576D01*
X130543247Y-72159521D02*
X130202431Y-71818705D01*
X128366614Y-67157946D02*
X128366614Y-65025892D01*
X130202431Y-68993763D02*
X128366614Y-67157946D01*
X128366614Y-65025892D02*
X127917846Y-64577124D01*
X130155100Y-72931576D02*
X130543247Y-72543429D01*
X130202431Y-71818705D02*
X130202431Y-68993763D01*
%TO.N,D07-PTD2*%
X128620625Y-67044512D02*
X128620625Y-64848348D01*
X130456442Y-68880329D02*
X128620625Y-67044512D01*
X130456442Y-71713491D02*
X130456442Y-68880329D01*
X130797258Y-72720470D02*
X130797258Y-72054307D01*
X130797258Y-72054307D02*
X130456442Y-71713491D01*
X130655100Y-72862628D02*
X130797258Y-72720470D01*
X128620625Y-64848348D02*
X128441273Y-64668996D01*
X130655100Y-74040000D02*
X130655100Y-72862628D01*
X127951036Y-63980644D02*
X127895155Y-63980644D01*
X128441273Y-64470881D02*
X127951036Y-63980644D01*
X128441273Y-64668996D02*
X128441273Y-64470881D01*
%TO.N,D14-PTD1*%
X131051269Y-73936169D02*
X131051269Y-71949093D01*
X130710453Y-68775115D02*
X128874636Y-66939298D01*
X128695284Y-63951545D02*
X128388808Y-63645069D01*
X130710453Y-71608277D02*
X130710453Y-68775115D01*
X128874636Y-64743133D02*
X128695284Y-64563782D01*
X131155100Y-74040000D02*
X131051269Y-73936169D01*
X128695284Y-64563782D02*
X128695284Y-63951545D01*
X131051269Y-71949093D02*
X130710453Y-71608277D01*
X128874636Y-66939298D02*
X128874636Y-64743133D01*
%TO.N,D02-PTD0*%
X129382658Y-66728870D02*
X129382658Y-64532705D01*
X131655100Y-72862354D02*
X131902177Y-72615277D01*
X131218475Y-71388775D02*
X131218475Y-68564687D01*
X129203306Y-63239571D02*
X129047064Y-63083329D01*
X131655100Y-74040000D02*
X131655100Y-72862354D01*
X131218475Y-68564687D02*
X129382658Y-66728870D01*
X131902177Y-72615277D02*
X131902177Y-72072477D01*
X131902177Y-72072477D02*
X131218475Y-71388775D01*
X129382658Y-64532705D02*
X129203306Y-64353354D01*
X129203306Y-64353354D02*
X129203306Y-63239571D01*
%TO.N,Net-(D1-Pad2)*%
X122809000Y-58704000D02*
X123795000Y-58704000D01*
X123795000Y-58704000D02*
X123825000Y-58674000D01*
%TO.N,DAC*%
X133413477Y-71507043D02*
X133413477Y-70130019D01*
X133655100Y-71748666D02*
X133413477Y-71507043D01*
X133413477Y-70130019D02*
X129808110Y-66524652D01*
X133655100Y-74040000D02*
X133655100Y-71748666D01*
%TO.N,D32-CTS1*%
X136919094Y-71231070D02*
X136919094Y-71495274D01*
X131153446Y-59690287D02*
X131225159Y-59762000D01*
X130377905Y-59690287D02*
X131153446Y-59690287D01*
X131225159Y-60325224D02*
X130784644Y-60765739D01*
X131324270Y-62896666D02*
X131324270Y-63903502D01*
X131225159Y-59762000D02*
X131225159Y-60325224D01*
X131794295Y-64373527D02*
X131794295Y-65849882D01*
X136262096Y-70574072D02*
X136919094Y-71231070D01*
X135905717Y-69961304D02*
X136040862Y-69961304D01*
X131324270Y-63903502D02*
X131794295Y-64373527D01*
X136040862Y-69961304D02*
X136262096Y-70182538D01*
X131794295Y-65849882D02*
X135905717Y-69961304D01*
X130784644Y-60765739D02*
X130784644Y-62357040D01*
X136262096Y-70182538D02*
X136262096Y-70574072D01*
X130784644Y-62357040D02*
X131324270Y-62896666D01*
%TO.N,D25-RTS1*%
X130478016Y-66329728D02*
X134092940Y-69944652D01*
X129908344Y-65506644D02*
X130478016Y-66076316D01*
X134092940Y-69944652D02*
X134092940Y-71197611D01*
X129908344Y-64339941D02*
X129908344Y-65506644D01*
X129711328Y-63313636D02*
X129711328Y-64142926D01*
X129838327Y-61364209D02*
X129838327Y-63186637D01*
X130478016Y-66076316D02*
X130478016Y-66329728D01*
X129711328Y-64142926D02*
X129908344Y-64339941D01*
X129511550Y-61037432D02*
X129838327Y-61364209D01*
X129511550Y-59026548D02*
X129511550Y-61037432D01*
X129159002Y-58674000D02*
X129511550Y-59026548D01*
X129838327Y-63186637D02*
X129711328Y-63313636D01*
%TO.N,ADC1_P*%
X132155100Y-74040000D02*
X132156188Y-74038912D01*
X132156188Y-71843482D02*
X131643926Y-71331220D01*
X132156188Y-74038912D02*
X132156188Y-71843482D01*
X131643926Y-71331220D02*
X131643926Y-70414800D01*
%TO.N,ADC1_N*%
X132148009Y-71399878D02*
X132148009Y-70734493D01*
X133184900Y-72436769D02*
X132148009Y-71399878D01*
X133184900Y-74010200D02*
X133184900Y-72436769D01*
X133155100Y-74040000D02*
X133184900Y-74010200D01*
%TO.N,D13-SCK*%
X122809000Y-60004000D02*
X125353428Y-60004000D01*
X125353428Y-60004000D02*
X125425617Y-59931811D01*
X126492069Y-65416499D02*
X126492069Y-66456209D01*
X126385725Y-62519681D02*
X126276070Y-62629336D01*
X125425617Y-59931811D02*
X125757886Y-59931811D01*
X125757886Y-59931811D02*
X126385725Y-60559650D01*
X126276070Y-62629336D02*
X126276070Y-65200500D01*
X126276070Y-65200500D02*
X126492069Y-65416499D01*
X126492069Y-66456209D02*
X125818934Y-67129344D01*
X126693054Y-72110633D02*
X127165791Y-72110633D01*
X125818934Y-67129344D02*
X125818934Y-71236513D01*
X125818934Y-71236513D02*
X126693054Y-72110633D01*
X126385725Y-60559650D02*
X126385725Y-62519681D01*
X127165791Y-72110633D02*
X127339300Y-72284142D01*
%TO.N,/PTA3*%
X138679400Y-64312800D02*
X138679400Y-62285400D01*
X139039600Y-61925200D02*
X139674600Y-61925200D01*
X138679400Y-62285400D02*
X139039600Y-61925200D01*
%TO.N,/PTA1*%
X141279400Y-64312800D02*
X141401800Y-64312800D01*
X141401800Y-64312800D02*
X141503400Y-64211200D01*
X141503400Y-64211200D02*
X142367000Y-64211200D01*
%TO.N,D01-TX1*%
X131904630Y-61886460D02*
X132086303Y-62068133D01*
X137185378Y-69762878D02*
X137185378Y-70419678D01*
X135972529Y-67770131D02*
X135972529Y-68550029D01*
X132086303Y-62068133D02*
X132086303Y-63587861D01*
X137909267Y-72506439D02*
X137808847Y-72606859D01*
X132556328Y-64057885D02*
X132556328Y-65534240D01*
X132086303Y-63587861D02*
X132556328Y-64057885D01*
X135360009Y-67157611D02*
X135972529Y-67770131D01*
X137909267Y-71143567D02*
X137909267Y-72506439D01*
X134179699Y-67157611D02*
X135360009Y-67157611D01*
X132556328Y-65534240D02*
X134179699Y-67157611D01*
X131904630Y-60167152D02*
X131904630Y-61886460D01*
X135972529Y-68550029D02*
X137185378Y-69762878D01*
X137185378Y-70419678D02*
X137909267Y-71143567D01*
%TO.N,D00-RX1*%
X131479170Y-59656786D02*
X131479170Y-60430438D01*
X130611191Y-58788807D02*
X131479170Y-59656786D01*
X131479170Y-60430438D02*
X131038655Y-60870953D01*
X133969271Y-67665633D02*
X135149581Y-67665633D01*
X136677356Y-70186145D02*
X136677356Y-70630106D01*
X130611191Y-58666684D02*
X130611191Y-58788807D01*
X135464507Y-68973296D02*
X136677356Y-70186145D01*
X137376906Y-71814072D02*
X137141957Y-72049021D01*
X135149581Y-67665633D02*
X135464507Y-67980559D01*
X131038655Y-62251826D02*
X131578281Y-62791452D01*
X131578281Y-63798289D02*
X132048306Y-64268313D01*
X136677356Y-70630106D02*
X137376906Y-71329656D01*
X131578281Y-62791452D02*
X131578281Y-63798289D01*
X135464507Y-67980559D02*
X135464507Y-68973296D01*
X132048306Y-64268313D02*
X132048306Y-65744668D01*
X132048306Y-65744668D02*
X133969271Y-67665633D01*
X131038655Y-60870953D02*
X131038655Y-62251826D01*
X137376906Y-71329656D02*
X137376906Y-71814072D01*
%TO.N,D10-TX2*%
X130092338Y-60879517D02*
X129937010Y-60724189D01*
X130092338Y-63291851D02*
X130092338Y-60879517D01*
X129965339Y-63418850D02*
X130092338Y-63291851D01*
X129965339Y-64037712D02*
X129965339Y-63418850D01*
X130500776Y-64573149D02*
X129965339Y-64037712D01*
X130557017Y-64573149D02*
X130500776Y-64573149D01*
X130778251Y-64794383D02*
X130557017Y-64573149D01*
X134522638Y-70015125D02*
X130778251Y-66270738D01*
X136155100Y-72897490D02*
X134522638Y-71265028D01*
X130778251Y-66270738D02*
X130778251Y-64794383D01*
X134522638Y-71265028D02*
X134522638Y-70015125D01*
X136155100Y-74040000D02*
X136155100Y-72897490D01*
%TO.N,D09-RX2*%
X131070259Y-63001902D02*
X130530633Y-62462276D01*
X135369909Y-70521713D02*
X135369909Y-69784721D01*
X136193735Y-72335860D02*
X136193735Y-71345538D01*
X130530633Y-60418057D02*
X130797499Y-60151191D01*
X130530633Y-62462276D02*
X130530633Y-60418057D01*
X131070259Y-64008716D02*
X131070259Y-63001902D01*
X131540284Y-64478741D02*
X131070259Y-64008716D01*
X131540284Y-65955096D02*
X131540284Y-64478741D01*
X135369909Y-69784721D02*
X131540284Y-65955096D01*
X136193735Y-71345538D02*
X135369909Y-70521713D01*
X136655100Y-72797225D02*
X136193735Y-72335860D01*
X136655100Y-74040000D02*
X136655100Y-72797225D01*
%TO.N,D12-MISO*%
X125310912Y-71717385D02*
X126084571Y-72491044D01*
X125984047Y-66245781D02*
X125310912Y-66918916D01*
X125984047Y-65626927D02*
X125984047Y-66245781D01*
X125768048Y-65410928D02*
X125984047Y-65626927D01*
X125310912Y-66918916D02*
X125310912Y-71717385D01*
X125768048Y-62418908D02*
X125768048Y-65410928D01*
X125877703Y-62309253D02*
X125768048Y-62418908D01*
X125877703Y-61552225D02*
X125877703Y-62309253D01*
X125450589Y-61125111D02*
X125877703Y-61552225D01*
%TO.N,D11-MOSI*%
X126918286Y-72708366D02*
X125564923Y-71355003D01*
X125564923Y-71355003D02*
X125564923Y-67024130D01*
X125564923Y-67024130D02*
X126238058Y-66350996D01*
X126238058Y-66350996D02*
X126238058Y-65521712D01*
X126131714Y-62414467D02*
X126131714Y-60877045D01*
X126022059Y-65305713D02*
X126022059Y-62524122D01*
X126131714Y-60877045D02*
X125782869Y-60528200D01*
X126022059Y-62524122D02*
X126131714Y-62414467D01*
X126238058Y-65521712D02*
X126022059Y-65305713D01*
X125782869Y-60528200D02*
X125450600Y-60528200D01*
%TO.N,D15-CS*%
X126746080Y-65311284D02*
X126746080Y-66561431D01*
X127513474Y-71856622D02*
X127886027Y-72229175D01*
X126072945Y-71131299D02*
X126798268Y-71856622D01*
X126798268Y-71856622D02*
X127513474Y-71856622D01*
X126072945Y-67234565D02*
X126072945Y-71131299D01*
X126746080Y-66561431D02*
X126072945Y-67234565D01*
X126530081Y-65095285D02*
X126746080Y-65311284D01*
X126530081Y-62734550D02*
X126530081Y-65095285D01*
X126639736Y-62624895D02*
X126530081Y-62734550D01*
X126639736Y-60268649D02*
X126639736Y-62624895D01*
X127690896Y-59217489D02*
X126639736Y-60268649D01*
X127886027Y-72229175D02*
X127886027Y-72705838D01*
%TO.N,D17_A3*%
X137155100Y-72938000D02*
X136447746Y-72230646D01*
X136447746Y-72230646D02*
X136447746Y-71118946D01*
X136447746Y-71118946D02*
X136042400Y-70713600D01*
X137155100Y-74040000D02*
X137155100Y-72938000D01*
X136017000Y-70688200D02*
X135836644Y-70507844D01*
X135836644Y-70507844D02*
X135836644Y-70386756D01*
X132867378Y-59204222D02*
X132867378Y-60552524D01*
X136734562Y-68234387D02*
X138248452Y-69748277D01*
X132867378Y-60552524D02*
X132740422Y-60679480D01*
X133318361Y-65218598D02*
X134495363Y-66395600D01*
X135675673Y-66395600D02*
X136734562Y-67454489D01*
X132308600Y-58645444D02*
X132867378Y-59204222D01*
X134495363Y-66395600D02*
X135675673Y-66395600D01*
X132848336Y-63272218D02*
X133318361Y-63742243D01*
X136734562Y-67454489D02*
X136734562Y-68234387D01*
X132848336Y-61752491D02*
X132848336Y-63272218D01*
X132740422Y-60679480D02*
X132740422Y-61644577D01*
X138248452Y-69748277D02*
X138248452Y-70162609D01*
X133318361Y-63742243D02*
X133318361Y-65218598D01*
X132740422Y-61644577D02*
X132848336Y-61752491D01*
%TO.N,D19-SCL0*%
X132340314Y-63482646D02*
X132340314Y-61962919D01*
X138155100Y-74040000D02*
X138241468Y-73953632D01*
X134284913Y-66903600D02*
X132810339Y-65429026D01*
X137439389Y-70314464D02*
X137439389Y-69657664D01*
X132232400Y-60469052D02*
X132330082Y-60371370D01*
X138241468Y-72583381D02*
X138233115Y-72575028D01*
X138233115Y-72575028D02*
X138233115Y-71108190D01*
X135465223Y-66903600D02*
X134284913Y-66903600D01*
X138233115Y-71108190D02*
X137439389Y-70314464D01*
X137439389Y-69657664D02*
X136226540Y-68444815D01*
X136226540Y-67664917D02*
X135465223Y-66903600D01*
X132340314Y-61962919D02*
X132232400Y-61855005D01*
X132108848Y-59741700D02*
X131925834Y-59741700D01*
X132810339Y-65429026D02*
X132810339Y-63952671D01*
X131591060Y-59406926D02*
X131591060Y-58674000D01*
X132330082Y-60371370D02*
X132330082Y-59962934D01*
X132232400Y-61855005D02*
X132232400Y-60469052D01*
X132810339Y-63952671D02*
X132340314Y-63482646D01*
X138241468Y-73953632D02*
X138241468Y-72583381D01*
X136226540Y-68444815D02*
X136226540Y-67664917D01*
X131925834Y-59741700D02*
X131591060Y-59406926D01*
X132330082Y-59962934D02*
X132108848Y-59741700D01*
%TO.N,D18-SDA0*%
X132584093Y-59759274D02*
X132142382Y-59317563D01*
X137769600Y-70180200D02*
X137769600Y-69628649D01*
X134390138Y-66649600D02*
X133064350Y-65323812D01*
X136480551Y-68339601D02*
X136480551Y-67559703D01*
X137769600Y-69628649D02*
X136480551Y-68339601D01*
X132486411Y-61749791D02*
X132486411Y-60574266D01*
X136480551Y-67559703D02*
X135570448Y-66649600D01*
X135570448Y-66649600D02*
X134390138Y-66649600D01*
X133064350Y-65323812D02*
X133064350Y-63847457D01*
X132594325Y-63377432D02*
X132594325Y-61857705D01*
X132486411Y-60574266D02*
X132584093Y-60476584D01*
X132584093Y-60476584D02*
X132584093Y-59759274D01*
X133064350Y-63847457D02*
X132594325Y-63377432D01*
X132594325Y-61857705D02*
X132486411Y-61749791D01*
X137769599Y-70285449D02*
X137769599Y-70180200D01*
X138487126Y-71002976D02*
X137769599Y-70285449D01*
X138655100Y-74040000D02*
X138655100Y-72685850D01*
X138655100Y-72685850D02*
X138487126Y-72517876D01*
X138487126Y-72517876D02*
X138487126Y-71002976D01*
%TO.N,D16_A2*%
X136988573Y-68129173D02*
X136988573Y-67349275D01*
X134600588Y-66141600D02*
X133572372Y-65113384D01*
X133572372Y-63637029D02*
X133102349Y-63167006D01*
X132994433Y-60784694D02*
X133225544Y-60553583D01*
X132994433Y-61539363D02*
X132994433Y-60784694D01*
X133225544Y-60553583D02*
X133225544Y-58882648D01*
X136988573Y-67349275D02*
X135780898Y-66141600D01*
X133225544Y-58882648D02*
X132990595Y-58647699D01*
X138798300Y-72469825D02*
X138798300Y-69938900D01*
X138798300Y-69938900D02*
X136988573Y-68129173D01*
X139155100Y-72826624D02*
X138798300Y-72469825D01*
X139155100Y-74040000D02*
X139155100Y-72826624D01*
X133572372Y-65113384D02*
X133572372Y-63637029D01*
X133102349Y-63167006D02*
X133102349Y-61647279D01*
X133102349Y-61647279D02*
X132994433Y-61539363D01*
X135780898Y-66141600D02*
X134600588Y-66141600D01*
%TO.N,D22-A8*%
X127469703Y-63776426D02*
X128222260Y-63023869D01*
X129048293Y-68287868D02*
X127614892Y-68287868D01*
X127614892Y-68287868D02*
X127393659Y-68066635D01*
X129948420Y-69187995D02*
X129048293Y-68287868D01*
X127393659Y-68066635D02*
X127393659Y-67350744D01*
X130117787Y-72339194D02*
X129948420Y-72169827D01*
X127393659Y-67350744D02*
X128105012Y-66639391D01*
X128105012Y-65365982D02*
X127469703Y-64730673D01*
X128105012Y-66639391D02*
X128105012Y-65365982D01*
X127469703Y-64730673D02*
X127469703Y-63776426D01*
X128222260Y-63023869D02*
X128222260Y-58686918D01*
X128222260Y-58686918D02*
X128229206Y-58679972D01*
X129948420Y-72169827D02*
X129948420Y-69187995D01*
%TO.N,D27_A16*%
X125056901Y-72174178D02*
X124942679Y-72288400D01*
X125730036Y-65732140D02*
X125730036Y-66140553D01*
X125450600Y-65452706D02*
X125730036Y-65732140D01*
X125450600Y-61976022D02*
X125450600Y-65452706D01*
X125056901Y-66813688D02*
X125056901Y-72174178D01*
X125730036Y-66140553D02*
X125056901Y-66813688D01*
%TO.N,D28_A17*%
X139655100Y-74040000D02*
X139655100Y-73284900D01*
X136112725Y-61030325D02*
X133419893Y-61030325D01*
X137007600Y-61925200D02*
X136112725Y-61030325D01*
X139655100Y-74040000D02*
X139655100Y-72967400D01*
X139052311Y-69811911D02*
X137261600Y-68021200D01*
X139655100Y-72967400D02*
X139052311Y-72364611D01*
X139052311Y-72364611D02*
X139052311Y-69811911D01*
X137261600Y-68021200D02*
X137261600Y-65275925D01*
X137261600Y-65275925D02*
X137007600Y-65021925D01*
X137007600Y-65021925D02*
X137007600Y-61925200D01*
%TO.N,D03-CAN-TX*%
X130964464Y-68669901D02*
X130964464Y-71503063D01*
X131476721Y-72015320D02*
X131476721Y-72411038D01*
X129108200Y-62420500D02*
X128612866Y-62915834D01*
X128949295Y-64458568D02*
X129128647Y-64637920D01*
X130964464Y-71503063D02*
X131476721Y-72015320D01*
X128612866Y-63262194D02*
X128949295Y-63598623D01*
X128612866Y-62915834D02*
X128612866Y-63262194D01*
X129128647Y-64637920D02*
X129128647Y-66834084D01*
X129108200Y-61829983D02*
X129108200Y-62420500D01*
X128949295Y-63598623D02*
X128949295Y-64458568D01*
X129128647Y-66834084D02*
X130964464Y-68669901D01*
%TO.N,D04-CAN-TX*%
X129654333Y-65705929D02*
X130224005Y-66275601D01*
X133667488Y-71401829D02*
X134034969Y-71769310D01*
X129457317Y-63208422D02*
X129457317Y-64248140D01*
X134034969Y-71769310D02*
X134425227Y-71769310D01*
X129086099Y-60971206D02*
X129584316Y-61469423D01*
X130224005Y-66434942D02*
X133667488Y-69878425D01*
X129584316Y-63081423D02*
X129457317Y-63208422D01*
X129457317Y-64248140D02*
X129654333Y-64445156D01*
X129654333Y-64445156D02*
X129654333Y-65705929D01*
X129584316Y-61469423D02*
X129584316Y-63081423D01*
X130224005Y-66275601D02*
X130224005Y-66434942D01*
X133667488Y-69878425D02*
X133667488Y-71401829D01*
%TO.N,D29-SCL1*%
X127626594Y-71602611D02*
X126903482Y-71602611D01*
X127180097Y-62456075D02*
X127312834Y-62456075D01*
X126784092Y-62852080D02*
X127180097Y-62456075D01*
X126784092Y-64990071D02*
X126784092Y-62852080D01*
X127000091Y-66666645D02*
X127000091Y-65206070D01*
X126326956Y-67339779D02*
X127000091Y-66666645D01*
X126903482Y-71602611D02*
X126326956Y-71026085D01*
X128320374Y-72296391D02*
X127626594Y-71602611D01*
X127000091Y-65206070D02*
X126784092Y-64990071D01*
X126326956Y-71026085D02*
X126326956Y-67339779D01*
%TO.N,D30-SDA1*%
X126580967Y-70920871D02*
X126580967Y-67444993D01*
X127008696Y-71348600D02*
X126580967Y-70920871D01*
X127209544Y-65056298D02*
X127209544Y-63043982D01*
X127254102Y-66771858D02*
X127254102Y-65100856D01*
X127254102Y-65100856D02*
X127209544Y-65056298D01*
X127974276Y-71348600D02*
X127008696Y-71348600D01*
X128799040Y-72173364D02*
X127974276Y-71348600D01*
X128799040Y-72703050D02*
X128799040Y-72173364D01*
X126580967Y-67444993D02*
X127254102Y-66771858D01*
%TO.N,D24-I2C-INT*%
X137630917Y-71224442D02*
X136931367Y-70524892D01*
X137313085Y-72479586D02*
X137630917Y-72161754D01*
X136931367Y-69868092D02*
X135718518Y-68655243D01*
X131832292Y-62443770D02*
X131567093Y-62178571D01*
X136931367Y-70524892D02*
X136931367Y-69868092D01*
X137655100Y-74040000D02*
X137655100Y-73078776D01*
X135718518Y-68655243D02*
X135718518Y-67875345D01*
X137655100Y-73078776D02*
X137313085Y-72736761D01*
X137630917Y-72161754D02*
X137630917Y-71224442D01*
X135718518Y-67875345D02*
X135254795Y-67411622D01*
X135254795Y-67411622D02*
X134074485Y-67411622D01*
X134074485Y-67411622D02*
X132302317Y-65639454D01*
X132302317Y-65639454D02*
X132302317Y-64163100D01*
X132302317Y-64163100D02*
X131832292Y-63693075D01*
X131832292Y-63693075D02*
X131832292Y-62443770D01*
X137313085Y-72736761D02*
X137313085Y-72479586D01*
%TO.N,D26_A15-BAT_VIN3*%
X129273289Y-72240157D02*
X129273289Y-72325915D01*
X129273289Y-72325915D02*
X129266875Y-72332329D01*
X129266875Y-72332329D02*
X129266875Y-72000060D01*
X129266875Y-72000060D02*
X128342366Y-71075551D01*
X128342366Y-71075551D02*
X127361951Y-71075551D01*
X127361951Y-71075551D02*
X127095821Y-70809421D01*
%TO.N,D23*%
X123698000Y-56515000D02*
X127635000Y-56515000D01*
X122809000Y-57404000D02*
X123698000Y-56515000D01*
%TO.N,Net-(U1-Pad20)*%
X136182400Y-63271400D02*
X136182400Y-64825666D01*
X136182400Y-64825666D02*
X136799840Y-65443106D01*
%TO.N,Net-(U1-Pad19)*%
X134632400Y-64432193D02*
X134251842Y-64812751D01*
X134632400Y-63271400D02*
X134632400Y-64432193D01*
%TO.N,Net-(D2-Pad3)*%
X123164600Y-68935600D02*
X122637600Y-68408600D01*
X122637600Y-68408600D02*
X122637600Y-67841656D01*
X122637600Y-67841656D02*
X123164600Y-67314656D01*
X123164600Y-67314656D02*
X123164600Y-66370200D01*
X123164600Y-66370200D02*
X123598442Y-65936358D01*
X123598442Y-65936358D02*
X125304584Y-65936358D01*
%TO.N,RTC3V*%
X123977400Y-67362400D02*
X124099400Y-67240400D01*
X123655100Y-74040000D02*
X123655100Y-72938000D01*
X123655100Y-72938000D02*
X123977400Y-72615700D01*
X123977400Y-72615700D02*
X123977400Y-67362400D01*
%TD*%
D21*
%TO.N,+3V3*%
X133401837Y-54216127D02*
X133404710Y-54227697D01*
X133506310Y-54532497D01*
X133508561Y-54538417D01*
X133660961Y-54894017D01*
X133670040Y-54909720D01*
X133820080Y-55109773D01*
X133970459Y-55360405D01*
X133981918Y-55375082D01*
X134489918Y-55883082D01*
X134501532Y-55892602D01*
X134653932Y-55994202D01*
X134662122Y-55998955D01*
X134865322Y-56100555D01*
X134871100Y-56103150D01*
X135125100Y-56204750D01*
X135133350Y-56207515D01*
X135692150Y-56359915D01*
X135712200Y-56362600D01*
X136372600Y-56362600D01*
X136382051Y-56362012D01*
X136788451Y-56311212D01*
X136803097Y-56307890D01*
X137107897Y-56206290D01*
X137114748Y-56203632D01*
X137571948Y-56000432D01*
X137583268Y-55994202D01*
X138040468Y-55689402D01*
X138056055Y-55675590D01*
X138360855Y-55319990D01*
X138366402Y-55312668D01*
X138671202Y-54855468D01*
X138679148Y-54839956D01*
X138831548Y-54433556D01*
X138832490Y-54430897D01*
X138934090Y-54126097D01*
X138937412Y-54111451D01*
X138961004Y-53922717D01*
X142138345Y-53922717D01*
X142290802Y-53941429D01*
X142426486Y-53986032D01*
X142550915Y-54056138D01*
X142659361Y-54149078D01*
X142747692Y-54261315D01*
X142812537Y-54388564D01*
X142852270Y-54528951D01*
X142864100Y-54645417D01*
X142864101Y-71012205D01*
X142854878Y-71085132D01*
X142834907Y-71145142D01*
X142803659Y-71200131D01*
X142762325Y-71248003D01*
X142712482Y-71286934D01*
X142656025Y-71315444D01*
X142591625Y-71333415D01*
X142526681Y-71340012D01*
X142525000Y-71340351D01*
X142523288Y-71340377D01*
X142519239Y-71340865D01*
X142461369Y-71348247D01*
X142441327Y-71352826D01*
X142421040Y-71356309D01*
X142417115Y-71357416D01*
X142321382Y-71385126D01*
X142296811Y-71394926D01*
X142272064Y-71404397D01*
X142268429Y-71406245D01*
X142179902Y-71452022D01*
X142157697Y-71466411D01*
X142135267Y-71480505D01*
X142132060Y-71483024D01*
X142054110Y-71545125D01*
X142035128Y-71563548D01*
X142015858Y-71581734D01*
X142013207Y-71584823D01*
X142013201Y-71584829D01*
X142013197Y-71584835D01*
X141948799Y-71660886D01*
X141933758Y-71682644D01*
X141918387Y-71704227D01*
X141916381Y-71707778D01*
X141867977Y-71794897D01*
X141857444Y-71819173D01*
X141846561Y-71843323D01*
X141845284Y-71847196D01*
X141814724Y-71942058D01*
X141809111Y-71967897D01*
X141803123Y-71993718D01*
X141802622Y-71997765D01*
X141794096Y-72070821D01*
X141793327Y-72073356D01*
X141789100Y-72116272D01*
X141789100Y-73060819D01*
X141780685Y-72975373D01*
X141754541Y-72889191D01*
X141712087Y-72809764D01*
X141654953Y-72740147D01*
X141585336Y-72683013D01*
X141505909Y-72640559D01*
X141419727Y-72614415D01*
X141330100Y-72605588D01*
X141320200Y-72607800D01*
X141205900Y-72722100D01*
X141205900Y-73989200D01*
X141673000Y-73989200D01*
X141787300Y-73874900D01*
X141789100Y-73215735D01*
X141789101Y-74864436D01*
X141787300Y-74205100D01*
X141673000Y-74090800D01*
X141205900Y-74090800D01*
X141205900Y-74110800D01*
X141104300Y-74110800D01*
X141104300Y-74090800D01*
X141084300Y-74090800D01*
X141084300Y-73989200D01*
X141104300Y-73989200D01*
X141104300Y-72722100D01*
X140990000Y-72607800D01*
X140980100Y-72605588D01*
X140890473Y-72614415D01*
X140804291Y-72640559D01*
X140724864Y-72683013D01*
X140655247Y-72740147D01*
X140598113Y-72809764D01*
X140584467Y-72835294D01*
X140480100Y-72835294D01*
X140447200Y-72838535D01*
X140447200Y-71218614D01*
X141008100Y-71218614D01*
X141008100Y-71326186D01*
X141029087Y-71431691D01*
X141070253Y-71531075D01*
X141130017Y-71620518D01*
X141206082Y-71696583D01*
X141295525Y-71756347D01*
X141394909Y-71797513D01*
X141500414Y-71818500D01*
X141607986Y-71818500D01*
X141713491Y-71797513D01*
X141812875Y-71756347D01*
X141902318Y-71696583D01*
X141978383Y-71620518D01*
X142038147Y-71531075D01*
X142079313Y-71431691D01*
X142100300Y-71326186D01*
X142100300Y-71218614D01*
X142079313Y-71113109D01*
X142038147Y-71013725D01*
X141978383Y-70924282D01*
X141902318Y-70848217D01*
X141812875Y-70788453D01*
X141713491Y-70747287D01*
X141607986Y-70726300D01*
X141500414Y-70726300D01*
X141394909Y-70747287D01*
X141295525Y-70788453D01*
X141206082Y-70848217D01*
X141130017Y-70924282D01*
X141070253Y-71013725D01*
X141029087Y-71113109D01*
X141008100Y-71218614D01*
X140447200Y-71218614D01*
X140447200Y-70948447D01*
X140886999Y-70508648D01*
X140898145Y-70499501D01*
X140934647Y-70455023D01*
X140961771Y-70404279D01*
X140978473Y-70349218D01*
X140982700Y-70306302D01*
X140982700Y-70306293D01*
X140984112Y-70291957D01*
X140982700Y-70277621D01*
X140982700Y-66840096D01*
X141344268Y-66840096D01*
X141346537Y-66843492D01*
X141411104Y-66908059D01*
X141487027Y-66958789D01*
X141571387Y-66993732D01*
X141660944Y-67011546D01*
X141752256Y-67011546D01*
X141841813Y-66993732D01*
X141926173Y-66958789D01*
X142002096Y-66908059D01*
X142066663Y-66843492D01*
X142117393Y-66767569D01*
X142152336Y-66683209D01*
X142170150Y-66593652D01*
X142170150Y-66502340D01*
X142152336Y-66412783D01*
X142117393Y-66328423D01*
X142066663Y-66252500D01*
X142002096Y-66187933D01*
X141926173Y-66137203D01*
X141841813Y-66102260D01*
X141752256Y-66084446D01*
X141660944Y-66084446D01*
X141571387Y-66102260D01*
X141487027Y-66137203D01*
X141411104Y-66187933D01*
X141346537Y-66252500D01*
X141344268Y-66255896D01*
X140704946Y-66255896D01*
X140690600Y-66254483D01*
X140676254Y-66255896D01*
X139013887Y-66255896D01*
X138264900Y-65506910D01*
X138264900Y-65211354D01*
X138316084Y-65245554D01*
X138355798Y-65266782D01*
X138446354Y-65304291D01*
X138489445Y-65317362D01*
X138585578Y-65336484D01*
X138630391Y-65340898D01*
X138654953Y-65340898D01*
X138679400Y-65343306D01*
X139229400Y-65343306D01*
X139274213Y-65338892D01*
X139317305Y-65325821D01*
X139354400Y-65305993D01*
X139391495Y-65325821D01*
X139434587Y-65338892D01*
X139479400Y-65343306D01*
X140479400Y-65343306D01*
X140524213Y-65338892D01*
X140567305Y-65325821D01*
X140604400Y-65305993D01*
X140641495Y-65325821D01*
X140684587Y-65338892D01*
X140729400Y-65343306D01*
X141279400Y-65343306D01*
X141303847Y-65340898D01*
X141328409Y-65340898D01*
X141373222Y-65336484D01*
X141469355Y-65317362D01*
X141512446Y-65304291D01*
X141603002Y-65266782D01*
X141642716Y-65245554D01*
X141724215Y-65191098D01*
X141759024Y-65162532D01*
X141828332Y-65093224D01*
X141856898Y-65058415D01*
X141911354Y-64976916D01*
X141932582Y-64937202D01*
X141970091Y-64846646D01*
X141983162Y-64803555D01*
X142002284Y-64707422D01*
X142006698Y-64662609D01*
X142006698Y-64638047D01*
X142009106Y-64613600D01*
X142009106Y-64508865D01*
X142071504Y-64571263D01*
X142147427Y-64621993D01*
X142231787Y-64656936D01*
X142321344Y-64674750D01*
X142412656Y-64674750D01*
X142502213Y-64656936D01*
X142586573Y-64621993D01*
X142662496Y-64571263D01*
X142727063Y-64506696D01*
X142777793Y-64430773D01*
X142812736Y-64346413D01*
X142830550Y-64256856D01*
X142830550Y-64165544D01*
X142812736Y-64075987D01*
X142777793Y-63991627D01*
X142727063Y-63915704D01*
X142662496Y-63851137D01*
X142586573Y-63800407D01*
X142502213Y-63765464D01*
X142412656Y-63747650D01*
X142321344Y-63747650D01*
X142231787Y-63765464D01*
X142147427Y-63800407D01*
X142071504Y-63851137D01*
X142006937Y-63915704D01*
X142004668Y-63919100D01*
X141981783Y-63919100D01*
X141970091Y-63880554D01*
X141932582Y-63789998D01*
X141911354Y-63750284D01*
X141856898Y-63668785D01*
X141828332Y-63633976D01*
X141759024Y-63564668D01*
X141724215Y-63536102D01*
X141642716Y-63481646D01*
X141603002Y-63460418D01*
X141512446Y-63422909D01*
X141469355Y-63409838D01*
X141373222Y-63390716D01*
X141328409Y-63386302D01*
X141303847Y-63386302D01*
X141279400Y-63383894D01*
X140729400Y-63383894D01*
X140684587Y-63388308D01*
X140641495Y-63401379D01*
X140604400Y-63421207D01*
X140567305Y-63401379D01*
X140524213Y-63388308D01*
X140479400Y-63383894D01*
X139479400Y-63383894D01*
X139434587Y-63388308D01*
X139391495Y-63401379D01*
X139354400Y-63421207D01*
X139317305Y-63401379D01*
X139274213Y-63388308D01*
X139229400Y-63383894D01*
X138971500Y-63383894D01*
X138971500Y-62406391D01*
X139160592Y-62217300D01*
X139312268Y-62217300D01*
X139314537Y-62220696D01*
X139379104Y-62285263D01*
X139455027Y-62335993D01*
X139539387Y-62370936D01*
X139628944Y-62388750D01*
X139720256Y-62388750D01*
X139809813Y-62370936D01*
X139894173Y-62335993D01*
X139970096Y-62285263D01*
X140034663Y-62220696D01*
X140085393Y-62144773D01*
X140120336Y-62060413D01*
X140138150Y-61970856D01*
X140138150Y-61879544D01*
X140120336Y-61789987D01*
X140085393Y-61705627D01*
X140034663Y-61629704D01*
X139970096Y-61565137D01*
X139894173Y-61514407D01*
X139809813Y-61479464D01*
X139720256Y-61461650D01*
X139628944Y-61461650D01*
X139539387Y-61479464D01*
X139455027Y-61514407D01*
X139379104Y-61565137D01*
X139314537Y-61629704D01*
X139312268Y-61633100D01*
X139053946Y-61633100D01*
X139039600Y-61631687D01*
X138982338Y-61637327D01*
X138927277Y-61654029D01*
X138876533Y-61681153D01*
X138859941Y-61694770D01*
X138832055Y-61717655D01*
X138822911Y-61728797D01*
X138482998Y-62068711D01*
X138471856Y-62077855D01*
X138462712Y-62088997D01*
X138462710Y-62088999D01*
X138435353Y-62122334D01*
X138408229Y-62173078D01*
X138391527Y-62228139D01*
X138385888Y-62285400D01*
X138387301Y-62299748D01*
X138387301Y-62527379D01*
X138383593Y-62518427D01*
X138332863Y-62442504D01*
X138268296Y-62377937D01*
X138263243Y-62374561D01*
X138260673Y-62348469D01*
X138243971Y-62293408D01*
X138216847Y-62242664D01*
X138189490Y-62209329D01*
X138189489Y-62209328D01*
X138180345Y-62198186D01*
X138169204Y-62189043D01*
X136450005Y-60469844D01*
X139082950Y-60469844D01*
X139082950Y-60561156D01*
X139100764Y-60650713D01*
X139135707Y-60735073D01*
X139186437Y-60810996D01*
X139251004Y-60875563D01*
X139326927Y-60926293D01*
X139411287Y-60961236D01*
X139500844Y-60979050D01*
X139592156Y-60979050D01*
X139681713Y-60961236D01*
X139766073Y-60926293D01*
X139841996Y-60875563D01*
X139906563Y-60810996D01*
X139957293Y-60735073D01*
X139992236Y-60650713D01*
X140010050Y-60561156D01*
X140010050Y-60469844D01*
X139992236Y-60380287D01*
X139957293Y-60295927D01*
X139906563Y-60220004D01*
X139841996Y-60155437D01*
X139766073Y-60104707D01*
X139681713Y-60069764D01*
X139592156Y-60051950D01*
X139500844Y-60051950D01*
X139411287Y-60069764D01*
X139326927Y-60104707D01*
X139251004Y-60155437D01*
X139186437Y-60220004D01*
X139135707Y-60295927D01*
X139100764Y-60380287D01*
X139082950Y-60469844D01*
X136450005Y-60469844D01*
X134457762Y-58477602D01*
X134448614Y-58466455D01*
X134404136Y-58429953D01*
X134353392Y-58402829D01*
X134298331Y-58386127D01*
X134255415Y-58381900D01*
X134255407Y-58381900D01*
X134241069Y-58380488D01*
X134226731Y-58381900D01*
X134144130Y-58381900D01*
X134141861Y-58378504D01*
X134077294Y-58313937D01*
X134001371Y-58263207D01*
X133917011Y-58228264D01*
X133827454Y-58210450D01*
X133736142Y-58210450D01*
X133646585Y-58228264D01*
X133562225Y-58263207D01*
X133486302Y-58313937D01*
X133421735Y-58378504D01*
X133394983Y-58418541D01*
X133350658Y-58352203D01*
X133286091Y-58287636D01*
X133210168Y-58236906D01*
X133125808Y-58201963D01*
X133036251Y-58184149D01*
X132944939Y-58184149D01*
X132855382Y-58201963D01*
X132771022Y-58236906D01*
X132695099Y-58287636D01*
X132650725Y-58332010D01*
X132604096Y-58285381D01*
X132528173Y-58234651D01*
X132443813Y-58199708D01*
X132354256Y-58181894D01*
X132262944Y-58181894D01*
X132173387Y-58199708D01*
X132089027Y-58234651D01*
X132013104Y-58285381D01*
X131948537Y-58349948D01*
X131938135Y-58365516D01*
X131886556Y-58313937D01*
X131810633Y-58263207D01*
X131726273Y-58228264D01*
X131636716Y-58210450D01*
X131545404Y-58210450D01*
X131455847Y-58228264D01*
X131371487Y-58263207D01*
X131295564Y-58313937D01*
X131230997Y-58378504D01*
X131180267Y-58454427D01*
X131145324Y-58538787D01*
X131127510Y-58628344D01*
X131127510Y-58719656D01*
X131145324Y-58809213D01*
X131180267Y-58893573D01*
X131230997Y-58969496D01*
X131295564Y-59034063D01*
X131298961Y-59036332D01*
X131298960Y-59063485D01*
X131051200Y-58815724D01*
X131056927Y-58801897D01*
X131074741Y-58712340D01*
X131074741Y-58621028D01*
X131056927Y-58531471D01*
X131021984Y-58447111D01*
X130971254Y-58371188D01*
X130906687Y-58306621D01*
X130830764Y-58255891D01*
X130746404Y-58220948D01*
X130656847Y-58203134D01*
X130565535Y-58203134D01*
X130475978Y-58220948D01*
X130391618Y-58255891D01*
X130315695Y-58306621D01*
X130251128Y-58371188D01*
X130200398Y-58447111D01*
X130165455Y-58531471D01*
X130147641Y-58621028D01*
X130147641Y-58712340D01*
X130165455Y-58801897D01*
X130200398Y-58886257D01*
X130251128Y-58962180D01*
X130315695Y-59026747D01*
X130391618Y-59077477D01*
X130475978Y-59112420D01*
X130533069Y-59123776D01*
X130807480Y-59398187D01*
X130740237Y-59398187D01*
X130737968Y-59394791D01*
X130673401Y-59330224D01*
X130597478Y-59279494D01*
X130513118Y-59244551D01*
X130423561Y-59226737D01*
X130332249Y-59226737D01*
X130242692Y-59244551D01*
X130158332Y-59279494D01*
X130082409Y-59330224D01*
X130017842Y-59394791D01*
X129967112Y-59470714D01*
X129932169Y-59555074D01*
X129914355Y-59644631D01*
X129914355Y-59735943D01*
X129932169Y-59825500D01*
X129967112Y-59909860D01*
X130017842Y-59985783D01*
X130082409Y-60050350D01*
X130158332Y-60101080D01*
X130242692Y-60136023D01*
X130332249Y-60153837D01*
X130333949Y-60153837D01*
X130333949Y-60196847D01*
X130334746Y-60200853D01*
X130334230Y-60201369D01*
X130323089Y-60210512D01*
X130313945Y-60221654D01*
X130313943Y-60221656D01*
X130286586Y-60254991D01*
X130259462Y-60305735D01*
X130242760Y-60360796D01*
X130241542Y-60373162D01*
X130232506Y-60364126D01*
X130156583Y-60313396D01*
X130072223Y-60278453D01*
X129982666Y-60260639D01*
X129891354Y-60260639D01*
X129803650Y-60278084D01*
X129803650Y-59040883D01*
X129805062Y-59026547D01*
X129803650Y-59012211D01*
X129803650Y-59012202D01*
X129799423Y-58969286D01*
X129782721Y-58914225D01*
X129755597Y-58863481D01*
X129719095Y-58819003D01*
X129707949Y-58809856D01*
X129621755Y-58723662D01*
X129622552Y-58719656D01*
X129622552Y-58628344D01*
X129604738Y-58538787D01*
X129569795Y-58454427D01*
X129519065Y-58378504D01*
X129454498Y-58313937D01*
X129378575Y-58263207D01*
X129294215Y-58228264D01*
X129204658Y-58210450D01*
X129113346Y-58210450D01*
X129023789Y-58228264D01*
X128939429Y-58263207D01*
X128863506Y-58313937D01*
X128798939Y-58378504D01*
X128748209Y-58454427D01*
X128713266Y-58538787D01*
X128695452Y-58628344D01*
X128695452Y-58719656D01*
X128713266Y-58809213D01*
X128748209Y-58893573D01*
X128798939Y-58969496D01*
X128863506Y-59034063D01*
X128939429Y-59084793D01*
X129023789Y-59119736D01*
X129113346Y-59137550D01*
X129204658Y-59137550D01*
X129208664Y-59136753D01*
X129219450Y-59147539D01*
X129219451Y-60525100D01*
X129131755Y-60507656D01*
X129040443Y-60507656D01*
X128950886Y-60525470D01*
X128866526Y-60560413D01*
X128790603Y-60611143D01*
X128726036Y-60675710D01*
X128675306Y-60751633D01*
X128640363Y-60835993D01*
X128622549Y-60925550D01*
X128622549Y-61016862D01*
X128640363Y-61106419D01*
X128675306Y-61190779D01*
X128726036Y-61266702D01*
X128790603Y-61331269D01*
X128866526Y-61381999D01*
X128922470Y-61405172D01*
X128888627Y-61419190D01*
X128812704Y-61469920D01*
X128748137Y-61534487D01*
X128697407Y-61610410D01*
X128662464Y-61694770D01*
X128648206Y-61766450D01*
X128605344Y-61766450D01*
X128515787Y-61784264D01*
X128514360Y-61784855D01*
X128514360Y-59046945D01*
X128524702Y-59040035D01*
X128589269Y-58975468D01*
X128639999Y-58899545D01*
X128674942Y-58815185D01*
X128692756Y-58725628D01*
X128692756Y-58634316D01*
X128674942Y-58544759D01*
X128639999Y-58460399D01*
X128589269Y-58384476D01*
X128524702Y-58319909D01*
X128448779Y-58269179D01*
X128364419Y-58234236D01*
X128274862Y-58216422D01*
X128183550Y-58216422D01*
X128093993Y-58234236D01*
X128009633Y-58269179D01*
X127933710Y-58319909D01*
X127869143Y-58384476D01*
X127818413Y-58460399D01*
X127783470Y-58544759D01*
X127765656Y-58634316D01*
X127765656Y-58725628D01*
X127775245Y-58773838D01*
X127770213Y-58771753D01*
X127680656Y-58753939D01*
X127589344Y-58753939D01*
X127499787Y-58771753D01*
X127415427Y-58806696D01*
X127339504Y-58857426D01*
X127274937Y-58921993D01*
X127224207Y-58997916D01*
X127189264Y-59082276D01*
X127171450Y-59171833D01*
X127171450Y-59263145D01*
X127181520Y-59313773D01*
X126443338Y-60051956D01*
X126432191Y-60061104D01*
X126395689Y-60105583D01*
X126377945Y-60138778D01*
X125974579Y-59735413D01*
X125965431Y-59724266D01*
X125920953Y-59687764D01*
X125870209Y-59660640D01*
X125815148Y-59643938D01*
X125789056Y-59641368D01*
X125785680Y-59636315D01*
X125721113Y-59571748D01*
X125645190Y-59521018D01*
X125560830Y-59486075D01*
X125471273Y-59468261D01*
X125379961Y-59468261D01*
X125290404Y-59486075D01*
X125206044Y-59521018D01*
X125130121Y-59571748D01*
X125065554Y-59636315D01*
X125015050Y-59711900D01*
X123788706Y-59711900D01*
X123788706Y-59454000D01*
X123784292Y-59409187D01*
X123771221Y-59366095D01*
X123751393Y-59329000D01*
X123771221Y-59291905D01*
X123784292Y-59248813D01*
X123788706Y-59204000D01*
X123788706Y-59118625D01*
X123791387Y-59119736D01*
X123880944Y-59137550D01*
X123972256Y-59137550D01*
X124061813Y-59119736D01*
X124146173Y-59084793D01*
X124222096Y-59034063D01*
X124286663Y-58969496D01*
X124337393Y-58893573D01*
X124372336Y-58809213D01*
X124390150Y-58719656D01*
X124390150Y-58628344D01*
X124372336Y-58538787D01*
X124337393Y-58454427D01*
X124286663Y-58378504D01*
X124222096Y-58313937D01*
X124146173Y-58263207D01*
X124061813Y-58228264D01*
X123972256Y-58210450D01*
X123880944Y-58210450D01*
X123791387Y-58228264D01*
X123788706Y-58229375D01*
X123788706Y-58204000D01*
X123784292Y-58159187D01*
X123771221Y-58116095D01*
X123751393Y-58079000D01*
X123771221Y-58041905D01*
X123784292Y-57998813D01*
X123788706Y-57954000D01*
X123788706Y-57404000D01*
X123786298Y-57379553D01*
X123786298Y-57354991D01*
X123781884Y-57310178D01*
X123762762Y-57214045D01*
X123749691Y-57170954D01*
X123712182Y-57080398D01*
X123690954Y-57040684D01*
X123648678Y-56977414D01*
X123818992Y-56807100D01*
X127272668Y-56807100D01*
X127274937Y-56810496D01*
X127339504Y-56875063D01*
X127415427Y-56925793D01*
X127499787Y-56960736D01*
X127589344Y-56978550D01*
X127680656Y-56978550D01*
X127770213Y-56960736D01*
X127854573Y-56925793D01*
X127930496Y-56875063D01*
X127995063Y-56810496D01*
X128045793Y-56734573D01*
X128080736Y-56650213D01*
X128098550Y-56560656D01*
X128098550Y-56469344D01*
X128080736Y-56379787D01*
X128045793Y-56295427D01*
X127995063Y-56219504D01*
X127930496Y-56154937D01*
X127854573Y-56104207D01*
X127770213Y-56069264D01*
X127680656Y-56051450D01*
X127589344Y-56051450D01*
X127499787Y-56069264D01*
X127415427Y-56104207D01*
X127339504Y-56154937D01*
X127274937Y-56219504D01*
X127272668Y-56222900D01*
X123712346Y-56222900D01*
X123698000Y-56221487D01*
X123683654Y-56222900D01*
X123640738Y-56227127D01*
X123585677Y-56243829D01*
X123534933Y-56270953D01*
X123490455Y-56307455D01*
X123481311Y-56318597D01*
X123121844Y-56678065D01*
X123108009Y-56676702D01*
X123083447Y-56676702D01*
X123059000Y-56674294D01*
X122559000Y-56674294D01*
X122534553Y-56676702D01*
X122509991Y-56676702D01*
X122465178Y-56681116D01*
X122369045Y-56700238D01*
X122325954Y-56713309D01*
X122235398Y-56750818D01*
X122195684Y-56772046D01*
X122114185Y-56826502D01*
X122079376Y-56855068D01*
X122010068Y-56924376D01*
X121981502Y-56959185D01*
X121927046Y-57040684D01*
X121905818Y-57080398D01*
X121868309Y-57170954D01*
X121855238Y-57214045D01*
X121836116Y-57310178D01*
X121831702Y-57354991D01*
X121831702Y-57379553D01*
X121829294Y-57404000D01*
X121829294Y-57954000D01*
X121833708Y-57998813D01*
X121846779Y-58041905D01*
X121866607Y-58079000D01*
X121846779Y-58116095D01*
X121833708Y-58159187D01*
X121829294Y-58204000D01*
X121829294Y-59204000D01*
X121833708Y-59248813D01*
X121846779Y-59291905D01*
X121866607Y-59329000D01*
X121846779Y-59366095D01*
X121833708Y-59409187D01*
X121829294Y-59454000D01*
X121829294Y-60004000D01*
X121831702Y-60028447D01*
X121831702Y-60053009D01*
X121836116Y-60097822D01*
X121855238Y-60193955D01*
X121868309Y-60237046D01*
X121905818Y-60327602D01*
X121927046Y-60367316D01*
X121981502Y-60448815D01*
X122010068Y-60483624D01*
X122079376Y-60552932D01*
X122114185Y-60581498D01*
X122195684Y-60635954D01*
X122235398Y-60657182D01*
X122325954Y-60694691D01*
X122369045Y-60707762D01*
X122465178Y-60726884D01*
X122509991Y-60731298D01*
X122534553Y-60731298D01*
X122559000Y-60733706D01*
X123059000Y-60733706D01*
X123083447Y-60731298D01*
X123108009Y-60731298D01*
X123152822Y-60726884D01*
X123248955Y-60707762D01*
X123292046Y-60694691D01*
X123382602Y-60657182D01*
X123422316Y-60635954D01*
X123503815Y-60581498D01*
X123538624Y-60552932D01*
X123607932Y-60483624D01*
X123636498Y-60448815D01*
X123690954Y-60367316D01*
X123712182Y-60327602D01*
X123725230Y-60296100D01*
X125048177Y-60296100D01*
X125039807Y-60308627D01*
X125004864Y-60392987D01*
X124987050Y-60482544D01*
X124987050Y-60573856D01*
X125004864Y-60663413D01*
X125039807Y-60747773D01*
X125090537Y-60823696D01*
X125093491Y-60826650D01*
X125090526Y-60829615D01*
X125039796Y-60905538D01*
X125004853Y-60989898D01*
X124987039Y-61079455D01*
X124987039Y-61170767D01*
X125004853Y-61260324D01*
X125039796Y-61344684D01*
X125090526Y-61420607D01*
X125155093Y-61485174D01*
X125231016Y-61535904D01*
X125266420Y-61550569D01*
X125231027Y-61565229D01*
X125155104Y-61615959D01*
X125090537Y-61680526D01*
X125039807Y-61756449D01*
X125004864Y-61840809D01*
X124987050Y-61930366D01*
X124987050Y-62021678D01*
X125004864Y-62111235D01*
X125039807Y-62195595D01*
X125090537Y-62271518D01*
X125155104Y-62336085D01*
X125158500Y-62338354D01*
X125158501Y-65438359D01*
X125157088Y-65452707D01*
X125161158Y-65494024D01*
X125085011Y-65525565D01*
X125009088Y-65576295D01*
X124944521Y-65640862D01*
X124942252Y-65644258D01*
X123612777Y-65644258D01*
X123598441Y-65642846D01*
X123584105Y-65644258D01*
X123584096Y-65644258D01*
X123541180Y-65648485D01*
X123486119Y-65665187D01*
X123435375Y-65692311D01*
X123390897Y-65728813D01*
X123381749Y-65739960D01*
X122968198Y-66153511D01*
X122957056Y-66162655D01*
X122949038Y-66172426D01*
X122939453Y-66160747D01*
X122869836Y-66103613D01*
X122790409Y-66061159D01*
X122704227Y-66035015D01*
X122614600Y-66026188D01*
X122379700Y-66028400D01*
X122265400Y-66142700D01*
X122265400Y-66884800D01*
X122285400Y-66884800D01*
X122285400Y-66986400D01*
X122265400Y-66986400D01*
X122265400Y-67728500D01*
X122347178Y-67810278D01*
X122344088Y-67841656D01*
X122345501Y-67856004D01*
X122345500Y-68394261D01*
X122344088Y-68408600D01*
X122345500Y-68422938D01*
X122345500Y-68422945D01*
X122349727Y-68465861D01*
X122366429Y-68520922D01*
X122393553Y-68571666D01*
X122430055Y-68616145D01*
X122441202Y-68625293D01*
X122534894Y-68718985D01*
X122534894Y-69385600D01*
X122539308Y-69430413D01*
X122552379Y-69473505D01*
X122573606Y-69513218D01*
X122602173Y-69548027D01*
X122636982Y-69576594D01*
X122676695Y-69597821D01*
X122719787Y-69610892D01*
X122764600Y-69615306D01*
X123564600Y-69615306D01*
X123609413Y-69610892D01*
X123652505Y-69597821D01*
X123685301Y-69580291D01*
X123685300Y-72494708D01*
X123527767Y-72652242D01*
X123505909Y-72640559D01*
X123419727Y-72614415D01*
X123330100Y-72605588D01*
X123320200Y-72607800D01*
X123205900Y-72722100D01*
X123205900Y-73989200D01*
X123225900Y-73989200D01*
X123225900Y-74090800D01*
X123205900Y-74090800D01*
X123205900Y-74110800D01*
X123104300Y-74110800D01*
X123104300Y-74090800D01*
X123084300Y-74090800D01*
X123084300Y-73989200D01*
X123104300Y-73989200D01*
X123104300Y-72722100D01*
X122990000Y-72607800D01*
X122980100Y-72605588D01*
X122890473Y-72614415D01*
X122804291Y-72640559D01*
X122724864Y-72683013D01*
X122655247Y-72740147D01*
X122598113Y-72809764D01*
X122555659Y-72889191D01*
X122529515Y-72975373D01*
X122523300Y-73038478D01*
X122523300Y-72116271D01*
X122522219Y-72105295D01*
X122518779Y-72059878D01*
X122515478Y-72041024D01*
X122513397Y-72021998D01*
X122512532Y-72018013D01*
X122490483Y-71919704D01*
X122482200Y-71894571D01*
X122474261Y-71869302D01*
X122472641Y-71865566D01*
X122472639Y-71865561D01*
X122472636Y-71865556D01*
X122431913Y-71773405D01*
X122418905Y-71750359D01*
X122406211Y-71727115D01*
X122403895Y-71723764D01*
X122403892Y-71723759D01*
X122403888Y-71723755D01*
X122346045Y-71641271D01*
X122328806Y-71621188D01*
X122311840Y-71600854D01*
X122308914Y-71598013D01*
X122236144Y-71528331D01*
X122215369Y-71512007D01*
X122194741Y-71495327D01*
X122191319Y-71493109D01*
X122106401Y-71438888D01*
X122082827Y-71426898D01*
X122059378Y-71414556D01*
X122055590Y-71413044D01*
X121961758Y-71376349D01*
X121936309Y-71369168D01*
X121910900Y-71361613D01*
X121906891Y-71360866D01*
X121807719Y-71343096D01*
X121802232Y-71342658D01*
X121796888Y-71341365D01*
X121792846Y-71340825D01*
X121701684Y-71329296D01*
X121641678Y-71309326D01*
X121586684Y-71278075D01*
X121538814Y-71236745D01*
X121499883Y-71186899D01*
X121471373Y-71130442D01*
X121464806Y-71106907D01*
X121521082Y-71163183D01*
X121610525Y-71222947D01*
X121709909Y-71264113D01*
X121815414Y-71285100D01*
X121922986Y-71285100D01*
X122028491Y-71264113D01*
X122127875Y-71222947D01*
X122217318Y-71163183D01*
X122293383Y-71087118D01*
X122353147Y-70997675D01*
X122394313Y-70898291D01*
X122415300Y-70792786D01*
X122415300Y-70685214D01*
X122394313Y-70579709D01*
X122353147Y-70480325D01*
X122293383Y-70390882D01*
X122217318Y-70314817D01*
X122127875Y-70255053D01*
X122028491Y-70213887D01*
X121922986Y-70192900D01*
X121815414Y-70192900D01*
X121709909Y-70213887D01*
X121610525Y-70255053D01*
X121521082Y-70314817D01*
X121448300Y-70387599D01*
X121448300Y-67659950D01*
X121489747Y-67710453D01*
X121559364Y-67767587D01*
X121638791Y-67810041D01*
X121724973Y-67836185D01*
X121814600Y-67845012D01*
X122049500Y-67842800D01*
X122163800Y-67728500D01*
X122163800Y-66986400D01*
X122143800Y-66986400D01*
X122143800Y-66884800D01*
X122163800Y-66884800D01*
X122163800Y-66142700D01*
X122049500Y-66028400D01*
X121814600Y-66026188D01*
X121724973Y-66035015D01*
X121638791Y-66061159D01*
X121559364Y-66103613D01*
X121489747Y-66160747D01*
X121448300Y-66211250D01*
X121448300Y-55419814D01*
X128663700Y-55419814D01*
X128663700Y-55527386D01*
X128684687Y-55632891D01*
X128725853Y-55732275D01*
X128785617Y-55821718D01*
X128861682Y-55897783D01*
X128951125Y-55957547D01*
X129050509Y-55998713D01*
X129156014Y-56019700D01*
X129263586Y-56019700D01*
X129369091Y-55998713D01*
X129468475Y-55957547D01*
X129557918Y-55897783D01*
X129633983Y-55821718D01*
X129693747Y-55732275D01*
X129734913Y-55632891D01*
X129755900Y-55527386D01*
X129755900Y-55419814D01*
X129734913Y-55314309D01*
X129693747Y-55214925D01*
X129633983Y-55125482D01*
X129557918Y-55049417D01*
X129468475Y-54989653D01*
X129369091Y-54948487D01*
X129263586Y-54927500D01*
X129156014Y-54927500D01*
X129050509Y-54948487D01*
X128951125Y-54989653D01*
X128861682Y-55049417D01*
X128785617Y-55125482D01*
X128725853Y-55214925D01*
X128684687Y-55314309D01*
X128663700Y-55419814D01*
X121448300Y-55419814D01*
X121448300Y-54648472D01*
X121467012Y-54496014D01*
X121511613Y-54360336D01*
X121581719Y-54235903D01*
X121674660Y-54127457D01*
X121786898Y-54039125D01*
X121914146Y-53974281D01*
X122054533Y-53934548D01*
X122171009Y-53922717D01*
X133352935Y-53922717D01*
X133401837Y-54216127D01*
%TA.AperFunction,Conductor*%
D22*
G36*
X133401837Y-54216127D02*
G01*
X133404710Y-54227697D01*
X133506310Y-54532497D01*
X133508561Y-54538417D01*
X133660961Y-54894017D01*
X133670040Y-54909720D01*
X133820080Y-55109773D01*
X133970459Y-55360405D01*
X133981918Y-55375082D01*
X134489918Y-55883082D01*
X134501532Y-55892602D01*
X134653932Y-55994202D01*
X134662122Y-55998955D01*
X134865322Y-56100555D01*
X134871100Y-56103150D01*
X135125100Y-56204750D01*
X135133350Y-56207515D01*
X135692150Y-56359915D01*
X135712200Y-56362600D01*
X136372600Y-56362600D01*
X136382051Y-56362012D01*
X136788451Y-56311212D01*
X136803097Y-56307890D01*
X137107897Y-56206290D01*
X137114748Y-56203632D01*
X137571948Y-56000432D01*
X137583268Y-55994202D01*
X138040468Y-55689402D01*
X138056055Y-55675590D01*
X138360855Y-55319990D01*
X138366402Y-55312668D01*
X138671202Y-54855468D01*
X138679148Y-54839956D01*
X138831548Y-54433556D01*
X138832490Y-54430897D01*
X138934090Y-54126097D01*
X138937412Y-54111451D01*
X138961004Y-53922717D01*
X142138345Y-53922717D01*
X142290802Y-53941429D01*
X142426486Y-53986032D01*
X142550915Y-54056138D01*
X142659361Y-54149078D01*
X142747692Y-54261315D01*
X142812537Y-54388564D01*
X142852270Y-54528951D01*
X142864100Y-54645417D01*
X142864101Y-71012205D01*
X142854878Y-71085132D01*
X142834907Y-71145142D01*
X142803659Y-71200131D01*
X142762325Y-71248003D01*
X142712482Y-71286934D01*
X142656025Y-71315444D01*
X142591625Y-71333415D01*
X142526681Y-71340012D01*
X142525000Y-71340351D01*
X142523288Y-71340377D01*
X142519239Y-71340865D01*
X142461369Y-71348247D01*
X142441327Y-71352826D01*
X142421040Y-71356309D01*
X142417115Y-71357416D01*
X142321382Y-71385126D01*
X142296811Y-71394926D01*
X142272064Y-71404397D01*
X142268429Y-71406245D01*
X142179902Y-71452022D01*
X142157697Y-71466411D01*
X142135267Y-71480505D01*
X142132060Y-71483024D01*
X142054110Y-71545125D01*
X142035128Y-71563548D01*
X142015858Y-71581734D01*
X142013207Y-71584823D01*
X142013201Y-71584829D01*
X142013197Y-71584835D01*
X141948799Y-71660886D01*
X141933758Y-71682644D01*
X141918387Y-71704227D01*
X141916381Y-71707778D01*
X141867977Y-71794897D01*
X141857444Y-71819173D01*
X141846561Y-71843323D01*
X141845284Y-71847196D01*
X141814724Y-71942058D01*
X141809111Y-71967897D01*
X141803123Y-71993718D01*
X141802622Y-71997765D01*
X141794096Y-72070821D01*
X141793327Y-72073356D01*
X141789100Y-72116272D01*
X141789100Y-73060819D01*
X141780685Y-72975373D01*
X141754541Y-72889191D01*
X141712087Y-72809764D01*
X141654953Y-72740147D01*
X141585336Y-72683013D01*
X141505909Y-72640559D01*
X141419727Y-72614415D01*
X141330100Y-72605588D01*
X141320200Y-72607800D01*
X141205900Y-72722100D01*
X141205900Y-73989200D01*
X141673000Y-73989200D01*
X141787300Y-73874900D01*
X141789100Y-73215735D01*
X141789101Y-74864436D01*
X141787300Y-74205100D01*
X141673000Y-74090800D01*
X141205900Y-74090800D01*
X141205900Y-74110800D01*
X141104300Y-74110800D01*
X141104300Y-74090800D01*
X141084300Y-74090800D01*
X141084300Y-73989200D01*
X141104300Y-73989200D01*
X141104300Y-72722100D01*
X140990000Y-72607800D01*
X140980100Y-72605588D01*
X140890473Y-72614415D01*
X140804291Y-72640559D01*
X140724864Y-72683013D01*
X140655247Y-72740147D01*
X140598113Y-72809764D01*
X140584467Y-72835294D01*
X140480100Y-72835294D01*
X140447200Y-72838535D01*
X140447200Y-71218614D01*
X141008100Y-71218614D01*
X141008100Y-71326186D01*
X141029087Y-71431691D01*
X141070253Y-71531075D01*
X141130017Y-71620518D01*
X141206082Y-71696583D01*
X141295525Y-71756347D01*
X141394909Y-71797513D01*
X141500414Y-71818500D01*
X141607986Y-71818500D01*
X141713491Y-71797513D01*
X141812875Y-71756347D01*
X141902318Y-71696583D01*
X141978383Y-71620518D01*
X142038147Y-71531075D01*
X142079313Y-71431691D01*
X142100300Y-71326186D01*
X142100300Y-71218614D01*
X142079313Y-71113109D01*
X142038147Y-71013725D01*
X141978383Y-70924282D01*
X141902318Y-70848217D01*
X141812875Y-70788453D01*
X141713491Y-70747287D01*
X141607986Y-70726300D01*
X141500414Y-70726300D01*
X141394909Y-70747287D01*
X141295525Y-70788453D01*
X141206082Y-70848217D01*
X141130017Y-70924282D01*
X141070253Y-71013725D01*
X141029087Y-71113109D01*
X141008100Y-71218614D01*
X140447200Y-71218614D01*
X140447200Y-70948447D01*
X140886999Y-70508648D01*
X140898145Y-70499501D01*
X140934647Y-70455023D01*
X140961771Y-70404279D01*
X140978473Y-70349218D01*
X140982700Y-70306302D01*
X140982700Y-70306293D01*
X140984112Y-70291957D01*
X140982700Y-70277621D01*
X140982700Y-66840096D01*
X141344268Y-66840096D01*
X141346537Y-66843492D01*
X141411104Y-66908059D01*
X141487027Y-66958789D01*
X141571387Y-66993732D01*
X141660944Y-67011546D01*
X141752256Y-67011546D01*
X141841813Y-66993732D01*
X141926173Y-66958789D01*
X142002096Y-66908059D01*
X142066663Y-66843492D01*
X142117393Y-66767569D01*
X142152336Y-66683209D01*
X142170150Y-66593652D01*
X142170150Y-66502340D01*
X142152336Y-66412783D01*
X142117393Y-66328423D01*
X142066663Y-66252500D01*
X142002096Y-66187933D01*
X141926173Y-66137203D01*
X141841813Y-66102260D01*
X141752256Y-66084446D01*
X141660944Y-66084446D01*
X141571387Y-66102260D01*
X141487027Y-66137203D01*
X141411104Y-66187933D01*
X141346537Y-66252500D01*
X141344268Y-66255896D01*
X140704946Y-66255896D01*
X140690600Y-66254483D01*
X140676254Y-66255896D01*
X139013887Y-66255896D01*
X138264900Y-65506910D01*
X138264900Y-65211354D01*
X138316084Y-65245554D01*
X138355798Y-65266782D01*
X138446354Y-65304291D01*
X138489445Y-65317362D01*
X138585578Y-65336484D01*
X138630391Y-65340898D01*
X138654953Y-65340898D01*
X138679400Y-65343306D01*
X139229400Y-65343306D01*
X139274213Y-65338892D01*
X139317305Y-65325821D01*
X139354400Y-65305993D01*
X139391495Y-65325821D01*
X139434587Y-65338892D01*
X139479400Y-65343306D01*
X140479400Y-65343306D01*
X140524213Y-65338892D01*
X140567305Y-65325821D01*
X140604400Y-65305993D01*
X140641495Y-65325821D01*
X140684587Y-65338892D01*
X140729400Y-65343306D01*
X141279400Y-65343306D01*
X141303847Y-65340898D01*
X141328409Y-65340898D01*
X141373222Y-65336484D01*
X141469355Y-65317362D01*
X141512446Y-65304291D01*
X141603002Y-65266782D01*
X141642716Y-65245554D01*
X141724215Y-65191098D01*
X141759024Y-65162532D01*
X141828332Y-65093224D01*
X141856898Y-65058415D01*
X141911354Y-64976916D01*
X141932582Y-64937202D01*
X141970091Y-64846646D01*
X141983162Y-64803555D01*
X142002284Y-64707422D01*
X142006698Y-64662609D01*
X142006698Y-64638047D01*
X142009106Y-64613600D01*
X142009106Y-64508865D01*
X142071504Y-64571263D01*
X142147427Y-64621993D01*
X142231787Y-64656936D01*
X142321344Y-64674750D01*
X142412656Y-64674750D01*
X142502213Y-64656936D01*
X142586573Y-64621993D01*
X142662496Y-64571263D01*
X142727063Y-64506696D01*
X142777793Y-64430773D01*
X142812736Y-64346413D01*
X142830550Y-64256856D01*
X142830550Y-64165544D01*
X142812736Y-64075987D01*
X142777793Y-63991627D01*
X142727063Y-63915704D01*
X142662496Y-63851137D01*
X142586573Y-63800407D01*
X142502213Y-63765464D01*
X142412656Y-63747650D01*
X142321344Y-63747650D01*
X142231787Y-63765464D01*
X142147427Y-63800407D01*
X142071504Y-63851137D01*
X142006937Y-63915704D01*
X142004668Y-63919100D01*
X141981783Y-63919100D01*
X141970091Y-63880554D01*
X141932582Y-63789998D01*
X141911354Y-63750284D01*
X141856898Y-63668785D01*
X141828332Y-63633976D01*
X141759024Y-63564668D01*
X141724215Y-63536102D01*
X141642716Y-63481646D01*
X141603002Y-63460418D01*
X141512446Y-63422909D01*
X141469355Y-63409838D01*
X141373222Y-63390716D01*
X141328409Y-63386302D01*
X141303847Y-63386302D01*
X141279400Y-63383894D01*
X140729400Y-63383894D01*
X140684587Y-63388308D01*
X140641495Y-63401379D01*
X140604400Y-63421207D01*
X140567305Y-63401379D01*
X140524213Y-63388308D01*
X140479400Y-63383894D01*
X139479400Y-63383894D01*
X139434587Y-63388308D01*
X139391495Y-63401379D01*
X139354400Y-63421207D01*
X139317305Y-63401379D01*
X139274213Y-63388308D01*
X139229400Y-63383894D01*
X138971500Y-63383894D01*
X138971500Y-62406391D01*
X139160592Y-62217300D01*
X139312268Y-62217300D01*
X139314537Y-62220696D01*
X139379104Y-62285263D01*
X139455027Y-62335993D01*
X139539387Y-62370936D01*
X139628944Y-62388750D01*
X139720256Y-62388750D01*
X139809813Y-62370936D01*
X139894173Y-62335993D01*
X139970096Y-62285263D01*
X140034663Y-62220696D01*
X140085393Y-62144773D01*
X140120336Y-62060413D01*
X140138150Y-61970856D01*
X140138150Y-61879544D01*
X140120336Y-61789987D01*
X140085393Y-61705627D01*
X140034663Y-61629704D01*
X139970096Y-61565137D01*
X139894173Y-61514407D01*
X139809813Y-61479464D01*
X139720256Y-61461650D01*
X139628944Y-61461650D01*
X139539387Y-61479464D01*
X139455027Y-61514407D01*
X139379104Y-61565137D01*
X139314537Y-61629704D01*
X139312268Y-61633100D01*
X139053946Y-61633100D01*
X139039600Y-61631687D01*
X138982338Y-61637327D01*
X138927277Y-61654029D01*
X138876533Y-61681153D01*
X138859941Y-61694770D01*
X138832055Y-61717655D01*
X138822911Y-61728797D01*
X138482998Y-62068711D01*
X138471856Y-62077855D01*
X138462712Y-62088997D01*
X138462710Y-62088999D01*
X138435353Y-62122334D01*
X138408229Y-62173078D01*
X138391527Y-62228139D01*
X138385888Y-62285400D01*
X138387301Y-62299748D01*
X138387301Y-62527379D01*
X138383593Y-62518427D01*
X138332863Y-62442504D01*
X138268296Y-62377937D01*
X138263243Y-62374561D01*
X138260673Y-62348469D01*
X138243971Y-62293408D01*
X138216847Y-62242664D01*
X138189490Y-62209329D01*
X138189489Y-62209328D01*
X138180345Y-62198186D01*
X138169204Y-62189043D01*
X136450005Y-60469844D01*
X139082950Y-60469844D01*
X139082950Y-60561156D01*
X139100764Y-60650713D01*
X139135707Y-60735073D01*
X139186437Y-60810996D01*
X139251004Y-60875563D01*
X139326927Y-60926293D01*
X139411287Y-60961236D01*
X139500844Y-60979050D01*
X139592156Y-60979050D01*
X139681713Y-60961236D01*
X139766073Y-60926293D01*
X139841996Y-60875563D01*
X139906563Y-60810996D01*
X139957293Y-60735073D01*
X139992236Y-60650713D01*
X140010050Y-60561156D01*
X140010050Y-60469844D01*
X139992236Y-60380287D01*
X139957293Y-60295927D01*
X139906563Y-60220004D01*
X139841996Y-60155437D01*
X139766073Y-60104707D01*
X139681713Y-60069764D01*
X139592156Y-60051950D01*
X139500844Y-60051950D01*
X139411287Y-60069764D01*
X139326927Y-60104707D01*
X139251004Y-60155437D01*
X139186437Y-60220004D01*
X139135707Y-60295927D01*
X139100764Y-60380287D01*
X139082950Y-60469844D01*
X136450005Y-60469844D01*
X134457762Y-58477602D01*
X134448614Y-58466455D01*
X134404136Y-58429953D01*
X134353392Y-58402829D01*
X134298331Y-58386127D01*
X134255415Y-58381900D01*
X134255407Y-58381900D01*
X134241069Y-58380488D01*
X134226731Y-58381900D01*
X134144130Y-58381900D01*
X134141861Y-58378504D01*
X134077294Y-58313937D01*
X134001371Y-58263207D01*
X133917011Y-58228264D01*
X133827454Y-58210450D01*
X133736142Y-58210450D01*
X133646585Y-58228264D01*
X133562225Y-58263207D01*
X133486302Y-58313937D01*
X133421735Y-58378504D01*
X133394983Y-58418541D01*
X133350658Y-58352203D01*
X133286091Y-58287636D01*
X133210168Y-58236906D01*
X133125808Y-58201963D01*
X133036251Y-58184149D01*
X132944939Y-58184149D01*
X132855382Y-58201963D01*
X132771022Y-58236906D01*
X132695099Y-58287636D01*
X132650725Y-58332010D01*
X132604096Y-58285381D01*
X132528173Y-58234651D01*
X132443813Y-58199708D01*
X132354256Y-58181894D01*
X132262944Y-58181894D01*
X132173387Y-58199708D01*
X132089027Y-58234651D01*
X132013104Y-58285381D01*
X131948537Y-58349948D01*
X131938135Y-58365516D01*
X131886556Y-58313937D01*
X131810633Y-58263207D01*
X131726273Y-58228264D01*
X131636716Y-58210450D01*
X131545404Y-58210450D01*
X131455847Y-58228264D01*
X131371487Y-58263207D01*
X131295564Y-58313937D01*
X131230997Y-58378504D01*
X131180267Y-58454427D01*
X131145324Y-58538787D01*
X131127510Y-58628344D01*
X131127510Y-58719656D01*
X131145324Y-58809213D01*
X131180267Y-58893573D01*
X131230997Y-58969496D01*
X131295564Y-59034063D01*
X131298961Y-59036332D01*
X131298960Y-59063485D01*
X131051200Y-58815724D01*
X131056927Y-58801897D01*
X131074741Y-58712340D01*
X131074741Y-58621028D01*
X131056927Y-58531471D01*
X131021984Y-58447111D01*
X130971254Y-58371188D01*
X130906687Y-58306621D01*
X130830764Y-58255891D01*
X130746404Y-58220948D01*
X130656847Y-58203134D01*
X130565535Y-58203134D01*
X130475978Y-58220948D01*
X130391618Y-58255891D01*
X130315695Y-58306621D01*
X130251128Y-58371188D01*
X130200398Y-58447111D01*
X130165455Y-58531471D01*
X130147641Y-58621028D01*
X130147641Y-58712340D01*
X130165455Y-58801897D01*
X130200398Y-58886257D01*
X130251128Y-58962180D01*
X130315695Y-59026747D01*
X130391618Y-59077477D01*
X130475978Y-59112420D01*
X130533069Y-59123776D01*
X130807480Y-59398187D01*
X130740237Y-59398187D01*
X130737968Y-59394791D01*
X130673401Y-59330224D01*
X130597478Y-59279494D01*
X130513118Y-59244551D01*
X130423561Y-59226737D01*
X130332249Y-59226737D01*
X130242692Y-59244551D01*
X130158332Y-59279494D01*
X130082409Y-59330224D01*
X130017842Y-59394791D01*
X129967112Y-59470714D01*
X129932169Y-59555074D01*
X129914355Y-59644631D01*
X129914355Y-59735943D01*
X129932169Y-59825500D01*
X129967112Y-59909860D01*
X130017842Y-59985783D01*
X130082409Y-60050350D01*
X130158332Y-60101080D01*
X130242692Y-60136023D01*
X130332249Y-60153837D01*
X130333949Y-60153837D01*
X130333949Y-60196847D01*
X130334746Y-60200853D01*
X130334230Y-60201369D01*
X130323089Y-60210512D01*
X130313945Y-60221654D01*
X130313943Y-60221656D01*
X130286586Y-60254991D01*
X130259462Y-60305735D01*
X130242760Y-60360796D01*
X130241542Y-60373162D01*
X130232506Y-60364126D01*
X130156583Y-60313396D01*
X130072223Y-60278453D01*
X129982666Y-60260639D01*
X129891354Y-60260639D01*
X129803650Y-60278084D01*
X129803650Y-59040883D01*
X129805062Y-59026547D01*
X129803650Y-59012211D01*
X129803650Y-59012202D01*
X129799423Y-58969286D01*
X129782721Y-58914225D01*
X129755597Y-58863481D01*
X129719095Y-58819003D01*
X129707949Y-58809856D01*
X129621755Y-58723662D01*
X129622552Y-58719656D01*
X129622552Y-58628344D01*
X129604738Y-58538787D01*
X129569795Y-58454427D01*
X129519065Y-58378504D01*
X129454498Y-58313937D01*
X129378575Y-58263207D01*
X129294215Y-58228264D01*
X129204658Y-58210450D01*
X129113346Y-58210450D01*
X129023789Y-58228264D01*
X128939429Y-58263207D01*
X128863506Y-58313937D01*
X128798939Y-58378504D01*
X128748209Y-58454427D01*
X128713266Y-58538787D01*
X128695452Y-58628344D01*
X128695452Y-58719656D01*
X128713266Y-58809213D01*
X128748209Y-58893573D01*
X128798939Y-58969496D01*
X128863506Y-59034063D01*
X128939429Y-59084793D01*
X129023789Y-59119736D01*
X129113346Y-59137550D01*
X129204658Y-59137550D01*
X129208664Y-59136753D01*
X129219450Y-59147539D01*
X129219451Y-60525100D01*
X129131755Y-60507656D01*
X129040443Y-60507656D01*
X128950886Y-60525470D01*
X128866526Y-60560413D01*
X128790603Y-60611143D01*
X128726036Y-60675710D01*
X128675306Y-60751633D01*
X128640363Y-60835993D01*
X128622549Y-60925550D01*
X128622549Y-61016862D01*
X128640363Y-61106419D01*
X128675306Y-61190779D01*
X128726036Y-61266702D01*
X128790603Y-61331269D01*
X128866526Y-61381999D01*
X128922470Y-61405172D01*
X128888627Y-61419190D01*
X128812704Y-61469920D01*
X128748137Y-61534487D01*
X128697407Y-61610410D01*
X128662464Y-61694770D01*
X128648206Y-61766450D01*
X128605344Y-61766450D01*
X128515787Y-61784264D01*
X128514360Y-61784855D01*
X128514360Y-59046945D01*
X128524702Y-59040035D01*
X128589269Y-58975468D01*
X128639999Y-58899545D01*
X128674942Y-58815185D01*
X128692756Y-58725628D01*
X128692756Y-58634316D01*
X128674942Y-58544759D01*
X128639999Y-58460399D01*
X128589269Y-58384476D01*
X128524702Y-58319909D01*
X128448779Y-58269179D01*
X128364419Y-58234236D01*
X128274862Y-58216422D01*
X128183550Y-58216422D01*
X128093993Y-58234236D01*
X128009633Y-58269179D01*
X127933710Y-58319909D01*
X127869143Y-58384476D01*
X127818413Y-58460399D01*
X127783470Y-58544759D01*
X127765656Y-58634316D01*
X127765656Y-58725628D01*
X127775245Y-58773838D01*
X127770213Y-58771753D01*
X127680656Y-58753939D01*
X127589344Y-58753939D01*
X127499787Y-58771753D01*
X127415427Y-58806696D01*
X127339504Y-58857426D01*
X127274937Y-58921993D01*
X127224207Y-58997916D01*
X127189264Y-59082276D01*
X127171450Y-59171833D01*
X127171450Y-59263145D01*
X127181520Y-59313773D01*
X126443338Y-60051956D01*
X126432191Y-60061104D01*
X126395689Y-60105583D01*
X126377945Y-60138778D01*
X125974579Y-59735413D01*
X125965431Y-59724266D01*
X125920953Y-59687764D01*
X125870209Y-59660640D01*
X125815148Y-59643938D01*
X125789056Y-59641368D01*
X125785680Y-59636315D01*
X125721113Y-59571748D01*
X125645190Y-59521018D01*
X125560830Y-59486075D01*
X125471273Y-59468261D01*
X125379961Y-59468261D01*
X125290404Y-59486075D01*
X125206044Y-59521018D01*
X125130121Y-59571748D01*
X125065554Y-59636315D01*
X125015050Y-59711900D01*
X123788706Y-59711900D01*
X123788706Y-59454000D01*
X123784292Y-59409187D01*
X123771221Y-59366095D01*
X123751393Y-59329000D01*
X123771221Y-59291905D01*
X123784292Y-59248813D01*
X123788706Y-59204000D01*
X123788706Y-59118625D01*
X123791387Y-59119736D01*
X123880944Y-59137550D01*
X123972256Y-59137550D01*
X124061813Y-59119736D01*
X124146173Y-59084793D01*
X124222096Y-59034063D01*
X124286663Y-58969496D01*
X124337393Y-58893573D01*
X124372336Y-58809213D01*
X124390150Y-58719656D01*
X124390150Y-58628344D01*
X124372336Y-58538787D01*
X124337393Y-58454427D01*
X124286663Y-58378504D01*
X124222096Y-58313937D01*
X124146173Y-58263207D01*
X124061813Y-58228264D01*
X123972256Y-58210450D01*
X123880944Y-58210450D01*
X123791387Y-58228264D01*
X123788706Y-58229375D01*
X123788706Y-58204000D01*
X123784292Y-58159187D01*
X123771221Y-58116095D01*
X123751393Y-58079000D01*
X123771221Y-58041905D01*
X123784292Y-57998813D01*
X123788706Y-57954000D01*
X123788706Y-57404000D01*
X123786298Y-57379553D01*
X123786298Y-57354991D01*
X123781884Y-57310178D01*
X123762762Y-57214045D01*
X123749691Y-57170954D01*
X123712182Y-57080398D01*
X123690954Y-57040684D01*
X123648678Y-56977414D01*
X123818992Y-56807100D01*
X127272668Y-56807100D01*
X127274937Y-56810496D01*
X127339504Y-56875063D01*
X127415427Y-56925793D01*
X127499787Y-56960736D01*
X127589344Y-56978550D01*
X127680656Y-56978550D01*
X127770213Y-56960736D01*
X127854573Y-56925793D01*
X127930496Y-56875063D01*
X127995063Y-56810496D01*
X128045793Y-56734573D01*
X128080736Y-56650213D01*
X128098550Y-56560656D01*
X128098550Y-56469344D01*
X128080736Y-56379787D01*
X128045793Y-56295427D01*
X127995063Y-56219504D01*
X127930496Y-56154937D01*
X127854573Y-56104207D01*
X127770213Y-56069264D01*
X127680656Y-56051450D01*
X127589344Y-56051450D01*
X127499787Y-56069264D01*
X127415427Y-56104207D01*
X127339504Y-56154937D01*
X127274937Y-56219504D01*
X127272668Y-56222900D01*
X123712346Y-56222900D01*
X123698000Y-56221487D01*
X123683654Y-56222900D01*
X123640738Y-56227127D01*
X123585677Y-56243829D01*
X123534933Y-56270953D01*
X123490455Y-56307455D01*
X123481311Y-56318597D01*
X123121844Y-56678065D01*
X123108009Y-56676702D01*
X123083447Y-56676702D01*
X123059000Y-56674294D01*
X122559000Y-56674294D01*
X122534553Y-56676702D01*
X122509991Y-56676702D01*
X122465178Y-56681116D01*
X122369045Y-56700238D01*
X122325954Y-56713309D01*
X122235398Y-56750818D01*
X122195684Y-56772046D01*
X122114185Y-56826502D01*
X122079376Y-56855068D01*
X122010068Y-56924376D01*
X121981502Y-56959185D01*
X121927046Y-57040684D01*
X121905818Y-57080398D01*
X121868309Y-57170954D01*
X121855238Y-57214045D01*
X121836116Y-57310178D01*
X121831702Y-57354991D01*
X121831702Y-57379553D01*
X121829294Y-57404000D01*
X121829294Y-57954000D01*
X121833708Y-57998813D01*
X121846779Y-58041905D01*
X121866607Y-58079000D01*
X121846779Y-58116095D01*
X121833708Y-58159187D01*
X121829294Y-58204000D01*
X121829294Y-59204000D01*
X121833708Y-59248813D01*
X121846779Y-59291905D01*
X121866607Y-59329000D01*
X121846779Y-59366095D01*
X121833708Y-59409187D01*
X121829294Y-59454000D01*
X121829294Y-60004000D01*
X121831702Y-60028447D01*
X121831702Y-60053009D01*
X121836116Y-60097822D01*
X121855238Y-60193955D01*
X121868309Y-60237046D01*
X121905818Y-60327602D01*
X121927046Y-60367316D01*
X121981502Y-60448815D01*
X122010068Y-60483624D01*
X122079376Y-60552932D01*
X122114185Y-60581498D01*
X122195684Y-60635954D01*
X122235398Y-60657182D01*
X122325954Y-60694691D01*
X122369045Y-60707762D01*
X122465178Y-60726884D01*
X122509991Y-60731298D01*
X122534553Y-60731298D01*
X122559000Y-60733706D01*
X123059000Y-60733706D01*
X123083447Y-60731298D01*
X123108009Y-60731298D01*
X123152822Y-60726884D01*
X123248955Y-60707762D01*
X123292046Y-60694691D01*
X123382602Y-60657182D01*
X123422316Y-60635954D01*
X123503815Y-60581498D01*
X123538624Y-60552932D01*
X123607932Y-60483624D01*
X123636498Y-60448815D01*
X123690954Y-60367316D01*
X123712182Y-60327602D01*
X123725230Y-60296100D01*
X125048177Y-60296100D01*
X125039807Y-60308627D01*
X125004864Y-60392987D01*
X124987050Y-60482544D01*
X124987050Y-60573856D01*
X125004864Y-60663413D01*
X125039807Y-60747773D01*
X125090537Y-60823696D01*
X125093491Y-60826650D01*
X125090526Y-60829615D01*
X125039796Y-60905538D01*
X125004853Y-60989898D01*
X124987039Y-61079455D01*
X124987039Y-61170767D01*
X125004853Y-61260324D01*
X125039796Y-61344684D01*
X125090526Y-61420607D01*
X125155093Y-61485174D01*
X125231016Y-61535904D01*
X125266420Y-61550569D01*
X125231027Y-61565229D01*
X125155104Y-61615959D01*
X125090537Y-61680526D01*
X125039807Y-61756449D01*
X125004864Y-61840809D01*
X124987050Y-61930366D01*
X124987050Y-62021678D01*
X125004864Y-62111235D01*
X125039807Y-62195595D01*
X125090537Y-62271518D01*
X125155104Y-62336085D01*
X125158500Y-62338354D01*
X125158501Y-65438359D01*
X125157088Y-65452707D01*
X125161158Y-65494024D01*
X125085011Y-65525565D01*
X125009088Y-65576295D01*
X124944521Y-65640862D01*
X124942252Y-65644258D01*
X123612777Y-65644258D01*
X123598441Y-65642846D01*
X123584105Y-65644258D01*
X123584096Y-65644258D01*
X123541180Y-65648485D01*
X123486119Y-65665187D01*
X123435375Y-65692311D01*
X123390897Y-65728813D01*
X123381749Y-65739960D01*
X122968198Y-66153511D01*
X122957056Y-66162655D01*
X122949038Y-66172426D01*
X122939453Y-66160747D01*
X122869836Y-66103613D01*
X122790409Y-66061159D01*
X122704227Y-66035015D01*
X122614600Y-66026188D01*
X122379700Y-66028400D01*
X122265400Y-66142700D01*
X122265400Y-66884800D01*
X122285400Y-66884800D01*
X122285400Y-66986400D01*
X122265400Y-66986400D01*
X122265400Y-67728500D01*
X122347178Y-67810278D01*
X122344088Y-67841656D01*
X122345501Y-67856004D01*
X122345500Y-68394261D01*
X122344088Y-68408600D01*
X122345500Y-68422938D01*
X122345500Y-68422945D01*
X122349727Y-68465861D01*
X122366429Y-68520922D01*
X122393553Y-68571666D01*
X122430055Y-68616145D01*
X122441202Y-68625293D01*
X122534894Y-68718985D01*
X122534894Y-69385600D01*
X122539308Y-69430413D01*
X122552379Y-69473505D01*
X122573606Y-69513218D01*
X122602173Y-69548027D01*
X122636982Y-69576594D01*
X122676695Y-69597821D01*
X122719787Y-69610892D01*
X122764600Y-69615306D01*
X123564600Y-69615306D01*
X123609413Y-69610892D01*
X123652505Y-69597821D01*
X123685301Y-69580291D01*
X123685300Y-72494708D01*
X123527767Y-72652242D01*
X123505909Y-72640559D01*
X123419727Y-72614415D01*
X123330100Y-72605588D01*
X123320200Y-72607800D01*
X123205900Y-72722100D01*
X123205900Y-73989200D01*
X123225900Y-73989200D01*
X123225900Y-74090800D01*
X123205900Y-74090800D01*
X123205900Y-74110800D01*
X123104300Y-74110800D01*
X123104300Y-74090800D01*
X123084300Y-74090800D01*
X123084300Y-73989200D01*
X123104300Y-73989200D01*
X123104300Y-72722100D01*
X122990000Y-72607800D01*
X122980100Y-72605588D01*
X122890473Y-72614415D01*
X122804291Y-72640559D01*
X122724864Y-72683013D01*
X122655247Y-72740147D01*
X122598113Y-72809764D01*
X122555659Y-72889191D01*
X122529515Y-72975373D01*
X122523300Y-73038478D01*
X122523300Y-72116271D01*
X122522219Y-72105295D01*
X122518779Y-72059878D01*
X122515478Y-72041024D01*
X122513397Y-72021998D01*
X122512532Y-72018013D01*
X122490483Y-71919704D01*
X122482200Y-71894571D01*
X122474261Y-71869302D01*
X122472641Y-71865566D01*
X122472639Y-71865561D01*
X122472636Y-71865556D01*
X122431913Y-71773405D01*
X122418905Y-71750359D01*
X122406211Y-71727115D01*
X122403895Y-71723764D01*
X122403892Y-71723759D01*
X122403888Y-71723755D01*
X122346045Y-71641271D01*
X122328806Y-71621188D01*
X122311840Y-71600854D01*
X122308914Y-71598013D01*
X122236144Y-71528331D01*
X122215369Y-71512007D01*
X122194741Y-71495327D01*
X122191319Y-71493109D01*
X122106401Y-71438888D01*
X122082827Y-71426898D01*
X122059378Y-71414556D01*
X122055590Y-71413044D01*
X121961758Y-71376349D01*
X121936309Y-71369168D01*
X121910900Y-71361613D01*
X121906891Y-71360866D01*
X121807719Y-71343096D01*
X121802232Y-71342658D01*
X121796888Y-71341365D01*
X121792846Y-71340825D01*
X121701684Y-71329296D01*
X121641678Y-71309326D01*
X121586684Y-71278075D01*
X121538814Y-71236745D01*
X121499883Y-71186899D01*
X121471373Y-71130442D01*
X121464806Y-71106907D01*
X121521082Y-71163183D01*
X121610525Y-71222947D01*
X121709909Y-71264113D01*
X121815414Y-71285100D01*
X121922986Y-71285100D01*
X122028491Y-71264113D01*
X122127875Y-71222947D01*
X122217318Y-71163183D01*
X122293383Y-71087118D01*
X122353147Y-70997675D01*
X122394313Y-70898291D01*
X122415300Y-70792786D01*
X122415300Y-70685214D01*
X122394313Y-70579709D01*
X122353147Y-70480325D01*
X122293383Y-70390882D01*
X122217318Y-70314817D01*
X122127875Y-70255053D01*
X122028491Y-70213887D01*
X121922986Y-70192900D01*
X121815414Y-70192900D01*
X121709909Y-70213887D01*
X121610525Y-70255053D01*
X121521082Y-70314817D01*
X121448300Y-70387599D01*
X121448300Y-67659950D01*
X121489747Y-67710453D01*
X121559364Y-67767587D01*
X121638791Y-67810041D01*
X121724973Y-67836185D01*
X121814600Y-67845012D01*
X122049500Y-67842800D01*
X122163800Y-67728500D01*
X122163800Y-66986400D01*
X122143800Y-66986400D01*
X122143800Y-66884800D01*
X122163800Y-66884800D01*
X122163800Y-66142700D01*
X122049500Y-66028400D01*
X121814600Y-66026188D01*
X121724973Y-66035015D01*
X121638791Y-66061159D01*
X121559364Y-66103613D01*
X121489747Y-66160747D01*
X121448300Y-66211250D01*
X121448300Y-55419814D01*
X128663700Y-55419814D01*
X128663700Y-55527386D01*
X128684687Y-55632891D01*
X128725853Y-55732275D01*
X128785617Y-55821718D01*
X128861682Y-55897783D01*
X128951125Y-55957547D01*
X129050509Y-55998713D01*
X129156014Y-56019700D01*
X129263586Y-56019700D01*
X129369091Y-55998713D01*
X129468475Y-55957547D01*
X129557918Y-55897783D01*
X129633983Y-55821718D01*
X129693747Y-55732275D01*
X129734913Y-55632891D01*
X129755900Y-55527386D01*
X129755900Y-55419814D01*
X129734913Y-55314309D01*
X129693747Y-55214925D01*
X129633983Y-55125482D01*
X129557918Y-55049417D01*
X129468475Y-54989653D01*
X129369091Y-54948487D01*
X129263586Y-54927500D01*
X129156014Y-54927500D01*
X129050509Y-54948487D01*
X128951125Y-54989653D01*
X128861682Y-55049417D01*
X128785617Y-55125482D01*
X128725853Y-55214925D01*
X128684687Y-55314309D01*
X128663700Y-55419814D01*
X121448300Y-55419814D01*
X121448300Y-54648472D01*
X121467012Y-54496014D01*
X121511613Y-54360336D01*
X121581719Y-54235903D01*
X121674660Y-54127457D01*
X121786898Y-54039125D01*
X121914146Y-53974281D01*
X122054533Y-53934548D01*
X122171009Y-53922717D01*
X133352935Y-53922717D01*
X133401837Y-54216127D01*
G37*
%TD.AperFunction*%
D21*
X124944521Y-66231854D02*
X125009088Y-66296421D01*
X125085011Y-66347151D01*
X125102926Y-66354572D01*
X124860503Y-66596995D01*
X124849356Y-66606143D01*
X124812854Y-66650622D01*
X124785730Y-66701366D01*
X124769028Y-66756427D01*
X124764801Y-66799343D01*
X124764801Y-66799350D01*
X124763389Y-66813688D01*
X124764801Y-66828026D01*
X124764802Y-71860336D01*
X124723106Y-71877607D01*
X124647183Y-71928337D01*
X124582616Y-71992904D01*
X124531886Y-72068827D01*
X124496943Y-72153187D01*
X124479129Y-72242744D01*
X124479129Y-72334056D01*
X124496943Y-72423613D01*
X124531886Y-72507973D01*
X124582616Y-72583896D01*
X124647183Y-72648463D01*
X124723106Y-72699193D01*
X124807466Y-72734136D01*
X124897023Y-72751950D01*
X124988335Y-72751950D01*
X125077892Y-72734136D01*
X125162252Y-72699193D01*
X125238175Y-72648463D01*
X125302742Y-72583896D01*
X125353472Y-72507973D01*
X125388415Y-72423613D01*
X125406229Y-72334056D01*
X125406229Y-72242744D01*
X125402020Y-72221585D01*
X125621818Y-72441382D01*
X125621021Y-72445388D01*
X125621021Y-72536700D01*
X125638835Y-72626257D01*
X125673778Y-72710617D01*
X125724508Y-72786540D01*
X125773262Y-72835294D01*
X125480100Y-72835294D01*
X125435287Y-72839708D01*
X125405100Y-72848865D01*
X125374913Y-72839708D01*
X125330100Y-72835294D01*
X124980100Y-72835294D01*
X124935287Y-72839708D01*
X124905100Y-72848865D01*
X124874913Y-72839708D01*
X124830100Y-72835294D01*
X124480100Y-72835294D01*
X124435287Y-72839708D01*
X124405100Y-72848865D01*
X124374913Y-72839708D01*
X124330100Y-72835294D01*
X124170898Y-72835294D01*
X124173804Y-72832388D01*
X124184945Y-72823245D01*
X124197781Y-72807605D01*
X124221447Y-72778767D01*
X124248571Y-72728023D01*
X124265273Y-72672962D01*
X124266206Y-72663489D01*
X124269500Y-72630046D01*
X124269500Y-72630039D01*
X124270912Y-72615701D01*
X124269500Y-72601363D01*
X124269500Y-67615306D01*
X124514600Y-67615306D01*
X124559413Y-67610892D01*
X124602505Y-67597821D01*
X124642218Y-67576594D01*
X124677027Y-67548027D01*
X124705594Y-67513218D01*
X124726821Y-67473505D01*
X124739892Y-67430413D01*
X124744306Y-67385600D01*
X124744306Y-66485600D01*
X124739892Y-66440787D01*
X124726821Y-66397695D01*
X124705594Y-66357982D01*
X124677027Y-66323173D01*
X124642218Y-66294606D01*
X124602505Y-66273379D01*
X124559413Y-66260308D01*
X124514600Y-66255894D01*
X123714600Y-66255894D01*
X123689527Y-66258364D01*
X123719433Y-66228458D01*
X124942252Y-66228458D01*
X124944521Y-66231854D01*
%TA.AperFunction,Conductor*%
D22*
G36*
X124944521Y-66231854D02*
G01*
X125009088Y-66296421D01*
X125085011Y-66347151D01*
X125102926Y-66354572D01*
X124860503Y-66596995D01*
X124849356Y-66606143D01*
X124812854Y-66650622D01*
X124785730Y-66701366D01*
X124769028Y-66756427D01*
X124764801Y-66799343D01*
X124764801Y-66799350D01*
X124763389Y-66813688D01*
X124764801Y-66828026D01*
X124764802Y-71860336D01*
X124723106Y-71877607D01*
X124647183Y-71928337D01*
X124582616Y-71992904D01*
X124531886Y-72068827D01*
X124496943Y-72153187D01*
X124479129Y-72242744D01*
X124479129Y-72334056D01*
X124496943Y-72423613D01*
X124531886Y-72507973D01*
X124582616Y-72583896D01*
X124647183Y-72648463D01*
X124723106Y-72699193D01*
X124807466Y-72734136D01*
X124897023Y-72751950D01*
X124988335Y-72751950D01*
X125077892Y-72734136D01*
X125162252Y-72699193D01*
X125238175Y-72648463D01*
X125302742Y-72583896D01*
X125353472Y-72507973D01*
X125388415Y-72423613D01*
X125406229Y-72334056D01*
X125406229Y-72242744D01*
X125402020Y-72221585D01*
X125621818Y-72441382D01*
X125621021Y-72445388D01*
X125621021Y-72536700D01*
X125638835Y-72626257D01*
X125673778Y-72710617D01*
X125724508Y-72786540D01*
X125773262Y-72835294D01*
X125480100Y-72835294D01*
X125435287Y-72839708D01*
X125405100Y-72848865D01*
X125374913Y-72839708D01*
X125330100Y-72835294D01*
X124980100Y-72835294D01*
X124935287Y-72839708D01*
X124905100Y-72848865D01*
X124874913Y-72839708D01*
X124830100Y-72835294D01*
X124480100Y-72835294D01*
X124435287Y-72839708D01*
X124405100Y-72848865D01*
X124374913Y-72839708D01*
X124330100Y-72835294D01*
X124170898Y-72835294D01*
X124173804Y-72832388D01*
X124184945Y-72823245D01*
X124197781Y-72807605D01*
X124221447Y-72778767D01*
X124248571Y-72728023D01*
X124265273Y-72672962D01*
X124266206Y-72663489D01*
X124269500Y-72630046D01*
X124269500Y-72630039D01*
X124270912Y-72615701D01*
X124269500Y-72601363D01*
X124269500Y-67615306D01*
X124514600Y-67615306D01*
X124559413Y-67610892D01*
X124602505Y-67597821D01*
X124642218Y-67576594D01*
X124677027Y-67548027D01*
X124705594Y-67513218D01*
X124726821Y-67473505D01*
X124739892Y-67430413D01*
X124744306Y-67385600D01*
X124744306Y-66485600D01*
X124739892Y-66440787D01*
X124726821Y-66397695D01*
X124705594Y-66357982D01*
X124677027Y-66323173D01*
X124642218Y-66294606D01*
X124602505Y-66273379D01*
X124559413Y-66260308D01*
X124514600Y-66255894D01*
X123714600Y-66255894D01*
X123689527Y-66258364D01*
X123719433Y-66228458D01*
X124942252Y-66228458D01*
X124944521Y-66231854D01*
G37*
%TD.AperFunction*%
D21*
X127292987Y-68738280D02*
X127302133Y-68749424D01*
X127313275Y-68758568D01*
X127313276Y-68758569D01*
X127333436Y-68775114D01*
X127346611Y-68785926D01*
X127397355Y-68813050D01*
X127452416Y-68829752D01*
X127495332Y-68833979D01*
X127495339Y-68833979D01*
X127509677Y-68835391D01*
X127524015Y-68833979D01*
X128822088Y-68833979D01*
X129400236Y-69412128D01*
X129400235Y-71720329D01*
X128559059Y-70879153D01*
X128549911Y-70868006D01*
X128505433Y-70831504D01*
X128454689Y-70804380D01*
X128399628Y-70787678D01*
X128356712Y-70783451D01*
X128356704Y-70783451D01*
X128342366Y-70782039D01*
X128328028Y-70783451D01*
X128257945Y-70783451D01*
X128298796Y-70756155D01*
X128363363Y-70691588D01*
X128414093Y-70615665D01*
X128449036Y-70531305D01*
X128466850Y-70441748D01*
X128466850Y-70350436D01*
X128449036Y-70260879D01*
X128414093Y-70176519D01*
X128363363Y-70100596D01*
X128298796Y-70036029D01*
X128222873Y-69985299D01*
X128138513Y-69950356D01*
X128048956Y-69932542D01*
X127957644Y-69932542D01*
X127868087Y-69950356D01*
X127783727Y-69985299D01*
X127707804Y-70036029D01*
X127643237Y-70100596D01*
X127592507Y-70176519D01*
X127557564Y-70260879D01*
X127539750Y-70350436D01*
X127539750Y-70441748D01*
X127557564Y-70531305D01*
X127592507Y-70615665D01*
X127643237Y-70691588D01*
X127707804Y-70756155D01*
X127748655Y-70783451D01*
X127559371Y-70783451D01*
X127559371Y-70763765D01*
X127541557Y-70674208D01*
X127506614Y-70589848D01*
X127455884Y-70513925D01*
X127391317Y-70449358D01*
X127315394Y-70398628D01*
X127231034Y-70363685D01*
X127141477Y-70345871D01*
X127050165Y-70345871D01*
X126960608Y-70363685D01*
X126876248Y-70398628D01*
X126873067Y-70400753D01*
X126873067Y-68318359D01*
X127292987Y-68738280D01*
%TA.AperFunction,Conductor*%
D22*
G36*
X127292987Y-68738280D02*
G01*
X127302133Y-68749424D01*
X127313275Y-68758568D01*
X127313276Y-68758569D01*
X127333436Y-68775114D01*
X127346611Y-68785926D01*
X127397355Y-68813050D01*
X127452416Y-68829752D01*
X127495332Y-68833979D01*
X127495339Y-68833979D01*
X127509677Y-68835391D01*
X127524015Y-68833979D01*
X128822088Y-68833979D01*
X129400236Y-69412128D01*
X129400235Y-71720329D01*
X128559059Y-70879153D01*
X128549911Y-70868006D01*
X128505433Y-70831504D01*
X128454689Y-70804380D01*
X128399628Y-70787678D01*
X128356712Y-70783451D01*
X128356704Y-70783451D01*
X128342366Y-70782039D01*
X128328028Y-70783451D01*
X128257945Y-70783451D01*
X128298796Y-70756155D01*
X128363363Y-70691588D01*
X128414093Y-70615665D01*
X128449036Y-70531305D01*
X128466850Y-70441748D01*
X128466850Y-70350436D01*
X128449036Y-70260879D01*
X128414093Y-70176519D01*
X128363363Y-70100596D01*
X128298796Y-70036029D01*
X128222873Y-69985299D01*
X128138513Y-69950356D01*
X128048956Y-69932542D01*
X127957644Y-69932542D01*
X127868087Y-69950356D01*
X127783727Y-69985299D01*
X127707804Y-70036029D01*
X127643237Y-70100596D01*
X127592507Y-70176519D01*
X127557564Y-70260879D01*
X127539750Y-70350436D01*
X127539750Y-70441748D01*
X127557564Y-70531305D01*
X127592507Y-70615665D01*
X127643237Y-70691588D01*
X127707804Y-70756155D01*
X127748655Y-70783451D01*
X127559371Y-70783451D01*
X127559371Y-70763765D01*
X127541557Y-70674208D01*
X127506614Y-70589848D01*
X127455884Y-70513925D01*
X127391317Y-70449358D01*
X127315394Y-70398628D01*
X127231034Y-70363685D01*
X127141477Y-70345871D01*
X127050165Y-70345871D01*
X126960608Y-70363685D01*
X126876248Y-70398628D01*
X126873067Y-70400753D01*
X126873067Y-68318359D01*
X127292987Y-68738280D01*
G37*
%TD.AperFunction*%
D21*
X135172407Y-68101551D02*
X135172408Y-68814903D01*
X134315238Y-67957733D01*
X135028590Y-67957733D01*
X135172407Y-68101551D01*
%TA.AperFunction,Conductor*%
D22*
G36*
X135172407Y-68101551D02*
G01*
X135172408Y-68814903D01*
X134315238Y-67957733D01*
X135028590Y-67957733D01*
X135172407Y-68101551D01*
G37*
%TD.AperFunction*%
D21*
X127930160Y-62902878D02*
X127655637Y-63177401D01*
X127673094Y-63089638D01*
X127673094Y-62998326D01*
X127655280Y-62908769D01*
X127620337Y-62824409D01*
X127612215Y-62812253D01*
X127672897Y-62751571D01*
X127723627Y-62675648D01*
X127758570Y-62591288D01*
X127776384Y-62501731D01*
X127776384Y-62410419D01*
X127758570Y-62320862D01*
X127723627Y-62236502D01*
X127672897Y-62160579D01*
X127608330Y-62096012D01*
X127532407Y-62045282D01*
X127448047Y-62010339D01*
X127358490Y-61992525D01*
X127267178Y-61992525D01*
X127177621Y-62010339D01*
X127093261Y-62045282D01*
X127017338Y-62096012D01*
X126952771Y-62160579D01*
X126931836Y-62191911D01*
X126931836Y-60389640D01*
X127640438Y-59681039D01*
X127680656Y-59681039D01*
X127770213Y-59663225D01*
X127854573Y-59628282D01*
X127930161Y-59577776D01*
X127930160Y-62902878D01*
%TA.AperFunction,Conductor*%
D22*
G36*
X127930160Y-62902878D02*
G01*
X127655637Y-63177401D01*
X127673094Y-63089638D01*
X127673094Y-62998326D01*
X127655280Y-62908769D01*
X127620337Y-62824409D01*
X127612215Y-62812253D01*
X127672897Y-62751571D01*
X127723627Y-62675648D01*
X127758570Y-62591288D01*
X127776384Y-62501731D01*
X127776384Y-62410419D01*
X127758570Y-62320862D01*
X127723627Y-62236502D01*
X127672897Y-62160579D01*
X127608330Y-62096012D01*
X127532407Y-62045282D01*
X127448047Y-62010339D01*
X127358490Y-61992525D01*
X127267178Y-61992525D01*
X127177621Y-62010339D01*
X127093261Y-62045282D01*
X127017338Y-62096012D01*
X126952771Y-62160579D01*
X126931836Y-62191911D01*
X126931836Y-60389640D01*
X127640438Y-59681039D01*
X127680656Y-59681039D01*
X127770213Y-59663225D01*
X127854573Y-59628282D01*
X127930161Y-59577776D01*
X127930160Y-62902878D01*
G37*
%TD.AperFunction*%
%TD*%
M02*
