%TF.GenerationSoftware,KiCad,Pcbnew,(5.1.5)-3*%
%TF.CreationDate,2020-12-17T07:42:55+01:00*%
%TF.ProjectId,TeensyMM,5465656e-7379-44d4-9d2e-6b696361645f,rev?*%
%TF.SameCoordinates,Original*%
%TF.FileFunction,Soldermask,Bot*%
%TF.FilePolarity,Negative*%
%FSLAX46Y46*%
G04 Gerber Fmt 4.6, Leading zero omitted, Abs format (unit mm)*
G04 Created by KiCad (PCBNEW (5.1.5)-3) date 2020-12-17 07:42:55*
%MOMM*%
%LPD*%
G04 APERTURE LIST*
%ADD10C,0.050800*%
%ADD11C,0.100000*%
%ADD12R,1.000000X1.500000*%
%ADD13R,1.150000X2.200000*%
%ADD14R,0.800000X0.900000*%
%ADD15R,1.500000X1.000000*%
%ADD16R,0.553200X2.153200*%
G04 APERTURE END LIST*
D10*
%TO.C,JP1*%
G36*
X138811000Y-65074800D02*
G01*
X141147800Y-65074800D01*
X141147800Y-63652400D01*
X138811000Y-63652400D01*
X138811000Y-65074800D01*
G37*
X138811000Y-65074800D02*
X141147800Y-65074800D01*
X141147800Y-63652400D01*
X138811000Y-63652400D01*
X138811000Y-65074800D01*
D11*
%TO.C,JP2*%
G36*
X122109000Y-57504000D02*
G01*
X122109000Y-59904000D01*
X123509000Y-59904000D01*
X123509000Y-57504000D01*
X122109000Y-57504000D01*
G37*
X122109000Y-57504000D02*
X122109000Y-59904000D01*
X123509000Y-59904000D01*
X123509000Y-57504000D01*
X122109000Y-57504000D01*
%TD*%
D12*
%TO.C,JP1*%
X139979400Y-64363600D03*
D11*
G36*
X138679400Y-65112998D02*
G01*
X138654866Y-65112998D01*
X138606035Y-65108188D01*
X138557910Y-65098616D01*
X138510955Y-65084372D01*
X138465622Y-65065595D01*
X138422349Y-65042464D01*
X138381550Y-65015204D01*
X138343621Y-64984076D01*
X138308924Y-64949379D01*
X138277796Y-64911450D01*
X138250536Y-64870651D01*
X138227405Y-64827378D01*
X138208628Y-64782045D01*
X138194384Y-64735090D01*
X138184812Y-64686965D01*
X138180002Y-64638134D01*
X138180002Y-64613600D01*
X138179400Y-64613600D01*
X138179400Y-64113600D01*
X138180002Y-64113600D01*
X138180002Y-64089066D01*
X138184812Y-64040235D01*
X138194384Y-63992110D01*
X138208628Y-63945155D01*
X138227405Y-63899822D01*
X138250536Y-63856549D01*
X138277796Y-63815750D01*
X138308924Y-63777821D01*
X138343621Y-63743124D01*
X138381550Y-63711996D01*
X138422349Y-63684736D01*
X138465622Y-63661605D01*
X138510955Y-63642828D01*
X138557910Y-63628584D01*
X138606035Y-63619012D01*
X138654866Y-63614202D01*
X138679400Y-63614202D01*
X138679400Y-63613600D01*
X139229400Y-63613600D01*
X139229400Y-65113600D01*
X138679400Y-65113600D01*
X138679400Y-65112998D01*
G37*
G36*
X140729400Y-63613600D02*
G01*
X141279400Y-63613600D01*
X141279400Y-63614202D01*
X141303934Y-63614202D01*
X141352765Y-63619012D01*
X141400890Y-63628584D01*
X141447845Y-63642828D01*
X141493178Y-63661605D01*
X141536451Y-63684736D01*
X141577250Y-63711996D01*
X141615179Y-63743124D01*
X141649876Y-63777821D01*
X141681004Y-63815750D01*
X141708264Y-63856549D01*
X141731395Y-63899822D01*
X141750172Y-63945155D01*
X141764416Y-63992110D01*
X141773988Y-64040235D01*
X141778798Y-64089066D01*
X141778798Y-64113600D01*
X141779400Y-64113600D01*
X141779400Y-64613600D01*
X141778798Y-64613600D01*
X141778798Y-64638134D01*
X141773988Y-64686965D01*
X141764416Y-64735090D01*
X141750172Y-64782045D01*
X141731395Y-64827378D01*
X141708264Y-64870651D01*
X141681004Y-64911450D01*
X141649876Y-64949379D01*
X141615179Y-64984076D01*
X141577250Y-65015204D01*
X141536451Y-65042464D01*
X141493178Y-65065595D01*
X141447845Y-65084372D01*
X141400890Y-65098616D01*
X141352765Y-65108188D01*
X141303934Y-65112998D01*
X141279400Y-65112998D01*
X141279400Y-65113600D01*
X140729400Y-65113600D01*
X140729400Y-63613600D01*
G37*
%TD*%
D13*
%TO.C,Y2*%
X136182400Y-63271400D03*
X134632400Y-63271400D03*
%TD*%
D14*
%TO.C,D2*%
X123164600Y-68935600D03*
X124114600Y-66935600D03*
X122214600Y-66935600D03*
%TD*%
D11*
%TO.C,JP2*%
G36*
X123559000Y-59454000D02*
G01*
X123559000Y-60004000D01*
X123558398Y-60004000D01*
X123558398Y-60028534D01*
X123553588Y-60077365D01*
X123544016Y-60125490D01*
X123529772Y-60172445D01*
X123510995Y-60217778D01*
X123487864Y-60261051D01*
X123460604Y-60301850D01*
X123429476Y-60339779D01*
X123394779Y-60374476D01*
X123356850Y-60405604D01*
X123316051Y-60432864D01*
X123272778Y-60455995D01*
X123227445Y-60474772D01*
X123180490Y-60489016D01*
X123132365Y-60498588D01*
X123083534Y-60503398D01*
X123059000Y-60503398D01*
X123059000Y-60504000D01*
X122559000Y-60504000D01*
X122559000Y-60503398D01*
X122534466Y-60503398D01*
X122485635Y-60498588D01*
X122437510Y-60489016D01*
X122390555Y-60474772D01*
X122345222Y-60455995D01*
X122301949Y-60432864D01*
X122261150Y-60405604D01*
X122223221Y-60374476D01*
X122188524Y-60339779D01*
X122157396Y-60301850D01*
X122130136Y-60261051D01*
X122107005Y-60217778D01*
X122088228Y-60172445D01*
X122073984Y-60125490D01*
X122064412Y-60077365D01*
X122059602Y-60028534D01*
X122059602Y-60004000D01*
X122059000Y-60004000D01*
X122059000Y-59454000D01*
X123559000Y-59454000D01*
G37*
D15*
X122809000Y-58704000D03*
D11*
G36*
X122059602Y-57404000D02*
G01*
X122059602Y-57379466D01*
X122064412Y-57330635D01*
X122073984Y-57282510D01*
X122088228Y-57235555D01*
X122107005Y-57190222D01*
X122130136Y-57146949D01*
X122157396Y-57106150D01*
X122188524Y-57068221D01*
X122223221Y-57033524D01*
X122261150Y-57002396D01*
X122301949Y-56975136D01*
X122345222Y-56952005D01*
X122390555Y-56933228D01*
X122437510Y-56918984D01*
X122485635Y-56909412D01*
X122534466Y-56904602D01*
X122559000Y-56904602D01*
X122559000Y-56904000D01*
X123059000Y-56904000D01*
X123059000Y-56904602D01*
X123083534Y-56904602D01*
X123132365Y-56909412D01*
X123180490Y-56918984D01*
X123227445Y-56933228D01*
X123272778Y-56952005D01*
X123316051Y-56975136D01*
X123356850Y-57002396D01*
X123394779Y-57033524D01*
X123429476Y-57068221D01*
X123460604Y-57106150D01*
X123487864Y-57146949D01*
X123510995Y-57190222D01*
X123529772Y-57235555D01*
X123544016Y-57282510D01*
X123553588Y-57330635D01*
X123558398Y-57379466D01*
X123558398Y-57404000D01*
X123559000Y-57404000D01*
X123559000Y-57954000D01*
X122059000Y-57954000D01*
X122059000Y-57404000D01*
X122059602Y-57404000D01*
G37*
%TD*%
D16*
%TO.C,J1*%
X123155100Y-74040000D03*
X123655100Y-74040000D03*
X124155100Y-74040000D03*
X124655100Y-74040000D03*
X125155100Y-74040000D03*
X125655100Y-74040000D03*
X126155100Y-74040000D03*
X126655100Y-74040000D03*
X127155100Y-74040000D03*
X127655100Y-74040000D03*
X128155100Y-74040000D03*
X128655100Y-74040000D03*
X129155100Y-74040000D03*
X129655100Y-74040000D03*
X130155100Y-74040000D03*
X130655100Y-74040000D03*
X131155100Y-74040000D03*
X131655100Y-74040000D03*
X132155100Y-74040000D03*
X132655100Y-74040000D03*
X133155100Y-74040000D03*
X133655100Y-74040000D03*
X136155100Y-74040000D03*
X136655100Y-74040000D03*
X137155100Y-74040000D03*
X137655100Y-74040000D03*
X138155100Y-74040000D03*
X138655100Y-74040000D03*
X139155100Y-74040000D03*
X139655100Y-74040000D03*
X140155100Y-74040000D03*
X140655100Y-74040000D03*
X141155100Y-74040000D03*
%TD*%
M02*
