%TF.GenerationSoftware,KiCad,Pcbnew,(5.1.8)-1*%
%TF.CreationDate,2020-12-18T16:25:39+01:00*%
%TF.ProjectId,TeensyMM,5465656e-7379-44d4-9d2e-6b696361645f,rev?*%
%TF.SameCoordinates,Original*%
%TF.FileFunction,Copper,L1,Top*%
%TF.FilePolarity,Positive*%
%FSLAX46Y46*%
G04 Gerber Fmt 4.6, Leading zero omitted, Abs format (unit mm)*
G04 Created by KiCad (PCBNEW (5.1.8)-1) date 2020-12-18 16:25:39*
%MOMM*%
%LPD*%
G01*
G04 APERTURE LIST*
%TA.AperFunction,SMDPad,CuDef*%
%ADD10R,1.900000X1.900000*%
%TD*%
%TA.AperFunction,SMDPad,CuDef*%
%ADD11R,1.500000X2.200000*%
%TD*%
%TA.AperFunction,SMDPad,CuDef*%
%ADD12R,0.350000X1.450000*%
%TD*%
%TA.AperFunction,SMDPad,CuDef*%
%ADD13R,1.473200X0.279400*%
%TD*%
%TA.AperFunction,SMDPad,CuDef*%
%ADD14R,0.279400X1.473200*%
%TD*%
%TA.AperFunction,ViaPad*%
%ADD15C,0.469900*%
%TD*%
%TA.AperFunction,ViaPad*%
%ADD16C,0.635000*%
%TD*%
%TA.AperFunction,Conductor*%
%ADD17C,0.279400*%
%TD*%
%TA.AperFunction,Conductor*%
%ADD18C,0.127000*%
%TD*%
%TA.AperFunction,Conductor*%
%ADD19C,0.152400*%
%TD*%
%TA.AperFunction,Conductor*%
%ADD20C,0.100000*%
%TD*%
G04 APERTURE END LIST*
%TO.P,R4,2*%
%TO.N,USB-D-*%
%TA.AperFunction,SMDPad,CuDef*%
G36*
G01*
X138235700Y-68040800D02*
X137760700Y-68040800D01*
G75*
G02*
X137523200Y-67803300I0J237500D01*
G01*
X137523200Y-67228300D01*
G75*
G02*
X137760700Y-66990800I237500J0D01*
G01*
X138235700Y-66990800D01*
G75*
G02*
X138473200Y-67228300I0J-237500D01*
G01*
X138473200Y-67803300D01*
G75*
G02*
X138235700Y-68040800I-237500J0D01*
G01*
G37*
%TD.AperFunction*%
%TO.P,R4,1*%
%TO.N,Net-(J1-Pad5)*%
%TA.AperFunction,SMDPad,CuDef*%
G36*
G01*
X138235700Y-69790800D02*
X137760700Y-69790800D01*
G75*
G02*
X137523200Y-69553300I0J237500D01*
G01*
X137523200Y-68978300D01*
G75*
G02*
X137760700Y-68740800I237500J0D01*
G01*
X138235700Y-68740800D01*
G75*
G02*
X138473200Y-68978300I0J-237500D01*
G01*
X138473200Y-69553300D01*
G75*
G02*
X138235700Y-69790800I-237500J0D01*
G01*
G37*
%TD.AperFunction*%
%TD*%
%TO.P,R5,2*%
%TO.N,USB-D+*%
%TA.AperFunction,SMDPad,CuDef*%
G36*
G01*
X139454900Y-68052200D02*
X138979900Y-68052200D01*
G75*
G02*
X138742400Y-67814700I0J237500D01*
G01*
X138742400Y-67239700D01*
G75*
G02*
X138979900Y-67002200I237500J0D01*
G01*
X139454900Y-67002200D01*
G75*
G02*
X139692400Y-67239700I0J-237500D01*
G01*
X139692400Y-67814700D01*
G75*
G02*
X139454900Y-68052200I-237500J0D01*
G01*
G37*
%TD.AperFunction*%
%TO.P,R5,1*%
%TO.N,Net-(J1-Pad3)*%
%TA.AperFunction,SMDPad,CuDef*%
G36*
G01*
X139454900Y-69802200D02*
X138979900Y-69802200D01*
G75*
G02*
X138742400Y-69564700I0J237500D01*
G01*
X138742400Y-68989700D01*
G75*
G02*
X138979900Y-68752200I237500J0D01*
G01*
X139454900Y-68752200D01*
G75*
G02*
X139692400Y-68989700I0J-237500D01*
G01*
X139692400Y-69564700D01*
G75*
G02*
X139454900Y-69802200I-237500J0D01*
G01*
G37*
%TD.AperFunction*%
%TD*%
D10*
%TO.P,U2,17*%
%TO.N,GND*%
X139928600Y-64465200D03*
%TO.P,U2,16*%
%TO.N,N/C*%
%TA.AperFunction,SMDPad,CuDef*%
G36*
G01*
X141191100Y-63590200D02*
X142066100Y-63590200D01*
G75*
G02*
X142128600Y-63652700I0J-62500D01*
G01*
X142128600Y-63777700D01*
G75*
G02*
X142066100Y-63840200I-62500J0D01*
G01*
X141191100Y-63840200D01*
G75*
G02*
X141128600Y-63777700I0J62500D01*
G01*
X141128600Y-63652700D01*
G75*
G02*
X141191100Y-63590200I62500J0D01*
G01*
G37*
%TD.AperFunction*%
%TO.P,U2,15*%
%TO.N,/PTA1*%
%TA.AperFunction,SMDPad,CuDef*%
G36*
G01*
X141191100Y-64090200D02*
X142066100Y-64090200D01*
G75*
G02*
X142128600Y-64152700I0J-62500D01*
G01*
X142128600Y-64277700D01*
G75*
G02*
X142066100Y-64340200I-62500J0D01*
G01*
X141191100Y-64340200D01*
G75*
G02*
X141128600Y-64277700I0J62500D01*
G01*
X141128600Y-64152700D01*
G75*
G02*
X141191100Y-64090200I62500J0D01*
G01*
G37*
%TD.AperFunction*%
%TO.P,U2,14*%
%TO.N,N/C*%
%TA.AperFunction,SMDPad,CuDef*%
G36*
G01*
X141191100Y-64590200D02*
X142066100Y-64590200D01*
G75*
G02*
X142128600Y-64652700I0J-62500D01*
G01*
X142128600Y-64777700D01*
G75*
G02*
X142066100Y-64840200I-62500J0D01*
G01*
X141191100Y-64840200D01*
G75*
G02*
X141128600Y-64777700I0J62500D01*
G01*
X141128600Y-64652700D01*
G75*
G02*
X141191100Y-64590200I62500J0D01*
G01*
G37*
%TD.AperFunction*%
%TO.P,U2,13*%
%TO.N,RESET*%
%TA.AperFunction,SMDPad,CuDef*%
G36*
G01*
X141191100Y-65090200D02*
X142066100Y-65090200D01*
G75*
G02*
X142128600Y-65152700I0J-62500D01*
G01*
X142128600Y-65277700D01*
G75*
G02*
X142066100Y-65340200I-62500J0D01*
G01*
X141191100Y-65340200D01*
G75*
G02*
X141128600Y-65277700I0J62500D01*
G01*
X141128600Y-65152700D01*
G75*
G02*
X141191100Y-65090200I62500J0D01*
G01*
G37*
%TD.AperFunction*%
%TO.P,U2,12*%
%TO.N,N/C*%
%TA.AperFunction,SMDPad,CuDef*%
G36*
G01*
X140616100Y-65665200D02*
X140741100Y-65665200D01*
G75*
G02*
X140803600Y-65727700I0J-62500D01*
G01*
X140803600Y-66602700D01*
G75*
G02*
X140741100Y-66665200I-62500J0D01*
G01*
X140616100Y-66665200D01*
G75*
G02*
X140553600Y-66602700I0J62500D01*
G01*
X140553600Y-65727700D01*
G75*
G02*
X140616100Y-65665200I62500J0D01*
G01*
G37*
%TD.AperFunction*%
%TO.P,U2,11*%
%TA.AperFunction,SMDPad,CuDef*%
G36*
G01*
X140116100Y-65665200D02*
X140241100Y-65665200D01*
G75*
G02*
X140303600Y-65727700I0J-62500D01*
G01*
X140303600Y-66602700D01*
G75*
G02*
X140241100Y-66665200I-62500J0D01*
G01*
X140116100Y-66665200D01*
G75*
G02*
X140053600Y-66602700I0J62500D01*
G01*
X140053600Y-65727700D01*
G75*
G02*
X140116100Y-65665200I62500J0D01*
G01*
G37*
%TD.AperFunction*%
%TO.P,U2,10*%
%TO.N,BOOT*%
%TA.AperFunction,SMDPad,CuDef*%
G36*
G01*
X139616100Y-65665200D02*
X139741100Y-65665200D01*
G75*
G02*
X139803600Y-65727700I0J-62500D01*
G01*
X139803600Y-66602700D01*
G75*
G02*
X139741100Y-66665200I-62500J0D01*
G01*
X139616100Y-66665200D01*
G75*
G02*
X139553600Y-66602700I0J62500D01*
G01*
X139553600Y-65727700D01*
G75*
G02*
X139616100Y-65665200I62500J0D01*
G01*
G37*
%TD.AperFunction*%
%TO.P,U2,9*%
%TO.N,/PTB1*%
%TA.AperFunction,SMDPad,CuDef*%
G36*
G01*
X139116100Y-65665200D02*
X139241100Y-65665200D01*
G75*
G02*
X139303600Y-65727700I0J-62500D01*
G01*
X139303600Y-66602700D01*
G75*
G02*
X139241100Y-66665200I-62500J0D01*
G01*
X139116100Y-66665200D01*
G75*
G02*
X139053600Y-66602700I0J62500D01*
G01*
X139053600Y-65727700D01*
G75*
G02*
X139116100Y-65665200I62500J0D01*
G01*
G37*
%TD.AperFunction*%
%TO.P,U2,8*%
%TO.N,SWD_CLK*%
%TA.AperFunction,SMDPad,CuDef*%
G36*
G01*
X137791100Y-65090200D02*
X138666100Y-65090200D01*
G75*
G02*
X138728600Y-65152700I0J-62500D01*
G01*
X138728600Y-65277700D01*
G75*
G02*
X138666100Y-65340200I-62500J0D01*
G01*
X137791100Y-65340200D01*
G75*
G02*
X137728600Y-65277700I0J62500D01*
G01*
X137728600Y-65152700D01*
G75*
G02*
X137791100Y-65090200I62500J0D01*
G01*
G37*
%TD.AperFunction*%
%TO.P,U2,7*%
%TO.N,SWD_DIO*%
%TA.AperFunction,SMDPad,CuDef*%
G36*
G01*
X137791100Y-64590200D02*
X138666100Y-64590200D01*
G75*
G02*
X138728600Y-64652700I0J-62500D01*
G01*
X138728600Y-64777700D01*
G75*
G02*
X138666100Y-64840200I-62500J0D01*
G01*
X137791100Y-64840200D01*
G75*
G02*
X137728600Y-64777700I0J62500D01*
G01*
X137728600Y-64652700D01*
G75*
G02*
X137791100Y-64590200I62500J0D01*
G01*
G37*
%TD.AperFunction*%
%TO.P,U2,6*%
%TO.N,/PTA6*%
%TA.AperFunction,SMDPad,CuDef*%
G36*
G01*
X137791100Y-64090200D02*
X138666100Y-64090200D01*
G75*
G02*
X138728600Y-64152700I0J-62500D01*
G01*
X138728600Y-64277700D01*
G75*
G02*
X138666100Y-64340200I-62500J0D01*
G01*
X137791100Y-64340200D01*
G75*
G02*
X137728600Y-64277700I0J62500D01*
G01*
X137728600Y-64152700D01*
G75*
G02*
X137791100Y-64090200I62500J0D01*
G01*
G37*
%TD.AperFunction*%
%TO.P,U2,5*%
%TO.N,N/C*%
%TA.AperFunction,SMDPad,CuDef*%
G36*
G01*
X137791100Y-63590200D02*
X138666100Y-63590200D01*
G75*
G02*
X138728600Y-63652700I0J-62500D01*
G01*
X138728600Y-63777700D01*
G75*
G02*
X138666100Y-63840200I-62500J0D01*
G01*
X137791100Y-63840200D01*
G75*
G02*
X137728600Y-63777700I0J62500D01*
G01*
X137728600Y-63652700D01*
G75*
G02*
X137791100Y-63590200I62500J0D01*
G01*
G37*
%TD.AperFunction*%
%TO.P,U2,4*%
%TO.N,RESET*%
%TA.AperFunction,SMDPad,CuDef*%
G36*
G01*
X139116100Y-62265200D02*
X139241100Y-62265200D01*
G75*
G02*
X139303600Y-62327700I0J-62500D01*
G01*
X139303600Y-63202700D01*
G75*
G02*
X139241100Y-63265200I-62500J0D01*
G01*
X139116100Y-63265200D01*
G75*
G02*
X139053600Y-63202700I0J62500D01*
G01*
X139053600Y-62327700D01*
G75*
G02*
X139116100Y-62265200I62500J0D01*
G01*
G37*
%TD.AperFunction*%
%TO.P,U2,3*%
%TO.N,/PTA3*%
%TA.AperFunction,SMDPad,CuDef*%
G36*
G01*
X139616100Y-62265200D02*
X139741100Y-62265200D01*
G75*
G02*
X139803600Y-62327700I0J-62500D01*
G01*
X139803600Y-63202700D01*
G75*
G02*
X139741100Y-63265200I-62500J0D01*
G01*
X139616100Y-63265200D01*
G75*
G02*
X139553600Y-63202700I0J62500D01*
G01*
X139553600Y-62327700D01*
G75*
G02*
X139616100Y-62265200I62500J0D01*
G01*
G37*
%TD.AperFunction*%
%TO.P,U2,2*%
%TO.N,GND*%
%TA.AperFunction,SMDPad,CuDef*%
G36*
G01*
X140116100Y-62265200D02*
X140241100Y-62265200D01*
G75*
G02*
X140303600Y-62327700I0J-62500D01*
G01*
X140303600Y-63202700D01*
G75*
G02*
X140241100Y-63265200I-62500J0D01*
G01*
X140116100Y-63265200D01*
G75*
G02*
X140053600Y-63202700I0J62500D01*
G01*
X140053600Y-62327700D01*
G75*
G02*
X140116100Y-62265200I62500J0D01*
G01*
G37*
%TD.AperFunction*%
%TO.P,U2,1*%
%TO.N,+3V3*%
%TA.AperFunction,SMDPad,CuDef*%
G36*
G01*
X140616100Y-62265200D02*
X140741100Y-62265200D01*
G75*
G02*
X140803600Y-62327700I0J-62500D01*
G01*
X140803600Y-63202700D01*
G75*
G02*
X140741100Y-63265200I-62500J0D01*
G01*
X140616100Y-63265200D01*
G75*
G02*
X140553600Y-63202700I0J62500D01*
G01*
X140553600Y-62327700D01*
G75*
G02*
X140616100Y-62265200I62500J0D01*
G01*
G37*
%TD.AperFunction*%
%TD*%
D11*
%TO.P,Y1,2*%
%TO.N,Net-(U1-Pad33)*%
X135831400Y-57861200D03*
%TO.P,Y1,1*%
%TO.N,Net-(U1-Pad32)*%
X138031400Y-57861200D03*
%TD*%
D12*
%TO.P,J1,75*%
%TO.N,GND*%
X122905100Y-74290000D03*
%TO.P,J1,73*%
%TO.N,D20-PTD5*%
X123405100Y-74290000D03*
%TO.P,J1,71*%
%TO.N,D21-PTD6*%
X123905100Y-74290000D03*
%TO.P,J1,69*%
%TO.N,D05-PTD7*%
X124405100Y-74290000D03*
%TO.P,J1,67*%
%TO.N,D27_A16*%
X124905100Y-74290000D03*
%TO.P,J1,65*%
%TO.N,ADC0_P*%
X125405100Y-74290000D03*
%TO.P,J1,63*%
%TO.N,ADC0_N*%
X125905100Y-74290000D03*
%TO.P,J1,61*%
%TO.N,D12-MISO*%
X126405100Y-74290000D03*
%TO.P,J1,59*%
%TO.N,D11-MOSI*%
X126905100Y-74290000D03*
%TO.P,J1,57*%
%TO.N,D13-SCK*%
X127405100Y-74290000D03*
%TO.P,J1,55*%
%TO.N,D15-CS*%
X127905100Y-74290000D03*
%TO.P,J1,53*%
%TO.N,D29-SCL1*%
X128405100Y-74290000D03*
%TO.P,J1,51*%
%TO.N,D30-SDA1*%
X128905100Y-74290000D03*
%TO.P,J1,49*%
%TO.N,D26_A15-BAT_VIN3*%
X129405100Y-74290000D03*
%TO.P,J1,47*%
%TO.N,D22-A8*%
X129905100Y-74290000D03*
%TO.P,J1,45*%
%TO.N,GND*%
X130405100Y-74290000D03*
%TO.P,J1,43*%
%TO.N,D03-CAN-TX*%
X130905100Y-74290000D03*
%TO.P,J1,41*%
%TO.N,D04-CAN-TX*%
X131405100Y-74290000D03*
%TO.P,J1,39*%
%TO.N,GND*%
X131905100Y-74290000D03*
%TO.P,J1,37*%
%TO.N,N/C*%
X132405100Y-74290000D03*
%TO.P,J1,35*%
X132905100Y-74290000D03*
%TO.P,J1,33*%
%TO.N,GND*%
X133405100Y-74290000D03*
%TO.P,J1,23*%
%TO.N,SWD_DIO*%
X135905100Y-74290000D03*
%TO.P,J1,21*%
%TO.N,SWD_CLK*%
X136405100Y-74290000D03*
%TO.P,J1,19*%
%TO.N,D00-RX1*%
X136905100Y-74290000D03*
%TO.P,J1,17*%
%TO.N,D01-TX1*%
X137405100Y-74290000D03*
%TO.P,J1,15*%
%TO.N,D32-CTS1*%
X137905100Y-74290000D03*
%TO.P,J1,13*%
%TO.N,D25-RTS1*%
X138405100Y-74290000D03*
%TO.P,J1,11*%
%TO.N,BOOT*%
X138905100Y-74290000D03*
%TO.P,J1,9*%
%TO.N,N/C*%
X139405100Y-74290000D03*
%TO.P,J1,7*%
%TO.N,GND*%
X139905100Y-74290000D03*
%TO.P,J1,5*%
%TO.N,Net-(J1-Pad5)*%
X140405100Y-74290000D03*
%TO.P,J1,3*%
%TO.N,Net-(J1-Pad3)*%
X140905100Y-74290000D03*
%TO.P,J1,1*%
%TO.N,GND*%
X141405100Y-74290000D03*
%TD*%
D13*
%TO.P,U1,64*%
%TO.N,D05-PTD7*%
X124206000Y-67005200D03*
%TO.P,U1,63*%
%TO.N,D21-PTD6*%
X124206000Y-66497200D03*
%TO.P,U1,62*%
%TO.N,D20-PTD5*%
X124206000Y-65989200D03*
%TO.P,U1,61*%
%TO.N,D06-PTD4*%
X124206000Y-65506600D03*
%TO.P,U1,60*%
%TO.N,D08-PTD3*%
X124206000Y-64998600D03*
%TO.P,U1,59*%
%TO.N,D07-PTD2*%
X124206000Y-64490600D03*
%TO.P,U1,58*%
%TO.N,D14-PTD1*%
X124206000Y-64008000D03*
%TO.P,U1,57*%
%TO.N,D02-PTD0*%
X124206000Y-63500000D03*
%TO.P,U1,56*%
%TO.N,D30-SDA1*%
X124206000Y-62992000D03*
%TO.P,U1,55*%
%TO.N,D29-SCL1*%
X124206000Y-62484000D03*
%TO.P,U1,54*%
%TO.N,D27_A16*%
X124206000Y-62001400D03*
%TO.P,U1,53*%
%TO.N,D28_A17*%
X124206000Y-61493400D03*
%TO.P,U1,52*%
%TO.N,D12-MISO*%
X124206000Y-60985400D03*
%TO.P,U1,51*%
%TO.N,D11-MOSI*%
X124206000Y-60502800D03*
%TO.P,U1,50*%
%TO.N,D13-SCK*%
X124206000Y-59994800D03*
%TO.P,U1,49*%
%TO.N,D10-TX2*%
X124206000Y-59486800D03*
D14*
%TO.P,U1,48*%
%TO.N,+3V3*%
X126161800Y-57531000D03*
%TO.P,U1,47*%
%TO.N,GND*%
X126669800Y-57531000D03*
%TO.P,U1,46*%
%TO.N,D09-RX2*%
X127177800Y-57531000D03*
%TO.P,U1,45*%
%TO.N,D23*%
X127660400Y-57531000D03*
%TO.P,U1,44*%
%TO.N,D22-A8*%
X128168400Y-57531000D03*
%TO.P,U1,43*%
%TO.N,D15-CS*%
X128676400Y-57531000D03*
%TO.P,U1,42*%
%TO.N,D25-RTS1*%
X129159000Y-57531000D03*
%TO.P,U1,41*%
%TO.N,D32-CTS1*%
X129667000Y-57531000D03*
%TO.P,U1,40*%
%TO.N,D01-TX1*%
X130175000Y-57531000D03*
%TO.P,U1,39*%
%TO.N,D00-RX1*%
X130683000Y-57531000D03*
%TO.P,U1,38*%
%TO.N,D18-SDA0*%
X131165600Y-57531000D03*
%TO.P,U1,37*%
%TO.N,D19-SCL0*%
X131673600Y-57531000D03*
%TO.P,U1,36*%
%TO.N,D17_A3*%
X132181600Y-57531000D03*
%TO.P,U1,35*%
%TO.N,D16_A2*%
X132664200Y-57531000D03*
%TO.P,U1,34*%
%TO.N,RESET*%
X133172200Y-57531000D03*
%TO.P,U1,33*%
%TO.N,Net-(U1-Pad33)*%
X133680200Y-57531000D03*
D13*
%TO.P,U1,32*%
%TO.N,Net-(U1-Pad32)*%
X135636000Y-59486800D03*
%TO.P,U1,31*%
%TO.N,GND*%
X135636000Y-59994800D03*
%TO.P,U1,30*%
%TO.N,+3V3*%
X135636000Y-60502800D03*
%TO.P,U1,29*%
%TO.N,D04-CAN-TX*%
X135636000Y-60985400D03*
%TO.P,U1,28*%
%TO.N,D03-CAN-TX*%
X135636000Y-61493400D03*
%TO.P,U1,27*%
%TO.N,D24-I2C-INT*%
X135636000Y-62001400D03*
%TO.P,U1,26*%
%TO.N,N/C*%
X135636000Y-62484000D03*
%TO.P,U1,25*%
%TO.N,SWD_DIO*%
X135636000Y-62992000D03*
%TO.P,U1,24*%
%TO.N,/PTB1*%
X135636000Y-63500000D03*
%TO.P,U1,23*%
%TO.N,/PTA6*%
X135636000Y-64008000D03*
%TO.P,U1,22*%
%TO.N,SWD_CLK*%
X135636000Y-64490600D03*
%TO.P,U1,21*%
%TO.N,Net-(D2-Pad3)*%
X135636000Y-64998600D03*
%TO.P,U1,20*%
%TO.N,Net-(U1-Pad20)*%
X135636000Y-65506600D03*
%TO.P,U1,19*%
%TO.N,Net-(U1-Pad19)*%
X135636000Y-65989200D03*
%TO.P,U1,18*%
%TO.N,DAC*%
X135636000Y-66497200D03*
%TO.P,U1,17*%
%TO.N,N/C*%
X135636000Y-67005200D03*
D14*
%TO.P,U1,16*%
%TO.N,GND*%
X133680200Y-68961000D03*
%TO.P,U1,15*%
X133172200Y-68961000D03*
%TO.P,U1,14*%
%TO.N,+3V3*%
X132664200Y-68961000D03*
%TO.P,U1,13*%
X132181600Y-68961000D03*
%TO.P,U1,12*%
%TO.N,ADC1_N*%
X131673600Y-68961000D03*
%TO.P,U1,11*%
%TO.N,ADC1_P*%
X131165600Y-68961000D03*
%TO.P,U1,10*%
%TO.N,ADC0_N*%
X130683000Y-68961000D03*
%TO.P,U1,9*%
%TO.N,ADC0_P*%
X130175000Y-68961000D03*
%TO.P,U1,8*%
%TO.N,N/C*%
X129667000Y-68961000D03*
%TO.P,U1,7*%
%TO.N,+3V3*%
X129159000Y-68961000D03*
%TO.P,U1,6*%
%TO.N,USB-D-*%
X128676400Y-68961000D03*
%TO.P,U1,5*%
%TO.N,USB-D+*%
X128168400Y-68961000D03*
%TO.P,U1,4*%
%TO.N,GND*%
X127660400Y-68961000D03*
%TO.P,U1,3*%
%TO.N,+3V3*%
X127177800Y-68961000D03*
%TO.P,U1,2*%
%TO.N,D26_A15-BAT_VIN3*%
X126669800Y-68961000D03*
%TO.P,U1,1*%
%TO.N,N/C*%
X126161800Y-68961000D03*
%TD*%
%TO.P,C1,2*%
%TO.N,GND*%
%TA.AperFunction,SMDPad,CuDef*%
G36*
G01*
X123717000Y-68723500D02*
X123717000Y-69198500D01*
G75*
G02*
X123479500Y-69436000I-237500J0D01*
G01*
X122879500Y-69436000D01*
G75*
G02*
X122642000Y-69198500I0J237500D01*
G01*
X122642000Y-68723500D01*
G75*
G02*
X122879500Y-68486000I237500J0D01*
G01*
X123479500Y-68486000D01*
G75*
G02*
X123717000Y-68723500I0J-237500D01*
G01*
G37*
%TD.AperFunction*%
%TO.P,C1,1*%
%TO.N,+3V3*%
%TA.AperFunction,SMDPad,CuDef*%
G36*
G01*
X125442000Y-68723500D02*
X125442000Y-69198500D01*
G75*
G02*
X125204500Y-69436000I-237500J0D01*
G01*
X124604500Y-69436000D01*
G75*
G02*
X124367000Y-69198500I0J237500D01*
G01*
X124367000Y-68723500D01*
G75*
G02*
X124604500Y-68486000I237500J0D01*
G01*
X125204500Y-68486000D01*
G75*
G02*
X125442000Y-68723500I0J-237500D01*
G01*
G37*
%TD.AperFunction*%
%TD*%
%TO.P,R1,2*%
%TO.N,GND*%
%TA.AperFunction,SMDPad,CuDef*%
G36*
G01*
X123909600Y-57641500D02*
X123909600Y-57166500D01*
G75*
G02*
X124147100Y-56929000I237500J0D01*
G01*
X124722100Y-56929000D01*
G75*
G02*
X124959600Y-57166500I0J-237500D01*
G01*
X124959600Y-57641500D01*
G75*
G02*
X124722100Y-57879000I-237500J0D01*
G01*
X124147100Y-57879000D01*
G75*
G02*
X123909600Y-57641500I0J237500D01*
G01*
G37*
%TD.AperFunction*%
%TO.P,R1,1*%
%TO.N,Net-(D1-Pad1)*%
%TA.AperFunction,SMDPad,CuDef*%
G36*
G01*
X122159600Y-57641500D02*
X122159600Y-57166500D01*
G75*
G02*
X122397100Y-56929000I237500J0D01*
G01*
X122972100Y-56929000D01*
G75*
G02*
X123209600Y-57166500I0J-237500D01*
G01*
X123209600Y-57641500D01*
G75*
G02*
X122972100Y-57879000I-237500J0D01*
G01*
X122397100Y-57879000D01*
G75*
G02*
X122159600Y-57641500I0J237500D01*
G01*
G37*
%TD.AperFunction*%
%TD*%
%TO.P,D1,2*%
%TO.N,Net-(D1-Pad2)*%
%TA.AperFunction,SMDPad,CuDef*%
G36*
G01*
X123961200Y-56126801D02*
X123961200Y-55226799D01*
G75*
G02*
X124211199Y-54976800I249999J0D01*
G01*
X124861201Y-54976800D01*
G75*
G02*
X125111200Y-55226799I0J-249999D01*
G01*
X125111200Y-56126801D01*
G75*
G02*
X124861201Y-56376800I-249999J0D01*
G01*
X124211199Y-56376800D01*
G75*
G02*
X123961200Y-56126801I0J249999D01*
G01*
G37*
%TD.AperFunction*%
%TO.P,D1,1*%
%TO.N,Net-(D1-Pad1)*%
%TA.AperFunction,SMDPad,CuDef*%
G36*
G01*
X121911200Y-56126801D02*
X121911200Y-55226799D01*
G75*
G02*
X122161199Y-54976800I249999J0D01*
G01*
X122811201Y-54976800D01*
G75*
G02*
X123061200Y-55226799I0J-249999D01*
G01*
X123061200Y-56126801D01*
G75*
G02*
X122811201Y-56376800I-249999J0D01*
G01*
X122161199Y-56376800D01*
G75*
G02*
X121911200Y-56126801I0J249999D01*
G01*
G37*
%TD.AperFunction*%
%TD*%
%TO.P,C4,2*%
%TO.N,GND*%
%TA.AperFunction,SMDPad,CuDef*%
G36*
G01*
X136188500Y-69350900D02*
X136188500Y-68875900D01*
G75*
G02*
X136426000Y-68638400I237500J0D01*
G01*
X137026000Y-68638400D01*
G75*
G02*
X137263500Y-68875900I0J-237500D01*
G01*
X137263500Y-69350900D01*
G75*
G02*
X137026000Y-69588400I-237500J0D01*
G01*
X136426000Y-69588400D01*
G75*
G02*
X136188500Y-69350900I0J237500D01*
G01*
G37*
%TD.AperFunction*%
%TO.P,C4,1*%
%TO.N,+3V3*%
%TA.AperFunction,SMDPad,CuDef*%
G36*
G01*
X134463500Y-69350900D02*
X134463500Y-68875900D01*
G75*
G02*
X134701000Y-68638400I237500J0D01*
G01*
X135301000Y-68638400D01*
G75*
G02*
X135538500Y-68875900I0J-237500D01*
G01*
X135538500Y-69350900D01*
G75*
G02*
X135301000Y-69588400I-237500J0D01*
G01*
X134701000Y-69588400D01*
G75*
G02*
X134463500Y-69350900I0J237500D01*
G01*
G37*
%TD.AperFunction*%
%TD*%
%TO.P,C3,2*%
%TO.N,GND*%
%TA.AperFunction,SMDPad,CuDef*%
G36*
G01*
X127362000Y-55736500D02*
X127362000Y-55261500D01*
G75*
G02*
X127599500Y-55024000I237500J0D01*
G01*
X128199500Y-55024000D01*
G75*
G02*
X128437000Y-55261500I0J-237500D01*
G01*
X128437000Y-55736500D01*
G75*
G02*
X128199500Y-55974000I-237500J0D01*
G01*
X127599500Y-55974000D01*
G75*
G02*
X127362000Y-55736500I0J237500D01*
G01*
G37*
%TD.AperFunction*%
%TO.P,C3,1*%
%TO.N,+3V3*%
%TA.AperFunction,SMDPad,CuDef*%
G36*
G01*
X125637000Y-55736500D02*
X125637000Y-55261500D01*
G75*
G02*
X125874500Y-55024000I237500J0D01*
G01*
X126474500Y-55024000D01*
G75*
G02*
X126712000Y-55261500I0J-237500D01*
G01*
X126712000Y-55736500D01*
G75*
G02*
X126474500Y-55974000I-237500J0D01*
G01*
X125874500Y-55974000D01*
G75*
G02*
X125637000Y-55736500I0J237500D01*
G01*
G37*
%TD.AperFunction*%
%TD*%
%TO.P,C2,2*%
%TO.N,GND*%
%TA.AperFunction,SMDPad,CuDef*%
G36*
G01*
X139009000Y-60753000D02*
X139009000Y-60278000D01*
G75*
G02*
X139246500Y-60040500I237500J0D01*
G01*
X139846500Y-60040500D01*
G75*
G02*
X140084000Y-60278000I0J-237500D01*
G01*
X140084000Y-60753000D01*
G75*
G02*
X139846500Y-60990500I-237500J0D01*
G01*
X139246500Y-60990500D01*
G75*
G02*
X139009000Y-60753000I0J237500D01*
G01*
G37*
%TD.AperFunction*%
%TO.P,C2,1*%
%TO.N,+3V3*%
%TA.AperFunction,SMDPad,CuDef*%
G36*
G01*
X137284000Y-60753000D02*
X137284000Y-60278000D01*
G75*
G02*
X137521500Y-60040500I237500J0D01*
G01*
X138121500Y-60040500D01*
G75*
G02*
X138359000Y-60278000I0J-237500D01*
G01*
X138359000Y-60753000D01*
G75*
G02*
X138121500Y-60990500I-237500J0D01*
G01*
X137521500Y-60990500D01*
G75*
G02*
X137284000Y-60753000I0J237500D01*
G01*
G37*
%TD.AperFunction*%
%TD*%
%TO.P,R2,2*%
%TO.N,RESET*%
%TA.AperFunction,SMDPad,CuDef*%
G36*
G01*
X141893300Y-68052200D02*
X141418300Y-68052200D01*
G75*
G02*
X141180800Y-67814700I0J237500D01*
G01*
X141180800Y-67239700D01*
G75*
G02*
X141418300Y-67002200I237500J0D01*
G01*
X141893300Y-67002200D01*
G75*
G02*
X142130800Y-67239700I0J-237500D01*
G01*
X142130800Y-67814700D01*
G75*
G02*
X141893300Y-68052200I-237500J0D01*
G01*
G37*
%TD.AperFunction*%
%TO.P,R2,1*%
%TO.N,+3V3*%
%TA.AperFunction,SMDPad,CuDef*%
G36*
G01*
X141893300Y-69802200D02*
X141418300Y-69802200D01*
G75*
G02*
X141180800Y-69564700I0J237500D01*
G01*
X141180800Y-68989700D01*
G75*
G02*
X141418300Y-68752200I237500J0D01*
G01*
X141893300Y-68752200D01*
G75*
G02*
X142130800Y-68989700I0J-237500D01*
G01*
X142130800Y-69564700D01*
G75*
G02*
X141893300Y-69802200I-237500J0D01*
G01*
G37*
%TD.AperFunction*%
%TD*%
%TO.P,R3,2*%
%TO.N,+3V3*%
%TA.AperFunction,SMDPad,CuDef*%
G36*
G01*
X140199100Y-68752200D02*
X140674100Y-68752200D01*
G75*
G02*
X140911600Y-68989700I0J-237500D01*
G01*
X140911600Y-69564700D01*
G75*
G02*
X140674100Y-69802200I-237500J0D01*
G01*
X140199100Y-69802200D01*
G75*
G02*
X139961600Y-69564700I0J237500D01*
G01*
X139961600Y-68989700D01*
G75*
G02*
X140199100Y-68752200I237500J0D01*
G01*
G37*
%TD.AperFunction*%
%TO.P,R3,1*%
%TO.N,BOOT*%
%TA.AperFunction,SMDPad,CuDef*%
G36*
G01*
X140199100Y-67002200D02*
X140674100Y-67002200D01*
G75*
G02*
X140911600Y-67239700I0J-237500D01*
G01*
X140911600Y-67814700D01*
G75*
G02*
X140674100Y-68052200I-237500J0D01*
G01*
X140199100Y-68052200D01*
G75*
G02*
X139961600Y-67814700I0J237500D01*
G01*
X139961600Y-67239700D01*
G75*
G02*
X140199100Y-67002200I237500J0D01*
G01*
G37*
%TD.AperFunction*%
%TD*%
D15*
%TO.N,GND*%
X128651000Y-62230000D03*
D16*
X129209800Y-55473600D03*
X139877800Y-64427100D03*
X141554200Y-71272400D03*
X132664190Y-72694800D03*
X123190000Y-68041098D03*
X121869200Y-70739000D03*
X139647090Y-71577200D03*
D15*
X128003300Y-70396092D03*
X130352800Y-64998600D03*
X139546500Y-60515500D03*
D16*
X132714283Y-71247717D03*
D15*
%TO.N,+3V3*%
X127393700Y-60947300D03*
D16*
X141401800Y-62763400D03*
X126161800Y-54559200D03*
D15*
X125450600Y-58674000D03*
D16*
X124548900Y-70091300D03*
X123469390Y-72186800D03*
X134956506Y-68224400D03*
X141655800Y-69277200D03*
X141528800Y-70256400D03*
X127088977Y-70060765D03*
X128993894Y-70142122D03*
X137821500Y-60515472D03*
D15*
%TO.N,USB-D-*%
X137998200Y-67515896D03*
X128447800Y-67856100D03*
%TO.N,USB-D+*%
X139217400Y-67527166D03*
X127819110Y-67862418D03*
%TO.N,BOOT*%
X140265140Y-67527200D03*
X139477771Y-70637396D03*
%TO.N,RESET*%
X133781798Y-58674000D03*
X137972800Y-62738000D03*
X141706600Y-66547996D03*
%TO.N,SWD_CLK*%
X130644801Y-63728281D03*
X135768284Y-71905559D03*
%TO.N,SWD_DIO*%
X137439400Y-63017400D03*
X137433060Y-64708097D03*
X130586352Y-63134237D03*
X135342824Y-71483522D03*
%TO.N,/PTB1*%
X136804402Y-66040000D03*
X133675056Y-63138021D03*
%TO.N,D06-PTD4*%
X127679562Y-65570100D03*
%TO.N,D08-PTD3*%
X127917846Y-64577124D03*
%TO.N,D07-PTD2*%
X127895155Y-63980644D03*
%TO.N,D14-PTD1*%
X128388808Y-63645069D03*
%TO.N,D02-PTD0*%
X129047064Y-63083329D03*
%TO.N,Net-(D1-Pad2)*%
X123926600Y-58674000D03*
%TO.N,DAC*%
X129808110Y-66524652D03*
%TO.N,D32-CTS1*%
X130377905Y-59690287D03*
X136919094Y-71495274D03*
%TO.N,D25-RTS1*%
X129159002Y-58674000D03*
X134092940Y-71197611D03*
%TO.N,ADC1_P*%
X131643926Y-70414800D03*
%TO.N,ADC1_N*%
X132148009Y-70734493D03*
%TO.N,D13-SCK*%
X125425617Y-59931811D03*
X127339300Y-72284142D03*
%TO.N,/PTA3*%
X139674600Y-61925200D03*
%TO.N,/PTA1*%
X142367000Y-64211200D03*
%TO.N,D01-TX1*%
X131904630Y-60167152D03*
X137808847Y-72606859D03*
%TO.N,D00-RX1*%
X130611191Y-58666684D03*
X137141957Y-72049021D03*
%TO.N,D10-TX2*%
X129937010Y-60724189D03*
%TO.N,D09-RX2*%
X130797499Y-60151191D03*
%TO.N,D12-MISO*%
X125450589Y-61125111D03*
X126084571Y-72491044D03*
%TO.N,D11-MOSI*%
X126918286Y-72708366D03*
X125450600Y-60528200D03*
%TO.N,D15-CS*%
X127635000Y-59217489D03*
X127886027Y-72705838D03*
%TO.N,D17_A3*%
X132308600Y-58645444D03*
X135836644Y-70386756D03*
X138248452Y-70162609D03*
%TO.N,D19-SCL0*%
X131591060Y-58674000D03*
%TO.N,D18-SDA0*%
X132142382Y-59317563D03*
%TO.N,D16_A2*%
X132990595Y-58647699D03*
%TO.N,D22-A8*%
X128229206Y-58679972D03*
X130117787Y-72339194D03*
%TO.N,D27_A16*%
X125450600Y-61976022D03*
X124942679Y-72288400D03*
%TO.N,D28_A17*%
X133419893Y-61030325D03*
%TO.N,D03-CAN-TX*%
X129108200Y-61829983D03*
X131476721Y-72411038D03*
%TO.N,D04-CAN-TX*%
X129086099Y-60971206D03*
X134425227Y-71769310D03*
%TO.N,D29-SCL1*%
X128320374Y-72296391D03*
X127312834Y-62456075D03*
%TO.N,D30-SDA1*%
X128799040Y-72703050D03*
X127209544Y-63043982D03*
%TO.N,D24-I2C-INT*%
X131567093Y-62178571D03*
%TO.N,D26_A15-BAT_VIN3*%
X129266875Y-72332329D03*
X127095821Y-70809421D03*
%TO.N,D23*%
X127635000Y-56515000D03*
%TO.N,Net-(U1-Pad20)*%
X136799840Y-65443106D03*
%TO.N,Net-(U1-Pad19)*%
X134251842Y-64812751D03*
%TO.N,Net-(D2-Pad3)*%
X125304584Y-65936358D03*
%TD*%
D17*
%TO.N,GND*%
X139569000Y-60538000D02*
X139546500Y-60515500D01*
X131905100Y-73285600D02*
X131905100Y-74290000D01*
X132664190Y-72694800D02*
X132495900Y-72694800D01*
X132495900Y-72694800D02*
X131905100Y-73285600D01*
X132867400Y-72694800D02*
X132664190Y-72694800D01*
X133405100Y-74290000D02*
X133405100Y-73232500D01*
X133405100Y-73232500D02*
X132867400Y-72694800D01*
X123179500Y-68051598D02*
X123190000Y-68041098D01*
X123179500Y-68961000D02*
X123179500Y-68051598D01*
X122905100Y-73285600D02*
X122885189Y-73265689D01*
X122885189Y-71754989D02*
X121869200Y-70739000D01*
X122905100Y-74290000D02*
X122905100Y-73285600D01*
X122885189Y-73265689D02*
X122885189Y-71754989D01*
X139905100Y-74290000D02*
X139905100Y-71835210D01*
X139905100Y-71835210D02*
X139647090Y-71577200D01*
X127660400Y-69720923D02*
X128003300Y-70063823D01*
X127660400Y-68961000D02*
X127660400Y-69720923D01*
X128003300Y-70063823D02*
X128003300Y-70396092D01*
X123179500Y-68961000D02*
X123179500Y-69679884D01*
X139546500Y-60515500D02*
X139546500Y-60515500D01*
X139546500Y-60515500D02*
X139546500Y-60515500D01*
X134053441Y-69908559D02*
X132714283Y-71247717D01*
X133172200Y-68961000D02*
X133172200Y-70789800D01*
X133172200Y-70789800D02*
X132714283Y-71247717D01*
X133680200Y-68961000D02*
X133680200Y-70281800D01*
X135677941Y-69908559D02*
X134053441Y-69908559D01*
X133680200Y-70281800D02*
X132714283Y-71247717D01*
X136625500Y-68961000D02*
X135677941Y-69908559D01*
%TO.N,+3V3*%
X126161800Y-55257700D02*
X126174500Y-55245000D01*
X126161800Y-57531000D02*
X126161800Y-55257700D01*
X137808800Y-60502800D02*
X137821500Y-60515500D01*
X135636000Y-60502800D02*
X137808800Y-60502800D01*
X126174500Y-55499000D02*
X126174500Y-54571900D01*
X126174500Y-54571900D02*
X126161800Y-54559200D01*
X124904500Y-68961000D02*
X124904500Y-69811910D01*
X124904500Y-69811910D02*
X124587010Y-70129400D01*
X141400000Y-62765200D02*
X141401800Y-62763400D01*
X140678600Y-62765200D02*
X141400000Y-62765200D01*
X134747000Y-67970400D02*
X134734299Y-67957699D01*
X132664200Y-67970400D02*
X132651499Y-67957699D01*
X132664200Y-68961000D02*
X132664200Y-67970400D01*
X132651499Y-67957699D02*
X132346699Y-67957699D01*
X134734299Y-67957699D02*
X132651499Y-67957699D01*
X132181600Y-68122798D02*
X132346699Y-67957699D01*
X132181600Y-68961000D02*
X132181600Y-68122798D01*
X134956506Y-68179906D02*
X134956506Y-68224400D01*
X135001000Y-69113400D02*
X135001000Y-68268894D01*
X135001000Y-68268894D02*
X134956506Y-68224400D01*
X134734299Y-67957699D02*
X134956506Y-68179906D01*
X140436600Y-69277200D02*
X141655800Y-69277200D01*
X127177800Y-69971942D02*
X127088977Y-70060765D01*
X127177800Y-68961000D02*
X127177800Y-69971942D01*
X129159000Y-68961000D02*
X129159000Y-69977016D01*
X129159000Y-69977016D02*
X128993894Y-70142122D01*
X137821500Y-60515500D02*
X137821500Y-60515472D01*
D18*
%TO.N,Net-(U1-Pad33)*%
X133680200Y-57531000D02*
X135933000Y-57531000D01*
%TO.N,Net-(U1-Pad32)*%
X138133000Y-58082000D02*
X138133000Y-57531000D01*
X135636000Y-59486800D02*
X136728200Y-59486800D01*
X136728200Y-59486800D02*
X138133000Y-58082000D01*
%TO.N,USB-D-*%
X128676400Y-68961000D02*
X128676400Y-68084700D01*
X128676400Y-68084700D02*
X128447800Y-67856100D01*
X137998200Y-67515800D02*
X137998200Y-67515896D01*
X128676400Y-68961000D02*
X128701800Y-68935600D01*
%TO.N,USB-D+*%
X128168400Y-68211708D02*
X127819110Y-67862418D01*
X128168400Y-68961000D02*
X128168400Y-68211708D01*
X139217400Y-67527200D02*
X139217400Y-67527166D01*
%TO.N,BOOT*%
X139678600Y-66165200D02*
X139678600Y-66858100D01*
X139678600Y-66858100D02*
X140265140Y-67444640D01*
X140265140Y-67444640D02*
X140265140Y-67527200D01*
X138905100Y-74290000D02*
X138905100Y-71210067D01*
X138905100Y-71210067D02*
X139477771Y-70637396D01*
%TO.N,RESET*%
X133172200Y-58203881D02*
X133642319Y-58674000D01*
X133642319Y-58674000D02*
X133781798Y-58674000D01*
X133172200Y-57531000D02*
X133172200Y-58203881D01*
X138000000Y-62765200D02*
X137972800Y-62738000D01*
X139178600Y-62765200D02*
X138000000Y-62765200D01*
X141831800Y-65215200D02*
X141628600Y-65215200D01*
X141706600Y-65293200D02*
X141706600Y-66547996D01*
X141628600Y-65215200D02*
X141706600Y-65293200D01*
X141706600Y-67578000D02*
X141693900Y-67590700D01*
X141706600Y-67476400D02*
X141655800Y-67527200D01*
X141706600Y-66547996D02*
X141706600Y-67476400D01*
%TO.N,SWD_CLK*%
X137254930Y-65215200D02*
X138431800Y-65215200D01*
X135636000Y-64490600D02*
X136530330Y-64490600D01*
X136530330Y-64490600D02*
X137254930Y-65215200D01*
X130670531Y-63754011D02*
X130644801Y-63728281D01*
X134233039Y-63754011D02*
X130670531Y-63754011D01*
X134969628Y-64490600D02*
X134233039Y-63754011D01*
X135636000Y-64490600D02*
X134969628Y-64490600D01*
X136405100Y-74290000D02*
X136405100Y-72542375D01*
X136405100Y-72542375D02*
X135768284Y-71905559D01*
%TO.N,SWD_DIO*%
X135636000Y-62992000D02*
X136276444Y-62992000D01*
X137414000Y-62992000D02*
X137439400Y-63017400D01*
X135636000Y-62992000D02*
X137414000Y-62992000D01*
X138431800Y-64715200D02*
X138424697Y-64708097D01*
X138424697Y-64708097D02*
X137765329Y-64708097D01*
X137765329Y-64708097D02*
X137433060Y-64708097D01*
X132742427Y-62712600D02*
X132320790Y-63134237D01*
X133470839Y-62712570D02*
X133470809Y-62712600D01*
X134492970Y-62712570D02*
X133470839Y-62712570D01*
X132320790Y-63134237D02*
X130586352Y-63134237D01*
X134772400Y-62992000D02*
X134492970Y-62712570D01*
X133470809Y-62712600D02*
X132742427Y-62712600D01*
X135636000Y-62992000D02*
X134772400Y-62992000D01*
X135905100Y-72647490D02*
X135342824Y-72085214D01*
X135342824Y-72085214D02*
X135342824Y-71483522D01*
X135905100Y-74290000D02*
X135905100Y-72647490D01*
%TO.N,/PTB1*%
X136929602Y-66165200D02*
X136804402Y-66040000D01*
X139178600Y-66165200D02*
X136929602Y-66165200D01*
X135636000Y-63500000D02*
X134037035Y-63500000D01*
X134037035Y-63500000D02*
X133675056Y-63138021D01*
%TO.N,/PTA6*%
X138078400Y-64215200D02*
X138228600Y-64215200D01*
X136537700Y-64008000D02*
X135636000Y-64008000D01*
X136744900Y-64215200D02*
X136537700Y-64008000D01*
X138228600Y-64215200D02*
X136744900Y-64215200D01*
%TO.N,D20-PTD5*%
X124206000Y-65989200D02*
X123291600Y-65989200D01*
X123718714Y-71658872D02*
X124009206Y-71949364D01*
X123531122Y-71658872D02*
X123718714Y-71658872D01*
X123405100Y-73438000D02*
X123405100Y-74290000D01*
X124009206Y-71949364D02*
X124009206Y-72833894D01*
X124009206Y-72833894D02*
X123405100Y-73438000D01*
X121780280Y-69908030D02*
X123531122Y-71658872D01*
X121780280Y-67500520D02*
X121780280Y-69908030D01*
X123291600Y-65989200D02*
X121780280Y-67500520D01*
%TO.N,D21-PTD6*%
X124263217Y-71844150D02*
X124263217Y-73079883D01*
X124206000Y-66497200D02*
X123142824Y-66497200D01*
X122034291Y-69739315D02*
X123699836Y-71404861D01*
X123905100Y-73438000D02*
X123905100Y-74290000D01*
X122034291Y-67605733D02*
X122034291Y-69739315D01*
X124263217Y-73079883D02*
X123905100Y-73438000D01*
X123823928Y-71404861D02*
X124263217Y-71844150D01*
X123142824Y-66497200D02*
X122034291Y-67605733D01*
X123699836Y-71404861D02*
X123823928Y-71404861D01*
%TO.N,D05-PTD7*%
X124015500Y-71150850D02*
X124517228Y-71652578D01*
X124517228Y-73325872D02*
X124405100Y-73438000D01*
X124405100Y-73438000D02*
X124405100Y-74290000D01*
X124517228Y-71652578D02*
X124517228Y-73325872D01*
X124015500Y-71150850D02*
X123805050Y-71150850D01*
X123805050Y-71150850D02*
X122288300Y-69634100D01*
X122288300Y-69634100D02*
X122288300Y-67792600D01*
X123075700Y-67005200D02*
X124206000Y-67005200D01*
X122288300Y-67792600D02*
X123075700Y-67005200D01*
%TO.N,D06-PTD4*%
X124206000Y-65506600D02*
X127616062Y-65506600D01*
X127616062Y-65506600D02*
X127679562Y-65570100D01*
%TO.N,D08-PTD3*%
X127496370Y-64998600D02*
X127917846Y-64577124D01*
X124206000Y-64998600D02*
X127496370Y-64998600D01*
%TO.N,D07-PTD2*%
X127385199Y-64490600D02*
X127895155Y-63980644D01*
X124206000Y-64490600D02*
X127385199Y-64490600D01*
%TO.N,D14-PTD1*%
X128281839Y-63538100D02*
X128388808Y-63645069D01*
X127688660Y-63538100D02*
X128281839Y-63538100D01*
X127218760Y-64008000D02*
X127688660Y-63538100D01*
X124206000Y-64008000D02*
X127218760Y-64008000D01*
%TO.N,D02-PTD0*%
X127771889Y-63083329D02*
X129047064Y-63083329D01*
X127355218Y-63500000D02*
X127771889Y-63083329D01*
X124206000Y-63500000D02*
X127355218Y-63500000D01*
%TO.N,Net-(D1-Pad2)*%
X123825000Y-58674000D02*
X123926600Y-58674000D01*
X123774200Y-55676800D02*
X124536200Y-55676800D01*
X123571000Y-55880000D02*
X123774200Y-55676800D01*
X123926600Y-58674000D02*
X123571000Y-58318400D01*
X123571000Y-58318400D02*
X123571000Y-55880000D01*
%TO.N,Net-(D1-Pad1)*%
X122546000Y-57254000D02*
X122696000Y-57404000D01*
X122546000Y-55676800D02*
X122546000Y-57254000D01*
%TO.N,DAC*%
X129835562Y-66497200D02*
X129808110Y-66524652D01*
X135636000Y-66497200D02*
X129835562Y-66497200D01*
%TO.N,D32-CTS1*%
X129667000Y-57531000D02*
X129667000Y-58979382D01*
X129667000Y-58979382D02*
X130377905Y-59690287D01*
X138245689Y-72806317D02*
X138245689Y-72328245D01*
X137905100Y-73146906D02*
X138245689Y-72806317D01*
X137412718Y-71495274D02*
X136919094Y-71495274D01*
X138245689Y-72328245D02*
X137412718Y-71495274D01*
X137905100Y-74290000D02*
X137905100Y-73146906D01*
%TO.N,D25-RTS1*%
X129159000Y-57531000D02*
X129159000Y-58673998D01*
X129159000Y-58673998D02*
X129159002Y-58674000D01*
X134259451Y-71031100D02*
X134092940Y-71197611D01*
X138506189Y-74188911D02*
X138506189Y-71898314D01*
X137638975Y-71031100D02*
X134259451Y-71031100D01*
X138506189Y-71898314D02*
X137638975Y-71031100D01*
X138405100Y-74290000D02*
X138506189Y-74188911D01*
%TO.N,ADC1_P*%
X131165600Y-68961000D02*
X131165600Y-69936474D01*
X131165600Y-69936474D02*
X131643926Y-70414800D01*
%TO.N,ADC0_P*%
X125972553Y-71577198D02*
X128536702Y-71577198D01*
X125405100Y-74290000D02*
X125405100Y-72144651D01*
X130175000Y-69938900D02*
X130175000Y-68961000D01*
X128536702Y-71577198D02*
X130175000Y-69938900D01*
X125405100Y-72144651D02*
X125972553Y-71577198D01*
%TO.N,ADC1_N*%
X132148009Y-70299009D02*
X132148009Y-70734493D01*
X131673600Y-69824600D02*
X132148009Y-70299009D01*
X131673600Y-68961000D02*
X131673600Y-69824600D01*
%TO.N,ADC0_N*%
X130683000Y-68961000D02*
X130683000Y-69824600D01*
X128676389Y-71831211D02*
X126077765Y-71831211D01*
X125659111Y-73192011D02*
X125905100Y-73438000D01*
X130683000Y-69824600D02*
X128676389Y-71831211D01*
X125905100Y-73438000D02*
X125905100Y-74290000D01*
X125659111Y-72249865D02*
X125659111Y-73192011D01*
X126077765Y-71831211D02*
X125659111Y-72249865D01*
%TO.N,D13-SCK*%
X124206000Y-59994800D02*
X125362628Y-59994800D01*
X125362628Y-59994800D02*
X125425617Y-59931811D01*
X127405100Y-74290000D02*
X127405100Y-72349942D01*
X127405100Y-72349942D02*
X127339300Y-72284142D01*
%TO.N,/PTA3*%
X139678600Y-61929200D02*
X139674600Y-61925200D01*
X139678600Y-62765200D02*
X139678600Y-61929200D01*
%TO.N,/PTA1*%
X141632600Y-64211200D02*
X141628600Y-64215200D01*
X142367000Y-64211200D02*
X141632600Y-64211200D01*
%TO.N,D01-TX1*%
X131456462Y-60167152D02*
X131904630Y-60167152D01*
X130175000Y-58885690D02*
X131456462Y-60167152D01*
X130175000Y-57531000D02*
X130175000Y-58885690D01*
X137405100Y-73010606D02*
X137808847Y-72606859D01*
X137405100Y-74290000D02*
X137405100Y-73010606D01*
%TO.N,D00-RX1*%
X130683000Y-58594875D02*
X130611191Y-58666684D01*
X130683000Y-57531000D02*
X130683000Y-58594875D01*
X136905100Y-74290000D02*
X136905100Y-72285878D01*
X136905100Y-72285878D02*
X137141957Y-72049021D01*
%TO.N,D10-TX2*%
X126626274Y-60502800D02*
X129715621Y-60502800D01*
X124206000Y-59486800D02*
X125610274Y-59486800D01*
X129715621Y-60502800D02*
X129937010Y-60724189D01*
X125610274Y-59486800D02*
X126626274Y-60502800D01*
%TO.N,D09-RX2*%
X127943791Y-60151191D02*
X130797499Y-60151191D01*
X127177800Y-57531000D02*
X127177800Y-59385200D01*
X127177800Y-59385200D02*
X127943791Y-60151191D01*
%TO.N,D12-MISO*%
X125310878Y-60985400D02*
X125450589Y-61125111D01*
X124206000Y-60985400D02*
X125310878Y-60985400D01*
X126405100Y-74290000D02*
X126405100Y-72811573D01*
X126405100Y-72811573D02*
X126084571Y-72491044D01*
%TO.N,D11-MOSI*%
X126905100Y-73438000D02*
X126898400Y-73431300D01*
X126905100Y-74290000D02*
X126905100Y-73438000D01*
X126898400Y-73431300D02*
X126898400Y-72728252D01*
X126898400Y-72728252D02*
X126918286Y-72708366D01*
X124231400Y-60528200D02*
X124206000Y-60502800D01*
X125450600Y-60528200D02*
X124231400Y-60528200D01*
%TO.N,D15-CS*%
X128370711Y-59217489D02*
X127690896Y-59217489D01*
X128676400Y-57531000D02*
X128676400Y-58911800D01*
X128676400Y-58911800D02*
X128370711Y-59217489D01*
X127905100Y-74290000D02*
X127905100Y-72724911D01*
X127905100Y-72724911D02*
X127886027Y-72705838D01*
%TO.N,D17_A3*%
X132181600Y-58518444D02*
X132308600Y-58645444D01*
X132181600Y-57531000D02*
X132181600Y-58518444D01*
X138227943Y-70142100D02*
X138248452Y-70162609D01*
X136081300Y-70142100D02*
X138227943Y-70142100D01*
X135836644Y-70386756D02*
X136081300Y-70142100D01*
%TO.N,D19-SCL0*%
X131673600Y-58591460D02*
X131591060Y-58674000D01*
X131673600Y-57531000D02*
X131673600Y-58591460D01*
%TO.N,D18-SDA0*%
X131165600Y-57531000D02*
X131165600Y-58973470D01*
X131165600Y-58973470D02*
X131509693Y-59317563D01*
X131509693Y-59317563D02*
X132142382Y-59317563D01*
%TO.N,D16_A2*%
X132664200Y-57531000D02*
X132664200Y-58394600D01*
X132917299Y-58647699D02*
X132990595Y-58647699D01*
X132664200Y-58394600D02*
X132917299Y-58647699D01*
%TO.N,D22-A8*%
X128168400Y-58619166D02*
X128229206Y-58679972D01*
X128168400Y-57531000D02*
X128168400Y-58619166D01*
X129905100Y-72551881D02*
X130117787Y-72339194D01*
X129905100Y-74290000D02*
X129905100Y-72551881D01*
%TO.N,D27_A16*%
X125425222Y-62001400D02*
X125450600Y-61976022D01*
X124206000Y-62001400D02*
X125425222Y-62001400D01*
X124905100Y-74290000D02*
X124905100Y-72325979D01*
X124905100Y-72325979D02*
X124942679Y-72288400D01*
%TO.N,D28_A17*%
X132212427Y-61404523D02*
X132586625Y-61030325D01*
X132586625Y-61030325D02*
X133419893Y-61030325D01*
X125800845Y-61404523D02*
X132212427Y-61404523D01*
X124263162Y-61550562D02*
X125654806Y-61550562D01*
X125654806Y-61550562D02*
X125800845Y-61404523D01*
X124206000Y-61493400D02*
X124263162Y-61550562D01*
%TO.N,D03-CAN-TX*%
X130905100Y-74290000D02*
X130905100Y-72982659D01*
X130905100Y-72982659D02*
X131476721Y-72411038D01*
X135636000Y-61493400D02*
X135598385Y-61455785D01*
X135598385Y-61455785D02*
X132520390Y-61455785D01*
X132520390Y-61455785D02*
X132223057Y-61753119D01*
X129185064Y-61753119D02*
X129108200Y-61829983D01*
X132223057Y-61753119D02*
X129185064Y-61753119D01*
%TO.N,D04-CAN-TX*%
X131405100Y-74290000D02*
X131405100Y-73191900D01*
X132827690Y-71769310D02*
X134425227Y-71769310D01*
X131405100Y-73191900D02*
X132827690Y-71769310D01*
X132652853Y-60604873D02*
X132107214Y-61150512D01*
X135636000Y-60985400D02*
X134004638Y-60985400D01*
X129265405Y-61150512D02*
X129086099Y-60971206D01*
X132107214Y-61150512D02*
X129265405Y-61150512D01*
X134004638Y-60985400D02*
X133624111Y-60604873D01*
X133624111Y-60604873D02*
X132652853Y-60604873D01*
%TO.N,D29-SCL1*%
X128320374Y-74205274D02*
X128320374Y-72296391D01*
X128405100Y-74290000D02*
X128320374Y-74205274D01*
X127284909Y-62484000D02*
X127312834Y-62456075D01*
X124206000Y-62484000D02*
X127284909Y-62484000D01*
%TO.N,D30-SDA1*%
X128905100Y-72809110D02*
X128799040Y-72703050D01*
X128905100Y-74290000D02*
X128905100Y-72809110D01*
X127157562Y-62992000D02*
X127209544Y-63043982D01*
X124206000Y-62992000D02*
X127157562Y-62992000D01*
%TO.N,D24-I2C-INT*%
X132625604Y-61709796D02*
X132156829Y-62178571D01*
X134296474Y-62001400D02*
X134004870Y-61709796D01*
X135636000Y-62001400D02*
X134296474Y-62001400D01*
X132156829Y-62178571D02*
X131567093Y-62178571D01*
X134004870Y-61709796D02*
X132625604Y-61709796D01*
%TO.N,D26_A15-BAT_VIN3*%
X129405100Y-74290000D02*
X129405100Y-72470554D01*
X129405100Y-72470554D02*
X129266875Y-72332329D01*
X126549139Y-70262739D02*
X127095821Y-70809421D01*
X126669800Y-68961000D02*
X126549139Y-69081661D01*
X126549139Y-69081661D02*
X126549139Y-70262739D01*
%TO.N,D23*%
X127660400Y-57531000D02*
X127660400Y-56540400D01*
X127660400Y-56540400D02*
X127635000Y-56515000D01*
%TO.N,Net-(U1-Pad20)*%
X135636000Y-65506600D02*
X136736346Y-65506600D01*
X136736346Y-65506600D02*
X136799840Y-65443106D01*
%TO.N,Net-(U1-Pad19)*%
X134772400Y-65989200D02*
X134251842Y-65468642D01*
X134251842Y-65468642D02*
X134251842Y-64812751D01*
X135636000Y-65989200D02*
X134772400Y-65989200D01*
%TO.N,Net-(D2-Pad3)*%
X125382826Y-66014600D02*
X125304584Y-65936358D01*
X135636000Y-64998600D02*
X134772400Y-64998600D01*
X134403106Y-64300100D02*
X134162800Y-64300100D01*
X132448300Y-66014600D02*
X125382826Y-66014600D01*
X134772400Y-64998600D02*
X134677295Y-64903495D01*
X134677295Y-64903495D02*
X134677295Y-64574289D01*
X134162800Y-64300100D02*
X132448300Y-66014600D01*
X134677295Y-64574289D02*
X134403106Y-64300100D01*
%TO.N,Net-(J1-Pad5)*%
X137938448Y-69206048D02*
X137938448Y-69155136D01*
X137998200Y-69265800D02*
X137938448Y-69206048D01*
X137998200Y-69265800D02*
X138734800Y-70002400D01*
X140413109Y-70842509D02*
X140413109Y-74281991D01*
X138734800Y-70002400D02*
X139573000Y-70002400D01*
X139573000Y-70002400D02*
X140413109Y-70842509D01*
X140413109Y-74281991D02*
X140405100Y-74290000D01*
%TO.N,Net-(J1-Pad3)*%
X140905100Y-70964900D02*
X140905100Y-74290000D01*
X139217400Y-69277200D02*
X140905100Y-70964900D01*
%TD*%
D19*
%TO.N,GND*%
X134065164Y-72064806D02*
X134126618Y-72126260D01*
X134055086Y-72213966D01*
X134040448Y-72235997D01*
X134025477Y-72257862D01*
X134023538Y-72261449D01*
X133968563Y-72364842D01*
X133958494Y-72389272D01*
X133948044Y-72413653D01*
X133946839Y-72417549D01*
X133912994Y-72529650D01*
X133907857Y-72555595D01*
X133902347Y-72581516D01*
X133901921Y-72585572D01*
X133890494Y-72702113D01*
X133890494Y-72702119D01*
X133889100Y-72716272D01*
X133889100Y-73227137D01*
X133835336Y-73183013D01*
X133755909Y-73140559D01*
X133669727Y-73114415D01*
X133580100Y-73105588D01*
X133570200Y-73107800D01*
X133455900Y-73222100D01*
X133455900Y-74239200D01*
X133475900Y-74239200D01*
X133475900Y-74340800D01*
X133455900Y-74340800D01*
X133455900Y-74360800D01*
X133354300Y-74360800D01*
X133354300Y-74340800D01*
X133334300Y-74340800D01*
X133334300Y-74239200D01*
X133354300Y-74239200D01*
X133354300Y-73222100D01*
X133240000Y-73107800D01*
X133230100Y-73105588D01*
X133140473Y-73114415D01*
X133054291Y-73140559D01*
X132974864Y-73183013D01*
X132905247Y-73240147D01*
X132848113Y-73309764D01*
X132834467Y-73335294D01*
X132730100Y-73335294D01*
X132685287Y-73339708D01*
X132655100Y-73348865D01*
X132624913Y-73339708D01*
X132580100Y-73335294D01*
X132475733Y-73335294D01*
X132462087Y-73309764D01*
X132404953Y-73240147D01*
X132335336Y-73183013D01*
X132255909Y-73140559D01*
X132169727Y-73114415D01*
X132080100Y-73105588D01*
X132070200Y-73107800D01*
X131955900Y-73222100D01*
X131955900Y-74239200D01*
X131975900Y-74239200D01*
X131975900Y-74340800D01*
X131955900Y-74340800D01*
X131955900Y-74360800D01*
X131854300Y-74360800D01*
X131854300Y-74340800D01*
X131834300Y-74340800D01*
X131834300Y-74239200D01*
X131854300Y-74239200D01*
X131854300Y-73222100D01*
X131821146Y-73188946D01*
X132948681Y-72061410D01*
X134062895Y-72061410D01*
X134065164Y-72064806D01*
%TA.AperFunction,Conductor*%
D20*
G36*
X134065164Y-72064806D02*
G01*
X134126618Y-72126260D01*
X134055086Y-72213966D01*
X134040448Y-72235997D01*
X134025477Y-72257862D01*
X134023538Y-72261449D01*
X133968563Y-72364842D01*
X133958494Y-72389272D01*
X133948044Y-72413653D01*
X133946839Y-72417549D01*
X133912994Y-72529650D01*
X133907857Y-72555595D01*
X133902347Y-72581516D01*
X133901921Y-72585572D01*
X133890494Y-72702113D01*
X133890494Y-72702119D01*
X133889100Y-72716272D01*
X133889100Y-73227137D01*
X133835336Y-73183013D01*
X133755909Y-73140559D01*
X133669727Y-73114415D01*
X133580100Y-73105588D01*
X133570200Y-73107800D01*
X133455900Y-73222100D01*
X133455900Y-74239200D01*
X133475900Y-74239200D01*
X133475900Y-74340800D01*
X133455900Y-74340800D01*
X133455900Y-74360800D01*
X133354300Y-74360800D01*
X133354300Y-74340800D01*
X133334300Y-74340800D01*
X133334300Y-74239200D01*
X133354300Y-74239200D01*
X133354300Y-73222100D01*
X133240000Y-73107800D01*
X133230100Y-73105588D01*
X133140473Y-73114415D01*
X133054291Y-73140559D01*
X132974864Y-73183013D01*
X132905247Y-73240147D01*
X132848113Y-73309764D01*
X132834467Y-73335294D01*
X132730100Y-73335294D01*
X132685287Y-73339708D01*
X132655100Y-73348865D01*
X132624913Y-73339708D01*
X132580100Y-73335294D01*
X132475733Y-73335294D01*
X132462087Y-73309764D01*
X132404953Y-73240147D01*
X132335336Y-73183013D01*
X132255909Y-73140559D01*
X132169727Y-73114415D01*
X132080100Y-73105588D01*
X132070200Y-73107800D01*
X131955900Y-73222100D01*
X131955900Y-74239200D01*
X131975900Y-74239200D01*
X131975900Y-74340800D01*
X131955900Y-74340800D01*
X131955900Y-74360800D01*
X131854300Y-74360800D01*
X131854300Y-74340800D01*
X131834300Y-74340800D01*
X131834300Y-74239200D01*
X131854300Y-74239200D01*
X131854300Y-73222100D01*
X131821146Y-73188946D01*
X132948681Y-72061410D01*
X134062895Y-72061410D01*
X134065164Y-72064806D01*
G37*
%TD.AperFunction*%
D19*
X135729088Y-69588400D02*
X135737915Y-69678027D01*
X135764059Y-69764209D01*
X135806513Y-69843636D01*
X135863647Y-69913253D01*
X135875775Y-69923206D01*
X135790988Y-69923206D01*
X135701431Y-69941020D01*
X135617071Y-69975963D01*
X135541148Y-70026693D01*
X135476581Y-70091260D01*
X135425851Y-70167183D01*
X135390908Y-70251543D01*
X135373094Y-70341100D01*
X135373094Y-70432412D01*
X135390908Y-70521969D01*
X135425851Y-70606329D01*
X135476581Y-70682252D01*
X135533329Y-70739000D01*
X134273786Y-70739000D01*
X134259450Y-70737588D01*
X134245114Y-70739000D01*
X134245105Y-70739000D01*
X134202189Y-70743227D01*
X134195253Y-70745331D01*
X134138596Y-70734061D01*
X134047284Y-70734061D01*
X133957727Y-70751875D01*
X133873367Y-70786818D01*
X133797444Y-70837548D01*
X133732877Y-70902115D01*
X133682147Y-70978038D01*
X133647204Y-71062398D01*
X133629390Y-71151955D01*
X133629390Y-71243267D01*
X133647204Y-71332824D01*
X133682147Y-71417184D01*
X133722255Y-71477210D01*
X132842027Y-71477210D01*
X132827689Y-71475798D01*
X132813351Y-71477210D01*
X132813344Y-71477210D01*
X132770428Y-71481437D01*
X132715367Y-71498139D01*
X132664623Y-71525263D01*
X132620145Y-71561765D01*
X132610997Y-71572912D01*
X131918247Y-72265662D01*
X131887514Y-72191465D01*
X131836784Y-72115542D01*
X131772217Y-72050975D01*
X131696294Y-72000245D01*
X131611934Y-71965302D01*
X131522377Y-71947488D01*
X131431065Y-71947488D01*
X131341508Y-71965302D01*
X131257148Y-72000245D01*
X131181225Y-72050975D01*
X131116658Y-72115542D01*
X131065928Y-72191465D01*
X131030985Y-72275825D01*
X131013171Y-72365382D01*
X131013171Y-72456694D01*
X131013968Y-72460700D01*
X130708698Y-72765970D01*
X130697556Y-72775114D01*
X130688412Y-72786256D01*
X130688410Y-72786258D01*
X130661053Y-72819593D01*
X130633929Y-72870337D01*
X130617227Y-72925398D01*
X130611588Y-72982659D01*
X130613001Y-72997007D01*
X130613001Y-73108828D01*
X130580100Y-73105588D01*
X130570200Y-73107800D01*
X130455900Y-73222100D01*
X130455900Y-74239200D01*
X130475900Y-74239200D01*
X130475900Y-74340800D01*
X130455900Y-74340800D01*
X130455900Y-74360800D01*
X130354300Y-74360800D01*
X130354300Y-74340800D01*
X130334300Y-74340800D01*
X130334300Y-74239200D01*
X130354300Y-74239200D01*
X130354300Y-73222100D01*
X130240000Y-73107800D01*
X130230100Y-73105588D01*
X130197200Y-73108828D01*
X130197200Y-72796029D01*
X130253000Y-72784930D01*
X130337360Y-72749987D01*
X130413283Y-72699257D01*
X130477850Y-72634690D01*
X130528580Y-72558767D01*
X130563523Y-72474407D01*
X130581337Y-72384850D01*
X130581337Y-72293538D01*
X130563523Y-72203981D01*
X130528580Y-72119621D01*
X130477850Y-72043698D01*
X130413283Y-71979131D01*
X130337360Y-71928401D01*
X130253000Y-71893458D01*
X130163443Y-71875644D01*
X130072131Y-71875644D01*
X129982574Y-71893458D01*
X129898214Y-71928401D01*
X129822291Y-71979131D01*
X129757724Y-72043698D01*
X129706994Y-72119621D01*
X129693753Y-72151588D01*
X129677668Y-72112756D01*
X129626938Y-72036833D01*
X129562371Y-71972266D01*
X129486448Y-71921536D01*
X129402088Y-71886593D01*
X129312531Y-71868779D01*
X129221219Y-71868779D01*
X129131662Y-71886593D01*
X129047302Y-71921536D01*
X128971379Y-71972266D01*
X128906812Y-72036833D01*
X128856082Y-72112756D01*
X128821139Y-72197116D01*
X128812708Y-72239500D01*
X128781689Y-72239500D01*
X128766110Y-72161178D01*
X128746997Y-72115036D01*
X128788712Y-72102382D01*
X128839456Y-72075258D01*
X128883934Y-72038756D01*
X128893082Y-72027609D01*
X130879403Y-70041289D01*
X130889611Y-70032912D01*
X130894429Y-70048796D01*
X130921553Y-70099540D01*
X130946059Y-70129400D01*
X130958056Y-70144019D01*
X130969198Y-70153163D01*
X131181173Y-70365138D01*
X131180376Y-70369144D01*
X131180376Y-70460456D01*
X131198190Y-70550013D01*
X131233133Y-70634373D01*
X131283863Y-70710296D01*
X131348430Y-70774863D01*
X131424353Y-70825593D01*
X131508713Y-70860536D01*
X131598270Y-70878350D01*
X131689582Y-70878350D01*
X131704615Y-70875360D01*
X131737216Y-70954066D01*
X131787946Y-71029989D01*
X131852513Y-71094556D01*
X131928436Y-71145286D01*
X132012796Y-71180229D01*
X132102353Y-71198043D01*
X132193665Y-71198043D01*
X132283222Y-71180229D01*
X132367582Y-71145286D01*
X132443505Y-71094556D01*
X132508072Y-71029989D01*
X132558802Y-70954066D01*
X132593745Y-70869706D01*
X132611559Y-70780149D01*
X132611559Y-70688837D01*
X132593745Y-70599280D01*
X132558802Y-70514920D01*
X132508072Y-70438997D01*
X132443505Y-70374430D01*
X132440109Y-70372161D01*
X132440109Y-70313355D01*
X132441522Y-70299009D01*
X132435882Y-70241747D01*
X132419180Y-70186686D01*
X132392056Y-70135942D01*
X132364699Y-70102607D01*
X132364698Y-70102606D01*
X132355554Y-70091464D01*
X132344413Y-70082321D01*
X132189398Y-69927306D01*
X132321300Y-69927306D01*
X132366113Y-69922892D01*
X132409205Y-69909821D01*
X132422900Y-69902501D01*
X132436595Y-69909821D01*
X132479687Y-69922892D01*
X132524500Y-69927306D01*
X132636584Y-69927306D01*
X132647188Y-69947788D01*
X132703401Y-70018151D01*
X132772261Y-70076196D01*
X132851122Y-70119692D01*
X132936953Y-70146966D01*
X133007100Y-70154800D01*
X133121400Y-70040500D01*
X133121400Y-69882525D01*
X133155188Y-69947788D01*
X133211401Y-70018151D01*
X133223000Y-70027928D01*
X133223000Y-70040500D01*
X133337300Y-70154800D01*
X133407447Y-70146966D01*
X133426200Y-70141007D01*
X133444953Y-70146966D01*
X133515100Y-70154800D01*
X133629400Y-70040500D01*
X133629400Y-70027928D01*
X133640999Y-70018151D01*
X133697212Y-69947788D01*
X133731000Y-69882525D01*
X133731000Y-70040500D01*
X133845300Y-70154800D01*
X133915447Y-70146966D01*
X134001278Y-70119692D01*
X134080139Y-70076196D01*
X134148999Y-70018151D01*
X134205212Y-69947788D01*
X134246618Y-69867810D01*
X134271625Y-69781291D01*
X134279272Y-69691556D01*
X134278718Y-69547203D01*
X134312532Y-69610466D01*
X134370635Y-69681265D01*
X134441434Y-69739368D01*
X134522208Y-69782542D01*
X134609853Y-69809129D01*
X134701000Y-69818106D01*
X135301000Y-69818106D01*
X135392147Y-69809129D01*
X135479792Y-69782542D01*
X135560566Y-69739368D01*
X135631365Y-69681265D01*
X135689468Y-69610466D01*
X135729465Y-69535637D01*
X135729088Y-69588400D01*
%TA.AperFunction,Conductor*%
D20*
G36*
X135729088Y-69588400D02*
G01*
X135737915Y-69678027D01*
X135764059Y-69764209D01*
X135806513Y-69843636D01*
X135863647Y-69913253D01*
X135875775Y-69923206D01*
X135790988Y-69923206D01*
X135701431Y-69941020D01*
X135617071Y-69975963D01*
X135541148Y-70026693D01*
X135476581Y-70091260D01*
X135425851Y-70167183D01*
X135390908Y-70251543D01*
X135373094Y-70341100D01*
X135373094Y-70432412D01*
X135390908Y-70521969D01*
X135425851Y-70606329D01*
X135476581Y-70682252D01*
X135533329Y-70739000D01*
X134273786Y-70739000D01*
X134259450Y-70737588D01*
X134245114Y-70739000D01*
X134245105Y-70739000D01*
X134202189Y-70743227D01*
X134195253Y-70745331D01*
X134138596Y-70734061D01*
X134047284Y-70734061D01*
X133957727Y-70751875D01*
X133873367Y-70786818D01*
X133797444Y-70837548D01*
X133732877Y-70902115D01*
X133682147Y-70978038D01*
X133647204Y-71062398D01*
X133629390Y-71151955D01*
X133629390Y-71243267D01*
X133647204Y-71332824D01*
X133682147Y-71417184D01*
X133722255Y-71477210D01*
X132842027Y-71477210D01*
X132827689Y-71475798D01*
X132813351Y-71477210D01*
X132813344Y-71477210D01*
X132770428Y-71481437D01*
X132715367Y-71498139D01*
X132664623Y-71525263D01*
X132620145Y-71561765D01*
X132610997Y-71572912D01*
X131918247Y-72265662D01*
X131887514Y-72191465D01*
X131836784Y-72115542D01*
X131772217Y-72050975D01*
X131696294Y-72000245D01*
X131611934Y-71965302D01*
X131522377Y-71947488D01*
X131431065Y-71947488D01*
X131341508Y-71965302D01*
X131257148Y-72000245D01*
X131181225Y-72050975D01*
X131116658Y-72115542D01*
X131065928Y-72191465D01*
X131030985Y-72275825D01*
X131013171Y-72365382D01*
X131013171Y-72456694D01*
X131013968Y-72460700D01*
X130708698Y-72765970D01*
X130697556Y-72775114D01*
X130688412Y-72786256D01*
X130688410Y-72786258D01*
X130661053Y-72819593D01*
X130633929Y-72870337D01*
X130617227Y-72925398D01*
X130611588Y-72982659D01*
X130613001Y-72997007D01*
X130613001Y-73108828D01*
X130580100Y-73105588D01*
X130570200Y-73107800D01*
X130455900Y-73222100D01*
X130455900Y-74239200D01*
X130475900Y-74239200D01*
X130475900Y-74340800D01*
X130455900Y-74340800D01*
X130455900Y-74360800D01*
X130354300Y-74360800D01*
X130354300Y-74340800D01*
X130334300Y-74340800D01*
X130334300Y-74239200D01*
X130354300Y-74239200D01*
X130354300Y-73222100D01*
X130240000Y-73107800D01*
X130230100Y-73105588D01*
X130197200Y-73108828D01*
X130197200Y-72796029D01*
X130253000Y-72784930D01*
X130337360Y-72749987D01*
X130413283Y-72699257D01*
X130477850Y-72634690D01*
X130528580Y-72558767D01*
X130563523Y-72474407D01*
X130581337Y-72384850D01*
X130581337Y-72293538D01*
X130563523Y-72203981D01*
X130528580Y-72119621D01*
X130477850Y-72043698D01*
X130413283Y-71979131D01*
X130337360Y-71928401D01*
X130253000Y-71893458D01*
X130163443Y-71875644D01*
X130072131Y-71875644D01*
X129982574Y-71893458D01*
X129898214Y-71928401D01*
X129822291Y-71979131D01*
X129757724Y-72043698D01*
X129706994Y-72119621D01*
X129693753Y-72151588D01*
X129677668Y-72112756D01*
X129626938Y-72036833D01*
X129562371Y-71972266D01*
X129486448Y-71921536D01*
X129402088Y-71886593D01*
X129312531Y-71868779D01*
X129221219Y-71868779D01*
X129131662Y-71886593D01*
X129047302Y-71921536D01*
X128971379Y-71972266D01*
X128906812Y-72036833D01*
X128856082Y-72112756D01*
X128821139Y-72197116D01*
X128812708Y-72239500D01*
X128781689Y-72239500D01*
X128766110Y-72161178D01*
X128746997Y-72115036D01*
X128788712Y-72102382D01*
X128839456Y-72075258D01*
X128883934Y-72038756D01*
X128893082Y-72027609D01*
X130879403Y-70041289D01*
X130889611Y-70032912D01*
X130894429Y-70048796D01*
X130921553Y-70099540D01*
X130946059Y-70129400D01*
X130958056Y-70144019D01*
X130969198Y-70153163D01*
X131181173Y-70365138D01*
X131180376Y-70369144D01*
X131180376Y-70460456D01*
X131198190Y-70550013D01*
X131233133Y-70634373D01*
X131283863Y-70710296D01*
X131348430Y-70774863D01*
X131424353Y-70825593D01*
X131508713Y-70860536D01*
X131598270Y-70878350D01*
X131689582Y-70878350D01*
X131704615Y-70875360D01*
X131737216Y-70954066D01*
X131787946Y-71029989D01*
X131852513Y-71094556D01*
X131928436Y-71145286D01*
X132012796Y-71180229D01*
X132102353Y-71198043D01*
X132193665Y-71198043D01*
X132283222Y-71180229D01*
X132367582Y-71145286D01*
X132443505Y-71094556D01*
X132508072Y-71029989D01*
X132558802Y-70954066D01*
X132593745Y-70869706D01*
X132611559Y-70780149D01*
X132611559Y-70688837D01*
X132593745Y-70599280D01*
X132558802Y-70514920D01*
X132508072Y-70438997D01*
X132443505Y-70374430D01*
X132440109Y-70372161D01*
X132440109Y-70313355D01*
X132441522Y-70299009D01*
X132435882Y-70241747D01*
X132419180Y-70186686D01*
X132392056Y-70135942D01*
X132364699Y-70102607D01*
X132364698Y-70102606D01*
X132355554Y-70091464D01*
X132344413Y-70082321D01*
X132189398Y-69927306D01*
X132321300Y-69927306D01*
X132366113Y-69922892D01*
X132409205Y-69909821D01*
X132422900Y-69902501D01*
X132436595Y-69909821D01*
X132479687Y-69922892D01*
X132524500Y-69927306D01*
X132636584Y-69927306D01*
X132647188Y-69947788D01*
X132703401Y-70018151D01*
X132772261Y-70076196D01*
X132851122Y-70119692D01*
X132936953Y-70146966D01*
X133007100Y-70154800D01*
X133121400Y-70040500D01*
X133121400Y-69882525D01*
X133155188Y-69947788D01*
X133211401Y-70018151D01*
X133223000Y-70027928D01*
X133223000Y-70040500D01*
X133337300Y-70154800D01*
X133407447Y-70146966D01*
X133426200Y-70141007D01*
X133444953Y-70146966D01*
X133515100Y-70154800D01*
X133629400Y-70040500D01*
X133629400Y-70027928D01*
X133640999Y-70018151D01*
X133697212Y-69947788D01*
X133731000Y-69882525D01*
X133731000Y-70040500D01*
X133845300Y-70154800D01*
X133915447Y-70146966D01*
X134001278Y-70119692D01*
X134080139Y-70076196D01*
X134148999Y-70018151D01*
X134205212Y-69947788D01*
X134246618Y-69867810D01*
X134271625Y-69781291D01*
X134279272Y-69691556D01*
X134278718Y-69547203D01*
X134312532Y-69610466D01*
X134370635Y-69681265D01*
X134441434Y-69739368D01*
X134522208Y-69782542D01*
X134609853Y-69809129D01*
X134701000Y-69818106D01*
X135301000Y-69818106D01*
X135392147Y-69809129D01*
X135479792Y-69782542D01*
X135560566Y-69739368D01*
X135631365Y-69681265D01*
X135689468Y-69610466D01*
X135729465Y-69535637D01*
X135729088Y-69588400D01*
G37*
%TD.AperFunction*%
D19*
X140121009Y-70963501D02*
X140121010Y-73109617D01*
X140080100Y-73105588D01*
X140070200Y-73107800D01*
X139955900Y-73222100D01*
X139955900Y-74239200D01*
X139975900Y-74239200D01*
X139975900Y-74340800D01*
X139955900Y-74340800D01*
X139955900Y-74360800D01*
X139854300Y-74360800D01*
X139854300Y-74340800D01*
X139834300Y-74340800D01*
X139834300Y-74239200D01*
X139854300Y-74239200D01*
X139854300Y-73222100D01*
X139740000Y-73107800D01*
X139730100Y-73105588D01*
X139640473Y-73114415D01*
X139554291Y-73140559D01*
X139474864Y-73183013D01*
X139405247Y-73240147D01*
X139348113Y-73309764D01*
X139334467Y-73335294D01*
X139230100Y-73335294D01*
X139197200Y-73338535D01*
X139197200Y-71331058D01*
X139428109Y-71100149D01*
X139432115Y-71100946D01*
X139523427Y-71100946D01*
X139612984Y-71083132D01*
X139697344Y-71048189D01*
X139773267Y-70997459D01*
X139837834Y-70932892D01*
X139888564Y-70856969D01*
X139923507Y-70772609D01*
X139924604Y-70767095D01*
X140121009Y-70963501D01*
%TA.AperFunction,Conductor*%
D20*
G36*
X140121009Y-70963501D02*
G01*
X140121010Y-73109617D01*
X140080100Y-73105588D01*
X140070200Y-73107800D01*
X139955900Y-73222100D01*
X139955900Y-74239200D01*
X139975900Y-74239200D01*
X139975900Y-74340800D01*
X139955900Y-74340800D01*
X139955900Y-74360800D01*
X139854300Y-74360800D01*
X139854300Y-74340800D01*
X139834300Y-74340800D01*
X139834300Y-74239200D01*
X139854300Y-74239200D01*
X139854300Y-73222100D01*
X139740000Y-73107800D01*
X139730100Y-73105588D01*
X139640473Y-73114415D01*
X139554291Y-73140559D01*
X139474864Y-73183013D01*
X139405247Y-73240147D01*
X139348113Y-73309764D01*
X139334467Y-73335294D01*
X139230100Y-73335294D01*
X139197200Y-73338535D01*
X139197200Y-71331058D01*
X139428109Y-71100149D01*
X139432115Y-71100946D01*
X139523427Y-71100946D01*
X139612984Y-71083132D01*
X139697344Y-71048189D01*
X139773267Y-70997459D01*
X139837834Y-70932892D01*
X139888564Y-70856969D01*
X139923507Y-70772609D01*
X139924604Y-70767095D01*
X140121009Y-70963501D01*
G37*
%TD.AperFunction*%
D19*
X134154162Y-54027022D02*
X134159669Y-54052930D01*
X134164809Y-54078888D01*
X134166015Y-54082784D01*
X134269286Y-54408337D01*
X134279710Y-54432657D01*
X134289804Y-54457148D01*
X134291744Y-54460735D01*
X134456282Y-54760029D01*
X134471235Y-54781868D01*
X134485890Y-54803925D01*
X134488489Y-54807067D01*
X134708027Y-55068702D01*
X134726943Y-55087226D01*
X134745597Y-55106011D01*
X134748752Y-55108583D01*
X134748758Y-55108589D01*
X134748765Y-55108593D01*
X135014932Y-55322599D01*
X135037075Y-55337089D01*
X135059034Y-55351901D01*
X135062635Y-55353815D01*
X135365309Y-55512049D01*
X135389875Y-55521974D01*
X135414262Y-55532226D01*
X135418166Y-55533405D01*
X135745811Y-55629836D01*
X135771828Y-55634799D01*
X135797751Y-55640120D01*
X135801810Y-55640518D01*
X136141944Y-55671472D01*
X136168418Y-55671287D01*
X136194891Y-55671472D01*
X136198949Y-55671074D01*
X136198953Y-55671074D01*
X136538618Y-55635374D01*
X136564535Y-55630054D01*
X136590558Y-55625090D01*
X136594462Y-55623911D01*
X136920728Y-55522915D01*
X136945115Y-55512663D01*
X136969681Y-55502738D01*
X136973282Y-55500823D01*
X137273718Y-55338378D01*
X137295639Y-55323592D01*
X137317820Y-55309078D01*
X137320980Y-55306500D01*
X137584141Y-55088794D01*
X137602812Y-55069992D01*
X137621711Y-55051485D01*
X137624311Y-55048342D01*
X137840173Y-54783668D01*
X137854793Y-54761663D01*
X137869782Y-54739773D01*
X137871721Y-54736185D01*
X138032065Y-54434623D01*
X138042151Y-54410153D01*
X138052584Y-54385812D01*
X138053789Y-54381916D01*
X138152505Y-54054953D01*
X138157646Y-54028987D01*
X138163152Y-54003086D01*
X138163578Y-53999031D01*
X138171061Y-53922717D01*
X142138345Y-53922717D01*
X142290802Y-53941429D01*
X142426486Y-53986032D01*
X142550915Y-54056138D01*
X142659361Y-54149078D01*
X142747692Y-54261315D01*
X142812537Y-54388564D01*
X142852270Y-54528951D01*
X142864100Y-54645417D01*
X142864101Y-71012205D01*
X142854878Y-71085132D01*
X142834907Y-71145142D01*
X142803659Y-71200131D01*
X142762325Y-71248003D01*
X142712482Y-71286934D01*
X142656025Y-71315444D01*
X142591625Y-71333415D01*
X142526681Y-71340012D01*
X142525000Y-71340351D01*
X142523288Y-71340377D01*
X142519239Y-71340865D01*
X142461369Y-71348247D01*
X142441327Y-71352826D01*
X142421040Y-71356309D01*
X142417115Y-71357416D01*
X142321382Y-71385126D01*
X142296811Y-71394926D01*
X142272064Y-71404397D01*
X142268429Y-71406245D01*
X142179902Y-71452022D01*
X142157697Y-71466411D01*
X142135267Y-71480505D01*
X142132060Y-71483024D01*
X142054110Y-71545125D01*
X142035128Y-71563548D01*
X142015858Y-71581734D01*
X142013207Y-71584823D01*
X142013201Y-71584829D01*
X142013197Y-71584835D01*
X141948799Y-71660886D01*
X141933758Y-71682644D01*
X141918387Y-71704227D01*
X141916381Y-71707778D01*
X141867977Y-71794897D01*
X141857444Y-71819173D01*
X141846561Y-71843323D01*
X141845284Y-71847196D01*
X141814724Y-71942058D01*
X141809111Y-71967897D01*
X141803123Y-71993718D01*
X141802622Y-71997765D01*
X141794096Y-72070821D01*
X141793327Y-72073356D01*
X141789100Y-72116272D01*
X141789100Y-73158300D01*
X141755909Y-73140559D01*
X141669727Y-73114415D01*
X141580100Y-73105588D01*
X141570200Y-73107800D01*
X141455900Y-73222100D01*
X141455900Y-74239200D01*
X141475900Y-74239200D01*
X141475900Y-74340800D01*
X141455900Y-74340800D01*
X141455900Y-74360800D01*
X141354300Y-74360800D01*
X141354300Y-74340800D01*
X141334300Y-74340800D01*
X141334300Y-74239200D01*
X141354300Y-74239200D01*
X141354300Y-73222100D01*
X141240000Y-73107800D01*
X141230100Y-73105588D01*
X141197200Y-73108828D01*
X141197200Y-70979235D01*
X141198612Y-70964899D01*
X141197200Y-70950563D01*
X141197200Y-70950554D01*
X141192973Y-70907638D01*
X141176271Y-70852577D01*
X141149147Y-70801833D01*
X141112645Y-70757355D01*
X141101499Y-70748208D01*
X140385197Y-70031906D01*
X140674100Y-70031906D01*
X140765247Y-70022929D01*
X140852892Y-69996342D01*
X140933666Y-69953168D01*
X141004465Y-69895065D01*
X141046200Y-69844211D01*
X141087935Y-69895065D01*
X141104413Y-69908588D01*
X141044853Y-69997725D01*
X141003687Y-70097109D01*
X140982700Y-70202614D01*
X140982700Y-70310186D01*
X141003687Y-70415691D01*
X141044853Y-70515075D01*
X141104617Y-70604518D01*
X141180682Y-70680583D01*
X141270125Y-70740347D01*
X141369509Y-70781513D01*
X141475014Y-70802500D01*
X141582586Y-70802500D01*
X141688091Y-70781513D01*
X141787475Y-70740347D01*
X141876918Y-70680583D01*
X141952983Y-70604518D01*
X142012747Y-70515075D01*
X142053913Y-70415691D01*
X142074900Y-70310186D01*
X142074900Y-70202614D01*
X142053913Y-70097109D01*
X142018862Y-70012489D01*
X142072092Y-69996342D01*
X142152866Y-69953168D01*
X142223665Y-69895065D01*
X142281768Y-69824266D01*
X142324942Y-69743492D01*
X142351529Y-69655847D01*
X142360506Y-69564700D01*
X142360506Y-68989700D01*
X142351529Y-68898553D01*
X142324942Y-68810908D01*
X142281768Y-68730134D01*
X142223665Y-68659335D01*
X142152866Y-68601232D01*
X142072092Y-68558058D01*
X141984447Y-68531471D01*
X141893300Y-68522494D01*
X141418300Y-68522494D01*
X141327153Y-68531471D01*
X141239508Y-68558058D01*
X141158734Y-68601232D01*
X141087935Y-68659335D01*
X141046200Y-68710189D01*
X141004465Y-68659335D01*
X140933666Y-68601232D01*
X140852892Y-68558058D01*
X140765247Y-68531471D01*
X140674100Y-68522494D01*
X140199100Y-68522494D01*
X140107953Y-68531471D01*
X140020308Y-68558058D01*
X139939534Y-68601232D01*
X139868735Y-68659335D01*
X139827000Y-68710189D01*
X139785265Y-68659335D01*
X139714466Y-68601232D01*
X139633692Y-68558058D01*
X139546047Y-68531471D01*
X139454900Y-68522494D01*
X138979900Y-68522494D01*
X138888753Y-68531471D01*
X138801108Y-68558058D01*
X138720334Y-68601232D01*
X138649535Y-68659335D01*
X138612478Y-68704489D01*
X138566065Y-68647935D01*
X138495266Y-68589832D01*
X138414492Y-68546658D01*
X138326847Y-68520071D01*
X138235700Y-68511094D01*
X137760700Y-68511094D01*
X137704339Y-68516645D01*
X137687941Y-68462591D01*
X137645487Y-68383164D01*
X137588353Y-68313547D01*
X137518736Y-68256413D01*
X137439309Y-68213959D01*
X137353127Y-68187815D01*
X137263500Y-68178988D01*
X136891100Y-68181200D01*
X136776800Y-68295500D01*
X136776800Y-69062600D01*
X136796800Y-69062600D01*
X136796800Y-69164200D01*
X136776800Y-69164200D01*
X136776800Y-69184200D01*
X136675200Y-69184200D01*
X136675200Y-69164200D01*
X136655200Y-69164200D01*
X136655200Y-69062600D01*
X136675200Y-69062600D01*
X136675200Y-68295500D01*
X136560900Y-68181200D01*
X136188500Y-68178988D01*
X136098873Y-68187815D01*
X136012691Y-68213959D01*
X135933264Y-68256413D01*
X135863647Y-68313547D01*
X135806513Y-68383164D01*
X135764059Y-68462591D01*
X135737915Y-68548773D01*
X135729088Y-68638400D01*
X135729465Y-68691163D01*
X135689468Y-68616334D01*
X135631365Y-68545535D01*
X135560566Y-68487432D01*
X135479792Y-68444258D01*
X135459128Y-68437990D01*
X135481619Y-68383691D01*
X135502606Y-68278186D01*
X135502606Y-68170614D01*
X135481619Y-68065109D01*
X135440453Y-67965725D01*
X135380689Y-67876282D01*
X135304624Y-67800217D01*
X135215181Y-67740453D01*
X135115797Y-67699287D01*
X135010292Y-67678300D01*
X134974404Y-67678300D01*
X134939906Y-67649987D01*
X134875923Y-67615788D01*
X134806498Y-67594728D01*
X134752392Y-67589399D01*
X134752384Y-67589399D01*
X134734299Y-67587618D01*
X134716214Y-67589399D01*
X132669584Y-67589399D01*
X132651499Y-67587618D01*
X132633414Y-67589399D01*
X132364783Y-67589399D01*
X132346698Y-67587618D01*
X132328613Y-67589399D01*
X132328606Y-67589399D01*
X132281519Y-67594037D01*
X132274499Y-67594728D01*
X132256072Y-67600318D01*
X132205075Y-67615788D01*
X132141092Y-67649987D01*
X132085012Y-67696012D01*
X132073473Y-67710072D01*
X131933964Y-67849580D01*
X131919914Y-67861111D01*
X131908384Y-67875160D01*
X131908379Y-67875165D01*
X131893245Y-67893606D01*
X131873889Y-67917191D01*
X131847948Y-67965725D01*
X131839690Y-67981174D01*
X131834942Y-67996826D01*
X131813300Y-67994694D01*
X131533900Y-67994694D01*
X131489087Y-67999108D01*
X131445995Y-68012179D01*
X131419600Y-68026287D01*
X131393205Y-68012179D01*
X131350113Y-67999108D01*
X131305300Y-67994694D01*
X131025900Y-67994694D01*
X130981087Y-67999108D01*
X130937995Y-68012179D01*
X130924300Y-68019499D01*
X130910605Y-68012179D01*
X130867513Y-67999108D01*
X130822700Y-67994694D01*
X130543300Y-67994694D01*
X130498487Y-67999108D01*
X130455395Y-68012179D01*
X130429000Y-68026287D01*
X130402605Y-68012179D01*
X130359513Y-67999108D01*
X130314700Y-67994694D01*
X130035300Y-67994694D01*
X129990487Y-67999108D01*
X129947395Y-68012179D01*
X129921000Y-68026287D01*
X129894605Y-68012179D01*
X129851513Y-67999108D01*
X129806700Y-67994694D01*
X129527300Y-67994694D01*
X129482487Y-67999108D01*
X129439395Y-68012179D01*
X129413000Y-68026287D01*
X129386605Y-68012179D01*
X129343513Y-67999108D01*
X129298700Y-67994694D01*
X129019300Y-67994694D01*
X128974487Y-67999108D01*
X128957264Y-68004332D01*
X128947571Y-67972377D01*
X128920447Y-67921633D01*
X128909942Y-67908833D01*
X128911350Y-67901756D01*
X128911350Y-67810444D01*
X128893536Y-67720887D01*
X128858593Y-67636527D01*
X128807863Y-67560604D01*
X128743296Y-67496037D01*
X128667373Y-67445307D01*
X128583013Y-67410364D01*
X128493456Y-67392550D01*
X128402144Y-67392550D01*
X128312587Y-67410364D01*
X128228227Y-67445307D01*
X128152304Y-67496037D01*
X128130296Y-67518045D01*
X128114606Y-67502355D01*
X128038683Y-67451625D01*
X127954323Y-67416682D01*
X127864766Y-67398868D01*
X127773454Y-67398868D01*
X127683897Y-67416682D01*
X127599537Y-67451625D01*
X127523614Y-67502355D01*
X127459047Y-67566922D01*
X127408317Y-67642845D01*
X127373374Y-67727205D01*
X127359725Y-67795825D01*
X127339322Y-67802308D01*
X127260461Y-67845804D01*
X127191601Y-67903849D01*
X127135388Y-67974212D01*
X127124784Y-67994694D01*
X127038100Y-67994694D01*
X126993287Y-67999108D01*
X126950195Y-68012179D01*
X126923800Y-68026287D01*
X126897405Y-68012179D01*
X126854313Y-67999108D01*
X126809500Y-67994694D01*
X126530100Y-67994694D01*
X126485287Y-67999108D01*
X126442195Y-68012179D01*
X126415800Y-68026287D01*
X126389405Y-68012179D01*
X126346313Y-67999108D01*
X126301500Y-67994694D01*
X126022100Y-67994694D01*
X125977287Y-67999108D01*
X125934195Y-68012179D01*
X125894482Y-68033406D01*
X125859673Y-68061973D01*
X125831106Y-68096782D01*
X125809879Y-68136495D01*
X125796808Y-68179587D01*
X125792394Y-68224400D01*
X125792394Y-69697600D01*
X125796808Y-69742413D01*
X125809879Y-69785505D01*
X125831106Y-69825218D01*
X125859673Y-69860027D01*
X125894482Y-69888594D01*
X125934195Y-69909821D01*
X125977287Y-69922892D01*
X126022100Y-69927306D01*
X126257040Y-69927306D01*
X126257040Y-70248391D01*
X126255627Y-70262739D01*
X126261266Y-70320000D01*
X126277968Y-70375061D01*
X126305092Y-70425805D01*
X126329972Y-70456121D01*
X126341595Y-70470284D01*
X126352737Y-70479428D01*
X126633068Y-70759759D01*
X126632271Y-70763765D01*
X126632271Y-70855077D01*
X126650085Y-70944634D01*
X126685028Y-71028994D01*
X126735758Y-71104917D01*
X126800325Y-71169484D01*
X126876248Y-71220214D01*
X126960608Y-71255157D01*
X127050165Y-71272971D01*
X127141477Y-71272971D01*
X127231034Y-71255157D01*
X127315394Y-71220214D01*
X127391317Y-71169484D01*
X127455884Y-71104917D01*
X127506614Y-71028994D01*
X127541557Y-70944634D01*
X127559371Y-70855077D01*
X127559371Y-70763765D01*
X127541557Y-70674208D01*
X127506614Y-70589848D01*
X127455884Y-70513925D01*
X127430988Y-70489029D01*
X127437095Y-70484948D01*
X127513160Y-70408883D01*
X127572924Y-70319440D01*
X127614090Y-70220056D01*
X127635077Y-70114551D01*
X127635077Y-70006979D01*
X127614090Y-69901474D01*
X127609600Y-69890634D01*
X127609600Y-69011800D01*
X127589600Y-69011800D01*
X127589600Y-68910200D01*
X127609600Y-68910200D01*
X127609600Y-68890200D01*
X127711200Y-68890200D01*
X127711200Y-68910200D01*
X127731200Y-68910200D01*
X127731200Y-69011800D01*
X127711200Y-69011800D01*
X127711200Y-70040500D01*
X127825500Y-70154800D01*
X127895647Y-70146966D01*
X127981478Y-70119692D01*
X128060339Y-70076196D01*
X128129199Y-70018151D01*
X128185412Y-69947788D01*
X128196016Y-69927306D01*
X128308100Y-69927306D01*
X128352913Y-69922892D01*
X128396005Y-69909821D01*
X128422400Y-69895713D01*
X128448795Y-69909821D01*
X128491887Y-69922892D01*
X128493541Y-69923055D01*
X128468781Y-69982831D01*
X128447794Y-70088336D01*
X128447794Y-70195908D01*
X128468781Y-70301413D01*
X128509947Y-70400797D01*
X128569711Y-70490240D01*
X128645776Y-70566305D01*
X128735219Y-70626069D01*
X128834603Y-70667235D01*
X128940108Y-70688222D01*
X129012587Y-70688222D01*
X128415711Y-71285098D01*
X125986899Y-71285098D01*
X125972553Y-71283685D01*
X125915291Y-71289325D01*
X125860230Y-71306027D01*
X125809486Y-71333151D01*
X125777910Y-71359065D01*
X125765008Y-71369653D01*
X125755864Y-71380795D01*
X125220280Y-71916380D01*
X125162252Y-71877607D01*
X125077892Y-71842664D01*
X124988335Y-71824850D01*
X124897023Y-71824850D01*
X124809328Y-71842294D01*
X124809328Y-71666924D01*
X124810741Y-71652578D01*
X124805101Y-71595316D01*
X124788399Y-71540255D01*
X124761275Y-71489511D01*
X124733918Y-71456176D01*
X124733917Y-71456175D01*
X124724773Y-71445033D01*
X124713632Y-71435890D01*
X124232193Y-70954452D01*
X124223045Y-70943305D01*
X124178567Y-70906803D01*
X124127823Y-70879679D01*
X124072762Y-70862977D01*
X124029846Y-70858750D01*
X124029838Y-70858750D01*
X124015500Y-70857338D01*
X124001162Y-70858750D01*
X123926042Y-70858750D01*
X122960810Y-69893518D01*
X123014400Y-69893200D01*
X123128700Y-69778900D01*
X123128700Y-69011800D01*
X123108700Y-69011800D01*
X123108700Y-68910200D01*
X123128700Y-68910200D01*
X123128700Y-68143100D01*
X123230300Y-68143100D01*
X123230300Y-68910200D01*
X123250300Y-68910200D01*
X123250300Y-69011800D01*
X123230300Y-69011800D01*
X123230300Y-69778900D01*
X123344600Y-69893200D01*
X123717000Y-69895412D01*
X123806627Y-69886585D01*
X123892809Y-69860441D01*
X123972236Y-69817987D01*
X124041853Y-69760853D01*
X124098987Y-69691236D01*
X124141441Y-69611809D01*
X124167585Y-69525627D01*
X124176412Y-69436000D01*
X124176035Y-69383237D01*
X124216032Y-69458066D01*
X124274135Y-69528865D01*
X124343091Y-69585455D01*
X124290225Y-69607353D01*
X124200782Y-69667117D01*
X124124717Y-69743182D01*
X124064953Y-69832625D01*
X124023787Y-69932009D01*
X124002800Y-70037514D01*
X124002800Y-70145086D01*
X124023787Y-70250591D01*
X124064953Y-70349975D01*
X124124717Y-70439418D01*
X124200782Y-70515483D01*
X124290225Y-70575247D01*
X124389609Y-70616413D01*
X124495114Y-70637400D01*
X124602686Y-70637400D01*
X124708191Y-70616413D01*
X124807575Y-70575247D01*
X124897018Y-70515483D01*
X124973083Y-70439418D01*
X125032847Y-70349975D01*
X125074013Y-70250591D01*
X125095000Y-70145086D01*
X125095000Y-70142265D01*
X125152137Y-70085128D01*
X125166187Y-70073597D01*
X125177717Y-70059548D01*
X125177721Y-70059544D01*
X125199646Y-70032828D01*
X125212212Y-70017517D01*
X125239637Y-69966208D01*
X125246411Y-69953535D01*
X125267471Y-69884109D01*
X125270669Y-69851637D01*
X125272800Y-69830003D01*
X125272800Y-69829995D01*
X125274581Y-69811910D01*
X125272800Y-69793825D01*
X125272800Y-69658979D01*
X125295647Y-69656729D01*
X125383292Y-69630142D01*
X125464066Y-69586968D01*
X125534865Y-69528865D01*
X125592968Y-69458066D01*
X125636142Y-69377292D01*
X125662729Y-69289647D01*
X125671706Y-69198500D01*
X125671706Y-68723500D01*
X125662729Y-68632353D01*
X125636142Y-68544708D01*
X125592968Y-68463934D01*
X125534865Y-68393135D01*
X125464066Y-68335032D01*
X125383292Y-68291858D01*
X125295647Y-68265271D01*
X125204500Y-68256294D01*
X124604500Y-68256294D01*
X124513353Y-68265271D01*
X124425708Y-68291858D01*
X124344934Y-68335032D01*
X124274135Y-68393135D01*
X124216032Y-68463934D01*
X124176035Y-68538763D01*
X124176412Y-68486000D01*
X124167585Y-68396373D01*
X124141441Y-68310191D01*
X124098987Y-68230764D01*
X124041853Y-68161147D01*
X123972236Y-68104013D01*
X123892809Y-68061559D01*
X123806627Y-68035415D01*
X123717000Y-68026588D01*
X123344600Y-68028800D01*
X123230300Y-68143100D01*
X123128700Y-68143100D01*
X123014400Y-68028800D01*
X122642000Y-68026588D01*
X122580400Y-68032655D01*
X122580400Y-67913591D01*
X123196692Y-67297300D01*
X123298744Y-67297300D01*
X123306973Y-67307327D01*
X123341782Y-67335894D01*
X123381495Y-67357121D01*
X123424587Y-67370192D01*
X123469400Y-67374606D01*
X124942600Y-67374606D01*
X124987413Y-67370192D01*
X125030505Y-67357121D01*
X125070218Y-67335894D01*
X125105027Y-67307327D01*
X125133594Y-67272518D01*
X125154821Y-67232805D01*
X125167892Y-67189713D01*
X125172306Y-67144900D01*
X125172306Y-66865500D01*
X125167892Y-66820687D01*
X125154821Y-66777595D01*
X125140713Y-66751200D01*
X125154821Y-66724805D01*
X125167892Y-66681713D01*
X125172306Y-66636900D01*
X125172306Y-66382678D01*
X125258928Y-66399908D01*
X125350240Y-66399908D01*
X125439797Y-66382094D01*
X125524157Y-66347151D01*
X125584696Y-66306700D01*
X129396646Y-66306700D01*
X129362374Y-66389439D01*
X129344560Y-66478996D01*
X129344560Y-66570308D01*
X129362374Y-66659865D01*
X129397317Y-66744225D01*
X129448047Y-66820148D01*
X129512614Y-66884715D01*
X129588537Y-66935445D01*
X129672897Y-66970388D01*
X129762454Y-66988202D01*
X129853766Y-66988202D01*
X129943323Y-66970388D01*
X130027683Y-66935445D01*
X130103606Y-66884715D01*
X130168173Y-66820148D01*
X130188785Y-66789300D01*
X134683629Y-66789300D01*
X134674108Y-66820687D01*
X134669694Y-66865500D01*
X134669694Y-67144900D01*
X134674108Y-67189713D01*
X134687179Y-67232805D01*
X134708406Y-67272518D01*
X134736973Y-67307327D01*
X134771782Y-67335894D01*
X134811495Y-67357121D01*
X134854587Y-67370192D01*
X134899400Y-67374606D01*
X136372600Y-67374606D01*
X136417413Y-67370192D01*
X136460505Y-67357121D01*
X136500218Y-67335894D01*
X136535027Y-67307327D01*
X136563594Y-67272518D01*
X136584821Y-67232805D01*
X136597892Y-67189713D01*
X136602306Y-67144900D01*
X136602306Y-66865500D01*
X136597892Y-66820687D01*
X136584821Y-66777595D01*
X136570713Y-66751200D01*
X136584821Y-66724805D01*
X136597892Y-66681713D01*
X136602306Y-66636900D01*
X136602306Y-66458032D01*
X136669189Y-66485736D01*
X136758746Y-66503550D01*
X136850058Y-66503550D01*
X136939615Y-66485736D01*
X137008266Y-66457300D01*
X138823894Y-66457300D01*
X138823894Y-66602700D01*
X138829509Y-66659707D01*
X138846137Y-66714522D01*
X138873140Y-66765041D01*
X138887048Y-66781988D01*
X138801108Y-66808058D01*
X138720334Y-66851232D01*
X138649535Y-66909335D01*
X138612478Y-66954489D01*
X138566065Y-66897935D01*
X138495266Y-66839832D01*
X138414492Y-66796658D01*
X138326847Y-66770071D01*
X138235700Y-66761094D01*
X137760700Y-66761094D01*
X137669553Y-66770071D01*
X137581908Y-66796658D01*
X137501134Y-66839832D01*
X137430335Y-66897935D01*
X137372232Y-66968734D01*
X137329058Y-67049508D01*
X137302471Y-67137153D01*
X137293494Y-67228300D01*
X137293494Y-67803300D01*
X137302471Y-67894447D01*
X137329058Y-67982092D01*
X137372232Y-68062866D01*
X137430335Y-68133665D01*
X137501134Y-68191768D01*
X137581908Y-68234942D01*
X137669553Y-68261529D01*
X137760700Y-68270506D01*
X138235700Y-68270506D01*
X138326847Y-68261529D01*
X138414492Y-68234942D01*
X138495266Y-68191768D01*
X138566065Y-68133665D01*
X138603122Y-68088511D01*
X138649535Y-68145065D01*
X138720334Y-68203168D01*
X138801108Y-68246342D01*
X138888753Y-68272929D01*
X138979900Y-68281906D01*
X139454900Y-68281906D01*
X139546047Y-68272929D01*
X139633692Y-68246342D01*
X139714466Y-68203168D01*
X139785265Y-68145065D01*
X139827000Y-68094211D01*
X139868735Y-68145065D01*
X139939534Y-68203168D01*
X140020308Y-68246342D01*
X140107953Y-68272929D01*
X140199100Y-68281906D01*
X140674100Y-68281906D01*
X140765247Y-68272929D01*
X140852892Y-68246342D01*
X140933666Y-68203168D01*
X141004465Y-68145065D01*
X141046200Y-68094211D01*
X141087935Y-68145065D01*
X141158734Y-68203168D01*
X141239508Y-68246342D01*
X141327153Y-68272929D01*
X141418300Y-68281906D01*
X141893300Y-68281906D01*
X141984447Y-68272929D01*
X142072092Y-68246342D01*
X142152866Y-68203168D01*
X142223665Y-68145065D01*
X142281768Y-68074266D01*
X142324942Y-67993492D01*
X142351529Y-67905847D01*
X142360506Y-67814700D01*
X142360506Y-67239700D01*
X142351529Y-67148553D01*
X142324942Y-67060908D01*
X142281768Y-66980134D01*
X142223665Y-66909335D01*
X142152866Y-66851232D01*
X142085537Y-66815245D01*
X142117393Y-66767569D01*
X142152336Y-66683209D01*
X142170150Y-66593652D01*
X142170150Y-66502340D01*
X142152336Y-66412783D01*
X142117393Y-66328423D01*
X142066663Y-66252500D01*
X142002096Y-66187933D01*
X141998700Y-66185664D01*
X141998700Y-65569906D01*
X142066100Y-65569906D01*
X142123107Y-65564291D01*
X142177922Y-65547663D01*
X142228441Y-65520660D01*
X142272721Y-65484321D01*
X142309060Y-65440041D01*
X142336063Y-65389522D01*
X142352691Y-65334707D01*
X142358306Y-65277700D01*
X142358306Y-65152700D01*
X142352691Y-65095693D01*
X142336063Y-65040878D01*
X142309060Y-64990359D01*
X142288413Y-64965200D01*
X142309060Y-64940041D01*
X142336063Y-64889522D01*
X142352691Y-64834707D01*
X142358306Y-64777700D01*
X142358306Y-64674750D01*
X142412656Y-64674750D01*
X142502213Y-64656936D01*
X142586573Y-64621993D01*
X142662496Y-64571263D01*
X142727063Y-64506696D01*
X142777793Y-64430773D01*
X142812736Y-64346413D01*
X142830550Y-64256856D01*
X142830550Y-64165544D01*
X142812736Y-64075987D01*
X142777793Y-63991627D01*
X142727063Y-63915704D01*
X142662496Y-63851137D01*
X142586573Y-63800407D01*
X142502213Y-63765464D01*
X142412656Y-63747650D01*
X142358306Y-63747650D01*
X142358306Y-63652700D01*
X142352691Y-63595693D01*
X142336063Y-63540878D01*
X142309060Y-63490359D01*
X142272721Y-63446079D01*
X142228441Y-63409740D01*
X142177922Y-63382737D01*
X142123107Y-63366109D01*
X142066100Y-63360494D01*
X141309443Y-63360494D01*
X141303041Y-63339391D01*
X141279813Y-63295933D01*
X141348014Y-63309500D01*
X141455586Y-63309500D01*
X141561091Y-63288513D01*
X141660475Y-63247347D01*
X141749918Y-63187583D01*
X141825983Y-63111518D01*
X141885747Y-63022075D01*
X141926913Y-62922691D01*
X141947900Y-62817186D01*
X141947900Y-62709614D01*
X141926913Y-62604109D01*
X141885747Y-62504725D01*
X141825983Y-62415282D01*
X141749918Y-62339217D01*
X141660475Y-62279453D01*
X141561091Y-62238287D01*
X141455586Y-62217300D01*
X141348014Y-62217300D01*
X141242509Y-62238287D01*
X141143125Y-62279453D01*
X141053682Y-62339217D01*
X141033306Y-62359593D01*
X141033306Y-62327700D01*
X141027691Y-62270693D01*
X141011063Y-62215878D01*
X140984060Y-62165359D01*
X140947721Y-62121079D01*
X140903441Y-62084740D01*
X140852922Y-62057737D01*
X140798107Y-62041109D01*
X140741100Y-62035494D01*
X140699878Y-62035494D01*
X140692128Y-62020036D01*
X140636833Y-61948948D01*
X140568732Y-61890015D01*
X140490443Y-61845499D01*
X140404973Y-61817112D01*
X140341700Y-61808000D01*
X140227400Y-61922300D01*
X140227400Y-62714400D01*
X140249400Y-62714400D01*
X140249400Y-62816000D01*
X140227400Y-62816000D01*
X140227400Y-62836000D01*
X140129800Y-62836000D01*
X140129800Y-62816000D01*
X140107800Y-62816000D01*
X140107800Y-62714400D01*
X140129800Y-62714400D01*
X140129800Y-62012834D01*
X140138150Y-61970856D01*
X140138150Y-61879544D01*
X140120336Y-61789987D01*
X140085393Y-61705627D01*
X140034663Y-61629704D01*
X139970096Y-61565137D01*
X139894173Y-61514407D01*
X139809813Y-61479464D01*
X139720256Y-61461650D01*
X139628944Y-61461650D01*
X139539387Y-61479464D01*
X139455027Y-61514407D01*
X139379104Y-61565137D01*
X139314537Y-61629704D01*
X139263807Y-61705627D01*
X139228864Y-61789987D01*
X139211050Y-61879544D01*
X139211050Y-61970856D01*
X139223907Y-62035494D01*
X139116100Y-62035494D01*
X139059093Y-62041109D01*
X139004278Y-62057737D01*
X138953759Y-62084740D01*
X138909479Y-62121079D01*
X138873140Y-62165359D01*
X138846137Y-62215878D01*
X138829509Y-62270693D01*
X138823894Y-62327700D01*
X138823894Y-62473100D01*
X138353307Y-62473100D01*
X138332863Y-62442504D01*
X138268296Y-62377937D01*
X138192373Y-62327207D01*
X138108013Y-62292264D01*
X138018456Y-62274450D01*
X137927144Y-62274450D01*
X137837587Y-62292264D01*
X137753227Y-62327207D01*
X137677304Y-62377937D01*
X137612737Y-62442504D01*
X137562007Y-62518427D01*
X137542594Y-62565295D01*
X137485056Y-62553850D01*
X137393744Y-62553850D01*
X137304187Y-62571664D01*
X137219827Y-62606607D01*
X137143904Y-62657337D01*
X137101341Y-62699900D01*
X136588371Y-62699900D01*
X136597892Y-62668513D01*
X136602306Y-62623700D01*
X136602306Y-62344300D01*
X136597892Y-62299487D01*
X136584821Y-62256395D01*
X136577501Y-62242700D01*
X136584821Y-62229005D01*
X136597892Y-62185913D01*
X136602306Y-62141100D01*
X136602306Y-61861700D01*
X136597892Y-61816887D01*
X136584821Y-61773795D01*
X136570713Y-61747400D01*
X136584821Y-61721005D01*
X136597892Y-61677913D01*
X136602306Y-61633100D01*
X136602306Y-61353700D01*
X136597892Y-61308887D01*
X136584821Y-61265795D01*
X136570713Y-61239400D01*
X136584821Y-61213005D01*
X136597892Y-61169913D01*
X136602306Y-61125100D01*
X136602306Y-60871100D01*
X137071447Y-60871100D01*
X137089858Y-60931792D01*
X137133032Y-61012566D01*
X137191135Y-61083365D01*
X137261934Y-61141468D01*
X137342708Y-61184642D01*
X137430353Y-61211229D01*
X137521500Y-61220206D01*
X138121500Y-61220206D01*
X138212647Y-61211229D01*
X138300292Y-61184642D01*
X138381066Y-61141468D01*
X138451865Y-61083365D01*
X138509968Y-61012566D01*
X138549965Y-60937737D01*
X138549588Y-60990500D01*
X138558415Y-61080127D01*
X138584559Y-61166309D01*
X138627013Y-61245736D01*
X138684147Y-61315353D01*
X138753764Y-61372487D01*
X138833191Y-61414941D01*
X138919373Y-61441085D01*
X139009000Y-61449912D01*
X139381400Y-61447700D01*
X139495700Y-61333400D01*
X139495700Y-60566300D01*
X139597300Y-60566300D01*
X139597300Y-61333400D01*
X139711600Y-61447700D01*
X140084000Y-61449912D01*
X140173627Y-61441085D01*
X140259809Y-61414941D01*
X140339236Y-61372487D01*
X140408853Y-61315353D01*
X140465987Y-61245736D01*
X140508441Y-61166309D01*
X140534585Y-61080127D01*
X140543412Y-60990500D01*
X140541200Y-60680600D01*
X140426900Y-60566300D01*
X139597300Y-60566300D01*
X139495700Y-60566300D01*
X139475700Y-60566300D01*
X139475700Y-60464700D01*
X139495700Y-60464700D01*
X139495700Y-59697600D01*
X139597300Y-59697600D01*
X139597300Y-60464700D01*
X140426900Y-60464700D01*
X140541200Y-60350400D01*
X140543412Y-60040500D01*
X140534585Y-59950873D01*
X140508441Y-59864691D01*
X140465987Y-59785264D01*
X140408853Y-59715647D01*
X140339236Y-59658513D01*
X140259809Y-59616059D01*
X140173627Y-59589915D01*
X140084000Y-59581088D01*
X139711600Y-59583300D01*
X139597300Y-59697600D01*
X139495700Y-59697600D01*
X139381400Y-59583300D01*
X139009000Y-59581088D01*
X138919373Y-59589915D01*
X138833191Y-59616059D01*
X138753764Y-59658513D01*
X138684147Y-59715647D01*
X138627013Y-59785264D01*
X138584559Y-59864691D01*
X138558415Y-59950873D01*
X138549588Y-60040500D01*
X138549965Y-60093263D01*
X138509968Y-60018434D01*
X138451865Y-59947635D01*
X138381066Y-59889532D01*
X138300292Y-59846358D01*
X138212647Y-59819771D01*
X138121500Y-59810794D01*
X137521500Y-59810794D01*
X137430353Y-59819771D01*
X137342708Y-59846358D01*
X137261934Y-59889532D01*
X137191135Y-59947635D01*
X137133032Y-60018434D01*
X137089858Y-60099208D01*
X137079152Y-60134500D01*
X136804400Y-60134500D01*
X136715500Y-60045600D01*
X135686800Y-60045600D01*
X135686800Y-60065600D01*
X135585200Y-60065600D01*
X135585200Y-60045600D01*
X134556500Y-60045600D01*
X134442200Y-60159900D01*
X134450034Y-60230047D01*
X134477308Y-60315878D01*
X134520804Y-60394739D01*
X134578849Y-60463599D01*
X134649212Y-60519812D01*
X134669694Y-60530416D01*
X134669694Y-60642500D01*
X134674108Y-60687313D01*
X134675924Y-60693300D01*
X134125630Y-60693300D01*
X133840804Y-60408475D01*
X133831656Y-60397328D01*
X133787178Y-60360826D01*
X133736434Y-60333702D01*
X133681373Y-60317000D01*
X133638457Y-60312773D01*
X133638449Y-60312773D01*
X133624111Y-60311361D01*
X133609773Y-60312773D01*
X132667190Y-60312773D01*
X132652852Y-60311361D01*
X132638514Y-60312773D01*
X132638507Y-60312773D01*
X132595591Y-60317000D01*
X132540530Y-60333702D01*
X132489786Y-60360826D01*
X132445308Y-60397328D01*
X132436160Y-60408475D01*
X131986223Y-60858412D01*
X130382943Y-60858412D01*
X130400560Y-60769845D01*
X130400560Y-60678533D01*
X130382746Y-60588976D01*
X130347803Y-60504616D01*
X130306827Y-60443291D01*
X130435167Y-60443291D01*
X130437436Y-60446687D01*
X130502003Y-60511254D01*
X130577926Y-60561984D01*
X130662286Y-60596927D01*
X130751843Y-60614741D01*
X130843155Y-60614741D01*
X130932712Y-60596927D01*
X131017072Y-60561984D01*
X131092995Y-60511254D01*
X131157562Y-60446687D01*
X131208292Y-60370764D01*
X131219624Y-60343406D01*
X131239773Y-60363555D01*
X131248917Y-60374697D01*
X131260059Y-60383841D01*
X131260060Y-60383842D01*
X131273338Y-60394739D01*
X131293395Y-60411199D01*
X131344139Y-60438323D01*
X131399200Y-60455025D01*
X131442116Y-60459252D01*
X131442124Y-60459252D01*
X131456462Y-60460664D01*
X131470800Y-60459252D01*
X131542298Y-60459252D01*
X131544567Y-60462648D01*
X131609134Y-60527215D01*
X131685057Y-60577945D01*
X131769417Y-60612888D01*
X131858974Y-60630702D01*
X131950286Y-60630702D01*
X132039843Y-60612888D01*
X132124203Y-60577945D01*
X132200126Y-60527215D01*
X132264693Y-60462648D01*
X132315423Y-60386725D01*
X132350366Y-60302365D01*
X132368180Y-60212808D01*
X132368180Y-60121496D01*
X132350366Y-60031939D01*
X132315423Y-59947579D01*
X132264693Y-59871656D01*
X132200126Y-59807089D01*
X132161250Y-59781113D01*
X132188038Y-59781113D01*
X132277595Y-59763299D01*
X132361955Y-59728356D01*
X132437878Y-59677626D01*
X132502445Y-59613059D01*
X132553175Y-59537136D01*
X132588118Y-59452776D01*
X132605932Y-59363219D01*
X132605932Y-59271907D01*
X132588118Y-59182350D01*
X132553175Y-59097990D01*
X132525904Y-59057177D01*
X132528173Y-59056237D01*
X132604096Y-59005507D01*
X132648470Y-58961133D01*
X132695099Y-59007762D01*
X132771022Y-59058492D01*
X132855382Y-59093435D01*
X132944939Y-59111249D01*
X133036251Y-59111249D01*
X133125808Y-59093435D01*
X133210168Y-59058492D01*
X133286091Y-59007762D01*
X133350658Y-58943195D01*
X133377410Y-58903158D01*
X133421735Y-58969496D01*
X133486302Y-59034063D01*
X133562225Y-59084793D01*
X133646585Y-59119736D01*
X133736142Y-59137550D01*
X133827454Y-59137550D01*
X133917011Y-59119736D01*
X134001371Y-59084793D01*
X134077294Y-59034063D01*
X134141861Y-58969496D01*
X134192591Y-58893573D01*
X134227534Y-58809213D01*
X134245348Y-58719656D01*
X134245348Y-58628344D01*
X134227534Y-58538787D01*
X134192591Y-58454427D01*
X134141861Y-58378504D01*
X134077294Y-58313937D01*
X134047033Y-58293718D01*
X134049606Y-58267600D01*
X134049606Y-57823100D01*
X134851694Y-57823100D01*
X134851694Y-58961200D01*
X134856108Y-59006013D01*
X134869179Y-59049105D01*
X134890406Y-59088818D01*
X134913858Y-59117394D01*
X134899400Y-59117394D01*
X134854587Y-59121808D01*
X134811495Y-59134879D01*
X134771782Y-59156106D01*
X134736973Y-59184673D01*
X134708406Y-59219482D01*
X134687179Y-59259195D01*
X134674108Y-59302287D01*
X134669694Y-59347100D01*
X134669694Y-59459184D01*
X134649212Y-59469788D01*
X134578849Y-59526001D01*
X134520804Y-59594861D01*
X134477308Y-59673722D01*
X134450034Y-59759553D01*
X134442200Y-59829700D01*
X134556500Y-59944000D01*
X135585200Y-59944000D01*
X135585200Y-59924000D01*
X135686800Y-59924000D01*
X135686800Y-59944000D01*
X136715500Y-59944000D01*
X136829800Y-59829700D01*
X136822403Y-59763467D01*
X136840523Y-59757971D01*
X136891267Y-59730847D01*
X136935745Y-59694345D01*
X136944893Y-59683198D01*
X137437185Y-59190906D01*
X138781400Y-59190906D01*
X138826213Y-59186492D01*
X138869305Y-59173421D01*
X138909018Y-59152194D01*
X138943827Y-59123627D01*
X138972394Y-59088818D01*
X138993621Y-59049105D01*
X139006692Y-59006013D01*
X139011106Y-58961200D01*
X139011106Y-56761200D01*
X139006692Y-56716387D01*
X138993621Y-56673295D01*
X138972394Y-56633582D01*
X138943827Y-56598773D01*
X138909018Y-56570206D01*
X138869305Y-56548979D01*
X138826213Y-56535908D01*
X138781400Y-56531494D01*
X137281400Y-56531494D01*
X137236587Y-56535908D01*
X137193495Y-56548979D01*
X137153782Y-56570206D01*
X137118973Y-56598773D01*
X137090406Y-56633582D01*
X137069179Y-56673295D01*
X137056108Y-56716387D01*
X137051694Y-56761200D01*
X137051694Y-58750215D01*
X136807872Y-58994037D01*
X136811106Y-58961200D01*
X136811106Y-56761200D01*
X136806692Y-56716387D01*
X136793621Y-56673295D01*
X136772394Y-56633582D01*
X136743827Y-56598773D01*
X136709018Y-56570206D01*
X136669305Y-56548979D01*
X136626213Y-56535908D01*
X136581400Y-56531494D01*
X135081400Y-56531494D01*
X135036587Y-56535908D01*
X134993495Y-56548979D01*
X134953782Y-56570206D01*
X134918973Y-56598773D01*
X134890406Y-56633582D01*
X134869179Y-56673295D01*
X134856108Y-56716387D01*
X134851694Y-56761200D01*
X134851694Y-57238900D01*
X134049606Y-57238900D01*
X134049606Y-56794400D01*
X134045192Y-56749587D01*
X134032121Y-56706495D01*
X134010894Y-56666782D01*
X133982327Y-56631973D01*
X133947518Y-56603406D01*
X133907805Y-56582179D01*
X133864713Y-56569108D01*
X133819900Y-56564694D01*
X133540500Y-56564694D01*
X133495687Y-56569108D01*
X133452595Y-56582179D01*
X133426200Y-56596287D01*
X133399805Y-56582179D01*
X133356713Y-56569108D01*
X133311900Y-56564694D01*
X133032500Y-56564694D01*
X132987687Y-56569108D01*
X132944595Y-56582179D01*
X132918200Y-56596287D01*
X132891805Y-56582179D01*
X132848713Y-56569108D01*
X132803900Y-56564694D01*
X132524500Y-56564694D01*
X132479687Y-56569108D01*
X132436595Y-56582179D01*
X132422900Y-56589499D01*
X132409205Y-56582179D01*
X132366113Y-56569108D01*
X132321300Y-56564694D01*
X132041900Y-56564694D01*
X131997087Y-56569108D01*
X131953995Y-56582179D01*
X131927600Y-56596287D01*
X131901205Y-56582179D01*
X131858113Y-56569108D01*
X131813300Y-56564694D01*
X131533900Y-56564694D01*
X131489087Y-56569108D01*
X131445995Y-56582179D01*
X131419600Y-56596287D01*
X131393205Y-56582179D01*
X131350113Y-56569108D01*
X131305300Y-56564694D01*
X131025900Y-56564694D01*
X130981087Y-56569108D01*
X130937995Y-56582179D01*
X130924300Y-56589499D01*
X130910605Y-56582179D01*
X130867513Y-56569108D01*
X130822700Y-56564694D01*
X130543300Y-56564694D01*
X130498487Y-56569108D01*
X130455395Y-56582179D01*
X130429000Y-56596287D01*
X130402605Y-56582179D01*
X130359513Y-56569108D01*
X130314700Y-56564694D01*
X130035300Y-56564694D01*
X129990487Y-56569108D01*
X129947395Y-56582179D01*
X129921000Y-56596287D01*
X129894605Y-56582179D01*
X129851513Y-56569108D01*
X129806700Y-56564694D01*
X129527300Y-56564694D01*
X129482487Y-56569108D01*
X129439395Y-56582179D01*
X129413000Y-56596287D01*
X129386605Y-56582179D01*
X129343513Y-56569108D01*
X129298700Y-56564694D01*
X129019300Y-56564694D01*
X128974487Y-56569108D01*
X128931395Y-56582179D01*
X128917700Y-56589499D01*
X128904005Y-56582179D01*
X128860913Y-56569108D01*
X128816100Y-56564694D01*
X128536700Y-56564694D01*
X128491887Y-56569108D01*
X128448795Y-56582179D01*
X128422400Y-56596287D01*
X128396005Y-56582179D01*
X128352913Y-56569108D01*
X128308100Y-56564694D01*
X128097747Y-56564694D01*
X128098550Y-56560656D01*
X128098550Y-56469344D01*
X128090994Y-56431357D01*
X128437000Y-56433412D01*
X128526627Y-56424585D01*
X128612809Y-56398441D01*
X128692236Y-56355987D01*
X128761853Y-56298853D01*
X128818987Y-56229236D01*
X128861441Y-56149809D01*
X128887585Y-56063627D01*
X128896412Y-55974000D01*
X128894200Y-55664100D01*
X128779900Y-55549800D01*
X127950300Y-55549800D01*
X127950300Y-55569800D01*
X127848700Y-55569800D01*
X127848700Y-55549800D01*
X127828700Y-55549800D01*
X127828700Y-55448200D01*
X127848700Y-55448200D01*
X127848700Y-54681100D01*
X127950300Y-54681100D01*
X127950300Y-55448200D01*
X128779900Y-55448200D01*
X128894200Y-55333900D01*
X128896412Y-55024000D01*
X128887585Y-54934373D01*
X128861441Y-54848191D01*
X128818987Y-54768764D01*
X128761853Y-54699147D01*
X128692236Y-54642013D01*
X128612809Y-54599559D01*
X128526627Y-54573415D01*
X128437000Y-54564588D01*
X128064600Y-54566800D01*
X127950300Y-54681100D01*
X127848700Y-54681100D01*
X127734400Y-54566800D01*
X127362000Y-54564588D01*
X127272373Y-54573415D01*
X127186191Y-54599559D01*
X127106764Y-54642013D01*
X127037147Y-54699147D01*
X126980013Y-54768764D01*
X126937559Y-54848191D01*
X126911415Y-54934373D01*
X126902588Y-55024000D01*
X126902965Y-55076763D01*
X126862968Y-55001934D01*
X126804865Y-54931135D01*
X126734066Y-54873032D01*
X126653292Y-54829858D01*
X126640361Y-54825935D01*
X126645747Y-54817875D01*
X126686913Y-54718491D01*
X126707900Y-54612986D01*
X126707900Y-54505414D01*
X126686913Y-54399909D01*
X126645747Y-54300525D01*
X126585983Y-54211082D01*
X126509918Y-54135017D01*
X126420475Y-54075253D01*
X126321091Y-54034087D01*
X126215586Y-54013100D01*
X126108014Y-54013100D01*
X126002509Y-54034087D01*
X125903125Y-54075253D01*
X125813682Y-54135017D01*
X125737617Y-54211082D01*
X125677853Y-54300525D01*
X125636687Y-54399909D01*
X125615700Y-54505414D01*
X125615700Y-54612986D01*
X125636687Y-54718491D01*
X125677853Y-54817875D01*
X125688451Y-54833737D01*
X125614934Y-54873032D01*
X125544135Y-54931135D01*
X125486032Y-55001934D01*
X125442858Y-55082708D01*
X125416271Y-55170353D01*
X125407294Y-55261500D01*
X125407294Y-55736500D01*
X125416271Y-55827647D01*
X125442858Y-55915292D01*
X125486032Y-55996066D01*
X125544135Y-56066865D01*
X125614934Y-56124968D01*
X125695708Y-56168142D01*
X125783353Y-56194729D01*
X125793501Y-56195728D01*
X125793500Y-56783168D01*
X125792394Y-56794400D01*
X125792394Y-58267600D01*
X125796808Y-58312413D01*
X125809879Y-58355505D01*
X125831106Y-58395218D01*
X125859673Y-58430027D01*
X125894482Y-58458594D01*
X125934195Y-58479821D01*
X125977287Y-58492892D01*
X126022100Y-58497306D01*
X126134184Y-58497306D01*
X126144788Y-58517788D01*
X126201001Y-58588151D01*
X126269861Y-58646196D01*
X126348722Y-58689692D01*
X126434553Y-58716966D01*
X126504700Y-58724800D01*
X126619000Y-58610500D01*
X126619000Y-57581800D01*
X126599000Y-57581800D01*
X126599000Y-57480200D01*
X126619000Y-57480200D01*
X126619000Y-56451500D01*
X126530100Y-56362600D01*
X126530100Y-56198230D01*
X126565647Y-56194729D01*
X126653292Y-56168142D01*
X126734066Y-56124968D01*
X126804865Y-56066865D01*
X126862968Y-55996066D01*
X126902965Y-55921237D01*
X126902588Y-55974000D01*
X126911415Y-56063627D01*
X126937559Y-56149809D01*
X126980013Y-56229236D01*
X127037147Y-56298853D01*
X127106764Y-56355987D01*
X127185615Y-56398133D01*
X127171450Y-56469344D01*
X127171450Y-56514969D01*
X127138599Y-56473849D01*
X127069739Y-56415804D01*
X126990878Y-56372308D01*
X126905047Y-56345034D01*
X126834900Y-56337200D01*
X126720600Y-56451500D01*
X126720600Y-57480200D01*
X126740600Y-57480200D01*
X126740600Y-57581800D01*
X126720600Y-57581800D01*
X126720600Y-58610500D01*
X126834900Y-58724800D01*
X126885701Y-58719127D01*
X126885701Y-59370852D01*
X126884288Y-59385200D01*
X126889927Y-59442461D01*
X126906629Y-59497522D01*
X126933753Y-59548266D01*
X126958126Y-59577964D01*
X126970256Y-59592745D01*
X126981398Y-59601889D01*
X127590208Y-60210700D01*
X126747266Y-60210700D01*
X125826967Y-59290402D01*
X125817819Y-59279255D01*
X125773341Y-59242753D01*
X125722597Y-59215629D01*
X125667536Y-59198927D01*
X125624620Y-59194700D01*
X125624612Y-59194700D01*
X125610274Y-59193288D01*
X125595936Y-59194700D01*
X125113256Y-59194700D01*
X125105027Y-59184673D01*
X125070218Y-59156106D01*
X125030505Y-59134879D01*
X124987413Y-59121808D01*
X124942600Y-59117394D01*
X124067467Y-59117394D01*
X124146173Y-59084793D01*
X124222096Y-59034063D01*
X124286663Y-58969496D01*
X124337393Y-58893573D01*
X124372336Y-58809213D01*
X124390150Y-58719656D01*
X124390150Y-58628344D01*
X124987050Y-58628344D01*
X124987050Y-58719656D01*
X125004864Y-58809213D01*
X125039807Y-58893573D01*
X125090537Y-58969496D01*
X125155104Y-59034063D01*
X125231027Y-59084793D01*
X125315387Y-59119736D01*
X125404944Y-59137550D01*
X125496256Y-59137550D01*
X125585813Y-59119736D01*
X125670173Y-59084793D01*
X125746096Y-59034063D01*
X125810663Y-58969496D01*
X125861393Y-58893573D01*
X125896336Y-58809213D01*
X125914150Y-58719656D01*
X125914150Y-58628344D01*
X125896336Y-58538787D01*
X125861393Y-58454427D01*
X125810663Y-58378504D01*
X125746096Y-58313937D01*
X125670173Y-58263207D01*
X125585813Y-58228264D01*
X125496256Y-58210450D01*
X125404944Y-58210450D01*
X125315387Y-58228264D01*
X125231027Y-58263207D01*
X125155104Y-58313937D01*
X125090537Y-58378504D01*
X125039807Y-58454427D01*
X125004864Y-58538787D01*
X124987050Y-58628344D01*
X124390150Y-58628344D01*
X124372336Y-58538787D01*
X124337393Y-58454427D01*
X124286663Y-58378504D01*
X124244513Y-58336354D01*
X124269500Y-58336200D01*
X124383800Y-58221900D01*
X124383800Y-57454800D01*
X124485400Y-57454800D01*
X124485400Y-58221900D01*
X124599700Y-58336200D01*
X124959600Y-58338412D01*
X125049227Y-58329585D01*
X125135409Y-58303441D01*
X125214836Y-58260987D01*
X125284453Y-58203853D01*
X125341587Y-58134236D01*
X125384041Y-58054809D01*
X125410185Y-57968627D01*
X125419012Y-57879000D01*
X125416800Y-57569100D01*
X125302500Y-57454800D01*
X124485400Y-57454800D01*
X124383800Y-57454800D01*
X124363800Y-57454800D01*
X124363800Y-57353200D01*
X124383800Y-57353200D01*
X124383800Y-57333200D01*
X124485400Y-57333200D01*
X124485400Y-57353200D01*
X125302500Y-57353200D01*
X125416800Y-57238900D01*
X125419012Y-56929000D01*
X125410185Y-56839373D01*
X125384041Y-56753191D01*
X125341587Y-56673764D01*
X125284453Y-56604147D01*
X125214836Y-56547013D01*
X125146319Y-56510390D01*
X125200404Y-56466004D01*
X125260061Y-56393311D01*
X125304391Y-56310376D01*
X125331689Y-56220387D01*
X125340906Y-56126801D01*
X125340906Y-55226799D01*
X125331689Y-55133213D01*
X125304391Y-55043224D01*
X125260061Y-54960289D01*
X125200404Y-54887596D01*
X125127711Y-54827939D01*
X125044776Y-54783609D01*
X124954787Y-54756311D01*
X124861201Y-54747094D01*
X124211199Y-54747094D01*
X124117613Y-54756311D01*
X124027624Y-54783609D01*
X123944689Y-54827939D01*
X123871996Y-54887596D01*
X123812339Y-54960289D01*
X123768009Y-55043224D01*
X123740711Y-55133213D01*
X123731494Y-55226799D01*
X123731494Y-55387493D01*
X123716938Y-55388927D01*
X123661877Y-55405629D01*
X123611133Y-55432753D01*
X123566655Y-55469255D01*
X123557507Y-55480402D01*
X123374598Y-55663311D01*
X123363456Y-55672455D01*
X123354312Y-55683597D01*
X123354310Y-55683599D01*
X123326953Y-55716934D01*
X123299829Y-55767678D01*
X123290906Y-55797094D01*
X123290906Y-55226799D01*
X123281689Y-55133213D01*
X123254391Y-55043224D01*
X123210061Y-54960289D01*
X123150404Y-54887596D01*
X123077711Y-54827939D01*
X122994776Y-54783609D01*
X122904787Y-54756311D01*
X122811201Y-54747094D01*
X122161199Y-54747094D01*
X122067613Y-54756311D01*
X121977624Y-54783609D01*
X121894689Y-54827939D01*
X121821996Y-54887596D01*
X121762339Y-54960289D01*
X121718009Y-55043224D01*
X121690711Y-55133213D01*
X121681494Y-55226799D01*
X121681494Y-56126801D01*
X121690711Y-56220387D01*
X121718009Y-56310376D01*
X121762339Y-56393311D01*
X121821996Y-56466004D01*
X121894689Y-56525661D01*
X121977624Y-56569991D01*
X122067613Y-56597289D01*
X122161199Y-56606506D01*
X122253901Y-56606506D01*
X122253901Y-56724061D01*
X122218308Y-56734858D01*
X122137534Y-56778032D01*
X122066735Y-56836135D01*
X122008632Y-56906934D01*
X121965458Y-56987708D01*
X121938871Y-57075353D01*
X121929894Y-57166500D01*
X121929894Y-57641500D01*
X121938871Y-57732647D01*
X121965458Y-57820292D01*
X122008632Y-57901066D01*
X122066735Y-57971865D01*
X122137534Y-58029968D01*
X122218308Y-58073142D01*
X122305953Y-58099729D01*
X122397100Y-58108706D01*
X122972100Y-58108706D01*
X123063247Y-58099729D01*
X123150892Y-58073142D01*
X123231666Y-58029968D01*
X123278900Y-57991204D01*
X123278900Y-58304062D01*
X123277488Y-58318400D01*
X123278900Y-58332738D01*
X123278900Y-58332745D01*
X123283127Y-58375661D01*
X123299829Y-58430722D01*
X123326953Y-58481466D01*
X123363455Y-58525945D01*
X123374602Y-58535093D01*
X123463847Y-58624338D01*
X123463050Y-58628344D01*
X123463050Y-58719656D01*
X123480864Y-58809213D01*
X123515807Y-58893573D01*
X123566537Y-58969496D01*
X123631104Y-59034063D01*
X123707027Y-59084793D01*
X123785733Y-59117394D01*
X123469400Y-59117394D01*
X123424587Y-59121808D01*
X123381495Y-59134879D01*
X123341782Y-59156106D01*
X123306973Y-59184673D01*
X123278406Y-59219482D01*
X123257179Y-59259195D01*
X123244108Y-59302287D01*
X123239694Y-59347100D01*
X123239694Y-59626500D01*
X123244108Y-59671313D01*
X123257179Y-59714405D01*
X123271287Y-59740800D01*
X123257179Y-59767195D01*
X123244108Y-59810287D01*
X123239694Y-59855100D01*
X123239694Y-60134500D01*
X123244108Y-60179313D01*
X123257179Y-60222405D01*
X123271287Y-60248800D01*
X123257179Y-60275195D01*
X123244108Y-60318287D01*
X123239694Y-60363100D01*
X123239694Y-60642500D01*
X123244108Y-60687313D01*
X123257179Y-60730405D01*
X123264499Y-60744100D01*
X123257179Y-60757795D01*
X123244108Y-60800887D01*
X123239694Y-60845700D01*
X123239694Y-61125100D01*
X123244108Y-61169913D01*
X123257179Y-61213005D01*
X123271287Y-61239400D01*
X123257179Y-61265795D01*
X123244108Y-61308887D01*
X123239694Y-61353700D01*
X123239694Y-61633100D01*
X123244108Y-61677913D01*
X123257179Y-61721005D01*
X123271287Y-61747400D01*
X123257179Y-61773795D01*
X123244108Y-61816887D01*
X123239694Y-61861700D01*
X123239694Y-62141100D01*
X123244108Y-62185913D01*
X123257179Y-62229005D01*
X123264499Y-62242700D01*
X123257179Y-62256395D01*
X123244108Y-62299487D01*
X123239694Y-62344300D01*
X123239694Y-62623700D01*
X123244108Y-62668513D01*
X123257179Y-62711605D01*
X123271287Y-62738000D01*
X123257179Y-62764395D01*
X123244108Y-62807487D01*
X123239694Y-62852300D01*
X123239694Y-63131700D01*
X123244108Y-63176513D01*
X123257179Y-63219605D01*
X123271287Y-63246000D01*
X123257179Y-63272395D01*
X123244108Y-63315487D01*
X123239694Y-63360300D01*
X123239694Y-63639700D01*
X123244108Y-63684513D01*
X123257179Y-63727605D01*
X123271287Y-63754000D01*
X123257179Y-63780395D01*
X123244108Y-63823487D01*
X123239694Y-63868300D01*
X123239694Y-64147700D01*
X123244108Y-64192513D01*
X123257179Y-64235605D01*
X123264499Y-64249300D01*
X123257179Y-64262995D01*
X123244108Y-64306087D01*
X123239694Y-64350900D01*
X123239694Y-64630300D01*
X123244108Y-64675113D01*
X123257179Y-64718205D01*
X123271287Y-64744600D01*
X123257179Y-64770995D01*
X123244108Y-64814087D01*
X123239694Y-64858900D01*
X123239694Y-65138300D01*
X123244108Y-65183113D01*
X123257179Y-65226205D01*
X123271287Y-65252600D01*
X123257179Y-65278995D01*
X123244108Y-65322087D01*
X123239694Y-65366900D01*
X123239694Y-65646300D01*
X123244108Y-65691113D01*
X123246833Y-65700096D01*
X123234338Y-65701327D01*
X123179277Y-65718029D01*
X123128533Y-65745153D01*
X123084055Y-65781655D01*
X123074907Y-65792802D01*
X121583882Y-67283827D01*
X121572735Y-67292975D01*
X121536233Y-67337454D01*
X121509109Y-67388198D01*
X121492407Y-67443259D01*
X121488180Y-67486175D01*
X121488180Y-67486182D01*
X121486768Y-67500520D01*
X121488180Y-67514858D01*
X121488181Y-69893682D01*
X121486768Y-69908030D01*
X121492407Y-69965291D01*
X121509109Y-70020352D01*
X121536233Y-70071096D01*
X121559686Y-70099673D01*
X121572736Y-70115575D01*
X121583878Y-70124719D01*
X123181519Y-71722361D01*
X123121272Y-71762617D01*
X123045207Y-71838682D01*
X122985443Y-71928125D01*
X122944277Y-72027509D01*
X122923290Y-72133014D01*
X122923290Y-72240586D01*
X122944277Y-72346091D01*
X122985443Y-72445475D01*
X123045207Y-72534918D01*
X123121272Y-72610983D01*
X123210715Y-72670747D01*
X123310099Y-72711913D01*
X123415604Y-72732900D01*
X123523176Y-72732900D01*
X123628681Y-72711913D01*
X123717107Y-72675286D01*
X123717107Y-72712901D01*
X123277767Y-73152242D01*
X123255909Y-73140559D01*
X123169727Y-73114415D01*
X123080100Y-73105588D01*
X123070200Y-73107800D01*
X122955900Y-73222100D01*
X122955900Y-74239200D01*
X122975900Y-74239200D01*
X122975900Y-74340800D01*
X122955900Y-74340800D01*
X122955900Y-74360800D01*
X122854300Y-74360800D01*
X122854300Y-74340800D01*
X122834300Y-74340800D01*
X122834300Y-74239200D01*
X122854300Y-74239200D01*
X122854300Y-73222100D01*
X122740000Y-73107800D01*
X122730100Y-73105588D01*
X122640473Y-73114415D01*
X122554291Y-73140559D01*
X122523300Y-73157124D01*
X122523300Y-72116271D01*
X122522219Y-72105295D01*
X122518779Y-72059878D01*
X122515478Y-72041024D01*
X122513397Y-72021998D01*
X122512532Y-72018013D01*
X122490483Y-71919704D01*
X122482200Y-71894571D01*
X122474261Y-71869302D01*
X122472641Y-71865566D01*
X122472639Y-71865561D01*
X122472636Y-71865556D01*
X122431913Y-71773405D01*
X122418905Y-71750359D01*
X122406211Y-71727115D01*
X122403895Y-71723764D01*
X122403892Y-71723759D01*
X122403888Y-71723755D01*
X122346045Y-71641271D01*
X122328806Y-71621188D01*
X122311840Y-71600854D01*
X122308914Y-71598013D01*
X122236144Y-71528331D01*
X122215369Y-71512007D01*
X122194741Y-71495327D01*
X122191319Y-71493109D01*
X122106401Y-71438888D01*
X122082827Y-71426898D01*
X122059378Y-71414556D01*
X122055590Y-71413044D01*
X121961758Y-71376349D01*
X121936309Y-71369168D01*
X121910900Y-71361613D01*
X121906891Y-71360866D01*
X121807719Y-71343096D01*
X121802232Y-71342658D01*
X121796888Y-71341365D01*
X121792846Y-71340825D01*
X121701684Y-71329296D01*
X121641678Y-71309326D01*
X121586684Y-71278075D01*
X121538814Y-71236745D01*
X121499883Y-71186899D01*
X121471373Y-71130442D01*
X121453402Y-71066042D01*
X121448300Y-71015816D01*
X121448300Y-54648472D01*
X121467012Y-54496014D01*
X121511613Y-54360336D01*
X121581719Y-54235903D01*
X121674660Y-54127457D01*
X121786898Y-54039125D01*
X121914146Y-53974281D01*
X122054533Y-53934548D01*
X122171009Y-53922717D01*
X134142462Y-53922717D01*
X134154162Y-54027022D01*
%TA.AperFunction,Conductor*%
D20*
G36*
X134154162Y-54027022D02*
G01*
X134159669Y-54052930D01*
X134164809Y-54078888D01*
X134166015Y-54082784D01*
X134269286Y-54408337D01*
X134279710Y-54432657D01*
X134289804Y-54457148D01*
X134291744Y-54460735D01*
X134456282Y-54760029D01*
X134471235Y-54781868D01*
X134485890Y-54803925D01*
X134488489Y-54807067D01*
X134708027Y-55068702D01*
X134726943Y-55087226D01*
X134745597Y-55106011D01*
X134748752Y-55108583D01*
X134748758Y-55108589D01*
X134748765Y-55108593D01*
X135014932Y-55322599D01*
X135037075Y-55337089D01*
X135059034Y-55351901D01*
X135062635Y-55353815D01*
X135365309Y-55512049D01*
X135389875Y-55521974D01*
X135414262Y-55532226D01*
X135418166Y-55533405D01*
X135745811Y-55629836D01*
X135771828Y-55634799D01*
X135797751Y-55640120D01*
X135801810Y-55640518D01*
X136141944Y-55671472D01*
X136168418Y-55671287D01*
X136194891Y-55671472D01*
X136198949Y-55671074D01*
X136198953Y-55671074D01*
X136538618Y-55635374D01*
X136564535Y-55630054D01*
X136590558Y-55625090D01*
X136594462Y-55623911D01*
X136920728Y-55522915D01*
X136945115Y-55512663D01*
X136969681Y-55502738D01*
X136973282Y-55500823D01*
X137273718Y-55338378D01*
X137295639Y-55323592D01*
X137317820Y-55309078D01*
X137320980Y-55306500D01*
X137584141Y-55088794D01*
X137602812Y-55069992D01*
X137621711Y-55051485D01*
X137624311Y-55048342D01*
X137840173Y-54783668D01*
X137854793Y-54761663D01*
X137869782Y-54739773D01*
X137871721Y-54736185D01*
X138032065Y-54434623D01*
X138042151Y-54410153D01*
X138052584Y-54385812D01*
X138053789Y-54381916D01*
X138152505Y-54054953D01*
X138157646Y-54028987D01*
X138163152Y-54003086D01*
X138163578Y-53999031D01*
X138171061Y-53922717D01*
X142138345Y-53922717D01*
X142290802Y-53941429D01*
X142426486Y-53986032D01*
X142550915Y-54056138D01*
X142659361Y-54149078D01*
X142747692Y-54261315D01*
X142812537Y-54388564D01*
X142852270Y-54528951D01*
X142864100Y-54645417D01*
X142864101Y-71012205D01*
X142854878Y-71085132D01*
X142834907Y-71145142D01*
X142803659Y-71200131D01*
X142762325Y-71248003D01*
X142712482Y-71286934D01*
X142656025Y-71315444D01*
X142591625Y-71333415D01*
X142526681Y-71340012D01*
X142525000Y-71340351D01*
X142523288Y-71340377D01*
X142519239Y-71340865D01*
X142461369Y-71348247D01*
X142441327Y-71352826D01*
X142421040Y-71356309D01*
X142417115Y-71357416D01*
X142321382Y-71385126D01*
X142296811Y-71394926D01*
X142272064Y-71404397D01*
X142268429Y-71406245D01*
X142179902Y-71452022D01*
X142157697Y-71466411D01*
X142135267Y-71480505D01*
X142132060Y-71483024D01*
X142054110Y-71545125D01*
X142035128Y-71563548D01*
X142015858Y-71581734D01*
X142013207Y-71584823D01*
X142013201Y-71584829D01*
X142013197Y-71584835D01*
X141948799Y-71660886D01*
X141933758Y-71682644D01*
X141918387Y-71704227D01*
X141916381Y-71707778D01*
X141867977Y-71794897D01*
X141857444Y-71819173D01*
X141846561Y-71843323D01*
X141845284Y-71847196D01*
X141814724Y-71942058D01*
X141809111Y-71967897D01*
X141803123Y-71993718D01*
X141802622Y-71997765D01*
X141794096Y-72070821D01*
X141793327Y-72073356D01*
X141789100Y-72116272D01*
X141789100Y-73158300D01*
X141755909Y-73140559D01*
X141669727Y-73114415D01*
X141580100Y-73105588D01*
X141570200Y-73107800D01*
X141455900Y-73222100D01*
X141455900Y-74239200D01*
X141475900Y-74239200D01*
X141475900Y-74340800D01*
X141455900Y-74340800D01*
X141455900Y-74360800D01*
X141354300Y-74360800D01*
X141354300Y-74340800D01*
X141334300Y-74340800D01*
X141334300Y-74239200D01*
X141354300Y-74239200D01*
X141354300Y-73222100D01*
X141240000Y-73107800D01*
X141230100Y-73105588D01*
X141197200Y-73108828D01*
X141197200Y-70979235D01*
X141198612Y-70964899D01*
X141197200Y-70950563D01*
X141197200Y-70950554D01*
X141192973Y-70907638D01*
X141176271Y-70852577D01*
X141149147Y-70801833D01*
X141112645Y-70757355D01*
X141101499Y-70748208D01*
X140385197Y-70031906D01*
X140674100Y-70031906D01*
X140765247Y-70022929D01*
X140852892Y-69996342D01*
X140933666Y-69953168D01*
X141004465Y-69895065D01*
X141046200Y-69844211D01*
X141087935Y-69895065D01*
X141104413Y-69908588D01*
X141044853Y-69997725D01*
X141003687Y-70097109D01*
X140982700Y-70202614D01*
X140982700Y-70310186D01*
X141003687Y-70415691D01*
X141044853Y-70515075D01*
X141104617Y-70604518D01*
X141180682Y-70680583D01*
X141270125Y-70740347D01*
X141369509Y-70781513D01*
X141475014Y-70802500D01*
X141582586Y-70802500D01*
X141688091Y-70781513D01*
X141787475Y-70740347D01*
X141876918Y-70680583D01*
X141952983Y-70604518D01*
X142012747Y-70515075D01*
X142053913Y-70415691D01*
X142074900Y-70310186D01*
X142074900Y-70202614D01*
X142053913Y-70097109D01*
X142018862Y-70012489D01*
X142072092Y-69996342D01*
X142152866Y-69953168D01*
X142223665Y-69895065D01*
X142281768Y-69824266D01*
X142324942Y-69743492D01*
X142351529Y-69655847D01*
X142360506Y-69564700D01*
X142360506Y-68989700D01*
X142351529Y-68898553D01*
X142324942Y-68810908D01*
X142281768Y-68730134D01*
X142223665Y-68659335D01*
X142152866Y-68601232D01*
X142072092Y-68558058D01*
X141984447Y-68531471D01*
X141893300Y-68522494D01*
X141418300Y-68522494D01*
X141327153Y-68531471D01*
X141239508Y-68558058D01*
X141158734Y-68601232D01*
X141087935Y-68659335D01*
X141046200Y-68710189D01*
X141004465Y-68659335D01*
X140933666Y-68601232D01*
X140852892Y-68558058D01*
X140765247Y-68531471D01*
X140674100Y-68522494D01*
X140199100Y-68522494D01*
X140107953Y-68531471D01*
X140020308Y-68558058D01*
X139939534Y-68601232D01*
X139868735Y-68659335D01*
X139827000Y-68710189D01*
X139785265Y-68659335D01*
X139714466Y-68601232D01*
X139633692Y-68558058D01*
X139546047Y-68531471D01*
X139454900Y-68522494D01*
X138979900Y-68522494D01*
X138888753Y-68531471D01*
X138801108Y-68558058D01*
X138720334Y-68601232D01*
X138649535Y-68659335D01*
X138612478Y-68704489D01*
X138566065Y-68647935D01*
X138495266Y-68589832D01*
X138414492Y-68546658D01*
X138326847Y-68520071D01*
X138235700Y-68511094D01*
X137760700Y-68511094D01*
X137704339Y-68516645D01*
X137687941Y-68462591D01*
X137645487Y-68383164D01*
X137588353Y-68313547D01*
X137518736Y-68256413D01*
X137439309Y-68213959D01*
X137353127Y-68187815D01*
X137263500Y-68178988D01*
X136891100Y-68181200D01*
X136776800Y-68295500D01*
X136776800Y-69062600D01*
X136796800Y-69062600D01*
X136796800Y-69164200D01*
X136776800Y-69164200D01*
X136776800Y-69184200D01*
X136675200Y-69184200D01*
X136675200Y-69164200D01*
X136655200Y-69164200D01*
X136655200Y-69062600D01*
X136675200Y-69062600D01*
X136675200Y-68295500D01*
X136560900Y-68181200D01*
X136188500Y-68178988D01*
X136098873Y-68187815D01*
X136012691Y-68213959D01*
X135933264Y-68256413D01*
X135863647Y-68313547D01*
X135806513Y-68383164D01*
X135764059Y-68462591D01*
X135737915Y-68548773D01*
X135729088Y-68638400D01*
X135729465Y-68691163D01*
X135689468Y-68616334D01*
X135631365Y-68545535D01*
X135560566Y-68487432D01*
X135479792Y-68444258D01*
X135459128Y-68437990D01*
X135481619Y-68383691D01*
X135502606Y-68278186D01*
X135502606Y-68170614D01*
X135481619Y-68065109D01*
X135440453Y-67965725D01*
X135380689Y-67876282D01*
X135304624Y-67800217D01*
X135215181Y-67740453D01*
X135115797Y-67699287D01*
X135010292Y-67678300D01*
X134974404Y-67678300D01*
X134939906Y-67649987D01*
X134875923Y-67615788D01*
X134806498Y-67594728D01*
X134752392Y-67589399D01*
X134752384Y-67589399D01*
X134734299Y-67587618D01*
X134716214Y-67589399D01*
X132669584Y-67589399D01*
X132651499Y-67587618D01*
X132633414Y-67589399D01*
X132364783Y-67589399D01*
X132346698Y-67587618D01*
X132328613Y-67589399D01*
X132328606Y-67589399D01*
X132281519Y-67594037D01*
X132274499Y-67594728D01*
X132256072Y-67600318D01*
X132205075Y-67615788D01*
X132141092Y-67649987D01*
X132085012Y-67696012D01*
X132073473Y-67710072D01*
X131933964Y-67849580D01*
X131919914Y-67861111D01*
X131908384Y-67875160D01*
X131908379Y-67875165D01*
X131893245Y-67893606D01*
X131873889Y-67917191D01*
X131847948Y-67965725D01*
X131839690Y-67981174D01*
X131834942Y-67996826D01*
X131813300Y-67994694D01*
X131533900Y-67994694D01*
X131489087Y-67999108D01*
X131445995Y-68012179D01*
X131419600Y-68026287D01*
X131393205Y-68012179D01*
X131350113Y-67999108D01*
X131305300Y-67994694D01*
X131025900Y-67994694D01*
X130981087Y-67999108D01*
X130937995Y-68012179D01*
X130924300Y-68019499D01*
X130910605Y-68012179D01*
X130867513Y-67999108D01*
X130822700Y-67994694D01*
X130543300Y-67994694D01*
X130498487Y-67999108D01*
X130455395Y-68012179D01*
X130429000Y-68026287D01*
X130402605Y-68012179D01*
X130359513Y-67999108D01*
X130314700Y-67994694D01*
X130035300Y-67994694D01*
X129990487Y-67999108D01*
X129947395Y-68012179D01*
X129921000Y-68026287D01*
X129894605Y-68012179D01*
X129851513Y-67999108D01*
X129806700Y-67994694D01*
X129527300Y-67994694D01*
X129482487Y-67999108D01*
X129439395Y-68012179D01*
X129413000Y-68026287D01*
X129386605Y-68012179D01*
X129343513Y-67999108D01*
X129298700Y-67994694D01*
X129019300Y-67994694D01*
X128974487Y-67999108D01*
X128957264Y-68004332D01*
X128947571Y-67972377D01*
X128920447Y-67921633D01*
X128909942Y-67908833D01*
X128911350Y-67901756D01*
X128911350Y-67810444D01*
X128893536Y-67720887D01*
X128858593Y-67636527D01*
X128807863Y-67560604D01*
X128743296Y-67496037D01*
X128667373Y-67445307D01*
X128583013Y-67410364D01*
X128493456Y-67392550D01*
X128402144Y-67392550D01*
X128312587Y-67410364D01*
X128228227Y-67445307D01*
X128152304Y-67496037D01*
X128130296Y-67518045D01*
X128114606Y-67502355D01*
X128038683Y-67451625D01*
X127954323Y-67416682D01*
X127864766Y-67398868D01*
X127773454Y-67398868D01*
X127683897Y-67416682D01*
X127599537Y-67451625D01*
X127523614Y-67502355D01*
X127459047Y-67566922D01*
X127408317Y-67642845D01*
X127373374Y-67727205D01*
X127359725Y-67795825D01*
X127339322Y-67802308D01*
X127260461Y-67845804D01*
X127191601Y-67903849D01*
X127135388Y-67974212D01*
X127124784Y-67994694D01*
X127038100Y-67994694D01*
X126993287Y-67999108D01*
X126950195Y-68012179D01*
X126923800Y-68026287D01*
X126897405Y-68012179D01*
X126854313Y-67999108D01*
X126809500Y-67994694D01*
X126530100Y-67994694D01*
X126485287Y-67999108D01*
X126442195Y-68012179D01*
X126415800Y-68026287D01*
X126389405Y-68012179D01*
X126346313Y-67999108D01*
X126301500Y-67994694D01*
X126022100Y-67994694D01*
X125977287Y-67999108D01*
X125934195Y-68012179D01*
X125894482Y-68033406D01*
X125859673Y-68061973D01*
X125831106Y-68096782D01*
X125809879Y-68136495D01*
X125796808Y-68179587D01*
X125792394Y-68224400D01*
X125792394Y-69697600D01*
X125796808Y-69742413D01*
X125809879Y-69785505D01*
X125831106Y-69825218D01*
X125859673Y-69860027D01*
X125894482Y-69888594D01*
X125934195Y-69909821D01*
X125977287Y-69922892D01*
X126022100Y-69927306D01*
X126257040Y-69927306D01*
X126257040Y-70248391D01*
X126255627Y-70262739D01*
X126261266Y-70320000D01*
X126277968Y-70375061D01*
X126305092Y-70425805D01*
X126329972Y-70456121D01*
X126341595Y-70470284D01*
X126352737Y-70479428D01*
X126633068Y-70759759D01*
X126632271Y-70763765D01*
X126632271Y-70855077D01*
X126650085Y-70944634D01*
X126685028Y-71028994D01*
X126735758Y-71104917D01*
X126800325Y-71169484D01*
X126876248Y-71220214D01*
X126960608Y-71255157D01*
X127050165Y-71272971D01*
X127141477Y-71272971D01*
X127231034Y-71255157D01*
X127315394Y-71220214D01*
X127391317Y-71169484D01*
X127455884Y-71104917D01*
X127506614Y-71028994D01*
X127541557Y-70944634D01*
X127559371Y-70855077D01*
X127559371Y-70763765D01*
X127541557Y-70674208D01*
X127506614Y-70589848D01*
X127455884Y-70513925D01*
X127430988Y-70489029D01*
X127437095Y-70484948D01*
X127513160Y-70408883D01*
X127572924Y-70319440D01*
X127614090Y-70220056D01*
X127635077Y-70114551D01*
X127635077Y-70006979D01*
X127614090Y-69901474D01*
X127609600Y-69890634D01*
X127609600Y-69011800D01*
X127589600Y-69011800D01*
X127589600Y-68910200D01*
X127609600Y-68910200D01*
X127609600Y-68890200D01*
X127711200Y-68890200D01*
X127711200Y-68910200D01*
X127731200Y-68910200D01*
X127731200Y-69011800D01*
X127711200Y-69011800D01*
X127711200Y-70040500D01*
X127825500Y-70154800D01*
X127895647Y-70146966D01*
X127981478Y-70119692D01*
X128060339Y-70076196D01*
X128129199Y-70018151D01*
X128185412Y-69947788D01*
X128196016Y-69927306D01*
X128308100Y-69927306D01*
X128352913Y-69922892D01*
X128396005Y-69909821D01*
X128422400Y-69895713D01*
X128448795Y-69909821D01*
X128491887Y-69922892D01*
X128493541Y-69923055D01*
X128468781Y-69982831D01*
X128447794Y-70088336D01*
X128447794Y-70195908D01*
X128468781Y-70301413D01*
X128509947Y-70400797D01*
X128569711Y-70490240D01*
X128645776Y-70566305D01*
X128735219Y-70626069D01*
X128834603Y-70667235D01*
X128940108Y-70688222D01*
X129012587Y-70688222D01*
X128415711Y-71285098D01*
X125986899Y-71285098D01*
X125972553Y-71283685D01*
X125915291Y-71289325D01*
X125860230Y-71306027D01*
X125809486Y-71333151D01*
X125777910Y-71359065D01*
X125765008Y-71369653D01*
X125755864Y-71380795D01*
X125220280Y-71916380D01*
X125162252Y-71877607D01*
X125077892Y-71842664D01*
X124988335Y-71824850D01*
X124897023Y-71824850D01*
X124809328Y-71842294D01*
X124809328Y-71666924D01*
X124810741Y-71652578D01*
X124805101Y-71595316D01*
X124788399Y-71540255D01*
X124761275Y-71489511D01*
X124733918Y-71456176D01*
X124733917Y-71456175D01*
X124724773Y-71445033D01*
X124713632Y-71435890D01*
X124232193Y-70954452D01*
X124223045Y-70943305D01*
X124178567Y-70906803D01*
X124127823Y-70879679D01*
X124072762Y-70862977D01*
X124029846Y-70858750D01*
X124029838Y-70858750D01*
X124015500Y-70857338D01*
X124001162Y-70858750D01*
X123926042Y-70858750D01*
X122960810Y-69893518D01*
X123014400Y-69893200D01*
X123128700Y-69778900D01*
X123128700Y-69011800D01*
X123108700Y-69011800D01*
X123108700Y-68910200D01*
X123128700Y-68910200D01*
X123128700Y-68143100D01*
X123230300Y-68143100D01*
X123230300Y-68910200D01*
X123250300Y-68910200D01*
X123250300Y-69011800D01*
X123230300Y-69011800D01*
X123230300Y-69778900D01*
X123344600Y-69893200D01*
X123717000Y-69895412D01*
X123806627Y-69886585D01*
X123892809Y-69860441D01*
X123972236Y-69817987D01*
X124041853Y-69760853D01*
X124098987Y-69691236D01*
X124141441Y-69611809D01*
X124167585Y-69525627D01*
X124176412Y-69436000D01*
X124176035Y-69383237D01*
X124216032Y-69458066D01*
X124274135Y-69528865D01*
X124343091Y-69585455D01*
X124290225Y-69607353D01*
X124200782Y-69667117D01*
X124124717Y-69743182D01*
X124064953Y-69832625D01*
X124023787Y-69932009D01*
X124002800Y-70037514D01*
X124002800Y-70145086D01*
X124023787Y-70250591D01*
X124064953Y-70349975D01*
X124124717Y-70439418D01*
X124200782Y-70515483D01*
X124290225Y-70575247D01*
X124389609Y-70616413D01*
X124495114Y-70637400D01*
X124602686Y-70637400D01*
X124708191Y-70616413D01*
X124807575Y-70575247D01*
X124897018Y-70515483D01*
X124973083Y-70439418D01*
X125032847Y-70349975D01*
X125074013Y-70250591D01*
X125095000Y-70145086D01*
X125095000Y-70142265D01*
X125152137Y-70085128D01*
X125166187Y-70073597D01*
X125177717Y-70059548D01*
X125177721Y-70059544D01*
X125199646Y-70032828D01*
X125212212Y-70017517D01*
X125239637Y-69966208D01*
X125246411Y-69953535D01*
X125267471Y-69884109D01*
X125270669Y-69851637D01*
X125272800Y-69830003D01*
X125272800Y-69829995D01*
X125274581Y-69811910D01*
X125272800Y-69793825D01*
X125272800Y-69658979D01*
X125295647Y-69656729D01*
X125383292Y-69630142D01*
X125464066Y-69586968D01*
X125534865Y-69528865D01*
X125592968Y-69458066D01*
X125636142Y-69377292D01*
X125662729Y-69289647D01*
X125671706Y-69198500D01*
X125671706Y-68723500D01*
X125662729Y-68632353D01*
X125636142Y-68544708D01*
X125592968Y-68463934D01*
X125534865Y-68393135D01*
X125464066Y-68335032D01*
X125383292Y-68291858D01*
X125295647Y-68265271D01*
X125204500Y-68256294D01*
X124604500Y-68256294D01*
X124513353Y-68265271D01*
X124425708Y-68291858D01*
X124344934Y-68335032D01*
X124274135Y-68393135D01*
X124216032Y-68463934D01*
X124176035Y-68538763D01*
X124176412Y-68486000D01*
X124167585Y-68396373D01*
X124141441Y-68310191D01*
X124098987Y-68230764D01*
X124041853Y-68161147D01*
X123972236Y-68104013D01*
X123892809Y-68061559D01*
X123806627Y-68035415D01*
X123717000Y-68026588D01*
X123344600Y-68028800D01*
X123230300Y-68143100D01*
X123128700Y-68143100D01*
X123014400Y-68028800D01*
X122642000Y-68026588D01*
X122580400Y-68032655D01*
X122580400Y-67913591D01*
X123196692Y-67297300D01*
X123298744Y-67297300D01*
X123306973Y-67307327D01*
X123341782Y-67335894D01*
X123381495Y-67357121D01*
X123424587Y-67370192D01*
X123469400Y-67374606D01*
X124942600Y-67374606D01*
X124987413Y-67370192D01*
X125030505Y-67357121D01*
X125070218Y-67335894D01*
X125105027Y-67307327D01*
X125133594Y-67272518D01*
X125154821Y-67232805D01*
X125167892Y-67189713D01*
X125172306Y-67144900D01*
X125172306Y-66865500D01*
X125167892Y-66820687D01*
X125154821Y-66777595D01*
X125140713Y-66751200D01*
X125154821Y-66724805D01*
X125167892Y-66681713D01*
X125172306Y-66636900D01*
X125172306Y-66382678D01*
X125258928Y-66399908D01*
X125350240Y-66399908D01*
X125439797Y-66382094D01*
X125524157Y-66347151D01*
X125584696Y-66306700D01*
X129396646Y-66306700D01*
X129362374Y-66389439D01*
X129344560Y-66478996D01*
X129344560Y-66570308D01*
X129362374Y-66659865D01*
X129397317Y-66744225D01*
X129448047Y-66820148D01*
X129512614Y-66884715D01*
X129588537Y-66935445D01*
X129672897Y-66970388D01*
X129762454Y-66988202D01*
X129853766Y-66988202D01*
X129943323Y-66970388D01*
X130027683Y-66935445D01*
X130103606Y-66884715D01*
X130168173Y-66820148D01*
X130188785Y-66789300D01*
X134683629Y-66789300D01*
X134674108Y-66820687D01*
X134669694Y-66865500D01*
X134669694Y-67144900D01*
X134674108Y-67189713D01*
X134687179Y-67232805D01*
X134708406Y-67272518D01*
X134736973Y-67307327D01*
X134771782Y-67335894D01*
X134811495Y-67357121D01*
X134854587Y-67370192D01*
X134899400Y-67374606D01*
X136372600Y-67374606D01*
X136417413Y-67370192D01*
X136460505Y-67357121D01*
X136500218Y-67335894D01*
X136535027Y-67307327D01*
X136563594Y-67272518D01*
X136584821Y-67232805D01*
X136597892Y-67189713D01*
X136602306Y-67144900D01*
X136602306Y-66865500D01*
X136597892Y-66820687D01*
X136584821Y-66777595D01*
X136570713Y-66751200D01*
X136584821Y-66724805D01*
X136597892Y-66681713D01*
X136602306Y-66636900D01*
X136602306Y-66458032D01*
X136669189Y-66485736D01*
X136758746Y-66503550D01*
X136850058Y-66503550D01*
X136939615Y-66485736D01*
X137008266Y-66457300D01*
X138823894Y-66457300D01*
X138823894Y-66602700D01*
X138829509Y-66659707D01*
X138846137Y-66714522D01*
X138873140Y-66765041D01*
X138887048Y-66781988D01*
X138801108Y-66808058D01*
X138720334Y-66851232D01*
X138649535Y-66909335D01*
X138612478Y-66954489D01*
X138566065Y-66897935D01*
X138495266Y-66839832D01*
X138414492Y-66796658D01*
X138326847Y-66770071D01*
X138235700Y-66761094D01*
X137760700Y-66761094D01*
X137669553Y-66770071D01*
X137581908Y-66796658D01*
X137501134Y-66839832D01*
X137430335Y-66897935D01*
X137372232Y-66968734D01*
X137329058Y-67049508D01*
X137302471Y-67137153D01*
X137293494Y-67228300D01*
X137293494Y-67803300D01*
X137302471Y-67894447D01*
X137329058Y-67982092D01*
X137372232Y-68062866D01*
X137430335Y-68133665D01*
X137501134Y-68191768D01*
X137581908Y-68234942D01*
X137669553Y-68261529D01*
X137760700Y-68270506D01*
X138235700Y-68270506D01*
X138326847Y-68261529D01*
X138414492Y-68234942D01*
X138495266Y-68191768D01*
X138566065Y-68133665D01*
X138603122Y-68088511D01*
X138649535Y-68145065D01*
X138720334Y-68203168D01*
X138801108Y-68246342D01*
X138888753Y-68272929D01*
X138979900Y-68281906D01*
X139454900Y-68281906D01*
X139546047Y-68272929D01*
X139633692Y-68246342D01*
X139714466Y-68203168D01*
X139785265Y-68145065D01*
X139827000Y-68094211D01*
X139868735Y-68145065D01*
X139939534Y-68203168D01*
X140020308Y-68246342D01*
X140107953Y-68272929D01*
X140199100Y-68281906D01*
X140674100Y-68281906D01*
X140765247Y-68272929D01*
X140852892Y-68246342D01*
X140933666Y-68203168D01*
X141004465Y-68145065D01*
X141046200Y-68094211D01*
X141087935Y-68145065D01*
X141158734Y-68203168D01*
X141239508Y-68246342D01*
X141327153Y-68272929D01*
X141418300Y-68281906D01*
X141893300Y-68281906D01*
X141984447Y-68272929D01*
X142072092Y-68246342D01*
X142152866Y-68203168D01*
X142223665Y-68145065D01*
X142281768Y-68074266D01*
X142324942Y-67993492D01*
X142351529Y-67905847D01*
X142360506Y-67814700D01*
X142360506Y-67239700D01*
X142351529Y-67148553D01*
X142324942Y-67060908D01*
X142281768Y-66980134D01*
X142223665Y-66909335D01*
X142152866Y-66851232D01*
X142085537Y-66815245D01*
X142117393Y-66767569D01*
X142152336Y-66683209D01*
X142170150Y-66593652D01*
X142170150Y-66502340D01*
X142152336Y-66412783D01*
X142117393Y-66328423D01*
X142066663Y-66252500D01*
X142002096Y-66187933D01*
X141998700Y-66185664D01*
X141998700Y-65569906D01*
X142066100Y-65569906D01*
X142123107Y-65564291D01*
X142177922Y-65547663D01*
X142228441Y-65520660D01*
X142272721Y-65484321D01*
X142309060Y-65440041D01*
X142336063Y-65389522D01*
X142352691Y-65334707D01*
X142358306Y-65277700D01*
X142358306Y-65152700D01*
X142352691Y-65095693D01*
X142336063Y-65040878D01*
X142309060Y-64990359D01*
X142288413Y-64965200D01*
X142309060Y-64940041D01*
X142336063Y-64889522D01*
X142352691Y-64834707D01*
X142358306Y-64777700D01*
X142358306Y-64674750D01*
X142412656Y-64674750D01*
X142502213Y-64656936D01*
X142586573Y-64621993D01*
X142662496Y-64571263D01*
X142727063Y-64506696D01*
X142777793Y-64430773D01*
X142812736Y-64346413D01*
X142830550Y-64256856D01*
X142830550Y-64165544D01*
X142812736Y-64075987D01*
X142777793Y-63991627D01*
X142727063Y-63915704D01*
X142662496Y-63851137D01*
X142586573Y-63800407D01*
X142502213Y-63765464D01*
X142412656Y-63747650D01*
X142358306Y-63747650D01*
X142358306Y-63652700D01*
X142352691Y-63595693D01*
X142336063Y-63540878D01*
X142309060Y-63490359D01*
X142272721Y-63446079D01*
X142228441Y-63409740D01*
X142177922Y-63382737D01*
X142123107Y-63366109D01*
X142066100Y-63360494D01*
X141309443Y-63360494D01*
X141303041Y-63339391D01*
X141279813Y-63295933D01*
X141348014Y-63309500D01*
X141455586Y-63309500D01*
X141561091Y-63288513D01*
X141660475Y-63247347D01*
X141749918Y-63187583D01*
X141825983Y-63111518D01*
X141885747Y-63022075D01*
X141926913Y-62922691D01*
X141947900Y-62817186D01*
X141947900Y-62709614D01*
X141926913Y-62604109D01*
X141885747Y-62504725D01*
X141825983Y-62415282D01*
X141749918Y-62339217D01*
X141660475Y-62279453D01*
X141561091Y-62238287D01*
X141455586Y-62217300D01*
X141348014Y-62217300D01*
X141242509Y-62238287D01*
X141143125Y-62279453D01*
X141053682Y-62339217D01*
X141033306Y-62359593D01*
X141033306Y-62327700D01*
X141027691Y-62270693D01*
X141011063Y-62215878D01*
X140984060Y-62165359D01*
X140947721Y-62121079D01*
X140903441Y-62084740D01*
X140852922Y-62057737D01*
X140798107Y-62041109D01*
X140741100Y-62035494D01*
X140699878Y-62035494D01*
X140692128Y-62020036D01*
X140636833Y-61948948D01*
X140568732Y-61890015D01*
X140490443Y-61845499D01*
X140404973Y-61817112D01*
X140341700Y-61808000D01*
X140227400Y-61922300D01*
X140227400Y-62714400D01*
X140249400Y-62714400D01*
X140249400Y-62816000D01*
X140227400Y-62816000D01*
X140227400Y-62836000D01*
X140129800Y-62836000D01*
X140129800Y-62816000D01*
X140107800Y-62816000D01*
X140107800Y-62714400D01*
X140129800Y-62714400D01*
X140129800Y-62012834D01*
X140138150Y-61970856D01*
X140138150Y-61879544D01*
X140120336Y-61789987D01*
X140085393Y-61705627D01*
X140034663Y-61629704D01*
X139970096Y-61565137D01*
X139894173Y-61514407D01*
X139809813Y-61479464D01*
X139720256Y-61461650D01*
X139628944Y-61461650D01*
X139539387Y-61479464D01*
X139455027Y-61514407D01*
X139379104Y-61565137D01*
X139314537Y-61629704D01*
X139263807Y-61705627D01*
X139228864Y-61789987D01*
X139211050Y-61879544D01*
X139211050Y-61970856D01*
X139223907Y-62035494D01*
X139116100Y-62035494D01*
X139059093Y-62041109D01*
X139004278Y-62057737D01*
X138953759Y-62084740D01*
X138909479Y-62121079D01*
X138873140Y-62165359D01*
X138846137Y-62215878D01*
X138829509Y-62270693D01*
X138823894Y-62327700D01*
X138823894Y-62473100D01*
X138353307Y-62473100D01*
X138332863Y-62442504D01*
X138268296Y-62377937D01*
X138192373Y-62327207D01*
X138108013Y-62292264D01*
X138018456Y-62274450D01*
X137927144Y-62274450D01*
X137837587Y-62292264D01*
X137753227Y-62327207D01*
X137677304Y-62377937D01*
X137612737Y-62442504D01*
X137562007Y-62518427D01*
X137542594Y-62565295D01*
X137485056Y-62553850D01*
X137393744Y-62553850D01*
X137304187Y-62571664D01*
X137219827Y-62606607D01*
X137143904Y-62657337D01*
X137101341Y-62699900D01*
X136588371Y-62699900D01*
X136597892Y-62668513D01*
X136602306Y-62623700D01*
X136602306Y-62344300D01*
X136597892Y-62299487D01*
X136584821Y-62256395D01*
X136577501Y-62242700D01*
X136584821Y-62229005D01*
X136597892Y-62185913D01*
X136602306Y-62141100D01*
X136602306Y-61861700D01*
X136597892Y-61816887D01*
X136584821Y-61773795D01*
X136570713Y-61747400D01*
X136584821Y-61721005D01*
X136597892Y-61677913D01*
X136602306Y-61633100D01*
X136602306Y-61353700D01*
X136597892Y-61308887D01*
X136584821Y-61265795D01*
X136570713Y-61239400D01*
X136584821Y-61213005D01*
X136597892Y-61169913D01*
X136602306Y-61125100D01*
X136602306Y-60871100D01*
X137071447Y-60871100D01*
X137089858Y-60931792D01*
X137133032Y-61012566D01*
X137191135Y-61083365D01*
X137261934Y-61141468D01*
X137342708Y-61184642D01*
X137430353Y-61211229D01*
X137521500Y-61220206D01*
X138121500Y-61220206D01*
X138212647Y-61211229D01*
X138300292Y-61184642D01*
X138381066Y-61141468D01*
X138451865Y-61083365D01*
X138509968Y-61012566D01*
X138549965Y-60937737D01*
X138549588Y-60990500D01*
X138558415Y-61080127D01*
X138584559Y-61166309D01*
X138627013Y-61245736D01*
X138684147Y-61315353D01*
X138753764Y-61372487D01*
X138833191Y-61414941D01*
X138919373Y-61441085D01*
X139009000Y-61449912D01*
X139381400Y-61447700D01*
X139495700Y-61333400D01*
X139495700Y-60566300D01*
X139597300Y-60566300D01*
X139597300Y-61333400D01*
X139711600Y-61447700D01*
X140084000Y-61449912D01*
X140173627Y-61441085D01*
X140259809Y-61414941D01*
X140339236Y-61372487D01*
X140408853Y-61315353D01*
X140465987Y-61245736D01*
X140508441Y-61166309D01*
X140534585Y-61080127D01*
X140543412Y-60990500D01*
X140541200Y-60680600D01*
X140426900Y-60566300D01*
X139597300Y-60566300D01*
X139495700Y-60566300D01*
X139475700Y-60566300D01*
X139475700Y-60464700D01*
X139495700Y-60464700D01*
X139495700Y-59697600D01*
X139597300Y-59697600D01*
X139597300Y-60464700D01*
X140426900Y-60464700D01*
X140541200Y-60350400D01*
X140543412Y-60040500D01*
X140534585Y-59950873D01*
X140508441Y-59864691D01*
X140465987Y-59785264D01*
X140408853Y-59715647D01*
X140339236Y-59658513D01*
X140259809Y-59616059D01*
X140173627Y-59589915D01*
X140084000Y-59581088D01*
X139711600Y-59583300D01*
X139597300Y-59697600D01*
X139495700Y-59697600D01*
X139381400Y-59583300D01*
X139009000Y-59581088D01*
X138919373Y-59589915D01*
X138833191Y-59616059D01*
X138753764Y-59658513D01*
X138684147Y-59715647D01*
X138627013Y-59785264D01*
X138584559Y-59864691D01*
X138558415Y-59950873D01*
X138549588Y-60040500D01*
X138549965Y-60093263D01*
X138509968Y-60018434D01*
X138451865Y-59947635D01*
X138381066Y-59889532D01*
X138300292Y-59846358D01*
X138212647Y-59819771D01*
X138121500Y-59810794D01*
X137521500Y-59810794D01*
X137430353Y-59819771D01*
X137342708Y-59846358D01*
X137261934Y-59889532D01*
X137191135Y-59947635D01*
X137133032Y-60018434D01*
X137089858Y-60099208D01*
X137079152Y-60134500D01*
X136804400Y-60134500D01*
X136715500Y-60045600D01*
X135686800Y-60045600D01*
X135686800Y-60065600D01*
X135585200Y-60065600D01*
X135585200Y-60045600D01*
X134556500Y-60045600D01*
X134442200Y-60159900D01*
X134450034Y-60230047D01*
X134477308Y-60315878D01*
X134520804Y-60394739D01*
X134578849Y-60463599D01*
X134649212Y-60519812D01*
X134669694Y-60530416D01*
X134669694Y-60642500D01*
X134674108Y-60687313D01*
X134675924Y-60693300D01*
X134125630Y-60693300D01*
X133840804Y-60408475D01*
X133831656Y-60397328D01*
X133787178Y-60360826D01*
X133736434Y-60333702D01*
X133681373Y-60317000D01*
X133638457Y-60312773D01*
X133638449Y-60312773D01*
X133624111Y-60311361D01*
X133609773Y-60312773D01*
X132667190Y-60312773D01*
X132652852Y-60311361D01*
X132638514Y-60312773D01*
X132638507Y-60312773D01*
X132595591Y-60317000D01*
X132540530Y-60333702D01*
X132489786Y-60360826D01*
X132445308Y-60397328D01*
X132436160Y-60408475D01*
X131986223Y-60858412D01*
X130382943Y-60858412D01*
X130400560Y-60769845D01*
X130400560Y-60678533D01*
X130382746Y-60588976D01*
X130347803Y-60504616D01*
X130306827Y-60443291D01*
X130435167Y-60443291D01*
X130437436Y-60446687D01*
X130502003Y-60511254D01*
X130577926Y-60561984D01*
X130662286Y-60596927D01*
X130751843Y-60614741D01*
X130843155Y-60614741D01*
X130932712Y-60596927D01*
X131017072Y-60561984D01*
X131092995Y-60511254D01*
X131157562Y-60446687D01*
X131208292Y-60370764D01*
X131219624Y-60343406D01*
X131239773Y-60363555D01*
X131248917Y-60374697D01*
X131260059Y-60383841D01*
X131260060Y-60383842D01*
X131273338Y-60394739D01*
X131293395Y-60411199D01*
X131344139Y-60438323D01*
X131399200Y-60455025D01*
X131442116Y-60459252D01*
X131442124Y-60459252D01*
X131456462Y-60460664D01*
X131470800Y-60459252D01*
X131542298Y-60459252D01*
X131544567Y-60462648D01*
X131609134Y-60527215D01*
X131685057Y-60577945D01*
X131769417Y-60612888D01*
X131858974Y-60630702D01*
X131950286Y-60630702D01*
X132039843Y-60612888D01*
X132124203Y-60577945D01*
X132200126Y-60527215D01*
X132264693Y-60462648D01*
X132315423Y-60386725D01*
X132350366Y-60302365D01*
X132368180Y-60212808D01*
X132368180Y-60121496D01*
X132350366Y-60031939D01*
X132315423Y-59947579D01*
X132264693Y-59871656D01*
X132200126Y-59807089D01*
X132161250Y-59781113D01*
X132188038Y-59781113D01*
X132277595Y-59763299D01*
X132361955Y-59728356D01*
X132437878Y-59677626D01*
X132502445Y-59613059D01*
X132553175Y-59537136D01*
X132588118Y-59452776D01*
X132605932Y-59363219D01*
X132605932Y-59271907D01*
X132588118Y-59182350D01*
X132553175Y-59097990D01*
X132525904Y-59057177D01*
X132528173Y-59056237D01*
X132604096Y-59005507D01*
X132648470Y-58961133D01*
X132695099Y-59007762D01*
X132771022Y-59058492D01*
X132855382Y-59093435D01*
X132944939Y-59111249D01*
X133036251Y-59111249D01*
X133125808Y-59093435D01*
X133210168Y-59058492D01*
X133286091Y-59007762D01*
X133350658Y-58943195D01*
X133377410Y-58903158D01*
X133421735Y-58969496D01*
X133486302Y-59034063D01*
X133562225Y-59084793D01*
X133646585Y-59119736D01*
X133736142Y-59137550D01*
X133827454Y-59137550D01*
X133917011Y-59119736D01*
X134001371Y-59084793D01*
X134077294Y-59034063D01*
X134141861Y-58969496D01*
X134192591Y-58893573D01*
X134227534Y-58809213D01*
X134245348Y-58719656D01*
X134245348Y-58628344D01*
X134227534Y-58538787D01*
X134192591Y-58454427D01*
X134141861Y-58378504D01*
X134077294Y-58313937D01*
X134047033Y-58293718D01*
X134049606Y-58267600D01*
X134049606Y-57823100D01*
X134851694Y-57823100D01*
X134851694Y-58961200D01*
X134856108Y-59006013D01*
X134869179Y-59049105D01*
X134890406Y-59088818D01*
X134913858Y-59117394D01*
X134899400Y-59117394D01*
X134854587Y-59121808D01*
X134811495Y-59134879D01*
X134771782Y-59156106D01*
X134736973Y-59184673D01*
X134708406Y-59219482D01*
X134687179Y-59259195D01*
X134674108Y-59302287D01*
X134669694Y-59347100D01*
X134669694Y-59459184D01*
X134649212Y-59469788D01*
X134578849Y-59526001D01*
X134520804Y-59594861D01*
X134477308Y-59673722D01*
X134450034Y-59759553D01*
X134442200Y-59829700D01*
X134556500Y-59944000D01*
X135585200Y-59944000D01*
X135585200Y-59924000D01*
X135686800Y-59924000D01*
X135686800Y-59944000D01*
X136715500Y-59944000D01*
X136829800Y-59829700D01*
X136822403Y-59763467D01*
X136840523Y-59757971D01*
X136891267Y-59730847D01*
X136935745Y-59694345D01*
X136944893Y-59683198D01*
X137437185Y-59190906D01*
X138781400Y-59190906D01*
X138826213Y-59186492D01*
X138869305Y-59173421D01*
X138909018Y-59152194D01*
X138943827Y-59123627D01*
X138972394Y-59088818D01*
X138993621Y-59049105D01*
X139006692Y-59006013D01*
X139011106Y-58961200D01*
X139011106Y-56761200D01*
X139006692Y-56716387D01*
X138993621Y-56673295D01*
X138972394Y-56633582D01*
X138943827Y-56598773D01*
X138909018Y-56570206D01*
X138869305Y-56548979D01*
X138826213Y-56535908D01*
X138781400Y-56531494D01*
X137281400Y-56531494D01*
X137236587Y-56535908D01*
X137193495Y-56548979D01*
X137153782Y-56570206D01*
X137118973Y-56598773D01*
X137090406Y-56633582D01*
X137069179Y-56673295D01*
X137056108Y-56716387D01*
X137051694Y-56761200D01*
X137051694Y-58750215D01*
X136807872Y-58994037D01*
X136811106Y-58961200D01*
X136811106Y-56761200D01*
X136806692Y-56716387D01*
X136793621Y-56673295D01*
X136772394Y-56633582D01*
X136743827Y-56598773D01*
X136709018Y-56570206D01*
X136669305Y-56548979D01*
X136626213Y-56535908D01*
X136581400Y-56531494D01*
X135081400Y-56531494D01*
X135036587Y-56535908D01*
X134993495Y-56548979D01*
X134953782Y-56570206D01*
X134918973Y-56598773D01*
X134890406Y-56633582D01*
X134869179Y-56673295D01*
X134856108Y-56716387D01*
X134851694Y-56761200D01*
X134851694Y-57238900D01*
X134049606Y-57238900D01*
X134049606Y-56794400D01*
X134045192Y-56749587D01*
X134032121Y-56706495D01*
X134010894Y-56666782D01*
X133982327Y-56631973D01*
X133947518Y-56603406D01*
X133907805Y-56582179D01*
X133864713Y-56569108D01*
X133819900Y-56564694D01*
X133540500Y-56564694D01*
X133495687Y-56569108D01*
X133452595Y-56582179D01*
X133426200Y-56596287D01*
X133399805Y-56582179D01*
X133356713Y-56569108D01*
X133311900Y-56564694D01*
X133032500Y-56564694D01*
X132987687Y-56569108D01*
X132944595Y-56582179D01*
X132918200Y-56596287D01*
X132891805Y-56582179D01*
X132848713Y-56569108D01*
X132803900Y-56564694D01*
X132524500Y-56564694D01*
X132479687Y-56569108D01*
X132436595Y-56582179D01*
X132422900Y-56589499D01*
X132409205Y-56582179D01*
X132366113Y-56569108D01*
X132321300Y-56564694D01*
X132041900Y-56564694D01*
X131997087Y-56569108D01*
X131953995Y-56582179D01*
X131927600Y-56596287D01*
X131901205Y-56582179D01*
X131858113Y-56569108D01*
X131813300Y-56564694D01*
X131533900Y-56564694D01*
X131489087Y-56569108D01*
X131445995Y-56582179D01*
X131419600Y-56596287D01*
X131393205Y-56582179D01*
X131350113Y-56569108D01*
X131305300Y-56564694D01*
X131025900Y-56564694D01*
X130981087Y-56569108D01*
X130937995Y-56582179D01*
X130924300Y-56589499D01*
X130910605Y-56582179D01*
X130867513Y-56569108D01*
X130822700Y-56564694D01*
X130543300Y-56564694D01*
X130498487Y-56569108D01*
X130455395Y-56582179D01*
X130429000Y-56596287D01*
X130402605Y-56582179D01*
X130359513Y-56569108D01*
X130314700Y-56564694D01*
X130035300Y-56564694D01*
X129990487Y-56569108D01*
X129947395Y-56582179D01*
X129921000Y-56596287D01*
X129894605Y-56582179D01*
X129851513Y-56569108D01*
X129806700Y-56564694D01*
X129527300Y-56564694D01*
X129482487Y-56569108D01*
X129439395Y-56582179D01*
X129413000Y-56596287D01*
X129386605Y-56582179D01*
X129343513Y-56569108D01*
X129298700Y-56564694D01*
X129019300Y-56564694D01*
X128974487Y-56569108D01*
X128931395Y-56582179D01*
X128917700Y-56589499D01*
X128904005Y-56582179D01*
X128860913Y-56569108D01*
X128816100Y-56564694D01*
X128536700Y-56564694D01*
X128491887Y-56569108D01*
X128448795Y-56582179D01*
X128422400Y-56596287D01*
X128396005Y-56582179D01*
X128352913Y-56569108D01*
X128308100Y-56564694D01*
X128097747Y-56564694D01*
X128098550Y-56560656D01*
X128098550Y-56469344D01*
X128090994Y-56431357D01*
X128437000Y-56433412D01*
X128526627Y-56424585D01*
X128612809Y-56398441D01*
X128692236Y-56355987D01*
X128761853Y-56298853D01*
X128818987Y-56229236D01*
X128861441Y-56149809D01*
X128887585Y-56063627D01*
X128896412Y-55974000D01*
X128894200Y-55664100D01*
X128779900Y-55549800D01*
X127950300Y-55549800D01*
X127950300Y-55569800D01*
X127848700Y-55569800D01*
X127848700Y-55549800D01*
X127828700Y-55549800D01*
X127828700Y-55448200D01*
X127848700Y-55448200D01*
X127848700Y-54681100D01*
X127950300Y-54681100D01*
X127950300Y-55448200D01*
X128779900Y-55448200D01*
X128894200Y-55333900D01*
X128896412Y-55024000D01*
X128887585Y-54934373D01*
X128861441Y-54848191D01*
X128818987Y-54768764D01*
X128761853Y-54699147D01*
X128692236Y-54642013D01*
X128612809Y-54599559D01*
X128526627Y-54573415D01*
X128437000Y-54564588D01*
X128064600Y-54566800D01*
X127950300Y-54681100D01*
X127848700Y-54681100D01*
X127734400Y-54566800D01*
X127362000Y-54564588D01*
X127272373Y-54573415D01*
X127186191Y-54599559D01*
X127106764Y-54642013D01*
X127037147Y-54699147D01*
X126980013Y-54768764D01*
X126937559Y-54848191D01*
X126911415Y-54934373D01*
X126902588Y-55024000D01*
X126902965Y-55076763D01*
X126862968Y-55001934D01*
X126804865Y-54931135D01*
X126734066Y-54873032D01*
X126653292Y-54829858D01*
X126640361Y-54825935D01*
X126645747Y-54817875D01*
X126686913Y-54718491D01*
X126707900Y-54612986D01*
X126707900Y-54505414D01*
X126686913Y-54399909D01*
X126645747Y-54300525D01*
X126585983Y-54211082D01*
X126509918Y-54135017D01*
X126420475Y-54075253D01*
X126321091Y-54034087D01*
X126215586Y-54013100D01*
X126108014Y-54013100D01*
X126002509Y-54034087D01*
X125903125Y-54075253D01*
X125813682Y-54135017D01*
X125737617Y-54211082D01*
X125677853Y-54300525D01*
X125636687Y-54399909D01*
X125615700Y-54505414D01*
X125615700Y-54612986D01*
X125636687Y-54718491D01*
X125677853Y-54817875D01*
X125688451Y-54833737D01*
X125614934Y-54873032D01*
X125544135Y-54931135D01*
X125486032Y-55001934D01*
X125442858Y-55082708D01*
X125416271Y-55170353D01*
X125407294Y-55261500D01*
X125407294Y-55736500D01*
X125416271Y-55827647D01*
X125442858Y-55915292D01*
X125486032Y-55996066D01*
X125544135Y-56066865D01*
X125614934Y-56124968D01*
X125695708Y-56168142D01*
X125783353Y-56194729D01*
X125793501Y-56195728D01*
X125793500Y-56783168D01*
X125792394Y-56794400D01*
X125792394Y-58267600D01*
X125796808Y-58312413D01*
X125809879Y-58355505D01*
X125831106Y-58395218D01*
X125859673Y-58430027D01*
X125894482Y-58458594D01*
X125934195Y-58479821D01*
X125977287Y-58492892D01*
X126022100Y-58497306D01*
X126134184Y-58497306D01*
X126144788Y-58517788D01*
X126201001Y-58588151D01*
X126269861Y-58646196D01*
X126348722Y-58689692D01*
X126434553Y-58716966D01*
X126504700Y-58724800D01*
X126619000Y-58610500D01*
X126619000Y-57581800D01*
X126599000Y-57581800D01*
X126599000Y-57480200D01*
X126619000Y-57480200D01*
X126619000Y-56451500D01*
X126530100Y-56362600D01*
X126530100Y-56198230D01*
X126565647Y-56194729D01*
X126653292Y-56168142D01*
X126734066Y-56124968D01*
X126804865Y-56066865D01*
X126862968Y-55996066D01*
X126902965Y-55921237D01*
X126902588Y-55974000D01*
X126911415Y-56063627D01*
X126937559Y-56149809D01*
X126980013Y-56229236D01*
X127037147Y-56298853D01*
X127106764Y-56355987D01*
X127185615Y-56398133D01*
X127171450Y-56469344D01*
X127171450Y-56514969D01*
X127138599Y-56473849D01*
X127069739Y-56415804D01*
X126990878Y-56372308D01*
X126905047Y-56345034D01*
X126834900Y-56337200D01*
X126720600Y-56451500D01*
X126720600Y-57480200D01*
X126740600Y-57480200D01*
X126740600Y-57581800D01*
X126720600Y-57581800D01*
X126720600Y-58610500D01*
X126834900Y-58724800D01*
X126885701Y-58719127D01*
X126885701Y-59370852D01*
X126884288Y-59385200D01*
X126889927Y-59442461D01*
X126906629Y-59497522D01*
X126933753Y-59548266D01*
X126958126Y-59577964D01*
X126970256Y-59592745D01*
X126981398Y-59601889D01*
X127590208Y-60210700D01*
X126747266Y-60210700D01*
X125826967Y-59290402D01*
X125817819Y-59279255D01*
X125773341Y-59242753D01*
X125722597Y-59215629D01*
X125667536Y-59198927D01*
X125624620Y-59194700D01*
X125624612Y-59194700D01*
X125610274Y-59193288D01*
X125595936Y-59194700D01*
X125113256Y-59194700D01*
X125105027Y-59184673D01*
X125070218Y-59156106D01*
X125030505Y-59134879D01*
X124987413Y-59121808D01*
X124942600Y-59117394D01*
X124067467Y-59117394D01*
X124146173Y-59084793D01*
X124222096Y-59034063D01*
X124286663Y-58969496D01*
X124337393Y-58893573D01*
X124372336Y-58809213D01*
X124390150Y-58719656D01*
X124390150Y-58628344D01*
X124987050Y-58628344D01*
X124987050Y-58719656D01*
X125004864Y-58809213D01*
X125039807Y-58893573D01*
X125090537Y-58969496D01*
X125155104Y-59034063D01*
X125231027Y-59084793D01*
X125315387Y-59119736D01*
X125404944Y-59137550D01*
X125496256Y-59137550D01*
X125585813Y-59119736D01*
X125670173Y-59084793D01*
X125746096Y-59034063D01*
X125810663Y-58969496D01*
X125861393Y-58893573D01*
X125896336Y-58809213D01*
X125914150Y-58719656D01*
X125914150Y-58628344D01*
X125896336Y-58538787D01*
X125861393Y-58454427D01*
X125810663Y-58378504D01*
X125746096Y-58313937D01*
X125670173Y-58263207D01*
X125585813Y-58228264D01*
X125496256Y-58210450D01*
X125404944Y-58210450D01*
X125315387Y-58228264D01*
X125231027Y-58263207D01*
X125155104Y-58313937D01*
X125090537Y-58378504D01*
X125039807Y-58454427D01*
X125004864Y-58538787D01*
X124987050Y-58628344D01*
X124390150Y-58628344D01*
X124372336Y-58538787D01*
X124337393Y-58454427D01*
X124286663Y-58378504D01*
X124244513Y-58336354D01*
X124269500Y-58336200D01*
X124383800Y-58221900D01*
X124383800Y-57454800D01*
X124485400Y-57454800D01*
X124485400Y-58221900D01*
X124599700Y-58336200D01*
X124959600Y-58338412D01*
X125049227Y-58329585D01*
X125135409Y-58303441D01*
X125214836Y-58260987D01*
X125284453Y-58203853D01*
X125341587Y-58134236D01*
X125384041Y-58054809D01*
X125410185Y-57968627D01*
X125419012Y-57879000D01*
X125416800Y-57569100D01*
X125302500Y-57454800D01*
X124485400Y-57454800D01*
X124383800Y-57454800D01*
X124363800Y-57454800D01*
X124363800Y-57353200D01*
X124383800Y-57353200D01*
X124383800Y-57333200D01*
X124485400Y-57333200D01*
X124485400Y-57353200D01*
X125302500Y-57353200D01*
X125416800Y-57238900D01*
X125419012Y-56929000D01*
X125410185Y-56839373D01*
X125384041Y-56753191D01*
X125341587Y-56673764D01*
X125284453Y-56604147D01*
X125214836Y-56547013D01*
X125146319Y-56510390D01*
X125200404Y-56466004D01*
X125260061Y-56393311D01*
X125304391Y-56310376D01*
X125331689Y-56220387D01*
X125340906Y-56126801D01*
X125340906Y-55226799D01*
X125331689Y-55133213D01*
X125304391Y-55043224D01*
X125260061Y-54960289D01*
X125200404Y-54887596D01*
X125127711Y-54827939D01*
X125044776Y-54783609D01*
X124954787Y-54756311D01*
X124861201Y-54747094D01*
X124211199Y-54747094D01*
X124117613Y-54756311D01*
X124027624Y-54783609D01*
X123944689Y-54827939D01*
X123871996Y-54887596D01*
X123812339Y-54960289D01*
X123768009Y-55043224D01*
X123740711Y-55133213D01*
X123731494Y-55226799D01*
X123731494Y-55387493D01*
X123716938Y-55388927D01*
X123661877Y-55405629D01*
X123611133Y-55432753D01*
X123566655Y-55469255D01*
X123557507Y-55480402D01*
X123374598Y-55663311D01*
X123363456Y-55672455D01*
X123354312Y-55683597D01*
X123354310Y-55683599D01*
X123326953Y-55716934D01*
X123299829Y-55767678D01*
X123290906Y-55797094D01*
X123290906Y-55226799D01*
X123281689Y-55133213D01*
X123254391Y-55043224D01*
X123210061Y-54960289D01*
X123150404Y-54887596D01*
X123077711Y-54827939D01*
X122994776Y-54783609D01*
X122904787Y-54756311D01*
X122811201Y-54747094D01*
X122161199Y-54747094D01*
X122067613Y-54756311D01*
X121977624Y-54783609D01*
X121894689Y-54827939D01*
X121821996Y-54887596D01*
X121762339Y-54960289D01*
X121718009Y-55043224D01*
X121690711Y-55133213D01*
X121681494Y-55226799D01*
X121681494Y-56126801D01*
X121690711Y-56220387D01*
X121718009Y-56310376D01*
X121762339Y-56393311D01*
X121821996Y-56466004D01*
X121894689Y-56525661D01*
X121977624Y-56569991D01*
X122067613Y-56597289D01*
X122161199Y-56606506D01*
X122253901Y-56606506D01*
X122253901Y-56724061D01*
X122218308Y-56734858D01*
X122137534Y-56778032D01*
X122066735Y-56836135D01*
X122008632Y-56906934D01*
X121965458Y-56987708D01*
X121938871Y-57075353D01*
X121929894Y-57166500D01*
X121929894Y-57641500D01*
X121938871Y-57732647D01*
X121965458Y-57820292D01*
X122008632Y-57901066D01*
X122066735Y-57971865D01*
X122137534Y-58029968D01*
X122218308Y-58073142D01*
X122305953Y-58099729D01*
X122397100Y-58108706D01*
X122972100Y-58108706D01*
X123063247Y-58099729D01*
X123150892Y-58073142D01*
X123231666Y-58029968D01*
X123278900Y-57991204D01*
X123278900Y-58304062D01*
X123277488Y-58318400D01*
X123278900Y-58332738D01*
X123278900Y-58332745D01*
X123283127Y-58375661D01*
X123299829Y-58430722D01*
X123326953Y-58481466D01*
X123363455Y-58525945D01*
X123374602Y-58535093D01*
X123463847Y-58624338D01*
X123463050Y-58628344D01*
X123463050Y-58719656D01*
X123480864Y-58809213D01*
X123515807Y-58893573D01*
X123566537Y-58969496D01*
X123631104Y-59034063D01*
X123707027Y-59084793D01*
X123785733Y-59117394D01*
X123469400Y-59117394D01*
X123424587Y-59121808D01*
X123381495Y-59134879D01*
X123341782Y-59156106D01*
X123306973Y-59184673D01*
X123278406Y-59219482D01*
X123257179Y-59259195D01*
X123244108Y-59302287D01*
X123239694Y-59347100D01*
X123239694Y-59626500D01*
X123244108Y-59671313D01*
X123257179Y-59714405D01*
X123271287Y-59740800D01*
X123257179Y-59767195D01*
X123244108Y-59810287D01*
X123239694Y-59855100D01*
X123239694Y-60134500D01*
X123244108Y-60179313D01*
X123257179Y-60222405D01*
X123271287Y-60248800D01*
X123257179Y-60275195D01*
X123244108Y-60318287D01*
X123239694Y-60363100D01*
X123239694Y-60642500D01*
X123244108Y-60687313D01*
X123257179Y-60730405D01*
X123264499Y-60744100D01*
X123257179Y-60757795D01*
X123244108Y-60800887D01*
X123239694Y-60845700D01*
X123239694Y-61125100D01*
X123244108Y-61169913D01*
X123257179Y-61213005D01*
X123271287Y-61239400D01*
X123257179Y-61265795D01*
X123244108Y-61308887D01*
X123239694Y-61353700D01*
X123239694Y-61633100D01*
X123244108Y-61677913D01*
X123257179Y-61721005D01*
X123271287Y-61747400D01*
X123257179Y-61773795D01*
X123244108Y-61816887D01*
X123239694Y-61861700D01*
X123239694Y-62141100D01*
X123244108Y-62185913D01*
X123257179Y-62229005D01*
X123264499Y-62242700D01*
X123257179Y-62256395D01*
X123244108Y-62299487D01*
X123239694Y-62344300D01*
X123239694Y-62623700D01*
X123244108Y-62668513D01*
X123257179Y-62711605D01*
X123271287Y-62738000D01*
X123257179Y-62764395D01*
X123244108Y-62807487D01*
X123239694Y-62852300D01*
X123239694Y-63131700D01*
X123244108Y-63176513D01*
X123257179Y-63219605D01*
X123271287Y-63246000D01*
X123257179Y-63272395D01*
X123244108Y-63315487D01*
X123239694Y-63360300D01*
X123239694Y-63639700D01*
X123244108Y-63684513D01*
X123257179Y-63727605D01*
X123271287Y-63754000D01*
X123257179Y-63780395D01*
X123244108Y-63823487D01*
X123239694Y-63868300D01*
X123239694Y-64147700D01*
X123244108Y-64192513D01*
X123257179Y-64235605D01*
X123264499Y-64249300D01*
X123257179Y-64262995D01*
X123244108Y-64306087D01*
X123239694Y-64350900D01*
X123239694Y-64630300D01*
X123244108Y-64675113D01*
X123257179Y-64718205D01*
X123271287Y-64744600D01*
X123257179Y-64770995D01*
X123244108Y-64814087D01*
X123239694Y-64858900D01*
X123239694Y-65138300D01*
X123244108Y-65183113D01*
X123257179Y-65226205D01*
X123271287Y-65252600D01*
X123257179Y-65278995D01*
X123244108Y-65322087D01*
X123239694Y-65366900D01*
X123239694Y-65646300D01*
X123244108Y-65691113D01*
X123246833Y-65700096D01*
X123234338Y-65701327D01*
X123179277Y-65718029D01*
X123128533Y-65745153D01*
X123084055Y-65781655D01*
X123074907Y-65792802D01*
X121583882Y-67283827D01*
X121572735Y-67292975D01*
X121536233Y-67337454D01*
X121509109Y-67388198D01*
X121492407Y-67443259D01*
X121488180Y-67486175D01*
X121488180Y-67486182D01*
X121486768Y-67500520D01*
X121488180Y-67514858D01*
X121488181Y-69893682D01*
X121486768Y-69908030D01*
X121492407Y-69965291D01*
X121509109Y-70020352D01*
X121536233Y-70071096D01*
X121559686Y-70099673D01*
X121572736Y-70115575D01*
X121583878Y-70124719D01*
X123181519Y-71722361D01*
X123121272Y-71762617D01*
X123045207Y-71838682D01*
X122985443Y-71928125D01*
X122944277Y-72027509D01*
X122923290Y-72133014D01*
X122923290Y-72240586D01*
X122944277Y-72346091D01*
X122985443Y-72445475D01*
X123045207Y-72534918D01*
X123121272Y-72610983D01*
X123210715Y-72670747D01*
X123310099Y-72711913D01*
X123415604Y-72732900D01*
X123523176Y-72732900D01*
X123628681Y-72711913D01*
X123717107Y-72675286D01*
X123717107Y-72712901D01*
X123277767Y-73152242D01*
X123255909Y-73140559D01*
X123169727Y-73114415D01*
X123080100Y-73105588D01*
X123070200Y-73107800D01*
X122955900Y-73222100D01*
X122955900Y-74239200D01*
X122975900Y-74239200D01*
X122975900Y-74340800D01*
X122955900Y-74340800D01*
X122955900Y-74360800D01*
X122854300Y-74360800D01*
X122854300Y-74340800D01*
X122834300Y-74340800D01*
X122834300Y-74239200D01*
X122854300Y-74239200D01*
X122854300Y-73222100D01*
X122740000Y-73107800D01*
X122730100Y-73105588D01*
X122640473Y-73114415D01*
X122554291Y-73140559D01*
X122523300Y-73157124D01*
X122523300Y-72116271D01*
X122522219Y-72105295D01*
X122518779Y-72059878D01*
X122515478Y-72041024D01*
X122513397Y-72021998D01*
X122512532Y-72018013D01*
X122490483Y-71919704D01*
X122482200Y-71894571D01*
X122474261Y-71869302D01*
X122472641Y-71865566D01*
X122472639Y-71865561D01*
X122472636Y-71865556D01*
X122431913Y-71773405D01*
X122418905Y-71750359D01*
X122406211Y-71727115D01*
X122403895Y-71723764D01*
X122403892Y-71723759D01*
X122403888Y-71723755D01*
X122346045Y-71641271D01*
X122328806Y-71621188D01*
X122311840Y-71600854D01*
X122308914Y-71598013D01*
X122236144Y-71528331D01*
X122215369Y-71512007D01*
X122194741Y-71495327D01*
X122191319Y-71493109D01*
X122106401Y-71438888D01*
X122082827Y-71426898D01*
X122059378Y-71414556D01*
X122055590Y-71413044D01*
X121961758Y-71376349D01*
X121936309Y-71369168D01*
X121910900Y-71361613D01*
X121906891Y-71360866D01*
X121807719Y-71343096D01*
X121802232Y-71342658D01*
X121796888Y-71341365D01*
X121792846Y-71340825D01*
X121701684Y-71329296D01*
X121641678Y-71309326D01*
X121586684Y-71278075D01*
X121538814Y-71236745D01*
X121499883Y-71186899D01*
X121471373Y-71130442D01*
X121453402Y-71066042D01*
X121448300Y-71015816D01*
X121448300Y-54648472D01*
X121467012Y-54496014D01*
X121511613Y-54360336D01*
X121581719Y-54235903D01*
X121674660Y-54127457D01*
X121786898Y-54039125D01*
X121914146Y-53974281D01*
X122054533Y-53934548D01*
X122171009Y-53922717D01*
X134142462Y-53922717D01*
X134154162Y-54027022D01*
G37*
%TD.AperFunction*%
D19*
X133197600Y-68910200D02*
X133654800Y-68910200D01*
X133674800Y-68890200D01*
X133731000Y-68890200D01*
X133731000Y-68910200D01*
X133751000Y-68910200D01*
X133751000Y-69011800D01*
X133731000Y-69011800D01*
X133731000Y-69088000D01*
X133654800Y-69011800D01*
X133197600Y-69011800D01*
X133121400Y-69088000D01*
X133121400Y-69011800D01*
X133101400Y-69011800D01*
X133101400Y-68910200D01*
X133121400Y-68910200D01*
X133121400Y-68890200D01*
X133177600Y-68890200D01*
X133197600Y-68910200D01*
%TA.AperFunction,Conductor*%
D20*
G36*
X133197600Y-68910200D02*
G01*
X133654800Y-68910200D01*
X133674800Y-68890200D01*
X133731000Y-68890200D01*
X133731000Y-68910200D01*
X133751000Y-68910200D01*
X133751000Y-69011800D01*
X133731000Y-69011800D01*
X133731000Y-69088000D01*
X133654800Y-69011800D01*
X133197600Y-69011800D01*
X133121400Y-69088000D01*
X133121400Y-69011800D01*
X133101400Y-69011800D01*
X133101400Y-68910200D01*
X133121400Y-68910200D01*
X133121400Y-68890200D01*
X133177600Y-68890200D01*
X133197600Y-68910200D01*
G37*
%TD.AperFunction*%
D19*
X128644650Y-61784327D02*
X128644650Y-61875639D01*
X128662464Y-61965196D01*
X128697407Y-62049556D01*
X128748137Y-62125479D01*
X128812704Y-62190046D01*
X128888627Y-62240776D01*
X128972987Y-62275719D01*
X129062544Y-62293533D01*
X129153856Y-62293533D01*
X129243413Y-62275719D01*
X129327773Y-62240776D01*
X129403696Y-62190046D01*
X129468263Y-62125479D01*
X129518993Y-62049556D01*
X129520789Y-62045219D01*
X131120987Y-62045219D01*
X131103543Y-62132915D01*
X131103543Y-62224227D01*
X131121357Y-62313784D01*
X131156300Y-62398144D01*
X131207030Y-62474067D01*
X131271597Y-62538634D01*
X131347520Y-62589364D01*
X131431880Y-62624307D01*
X131521437Y-62642121D01*
X131612749Y-62642121D01*
X131702306Y-62624307D01*
X131786666Y-62589364D01*
X131862589Y-62538634D01*
X131927156Y-62474067D01*
X131929425Y-62470671D01*
X132142491Y-62470671D01*
X132156829Y-62472083D01*
X132171167Y-62470671D01*
X132171175Y-62470671D01*
X132214091Y-62466444D01*
X132269152Y-62449742D01*
X132319896Y-62422618D01*
X132364374Y-62386116D01*
X132373522Y-62374969D01*
X132746596Y-62001896D01*
X133883879Y-62001896D01*
X134079781Y-62197798D01*
X134088929Y-62208945D01*
X134133407Y-62245447D01*
X134184151Y-62272571D01*
X134239212Y-62289273D01*
X134282128Y-62293500D01*
X134282137Y-62293500D01*
X134296473Y-62294912D01*
X134310809Y-62293500D01*
X134675924Y-62293500D01*
X134674108Y-62299487D01*
X134669694Y-62344300D01*
X134669694Y-62479731D01*
X134656037Y-62468523D01*
X134605293Y-62441399D01*
X134550232Y-62424697D01*
X134507316Y-62420470D01*
X134507308Y-62420470D01*
X134492970Y-62419058D01*
X134478632Y-62420470D01*
X133485174Y-62420470D01*
X133470838Y-62419058D01*
X133456503Y-62420470D01*
X133456493Y-62420470D01*
X133456188Y-62420500D01*
X132756773Y-62420500D01*
X132742427Y-62419087D01*
X132685165Y-62424727D01*
X132630104Y-62441429D01*
X132579360Y-62468553D01*
X132546061Y-62495881D01*
X132534882Y-62505055D01*
X132525738Y-62516197D01*
X132199799Y-62842137D01*
X130948684Y-62842137D01*
X130946415Y-62838741D01*
X130881848Y-62774174D01*
X130805925Y-62723444D01*
X130721565Y-62688501D01*
X130632008Y-62670687D01*
X130540696Y-62670687D01*
X130451139Y-62688501D01*
X130366779Y-62723444D01*
X130290856Y-62774174D01*
X130226289Y-62838741D01*
X130175559Y-62914664D01*
X130140616Y-62999024D01*
X130122802Y-63088581D01*
X130122802Y-63179893D01*
X130140616Y-63269450D01*
X130175559Y-63353810D01*
X130226289Y-63429733D01*
X130262549Y-63465993D01*
X130234008Y-63508708D01*
X130199065Y-63593068D01*
X130181251Y-63682625D01*
X130181251Y-63773937D01*
X130199065Y-63863494D01*
X130234008Y-63947854D01*
X130284738Y-64023777D01*
X130349305Y-64088344D01*
X130425228Y-64139074D01*
X130509588Y-64174017D01*
X130599145Y-64191831D01*
X130690457Y-64191831D01*
X130780014Y-64174017D01*
X130864374Y-64139074D01*
X130940297Y-64088344D01*
X130982530Y-64046111D01*
X134018333Y-64046111D01*
X133999733Y-64056053D01*
X133955255Y-64092555D01*
X133946107Y-64103702D01*
X132327309Y-65722500D01*
X128118179Y-65722500D01*
X128125298Y-65705313D01*
X128143112Y-65615756D01*
X128143112Y-65524444D01*
X128125298Y-65434887D01*
X128090355Y-65350527D01*
X128039625Y-65274604D01*
X127975058Y-65210037D01*
X127899135Y-65159307D01*
X127814775Y-65124364D01*
X127788853Y-65119208D01*
X127868184Y-65039877D01*
X127872190Y-65040674D01*
X127963502Y-65040674D01*
X128053059Y-65022860D01*
X128137419Y-64987917D01*
X128213342Y-64937187D01*
X128277909Y-64872620D01*
X128328639Y-64796697D01*
X128363582Y-64712337D01*
X128381396Y-64622780D01*
X128381396Y-64531468D01*
X128363582Y-64441911D01*
X128328639Y-64357551D01*
X128277909Y-64281628D01*
X128262109Y-64265828D01*
X128305948Y-64200217D01*
X128340891Y-64115857D01*
X128342362Y-64108462D01*
X128343152Y-64108619D01*
X128434464Y-64108619D01*
X128524021Y-64090805D01*
X128608381Y-64055862D01*
X128684304Y-64005132D01*
X128748871Y-63940565D01*
X128799601Y-63864642D01*
X128834544Y-63780282D01*
X128852358Y-63690725D01*
X128852358Y-63599413D01*
X128834544Y-63509856D01*
X128828138Y-63494390D01*
X128911851Y-63529065D01*
X129001408Y-63546879D01*
X129092720Y-63546879D01*
X129182277Y-63529065D01*
X129266637Y-63494122D01*
X129342560Y-63443392D01*
X129407127Y-63378825D01*
X129457857Y-63302902D01*
X129492800Y-63218542D01*
X129510614Y-63128985D01*
X129510614Y-63037673D01*
X129492800Y-62948116D01*
X129457857Y-62863756D01*
X129407127Y-62787833D01*
X129342560Y-62723266D01*
X129266637Y-62672536D01*
X129182277Y-62637593D01*
X129092720Y-62619779D01*
X129001408Y-62619779D01*
X128911851Y-62637593D01*
X128827491Y-62672536D01*
X128751568Y-62723266D01*
X128687001Y-62787833D01*
X128684732Y-62791229D01*
X127786235Y-62791229D01*
X127771889Y-62789816D01*
X127714627Y-62795456D01*
X127659566Y-62812158D01*
X127623293Y-62831547D01*
X127620337Y-62824409D01*
X127612215Y-62812253D01*
X127672897Y-62751571D01*
X127723627Y-62675648D01*
X127758570Y-62591288D01*
X127776384Y-62501731D01*
X127776384Y-62410419D01*
X127758570Y-62320862D01*
X127723627Y-62236502D01*
X127672897Y-62160579D01*
X127608330Y-62096012D01*
X127532407Y-62045282D01*
X127448047Y-62010339D01*
X127358490Y-61992525D01*
X127267178Y-61992525D01*
X127177621Y-62010339D01*
X127093261Y-62045282D01*
X127017338Y-62096012D01*
X126952771Y-62160579D01*
X126931843Y-62191900D01*
X125862924Y-62191900D01*
X125896336Y-62111235D01*
X125914150Y-62021678D01*
X125914150Y-61930366D01*
X125896336Y-61840809D01*
X125862149Y-61758273D01*
X125862351Y-61758107D01*
X125871500Y-61746959D01*
X125921836Y-61696623D01*
X128662095Y-61696623D01*
X128644650Y-61784327D01*
%TA.AperFunction,Conductor*%
D20*
G36*
X128644650Y-61784327D02*
G01*
X128644650Y-61875639D01*
X128662464Y-61965196D01*
X128697407Y-62049556D01*
X128748137Y-62125479D01*
X128812704Y-62190046D01*
X128888627Y-62240776D01*
X128972987Y-62275719D01*
X129062544Y-62293533D01*
X129153856Y-62293533D01*
X129243413Y-62275719D01*
X129327773Y-62240776D01*
X129403696Y-62190046D01*
X129468263Y-62125479D01*
X129518993Y-62049556D01*
X129520789Y-62045219D01*
X131120987Y-62045219D01*
X131103543Y-62132915D01*
X131103543Y-62224227D01*
X131121357Y-62313784D01*
X131156300Y-62398144D01*
X131207030Y-62474067D01*
X131271597Y-62538634D01*
X131347520Y-62589364D01*
X131431880Y-62624307D01*
X131521437Y-62642121D01*
X131612749Y-62642121D01*
X131702306Y-62624307D01*
X131786666Y-62589364D01*
X131862589Y-62538634D01*
X131927156Y-62474067D01*
X131929425Y-62470671D01*
X132142491Y-62470671D01*
X132156829Y-62472083D01*
X132171167Y-62470671D01*
X132171175Y-62470671D01*
X132214091Y-62466444D01*
X132269152Y-62449742D01*
X132319896Y-62422618D01*
X132364374Y-62386116D01*
X132373522Y-62374969D01*
X132746596Y-62001896D01*
X133883879Y-62001896D01*
X134079781Y-62197798D01*
X134088929Y-62208945D01*
X134133407Y-62245447D01*
X134184151Y-62272571D01*
X134239212Y-62289273D01*
X134282128Y-62293500D01*
X134282137Y-62293500D01*
X134296473Y-62294912D01*
X134310809Y-62293500D01*
X134675924Y-62293500D01*
X134674108Y-62299487D01*
X134669694Y-62344300D01*
X134669694Y-62479731D01*
X134656037Y-62468523D01*
X134605293Y-62441399D01*
X134550232Y-62424697D01*
X134507316Y-62420470D01*
X134507308Y-62420470D01*
X134492970Y-62419058D01*
X134478632Y-62420470D01*
X133485174Y-62420470D01*
X133470838Y-62419058D01*
X133456503Y-62420470D01*
X133456493Y-62420470D01*
X133456188Y-62420500D01*
X132756773Y-62420500D01*
X132742427Y-62419087D01*
X132685165Y-62424727D01*
X132630104Y-62441429D01*
X132579360Y-62468553D01*
X132546061Y-62495881D01*
X132534882Y-62505055D01*
X132525738Y-62516197D01*
X132199799Y-62842137D01*
X130948684Y-62842137D01*
X130946415Y-62838741D01*
X130881848Y-62774174D01*
X130805925Y-62723444D01*
X130721565Y-62688501D01*
X130632008Y-62670687D01*
X130540696Y-62670687D01*
X130451139Y-62688501D01*
X130366779Y-62723444D01*
X130290856Y-62774174D01*
X130226289Y-62838741D01*
X130175559Y-62914664D01*
X130140616Y-62999024D01*
X130122802Y-63088581D01*
X130122802Y-63179893D01*
X130140616Y-63269450D01*
X130175559Y-63353810D01*
X130226289Y-63429733D01*
X130262549Y-63465993D01*
X130234008Y-63508708D01*
X130199065Y-63593068D01*
X130181251Y-63682625D01*
X130181251Y-63773937D01*
X130199065Y-63863494D01*
X130234008Y-63947854D01*
X130284738Y-64023777D01*
X130349305Y-64088344D01*
X130425228Y-64139074D01*
X130509588Y-64174017D01*
X130599145Y-64191831D01*
X130690457Y-64191831D01*
X130780014Y-64174017D01*
X130864374Y-64139074D01*
X130940297Y-64088344D01*
X130982530Y-64046111D01*
X134018333Y-64046111D01*
X133999733Y-64056053D01*
X133955255Y-64092555D01*
X133946107Y-64103702D01*
X132327309Y-65722500D01*
X128118179Y-65722500D01*
X128125298Y-65705313D01*
X128143112Y-65615756D01*
X128143112Y-65524444D01*
X128125298Y-65434887D01*
X128090355Y-65350527D01*
X128039625Y-65274604D01*
X127975058Y-65210037D01*
X127899135Y-65159307D01*
X127814775Y-65124364D01*
X127788853Y-65119208D01*
X127868184Y-65039877D01*
X127872190Y-65040674D01*
X127963502Y-65040674D01*
X128053059Y-65022860D01*
X128137419Y-64987917D01*
X128213342Y-64937187D01*
X128277909Y-64872620D01*
X128328639Y-64796697D01*
X128363582Y-64712337D01*
X128381396Y-64622780D01*
X128381396Y-64531468D01*
X128363582Y-64441911D01*
X128328639Y-64357551D01*
X128277909Y-64281628D01*
X128262109Y-64265828D01*
X128305948Y-64200217D01*
X128340891Y-64115857D01*
X128342362Y-64108462D01*
X128343152Y-64108619D01*
X128434464Y-64108619D01*
X128524021Y-64090805D01*
X128608381Y-64055862D01*
X128684304Y-64005132D01*
X128748871Y-63940565D01*
X128799601Y-63864642D01*
X128834544Y-63780282D01*
X128852358Y-63690725D01*
X128852358Y-63599413D01*
X128834544Y-63509856D01*
X128828138Y-63494390D01*
X128911851Y-63529065D01*
X129001408Y-63546879D01*
X129092720Y-63546879D01*
X129182277Y-63529065D01*
X129266637Y-63494122D01*
X129342560Y-63443392D01*
X129407127Y-63378825D01*
X129457857Y-63302902D01*
X129492800Y-63218542D01*
X129510614Y-63128985D01*
X129510614Y-63037673D01*
X129492800Y-62948116D01*
X129457857Y-62863756D01*
X129407127Y-62787833D01*
X129342560Y-62723266D01*
X129266637Y-62672536D01*
X129182277Y-62637593D01*
X129092720Y-62619779D01*
X129001408Y-62619779D01*
X128911851Y-62637593D01*
X128827491Y-62672536D01*
X128751568Y-62723266D01*
X128687001Y-62787833D01*
X128684732Y-62791229D01*
X127786235Y-62791229D01*
X127771889Y-62789816D01*
X127714627Y-62795456D01*
X127659566Y-62812158D01*
X127623293Y-62831547D01*
X127620337Y-62824409D01*
X127612215Y-62812253D01*
X127672897Y-62751571D01*
X127723627Y-62675648D01*
X127758570Y-62591288D01*
X127776384Y-62501731D01*
X127776384Y-62410419D01*
X127758570Y-62320862D01*
X127723627Y-62236502D01*
X127672897Y-62160579D01*
X127608330Y-62096012D01*
X127532407Y-62045282D01*
X127448047Y-62010339D01*
X127358490Y-61992525D01*
X127267178Y-61992525D01*
X127177621Y-62010339D01*
X127093261Y-62045282D01*
X127017338Y-62096012D01*
X126952771Y-62160579D01*
X126931843Y-62191900D01*
X125862924Y-62191900D01*
X125896336Y-62111235D01*
X125914150Y-62021678D01*
X125914150Y-61930366D01*
X125896336Y-61840809D01*
X125862149Y-61758273D01*
X125862351Y-61758107D01*
X125871500Y-61746959D01*
X125921836Y-61696623D01*
X128662095Y-61696623D01*
X128644650Y-61784327D01*
G37*
%TD.AperFunction*%
D19*
X139979400Y-64414400D02*
X139999400Y-64414400D01*
X139999400Y-64516000D01*
X139979400Y-64516000D01*
X139979400Y-64536000D01*
X139877800Y-64536000D01*
X139877800Y-64516000D01*
X139857800Y-64516000D01*
X139857800Y-64414400D01*
X139877800Y-64414400D01*
X139877800Y-64394400D01*
X139979400Y-64394400D01*
X139979400Y-64414400D01*
%TA.AperFunction,Conductor*%
D20*
G36*
X139979400Y-64414400D02*
G01*
X139999400Y-64414400D01*
X139999400Y-64516000D01*
X139979400Y-64516000D01*
X139979400Y-64536000D01*
X139877800Y-64536000D01*
X139877800Y-64516000D01*
X139857800Y-64516000D01*
X139857800Y-64414400D01*
X139877800Y-64414400D01*
X139877800Y-64394400D01*
X139979400Y-64394400D01*
X139979400Y-64414400D01*
G37*
%TD.AperFunction*%
%TD*%
M02*
