M48
; DRILL file {KiCad (5.1.5)-3} date 16/12/2020 18:31:54
; FORMAT={-:-/ absolute / inch / decimal}
; #@! TF.CreationDate,2020-12-16T18:31:54+01:00
; #@! TF.GenerationSoftware,Kicad,Pcbnew,(5.1.5)-3
; #@! TF.FileFunction,Plated,1,4,PTH
FMAT,2
INCH
T1C0.0080
T2C0.0150
%
G90
G05
T1
X4.879Y-2.31
X4.919Y-2.846
X4.938Y-2.3595
X4.939Y-2.4065
X4.939Y-2.31
X4.939Y-2.383
X4.939Y-2.44
X4.9635Y-2.853
X4.9968Y-2.8625
X5.002Y-2.7585
X5.0034Y-2.5768
X5.0088Y-2.491
X5.0122Y-2.4593
X5.0142Y-2.845
X5.025Y-2.3314
X5.0323Y-2.5573
X5.035Y-2.8623
X5.044Y-2.5369
X5.0455Y-2.7579
X5.0484Y-2.3102
X5.0521Y-2.8462
X5.059Y-2.5116
X5.065Y-2.45
X5.0708Y-2.8623
X5.073Y-2.758
X5.0821Y-2.4004
X5.083Y-2.4343
X5.085Y-2.31
X5.0892Y-2.8477
X5.0998Y-2.494
X5.1156Y-2.3907
X5.1227Y-2.848
X5.133Y-2.35
X5.1422Y-2.3097
X5.143Y-2.618
X5.1515Y-2.3686
X5.1711Y-2.4839
X5.1762Y-2.8508
X5.1778Y-2.538
X5.1808Y-2.31
X5.1829Y-2.7652
X5.2024Y-2.3358
X5.2029Y-2.3693
X5.209Y-2.3089
X5.209Y-2.766
X5.2158Y-2.447
X5.2359Y-2.309
X5.267Y-2.31
X5.2794Y-2.4056
X5.2944Y-2.8123
X5.3013Y-2.5
X5.3028Y-2.7894
X5.3333Y-2.8125
X5.3527Y-2.8282
X5.3663Y-2.7703
X5.385Y-2.604
X5.387Y-2.482
X5.3946Y-2.809
X5.397Y-2.522
X5.3995Y-2.835
X5.415Y-2.47
X5.425Y-2.858
X5.456Y-2.7479
X5.499Y-2.438
X5.5089Y-2.8507
X5.5324Y-2.8503
X5.541Y-2.382
X5.583Y-2.62
X5.605Y-2.528
T2
X4.805Y-2.788
X4.861Y-2.748
X4.8618Y-2.8405
X4.899Y-2.7483
X4.967Y-2.148
X5.087Y-2.184
X5.171Y-2.666
X5.223Y-2.862
X5.253Y-2.78
X5.3873Y-2.5608
X5.43Y-2.42
X5.511Y-2.534
X5.539Y-2.73
X5.541Y-2.432
X5.543Y-2.824
X5.585Y-2.782
T0
M30
