%TF.GenerationSoftware,KiCad,Pcbnew,(5.1.5)-3*%
%TF.CreationDate,2020-12-17T07:42:55+01:00*%
%TF.ProjectId,TeensyMM,5465656e-7379-44d4-9d2e-6b696361645f,rev?*%
%TF.SameCoordinates,Original*%
%TF.FileFunction,Copper,L4,Bot*%
%TF.FilePolarity,Positive*%
%FSLAX46Y46*%
G04 Gerber Fmt 4.6, Leading zero omitted, Abs format (unit mm)*
G04 Created by KiCad (PCBNEW (5.1.5)-3) date 2020-12-17 07:42:55*
%MOMM*%
%LPD*%
G04 APERTURE LIST*
%TA.AperFunction,EtchedComponent*%
%ADD10C,0.100000*%
%TD*%
%TA.AperFunction,SMDPad,CuDef*%
%ADD11R,1.000000X1.500000*%
%TD*%
%TA.AperFunction,SMDPad,CuDef*%
%ADD12C,0.100000*%
%TD*%
%TA.AperFunction,SMDPad,CuDef*%
%ADD13R,1.150000X2.200000*%
%TD*%
%TA.AperFunction,SMDPad,CuDef*%
%ADD14R,0.800000X0.900000*%
%TD*%
%TA.AperFunction,SMDPad,CuDef*%
%ADD15R,1.500000X1.000000*%
%TD*%
%TA.AperFunction,SMDPad,CuDef*%
%ADD16R,0.350000X1.950000*%
%TD*%
%TA.AperFunction,ViaPad*%
%ADD17C,0.469900*%
%TD*%
%TA.AperFunction,ViaPad*%
%ADD18C,0.635000*%
%TD*%
%TA.AperFunction,Conductor*%
%ADD19C,0.279400*%
%TD*%
%TA.AperFunction,Conductor*%
%ADD20C,0.127000*%
%TD*%
%TA.AperFunction,Conductor*%
%ADD21C,0.152400*%
%TD*%
G04 APERTURE END LIST*
D10*
%TO.C,JP2*%
G36*
X123164600Y-59567600D02*
G01*
X123164600Y-59114400D01*
X122961400Y-59110400D01*
X122961400Y-59567600D01*
X123164600Y-59567600D01*
G37*
G36*
X122605800Y-59567600D02*
G01*
X122605800Y-59114400D01*
X122402600Y-59110400D01*
X122402600Y-59567600D01*
X122605800Y-59567600D01*
G37*
%TD*%
D11*
%TO.P,JP1,2*%
%TO.N,GND*%
X139979400Y-64363600D03*
%TA.AperFunction,SMDPad,CuDef*%
D12*
%TO.P,JP1,3*%
%TO.N,/PTA3*%
G36*
X138679400Y-65112998D02*
G01*
X138654866Y-65112998D01*
X138606035Y-65108188D01*
X138557910Y-65098616D01*
X138510955Y-65084372D01*
X138465622Y-65065595D01*
X138422349Y-65042464D01*
X138381550Y-65015204D01*
X138343621Y-64984076D01*
X138308924Y-64949379D01*
X138277796Y-64911450D01*
X138250536Y-64870651D01*
X138227405Y-64827378D01*
X138208628Y-64782045D01*
X138194384Y-64735090D01*
X138184812Y-64686965D01*
X138180002Y-64638134D01*
X138180002Y-64613600D01*
X138179400Y-64613600D01*
X138179400Y-64113600D01*
X138180002Y-64113600D01*
X138180002Y-64089066D01*
X138184812Y-64040235D01*
X138194384Y-63992110D01*
X138208628Y-63945155D01*
X138227405Y-63899822D01*
X138250536Y-63856549D01*
X138277796Y-63815750D01*
X138308924Y-63777821D01*
X138343621Y-63743124D01*
X138381550Y-63711996D01*
X138422349Y-63684736D01*
X138465622Y-63661605D01*
X138510955Y-63642828D01*
X138557910Y-63628584D01*
X138606035Y-63619012D01*
X138654866Y-63614202D01*
X138679400Y-63614202D01*
X138679400Y-63613600D01*
X139229400Y-63613600D01*
X139229400Y-65113600D01*
X138679400Y-65113600D01*
X138679400Y-65112998D01*
G37*
%TD.AperFunction*%
%TA.AperFunction,SMDPad,CuDef*%
%TO.P,JP1,1*%
%TO.N,/PTA1*%
G36*
X140729400Y-63613600D02*
G01*
X141279400Y-63613600D01*
X141279400Y-63614202D01*
X141303934Y-63614202D01*
X141352765Y-63619012D01*
X141400890Y-63628584D01*
X141447845Y-63642828D01*
X141493178Y-63661605D01*
X141536451Y-63684736D01*
X141577250Y-63711996D01*
X141615179Y-63743124D01*
X141649876Y-63777821D01*
X141681004Y-63815750D01*
X141708264Y-63856549D01*
X141731395Y-63899822D01*
X141750172Y-63945155D01*
X141764416Y-63992110D01*
X141773988Y-64040235D01*
X141778798Y-64089066D01*
X141778798Y-64113600D01*
X141779400Y-64113600D01*
X141779400Y-64613600D01*
X141778798Y-64613600D01*
X141778798Y-64638134D01*
X141773988Y-64686965D01*
X141764416Y-64735090D01*
X141750172Y-64782045D01*
X141731395Y-64827378D01*
X141708264Y-64870651D01*
X141681004Y-64911450D01*
X141649876Y-64949379D01*
X141615179Y-64984076D01*
X141577250Y-65015204D01*
X141536451Y-65042464D01*
X141493178Y-65065595D01*
X141447845Y-65084372D01*
X141400890Y-65098616D01*
X141352765Y-65108188D01*
X141303934Y-65112998D01*
X141279400Y-65112998D01*
X141279400Y-65113600D01*
X140729400Y-65113600D01*
X140729400Y-63613600D01*
G37*
%TD.AperFunction*%
%TD*%
D13*
%TO.P,Y2,2*%
%TO.N,Net-(U1-Pad20)*%
X136182400Y-63271400D03*
%TO.P,Y2,1*%
%TO.N,Net-(U1-Pad19)*%
X134632400Y-63271400D03*
%TD*%
D14*
%TO.P,D2,3*%
%TO.N,Net-(D2-Pad3)*%
X123164600Y-68935600D03*
%TO.P,D2,2*%
%TO.N,RTC3V*%
X124114600Y-66935600D03*
%TO.P,D2,1*%
%TO.N,+3V3*%
X122214600Y-66935600D03*
%TD*%
%TA.AperFunction,SMDPad,CuDef*%
D12*
%TO.P,JP2,1*%
%TO.N,D13-SCK*%
G36*
X123559000Y-59454000D02*
G01*
X123559000Y-60004000D01*
X123558398Y-60004000D01*
X123558398Y-60028534D01*
X123553588Y-60077365D01*
X123544016Y-60125490D01*
X123529772Y-60172445D01*
X123510995Y-60217778D01*
X123487864Y-60261051D01*
X123460604Y-60301850D01*
X123429476Y-60339779D01*
X123394779Y-60374476D01*
X123356850Y-60405604D01*
X123316051Y-60432864D01*
X123272778Y-60455995D01*
X123227445Y-60474772D01*
X123180490Y-60489016D01*
X123132365Y-60498588D01*
X123083534Y-60503398D01*
X123059000Y-60503398D01*
X123059000Y-60504000D01*
X122559000Y-60504000D01*
X122559000Y-60503398D01*
X122534466Y-60503398D01*
X122485635Y-60498588D01*
X122437510Y-60489016D01*
X122390555Y-60474772D01*
X122345222Y-60455995D01*
X122301949Y-60432864D01*
X122261150Y-60405604D01*
X122223221Y-60374476D01*
X122188524Y-60339779D01*
X122157396Y-60301850D01*
X122130136Y-60261051D01*
X122107005Y-60217778D01*
X122088228Y-60172445D01*
X122073984Y-60125490D01*
X122064412Y-60077365D01*
X122059602Y-60028534D01*
X122059602Y-60004000D01*
X122059000Y-60004000D01*
X122059000Y-59454000D01*
X123559000Y-59454000D01*
G37*
%TD.AperFunction*%
D15*
%TO.P,JP2,2*%
%TO.N,Net-(D1-Pad2)*%
X122809000Y-58704000D03*
%TA.AperFunction,SMDPad,CuDef*%
D12*
%TO.P,JP2,3*%
%TO.N,D23*%
G36*
X122059602Y-57404000D02*
G01*
X122059602Y-57379466D01*
X122064412Y-57330635D01*
X122073984Y-57282510D01*
X122088228Y-57235555D01*
X122107005Y-57190222D01*
X122130136Y-57146949D01*
X122157396Y-57106150D01*
X122188524Y-57068221D01*
X122223221Y-57033524D01*
X122261150Y-57002396D01*
X122301949Y-56975136D01*
X122345222Y-56952005D01*
X122390555Y-56933228D01*
X122437510Y-56918984D01*
X122485635Y-56909412D01*
X122534466Y-56904602D01*
X122559000Y-56904602D01*
X122559000Y-56904000D01*
X123059000Y-56904000D01*
X123059000Y-56904602D01*
X123083534Y-56904602D01*
X123132365Y-56909412D01*
X123180490Y-56918984D01*
X123227445Y-56933228D01*
X123272778Y-56952005D01*
X123316051Y-56975136D01*
X123356850Y-57002396D01*
X123394779Y-57033524D01*
X123429476Y-57068221D01*
X123460604Y-57106150D01*
X123487864Y-57146949D01*
X123510995Y-57190222D01*
X123529772Y-57235555D01*
X123544016Y-57282510D01*
X123553588Y-57330635D01*
X123558398Y-57379466D01*
X123558398Y-57404000D01*
X123559000Y-57404000D01*
X123559000Y-57954000D01*
X122059000Y-57954000D01*
X122059000Y-57404000D01*
X122059602Y-57404000D01*
G37*
%TD.AperFunction*%
%TD*%
D16*
%TO.P,J1,74*%
%TO.N,+3V3*%
X123155100Y-74040000D03*
%TO.P,J1,72*%
%TO.N,RTC3V*%
X123655100Y-74040000D03*
%TO.P,J1,70*%
%TO.N,N/C*%
X124155100Y-74040000D03*
%TO.P,J1,68*%
X124655100Y-74040000D03*
%TO.P,J1,66*%
X125155100Y-74040000D03*
%TO.P,J1,64*%
X125655100Y-74040000D03*
%TO.P,J1,62*%
X126155100Y-74040000D03*
%TO.P,J1,60*%
X126655100Y-74040000D03*
%TO.P,J1,58*%
X127155100Y-74040000D03*
%TO.P,J1,56*%
X127655100Y-74040000D03*
%TO.P,J1,54*%
X128155100Y-74040000D03*
%TO.P,J1,52*%
X128655100Y-74040000D03*
%TO.P,J1,50*%
X129155100Y-74040000D03*
%TO.P,J1,48*%
%TO.N,D06-PTD4*%
X129655100Y-74040000D03*
%TO.P,J1,46*%
%TO.N,D08-PTD3*%
X130155100Y-74040000D03*
%TO.P,J1,44*%
%TO.N,D07-PTD2*%
X130655100Y-74040000D03*
%TO.P,J1,42*%
%TO.N,D14-PTD1*%
X131155100Y-74040000D03*
%TO.P,J1,40*%
%TO.N,D02-PTD0*%
X131655100Y-74040000D03*
%TO.P,J1,38*%
%TO.N,ADC1_P*%
X132155100Y-74040000D03*
%TO.P,J1,36*%
%TO.N,GND*%
X132655100Y-74040000D03*
%TO.P,J1,34*%
%TO.N,ADC1_N*%
X133155100Y-74040000D03*
%TO.P,J1,32*%
%TO.N,DAC*%
X133655100Y-74040000D03*
%TO.P,J1,22*%
%TO.N,D10-TX2*%
X136155100Y-74040000D03*
%TO.P,J1,20*%
%TO.N,D09-RX2*%
X136655100Y-74040000D03*
%TO.P,J1,18*%
%TO.N,D17_A3*%
X137155100Y-74040000D03*
%TO.P,J1,16*%
%TO.N,D24-I2C-INT*%
X137655100Y-74040000D03*
%TO.P,J1,14*%
%TO.N,D19-SCL0*%
X138155100Y-74040000D03*
%TO.P,J1,12*%
%TO.N,D18-SDA0*%
X138655100Y-74040000D03*
%TO.P,J1,10*%
%TO.N,D16_A2*%
X139155100Y-74040000D03*
%TO.P,J1,8*%
%TO.N,D28_A17*%
X139655100Y-74040000D03*
%TO.P,J1,6*%
%TO.N,RESET*%
X140155100Y-74040000D03*
%TO.P,J1,4*%
%TO.N,N/C*%
X140655100Y-74040000D03*
%TO.P,J1,2*%
%TO.N,+3V3*%
X141155100Y-74040000D03*
%TD*%
D17*
%TO.N,GND*%
X128651000Y-62230000D03*
D18*
X129209800Y-55473600D03*
D17*
X139573000Y-59486800D03*
D18*
X139979400Y-64363600D03*
X141859000Y-70662800D03*
X132664190Y-72694800D03*
X133376793Y-70832167D03*
X123160612Y-69891982D03*
X123190000Y-68041098D03*
D17*
X127685800Y-70459600D03*
D18*
X121869200Y-70739000D03*
D17*
%TO.N,+3V3*%
X127393700Y-60947300D03*
D18*
X140690600Y-69342000D03*
X141401800Y-62763400D03*
X126161800Y-54559200D03*
D17*
X125450600Y-58674000D03*
D18*
X140792200Y-71729600D03*
X124548900Y-70091300D03*
X137820400Y-61366406D03*
X123469390Y-72186800D03*
X130086893Y-67645016D03*
D17*
%TO.N,USB-D-*%
X128854196Y-70053200D03*
X139924829Y-72407235D03*
%TO.N,USB-D+*%
X140521732Y-72398519D03*
X128193800Y-70027800D03*
%TO.N,RESET*%
X133781798Y-58674000D03*
X137972800Y-62738000D03*
X141706600Y-66547996D03*
%TO.N,SWD_CLK*%
X130801521Y-63738417D03*
X135951424Y-71872821D03*
%TO.N,SWD_DIO*%
X137439400Y-63017400D03*
X137433060Y-64708097D03*
X135525964Y-71448079D03*
X130405998Y-63260504D03*
%TO.N,/PTB1*%
X133695438Y-63519706D03*
X136732179Y-66170390D03*
%TO.N,D06-PTD4*%
X127685800Y-65551040D03*
%TO.N,D08-PTD3*%
X127917846Y-64577124D03*
%TO.N,D07-PTD2*%
X127895155Y-63980644D03*
%TO.N,D14-PTD1*%
X128388808Y-63645069D03*
%TO.N,D02-PTD0*%
X129047064Y-63083329D03*
%TO.N,Net-(D1-Pad2)*%
X123926600Y-58674000D03*
%TO.N,DAC*%
X129838515Y-66857880D03*
%TO.N,D32-CTS1*%
X130377905Y-59690287D03*
X137056347Y-71437275D03*
%TO.N,D25-RTS1*%
X129159002Y-58674000D03*
X134681103Y-70851376D03*
%TO.N,ADC1_P*%
X131813302Y-70470030D03*
%TO.N,ADC1_N*%
X132422900Y-70459602D03*
%TO.N,D13-SCK*%
X125425617Y-59931811D03*
X127339300Y-72284142D03*
%TO.N,/PTA3*%
X139674600Y-61925200D03*
%TO.N,/PTA1*%
X142367000Y-64211200D03*
%TO.N,D01-TX1*%
X131904630Y-60167152D03*
X137798086Y-72596278D03*
%TO.N,D00-RX1*%
X130611191Y-58666684D03*
X137150568Y-72027200D03*
%TO.N,D10-TX2*%
X129937010Y-60724189D03*
%TO.N,D09-RX2*%
X130797499Y-60151191D03*
%TO.N,D12-MISO*%
X125450589Y-61125111D03*
X126047602Y-72491044D03*
%TO.N,D11-MOSI*%
X126918286Y-72708366D03*
X125450600Y-60528200D03*
%TO.N,D15-CS*%
X127635000Y-59217489D03*
X127886027Y-72705838D03*
%TO.N,D17_A3*%
X132308600Y-58645444D03*
X138544630Y-69811572D03*
X136417082Y-70592940D03*
%TO.N,D19-SCL0*%
X131591060Y-58674000D03*
%TO.N,D18-SDA0*%
X132142382Y-59317563D03*
%TO.N,D16_A2*%
X132990595Y-58647699D03*
%TO.N,D22-A8*%
X128229206Y-58679972D03*
X130117787Y-72339194D03*
%TO.N,D27_A16*%
X125450600Y-61976022D03*
X124942679Y-72288400D03*
%TO.N,D28_A17*%
X133419893Y-61290194D03*
%TO.N,D03-CAN-TX*%
X129108200Y-61829983D03*
X131476721Y-72411038D03*
%TO.N,D04-CAN-TX*%
X129086099Y-60971206D03*
X134478367Y-71432348D03*
%TO.N,D29-SCL1*%
X127311962Y-62461041D03*
X128320374Y-72296391D03*
%TO.N,D30-SDA1*%
X128799040Y-72703050D03*
X127215702Y-63050140D03*
%TO.N,D24-I2C-INT*%
X131464115Y-62281549D03*
%TO.N,D26_A15-BAT_VIN3*%
X129266875Y-72332329D03*
X127095821Y-70809421D03*
%TO.N,D23*%
X127635000Y-56515000D03*
%TO.N,Net-(U1-Pad20)*%
X136728200Y-65506600D03*
%TO.N,Net-(U1-Pad19)*%
X134492996Y-65119271D03*
%TO.N,Net-(D2-Pad3)*%
X125304565Y-65963800D03*
%TD*%
D19*
%TO.N,GND*%
X139979400Y-64312800D02*
X139979400Y-64414400D01*
X139928600Y-64465200D02*
X139928600Y-64465201D01*
X139979400Y-64414400D02*
X139928600Y-64465200D01*
X132655100Y-72703890D02*
X132664190Y-72694800D01*
X132655100Y-74040000D02*
X132655100Y-72703890D01*
%TO.N,+3V3*%
X123155100Y-74040000D02*
X123154100Y-74041000D01*
X141155100Y-72092500D02*
X140792200Y-71729600D01*
X141155100Y-74040000D02*
X141155100Y-72092500D01*
X123155100Y-72501090D02*
X123469390Y-72186800D01*
X123155100Y-74040000D02*
X123155100Y-72501090D01*
D20*
%TO.N,RESET*%
X137972800Y-66548000D02*
X137972800Y-62738000D01*
X137972800Y-67919600D02*
X137972800Y-66548000D01*
X139471400Y-69418200D02*
X137972800Y-67919600D01*
X140155100Y-72938000D02*
X140091599Y-72874499D01*
X140155100Y-74040000D02*
X140155100Y-72938000D01*
X140091599Y-72874499D02*
X139771065Y-72874499D01*
X139499369Y-72602803D02*
X139499369Y-69441031D01*
X139771065Y-72874499D02*
X139499369Y-72602803D01*
X141374331Y-66547996D02*
X141706600Y-66547996D01*
X137972804Y-66547996D02*
X141374331Y-66547996D01*
X137972800Y-66548000D02*
X137972804Y-66547996D01*
X136590569Y-61023500D02*
X137972800Y-62405731D01*
X134086600Y-61023500D02*
X136590569Y-61023500D01*
X133375400Y-59080398D02*
X133375400Y-60312300D01*
X133781798Y-58674000D02*
X133375400Y-59080398D01*
X137972800Y-62405731D02*
X137972800Y-62738000D01*
X133375400Y-60312300D02*
X134086600Y-61023500D01*
%TO.N,SWD_CLK*%
X130801521Y-63738417D02*
X130801521Y-65641353D01*
X130801521Y-65641353D02*
X135737611Y-70577443D01*
X135737611Y-70577443D02*
X135737611Y-71023997D01*
X135737611Y-71023997D02*
X135951424Y-71237810D01*
X135951424Y-71237810D02*
X135951424Y-71540552D01*
X135951424Y-71540552D02*
X135951424Y-71872821D01*
%TO.N,SWD_DIO*%
X137439400Y-64701757D02*
X137433060Y-64708097D01*
X137439400Y-63017400D02*
X137439400Y-64701757D01*
X135525964Y-71448079D02*
X135483600Y-71405715D01*
X130429099Y-63944132D02*
X130365500Y-63880533D01*
X135483600Y-71405715D02*
X135483600Y-70682657D01*
X130365500Y-63880533D02*
X130365500Y-63301002D01*
X135483600Y-70682657D02*
X130429099Y-65628156D01*
X130365500Y-63301002D02*
X130405998Y-63260504D01*
X130429099Y-65628156D02*
X130429099Y-63944132D01*
%TO.N,/PTB1*%
X133695438Y-64943021D02*
X134922807Y-66170390D01*
X134922807Y-66170390D02*
X136732179Y-66170390D01*
X133695438Y-63519706D02*
X133695438Y-64943021D01*
%TO.N,D06-PTD4*%
X129692335Y-70227284D02*
X127685800Y-68220749D01*
X129655100Y-74040000D02*
X129655100Y-72938000D01*
X127685800Y-65883309D02*
X127685800Y-65551040D01*
X129655100Y-72938000D02*
X129692335Y-72900765D01*
X127685800Y-68220749D02*
X127685800Y-65883309D01*
X129692335Y-72900765D02*
X129692335Y-70227284D01*
%TO.N,D08-PTD3*%
X128152795Y-64812073D02*
X127917846Y-64577124D01*
X128391942Y-65051220D02*
X128152795Y-64812073D01*
X130371798Y-70188297D02*
X128391942Y-68208441D01*
X130371798Y-71988072D02*
X130371798Y-70188297D01*
X130543247Y-72159521D02*
X130371798Y-71988072D01*
X130543247Y-72543429D02*
X130543247Y-72159521D01*
X130155100Y-72931576D02*
X130543247Y-72543429D01*
X130155100Y-74040000D02*
X130155100Y-72931576D01*
X128391942Y-68208441D02*
X128391942Y-65051220D01*
%TO.N,D07-PTD2*%
X130625809Y-70083083D02*
X128645953Y-68103227D01*
X130797258Y-72720470D02*
X130797258Y-72054307D01*
X128645953Y-68103227D02*
X128645953Y-64675561D01*
X130625809Y-71882858D02*
X130625809Y-70083083D01*
X130655100Y-72862628D02*
X130797258Y-72720470D01*
X130655100Y-74040000D02*
X130655100Y-72862628D01*
X128645953Y-64675561D02*
X127951036Y-63980644D01*
X130797258Y-72054307D02*
X130625809Y-71882858D01*
X127951036Y-63980644D02*
X127895155Y-63980644D01*
%TO.N,D14-PTD1*%
X130879820Y-69977869D02*
X128899964Y-67998013D01*
X131155100Y-74040000D02*
X131155100Y-72938000D01*
X128899964Y-67998013D02*
X128899964Y-64570347D01*
X130879820Y-71777644D02*
X130879820Y-69977869D01*
X131051269Y-71949093D02*
X130879820Y-71777644D01*
X128388808Y-64059191D02*
X128388808Y-63977338D01*
X131155100Y-72938000D02*
X131051269Y-72834169D01*
X128388808Y-63977338D02*
X128388808Y-63645069D01*
X128899964Y-64570347D02*
X128388808Y-64059191D01*
X131051269Y-72834169D02*
X131051269Y-71949093D01*
%TO.N,D02-PTD0*%
X131387842Y-69767441D02*
X129413055Y-67792655D01*
X131902177Y-72615277D02*
X131902177Y-72072477D01*
X131655100Y-74040000D02*
X131655100Y-72862354D01*
X131387842Y-71558142D02*
X131387842Y-69767441D01*
X129413055Y-67792655D02*
X129413055Y-64364988D01*
X129413055Y-64364988D02*
X129104718Y-64056651D01*
X129104718Y-64056651D02*
X129104718Y-63140983D01*
X131655100Y-72862354D02*
X131902177Y-72615277D01*
X129104718Y-63140983D02*
X129047064Y-63083329D01*
X131902177Y-72072477D02*
X131387842Y-71558142D01*
%TO.N,Net-(D1-Pad2)*%
X122809000Y-58704000D02*
X123795000Y-58704000D01*
X123795000Y-58704000D02*
X123825000Y-58674000D01*
%TO.N,DAC*%
X133981451Y-70692742D02*
X130146589Y-66857880D01*
X133981451Y-72405404D02*
X133981451Y-70692742D01*
X133655100Y-74040000D02*
X133655100Y-72731755D01*
X130146589Y-66857880D02*
X129838515Y-66857880D01*
X133655100Y-72731755D02*
X133981451Y-72405404D01*
%TO.N,D32-CTS1*%
X131153446Y-59690287D02*
X131225159Y-59762000D01*
X136842534Y-70388722D02*
X136842534Y-70960359D01*
X131225159Y-60325224D02*
X130784644Y-60765739D01*
X130784644Y-60765739D02*
X130784644Y-62663383D01*
X131480983Y-63359722D02*
X131480983Y-65602365D01*
X136046106Y-70167488D02*
X136621300Y-70167488D01*
X130784644Y-62663383D02*
X131480983Y-63359722D01*
X131480983Y-65602365D02*
X136046106Y-70167488D01*
X130377905Y-59690287D02*
X131153446Y-59690287D01*
X131225159Y-59762000D02*
X131225159Y-60325224D01*
X136842534Y-70960359D02*
X137056347Y-71174171D01*
X136621300Y-70167488D02*
X136842534Y-70388722D01*
X137056347Y-71174171D02*
X137056347Y-71437275D01*
%TO.N,D25-RTS1*%
X134681103Y-70637202D02*
X134681103Y-70851376D01*
X129726527Y-62941548D02*
X129726527Y-63960010D01*
X129511550Y-59026548D02*
X129511550Y-61037432D01*
X129921077Y-64154560D02*
X129921077Y-65877176D01*
X129726527Y-63960010D02*
X129921077Y-64154560D01*
X129159002Y-58674000D02*
X129511550Y-59026548D01*
X129511550Y-61037432D02*
X130022611Y-61548493D01*
X129921077Y-65877176D02*
X134681103Y-70637202D01*
X130022611Y-62645465D02*
X129726527Y-62941548D01*
X130022611Y-61548493D02*
X130022611Y-62645465D01*
%TO.N,ADC1_P*%
X132155100Y-74040000D02*
X132155100Y-72938000D01*
X132048251Y-70704979D02*
X131813302Y-70470030D01*
X132156188Y-72936912D02*
X132156188Y-70812916D01*
X132155100Y-72938000D02*
X132156188Y-72936912D01*
X132156188Y-70812916D02*
X132048251Y-70704979D01*
%TO.N,ADC1_N*%
X133155100Y-72938000D02*
X133184900Y-72908200D01*
X133184900Y-72908200D02*
X133184900Y-71553871D01*
X133155100Y-74040000D02*
X133155100Y-72938000D01*
X132422900Y-70791871D02*
X132422900Y-70459602D01*
X133184900Y-71553871D02*
X132422900Y-70791871D01*
%TO.N,D13-SCK*%
X122809000Y-60004000D02*
X125353428Y-60004000D01*
X125353428Y-60004000D02*
X125425617Y-59931811D01*
X127165791Y-72110633D02*
X127339300Y-72284142D01*
X126282228Y-62635494D02*
X126282228Y-65234111D01*
X126385725Y-62531997D02*
X126282228Y-62635494D01*
X125757886Y-59931811D02*
X126385725Y-60559650D01*
X125425617Y-59931811D02*
X125757886Y-59931811D01*
X125850616Y-71289591D02*
X126671658Y-72110633D01*
X126282228Y-65234111D02*
X126492058Y-65443941D01*
X126492058Y-65443941D02*
X126492058Y-69733817D01*
X126385725Y-60559650D02*
X126385725Y-62531997D01*
X126492058Y-69733817D02*
X125850616Y-70375258D01*
X125850616Y-70375258D02*
X125850616Y-71289591D01*
X126671658Y-72110633D02*
X127165791Y-72110633D01*
%TO.N,/PTA3*%
X138679400Y-64312800D02*
X138679400Y-62285400D01*
X139039600Y-61925200D02*
X139674600Y-61925200D01*
X138679400Y-62285400D02*
X139039600Y-61925200D01*
%TO.N,/PTA1*%
X141279400Y-64312800D02*
X141401800Y-64312800D01*
X141401800Y-64312800D02*
X141503400Y-64211200D01*
X141503400Y-64211200D02*
X142367000Y-64211200D01*
%TO.N,D01-TX1*%
X138033035Y-72361329D02*
X137798086Y-72596278D01*
X138033035Y-71073185D02*
X138033035Y-72361329D01*
X137604567Y-70644717D02*
X138033035Y-71073185D01*
X136936942Y-69405455D02*
X137604567Y-70073080D01*
X131904630Y-62117795D02*
X132243016Y-62456181D01*
X137604567Y-70073080D02*
X137604567Y-70644717D01*
X131904630Y-60167152D02*
X131904630Y-62117795D01*
X132243016Y-62456181D02*
X132243016Y-65286723D01*
X132243016Y-65286723D02*
X136361748Y-69405455D01*
X136361748Y-69405455D02*
X136936942Y-69405455D01*
%TO.N,D00-RX1*%
X130846140Y-59023756D02*
X131479170Y-59656786D01*
X131734994Y-65497151D02*
X136151320Y-69913477D01*
X137481799Y-71695969D02*
X137385517Y-71792251D01*
X131734994Y-63254504D02*
X131734994Y-65497151D01*
X131479170Y-59656786D02*
X131479170Y-60430438D01*
X131479170Y-60430438D02*
X131038655Y-60870953D01*
X131038655Y-60870953D02*
X131038655Y-62558165D01*
X131038655Y-62558165D02*
X131734994Y-63254504D01*
X136151320Y-69913477D02*
X136726514Y-69913477D01*
X137385517Y-71792251D02*
X137150568Y-72027200D01*
X137096545Y-70283508D02*
X137096545Y-70855145D01*
X137481799Y-71240399D02*
X137481799Y-71695969D01*
X130611191Y-58666684D02*
X130846140Y-58901633D01*
X137096545Y-70855145D02*
X137481799Y-71240399D01*
X136726514Y-69913477D02*
X137096545Y-70283508D01*
X130846140Y-58901633D02*
X130846140Y-59023756D01*
%TO.N,D10-TX2*%
X130276622Y-61063801D02*
X130171959Y-60959138D01*
X130276622Y-62750679D02*
X130276622Y-61063801D01*
X135106563Y-70664845D02*
X130175088Y-65733370D01*
X135100513Y-71243862D02*
X135106563Y-71237812D01*
X136155100Y-72706883D02*
X135100513Y-71652296D01*
X136155100Y-74040000D02*
X136155100Y-72706883D01*
X135100513Y-71652296D02*
X135100513Y-71243862D01*
X135106563Y-71237812D02*
X135106563Y-70664845D01*
X129980538Y-63854796D02*
X129980538Y-63046762D01*
X130171959Y-60959138D02*
X129937010Y-60724189D01*
X130175088Y-64049346D02*
X129980538Y-63854796D01*
X129980538Y-63046762D02*
X130276622Y-62750679D01*
X130175088Y-65733370D02*
X130175088Y-64049346D01*
%TO.N,D09-RX2*%
X136655100Y-74040000D02*
X136655100Y-72797225D01*
X136655100Y-72797225D02*
X136376876Y-72519001D01*
X131226972Y-65707579D02*
X131226972Y-63464936D01*
X130530633Y-60418057D02*
X130562550Y-60386140D01*
X135991622Y-70472229D02*
X131226972Y-65707579D01*
X136376876Y-72519001D02*
X136376876Y-71304037D01*
X136376876Y-71304037D02*
X135991622Y-70918783D01*
X130530633Y-62768597D02*
X130530633Y-60418057D01*
X135991622Y-70918783D02*
X135991622Y-70472229D01*
X130562550Y-60386140D02*
X130797499Y-60151191D01*
X131226972Y-63464936D02*
X130530633Y-62768597D01*
%TO.N,D12-MISO*%
X125342594Y-71786036D02*
X125812653Y-72256095D01*
X125812653Y-72256095D02*
X126047602Y-72491044D01*
X125774206Y-62425066D02*
X125774206Y-65444539D01*
X125877703Y-62321569D02*
X125774206Y-62425066D01*
X125877703Y-61552225D02*
X125877703Y-62321569D01*
X125342594Y-70164830D02*
X125342594Y-71786036D01*
X125984036Y-65654370D02*
X125984036Y-69523389D01*
X125774206Y-65444539D02*
X125984036Y-65654370D01*
X125450589Y-61125111D02*
X125877703Y-61552225D01*
X125984036Y-69523389D02*
X125342594Y-70164830D01*
%TO.N,D11-MOSI*%
X126131714Y-62426783D02*
X126131714Y-60877045D01*
X126028217Y-62530280D02*
X126131714Y-62426783D01*
X126238047Y-65549155D02*
X126028217Y-65339325D01*
X125782869Y-60528200D02*
X125450600Y-60528200D01*
X126028217Y-65339325D02*
X126028217Y-62530280D01*
X126918286Y-72708366D02*
X126866616Y-72708366D01*
X126131714Y-60877045D02*
X125782869Y-60528200D01*
X125596605Y-71438355D02*
X125596605Y-70270044D01*
X125596605Y-70270044D02*
X126238047Y-69628603D01*
X126866616Y-72708366D02*
X125596605Y-71438355D01*
X126238047Y-69628603D02*
X126238047Y-65549155D01*
%TO.N,D15-CS*%
X126639736Y-62637211D02*
X126536239Y-62740708D01*
X126746069Y-69839031D02*
X126104627Y-70480472D01*
X126746069Y-65338727D02*
X126746069Y-69839031D01*
X127513474Y-71856622D02*
X127886027Y-72229175D01*
X126536239Y-65128897D02*
X126746069Y-65338727D01*
X127690896Y-59217489D02*
X126639736Y-60268649D01*
X127886027Y-72229175D02*
X127886027Y-72373569D01*
X126639736Y-60268649D02*
X126639736Y-62637211D01*
X126776872Y-71856622D02*
X127513474Y-71856622D01*
X127886027Y-72373569D02*
X127886027Y-72705838D01*
X126104627Y-70480472D02*
X126104627Y-71184377D01*
X126104627Y-71184377D02*
X126776872Y-71856622D01*
X126536239Y-62740708D02*
X126536239Y-65128897D01*
%TO.N,D17_A3*%
X136417082Y-70925209D02*
X136417082Y-70592940D01*
X136630887Y-71139014D02*
X136417082Y-70925209D01*
X136630887Y-72413787D02*
X136630887Y-71139014D01*
X137155100Y-72938000D02*
X136630887Y-72413787D01*
X137155100Y-74040000D02*
X137155100Y-72938000D01*
X132867389Y-60552513D02*
X132740422Y-60679480D01*
X132308600Y-58645444D02*
X132867389Y-59204233D01*
X132740422Y-61875911D02*
X133005049Y-62140538D01*
X132867389Y-59204233D02*
X132867389Y-60552513D01*
X133005049Y-62140538D02*
X133005049Y-64971081D01*
X136677390Y-68643422D02*
X137376480Y-68643422D01*
X138309681Y-69576623D02*
X138544630Y-69811572D01*
X132740422Y-60679480D02*
X132740422Y-61875911D01*
X133005049Y-64971081D02*
X136677390Y-68643422D01*
X137376480Y-68643422D02*
X138309681Y-69576623D01*
%TO.N,D19-SCL0*%
X131591060Y-59006269D02*
X131591060Y-58674000D01*
X131591060Y-59406926D02*
X131591060Y-59006269D01*
X131925834Y-59741700D02*
X131591060Y-59406926D01*
X132108848Y-59741700D02*
X131925834Y-59741700D01*
X132330082Y-59962934D02*
X132108848Y-59741700D01*
X132232400Y-60469052D02*
X132330082Y-60371370D01*
X132497027Y-62350966D02*
X132232400Y-62086339D01*
X132497027Y-65181509D02*
X132497027Y-62350966D01*
X136466962Y-69151444D02*
X132497027Y-65181509D01*
X137858578Y-69967866D02*
X137042156Y-69151444D01*
X137858578Y-70539503D02*
X137858578Y-69967866D01*
X138483325Y-71164249D02*
X137858578Y-70539503D01*
X138155100Y-74040000D02*
X138155100Y-72938000D01*
X132232400Y-62086339D02*
X132232400Y-60469052D01*
X132330082Y-60371370D02*
X132330082Y-59962934D01*
X138155100Y-72938000D02*
X138483325Y-72609775D01*
X138483325Y-72609775D02*
X138483325Y-71164249D01*
X137042156Y-69151444D02*
X136466962Y-69151444D01*
%TO.N,D18-SDA0*%
X132751038Y-65076295D02*
X132751038Y-62245752D01*
X138655100Y-74040000D02*
X138655100Y-72938000D01*
X132584093Y-60476584D02*
X132584093Y-59759274D01*
X137147370Y-68897433D02*
X136572176Y-68897433D01*
X132377331Y-59552512D02*
X132142382Y-59317563D01*
X136572176Y-68897433D02*
X132751038Y-65076295D01*
X132751038Y-62245752D02*
X132486411Y-61981125D01*
X138112589Y-69862652D02*
X137147370Y-68897433D01*
X138112589Y-70434288D02*
X138112589Y-69862652D01*
X138737336Y-71059035D02*
X138112589Y-70434288D01*
X138737336Y-72855764D02*
X138737336Y-71059035D01*
X132584093Y-59759274D02*
X132377331Y-59552512D01*
X138655100Y-72938000D02*
X138737336Y-72855764D01*
X132486411Y-61981125D02*
X132486411Y-60574266D01*
X132486411Y-60574266D02*
X132584093Y-60476584D01*
%TO.N,D16_A2*%
X139155100Y-72976983D02*
X138991348Y-72813231D01*
X132994433Y-61645833D02*
X132994433Y-60784694D01*
X138991348Y-72813231D02*
X138991348Y-69656598D01*
X133259060Y-64865867D02*
X133259060Y-61910460D01*
X133121389Y-58778493D02*
X132990595Y-58647699D01*
X133121389Y-60657738D02*
X133121389Y-58778493D01*
X138991348Y-69656598D02*
X137724161Y-68389411D01*
X133259060Y-61910460D02*
X132994433Y-61645833D01*
X132994433Y-60784694D02*
X133121389Y-60657738D01*
X136782604Y-68389411D02*
X133259060Y-64865867D01*
X137724161Y-68389411D02*
X136782604Y-68389411D01*
X139155100Y-74040000D02*
X139155100Y-72976983D01*
%TO.N,D22-A8*%
X128222260Y-63023869D02*
X127469703Y-63776426D01*
X128222260Y-59019187D02*
X128222260Y-63023869D01*
X128229206Y-59012241D02*
X128222260Y-59019187D01*
X128229206Y-58679972D02*
X128229206Y-59012241D01*
X127469703Y-63776426D02*
X127469703Y-64730673D01*
X128137931Y-65398901D02*
X128137931Y-68313655D01*
X130117787Y-72006925D02*
X130117787Y-72339194D01*
X130115273Y-72004411D02*
X130117787Y-72006925D01*
X130115273Y-70290997D02*
X130115273Y-72004411D01*
X127469703Y-64730673D02*
X128137931Y-65398901D01*
X128137931Y-68313655D02*
X130115273Y-70290997D01*
%TO.N,D27_A16*%
X124942679Y-71956131D02*
X124942679Y-72288400D01*
X125088583Y-71810227D02*
X124942679Y-71956131D01*
X125730025Y-69418175D02*
X125088583Y-70059617D01*
X125450600Y-61976022D02*
X125450600Y-65480159D01*
X125088583Y-70059617D02*
X125088583Y-71810227D01*
X125730025Y-65759584D02*
X125730025Y-69418175D01*
X125450600Y-65480159D02*
X125730025Y-65759584D01*
%TO.N,D28_A17*%
X139655100Y-74040000D02*
X139655100Y-73284900D01*
X137185400Y-67491425D02*
X137185400Y-65100200D01*
X137185400Y-65100200D02*
X137007600Y-64922400D01*
X133752162Y-61290194D02*
X133419893Y-61290194D01*
X139245359Y-72708017D02*
X139245359Y-69551384D01*
X139245359Y-69551384D02*
X137185400Y-67491425D01*
X139655100Y-73117758D02*
X139245359Y-72708017D01*
X139655100Y-74040000D02*
X139655100Y-73117758D01*
X137007600Y-61925200D02*
X136372594Y-61290194D01*
X137007600Y-64922400D02*
X137007600Y-61925200D01*
X136372594Y-61290194D02*
X133752162Y-61290194D01*
%TO.N,D03-CAN-TX*%
X128850707Y-63500035D02*
X128850707Y-64161865D01*
X128612866Y-62915834D02*
X128612866Y-63262194D01*
X131476721Y-72015320D02*
X131476721Y-72078769D01*
X131133831Y-71672430D02*
X131476721Y-72015320D01*
X129153975Y-67892799D02*
X131133831Y-69872655D01*
X129108200Y-62420500D02*
X128612866Y-62915834D01*
X131133831Y-69872655D02*
X131133831Y-71672430D01*
X128850707Y-64161865D02*
X129153975Y-64465133D01*
X129108200Y-61829983D02*
X129108200Y-62420500D01*
X131476721Y-72078769D02*
X131476721Y-72411038D01*
X128612866Y-63262194D02*
X128850707Y-63500035D01*
X129153975Y-64465133D02*
X129153975Y-67892799D01*
%TO.N,D04-CAN-TX*%
X134243418Y-71197399D02*
X134478367Y-71432348D01*
X134243418Y-70587343D02*
X134243418Y-71197399D01*
X129667066Y-66010991D02*
X134243418Y-70587343D01*
X129472516Y-64065224D02*
X129667066Y-64259774D01*
X129472516Y-62836335D02*
X129472516Y-64065224D01*
X129768600Y-62540251D02*
X129472516Y-62836335D01*
X129768600Y-61653707D02*
X129768600Y-62540251D01*
X129086099Y-60971206D02*
X129768600Y-61653707D01*
X129667066Y-64259774D02*
X129667066Y-66010991D01*
%TO.N,D29-SCL1*%
X127000080Y-69944245D02*
X126358638Y-70585686D01*
X126790250Y-65023683D02*
X127000080Y-65233513D01*
X126358638Y-70585686D02*
X126358638Y-71079163D01*
X127311962Y-62461041D02*
X127175131Y-62461041D01*
X127175131Y-62461041D02*
X126790250Y-62845922D01*
X127000080Y-65233513D02*
X127000080Y-69944245D01*
X126882086Y-71602611D02*
X127626594Y-71602611D01*
X126358638Y-71079163D02*
X126882086Y-71602611D01*
X127626594Y-71602611D02*
X128085425Y-72061442D01*
X126790250Y-62845922D02*
X126790250Y-65023683D01*
X128085425Y-72061442D02*
X128320374Y-72296391D01*
%TO.N,D30-SDA1*%
X127215702Y-63382409D02*
X127215702Y-63050140D01*
X127215702Y-65089910D02*
X127215702Y-63382409D01*
X127254091Y-65128299D02*
X127215702Y-65089910D01*
X126987300Y-71348600D02*
X126612649Y-70973949D01*
X127974276Y-71348600D02*
X126987300Y-71348600D01*
X128799040Y-72703050D02*
X128799040Y-72173364D01*
X128799040Y-72173364D02*
X127974276Y-71348600D01*
X126612649Y-70973949D02*
X126612649Y-70690900D01*
X126612649Y-70690900D02*
X127254091Y-70049459D01*
X127254091Y-70049459D02*
X127254091Y-65128299D01*
%TO.N,D24-I2C-INT*%
X137735810Y-71135184D02*
X137350556Y-70749931D01*
X137369548Y-72423123D02*
X137735810Y-72056861D01*
X136256534Y-69659466D02*
X131989005Y-65391937D01*
X137735810Y-72056861D02*
X137735810Y-71135184D01*
X137350556Y-70749931D02*
X137350556Y-70178294D01*
X131989005Y-65391937D02*
X131989005Y-62806439D01*
X136831728Y-69659466D02*
X136256534Y-69659466D01*
X131699064Y-62516498D02*
X131464115Y-62281549D01*
X131989005Y-62806439D02*
X131699064Y-62516498D01*
X137369548Y-72797418D02*
X137369548Y-72423123D01*
X137655100Y-73082970D02*
X137369548Y-72797418D01*
X137655100Y-74040000D02*
X137655100Y-73082970D01*
X137350556Y-70178294D02*
X136831728Y-69659466D01*
%TO.N,D26_A15-BAT_VIN3*%
X129273289Y-72240157D02*
X129273289Y-72325915D01*
X129273289Y-72325915D02*
X129266875Y-72332329D01*
X129266875Y-72000060D02*
X128311185Y-71044370D01*
X129266875Y-72332329D02*
X129266875Y-72000060D01*
X127330770Y-71044370D02*
X127095821Y-70809421D01*
X128311185Y-71044370D02*
X127330770Y-71044370D01*
%TO.N,D23*%
X123698000Y-56515000D02*
X127635000Y-56515000D01*
X122809000Y-57404000D02*
X123698000Y-56515000D01*
%TO.N,Net-(U1-Pad20)*%
X136182400Y-64960800D02*
X136728200Y-65506600D01*
X136182400Y-63271400D02*
X136182400Y-64960800D01*
%TO.N,Net-(U1-Pad19)*%
X134493000Y-65119267D02*
X134492996Y-65119271D01*
X134632400Y-63271400D02*
X134493000Y-63410800D01*
X134493000Y-63410800D02*
X134493000Y-65119267D01*
%TO.N,Net-(D2-Pad3)*%
X123571000Y-65963800D02*
X125304565Y-65963800D01*
X123164600Y-68885600D02*
X122637600Y-68358600D01*
X123164600Y-66370200D02*
X123571000Y-65963800D01*
X122637600Y-68358600D02*
X122637600Y-67841656D01*
X122637600Y-67841656D02*
X123164600Y-67314656D01*
X123164600Y-67314656D02*
X123164600Y-66370200D01*
X123164600Y-68935600D02*
X123164600Y-68885600D01*
%TO.N,RTC3V*%
X123977400Y-67362400D02*
X124099400Y-67240400D01*
X123655100Y-74040000D02*
X123655100Y-72938000D01*
X123655100Y-72938000D02*
X123977400Y-72615700D01*
X123977400Y-72615700D02*
X123977400Y-67362400D01*
%TD*%
D21*
%TO.N,+3V3*%
G36*
X133401837Y-54216127D02*
G01*
X133404710Y-54227697D01*
X133506310Y-54532497D01*
X133508561Y-54538417D01*
X133660961Y-54894017D01*
X133670040Y-54909720D01*
X133820080Y-55109773D01*
X133970459Y-55360405D01*
X133981918Y-55375082D01*
X134489918Y-55883082D01*
X134501532Y-55892602D01*
X134653932Y-55994202D01*
X134662122Y-55998955D01*
X134865322Y-56100555D01*
X134871100Y-56103150D01*
X135125100Y-56204750D01*
X135133350Y-56207515D01*
X135692150Y-56359915D01*
X135712200Y-56362600D01*
X136372600Y-56362600D01*
X136382051Y-56362012D01*
X136788451Y-56311212D01*
X136803097Y-56307890D01*
X137107897Y-56206290D01*
X137114748Y-56203632D01*
X137571948Y-56000432D01*
X137583268Y-55994202D01*
X138040468Y-55689402D01*
X138056055Y-55675590D01*
X138360855Y-55319990D01*
X138366402Y-55312668D01*
X138671202Y-54855468D01*
X138679148Y-54839956D01*
X138831548Y-54433556D01*
X138832490Y-54430897D01*
X138934090Y-54126097D01*
X138937412Y-54111451D01*
X138961004Y-53922717D01*
X142138345Y-53922717D01*
X142290802Y-53941429D01*
X142426486Y-53986032D01*
X142550915Y-54056138D01*
X142659361Y-54149078D01*
X142747692Y-54261315D01*
X142812537Y-54388564D01*
X142852270Y-54528951D01*
X142864100Y-54645417D01*
X142864101Y-71012205D01*
X142854878Y-71085132D01*
X142834907Y-71145142D01*
X142803659Y-71200131D01*
X142762325Y-71248003D01*
X142712482Y-71286934D01*
X142656025Y-71315444D01*
X142591625Y-71333415D01*
X142526681Y-71340012D01*
X142525000Y-71340351D01*
X142523288Y-71340377D01*
X142519239Y-71340865D01*
X142461369Y-71348247D01*
X142441327Y-71352826D01*
X142421040Y-71356309D01*
X142417115Y-71357416D01*
X142321382Y-71385126D01*
X142296811Y-71394926D01*
X142272064Y-71404397D01*
X142268429Y-71406245D01*
X142179902Y-71452022D01*
X142157697Y-71466411D01*
X142135267Y-71480505D01*
X142132060Y-71483024D01*
X142054110Y-71545125D01*
X142035128Y-71563548D01*
X142015858Y-71581734D01*
X142013207Y-71584823D01*
X142013201Y-71584829D01*
X142013197Y-71584835D01*
X141948799Y-71660886D01*
X141933758Y-71682644D01*
X141918387Y-71704227D01*
X141916381Y-71707778D01*
X141867977Y-71794897D01*
X141857444Y-71819173D01*
X141846561Y-71843323D01*
X141845284Y-71847196D01*
X141814724Y-71942058D01*
X141809111Y-71967897D01*
X141803123Y-71993718D01*
X141802622Y-71997765D01*
X141794096Y-72070821D01*
X141793327Y-72073356D01*
X141789100Y-72116272D01*
X141789100Y-73060819D01*
X141780685Y-72975373D01*
X141754541Y-72889191D01*
X141712087Y-72809764D01*
X141654953Y-72740147D01*
X141585336Y-72683013D01*
X141505909Y-72640559D01*
X141419727Y-72614415D01*
X141330100Y-72605588D01*
X141320200Y-72607800D01*
X141205900Y-72722100D01*
X141205900Y-73989200D01*
X141673000Y-73989200D01*
X141787300Y-73874900D01*
X141789100Y-73215735D01*
X141789101Y-74864436D01*
X141787300Y-74205100D01*
X141673000Y-74090800D01*
X141205900Y-74090800D01*
X141205900Y-74110800D01*
X141104300Y-74110800D01*
X141104300Y-74090800D01*
X141084300Y-74090800D01*
X141084300Y-73989200D01*
X141104300Y-73989200D01*
X141104300Y-72722100D01*
X140990000Y-72607800D01*
X140980100Y-72605588D01*
X140935901Y-72609941D01*
X140967468Y-72533732D01*
X140985282Y-72444175D01*
X140985282Y-72352863D01*
X140967468Y-72263306D01*
X140932525Y-72178946D01*
X140881795Y-72103023D01*
X140817228Y-72038456D01*
X140741305Y-71987726D01*
X140656945Y-71952783D01*
X140567388Y-71934969D01*
X140476076Y-71934969D01*
X140386519Y-71952783D01*
X140302159Y-71987726D01*
X140226236Y-72038456D01*
X140218644Y-72046048D01*
X140144402Y-71996442D01*
X140060042Y-71961499D01*
X139970485Y-71943685D01*
X139879173Y-71943685D01*
X139791469Y-71961130D01*
X139791469Y-70609014D01*
X141312900Y-70609014D01*
X141312900Y-70716586D01*
X141333887Y-70822091D01*
X141375053Y-70921475D01*
X141434817Y-71010918D01*
X141510882Y-71086983D01*
X141600325Y-71146747D01*
X141699709Y-71187913D01*
X141805214Y-71208900D01*
X141912786Y-71208900D01*
X142018291Y-71187913D01*
X142117675Y-71146747D01*
X142207118Y-71086983D01*
X142283183Y-71010918D01*
X142342947Y-70921475D01*
X142384113Y-70822091D01*
X142405100Y-70716586D01*
X142405100Y-70609014D01*
X142384113Y-70503509D01*
X142342947Y-70404125D01*
X142283183Y-70314682D01*
X142207118Y-70238617D01*
X142117675Y-70178853D01*
X142018291Y-70137687D01*
X141912786Y-70116700D01*
X141805214Y-70116700D01*
X141699709Y-70137687D01*
X141600325Y-70178853D01*
X141510882Y-70238617D01*
X141434817Y-70314682D01*
X141375053Y-70404125D01*
X141333887Y-70503509D01*
X141312900Y-70609014D01*
X139791469Y-70609014D01*
X139791469Y-69426685D01*
X139787242Y-69383769D01*
X139770540Y-69328708D01*
X139743416Y-69277964D01*
X139706914Y-69233486D01*
X139667120Y-69200828D01*
X138264900Y-67798609D01*
X138264900Y-66840096D01*
X141344268Y-66840096D01*
X141346537Y-66843492D01*
X141411104Y-66908059D01*
X141487027Y-66958789D01*
X141571387Y-66993732D01*
X141660944Y-67011546D01*
X141752256Y-67011546D01*
X141841813Y-66993732D01*
X141926173Y-66958789D01*
X142002096Y-66908059D01*
X142066663Y-66843492D01*
X142117393Y-66767569D01*
X142152336Y-66683209D01*
X142170150Y-66593652D01*
X142170150Y-66502340D01*
X142152336Y-66412783D01*
X142117393Y-66328423D01*
X142066663Y-66252500D01*
X142002096Y-66187933D01*
X141926173Y-66137203D01*
X141841813Y-66102260D01*
X141752256Y-66084446D01*
X141660944Y-66084446D01*
X141571387Y-66102260D01*
X141487027Y-66137203D01*
X141411104Y-66187933D01*
X141346537Y-66252500D01*
X141344268Y-66255896D01*
X138264900Y-66255896D01*
X138264900Y-65211354D01*
X138316084Y-65245554D01*
X138355798Y-65266782D01*
X138446354Y-65304291D01*
X138489445Y-65317362D01*
X138585578Y-65336484D01*
X138630391Y-65340898D01*
X138654953Y-65340898D01*
X138679400Y-65343306D01*
X139229400Y-65343306D01*
X139274213Y-65338892D01*
X139317305Y-65325821D01*
X139354400Y-65305993D01*
X139391495Y-65325821D01*
X139434587Y-65338892D01*
X139479400Y-65343306D01*
X140479400Y-65343306D01*
X140524213Y-65338892D01*
X140567305Y-65325821D01*
X140604400Y-65305993D01*
X140641495Y-65325821D01*
X140684587Y-65338892D01*
X140729400Y-65343306D01*
X141279400Y-65343306D01*
X141303847Y-65340898D01*
X141328409Y-65340898D01*
X141373222Y-65336484D01*
X141469355Y-65317362D01*
X141512446Y-65304291D01*
X141603002Y-65266782D01*
X141642716Y-65245554D01*
X141724215Y-65191098D01*
X141759024Y-65162532D01*
X141828332Y-65093224D01*
X141856898Y-65058415D01*
X141911354Y-64976916D01*
X141932582Y-64937202D01*
X141970091Y-64846646D01*
X141983162Y-64803555D01*
X142002284Y-64707422D01*
X142006698Y-64662609D01*
X142006698Y-64638047D01*
X142009106Y-64613600D01*
X142009106Y-64508865D01*
X142071504Y-64571263D01*
X142147427Y-64621993D01*
X142231787Y-64656936D01*
X142321344Y-64674750D01*
X142412656Y-64674750D01*
X142502213Y-64656936D01*
X142586573Y-64621993D01*
X142662496Y-64571263D01*
X142727063Y-64506696D01*
X142777793Y-64430773D01*
X142812736Y-64346413D01*
X142830550Y-64256856D01*
X142830550Y-64165544D01*
X142812736Y-64075987D01*
X142777793Y-63991627D01*
X142727063Y-63915704D01*
X142662496Y-63851137D01*
X142586573Y-63800407D01*
X142502213Y-63765464D01*
X142412656Y-63747650D01*
X142321344Y-63747650D01*
X142231787Y-63765464D01*
X142147427Y-63800407D01*
X142071504Y-63851137D01*
X142006937Y-63915704D01*
X142004668Y-63919100D01*
X141981783Y-63919100D01*
X141970091Y-63880554D01*
X141932582Y-63789998D01*
X141911354Y-63750284D01*
X141856898Y-63668785D01*
X141828332Y-63633976D01*
X141759024Y-63564668D01*
X141724215Y-63536102D01*
X141642716Y-63481646D01*
X141603002Y-63460418D01*
X141512446Y-63422909D01*
X141469355Y-63409838D01*
X141373222Y-63390716D01*
X141328409Y-63386302D01*
X141303847Y-63386302D01*
X141279400Y-63383894D01*
X140729400Y-63383894D01*
X140684587Y-63388308D01*
X140641495Y-63401379D01*
X140604400Y-63421207D01*
X140567305Y-63401379D01*
X140524213Y-63388308D01*
X140479400Y-63383894D01*
X139479400Y-63383894D01*
X139434587Y-63388308D01*
X139391495Y-63401379D01*
X139354400Y-63421207D01*
X139317305Y-63401379D01*
X139274213Y-63388308D01*
X139229400Y-63383894D01*
X138971500Y-63383894D01*
X138971500Y-62406391D01*
X139160592Y-62217300D01*
X139312268Y-62217300D01*
X139314537Y-62220696D01*
X139379104Y-62285263D01*
X139455027Y-62335993D01*
X139539387Y-62370936D01*
X139628944Y-62388750D01*
X139720256Y-62388750D01*
X139809813Y-62370936D01*
X139894173Y-62335993D01*
X139970096Y-62285263D01*
X140034663Y-62220696D01*
X140085393Y-62144773D01*
X140120336Y-62060413D01*
X140138150Y-61970856D01*
X140138150Y-61879544D01*
X140120336Y-61789987D01*
X140085393Y-61705627D01*
X140034663Y-61629704D01*
X139970096Y-61565137D01*
X139894173Y-61514407D01*
X139809813Y-61479464D01*
X139720256Y-61461650D01*
X139628944Y-61461650D01*
X139539387Y-61479464D01*
X139455027Y-61514407D01*
X139379104Y-61565137D01*
X139314537Y-61629704D01*
X139312268Y-61633100D01*
X139053946Y-61633100D01*
X139039600Y-61631687D01*
X138982338Y-61637327D01*
X138927277Y-61654029D01*
X138876533Y-61681153D01*
X138849798Y-61703094D01*
X138832055Y-61717655D01*
X138822911Y-61728797D01*
X138482998Y-62068711D01*
X138471856Y-62077855D01*
X138462712Y-62088997D01*
X138462710Y-62088999D01*
X138435353Y-62122334D01*
X138408229Y-62173078D01*
X138391527Y-62228139D01*
X138385888Y-62285400D01*
X138387301Y-62299748D01*
X138387301Y-62527379D01*
X138383593Y-62518427D01*
X138332863Y-62442504D01*
X138268296Y-62377937D01*
X138263243Y-62374561D01*
X138260673Y-62348469D01*
X138243971Y-62293408D01*
X138216847Y-62242664D01*
X138189490Y-62209329D01*
X138189489Y-62209328D01*
X138180345Y-62198186D01*
X138169204Y-62189043D01*
X136807262Y-60827102D01*
X136798114Y-60815955D01*
X136753636Y-60779453D01*
X136702892Y-60752329D01*
X136647831Y-60735627D01*
X136604915Y-60731400D01*
X136604907Y-60731400D01*
X136590569Y-60729988D01*
X136576231Y-60731400D01*
X134207592Y-60731400D01*
X133667500Y-60191309D01*
X133667500Y-59441144D01*
X139109450Y-59441144D01*
X139109450Y-59532456D01*
X139127264Y-59622013D01*
X139162207Y-59706373D01*
X139212937Y-59782296D01*
X139277504Y-59846863D01*
X139353427Y-59897593D01*
X139437787Y-59932536D01*
X139527344Y-59950350D01*
X139618656Y-59950350D01*
X139708213Y-59932536D01*
X139792573Y-59897593D01*
X139868496Y-59846863D01*
X139933063Y-59782296D01*
X139983793Y-59706373D01*
X140018736Y-59622013D01*
X140036550Y-59532456D01*
X140036550Y-59441144D01*
X140018736Y-59351587D01*
X139983793Y-59267227D01*
X139933063Y-59191304D01*
X139868496Y-59126737D01*
X139792573Y-59076007D01*
X139708213Y-59041064D01*
X139618656Y-59023250D01*
X139527344Y-59023250D01*
X139437787Y-59041064D01*
X139353427Y-59076007D01*
X139277504Y-59126737D01*
X139212937Y-59191304D01*
X139162207Y-59267227D01*
X139127264Y-59351587D01*
X139109450Y-59441144D01*
X133667500Y-59441144D01*
X133667500Y-59201389D01*
X133732136Y-59136753D01*
X133736142Y-59137550D01*
X133827454Y-59137550D01*
X133917011Y-59119736D01*
X134001371Y-59084793D01*
X134077294Y-59034063D01*
X134141861Y-58969496D01*
X134192591Y-58893573D01*
X134227534Y-58809213D01*
X134245348Y-58719656D01*
X134245348Y-58628344D01*
X134227534Y-58538787D01*
X134192591Y-58454427D01*
X134141861Y-58378504D01*
X134077294Y-58313937D01*
X134001371Y-58263207D01*
X133917011Y-58228264D01*
X133827454Y-58210450D01*
X133736142Y-58210450D01*
X133646585Y-58228264D01*
X133562225Y-58263207D01*
X133486302Y-58313937D01*
X133421735Y-58378504D01*
X133394983Y-58418541D01*
X133350658Y-58352203D01*
X133286091Y-58287636D01*
X133210168Y-58236906D01*
X133125808Y-58201963D01*
X133036251Y-58184149D01*
X132944939Y-58184149D01*
X132855382Y-58201963D01*
X132771022Y-58236906D01*
X132695099Y-58287636D01*
X132650725Y-58332010D01*
X132604096Y-58285381D01*
X132528173Y-58234651D01*
X132443813Y-58199708D01*
X132354256Y-58181894D01*
X132262944Y-58181894D01*
X132173387Y-58199708D01*
X132089027Y-58234651D01*
X132013104Y-58285381D01*
X131948537Y-58349948D01*
X131938135Y-58365516D01*
X131886556Y-58313937D01*
X131810633Y-58263207D01*
X131726273Y-58228264D01*
X131636716Y-58210450D01*
X131545404Y-58210450D01*
X131455847Y-58228264D01*
X131371487Y-58263207D01*
X131295564Y-58313937D01*
X131230997Y-58378504D01*
X131180267Y-58454427D01*
X131145324Y-58538787D01*
X131127510Y-58628344D01*
X131127510Y-58719656D01*
X131145324Y-58809213D01*
X131180267Y-58893573D01*
X131230997Y-58969496D01*
X131295564Y-59034063D01*
X131298960Y-59036332D01*
X131298960Y-59063485D01*
X131139424Y-58903949D01*
X131139652Y-58901632D01*
X131138240Y-58887294D01*
X131138240Y-58887287D01*
X131134013Y-58844371D01*
X131117311Y-58789310D01*
X131090187Y-58738566D01*
X131085648Y-58733035D01*
X131073555Y-58718300D01*
X131074741Y-58712340D01*
X131074741Y-58621028D01*
X131056927Y-58531471D01*
X131021984Y-58447111D01*
X130971254Y-58371188D01*
X130906687Y-58306621D01*
X130830764Y-58255891D01*
X130746404Y-58220948D01*
X130656847Y-58203134D01*
X130565535Y-58203134D01*
X130475978Y-58220948D01*
X130391618Y-58255891D01*
X130315695Y-58306621D01*
X130251128Y-58371188D01*
X130200398Y-58447111D01*
X130165455Y-58531471D01*
X130147641Y-58621028D01*
X130147641Y-58712340D01*
X130165455Y-58801897D01*
X130200398Y-58886257D01*
X130251128Y-58962180D01*
X130315695Y-59026747D01*
X130391618Y-59077477D01*
X130475978Y-59112420D01*
X130565535Y-59130234D01*
X130573196Y-59130234D01*
X130574969Y-59136079D01*
X130580792Y-59146972D01*
X130602093Y-59186822D01*
X130627261Y-59217489D01*
X130638596Y-59231301D01*
X130649738Y-59240445D01*
X130807480Y-59398187D01*
X130740237Y-59398187D01*
X130737968Y-59394791D01*
X130673401Y-59330224D01*
X130597478Y-59279494D01*
X130513118Y-59244551D01*
X130423561Y-59226737D01*
X130332249Y-59226737D01*
X130242692Y-59244551D01*
X130158332Y-59279494D01*
X130082409Y-59330224D01*
X130017842Y-59394791D01*
X129967112Y-59470714D01*
X129932169Y-59555074D01*
X129914355Y-59644631D01*
X129914355Y-59735943D01*
X129932169Y-59825500D01*
X129967112Y-59909860D01*
X130017842Y-59985783D01*
X130082409Y-60050350D01*
X130158332Y-60101080D01*
X130242692Y-60136023D01*
X130332249Y-60153837D01*
X130333949Y-60153837D01*
X130333949Y-60196847D01*
X130334746Y-60200853D01*
X130334231Y-60201368D01*
X130323089Y-60210512D01*
X130313945Y-60221654D01*
X130313943Y-60221656D01*
X130286586Y-60254991D01*
X130259462Y-60305735D01*
X130242760Y-60360796D01*
X130241542Y-60373162D01*
X130232506Y-60364126D01*
X130156583Y-60313396D01*
X130072223Y-60278453D01*
X129982666Y-60260639D01*
X129891354Y-60260639D01*
X129803650Y-60278084D01*
X129803650Y-59040883D01*
X129805062Y-59026547D01*
X129803650Y-59012211D01*
X129803650Y-59012202D01*
X129799423Y-58969286D01*
X129782721Y-58914225D01*
X129755597Y-58863481D01*
X129719095Y-58819003D01*
X129707949Y-58809856D01*
X129621755Y-58723662D01*
X129622552Y-58719656D01*
X129622552Y-58628344D01*
X129604738Y-58538787D01*
X129569795Y-58454427D01*
X129519065Y-58378504D01*
X129454498Y-58313937D01*
X129378575Y-58263207D01*
X129294215Y-58228264D01*
X129204658Y-58210450D01*
X129113346Y-58210450D01*
X129023789Y-58228264D01*
X128939429Y-58263207D01*
X128863506Y-58313937D01*
X128798939Y-58378504D01*
X128748209Y-58454427D01*
X128713266Y-58538787D01*
X128695452Y-58628344D01*
X128695452Y-58719656D01*
X128713266Y-58809213D01*
X128748209Y-58893573D01*
X128798939Y-58969496D01*
X128863506Y-59034063D01*
X128939429Y-59084793D01*
X129023789Y-59119736D01*
X129113346Y-59137550D01*
X129204658Y-59137550D01*
X129208664Y-59136753D01*
X129219450Y-59147539D01*
X129219451Y-60525100D01*
X129131755Y-60507656D01*
X129040443Y-60507656D01*
X128950886Y-60525470D01*
X128866526Y-60560413D01*
X128790603Y-60611143D01*
X128726036Y-60675710D01*
X128675306Y-60751633D01*
X128640363Y-60835993D01*
X128622549Y-60925550D01*
X128622549Y-61016862D01*
X128640363Y-61106419D01*
X128675306Y-61190779D01*
X128726036Y-61266702D01*
X128790603Y-61331269D01*
X128866526Y-61381999D01*
X128922470Y-61405172D01*
X128888627Y-61419190D01*
X128812704Y-61469920D01*
X128748137Y-61534487D01*
X128697407Y-61610410D01*
X128662464Y-61694770D01*
X128648206Y-61766450D01*
X128605344Y-61766450D01*
X128515787Y-61784264D01*
X128514360Y-61784855D01*
X128514360Y-59078467D01*
X128517079Y-59069503D01*
X128519649Y-59043411D01*
X128524702Y-59040035D01*
X128589269Y-58975468D01*
X128639999Y-58899545D01*
X128674942Y-58815185D01*
X128692756Y-58725628D01*
X128692756Y-58634316D01*
X128674942Y-58544759D01*
X128639999Y-58460399D01*
X128589269Y-58384476D01*
X128524702Y-58319909D01*
X128448779Y-58269179D01*
X128364419Y-58234236D01*
X128274862Y-58216422D01*
X128183550Y-58216422D01*
X128093993Y-58234236D01*
X128009633Y-58269179D01*
X127933710Y-58319909D01*
X127869143Y-58384476D01*
X127818413Y-58460399D01*
X127783470Y-58544759D01*
X127765656Y-58634316D01*
X127765656Y-58725628D01*
X127775245Y-58773838D01*
X127770213Y-58771753D01*
X127680656Y-58753939D01*
X127589344Y-58753939D01*
X127499787Y-58771753D01*
X127415427Y-58806696D01*
X127339504Y-58857426D01*
X127274937Y-58921993D01*
X127224207Y-58997916D01*
X127189264Y-59082276D01*
X127171450Y-59171833D01*
X127171450Y-59263145D01*
X127181520Y-59313773D01*
X126443338Y-60051956D01*
X126432191Y-60061104D01*
X126395689Y-60105583D01*
X126377945Y-60138778D01*
X125974579Y-59735413D01*
X125965431Y-59724266D01*
X125920953Y-59687764D01*
X125870209Y-59660640D01*
X125815148Y-59643938D01*
X125789056Y-59641368D01*
X125785680Y-59636315D01*
X125721113Y-59571748D01*
X125645190Y-59521018D01*
X125560830Y-59486075D01*
X125471273Y-59468261D01*
X125379961Y-59468261D01*
X125290404Y-59486075D01*
X125206044Y-59521018D01*
X125130121Y-59571748D01*
X125065554Y-59636315D01*
X125015050Y-59711900D01*
X123788706Y-59711900D01*
X123788706Y-59454000D01*
X123784292Y-59409187D01*
X123771221Y-59366095D01*
X123751393Y-59329000D01*
X123771221Y-59291905D01*
X123784292Y-59248813D01*
X123788706Y-59204000D01*
X123788706Y-59118625D01*
X123791387Y-59119736D01*
X123880944Y-59137550D01*
X123972256Y-59137550D01*
X124061813Y-59119736D01*
X124146173Y-59084793D01*
X124222096Y-59034063D01*
X124286663Y-58969496D01*
X124337393Y-58893573D01*
X124372336Y-58809213D01*
X124390150Y-58719656D01*
X124390150Y-58628344D01*
X124372336Y-58538787D01*
X124337393Y-58454427D01*
X124286663Y-58378504D01*
X124222096Y-58313937D01*
X124146173Y-58263207D01*
X124061813Y-58228264D01*
X123972256Y-58210450D01*
X123880944Y-58210450D01*
X123791387Y-58228264D01*
X123788706Y-58229375D01*
X123788706Y-58204000D01*
X123784292Y-58159187D01*
X123771221Y-58116095D01*
X123751393Y-58079000D01*
X123771221Y-58041905D01*
X123784292Y-57998813D01*
X123788706Y-57954000D01*
X123788706Y-57404000D01*
X123786298Y-57379553D01*
X123786298Y-57354991D01*
X123781884Y-57310178D01*
X123762762Y-57214045D01*
X123749691Y-57170954D01*
X123712182Y-57080398D01*
X123690954Y-57040684D01*
X123648678Y-56977414D01*
X123818992Y-56807100D01*
X127272668Y-56807100D01*
X127274937Y-56810496D01*
X127339504Y-56875063D01*
X127415427Y-56925793D01*
X127499787Y-56960736D01*
X127589344Y-56978550D01*
X127680656Y-56978550D01*
X127770213Y-56960736D01*
X127854573Y-56925793D01*
X127930496Y-56875063D01*
X127995063Y-56810496D01*
X128045793Y-56734573D01*
X128080736Y-56650213D01*
X128098550Y-56560656D01*
X128098550Y-56469344D01*
X128080736Y-56379787D01*
X128045793Y-56295427D01*
X127995063Y-56219504D01*
X127930496Y-56154937D01*
X127854573Y-56104207D01*
X127770213Y-56069264D01*
X127680656Y-56051450D01*
X127589344Y-56051450D01*
X127499787Y-56069264D01*
X127415427Y-56104207D01*
X127339504Y-56154937D01*
X127274937Y-56219504D01*
X127272668Y-56222900D01*
X123712346Y-56222900D01*
X123698000Y-56221487D01*
X123683654Y-56222900D01*
X123640738Y-56227127D01*
X123585677Y-56243829D01*
X123534933Y-56270953D01*
X123490455Y-56307455D01*
X123481311Y-56318597D01*
X123121844Y-56678065D01*
X123108009Y-56676702D01*
X123083447Y-56676702D01*
X123059000Y-56674294D01*
X122559000Y-56674294D01*
X122534553Y-56676702D01*
X122509991Y-56676702D01*
X122465178Y-56681116D01*
X122369045Y-56700238D01*
X122325954Y-56713309D01*
X122235398Y-56750818D01*
X122195684Y-56772046D01*
X122114185Y-56826502D01*
X122079376Y-56855068D01*
X122010068Y-56924376D01*
X121981502Y-56959185D01*
X121927046Y-57040684D01*
X121905818Y-57080398D01*
X121868309Y-57170954D01*
X121855238Y-57214045D01*
X121836116Y-57310178D01*
X121831702Y-57354991D01*
X121831702Y-57379553D01*
X121829294Y-57404000D01*
X121829294Y-57954000D01*
X121833708Y-57998813D01*
X121846779Y-58041905D01*
X121866607Y-58079000D01*
X121846779Y-58116095D01*
X121833708Y-58159187D01*
X121829294Y-58204000D01*
X121829294Y-59204000D01*
X121833708Y-59248813D01*
X121846779Y-59291905D01*
X121866607Y-59329000D01*
X121846779Y-59366095D01*
X121833708Y-59409187D01*
X121829294Y-59454000D01*
X121829294Y-60004000D01*
X121831702Y-60028447D01*
X121831702Y-60053009D01*
X121836116Y-60097822D01*
X121855238Y-60193955D01*
X121868309Y-60237046D01*
X121905818Y-60327602D01*
X121927046Y-60367316D01*
X121981502Y-60448815D01*
X122010068Y-60483624D01*
X122079376Y-60552932D01*
X122114185Y-60581498D01*
X122195684Y-60635954D01*
X122235398Y-60657182D01*
X122325954Y-60694691D01*
X122369045Y-60707762D01*
X122465178Y-60726884D01*
X122509991Y-60731298D01*
X122534553Y-60731298D01*
X122559000Y-60733706D01*
X123059000Y-60733706D01*
X123083447Y-60731298D01*
X123108009Y-60731298D01*
X123152822Y-60726884D01*
X123248955Y-60707762D01*
X123292046Y-60694691D01*
X123382602Y-60657182D01*
X123422316Y-60635954D01*
X123503815Y-60581498D01*
X123538624Y-60552932D01*
X123607932Y-60483624D01*
X123636498Y-60448815D01*
X123690954Y-60367316D01*
X123712182Y-60327602D01*
X123725230Y-60296100D01*
X125048177Y-60296100D01*
X125039807Y-60308627D01*
X125004864Y-60392987D01*
X124987050Y-60482544D01*
X124987050Y-60573856D01*
X125004864Y-60663413D01*
X125039807Y-60747773D01*
X125090537Y-60823696D01*
X125093491Y-60826650D01*
X125090526Y-60829615D01*
X125039796Y-60905538D01*
X125004853Y-60989898D01*
X124987039Y-61079455D01*
X124987039Y-61170767D01*
X125004853Y-61260324D01*
X125039796Y-61344684D01*
X125090526Y-61420607D01*
X125155093Y-61485174D01*
X125231016Y-61535904D01*
X125266420Y-61550569D01*
X125231027Y-61565229D01*
X125155104Y-61615959D01*
X125090537Y-61680526D01*
X125039807Y-61756449D01*
X125004864Y-61840809D01*
X124987050Y-61930366D01*
X124987050Y-62021678D01*
X125004864Y-62111235D01*
X125039807Y-62195595D01*
X125090537Y-62271518D01*
X125155104Y-62336085D01*
X125158500Y-62338354D01*
X125158501Y-65465811D01*
X125157088Y-65480159D01*
X125161155Y-65521459D01*
X125084992Y-65553007D01*
X125009069Y-65603737D01*
X124944502Y-65668304D01*
X124942233Y-65671700D01*
X123585335Y-65671700D01*
X123570999Y-65670288D01*
X123556663Y-65671700D01*
X123556654Y-65671700D01*
X123513738Y-65675927D01*
X123458677Y-65692629D01*
X123415497Y-65715710D01*
X123407933Y-65719753D01*
X123385636Y-65738052D01*
X123363455Y-65756255D01*
X123354311Y-65767397D01*
X122968198Y-66153511D01*
X122957056Y-66162655D01*
X122949038Y-66172426D01*
X122939453Y-66160747D01*
X122869836Y-66103613D01*
X122790409Y-66061159D01*
X122704227Y-66035015D01*
X122614600Y-66026188D01*
X122379700Y-66028400D01*
X122265400Y-66142700D01*
X122265400Y-66884800D01*
X122285400Y-66884800D01*
X122285400Y-66986400D01*
X122265400Y-66986400D01*
X122265400Y-67728500D01*
X122347178Y-67810278D01*
X122344088Y-67841656D01*
X122345501Y-67856004D01*
X122345500Y-68344261D01*
X122344088Y-68358600D01*
X122345500Y-68372938D01*
X122345500Y-68372945D01*
X122349727Y-68415861D01*
X122366429Y-68470922D01*
X122393553Y-68521666D01*
X122430055Y-68566145D01*
X122441202Y-68575293D01*
X122534894Y-68668985D01*
X122534894Y-69385600D01*
X122539308Y-69430413D01*
X122552379Y-69473505D01*
X122573606Y-69513218D01*
X122602173Y-69548027D01*
X122636982Y-69576594D01*
X122676695Y-69597821D01*
X122696385Y-69603794D01*
X122676665Y-69633307D01*
X122635499Y-69732691D01*
X122614512Y-69838196D01*
X122614512Y-69945768D01*
X122635499Y-70051273D01*
X122676665Y-70150657D01*
X122736429Y-70240100D01*
X122812494Y-70316165D01*
X122901937Y-70375929D01*
X123001321Y-70417095D01*
X123106826Y-70438082D01*
X123214398Y-70438082D01*
X123319903Y-70417095D01*
X123419287Y-70375929D01*
X123508730Y-70316165D01*
X123584795Y-70240100D01*
X123644559Y-70150657D01*
X123685300Y-70052298D01*
X123685300Y-72494708D01*
X123527767Y-72652242D01*
X123505909Y-72640559D01*
X123419727Y-72614415D01*
X123330100Y-72605588D01*
X123320200Y-72607800D01*
X123205900Y-72722100D01*
X123205900Y-73989200D01*
X123225900Y-73989200D01*
X123225900Y-74090800D01*
X123205900Y-74090800D01*
X123205900Y-74110800D01*
X123104300Y-74110800D01*
X123104300Y-74090800D01*
X123084300Y-74090800D01*
X123084300Y-73989200D01*
X123104300Y-73989200D01*
X123104300Y-72722100D01*
X122990000Y-72607800D01*
X122980100Y-72605588D01*
X122890473Y-72614415D01*
X122804291Y-72640559D01*
X122724864Y-72683013D01*
X122655247Y-72740147D01*
X122598113Y-72809764D01*
X122555659Y-72889191D01*
X122529515Y-72975373D01*
X122523300Y-73038478D01*
X122523300Y-72116271D01*
X122522219Y-72105295D01*
X122518779Y-72059878D01*
X122515478Y-72041024D01*
X122513397Y-72021998D01*
X122512532Y-72018013D01*
X122490483Y-71919704D01*
X122482200Y-71894571D01*
X122474261Y-71869302D01*
X122472641Y-71865566D01*
X122472639Y-71865561D01*
X122472636Y-71865556D01*
X122431913Y-71773405D01*
X122418905Y-71750359D01*
X122406211Y-71727115D01*
X122403895Y-71723764D01*
X122403892Y-71723759D01*
X122403888Y-71723755D01*
X122346045Y-71641271D01*
X122328806Y-71621188D01*
X122311840Y-71600854D01*
X122308914Y-71598013D01*
X122236144Y-71528331D01*
X122215369Y-71512007D01*
X122194741Y-71495327D01*
X122191319Y-71493109D01*
X122106401Y-71438888D01*
X122082827Y-71426898D01*
X122059378Y-71414556D01*
X122055590Y-71413044D01*
X121961758Y-71376349D01*
X121936309Y-71369168D01*
X121910900Y-71361613D01*
X121906891Y-71360866D01*
X121807719Y-71343096D01*
X121802232Y-71342658D01*
X121796888Y-71341365D01*
X121792846Y-71340825D01*
X121701684Y-71329296D01*
X121641678Y-71309326D01*
X121586684Y-71278075D01*
X121538814Y-71236745D01*
X121499883Y-71186899D01*
X121471373Y-71130442D01*
X121464806Y-71106907D01*
X121521082Y-71163183D01*
X121610525Y-71222947D01*
X121709909Y-71264113D01*
X121815414Y-71285100D01*
X121922986Y-71285100D01*
X122028491Y-71264113D01*
X122127875Y-71222947D01*
X122217318Y-71163183D01*
X122293383Y-71087118D01*
X122353147Y-70997675D01*
X122394313Y-70898291D01*
X122415300Y-70792786D01*
X122415300Y-70685214D01*
X122394313Y-70579709D01*
X122353147Y-70480325D01*
X122293383Y-70390882D01*
X122217318Y-70314817D01*
X122127875Y-70255053D01*
X122028491Y-70213887D01*
X121922986Y-70192900D01*
X121815414Y-70192900D01*
X121709909Y-70213887D01*
X121610525Y-70255053D01*
X121521082Y-70314817D01*
X121448300Y-70387599D01*
X121448300Y-67659950D01*
X121489747Y-67710453D01*
X121559364Y-67767587D01*
X121638791Y-67810041D01*
X121724973Y-67836185D01*
X121814600Y-67845012D01*
X122049500Y-67842800D01*
X122163800Y-67728500D01*
X122163800Y-66986400D01*
X122143800Y-66986400D01*
X122143800Y-66884800D01*
X122163800Y-66884800D01*
X122163800Y-66142700D01*
X122049500Y-66028400D01*
X121814600Y-66026188D01*
X121724973Y-66035015D01*
X121638791Y-66061159D01*
X121559364Y-66103613D01*
X121489747Y-66160747D01*
X121448300Y-66211250D01*
X121448300Y-55419814D01*
X128663700Y-55419814D01*
X128663700Y-55527386D01*
X128684687Y-55632891D01*
X128725853Y-55732275D01*
X128785617Y-55821718D01*
X128861682Y-55897783D01*
X128951125Y-55957547D01*
X129050509Y-55998713D01*
X129156014Y-56019700D01*
X129263586Y-56019700D01*
X129369091Y-55998713D01*
X129468475Y-55957547D01*
X129557918Y-55897783D01*
X129633983Y-55821718D01*
X129693747Y-55732275D01*
X129734913Y-55632891D01*
X129755900Y-55527386D01*
X129755900Y-55419814D01*
X129734913Y-55314309D01*
X129693747Y-55214925D01*
X129633983Y-55125482D01*
X129557918Y-55049417D01*
X129468475Y-54989653D01*
X129369091Y-54948487D01*
X129263586Y-54927500D01*
X129156014Y-54927500D01*
X129050509Y-54948487D01*
X128951125Y-54989653D01*
X128861682Y-55049417D01*
X128785617Y-55125482D01*
X128725853Y-55214925D01*
X128684687Y-55314309D01*
X128663700Y-55419814D01*
X121448300Y-55419814D01*
X121448300Y-54648472D01*
X121467012Y-54496014D01*
X121511613Y-54360336D01*
X121581719Y-54235903D01*
X121674660Y-54127457D01*
X121786898Y-54039125D01*
X121914146Y-53974281D01*
X122054533Y-53934548D01*
X122171009Y-53922717D01*
X133352935Y-53922717D01*
X133401837Y-54216127D01*
G37*
X133401837Y-54216127D02*
X133404710Y-54227697D01*
X133506310Y-54532497D01*
X133508561Y-54538417D01*
X133660961Y-54894017D01*
X133670040Y-54909720D01*
X133820080Y-55109773D01*
X133970459Y-55360405D01*
X133981918Y-55375082D01*
X134489918Y-55883082D01*
X134501532Y-55892602D01*
X134653932Y-55994202D01*
X134662122Y-55998955D01*
X134865322Y-56100555D01*
X134871100Y-56103150D01*
X135125100Y-56204750D01*
X135133350Y-56207515D01*
X135692150Y-56359915D01*
X135712200Y-56362600D01*
X136372600Y-56362600D01*
X136382051Y-56362012D01*
X136788451Y-56311212D01*
X136803097Y-56307890D01*
X137107897Y-56206290D01*
X137114748Y-56203632D01*
X137571948Y-56000432D01*
X137583268Y-55994202D01*
X138040468Y-55689402D01*
X138056055Y-55675590D01*
X138360855Y-55319990D01*
X138366402Y-55312668D01*
X138671202Y-54855468D01*
X138679148Y-54839956D01*
X138831548Y-54433556D01*
X138832490Y-54430897D01*
X138934090Y-54126097D01*
X138937412Y-54111451D01*
X138961004Y-53922717D01*
X142138345Y-53922717D01*
X142290802Y-53941429D01*
X142426486Y-53986032D01*
X142550915Y-54056138D01*
X142659361Y-54149078D01*
X142747692Y-54261315D01*
X142812537Y-54388564D01*
X142852270Y-54528951D01*
X142864100Y-54645417D01*
X142864101Y-71012205D01*
X142854878Y-71085132D01*
X142834907Y-71145142D01*
X142803659Y-71200131D01*
X142762325Y-71248003D01*
X142712482Y-71286934D01*
X142656025Y-71315444D01*
X142591625Y-71333415D01*
X142526681Y-71340012D01*
X142525000Y-71340351D01*
X142523288Y-71340377D01*
X142519239Y-71340865D01*
X142461369Y-71348247D01*
X142441327Y-71352826D01*
X142421040Y-71356309D01*
X142417115Y-71357416D01*
X142321382Y-71385126D01*
X142296811Y-71394926D01*
X142272064Y-71404397D01*
X142268429Y-71406245D01*
X142179902Y-71452022D01*
X142157697Y-71466411D01*
X142135267Y-71480505D01*
X142132060Y-71483024D01*
X142054110Y-71545125D01*
X142035128Y-71563548D01*
X142015858Y-71581734D01*
X142013207Y-71584823D01*
X142013201Y-71584829D01*
X142013197Y-71584835D01*
X141948799Y-71660886D01*
X141933758Y-71682644D01*
X141918387Y-71704227D01*
X141916381Y-71707778D01*
X141867977Y-71794897D01*
X141857444Y-71819173D01*
X141846561Y-71843323D01*
X141845284Y-71847196D01*
X141814724Y-71942058D01*
X141809111Y-71967897D01*
X141803123Y-71993718D01*
X141802622Y-71997765D01*
X141794096Y-72070821D01*
X141793327Y-72073356D01*
X141789100Y-72116272D01*
X141789100Y-73060819D01*
X141780685Y-72975373D01*
X141754541Y-72889191D01*
X141712087Y-72809764D01*
X141654953Y-72740147D01*
X141585336Y-72683013D01*
X141505909Y-72640559D01*
X141419727Y-72614415D01*
X141330100Y-72605588D01*
X141320200Y-72607800D01*
X141205900Y-72722100D01*
X141205900Y-73989200D01*
X141673000Y-73989200D01*
X141787300Y-73874900D01*
X141789100Y-73215735D01*
X141789101Y-74864436D01*
X141787300Y-74205100D01*
X141673000Y-74090800D01*
X141205900Y-74090800D01*
X141205900Y-74110800D01*
X141104300Y-74110800D01*
X141104300Y-74090800D01*
X141084300Y-74090800D01*
X141084300Y-73989200D01*
X141104300Y-73989200D01*
X141104300Y-72722100D01*
X140990000Y-72607800D01*
X140980100Y-72605588D01*
X140935901Y-72609941D01*
X140967468Y-72533732D01*
X140985282Y-72444175D01*
X140985282Y-72352863D01*
X140967468Y-72263306D01*
X140932525Y-72178946D01*
X140881795Y-72103023D01*
X140817228Y-72038456D01*
X140741305Y-71987726D01*
X140656945Y-71952783D01*
X140567388Y-71934969D01*
X140476076Y-71934969D01*
X140386519Y-71952783D01*
X140302159Y-71987726D01*
X140226236Y-72038456D01*
X140218644Y-72046048D01*
X140144402Y-71996442D01*
X140060042Y-71961499D01*
X139970485Y-71943685D01*
X139879173Y-71943685D01*
X139791469Y-71961130D01*
X139791469Y-70609014D01*
X141312900Y-70609014D01*
X141312900Y-70716586D01*
X141333887Y-70822091D01*
X141375053Y-70921475D01*
X141434817Y-71010918D01*
X141510882Y-71086983D01*
X141600325Y-71146747D01*
X141699709Y-71187913D01*
X141805214Y-71208900D01*
X141912786Y-71208900D01*
X142018291Y-71187913D01*
X142117675Y-71146747D01*
X142207118Y-71086983D01*
X142283183Y-71010918D01*
X142342947Y-70921475D01*
X142384113Y-70822091D01*
X142405100Y-70716586D01*
X142405100Y-70609014D01*
X142384113Y-70503509D01*
X142342947Y-70404125D01*
X142283183Y-70314682D01*
X142207118Y-70238617D01*
X142117675Y-70178853D01*
X142018291Y-70137687D01*
X141912786Y-70116700D01*
X141805214Y-70116700D01*
X141699709Y-70137687D01*
X141600325Y-70178853D01*
X141510882Y-70238617D01*
X141434817Y-70314682D01*
X141375053Y-70404125D01*
X141333887Y-70503509D01*
X141312900Y-70609014D01*
X139791469Y-70609014D01*
X139791469Y-69426685D01*
X139787242Y-69383769D01*
X139770540Y-69328708D01*
X139743416Y-69277964D01*
X139706914Y-69233486D01*
X139667120Y-69200828D01*
X138264900Y-67798609D01*
X138264900Y-66840096D01*
X141344268Y-66840096D01*
X141346537Y-66843492D01*
X141411104Y-66908059D01*
X141487027Y-66958789D01*
X141571387Y-66993732D01*
X141660944Y-67011546D01*
X141752256Y-67011546D01*
X141841813Y-66993732D01*
X141926173Y-66958789D01*
X142002096Y-66908059D01*
X142066663Y-66843492D01*
X142117393Y-66767569D01*
X142152336Y-66683209D01*
X142170150Y-66593652D01*
X142170150Y-66502340D01*
X142152336Y-66412783D01*
X142117393Y-66328423D01*
X142066663Y-66252500D01*
X142002096Y-66187933D01*
X141926173Y-66137203D01*
X141841813Y-66102260D01*
X141752256Y-66084446D01*
X141660944Y-66084446D01*
X141571387Y-66102260D01*
X141487027Y-66137203D01*
X141411104Y-66187933D01*
X141346537Y-66252500D01*
X141344268Y-66255896D01*
X138264900Y-66255896D01*
X138264900Y-65211354D01*
X138316084Y-65245554D01*
X138355798Y-65266782D01*
X138446354Y-65304291D01*
X138489445Y-65317362D01*
X138585578Y-65336484D01*
X138630391Y-65340898D01*
X138654953Y-65340898D01*
X138679400Y-65343306D01*
X139229400Y-65343306D01*
X139274213Y-65338892D01*
X139317305Y-65325821D01*
X139354400Y-65305993D01*
X139391495Y-65325821D01*
X139434587Y-65338892D01*
X139479400Y-65343306D01*
X140479400Y-65343306D01*
X140524213Y-65338892D01*
X140567305Y-65325821D01*
X140604400Y-65305993D01*
X140641495Y-65325821D01*
X140684587Y-65338892D01*
X140729400Y-65343306D01*
X141279400Y-65343306D01*
X141303847Y-65340898D01*
X141328409Y-65340898D01*
X141373222Y-65336484D01*
X141469355Y-65317362D01*
X141512446Y-65304291D01*
X141603002Y-65266782D01*
X141642716Y-65245554D01*
X141724215Y-65191098D01*
X141759024Y-65162532D01*
X141828332Y-65093224D01*
X141856898Y-65058415D01*
X141911354Y-64976916D01*
X141932582Y-64937202D01*
X141970091Y-64846646D01*
X141983162Y-64803555D01*
X142002284Y-64707422D01*
X142006698Y-64662609D01*
X142006698Y-64638047D01*
X142009106Y-64613600D01*
X142009106Y-64508865D01*
X142071504Y-64571263D01*
X142147427Y-64621993D01*
X142231787Y-64656936D01*
X142321344Y-64674750D01*
X142412656Y-64674750D01*
X142502213Y-64656936D01*
X142586573Y-64621993D01*
X142662496Y-64571263D01*
X142727063Y-64506696D01*
X142777793Y-64430773D01*
X142812736Y-64346413D01*
X142830550Y-64256856D01*
X142830550Y-64165544D01*
X142812736Y-64075987D01*
X142777793Y-63991627D01*
X142727063Y-63915704D01*
X142662496Y-63851137D01*
X142586573Y-63800407D01*
X142502213Y-63765464D01*
X142412656Y-63747650D01*
X142321344Y-63747650D01*
X142231787Y-63765464D01*
X142147427Y-63800407D01*
X142071504Y-63851137D01*
X142006937Y-63915704D01*
X142004668Y-63919100D01*
X141981783Y-63919100D01*
X141970091Y-63880554D01*
X141932582Y-63789998D01*
X141911354Y-63750284D01*
X141856898Y-63668785D01*
X141828332Y-63633976D01*
X141759024Y-63564668D01*
X141724215Y-63536102D01*
X141642716Y-63481646D01*
X141603002Y-63460418D01*
X141512446Y-63422909D01*
X141469355Y-63409838D01*
X141373222Y-63390716D01*
X141328409Y-63386302D01*
X141303847Y-63386302D01*
X141279400Y-63383894D01*
X140729400Y-63383894D01*
X140684587Y-63388308D01*
X140641495Y-63401379D01*
X140604400Y-63421207D01*
X140567305Y-63401379D01*
X140524213Y-63388308D01*
X140479400Y-63383894D01*
X139479400Y-63383894D01*
X139434587Y-63388308D01*
X139391495Y-63401379D01*
X139354400Y-63421207D01*
X139317305Y-63401379D01*
X139274213Y-63388308D01*
X139229400Y-63383894D01*
X138971500Y-63383894D01*
X138971500Y-62406391D01*
X139160592Y-62217300D01*
X139312268Y-62217300D01*
X139314537Y-62220696D01*
X139379104Y-62285263D01*
X139455027Y-62335993D01*
X139539387Y-62370936D01*
X139628944Y-62388750D01*
X139720256Y-62388750D01*
X139809813Y-62370936D01*
X139894173Y-62335993D01*
X139970096Y-62285263D01*
X140034663Y-62220696D01*
X140085393Y-62144773D01*
X140120336Y-62060413D01*
X140138150Y-61970856D01*
X140138150Y-61879544D01*
X140120336Y-61789987D01*
X140085393Y-61705627D01*
X140034663Y-61629704D01*
X139970096Y-61565137D01*
X139894173Y-61514407D01*
X139809813Y-61479464D01*
X139720256Y-61461650D01*
X139628944Y-61461650D01*
X139539387Y-61479464D01*
X139455027Y-61514407D01*
X139379104Y-61565137D01*
X139314537Y-61629704D01*
X139312268Y-61633100D01*
X139053946Y-61633100D01*
X139039600Y-61631687D01*
X138982338Y-61637327D01*
X138927277Y-61654029D01*
X138876533Y-61681153D01*
X138849798Y-61703094D01*
X138832055Y-61717655D01*
X138822911Y-61728797D01*
X138482998Y-62068711D01*
X138471856Y-62077855D01*
X138462712Y-62088997D01*
X138462710Y-62088999D01*
X138435353Y-62122334D01*
X138408229Y-62173078D01*
X138391527Y-62228139D01*
X138385888Y-62285400D01*
X138387301Y-62299748D01*
X138387301Y-62527379D01*
X138383593Y-62518427D01*
X138332863Y-62442504D01*
X138268296Y-62377937D01*
X138263243Y-62374561D01*
X138260673Y-62348469D01*
X138243971Y-62293408D01*
X138216847Y-62242664D01*
X138189490Y-62209329D01*
X138189489Y-62209328D01*
X138180345Y-62198186D01*
X138169204Y-62189043D01*
X136807262Y-60827102D01*
X136798114Y-60815955D01*
X136753636Y-60779453D01*
X136702892Y-60752329D01*
X136647831Y-60735627D01*
X136604915Y-60731400D01*
X136604907Y-60731400D01*
X136590569Y-60729988D01*
X136576231Y-60731400D01*
X134207592Y-60731400D01*
X133667500Y-60191309D01*
X133667500Y-59441144D01*
X139109450Y-59441144D01*
X139109450Y-59532456D01*
X139127264Y-59622013D01*
X139162207Y-59706373D01*
X139212937Y-59782296D01*
X139277504Y-59846863D01*
X139353427Y-59897593D01*
X139437787Y-59932536D01*
X139527344Y-59950350D01*
X139618656Y-59950350D01*
X139708213Y-59932536D01*
X139792573Y-59897593D01*
X139868496Y-59846863D01*
X139933063Y-59782296D01*
X139983793Y-59706373D01*
X140018736Y-59622013D01*
X140036550Y-59532456D01*
X140036550Y-59441144D01*
X140018736Y-59351587D01*
X139983793Y-59267227D01*
X139933063Y-59191304D01*
X139868496Y-59126737D01*
X139792573Y-59076007D01*
X139708213Y-59041064D01*
X139618656Y-59023250D01*
X139527344Y-59023250D01*
X139437787Y-59041064D01*
X139353427Y-59076007D01*
X139277504Y-59126737D01*
X139212937Y-59191304D01*
X139162207Y-59267227D01*
X139127264Y-59351587D01*
X139109450Y-59441144D01*
X133667500Y-59441144D01*
X133667500Y-59201389D01*
X133732136Y-59136753D01*
X133736142Y-59137550D01*
X133827454Y-59137550D01*
X133917011Y-59119736D01*
X134001371Y-59084793D01*
X134077294Y-59034063D01*
X134141861Y-58969496D01*
X134192591Y-58893573D01*
X134227534Y-58809213D01*
X134245348Y-58719656D01*
X134245348Y-58628344D01*
X134227534Y-58538787D01*
X134192591Y-58454427D01*
X134141861Y-58378504D01*
X134077294Y-58313937D01*
X134001371Y-58263207D01*
X133917011Y-58228264D01*
X133827454Y-58210450D01*
X133736142Y-58210450D01*
X133646585Y-58228264D01*
X133562225Y-58263207D01*
X133486302Y-58313937D01*
X133421735Y-58378504D01*
X133394983Y-58418541D01*
X133350658Y-58352203D01*
X133286091Y-58287636D01*
X133210168Y-58236906D01*
X133125808Y-58201963D01*
X133036251Y-58184149D01*
X132944939Y-58184149D01*
X132855382Y-58201963D01*
X132771022Y-58236906D01*
X132695099Y-58287636D01*
X132650725Y-58332010D01*
X132604096Y-58285381D01*
X132528173Y-58234651D01*
X132443813Y-58199708D01*
X132354256Y-58181894D01*
X132262944Y-58181894D01*
X132173387Y-58199708D01*
X132089027Y-58234651D01*
X132013104Y-58285381D01*
X131948537Y-58349948D01*
X131938135Y-58365516D01*
X131886556Y-58313937D01*
X131810633Y-58263207D01*
X131726273Y-58228264D01*
X131636716Y-58210450D01*
X131545404Y-58210450D01*
X131455847Y-58228264D01*
X131371487Y-58263207D01*
X131295564Y-58313937D01*
X131230997Y-58378504D01*
X131180267Y-58454427D01*
X131145324Y-58538787D01*
X131127510Y-58628344D01*
X131127510Y-58719656D01*
X131145324Y-58809213D01*
X131180267Y-58893573D01*
X131230997Y-58969496D01*
X131295564Y-59034063D01*
X131298960Y-59036332D01*
X131298960Y-59063485D01*
X131139424Y-58903949D01*
X131139652Y-58901632D01*
X131138240Y-58887294D01*
X131138240Y-58887287D01*
X131134013Y-58844371D01*
X131117311Y-58789310D01*
X131090187Y-58738566D01*
X131085648Y-58733035D01*
X131073555Y-58718300D01*
X131074741Y-58712340D01*
X131074741Y-58621028D01*
X131056927Y-58531471D01*
X131021984Y-58447111D01*
X130971254Y-58371188D01*
X130906687Y-58306621D01*
X130830764Y-58255891D01*
X130746404Y-58220948D01*
X130656847Y-58203134D01*
X130565535Y-58203134D01*
X130475978Y-58220948D01*
X130391618Y-58255891D01*
X130315695Y-58306621D01*
X130251128Y-58371188D01*
X130200398Y-58447111D01*
X130165455Y-58531471D01*
X130147641Y-58621028D01*
X130147641Y-58712340D01*
X130165455Y-58801897D01*
X130200398Y-58886257D01*
X130251128Y-58962180D01*
X130315695Y-59026747D01*
X130391618Y-59077477D01*
X130475978Y-59112420D01*
X130565535Y-59130234D01*
X130573196Y-59130234D01*
X130574969Y-59136079D01*
X130580792Y-59146972D01*
X130602093Y-59186822D01*
X130627261Y-59217489D01*
X130638596Y-59231301D01*
X130649738Y-59240445D01*
X130807480Y-59398187D01*
X130740237Y-59398187D01*
X130737968Y-59394791D01*
X130673401Y-59330224D01*
X130597478Y-59279494D01*
X130513118Y-59244551D01*
X130423561Y-59226737D01*
X130332249Y-59226737D01*
X130242692Y-59244551D01*
X130158332Y-59279494D01*
X130082409Y-59330224D01*
X130017842Y-59394791D01*
X129967112Y-59470714D01*
X129932169Y-59555074D01*
X129914355Y-59644631D01*
X129914355Y-59735943D01*
X129932169Y-59825500D01*
X129967112Y-59909860D01*
X130017842Y-59985783D01*
X130082409Y-60050350D01*
X130158332Y-60101080D01*
X130242692Y-60136023D01*
X130332249Y-60153837D01*
X130333949Y-60153837D01*
X130333949Y-60196847D01*
X130334746Y-60200853D01*
X130334231Y-60201368D01*
X130323089Y-60210512D01*
X130313945Y-60221654D01*
X130313943Y-60221656D01*
X130286586Y-60254991D01*
X130259462Y-60305735D01*
X130242760Y-60360796D01*
X130241542Y-60373162D01*
X130232506Y-60364126D01*
X130156583Y-60313396D01*
X130072223Y-60278453D01*
X129982666Y-60260639D01*
X129891354Y-60260639D01*
X129803650Y-60278084D01*
X129803650Y-59040883D01*
X129805062Y-59026547D01*
X129803650Y-59012211D01*
X129803650Y-59012202D01*
X129799423Y-58969286D01*
X129782721Y-58914225D01*
X129755597Y-58863481D01*
X129719095Y-58819003D01*
X129707949Y-58809856D01*
X129621755Y-58723662D01*
X129622552Y-58719656D01*
X129622552Y-58628344D01*
X129604738Y-58538787D01*
X129569795Y-58454427D01*
X129519065Y-58378504D01*
X129454498Y-58313937D01*
X129378575Y-58263207D01*
X129294215Y-58228264D01*
X129204658Y-58210450D01*
X129113346Y-58210450D01*
X129023789Y-58228264D01*
X128939429Y-58263207D01*
X128863506Y-58313937D01*
X128798939Y-58378504D01*
X128748209Y-58454427D01*
X128713266Y-58538787D01*
X128695452Y-58628344D01*
X128695452Y-58719656D01*
X128713266Y-58809213D01*
X128748209Y-58893573D01*
X128798939Y-58969496D01*
X128863506Y-59034063D01*
X128939429Y-59084793D01*
X129023789Y-59119736D01*
X129113346Y-59137550D01*
X129204658Y-59137550D01*
X129208664Y-59136753D01*
X129219450Y-59147539D01*
X129219451Y-60525100D01*
X129131755Y-60507656D01*
X129040443Y-60507656D01*
X128950886Y-60525470D01*
X128866526Y-60560413D01*
X128790603Y-60611143D01*
X128726036Y-60675710D01*
X128675306Y-60751633D01*
X128640363Y-60835993D01*
X128622549Y-60925550D01*
X128622549Y-61016862D01*
X128640363Y-61106419D01*
X128675306Y-61190779D01*
X128726036Y-61266702D01*
X128790603Y-61331269D01*
X128866526Y-61381999D01*
X128922470Y-61405172D01*
X128888627Y-61419190D01*
X128812704Y-61469920D01*
X128748137Y-61534487D01*
X128697407Y-61610410D01*
X128662464Y-61694770D01*
X128648206Y-61766450D01*
X128605344Y-61766450D01*
X128515787Y-61784264D01*
X128514360Y-61784855D01*
X128514360Y-59078467D01*
X128517079Y-59069503D01*
X128519649Y-59043411D01*
X128524702Y-59040035D01*
X128589269Y-58975468D01*
X128639999Y-58899545D01*
X128674942Y-58815185D01*
X128692756Y-58725628D01*
X128692756Y-58634316D01*
X128674942Y-58544759D01*
X128639999Y-58460399D01*
X128589269Y-58384476D01*
X128524702Y-58319909D01*
X128448779Y-58269179D01*
X128364419Y-58234236D01*
X128274862Y-58216422D01*
X128183550Y-58216422D01*
X128093993Y-58234236D01*
X128009633Y-58269179D01*
X127933710Y-58319909D01*
X127869143Y-58384476D01*
X127818413Y-58460399D01*
X127783470Y-58544759D01*
X127765656Y-58634316D01*
X127765656Y-58725628D01*
X127775245Y-58773838D01*
X127770213Y-58771753D01*
X127680656Y-58753939D01*
X127589344Y-58753939D01*
X127499787Y-58771753D01*
X127415427Y-58806696D01*
X127339504Y-58857426D01*
X127274937Y-58921993D01*
X127224207Y-58997916D01*
X127189264Y-59082276D01*
X127171450Y-59171833D01*
X127171450Y-59263145D01*
X127181520Y-59313773D01*
X126443338Y-60051956D01*
X126432191Y-60061104D01*
X126395689Y-60105583D01*
X126377945Y-60138778D01*
X125974579Y-59735413D01*
X125965431Y-59724266D01*
X125920953Y-59687764D01*
X125870209Y-59660640D01*
X125815148Y-59643938D01*
X125789056Y-59641368D01*
X125785680Y-59636315D01*
X125721113Y-59571748D01*
X125645190Y-59521018D01*
X125560830Y-59486075D01*
X125471273Y-59468261D01*
X125379961Y-59468261D01*
X125290404Y-59486075D01*
X125206044Y-59521018D01*
X125130121Y-59571748D01*
X125065554Y-59636315D01*
X125015050Y-59711900D01*
X123788706Y-59711900D01*
X123788706Y-59454000D01*
X123784292Y-59409187D01*
X123771221Y-59366095D01*
X123751393Y-59329000D01*
X123771221Y-59291905D01*
X123784292Y-59248813D01*
X123788706Y-59204000D01*
X123788706Y-59118625D01*
X123791387Y-59119736D01*
X123880944Y-59137550D01*
X123972256Y-59137550D01*
X124061813Y-59119736D01*
X124146173Y-59084793D01*
X124222096Y-59034063D01*
X124286663Y-58969496D01*
X124337393Y-58893573D01*
X124372336Y-58809213D01*
X124390150Y-58719656D01*
X124390150Y-58628344D01*
X124372336Y-58538787D01*
X124337393Y-58454427D01*
X124286663Y-58378504D01*
X124222096Y-58313937D01*
X124146173Y-58263207D01*
X124061813Y-58228264D01*
X123972256Y-58210450D01*
X123880944Y-58210450D01*
X123791387Y-58228264D01*
X123788706Y-58229375D01*
X123788706Y-58204000D01*
X123784292Y-58159187D01*
X123771221Y-58116095D01*
X123751393Y-58079000D01*
X123771221Y-58041905D01*
X123784292Y-57998813D01*
X123788706Y-57954000D01*
X123788706Y-57404000D01*
X123786298Y-57379553D01*
X123786298Y-57354991D01*
X123781884Y-57310178D01*
X123762762Y-57214045D01*
X123749691Y-57170954D01*
X123712182Y-57080398D01*
X123690954Y-57040684D01*
X123648678Y-56977414D01*
X123818992Y-56807100D01*
X127272668Y-56807100D01*
X127274937Y-56810496D01*
X127339504Y-56875063D01*
X127415427Y-56925793D01*
X127499787Y-56960736D01*
X127589344Y-56978550D01*
X127680656Y-56978550D01*
X127770213Y-56960736D01*
X127854573Y-56925793D01*
X127930496Y-56875063D01*
X127995063Y-56810496D01*
X128045793Y-56734573D01*
X128080736Y-56650213D01*
X128098550Y-56560656D01*
X128098550Y-56469344D01*
X128080736Y-56379787D01*
X128045793Y-56295427D01*
X127995063Y-56219504D01*
X127930496Y-56154937D01*
X127854573Y-56104207D01*
X127770213Y-56069264D01*
X127680656Y-56051450D01*
X127589344Y-56051450D01*
X127499787Y-56069264D01*
X127415427Y-56104207D01*
X127339504Y-56154937D01*
X127274937Y-56219504D01*
X127272668Y-56222900D01*
X123712346Y-56222900D01*
X123698000Y-56221487D01*
X123683654Y-56222900D01*
X123640738Y-56227127D01*
X123585677Y-56243829D01*
X123534933Y-56270953D01*
X123490455Y-56307455D01*
X123481311Y-56318597D01*
X123121844Y-56678065D01*
X123108009Y-56676702D01*
X123083447Y-56676702D01*
X123059000Y-56674294D01*
X122559000Y-56674294D01*
X122534553Y-56676702D01*
X122509991Y-56676702D01*
X122465178Y-56681116D01*
X122369045Y-56700238D01*
X122325954Y-56713309D01*
X122235398Y-56750818D01*
X122195684Y-56772046D01*
X122114185Y-56826502D01*
X122079376Y-56855068D01*
X122010068Y-56924376D01*
X121981502Y-56959185D01*
X121927046Y-57040684D01*
X121905818Y-57080398D01*
X121868309Y-57170954D01*
X121855238Y-57214045D01*
X121836116Y-57310178D01*
X121831702Y-57354991D01*
X121831702Y-57379553D01*
X121829294Y-57404000D01*
X121829294Y-57954000D01*
X121833708Y-57998813D01*
X121846779Y-58041905D01*
X121866607Y-58079000D01*
X121846779Y-58116095D01*
X121833708Y-58159187D01*
X121829294Y-58204000D01*
X121829294Y-59204000D01*
X121833708Y-59248813D01*
X121846779Y-59291905D01*
X121866607Y-59329000D01*
X121846779Y-59366095D01*
X121833708Y-59409187D01*
X121829294Y-59454000D01*
X121829294Y-60004000D01*
X121831702Y-60028447D01*
X121831702Y-60053009D01*
X121836116Y-60097822D01*
X121855238Y-60193955D01*
X121868309Y-60237046D01*
X121905818Y-60327602D01*
X121927046Y-60367316D01*
X121981502Y-60448815D01*
X122010068Y-60483624D01*
X122079376Y-60552932D01*
X122114185Y-60581498D01*
X122195684Y-60635954D01*
X122235398Y-60657182D01*
X122325954Y-60694691D01*
X122369045Y-60707762D01*
X122465178Y-60726884D01*
X122509991Y-60731298D01*
X122534553Y-60731298D01*
X122559000Y-60733706D01*
X123059000Y-60733706D01*
X123083447Y-60731298D01*
X123108009Y-60731298D01*
X123152822Y-60726884D01*
X123248955Y-60707762D01*
X123292046Y-60694691D01*
X123382602Y-60657182D01*
X123422316Y-60635954D01*
X123503815Y-60581498D01*
X123538624Y-60552932D01*
X123607932Y-60483624D01*
X123636498Y-60448815D01*
X123690954Y-60367316D01*
X123712182Y-60327602D01*
X123725230Y-60296100D01*
X125048177Y-60296100D01*
X125039807Y-60308627D01*
X125004864Y-60392987D01*
X124987050Y-60482544D01*
X124987050Y-60573856D01*
X125004864Y-60663413D01*
X125039807Y-60747773D01*
X125090537Y-60823696D01*
X125093491Y-60826650D01*
X125090526Y-60829615D01*
X125039796Y-60905538D01*
X125004853Y-60989898D01*
X124987039Y-61079455D01*
X124987039Y-61170767D01*
X125004853Y-61260324D01*
X125039796Y-61344684D01*
X125090526Y-61420607D01*
X125155093Y-61485174D01*
X125231016Y-61535904D01*
X125266420Y-61550569D01*
X125231027Y-61565229D01*
X125155104Y-61615959D01*
X125090537Y-61680526D01*
X125039807Y-61756449D01*
X125004864Y-61840809D01*
X124987050Y-61930366D01*
X124987050Y-62021678D01*
X125004864Y-62111235D01*
X125039807Y-62195595D01*
X125090537Y-62271518D01*
X125155104Y-62336085D01*
X125158500Y-62338354D01*
X125158501Y-65465811D01*
X125157088Y-65480159D01*
X125161155Y-65521459D01*
X125084992Y-65553007D01*
X125009069Y-65603737D01*
X124944502Y-65668304D01*
X124942233Y-65671700D01*
X123585335Y-65671700D01*
X123570999Y-65670288D01*
X123556663Y-65671700D01*
X123556654Y-65671700D01*
X123513738Y-65675927D01*
X123458677Y-65692629D01*
X123415497Y-65715710D01*
X123407933Y-65719753D01*
X123385636Y-65738052D01*
X123363455Y-65756255D01*
X123354311Y-65767397D01*
X122968198Y-66153511D01*
X122957056Y-66162655D01*
X122949038Y-66172426D01*
X122939453Y-66160747D01*
X122869836Y-66103613D01*
X122790409Y-66061159D01*
X122704227Y-66035015D01*
X122614600Y-66026188D01*
X122379700Y-66028400D01*
X122265400Y-66142700D01*
X122265400Y-66884800D01*
X122285400Y-66884800D01*
X122285400Y-66986400D01*
X122265400Y-66986400D01*
X122265400Y-67728500D01*
X122347178Y-67810278D01*
X122344088Y-67841656D01*
X122345501Y-67856004D01*
X122345500Y-68344261D01*
X122344088Y-68358600D01*
X122345500Y-68372938D01*
X122345500Y-68372945D01*
X122349727Y-68415861D01*
X122366429Y-68470922D01*
X122393553Y-68521666D01*
X122430055Y-68566145D01*
X122441202Y-68575293D01*
X122534894Y-68668985D01*
X122534894Y-69385600D01*
X122539308Y-69430413D01*
X122552379Y-69473505D01*
X122573606Y-69513218D01*
X122602173Y-69548027D01*
X122636982Y-69576594D01*
X122676695Y-69597821D01*
X122696385Y-69603794D01*
X122676665Y-69633307D01*
X122635499Y-69732691D01*
X122614512Y-69838196D01*
X122614512Y-69945768D01*
X122635499Y-70051273D01*
X122676665Y-70150657D01*
X122736429Y-70240100D01*
X122812494Y-70316165D01*
X122901937Y-70375929D01*
X123001321Y-70417095D01*
X123106826Y-70438082D01*
X123214398Y-70438082D01*
X123319903Y-70417095D01*
X123419287Y-70375929D01*
X123508730Y-70316165D01*
X123584795Y-70240100D01*
X123644559Y-70150657D01*
X123685300Y-70052298D01*
X123685300Y-72494708D01*
X123527767Y-72652242D01*
X123505909Y-72640559D01*
X123419727Y-72614415D01*
X123330100Y-72605588D01*
X123320200Y-72607800D01*
X123205900Y-72722100D01*
X123205900Y-73989200D01*
X123225900Y-73989200D01*
X123225900Y-74090800D01*
X123205900Y-74090800D01*
X123205900Y-74110800D01*
X123104300Y-74110800D01*
X123104300Y-74090800D01*
X123084300Y-74090800D01*
X123084300Y-73989200D01*
X123104300Y-73989200D01*
X123104300Y-72722100D01*
X122990000Y-72607800D01*
X122980100Y-72605588D01*
X122890473Y-72614415D01*
X122804291Y-72640559D01*
X122724864Y-72683013D01*
X122655247Y-72740147D01*
X122598113Y-72809764D01*
X122555659Y-72889191D01*
X122529515Y-72975373D01*
X122523300Y-73038478D01*
X122523300Y-72116271D01*
X122522219Y-72105295D01*
X122518779Y-72059878D01*
X122515478Y-72041024D01*
X122513397Y-72021998D01*
X122512532Y-72018013D01*
X122490483Y-71919704D01*
X122482200Y-71894571D01*
X122474261Y-71869302D01*
X122472641Y-71865566D01*
X122472639Y-71865561D01*
X122472636Y-71865556D01*
X122431913Y-71773405D01*
X122418905Y-71750359D01*
X122406211Y-71727115D01*
X122403895Y-71723764D01*
X122403892Y-71723759D01*
X122403888Y-71723755D01*
X122346045Y-71641271D01*
X122328806Y-71621188D01*
X122311840Y-71600854D01*
X122308914Y-71598013D01*
X122236144Y-71528331D01*
X122215369Y-71512007D01*
X122194741Y-71495327D01*
X122191319Y-71493109D01*
X122106401Y-71438888D01*
X122082827Y-71426898D01*
X122059378Y-71414556D01*
X122055590Y-71413044D01*
X121961758Y-71376349D01*
X121936309Y-71369168D01*
X121910900Y-71361613D01*
X121906891Y-71360866D01*
X121807719Y-71343096D01*
X121802232Y-71342658D01*
X121796888Y-71341365D01*
X121792846Y-71340825D01*
X121701684Y-71329296D01*
X121641678Y-71309326D01*
X121586684Y-71278075D01*
X121538814Y-71236745D01*
X121499883Y-71186899D01*
X121471373Y-71130442D01*
X121464806Y-71106907D01*
X121521082Y-71163183D01*
X121610525Y-71222947D01*
X121709909Y-71264113D01*
X121815414Y-71285100D01*
X121922986Y-71285100D01*
X122028491Y-71264113D01*
X122127875Y-71222947D01*
X122217318Y-71163183D01*
X122293383Y-71087118D01*
X122353147Y-70997675D01*
X122394313Y-70898291D01*
X122415300Y-70792786D01*
X122415300Y-70685214D01*
X122394313Y-70579709D01*
X122353147Y-70480325D01*
X122293383Y-70390882D01*
X122217318Y-70314817D01*
X122127875Y-70255053D01*
X122028491Y-70213887D01*
X121922986Y-70192900D01*
X121815414Y-70192900D01*
X121709909Y-70213887D01*
X121610525Y-70255053D01*
X121521082Y-70314817D01*
X121448300Y-70387599D01*
X121448300Y-67659950D01*
X121489747Y-67710453D01*
X121559364Y-67767587D01*
X121638791Y-67810041D01*
X121724973Y-67836185D01*
X121814600Y-67845012D01*
X122049500Y-67842800D01*
X122163800Y-67728500D01*
X122163800Y-66986400D01*
X122143800Y-66986400D01*
X122143800Y-66884800D01*
X122163800Y-66884800D01*
X122163800Y-66142700D01*
X122049500Y-66028400D01*
X121814600Y-66026188D01*
X121724973Y-66035015D01*
X121638791Y-66061159D01*
X121559364Y-66103613D01*
X121489747Y-66160747D01*
X121448300Y-66211250D01*
X121448300Y-55419814D01*
X128663700Y-55419814D01*
X128663700Y-55527386D01*
X128684687Y-55632891D01*
X128725853Y-55732275D01*
X128785617Y-55821718D01*
X128861682Y-55897783D01*
X128951125Y-55957547D01*
X129050509Y-55998713D01*
X129156014Y-56019700D01*
X129263586Y-56019700D01*
X129369091Y-55998713D01*
X129468475Y-55957547D01*
X129557918Y-55897783D01*
X129633983Y-55821718D01*
X129693747Y-55732275D01*
X129734913Y-55632891D01*
X129755900Y-55527386D01*
X129755900Y-55419814D01*
X129734913Y-55314309D01*
X129693747Y-55214925D01*
X129633983Y-55125482D01*
X129557918Y-55049417D01*
X129468475Y-54989653D01*
X129369091Y-54948487D01*
X129263586Y-54927500D01*
X129156014Y-54927500D01*
X129050509Y-54948487D01*
X128951125Y-54989653D01*
X128861682Y-55049417D01*
X128785617Y-55125482D01*
X128725853Y-55214925D01*
X128684687Y-55314309D01*
X128663700Y-55419814D01*
X121448300Y-55419814D01*
X121448300Y-54648472D01*
X121467012Y-54496014D01*
X121511613Y-54360336D01*
X121581719Y-54235903D01*
X121674660Y-54127457D01*
X121786898Y-54039125D01*
X121914146Y-53974281D01*
X122054533Y-53934548D01*
X122171009Y-53922717D01*
X133352935Y-53922717D01*
X133401837Y-54216127D01*
G36*
X124944502Y-66259296D02*
G01*
X125009069Y-66323863D01*
X125084992Y-66374593D01*
X125169352Y-66409536D01*
X125258909Y-66427350D01*
X125350221Y-66427350D01*
X125437925Y-66409905D01*
X125437926Y-69297182D01*
X124892185Y-69842924D01*
X124881038Y-69852072D01*
X124844536Y-69896551D01*
X124817412Y-69947295D01*
X124800710Y-70002356D01*
X124796483Y-70045272D01*
X124796483Y-70045279D01*
X124795071Y-70059617D01*
X124796483Y-70073955D01*
X124796484Y-71689235D01*
X124746281Y-71739438D01*
X124735134Y-71748586D01*
X124698632Y-71793065D01*
X124671508Y-71843809D01*
X124654806Y-71898870D01*
X124652236Y-71924961D01*
X124647183Y-71928337D01*
X124582616Y-71992904D01*
X124531886Y-72068827D01*
X124496943Y-72153187D01*
X124479129Y-72242744D01*
X124479129Y-72334056D01*
X124496943Y-72423613D01*
X124531886Y-72507973D01*
X124582616Y-72583896D01*
X124647183Y-72648463D01*
X124723106Y-72699193D01*
X124807466Y-72734136D01*
X124897023Y-72751950D01*
X124988335Y-72751950D01*
X125077892Y-72734136D01*
X125162252Y-72699193D01*
X125238175Y-72648463D01*
X125302742Y-72583896D01*
X125353472Y-72507973D01*
X125388415Y-72423613D01*
X125406229Y-72334056D01*
X125406229Y-72262763D01*
X125584849Y-72441383D01*
X125584052Y-72445388D01*
X125584052Y-72536700D01*
X125601866Y-72626257D01*
X125636809Y-72710617D01*
X125687539Y-72786540D01*
X125736293Y-72835294D01*
X125480100Y-72835294D01*
X125435287Y-72839708D01*
X125405100Y-72848865D01*
X125374913Y-72839708D01*
X125330100Y-72835294D01*
X124980100Y-72835294D01*
X124935287Y-72839708D01*
X124905100Y-72848865D01*
X124874913Y-72839708D01*
X124830100Y-72835294D01*
X124480100Y-72835294D01*
X124435287Y-72839708D01*
X124405100Y-72848865D01*
X124374913Y-72839708D01*
X124330100Y-72835294D01*
X124170898Y-72835294D01*
X124173804Y-72832388D01*
X124184945Y-72823245D01*
X124194339Y-72811799D01*
X124221447Y-72778767D01*
X124248571Y-72728023D01*
X124265273Y-72672962D01*
X124265852Y-72667082D01*
X124269500Y-72630046D01*
X124269500Y-72630039D01*
X124270912Y-72615701D01*
X124269500Y-72601363D01*
X124269500Y-67615306D01*
X124514600Y-67615306D01*
X124559413Y-67610892D01*
X124602505Y-67597821D01*
X124642218Y-67576594D01*
X124677027Y-67548027D01*
X124705594Y-67513218D01*
X124726821Y-67473505D01*
X124739892Y-67430413D01*
X124744306Y-67385600D01*
X124744306Y-66485600D01*
X124739892Y-66440787D01*
X124726821Y-66397695D01*
X124705594Y-66357982D01*
X124677027Y-66323173D01*
X124642218Y-66294606D01*
X124602505Y-66273379D01*
X124559413Y-66260308D01*
X124514661Y-66255900D01*
X124942233Y-66255900D01*
X124944502Y-66259296D01*
G37*
X124944502Y-66259296D02*
X125009069Y-66323863D01*
X125084992Y-66374593D01*
X125169352Y-66409536D01*
X125258909Y-66427350D01*
X125350221Y-66427350D01*
X125437925Y-66409905D01*
X125437926Y-69297182D01*
X124892185Y-69842924D01*
X124881038Y-69852072D01*
X124844536Y-69896551D01*
X124817412Y-69947295D01*
X124800710Y-70002356D01*
X124796483Y-70045272D01*
X124796483Y-70045279D01*
X124795071Y-70059617D01*
X124796483Y-70073955D01*
X124796484Y-71689235D01*
X124746281Y-71739438D01*
X124735134Y-71748586D01*
X124698632Y-71793065D01*
X124671508Y-71843809D01*
X124654806Y-71898870D01*
X124652236Y-71924961D01*
X124647183Y-71928337D01*
X124582616Y-71992904D01*
X124531886Y-72068827D01*
X124496943Y-72153187D01*
X124479129Y-72242744D01*
X124479129Y-72334056D01*
X124496943Y-72423613D01*
X124531886Y-72507973D01*
X124582616Y-72583896D01*
X124647183Y-72648463D01*
X124723106Y-72699193D01*
X124807466Y-72734136D01*
X124897023Y-72751950D01*
X124988335Y-72751950D01*
X125077892Y-72734136D01*
X125162252Y-72699193D01*
X125238175Y-72648463D01*
X125302742Y-72583896D01*
X125353472Y-72507973D01*
X125388415Y-72423613D01*
X125406229Y-72334056D01*
X125406229Y-72262763D01*
X125584849Y-72441383D01*
X125584052Y-72445388D01*
X125584052Y-72536700D01*
X125601866Y-72626257D01*
X125636809Y-72710617D01*
X125687539Y-72786540D01*
X125736293Y-72835294D01*
X125480100Y-72835294D01*
X125435287Y-72839708D01*
X125405100Y-72848865D01*
X125374913Y-72839708D01*
X125330100Y-72835294D01*
X124980100Y-72835294D01*
X124935287Y-72839708D01*
X124905100Y-72848865D01*
X124874913Y-72839708D01*
X124830100Y-72835294D01*
X124480100Y-72835294D01*
X124435287Y-72839708D01*
X124405100Y-72848865D01*
X124374913Y-72839708D01*
X124330100Y-72835294D01*
X124170898Y-72835294D01*
X124173804Y-72832388D01*
X124184945Y-72823245D01*
X124194339Y-72811799D01*
X124221447Y-72778767D01*
X124248571Y-72728023D01*
X124265273Y-72672962D01*
X124265852Y-72667082D01*
X124269500Y-72630046D01*
X124269500Y-72630039D01*
X124270912Y-72615701D01*
X124269500Y-72601363D01*
X124269500Y-67615306D01*
X124514600Y-67615306D01*
X124559413Y-67610892D01*
X124602505Y-67597821D01*
X124642218Y-67576594D01*
X124677027Y-67548027D01*
X124705594Y-67513218D01*
X124726821Y-67473505D01*
X124739892Y-67430413D01*
X124744306Y-67385600D01*
X124744306Y-66485600D01*
X124739892Y-66440787D01*
X124726821Y-66397695D01*
X124705594Y-66357982D01*
X124677027Y-66323173D01*
X124642218Y-66294606D01*
X124602505Y-66273379D01*
X124559413Y-66260308D01*
X124514661Y-66255900D01*
X124942233Y-66255900D01*
X124944502Y-66259296D01*
G36*
X133192873Y-70317256D02*
G01*
X133118118Y-70348220D01*
X133028675Y-70407984D01*
X132952610Y-70484049D01*
X132892846Y-70573492D01*
X132851680Y-70672876D01*
X132830693Y-70778381D01*
X132830693Y-70786573D01*
X132789474Y-70745354D01*
X132833693Y-70679175D01*
X132868636Y-70594815D01*
X132886450Y-70505258D01*
X132886450Y-70413946D01*
X132868636Y-70324389D01*
X132833693Y-70240029D01*
X132782963Y-70164106D01*
X132718396Y-70099539D01*
X132642473Y-70048809D01*
X132558113Y-70013866D01*
X132468556Y-69996052D01*
X132377244Y-69996052D01*
X132287687Y-70013866D01*
X132203327Y-70048809D01*
X132127404Y-70099539D01*
X132112887Y-70114056D01*
X132108798Y-70109967D01*
X132032875Y-70059237D01*
X131948515Y-70024294D01*
X131858958Y-70006480D01*
X131767646Y-70006480D01*
X131679942Y-70023925D01*
X131679942Y-69781787D01*
X131681355Y-69767441D01*
X131675715Y-69710179D01*
X131659013Y-69655118D01*
X131631889Y-69604374D01*
X131604532Y-69571039D01*
X131604531Y-69571038D01*
X131595387Y-69559896D01*
X131584245Y-69550752D01*
X129705155Y-67671664D01*
X129705155Y-67303985D01*
X129792859Y-67321430D01*
X129884171Y-67321430D01*
X129973728Y-67303616D01*
X130058088Y-67268673D01*
X130109763Y-67234145D01*
X133192873Y-70317256D01*
G37*
X133192873Y-70317256D02*
X133118118Y-70348220D01*
X133028675Y-70407984D01*
X132952610Y-70484049D01*
X132892846Y-70573492D01*
X132851680Y-70672876D01*
X132830693Y-70778381D01*
X132830693Y-70786573D01*
X132789474Y-70745354D01*
X132833693Y-70679175D01*
X132868636Y-70594815D01*
X132886450Y-70505258D01*
X132886450Y-70413946D01*
X132868636Y-70324389D01*
X132833693Y-70240029D01*
X132782963Y-70164106D01*
X132718396Y-70099539D01*
X132642473Y-70048809D01*
X132558113Y-70013866D01*
X132468556Y-69996052D01*
X132377244Y-69996052D01*
X132287687Y-70013866D01*
X132203327Y-70048809D01*
X132127404Y-70099539D01*
X132112887Y-70114056D01*
X132108798Y-70109967D01*
X132032875Y-70059237D01*
X131948515Y-70024294D01*
X131858958Y-70006480D01*
X131767646Y-70006480D01*
X131679942Y-70023925D01*
X131679942Y-69781787D01*
X131681355Y-69767441D01*
X131675715Y-69710179D01*
X131659013Y-69655118D01*
X131631889Y-69604374D01*
X131604532Y-69571039D01*
X131604531Y-69571038D01*
X131595387Y-69559896D01*
X131584245Y-69550752D01*
X129705155Y-67671664D01*
X129705155Y-67303985D01*
X129792859Y-67321430D01*
X129884171Y-67321430D01*
X129973728Y-67303616D01*
X130058088Y-67268673D01*
X130109763Y-67234145D01*
X133192873Y-70317256D01*
G36*
X127930161Y-62902877D02*
G01*
X127664853Y-63168185D01*
X127679252Y-63095796D01*
X127679252Y-63004484D01*
X127661438Y-62914927D01*
X127626495Y-62830567D01*
X127615080Y-62813482D01*
X127672025Y-62756537D01*
X127722755Y-62680614D01*
X127757698Y-62596254D01*
X127775512Y-62506697D01*
X127775512Y-62415385D01*
X127757698Y-62325828D01*
X127722755Y-62241468D01*
X127672025Y-62165545D01*
X127607458Y-62100978D01*
X127531535Y-62050248D01*
X127447175Y-62015305D01*
X127357618Y-61997491D01*
X127266306Y-61997491D01*
X127176749Y-62015305D01*
X127092389Y-62050248D01*
X127016466Y-62100978D01*
X126951899Y-62165545D01*
X126931836Y-62195571D01*
X126931836Y-60389640D01*
X127640438Y-59681039D01*
X127680656Y-59681039D01*
X127770213Y-59663225D01*
X127854573Y-59628282D01*
X127930160Y-59577776D01*
X127930161Y-62902877D01*
G37*
X127930161Y-62902877D02*
X127664853Y-63168185D01*
X127679252Y-63095796D01*
X127679252Y-63004484D01*
X127661438Y-62914927D01*
X127626495Y-62830567D01*
X127615080Y-62813482D01*
X127672025Y-62756537D01*
X127722755Y-62680614D01*
X127757698Y-62596254D01*
X127775512Y-62506697D01*
X127775512Y-62415385D01*
X127757698Y-62325828D01*
X127722755Y-62241468D01*
X127672025Y-62165545D01*
X127607458Y-62100978D01*
X127531535Y-62050248D01*
X127447175Y-62015305D01*
X127357618Y-61997491D01*
X127266306Y-61997491D01*
X127176749Y-62015305D01*
X127092389Y-62050248D01*
X127016466Y-62100978D01*
X126951899Y-62165545D01*
X126931836Y-62195571D01*
X126931836Y-60389640D01*
X127640438Y-59681039D01*
X127680656Y-59681039D01*
X127770213Y-59663225D01*
X127854573Y-59628282D01*
X127930160Y-59577776D01*
X127930161Y-62902877D01*
%TD*%
M02*
