%TF.GenerationSoftware,KiCad,Pcbnew,(5.1.5)-3*%
%TF.CreationDate,2020-12-16T18:31:20+01:00*%
%TF.ProjectId,TeensyMM,5465656e-7379-44d4-9d2e-6b696361645f,rev?*%
%TF.SameCoordinates,Original*%
%TF.FileFunction,Legend,Top*%
%TF.FilePolarity,Positive*%
%FSLAX46Y46*%
G04 Gerber Fmt 4.6, Leading zero omitted, Abs format (unit mm)*
G04 Created by KiCad (PCBNEW (5.1.5)-3) date 2020-12-16 18:31:20*
%MOMM*%
%LPD*%
G04 APERTURE LIST*
%ADD10C,0.120000*%
%ADD11C,0.127000*%
%ADD12C,0.152400*%
G04 APERTURE END LIST*
D10*
%TO.C,U2*%
X141538600Y-63330200D02*
X141538600Y-62855200D01*
X138318600Y-66075200D02*
X138793600Y-66075200D01*
X138318600Y-65600200D02*
X138318600Y-66075200D01*
X138318600Y-62855200D02*
X138793600Y-62855200D01*
X138318600Y-63330200D02*
X138318600Y-62855200D01*
X141538600Y-66075200D02*
X141063600Y-66075200D01*
X141538600Y-65600200D02*
X141538600Y-66075200D01*
D11*
%TO.C,Y1*%
X138181400Y-56441200D02*
X135681400Y-56441200D01*
X135681400Y-59281200D02*
X138181400Y-59281200D01*
D12*
%TO.C,U1*%
X134137400Y-68351400D02*
X135026400Y-68351400D01*
X124815600Y-68351400D02*
X125704600Y-68351400D01*
X124815600Y-58140600D02*
X124815600Y-59029600D01*
X135026400Y-58140600D02*
X134137400Y-58140600D01*
X135026400Y-68351400D02*
X135026400Y-67462400D01*
X125780800Y-68021200D02*
X125145800Y-67386200D01*
X135026400Y-59029600D02*
X135026400Y-58140600D01*
X125704600Y-58140600D02*
X124815600Y-58140600D01*
X124815600Y-67462400D02*
X124815600Y-68351400D01*
D10*
%TO.C,C1*%
X124188267Y-69471000D02*
X123895733Y-69471000D01*
X124188267Y-68451000D02*
X123895733Y-68451000D01*
%TO.C,R1*%
X123388333Y-56894000D02*
X123730867Y-56894000D01*
X123388333Y-57914000D02*
X123730867Y-57914000D01*
%TO.C,D1*%
X124511200Y-54716800D02*
X121651200Y-54716800D01*
X121651200Y-54716800D02*
X121651200Y-56636800D01*
X121651200Y-56636800D02*
X124511200Y-56636800D01*
%TO.C,C4*%
X135616733Y-68451000D02*
X135909267Y-68451000D01*
X135616733Y-69471000D02*
X135909267Y-69471000D01*
%TO.C,C3*%
X126890733Y-56009000D02*
X127183267Y-56009000D01*
X126890733Y-54989000D02*
X127183267Y-54989000D01*
%TO.C,C2*%
X138537733Y-61025500D02*
X138830267Y-61025500D01*
X138537733Y-60005500D02*
X138830267Y-60005500D01*
%TO.C,R2*%
X142318200Y-68649667D02*
X142318200Y-68307133D01*
X141298200Y-68649667D02*
X141298200Y-68307133D01*
%TO.C,R3*%
X139164600Y-68318533D02*
X139164600Y-68661067D01*
X140184600Y-68318533D02*
X140184600Y-68661067D01*
%TD*%
%TO.C,U2*%
D11*
X141375795Y-61871980D02*
X141375795Y-62344904D01*
X141403614Y-62400542D01*
X141431433Y-62428361D01*
X141487071Y-62456180D01*
X141598347Y-62456180D01*
X141653985Y-62428361D01*
X141681804Y-62400542D01*
X141709623Y-62344904D01*
X141709623Y-61871980D01*
X141959995Y-61927619D02*
X141987814Y-61899800D01*
X142043452Y-61871980D01*
X142182547Y-61871980D01*
X142238185Y-61899800D01*
X142266004Y-61927619D01*
X142293823Y-61983257D01*
X142293823Y-62038895D01*
X142266004Y-62122352D01*
X141932176Y-62456180D01*
X142293823Y-62456180D01*
%TO.C,Y1*%
X139637709Y-57809190D02*
X139637709Y-58087380D01*
X139442976Y-57503180D02*
X139637709Y-57809190D01*
X139832442Y-57503180D01*
X140333185Y-58087380D02*
X139999357Y-58087380D01*
X140166271Y-58087380D02*
X140166271Y-57503180D01*
X140110633Y-57586638D01*
X140054995Y-57642276D01*
X139999357Y-57670095D01*
%TO.C,U1*%
X122201080Y-63641104D02*
X122674004Y-63641104D01*
X122729642Y-63613285D01*
X122757461Y-63585466D01*
X122785280Y-63529828D01*
X122785280Y-63418552D01*
X122757461Y-63362914D01*
X122729642Y-63335095D01*
X122674004Y-63307276D01*
X122201080Y-63307276D01*
X122785280Y-62723076D02*
X122785280Y-63056904D01*
X122785280Y-62889990D02*
X122201080Y-62889990D01*
X122284538Y-62945628D01*
X122340176Y-63001266D01*
X122367995Y-63056904D01*
%TO.C,C1*%
X122559233Y-67912342D02*
X122531414Y-67940161D01*
X122447957Y-67967980D01*
X122392319Y-67967980D01*
X122308861Y-67940161D01*
X122253223Y-67884523D01*
X122225404Y-67828885D01*
X122197585Y-67717609D01*
X122197585Y-67634152D01*
X122225404Y-67522876D01*
X122253223Y-67467238D01*
X122308861Y-67411600D01*
X122392319Y-67383780D01*
X122447957Y-67383780D01*
X122531414Y-67411600D01*
X122559233Y-67439419D01*
X123115614Y-67967980D02*
X122781785Y-67967980D01*
X122948700Y-67967980D02*
X122948700Y-67383780D01*
X122893061Y-67467238D01*
X122837423Y-67522876D01*
X122781785Y-67550695D01*
%TO.C,R1*%
X122483033Y-58887480D02*
X122288300Y-58609290D01*
X122149204Y-58887480D02*
X122149204Y-58303280D01*
X122371757Y-58303280D01*
X122427395Y-58331100D01*
X122455214Y-58358919D01*
X122483033Y-58414557D01*
X122483033Y-58498014D01*
X122455214Y-58553652D01*
X122427395Y-58581471D01*
X122371757Y-58609290D01*
X122149204Y-58609290D01*
X123039414Y-58887480D02*
X122705585Y-58887480D01*
X122872500Y-58887480D02*
X122872500Y-58303280D01*
X122816861Y-58386738D01*
X122761223Y-58442376D01*
X122705585Y-58470195D01*
%TO.C,D1*%
X124740004Y-54620280D02*
X124740004Y-54036080D01*
X124879100Y-54036080D01*
X124962557Y-54063900D01*
X125018195Y-54119538D01*
X125046014Y-54175176D01*
X125073833Y-54286452D01*
X125073833Y-54369909D01*
X125046014Y-54481185D01*
X125018195Y-54536823D01*
X124962557Y-54592461D01*
X124879100Y-54620280D01*
X124740004Y-54620280D01*
X125630214Y-54620280D02*
X125296385Y-54620280D01*
X125463300Y-54620280D02*
X125463300Y-54036080D01*
X125407661Y-54119538D01*
X125352023Y-54175176D01*
X125296385Y-54202995D01*
%TO.C,C4*%
X135678333Y-70338042D02*
X135650514Y-70365861D01*
X135567057Y-70393680D01*
X135511419Y-70393680D01*
X135427961Y-70365861D01*
X135372323Y-70310223D01*
X135344504Y-70254585D01*
X135316685Y-70143309D01*
X135316685Y-70059852D01*
X135344504Y-69948576D01*
X135372323Y-69892938D01*
X135427961Y-69837300D01*
X135511419Y-69809480D01*
X135567057Y-69809480D01*
X135650514Y-69837300D01*
X135678333Y-69865119D01*
X136179076Y-70004214D02*
X136179076Y-70393680D01*
X136039980Y-69781661D02*
X135900885Y-70198947D01*
X136262533Y-70198947D01*
%TO.C,C3*%
X129429933Y-54856742D02*
X129402114Y-54884561D01*
X129318657Y-54912380D01*
X129263019Y-54912380D01*
X129179561Y-54884561D01*
X129123923Y-54828923D01*
X129096104Y-54773285D01*
X129068285Y-54662009D01*
X129068285Y-54578552D01*
X129096104Y-54467276D01*
X129123923Y-54411638D01*
X129179561Y-54356000D01*
X129263019Y-54328180D01*
X129318657Y-54328180D01*
X129402114Y-54356000D01*
X129429933Y-54383819D01*
X129624666Y-54328180D02*
X129986314Y-54328180D01*
X129791580Y-54550733D01*
X129875038Y-54550733D01*
X129930676Y-54578552D01*
X129958495Y-54606371D01*
X129986314Y-54662009D01*
X129986314Y-54801104D01*
X129958495Y-54856742D01*
X129930676Y-54884561D01*
X129875038Y-54912380D01*
X129708123Y-54912380D01*
X129652485Y-54884561D01*
X129624666Y-54856742D01*
%TO.C,C2*%
X141660033Y-60673342D02*
X141632214Y-60701161D01*
X141548757Y-60728980D01*
X141493119Y-60728980D01*
X141409661Y-60701161D01*
X141354023Y-60645523D01*
X141326204Y-60589885D01*
X141298385Y-60478609D01*
X141298385Y-60395152D01*
X141326204Y-60283876D01*
X141354023Y-60228238D01*
X141409661Y-60172600D01*
X141493119Y-60144780D01*
X141548757Y-60144780D01*
X141632214Y-60172600D01*
X141660033Y-60200419D01*
X141882585Y-60200419D02*
X141910404Y-60172600D01*
X141966042Y-60144780D01*
X142105138Y-60144780D01*
X142160776Y-60172600D01*
X142188595Y-60200419D01*
X142216414Y-60256057D01*
X142216414Y-60311695D01*
X142188595Y-60395152D01*
X141854766Y-60728980D01*
X142216414Y-60728980D01*
%TO.C,R2*%
X141748933Y-70761980D02*
X141554200Y-70483790D01*
X141415104Y-70761980D02*
X141415104Y-70177780D01*
X141637657Y-70177780D01*
X141693295Y-70205600D01*
X141721114Y-70233419D01*
X141748933Y-70289057D01*
X141748933Y-70372514D01*
X141721114Y-70428152D01*
X141693295Y-70455971D01*
X141637657Y-70483790D01*
X141415104Y-70483790D01*
X141971485Y-70233419D02*
X141999304Y-70205600D01*
X142054942Y-70177780D01*
X142194038Y-70177780D01*
X142249676Y-70205600D01*
X142277495Y-70233419D01*
X142305314Y-70289057D01*
X142305314Y-70344695D01*
X142277495Y-70428152D01*
X141943666Y-70761980D01*
X142305314Y-70761980D01*
%TO.C,R3*%
X139501033Y-70812780D02*
X139306300Y-70534590D01*
X139167204Y-70812780D02*
X139167204Y-70228580D01*
X139389757Y-70228580D01*
X139445395Y-70256400D01*
X139473214Y-70284219D01*
X139501033Y-70339857D01*
X139501033Y-70423314D01*
X139473214Y-70478952D01*
X139445395Y-70506771D01*
X139389757Y-70534590D01*
X139167204Y-70534590D01*
X139695766Y-70228580D02*
X140057414Y-70228580D01*
X139862680Y-70451133D01*
X139946138Y-70451133D01*
X140001776Y-70478952D01*
X140029595Y-70506771D01*
X140057414Y-70562409D01*
X140057414Y-70701504D01*
X140029595Y-70757142D01*
X140001776Y-70784961D01*
X139946138Y-70812780D01*
X139779223Y-70812780D01*
X139723585Y-70784961D01*
X139695766Y-70757142D01*
%TD*%
M02*
