M48
; DRILL file {KiCad (5.1.8)-1} date 12/18/20 16:25:48
; FORMAT={-:-/ absolute / metric / decimal}
; #@! TF.CreationDate,2020-12-18T16:25:48+01:00
; #@! TF.GenerationSoftware,Kicad,Pcbnew,(5.1.8)-1
; #@! TF.FileFunction,Plated,1,4,PTH
FMAT,2
METRIC
T1C0.203
T2C0.381
%
G90
G05
T1
X123.927Y-58.674
X124.943Y-72.288
X125.305Y-65.936
X125.426Y-59.932
X125.451Y-61.125
X125.451Y-58.674
X125.451Y-60.528
X125.451Y-61.976
X126.085Y-72.491
X126.918Y-72.708
X127.096Y-70.809
X127.21Y-63.044
X127.313Y-62.456
X127.339Y-72.284
X127.394Y-60.947
X127.635Y-56.515
X127.635Y-59.217
X127.68Y-65.57
X127.819Y-67.862
X127.886Y-72.706
X127.895Y-63.981
X127.918Y-64.577
X128.003Y-70.396
X128.229Y-58.68
X128.32Y-72.296
X128.389Y-63.645
X128.448Y-67.856
X128.651Y-62.23
X128.799Y-72.703
X129.047Y-63.083
X129.086Y-60.971
X129.108Y-61.83
X129.159Y-58.674
X129.267Y-72.332
X129.808Y-66.525
X129.937Y-60.724
X130.118Y-72.339
X130.353Y-64.999
X130.378Y-59.69
X130.586Y-63.134
X130.611Y-58.667
X130.645Y-63.728
X130.797Y-60.151
X131.477Y-72.411
X131.567Y-62.179
X131.591Y-58.674
X131.644Y-70.415
X131.905Y-60.167
X132.142Y-59.318
X132.148Y-70.734
X132.309Y-58.645
X132.991Y-58.648
X133.42Y-61.03
X133.675Y-63.138
X133.782Y-58.674
X134.093Y-71.198
X134.252Y-64.813
X134.425Y-71.769
X135.343Y-71.484
X135.768Y-71.906
X135.837Y-70.387
X136.8Y-65.443
X136.804Y-66.04
X136.919Y-71.495
X137.142Y-72.049
X137.433Y-64.708
X137.439Y-63.017
X137.809Y-72.607
X137.973Y-62.738
X137.998Y-67.516
X138.248Y-70.163
X139.217Y-67.527
X139.478Y-70.637
X139.546Y-60.515
X139.675Y-61.925
X140.265Y-67.527
X141.707Y-66.548
X142.367Y-64.211
T2
X121.869Y-70.739
X123.19Y-68.041
X123.469Y-72.187
X124.549Y-70.091
X126.162Y-54.559
X127.089Y-70.061
X128.994Y-70.142
X129.21Y-55.474
X132.664Y-72.695
X132.714Y-71.248
X134.957Y-68.224
X137.821Y-60.515
X139.647Y-71.577
X139.878Y-64.427
X141.402Y-62.763
X141.529Y-70.256
X141.554Y-71.272
X141.656Y-69.277
T0
M30
